<svg width="17" height="19" viewBox="0 0 17 19" fill="none" xmlns="http://www.w3.org/2000/svg">
<path d="M0 16.15V14.25H2.125V7.6C2.125 6.28583 2.56771 5.11828 3.45312 4.09735C4.33854 3.07642 5.48958 2.4073 6.90625 2.09V0H10.0938V2.09C11.5104 2.40667 12.6615 3.07578 13.5469 4.09735C14.4323 5.11892 14.875 6.28647 14.875 7.6V14.25H17V16.15H0ZM8.5 19C7.91563 19 7.41554 18.8141 6.99975 18.4423C6.58396 18.0706 6.37571 17.6231 6.375 17.1H10.625C10.625 17.6225 10.4171 18.0699 10.0013 18.4423C9.58552 18.8147 9.08508 19.0006 8.5 19ZM7.4375 10.45H9.5625V5.7H7.4375V10.45ZM8.5 13.3C8.80104 13.3 9.05356 13.2088 9.25756 13.0264C9.46156 12.844 9.56321 12.6185 9.5625 12.35C9.56179 12.0815 9.45979 11.856 9.2565 11.6736C9.05321 11.4912 8.80104 11.4 8.5 11.4C8.19896 11.4 7.94679 11.4912 7.7435 11.6736C7.54021 11.856 7.43821 12.0815 7.4375 12.35C7.43679 12.6185 7.53879 12.8443 7.7435 13.0273C7.94821 13.2104 8.20037 13.3013 8.5 13.3Z" fill="#553E00"/>
</svg>
