<svg width="32" height="32" viewBox="0 0 32 32" fill="none" xmlns="http://www.w3.org/2000/svg">
<rect x="0.5" y="0.5" width="31" height="31" rx="15.5" fill="url(#paint0_linear_1756_3441)"/>
<rect x="0.5" y="0.5" width="31" height="31" rx="15.5" stroke="url(#paint1_linear_1756_3441)"/>
<rect x="0.5" y="0.5" width="31" height="31" rx="15.5" stroke="white" stroke-opacity="0.3"/>
<path d="M23.0667 25C23.3333 25 23.5556 24.9 23.7333 24.7C23.9111 24.5 24 24.25 24 23.95V19.9C24 19.6833 23.9333 19.4877 23.8 19.313C23.6667 19.1383 23.4963 19.0173 23.2889 18.95L20.2222 18.25C20.0148 18.2167 19.8036 18.2377 19.5884 18.313C19.3733 18.3883 19.1994 18.5007 19.0667 18.65L16.9778 21C16.4148 20.6333 15.8815 20.229 15.3778 19.787C14.8741 19.345 14.3926 18.866 13.9333 18.35C13.4444 17.8167 12.9961 17.2627 12.5884 16.688C12.1807 16.1133 11.829 15.5173 11.5333 14.9L13.6889 12.45C13.8074 12.3167 13.8889 12.1583 13.9333 11.975C13.9778 11.7917 13.9852 11.5667 13.9556 11.3L13.3778 7.8C13.3481 7.58333 13.2519 7.396 13.0889 7.238C12.9259 7.08 12.7407 7.00067 12.5333 7H8.93333C8.66667 7 8.44444 7.1 8.26667 7.3C8.08889 7.5 8 7.75 8 8.05C8 10.1333 8.40355 12.1917 9.21067 14.225C10.0178 16.2583 11.1624 18.1083 12.6444 19.775C14.1265 21.4417 15.771 22.7293 17.5778 23.638C19.3846 24.5467 21.2142 25.0007 23.0667 25Z" fill="#00832A"/>
<path d="M23.0667 25C23.3333 25 23.5556 24.9 23.7333 24.7C23.9111 24.5 24 24.25 24 23.95V19.9C24 19.6833 23.9333 19.4877 23.8 19.313C23.6667 19.1383 23.4963 19.0173 23.2889 18.95L20.2222 18.25C20.0148 18.2167 19.8036 18.2377 19.5884 18.313C19.3733 18.3883 19.1994 18.5007 19.0667 18.65L16.9778 21C16.4148 20.6333 15.8815 20.229 15.3778 19.787C14.8741 19.345 14.3926 18.866 13.9333 18.35C13.4444 17.8167 12.9961 17.2627 12.5884 16.688C12.1807 16.1133 11.829 15.5173 11.5333 14.9L13.6889 12.45C13.8074 12.3167 13.8889 12.1583 13.9333 11.975C13.9778 11.7917 13.9852 11.5667 13.9556 11.3L13.3778 7.8C13.3481 7.58333 13.2519 7.396 13.0889 7.238C12.9259 7.08 12.7407 7.00067 12.5333 7H8.93333C8.66667 7 8.44444 7.1 8.26667 7.3C8.08889 7.5 8 7.75 8 8.05C8 10.1333 8.40355 12.1917 9.21067 14.225C10.0178 16.2583 11.1624 18.1083 12.6444 19.775C14.1265 21.4417 15.771 22.7293 17.5778 23.638C19.3846 24.5467 21.2142 25.0007 23.0667 25Z" fill="url(#paint2_linear_1756_3441)" fill-opacity="0.4" style="mix-blend-mode:overlay"/>
<defs>
<linearGradient id="paint0_linear_1756_3441" x1="16" y1="0" x2="16" y2="32" gradientUnits="userSpaceOnUse">
<stop stop-color="white"/>
<stop offset="1" stop-color="white" stop-opacity="0.85"/>
</linearGradient>
<linearGradient id="paint1_linear_1756_3441" x1="16" y1="0" x2="16" y2="32" gradientUnits="userSpaceOnUse">
<stop stop-color="#48C06E"/>
<stop offset="1" stop-color="#21A14A"/>
</linearGradient>
<linearGradient id="paint2_linear_1756_3441" x1="16" y1="7" x2="16" y2="25" gradientUnits="userSpaceOnUse">
<stop stop-color="white"/>
<stop offset="1" stop-color="white" stop-opacity="0"/>
</linearGradient>
</defs>
</svg>
