<svg width="50" height="50" viewBox="0 0 50 50" fill="none" xmlns="http://www.w3.org/2000/svg">
<g opacity="0.8">
<path d="M45.4922 41.5311C45.4922 41.1402 45.4922 40.6876 45.4922 40.1527V20.4017C45.4922 19.908 45.0922 19.5171 44.5869 19.5171H26.0804C26.2699 18.2209 26.6068 17.0688 27.0699 16.0606C27.9121 16.719 29.0069 17.0688 30.2491 17.0688C34.2915 17.0688 36.039 14.1884 37.4496 11.8636C38.376 10.3411 39.155 9.02436 40.3761 8.69518C40.7761 8.59231 41.0498 8.24256 41.0498 7.83108C41.0498 6.45263 36.6706 6 35.1547 6C30.6281 6 25.3225 7.66649 25.3225 12.3368C25.3225 13.1186 25.4909 13.8592 25.8488 14.5382C25.5541 15.0525 25.3014 15.5874 25.0698 16.1841C24.7329 15.8343 24.354 15.5051 23.9961 15.2171C24.1013 14.8056 24.1434 14.3942 24.1434 13.9621C24.1434 9.27125 18.5009 8.01624 17.743 8.01624C17.2377 8.01624 16.8377 8.40715 16.8377 8.90092C16.8377 9.3124 17.1324 9.68273 17.5535 9.76502H17.6588C19.4063 10.1354 22.3328 11.1435 22.3328 13.9621V14.0444C21.4485 13.53 20.7116 13.2214 19.6589 12.81C19.1536 12.6042 18.5852 12.3779 17.8904 12.0693C17.6167 11.9459 17.2798 11.987 17.0272 12.1516C16.7745 12.3162 16.6271 12.5836 16.6271 12.8923C16.6271 13.242 16.8377 13.5712 17.1745 13.7152L19.9326 14.8468C20.5642 15.1142 21.1748 15.4228 21.7643 15.7932C21.1117 16.719 20.0379 16.9247 19.2168 16.9247C16.185 16.9247 14.8586 14.7233 13.5954 12.5836C12.9427 11.4932 12.3321 10.4645 11.511 9.68273C12.9848 9.35355 14.227 9.39469 14.8586 9.41527C14.9849 9.41527 15.0691 9.41527 15.1534 9.41527C15.6586 9.41527 16.0587 9.02436 16.0587 8.53059C16.0587 8.03682 15.6797 7.66649 15.1955 7.64591C14.8796 7.64591 14.5638 7.62534 14.2691 7.62534C12.7742 7.62534 8.41605 8.07796 8.41605 9.43584C8.41605 9.84732 8.68976 10.1971 9.08978 10.2999C10.3109 10.6291 11.0899 11.9459 12.0163 13.4889C13.4059 15.8138 15.1323 18.7147 19.2168 18.7147C20.8801 18.7147 22.3117 18.0563 23.196 16.8836C23.6592 17.2951 24.0803 17.7271 24.4803 18.2003C24.3961 18.6118 24.3119 19.0439 24.2487 19.5171H5.40532C4.90003 19.5171 4.5 19.908 4.5 20.4017C4.5 31.9848 4.5 43.1153 4.5 43.1153C4.5 43.6091 4.90003 44 5.40532 44H44.5659C44.7343 44 44.9869 43.9794 45.1975 43.7737C45.5133 43.4651 45.5133 42.889 45.4922 41.5106V41.5311ZM24.0592 26.1419C23.7855 26.0801 23.575 25.9567 23.3223 25.8538C22.7749 25.6069 22.1854 25.3189 21.0064 25.3189C19.8274 25.3189 19.2378 25.6069 18.7115 25.8332C18.2483 26.039 17.8483 26.2447 17.0903 26.2447C16.3324 26.2447 15.9324 26.0596 15.4692 25.8332C14.9428 25.5864 14.3533 25.3189 13.1743 25.3189C11.9952 25.3189 11.4057 25.6069 10.8794 25.8332C10.4162 26.039 10.0162 26.2447 9.25822 26.2447C8.50027 26.2447 8.10024 26.0596 7.65811 25.8538C7.30019 25.6892 6.92122 25.5041 6.31065 25.4012V23.6936H24.0592V26.1419ZM6.31065 36.8403H13.9112C14.4165 36.8403 14.8165 36.4494 14.8165 35.9556C14.8165 35.4618 14.4165 35.0709 13.9112 35.0709H6.31065V27.2323C6.52119 27.294 6.73173 27.3969 6.94227 27.4997C7.48968 27.7466 8.10024 28.0347 9.25822 28.0347C10.4162 28.0347 11.0268 27.7466 11.5531 27.5203C12.0163 27.3146 12.4163 27.1088 13.1743 27.1088C13.9322 27.1088 14.3322 27.294 14.7954 27.4997C15.3218 27.7466 15.9113 28.0141 17.0903 28.0141C18.2694 28.0141 18.8589 27.726 19.3852 27.4997C19.8484 27.294 20.2484 27.0883 21.0064 27.0883C21.7643 27.0883 22.1644 27.2734 22.6065 27.4792C22.9855 27.6643 23.3855 27.8495 24.0592 27.9524V29.0222L20.7958 30.0303C19.9537 29.5983 19.4484 29.3102 19.1115 29.1251C18.522 28.7959 18.4378 28.7547 18.2062 28.7547C17.7851 28.7547 17.4272 29.0222 17.3219 29.4337C17.2167 29.8246 17.4061 30.2361 17.7641 30.4418L19.4905 31.3676L18.6062 33.137C18.4588 33.4044 18.4799 33.7336 18.6483 34.0011C18.8168 34.2685 19.1115 34.4126 19.4273 34.4126C19.7642 34.4126 20.1011 34.2274 20.2484 33.9188L21.3643 31.738L24.0803 30.8944V32.1906C24.0803 32.6844 24.4803 33.0753 24.9856 33.0753C25.4909 33.0753 25.8909 32.6844 25.8909 32.1906V30.915L28.5437 31.738L29.6596 33.9188C29.9544 34.4949 30.9018 34.536 31.2387 34.0011C31.4071 33.7336 31.4281 33.425 31.2808 33.137L30.3965 31.3676L32.1229 30.4418C32.4177 30.2772 32.6072 29.9892 32.6072 29.66C32.6072 29.3308 32.4387 29.0633 32.165 28.8988C31.8913 28.7342 31.5545 28.7342 31.2597 28.8988L29.0911 30.0509L25.8909 29.0633V27.9729C26.5015 27.8701 26.9015 27.6849 27.2594 27.5203C27.7016 27.3146 28.0805 27.1294 28.8595 27.1294C29.6385 27.1294 30.0175 27.3146 30.4807 27.5203C31.0071 27.7672 31.5966 28.0347 32.7756 28.0347C33.9546 28.0347 34.5441 27.7466 35.0705 27.5203C35.5337 27.3146 35.9337 27.1294 36.6917 27.1294C37.4496 27.1294 37.8496 27.3146 38.3128 27.5203C38.8392 27.7672 39.4287 28.0347 40.6077 28.0347C41.7867 28.0347 42.3973 27.7466 42.9237 27.4997C43.1763 27.3763 43.4079 27.2734 43.6816 27.2117V35.0915H16.4798C15.9745 35.0915 15.5744 35.4824 15.5744 35.9762C15.5744 36.47 15.9745 36.8609 16.4798 36.8609H43.6395V42.2512H6.31065V36.8609V36.8403ZM37.6601 22.7883C37.6601 23.2821 38.0602 23.673 38.5655 23.673H43.6605V25.36C42.9868 25.4629 42.5868 25.6481 42.2078 25.8332C41.7657 26.039 41.3657 26.2241 40.6077 26.2241C39.8498 26.2241 39.4497 26.039 38.9865 25.8332C38.4602 25.5864 37.8707 25.3189 36.6917 25.3189C35.5126 25.3189 34.9231 25.6069 34.3968 25.8332C33.9336 26.039 33.5335 26.2447 32.7756 26.2447C32.0177 26.2447 31.6176 26.0596 31.1544 25.8538C30.6281 25.6069 30.0386 25.3395 28.8595 25.3395C27.6805 25.3395 27.0699 25.6275 26.5436 25.8744C26.3331 25.9773 26.1225 26.0596 25.912 26.1419V23.7141H36.0179C36.5232 23.7141 36.9232 23.3232 36.9232 22.8295C36.9232 22.3357 36.5232 21.9448 36.0179 21.9448H25.912C25.912 21.7802 25.912 21.595 25.912 21.3276H43.6605V21.9448H38.5655C38.0602 21.9448 37.6601 22.3357 37.6601 22.8295V22.7883ZM6.31065 21.9036V21.2864H24.0803C24.0803 21.5333 24.0803 21.739 24.0803 21.9036H6.31065ZM31.2808 12.2133C31.5755 12.1104 31.8282 12.0282 32.0387 11.8841L32.1861 12.5219L32.3756 11.555C32.4387 11.4315 32.4808 11.2875 32.4808 11.1023C32.4808 11.02 32.4808 10.9583 32.4598 10.9172C32.3545 10.5263 31.9966 10.2382 31.5755 10.2382C31.1755 10.2382 28.9227 10.8966 27.1331 12.7482C27.1331 12.6042 27.1121 12.4396 27.1121 12.2956C27.1121 11.3286 27.47 10.4851 28.1437 9.82675C30.2702 7.76936 34.9442 7.78993 35.1337 7.76936C36.1021 7.76936 37.0496 7.87223 37.9338 8.05739C37.1127 8.81862 36.4811 9.86789 35.8284 10.9377C34.5441 13.0568 33.2177 15.2583 30.207 15.2583C29.5543 15.2583 28.649 15.1142 27.9753 14.497C29.2175 12.8923 30.4386 12.4808 31.2597 12.1927L31.2808 12.2133Z" fill="#1A543D"/>
<path d="M7.5 40C6.94186 40 6.5 40.4419 6.5 41C6.5 41.5581 6.94186 42 7.5 42C8.05814 42 8.5 41.5581 8.5 41C8.5 40.4419 8.03488 40 7.5 40Z" fill="#1A543D"/>
<path d="M12.5 37C11.3911 37 10.5 37.8911 10.5 39C10.5 40.1089 11.3911 41 12.5 41C13.6089 41 14.5 40.1089 14.5 39C14.5 37.8911 13.6089 37 12.5 37ZM12.797 39C12.797 39.1584 12.6584 39.297 12.5 39.297C12.3416 39.297 12.203 39.1584 12.203 39C12.203 38.8416 12.3416 38.703 12.5 38.703C12.6584 38.703 12.797 38.8416 12.797 39Z" fill="#1A543D"/>
<path d="M30.5 37C29.3911 37 28.5 37.8911 28.5 39C28.5 40.1089 29.3911 41 30.5 41C31.6089 41 32.5 40.1089 32.5 39C32.5 37.8911 31.6089 37 30.5 37ZM30.797 39C30.797 39.1584 30.6584 39.297 30.5 39.297C30.3416 39.297 30.203 39.1584 30.203 39C30.203 38.8416 30.3416 38.703 30.5 38.703C30.6584 38.703 30.797 38.8416 30.797 39Z" fill="#1A543D"/>
<path d="M18.5 37C17.9419 37 17.5 37.4419 17.5 38C17.5 38.5581 17.9419 39 18.5 39C19.0581 39 19.5 38.5581 19.5 38C19.5 37.4419 19.0581 37 18.5 37Z" fill="#1A543D"/>
<path d="M25.497 39.046C25.1997 39.046 24.9253 39.1839 24.7195 39.4138C24.5366 39.6437 24.468 39.9425 24.5137 40.2184C24.5823 40.6092 24.9024 40.931 25.2912 41C25.3598 41 25.4284 41 25.497 41C25.7485 41 26 40.908 26.2058 40.7011C26.4345 40.4713 26.5488 40.1264 26.4802 39.8046C26.3888 39.3448 25.9772 39 25.5198 39L25.497 39.046Z" fill="#1A543D"/>
<path d="M37.6988 40.0261C37.3991 39.9565 37.0994 40.0261 36.8689 40.2351C36.6383 40.4441 36.5 40.6996 36.5 41.0015C36.5 41.3033 36.6383 41.582 36.8689 41.7678C37.0533 41.9071 37.2608 42 37.4914 42C37.5605 42 37.6297 42 37.6988 42C37.9755 41.9303 38.183 41.791 38.3444 41.5588C38.4827 41.3498 38.5288 41.0711 38.4827 40.8157C38.4135 40.4209 38.1138 40.119 37.6988 40.0261Z" fill="#1A543D"/>
<path d="M42.6988 38.0465C42.3991 37.9767 42.0994 38.0465 41.8689 38.2558C41.6383 38.4419 41.5 38.7209 41.5 39.0233C41.5 39.5116 41.8458 39.907 42.3069 40C42.3761 40 42.4452 40 42.5144 40C42.6988 40 42.8833 39.9535 43.0447 39.8372C43.2752 39.6977 43.4366 39.4651 43.4827 39.186C43.5288 38.9302 43.4827 38.6512 43.3444 38.4186C43.206 38.186 42.9755 38.0465 42.7219 38L42.6988 38.0465Z" fill="#1A543D"/>
</g>
</svg>
