<svg width="50" height="50" viewBox="0 0 50 50" fill="none" xmlns="http://www.w3.org/2000/svg">
<g opacity="0.8" clip-path="url(#clip0_1756_3405)">
<path d="M10.7787 40.3333H22.2436L20.6792 44.5886H19.0738V46H32.9262V44.5886H31.3208L29.7564 40.3333H41.2213C42.7444 40.3333 44 39.0694 44 37.4895V26.8513H42.6209V34.6456H9.37907V14.8228C9.37907 14.0434 9.99657 13.4114 10.7581 13.4114H24.6106V12H10.7787C9.25557 12 8 13.2639 8 14.8439V37.5105C8 39.0694 9.23499 40.3544 10.7787 40.3544V40.3333ZM29.8593 44.5886H22.1612L23.7256 40.3333H28.295L29.8593 44.5886ZM9.37907 36.0781H42.6003V37.4895C42.6003 38.2689 41.9828 38.9009 41.2213 38.9009H10.7787C10.0172 38.9009 9.39966 38.2689 9.39966 37.4895V36.0781H9.37907Z" fill="#1A543D"/>
<path d="M12 15H11V16H12V15Z" fill="#1A543D"/>
<path d="M15 15H14V16H15V15Z" fill="#1A543D"/>
<path d="M17 15H16V16H17V15Z" fill="#1A543D"/>
<path d="M24.9792 18H11V19H25V18H24.9792Z" fill="#1A543D"/>
<path d="M14.9802 21H11V22H15V21H14.9802Z" fill="#1A543D"/>
<path d="M14.9802 24H11V25H15V24H14.9802Z" fill="#1A543D"/>
<path d="M14.9802 26H11V27H15V26H14.9802Z" fill="#1A543D"/>
<path d="M14.9802 29H11V30H15V29H14.9802Z" fill="#1A543D"/>
<path d="M14.9802 32H11V33H15V32H14.9802Z" fill="#1A543D"/>
<path d="M17 21H16V34H17V21Z" fill="#1A543D"/>
<path d="M22 21H19V22H22V21Z" fill="#1A543D"/>
<path d="M26 24H23V25H26V24Z" fill="#1A543D"/>
<path d="M29 26H26V27H29V26Z" fill="#1A543D"/>
<path d="M36 29H30V30H36V29Z" fill="#1A543D"/>
<path d="M40 32H36V33H40V32Z" fill="#1A543D"/>
<path d="M49.2867 13.1678H47.4615C47.2727 12.5175 47 11.8881 46.6853 11.3007L47.986 10C48.2587 9.72727 48.2587 9.28671 47.986 9.01399L44.986 6.01399C44.7133 5.74126 44.2727 5.74126 44 6.01399L42.6993 7.31469C42.1119 7 41.4825 6.72727 40.8322 6.53846V4.71329C40.8322 4.33566 40.5175 4 40.1189 4H35.8811C35.4825 4 35.1678 4.31469 35.1678 4.71329V6.53846C34.5175 6.72727 33.8881 7 33.3007 7.31469L32 6.01399C31.7273 5.74126 31.2867 5.74126 31.014 6.01399L28.014 9.01399C27.7413 9.28671 27.7413 9.72727 28.014 10L29.3147 11.3007C29 11.8881 28.7273 12.5175 28.5385 13.1678H26.7133C26.3147 13.1678 26 13.4825 26 13.8811V18.1189C26 18.5175 26.3147 18.8322 26.7133 18.8322H28.5385C28.7273 19.4825 29 20.1119 29.3147 20.6993L28.014 22C27.7413 22.2727 27.7413 22.7133 28.014 22.986L31.014 25.986C31.2867 26.2587 31.7273 26.2587 32 25.986L33.3007 24.6853C33.8881 25 34.5175 25.2727 35.1678 25.4615V27.2867C35.1678 27.6643 35.4825 28 35.8811 28H40.1189C40.4965 28 40.8322 27.6853 40.8322 27.2867V25.4615C41.4825 25.2727 42.1119 25 42.6993 24.6853L44 25.986C44.2727 26.2587 44.7133 26.2587 44.986 25.986L47.986 22.986C48.2587 22.7133 48.2587 22.2727 47.986 22L46.6853 20.6993C47 20.1119 47.2727 19.4825 47.4615 18.8322H49.2867C49.6853 18.8322 50 18.5175 50 18.1189V13.8811C50 13.4825 49.6853 13.1678 49.2867 13.1678ZM48.5944 17.4056H46.9371C46.6224 17.4056 46.3287 17.6364 46.2448 17.951C46.035 18.8322 45.6783 19.6713 45.2168 20.4266C45.049 20.6993 45.0909 21.0769 45.3217 21.2867L46.4965 22.4615L44.5035 24.4545L43.3287 23.2797C43.0979 23.049 42.7413 23.007 42.4685 23.1748C41.6923 23.6573 40.8741 23.993 39.993 24.2028C39.6783 24.2867 39.4476 24.5594 39.4476 24.8951V26.5524H36.6154V24.8951C36.6154 24.5804 36.3846 24.2867 36.0699 24.2028C35.1888 23.993 34.3497 23.6364 33.5944 23.1748C33.3217 23.007 32.9441 23.049 32.7343 23.2797L31.5594 24.4545L29.5664 22.4615L30.7413 21.2867C30.972 21.0559 31.014 20.6993 30.8462 20.4266C30.3636 19.6503 30.028 18.8322 29.8182 17.951C29.7343 17.6364 29.4615 17.4056 29.1259 17.4056H27.4685V14.5734H29.1259C29.4406 14.5734 29.7343 14.3427 29.8182 14.028C30.028 13.1469 30.3846 12.3077 30.8462 11.5524C31.014 11.2797 30.972 10.9021 30.7413 10.6923L29.5664 9.51748L31.5594 7.52448L32.7343 8.6993C32.965 8.93007 33.3217 8.97203 33.5944 8.8042C34.3706 8.32168 35.1888 7.98601 36.0699 7.77622C36.3846 7.69231 36.6154 7.41958 36.6154 7.08392V5.42657H39.4476V7.08392C39.4476 7.3986 39.6783 7.69231 39.993 7.77622C40.8741 7.98601 41.7133 8.34266 42.4685 8.8042C42.7413 8.97203 43.1189 8.93007 43.3287 8.6993L44.5035 7.52448L46.4965 9.51748L45.3217 10.6923C45.0909 10.9231 45.049 11.2797 45.2168 11.5524C45.6993 12.3287 46.035 13.1469 46.2448 14.028C46.3287 14.3427 46.6014 14.5734 46.9371 14.5734H48.5944V17.4056Z" fill="#1A543D"/>
<path d="M38.5 10C34.9175 10 32 12.9175 32 16.5C32 20.0825 34.9175 23 38.5 23C42.0825 23 45 20.0825 45 16.5V15.7706C45 15.2772 44.8713 14.8053 44.6353 14.3762C43.7343 11.7591 41.2673 10 38.5 10ZM38.5 21.5413C35.7112 21.5413 33.4587 19.2888 33.4587 16.5C33.4587 13.7112 35.7112 11.4587 38.5 11.4587C41.2888 11.4587 43.5413 13.7112 43.5413 16.5C43.5413 19.2888 41.2673 21.5413 38.5 21.5413Z" fill="#1A543D"/>
<path d="M38 13C36.3556 13 35 14.3333 35 16C35 17.6667 36.3333 19 38 19C39.6667 19 41 17.6667 41 16C41 14.3333 39.6667 13 38 13ZM38 17.4889C37.1778 17.4889 36.5111 16.8222 36.5111 16C36.5111 15.1778 37.1778 14.5111 38 14.5111C38.8222 14.5111 39.4889 15.1778 39.4889 16C39.4889 16.8222 38.8222 17.4889 38 17.4889Z" fill="#1A543D"/>
</g>
<defs>
<clipPath id="clip0_1756_3405">
<rect width="50" height="50" fill="white"/>
</clipPath>
</defs>
</svg>
