<svg width="40" height="50" viewBox="0 0 40 50" fill="none" xmlns="http://www.w3.org/2000/svg">
<g opacity="0.8">
<path d="M19.9904 4C11.1708 4 4 11.481 4 20.6915C4 27.4924 8.06471 33.7104 14.1234 36.2171L18.4949 44.1062C18.8017 44.6502 19.3769 45 20.0096 45C20.6423 45 21.2175 44.6502 21.5243 44.1062L25.8957 36.2171C26.6435 35.9062 27.3721 35.537 28.0623 35.1095C28.8868 34.6043 29.136 33.5355 28.6567 32.7C28.1582 31.8645 27.1037 31.6118 26.2792 32.0976C25.704 32.4474 25.0905 32.7583 24.4769 33.0109C23.825 33.2635 23.2882 33.7493 22.9431 34.3711L20.0096 39.6758L17.0761 34.3711C16.731 33.7493 16.1941 33.2829 15.5422 33.0109C10.7106 31.0678 7.47034 26.1322 7.47034 20.6915C7.47034 13.4242 13.0881 7.51706 20.0096 7.51706C26.9311 7.51706 32.5488 13.4242 32.5488 20.6915C32.5488 23.4507 31.686 26.2294 30.0947 28.4834C29.5386 29.2801 29.7304 30.3682 30.4973 30.9318C31.2834 31.4953 32.3571 31.3009 32.9131 30.5237C34.9263 27.6284 36 24.228 36 20.6915C36 11.481 28.8101 4 19.9904 4Z" fill="#1A543D"/>
<path d="M26.2422 18.7781C25.2656 18.7781 24.4844 19.5434 24.4844 20.5C24.4844 22.7194 22.707 24.537 20.5 24.537C18.293 24.537 16.5156 22.7194 16.5156 20.5C16.5156 18.2806 18.293 16.463 20.5 16.463C21.2422 16.463 21.9648 16.6735 22.6094 17.0753C23.4297 17.5918 24.5234 17.3622 25.0508 16.5587C25.5781 15.7551 25.3438 14.6837 24.5234 14.1671C23.332 13.4018 21.9258 13 20.5 13C16.3594 13 13 16.3673 13 20.5C13 24.6327 16.3594 28 20.5 28C24.6406 28 28 24.6327 28 20.5C28 19.5434 27.2188 18.7781 26.2422 18.7781Z" fill="#1A543D"/>
</g>
</svg>
