<svg width="24" height="24" viewBox="0 0 24 24" fill="none" xmlns="http://www.w3.org/2000/svg">
<path d="M22 17.1012C21.9999 18.4779 21.5326 19.8133 20.6755 20.8861C19.8183 21.9589 18.6228 22.7047 17.287 23L16.649 21.0733C17.2333 20.9767 17.789 20.7506 18.276 20.4115C18.763 20.0724 19.1691 19.6287 19.465 19.1125H17C16.4696 19.1125 15.9609 18.9003 15.5858 18.5228C15.2107 18.1452 15 17.6332 15 17.0992V13.0728C15 12.5388 15.2107 12.0267 15.5858 11.6492C15.9609 11.2716 16.4696 11.0595 17 11.0595H19.938C19.694 9.11364 18.7529 7.32426 17.2914 6.02714C15.8299 4.73002 13.9484 4.01431 12 4.01431C10.0516 4.01431 8.17007 4.73002 6.70857 6.02714C5.24708 7.32426 4.30603 9.11364 4.062 11.0595H7C7.53043 11.0595 8.03914 11.2716 8.41421 11.6492C8.78929 12.0267 9 12.5388 9 13.0728V17.0992C9 17.6332 8.78929 18.1452 8.41421 18.5228C8.03914 18.9003 7.53043 19.1125 7 19.1125H4C3.46957 19.1125 2.96086 18.9003 2.58579 18.5228C2.21071 18.1452 2 17.6332 2 17.0992V12.0661C2 6.50662 6.477 2 12 2C17.523 2 22 6.50662 22 12.0661V17.1012Z" fill="white"/>
</svg>
