<svg width="50" height="50" viewBox="0 0 50 50" fill="none" xmlns="http://www.w3.org/2000/svg">
<g opacity="0.8">
<path d="M34.1305 29.4241C34.3718 29.2152 34.4924 28.9304 34.4723 28.6266C34.4522 28.3228 34.2712 28.057 33.9898 27.8861L31.9393 26.7468C32.08 26.6709 32.2006 26.5949 32.3413 26.519L32.5424 26.4051C32.9846 26.1582 33.447 25.9114 33.8893 25.6456C33.9496 25.6076 34.0099 25.5696 34.0501 25.5127C34.412 25.0949 34.3517 24.4684 33.9697 24.1646C33.9295 24.1266 33.8692 24.0886 33.8491 24.0696L32.2006 23.1392C32.7635 22.8354 33.3264 22.5127 33.8893 22.1519C34.0903 22.038 34.4522 21.8101 34.4924 21.3734C34.5326 21.0886 34.412 20.8228 34.1707 20.5949C34.1506 20.557 34.0501 20.5 34.0099 20.462L26.3506 16.0949C26.2501 16.038 26.1295 16 26.0088 16H25.8279C25.6872 16 25.5465 16.038 25.4459 16.0949L18.0681 20.5C18.0681 20.5 17.9273 20.6139 17.8871 20.6709C17.5856 21.0506 17.6057 21.5633 17.9474 21.9241C17.9877 21.981 18.048 22.019 18.1083 22.057L19.7768 23.0443L17.9474 24.0886L17.9072 24.1266C17.5052 24.4494 17.4851 24.8291 17.5052 24.962C17.5052 25.1899 17.6459 25.5316 18.1284 25.7975C18.7516 26.1392 19.3748 26.5 19.9779 26.8797C19.8975 26.8797 19.8372 26.9177 19.7567 26.9557C19.4351 27.0696 19.1536 27.2785 18.8119 27.5063C18.6511 27.6203 18.3696 27.8101 18.1887 27.8861C18.0681 27.943 17.9676 28.019 17.8871 28.1139C17.7062 28.3797 17.6258 28.6456 17.6861 28.8924C17.7665 29.2911 18.1083 29.5 18.2892 29.6139L18.3495 29.6519C19.4753 30.3734 20.6614 31.057 21.7067 31.6835L21.8274 31.7595C22.8325 32.3481 24.099 33.0696 25.2449 33.8101C25.4459 33.943 25.6671 34 25.8882 34C26.049 34 26.2099 33.962 26.2903 33.924C26.2903 33.924 26.3707 33.8861 26.4109 33.8671L34.0501 29.5C34.0501 29.5 34.1104 29.443 34.1305 29.443V29.4241ZM25.9083 24.4114L20.6413 21.2405L25.8882 18.1266L31.3965 21.3165L25.9083 24.4304V24.4114ZM25.8279 26.538H25.9485C26.049 26.538 26.1898 26.5 26.3104 26.443C27.6171 25.7215 29.0846 24.8861 30.5723 24.0506C30.5924 24.1835 30.6527 24.3165 30.7331 24.4494C30.7934 24.5443 30.8738 24.6203 30.9542 24.6582L31.3161 24.8671L25.7274 28.019L20.4805 24.8481L21.6866 24.1835L25.4459 26.4241C25.5666 26.5 25.6872 26.538 25.8279 26.538ZM25.8279 30.1646C25.8279 30.1646 26.0088 30.1266 26.1093 30.0696L29.9491 27.9051L31.4166 28.7215L25.9083 31.8734L20.6212 28.7025C20.7418 28.6266 20.8624 28.5316 20.9629 28.4367C21.1841 28.2089 21.2645 27.9051 21.2243 27.6392C21.3047 27.6962 21.3851 27.7532 21.4856 27.7911L21.5459 27.8291C22.6717 28.5506 23.8578 29.2911 25.1042 29.9557C25.2449 30.0316 25.466 30.1835 25.848 30.1266L25.8279 30.1646Z" fill="#1A543D"/>
<path d="M34.9152 7.04797L34.8201 6.99046C34.0786 6.60711 33.2611 6.16625 32.7858 6.05125C32.3105 5.93624 31.8542 6.01291 31.569 6.30043C31.2838 6.56877 31.1887 6.95213 31.2648 7.41215C31.3598 7.92968 32.0633 8.25553 33.109 8.67722L33.2041 8.71556C33.3562 8.77306 33.4702 8.83056 33.5653 8.8689C38.7938 11.5332 42.3682 16.5935 43.1287 22.4396C43.9082 28.3624 41.8358 34.0552 37.4249 38.0613C36.3412 39.0388 35.1814 39.8631 34.0596 40.4381C34.0977 40.0931 33.9836 39.7864 33.6984 39.5372C33.2611 39.1347 32.5956 39.1347 32.1393 39.5372C32.1013 39.5564 32.0823 39.5947 32.0443 39.6522L30.5803 42.2207C30.3521 42.9682 30.6373 43.2557 31.0936 43.6008C31.2838 43.7541 33.2611 44.9617 33.7174 45C33.7744 45 33.8315 45 33.8885 45C34.4399 45 34.8011 44.7125 34.9342 44.2141C35.1243 43.4858 34.7061 43.1024 34.3258 42.8724C38.6987 40.6681 42.121 37.0262 43.9653 32.5985C47.9389 23.0722 43.9462 11.8591 34.8772 7.06713L34.9152 7.04797Z" fill="#1A543D"/>
<path d="M17.0626 41.2877C16.8706 41.2108 16.717 41.1531 16.6018 41.0954C9.76557 37.6329 5.8674 30.2078 6.94276 22.5903C7.71087 17.0503 11.1674 12.1066 15.9873 9.50978C15.9297 9.77909 15.9489 10.0484 16.1409 10.3562C16.3521 10.6639 16.6402 10.8563 16.9858 10.8755C17.3507 10.914 17.7347 10.7217 17.9844 10.3946C18.2724 10.0484 19.1941 8.43256 19.367 7.99014C19.5398 7.58618 19.6358 7.06681 19.0597 6.54743C18.7909 6.3166 16.8706 5.22015 16.5634 5.08549C16.1217 4.91237 15.68 5.00855 15.3344 5.31633C14.9887 5.64334 14.8927 6.12424 15.0463 6.5859C15.1231 6.83597 15.3344 7.0091 15.5648 7.14375C10.0728 9.85603 5.98262 15.2614 4.84965 21.3592C3.21741 30.1501 7.40363 38.8255 15.2384 42.942L15.3152 42.9805C16.0833 43.3844 16.9282 43.8076 17.3891 43.9423C17.5235 43.9808 17.6771 44 17.8115 44C18.138 44 18.4068 43.9038 18.6181 43.6922C18.9061 43.4229 19.0021 43.0382 18.9253 42.5765C18.8293 42.0572 18.1188 41.7301 17.0626 41.2877Z" fill="#1A543D"/>
<path d="M25.1188 38.0302C23.6189 38.14 22.2609 38.8356 21.3894 39.9706C20.5381 41.0872 20.2746 42.4785 20.7003 43.7782C21.2272 45.4074 22.646 46.579 24.5107 46.9085C24.8553 46.9634 25.1998 47 25.5241 47C27.024 47 28.4225 46.3959 29.4156 45.2976C30.652 43.9063 30.8547 42.0391 29.9021 40.4282C28.9495 38.799 27.1456 37.8837 25.1188 38.0119V38.0302ZM27.2469 40.5747C27.2469 40.5747 27.2267 40.5747 27.2064 40.5747C26.9226 40.6479 26.4767 41.0506 25.5647 41.9476C25.3417 42.1673 25.0782 42.4236 24.9161 42.5517C24.835 42.4785 24.7539 42.4053 24.6728 42.3137C24.308 41.9659 23.9432 41.5998 23.5581 41.5815H23.5378C23.2541 41.5815 23.0108 41.7096 22.8487 41.9293C22.6663 42.1673 22.6258 42.4785 22.7474 42.7531C22.8284 42.9361 24.3486 44.2541 24.4296 44.3091C24.612 44.4189 24.7742 44.4555 24.9161 44.4555C25.2201 44.4555 25.443 44.2908 25.6255 44.1443C25.9295 43.9246 27.9563 42.149 28.159 41.8012C28.3211 41.5266 28.3211 41.2154 28.159 40.9774C28.2603 41.1239 28.3819 41.2337 28.463 41.3984C29.0508 42.6432 28.6252 44.0162 27.3888 44.8765C26.4767 45.4989 25.3012 45.6271 24.2067 45.1877C23.0717 44.7301 22.3217 43.7782 22.2204 42.6981C22.119 41.2886 23.3757 39.8241 24.8755 39.6411C26.1727 39.4763 27.328 39.9523 28.0374 40.8127C27.8347 40.6296 27.5509 40.5198 27.2267 40.593L27.2469 40.5747Z" fill="#1A543D"/>
<path d="M24.5107 11.9085C24.8553 11.9634 25.1998 12 25.5241 12C27.024 12 28.4225 11.3959 29.4156 10.2975C30.652 8.90626 30.8547 7.03904 29.9021 5.4281C28.9495 3.81716 27.1659 2.88354 25.1188 3.01169C23.6189 3.12152 22.2609 3.81716 21.3894 4.95214C20.5381 6.06881 20.2746 7.46008 20.7003 8.75981C21.2272 10.3891 22.646 11.5607 24.5107 11.8902V11.9085ZM24.9161 4.64093C26.2132 4.47618 27.3685 4.95214 28.0779 5.81252C27.8752 5.62946 27.5915 5.51963 27.2672 5.59285C27.2672 5.59285 27.2469 5.59285 27.2267 5.59285C26.9429 5.66608 26.497 6.06881 25.5849 6.96581C25.362 7.18549 25.0985 7.44177 24.9363 7.56991C24.8553 7.49669 24.7742 7.42347 24.6931 7.33193C24.3283 6.98412 23.9635 6.618 23.5784 6.59969C23.2946 6.59969 23.0311 6.70953 22.869 6.94751C22.6866 7.18549 22.646 7.49669 22.7676 7.77128C22.8487 7.95434 24.3688 9.27239 24.4499 9.3273C24.6323 9.43714 24.7945 9.47375 24.9363 9.47375C25.2404 9.47375 25.4633 9.309 25.6457 9.16255C25.9498 8.94287 27.9766 7.16718 28.1793 6.81936C28.3414 6.54477 28.3211 6.23357 28.1793 5.99559C28.2806 6.14204 28.4022 6.25187 28.4833 6.41663C29.0711 7.66145 28.6454 9.03441 27.4091 9.89479C26.497 10.5172 25.3214 10.6453 24.2269 10.206C23.0919 9.74835 22.342 8.79643 22.2407 7.71636C22.1393 6.30679 23.3959 4.8423 24.8958 4.65924L24.9161 4.64093Z" fill="#1A543D"/>
</g>
</svg>
