<svg width="50" height="50" viewBox="0 0 50 50" fill="none" xmlns="http://www.w3.org/2000/svg">
<g opacity="0.8">
<path d="M6 34.5315C6.18795 32.8363 7.56628 31.3271 9.15344 30.7896C9.0699 30.2107 9.25785 29.3218 9.13255 28.7842C9.00725 28.2674 7.96307 26.9856 7.67069 26.3448C6.62651 24.0293 7.98395 21.3418 10.5735 21.0937C11.743 20.9903 14.792 20.949 15.9198 21.0937C17.4025 21.3004 17.9872 23.1404 17.0684 24.2567C16.8177 24.5875 16.5045 24.6082 16.233 24.8563C16.0659 26.1587 16.4001 27.8126 16.1912 29.053C16.0659 29.7559 15.4812 30.2521 14.8547 30.5208C14.9382 30.7276 15.3768 30.6242 15.5647 30.6655C16.421 30.8309 17.2354 31.1617 17.9037 31.7199C19.6997 33.5598 21.2033 35.6685 22.8949 37.6119C24.3776 37.5292 26.0901 37.7773 27.552 37.6119C27.8443 37.5912 29.7447 37.1157 29.9327 37.0123C30.1624 36.7436 30.3086 36.3508 30.4757 36.0407C31.0395 34.9036 31.5616 33.2911 32.209 32.2574C32.3343 32.0713 32.4805 31.9473 32.7102 31.906L42.1079 31.8646C42.6926 31.8853 43.1312 32.154 42.9641 32.7949L39.2259 40.8576C39.2259 42.2014 39.2259 43.5865 37.6597 43.9587H24.8997C24.1688 43.8553 23.6467 43.4005 23.3335 42.7182C21.9969 42.6769 20.7648 42.9456 19.5744 42.2634C18.739 41.7879 18.2587 40.8783 17.5278 40.2581V44H16.2539V38.873L13.894 36.2267C13.8105 35.958 14.625 35.4205 14.8547 35.2757L20.18 41.085C20.3471 41.2504 20.9527 41.4571 21.1616 41.4571H25.7977V38.9143H22.3519C22.164 38.7282 21.976 38.5628 21.8089 38.3561C20.4306 36.7642 19.1567 34.8623 17.7366 33.3531C16.9013 32.4641 16.1495 32.0507 14.8965 31.9473C13.6434 31.8439 10.4691 31.8233 9.36227 32.1954C8.35986 32.5468 7.35744 33.8906 7.35744 34.945V43.9793H6.08353V34.5315H6ZM14.9173 24.8976L13.9776 24.939C13.7478 25.4144 13.1005 25.952 13.0378 26.4688C12.996 26.7996 12.996 28.3914 13.1213 28.5982C13.2049 28.7429 13.7896 29.2597 13.9567 29.3011C14.3326 29.3838 14.9173 29.1977 14.9173 28.7636V24.8976ZM12.1607 29.4044H10.5109V30.5828H13.5599C13.4555 30.4175 13.184 30.3761 13.0169 30.2521C12.8498 30.1074 12.2651 29.4251 12.1607 29.4044ZM41.2517 33.2084H33.2323L31.2484 37.5292C31.9584 37.984 33.7544 38.6869 33.9841 39.4932C34.0468 39.7206 34.0468 39.9273 34.0468 40.1547H37.9938L41.2517 33.2084ZM27.0716 38.8936V41.4365C27.3222 41.4778 27.4893 41.3538 27.6981 41.2504C28.2411 40.9403 29.6821 39.5759 30.1207 39.4932L32.7729 39.9893L30.1415 38.3354C29.0974 38.4388 28.1367 38.9556 27.0716 38.8936ZM30.8098 41.4365H29.5777C29.5777 41.4365 28.7006 42.2427 28.4917 42.3048L27.7399 42.7182H30.8934L30.8098 41.4365ZM37.8476 41.4365H32.1464C32.1255 41.9533 32.1464 42.5322 32.7311 42.6769C33.3785 42.8216 36.0934 42.7803 36.8661 42.7182C37.7641 42.6562 37.8894 42.3048 37.8476 41.4365Z" fill="#1A543D"/>
<path d="M39.7269 26.6406H41V28H18V26.6406H19.2731V23.9835C19.2731 23.9835 19.6488 23.5097 19.7323 23.5097H23.0926V21.4293C23.0926 21.4293 23.4682 20.9556 23.5517 20.9556H26.912V18.2161C26.912 18.2161 27.2877 17.7424 27.3711 17.7424H30.7314V15.0853C30.7314 15.0853 31.1071 14.6115 31.1906 14.6115H34.5508V12.5311C34.5508 12.3458 34.9265 12.0986 35.1143 12.078C35.8866 11.9544 38.2033 11.9956 39.0172 12.078C39.2677 12.0986 39.7269 12.2634 39.7269 12.5517V26.62V26.6406ZM38.3702 13.3551H35.9074V26.62H38.3702V13.3551ZM34.5508 15.8886H32.088V26.62H34.5508V15.8886ZM30.7314 19.1018H28.2686V26.62H30.7314V19.1018ZM26.912 22.2327H24.4492V26.62H26.912V22.2327ZM23.0926 24.7662H20.6298V26.62H23.0926V24.7662Z" fill="#1A543D"/>
<path d="M17.0816 31V29.6273H42.2559C42.445 29.6273 42.8022 29.1281 42.7392 28.8993L42.6972 7.76789C42.5921 7.37271 42.2979 7.28952 41.9407 7.24792H12.0803C11.8492 7.16473 11.3659 7.5183 11.3659 7.72629V20.0599H10V7.91348C10 7.91348 10.1471 7.28952 10.1891 7.16473C10.4203 6.54077 11.0927 6.10399 11.7441 6H42.1718C43.1805 6.0624 43.9159 6.83195 44 7.83028V29.2529C43.8949 29.8977 43.4536 30.584 42.8232 30.8128C42.6972 30.8544 42.1508 31 42.0667 31H17.0816Z" fill="#1A543D"/>
<path d="M38 10.2646V11.5744H34.1963C33.7028 12.4616 33.086 12.9897 32.0168 12.8841C31.7084 12.8419 31.3589 12.5884 31.1533 12.6729L28.5421 14.6586L28.4804 14.8276C29.015 16.7923 27.0411 18.2288 25.4374 17.0669L22.2299 19.5174C22.7645 22.0525 19.5364 22.982 18.5495 20.7004H16V19.3907H18.5495C18.9402 18.4823 19.7215 17.9542 20.7084 18.102C20.9963 18.1443 21.243 18.3978 21.5103 18.3133C21.7159 18.2499 23.5252 16.8134 23.8336 16.5599C23.9776 16.4543 24.6972 15.8839 24.7178 15.8416C24.8617 15.5248 24.6766 15.0178 24.985 14.4896C25.5607 13.4756 26.6093 13.37 27.6168 13.6658L30.4131 11.4687C29.9402 8.9337 33.1065 8.02532 34.1551 10.3068H37.9589L38 10.2646ZM32.2019 10.2646C31.3383 10.4336 31.729 11.9124 32.5925 11.4476C33.2299 11.1096 32.8393 10.1378 32.2019 10.2646ZM26.4243 14.8699C25.7664 15.0811 26.0131 16.3275 26.8972 16.0529C27.5551 15.8416 27.3084 14.5953 26.4243 14.8699ZM20.2561 19.3696C19.4953 19.5386 19.7009 20.8272 20.5439 20.6371C21.3047 20.4681 21.0991 19.1794 20.2561 19.3696Z" fill="#1A543D"/>
<path d="M41 10H40V11H41V10Z" fill="#1A543D"/>
<path d="M15 19H14V20H15V19Z" fill="#1A543D"/>
<path d="M14.3546 8.01831C15.0891 7.85273 15.2115 8.86127 14.6454 8.98169C13.9109 9.14727 13.7885 8.13873 14.3546 8.01831Z" fill="#1A543D"/>
<path d="M12.3788 8.0121C13.1204 7.8757 13.2193 8.93657 12.5601 8.99719C11.9009 9.05781 11.802 8.11818 12.3788 8.0121Z" fill="#1A543D"/>
<path d="M16.3788 8.0121C17.1204 7.8757 17.2193 8.93657 16.5601 8.99719C15.9009 9.05781 15.802 8.11818 16.3788 8.0121Z" fill="#1A543D"/>
</g>
</svg>
