<svg width="24" height="22" viewBox="0 0 24 22" fill="none" xmlns="http://www.w3.org/2000/svg">
<path d="M12.5129 0C11.868 0 11.28 0.343041 10.106 1.02609L3.67499 4.76524C2.56741 5.39621 1.64442 6.31082 0.999174 7.41675C0.353932 8.52268 0.00927688 9.78078 0 11.0641L0 11.3022C0.00934894 12.5838 0.353211 13.8403 0.996963 14.9452C1.64071 16.0501 2.56163 16.9644 3.66699 17.596L7.68997 19.9397C10.044 21.3119 11.221 22 12.514 22C13.8059 22.001 14.9839 21.3159 17.3389 19.9438L21.5899 17.4688C22.7669 16.7828 23.3539 16.4397 23.6769 15.8757C23.9999 15.3107 24.0009 14.6246 23.9999 13.2525V10.5989C24.0001 10.4149 23.9523 10.2339 23.8613 10.0744C23.7703 9.91482 23.6393 9.78223 23.4814 9.68991C23.3236 9.5976 23.1444 9.54881 22.9619 9.54845C22.7795 9.54809 22.6001 9.59618 22.4419 9.68787L13.7139 14.7568C13.1269 15.0968 12.8339 15.2683 12.5129 15.2683C12.19 15.2683 11.897 15.0988 11.309 14.7578L5.40498 11.3345C5.10798 11.1619 4.95898 11.0762 4.83998 11.061C4.70849 11.0435 4.57495 11.0705 4.46025 11.1376C4.34554 11.2048 4.25613 11.3084 4.20598 11.4323C4.16098 11.5443 4.16098 11.7169 4.16298 12.0629C4.16498 12.3172 4.16298 12.4443 4.18798 12.5613C4.24098 12.8227 4.37698 13.0587 4.57498 13.2343C4.66398 13.312 4.77298 13.3756 4.99098 13.5027L11.306 17.1853C11.895 17.5284 12.19 17.6999 12.5129 17.6999C12.8359 17.6999 13.1299 17.5284 13.7189 17.1863L21.4589 12.6774C21.6609 12.5603 21.7609 12.5038 21.8359 12.5462C21.9109 12.5906 21.9109 12.7076 21.9109 12.9417V14.1454C21.9109 14.4884 21.9119 14.6599 21.8309 14.8002C21.7509 14.9414 21.6039 15.0262 21.3089 15.1977L14.9269 18.9157C13.7489 19.6017 13.1599 19.9448 12.514 19.9448C11.868 19.9448 11.278 19.6017 10.102 18.9136L4.13198 15.4308L4.08898 15.4055C3.47373 15.0427 2.96284 14.5243 2.60668 13.9016C2.25053 13.2788 2.06141 12.5731 2.05799 11.8541V10.6978C2.05828 10.3006 2.16187 9.91042 2.3584 9.56624C2.55494 9.22205 2.83754 8.93593 3.17799 8.73644C3.47913 8.56057 3.8209 8.46788 4.16885 8.46771C4.5168 8.46753 4.85866 8.55987 5.15998 8.73543L10.106 11.619C11.28 12.3041 11.868 12.6471 12.5129 12.6481C13.1579 12.6481 13.7459 12.3051 14.9229 11.622L22.4049 7.2775C22.5711 7.18098 22.7091 7.04198 22.8051 6.87451C22.901 6.70704 22.9516 6.517 22.9516 6.32355C22.9516 6.1301 22.901 5.94006 22.8051 5.77259C22.7091 5.60511 22.5711 5.46611 22.4049 5.36959L14.9199 1.02206C13.7449 0.341023 13.1579 0 12.514 0H12.5129Z" fill="white"/>
</svg>
