<svg width="32" height="32" viewBox="0 0 32 32" fill="none" xmlns="http://www.w3.org/2000/svg">
<path d="M9.6543 14.9727C9.31639 15.4554 8.78517 15.5762 8.44727 15.5762C8.10935 15.5762 7.57812 15.4553 7.24023 14.9727C6.90249 15.4552 6.37211 15.5761 6.03418 15.5762C5.69627 15.5762 5.16506 15.4554 4.82715 14.9727C4.48926 15.4554 3.95803 15.5762 3.62012 15.5762C3.28221 15.5762 2.75099 15.4554 2.41309 14.9727C2.07518 15.4554 1.54396 15.5762 1.20605 15.5762C0.868128 15.5761 0.337785 15.4552 0 14.9727V13.7666C0.3378 14.2488 0.868235 14.3691 1.20605 14.3691C1.54388 14.3691 2.07517 14.249 2.41309 13.7666C2.751 14.2492 3.28225 14.3691 3.62012 14.3691C3.95799 14.3691 4.48925 14.2492 4.82715 13.7666C5.16507 14.249 5.69636 14.3691 6.03418 14.3691C6.37202 14.369 6.90247 14.2488 7.24023 13.7666C7.57812 14.2492 8.10939 14.3691 8.44727 14.3691C8.78513 14.3691 9.31638 14.2492 9.6543 13.7666V14.9727ZM12.2617 15.5762H11.875C11.7759 15.5761 11.6841 15.5455 11.6191 15.4922C11.5541 15.4388 11.5229 15.3651 11.5332 15.2939L12.9053 6.14844C12.9224 6.01886 13.0696 5.92188 13.2441 5.92188H13.7334L12.2617 15.5762ZM15.6387 7.9541C15.6387 8.09384 15.7933 8.20801 15.9814 8.20801C16.1695 8.2079 16.3232 8.09377 16.3232 7.9541V5.92188H17.541L19.0127 15.5762H16.3232V14.0518C16.3231 13.9122 16.1694 13.798 15.9814 13.7979C15.7934 13.7979 15.6389 13.9121 15.6387 14.0518V15.5762H12.9492L14.4209 5.92188H15.6387V7.9541ZM18.7197 5.92188C18.8941 5.92201 19.0381 6.01895 19.0586 6.14844L20.4307 15.2939C20.4409 15.3675 20.4096 15.4389 20.3447 15.4922C20.2797 15.5455 20.1837 15.5762 20.0879 15.5762H19.7012L18.2305 5.92188H18.7197ZM23.2881 14.3008C23.2881 14.4098 23.3571 14.5105 23.4619 14.543C23.5669 14.5794 23.6805 14.5432 23.7451 14.4502L26.208 10.9941H27.9805L30.4434 14.4502C30.5039 14.5432 30.6256 14.5753 30.7266 14.543C30.8273 14.5105 30.8994 14.4098 30.8994 14.3008V10.9941H31.917V15.3193C31.917 15.4608 31.8044 15.5742 31.6631 15.5742H27.3428V13.791C27.3425 13.6497 27.2291 13.5371 27.0879 13.5371C26.9468 13.5372 26.8342 13.6498 26.834 13.791V15.5742H22.5127C22.3716 15.574 22.2588 15.4607 22.2588 15.3193V10.9941H23.2881V14.3008ZM27.0889 7.43164C28.9099 7.43164 30.3916 8.91496 30.3916 10.7383V13.5078L28.3613 10.6572V9.21387C28.3612 8.51054 27.7913 7.94043 27.0889 7.94043C26.3865 7.94056 25.8176 8.51466 25.8174 9.21387V10.6572L23.7861 13.5078V10.7383C23.7862 8.91504 25.2679 7.43177 27.0889 7.43164ZM15.9814 11.2568C15.7933 11.2568 15.6387 11.372 15.6387 11.5117V13.0361C15.639 13.1757 15.7934 13.29 15.9814 13.29C16.1693 13.2899 16.323 13.1756 16.3232 13.0361V11.5117C16.3232 11.372 16.1695 11.2569 15.9814 11.2568ZM9.6543 12.5596C9.31639 13.0422 8.78516 13.1631 8.44727 13.1631C8.10935 13.1631 7.57812 13.0423 7.24023 12.5596C6.90248 13.0418 6.37205 13.163 6.03418 13.1631C5.69633 13.1631 5.16507 13.0421 4.82715 12.5596C4.48926 13.0423 3.95803 13.1631 3.62012 13.1631C3.28222 13.1631 2.751 13.0423 2.41309 12.5596C2.07517 13.0421 1.54392 13.1631 1.20605 13.1631C0.868202 13.163 0.337795 13.0419 0 12.5596V11.3525C0.337791 11.8349 0.868168 11.956 1.20605 11.9561C1.54395 11.9561 2.07517 11.8352 2.41309 11.3525C2.75099 11.8353 3.28221 11.9561 3.62012 11.9561C3.95803 11.956 4.48926 11.8352 4.82715 11.3525C5.16506 11.8352 5.6963 11.9561 6.03418 11.9561C6.37208 11.9559 6.90248 11.8349 7.24023 11.3525C7.57812 11.8352 8.10935 11.956 8.44727 11.9561C8.78517 11.9561 9.31639 11.8353 9.6543 11.3525V12.5596ZM27.0879 11.5029C26.9467 11.503 26.834 11.6164 26.834 11.7578V12.7764C26.834 12.9178 26.9467 13.0311 27.0879 13.0312C27.2292 13.0312 27.3428 12.9179 27.3428 12.7764V11.7578C27.3427 11.6163 27.2292 11.5029 27.0879 11.5029ZM9.6543 7.12891C8.59239 7.12891 7.72378 8.21465 7.72363 9.54199V11.0508C7.67536 11.0508 7.6264 10.99 7.57812 10.9297L7.24023 10.5078L6.90234 10.9297C6.85409 10.99 6.80607 10.9905 6.75781 11.0508V9.54199C6.75767 8.21476 5.88894 7.12909 4.82715 7.12891C3.76524 7.12891 2.89565 8.21465 2.89551 9.54199V11.0508C2.84739 11.0504 2.79909 10.9898 2.75098 10.9297L2.41309 10.5078L2.0752 10.9297C2.02695 10.99 1.97891 10.9906 1.93066 11.0508V9.54199C1.93052 8.21481 1.06173 7.12917 0 7.12891V5.92188H9.6543V7.12891ZM15.9814 8.7168C15.7933 8.7168 15.6387 8.83097 15.6387 8.9707V10.4951C15.6387 10.6348 15.7933 10.749 15.9814 10.749C16.1695 10.7489 16.3232 10.6348 16.3232 10.4951V8.9707C16.3232 8.83103 16.1695 8.71691 15.9814 8.7168ZM27.0879 8.45312C27.5077 8.45312 27.8513 8.79653 27.8516 9.2168V10.4912H26.3252V9.2168C26.3254 8.79669 26.6683 8.45338 27.0879 8.45312ZM31.1621 8.16602C31.594 8.84515 31.8569 9.63732 31.9014 10.4902H30.8838C30.8434 9.85956 30.645 9.2693 30.3301 8.75586L31.1621 8.16602ZM23.8398 8.75V8.75391C23.5249 9.2633 23.3265 9.85357 23.2861 10.4883H22.2686C22.313 9.63522 22.5798 8.83839 23.0078 8.15918L23.8398 8.75ZM26.835 6.94434C25.7488 7.01715 24.7839 7.54342 24.1338 8.33984L23.3057 7.74902C24.1415 6.69386 25.4056 5.99874 26.835 5.92188V6.94434ZM30.0459 8.33594H30.042L30.0439 8.33398L30.0459 8.33594ZM27.3447 5.92188C28.7701 5.99869 30.0343 6.69395 30.8701 7.74512L30.0439 8.33398C29.3939 7.53862 28.43 7.01314 27.3447 6.94043V5.92188Z" fill="#065E4E"/>
<g clip-path="url(#clip0_1333_3106)">
<path d="M26.0775 19.0047L25.962 17.877L25.9235 17.8804L25.8862 17.8872L26.0775 19.0047ZM26.0775 19.0047L26.1942 20.1323L26.2327 20.1289L26.27 20.1233L26.0775 19.0047ZM21.3642 25.2176L22.1027 24.3404L22.0934 24.3336L21.3642 25.2176ZM21.3642 25.2176L20.6257 26.0948L20.635 26.1027L21.3642 25.2176ZM10.6355 25.2176L9.89703 24.3415L9.87836 24.3563L9.86086 24.371L10.6355 25.2176ZM10.6355 25.2176L11.374 26.0959L11.3927 26.0812L11.4102 26.0653L10.6355 25.2176ZM5.92103 14.1631V13.0297H5.86269L5.80553 13.0354L5.92103 14.1631ZM5.92103 14.1631V15.2964H5.97936L6.03769 15.2907L5.92103 14.1631ZM19.6527 6.67968C19.6334 6.46168 19.6058 6.24435 19.5722 6.02801C19.5362 5.78985 19.4614 5.55877 19.3505 5.34348L17.2774 6.38388C17.2505 6.33288 17.2564 6.31474 17.2715 6.40428C17.289 6.50514 17.3042 6.64568 17.331 6.90634L19.6527 6.67968ZM19.7635 7.75634C19.837 7.84928 19.8125 7.89121 19.7717 7.67021C19.7332 7.45941 19.7029 7.16361 19.6527 6.67968L17.3299 6.90521C17.3765 7.35174 17.4162 7.75294 17.4757 8.07254C17.5329 8.37854 17.6332 8.78088 17.9074 9.12994L19.7635 7.75634ZM19.7635 7.75634L17.9074 9.12994C18.157 9.44824 18.489 9.69664 18.8695 9.84992C19.2501 10.0032 19.6656 10.0559 20.0739 10.0026L19.7635 7.75634ZM20.6245 7.07068C20.3631 7.28535 20.0942 7.49135 19.8184 7.68834C19.6282 7.81641 19.6434 7.77108 19.7635 7.75634L20.0739 10.0026C20.5219 9.94368 20.8859 9.72834 21.1495 9.54928C21.4237 9.36568 21.7445 9.10954 22.1015 8.82508L20.6245 7.07068ZM21.8099 6.33401C21.575 6.4099 21.3541 6.52161 21.1554 6.66494C20.992 6.77828 20.8089 6.92448 20.6245 7.07068L22.1015 8.82508C22.3104 8.65961 22.4235 8.57008 22.5099 8.51114C22.5857 8.45788 22.5752 8.47601 22.5204 8.49301L21.8099 6.33401ZM23.4479 6.41334C22.9297 6.19523 22.3478 6.16704 21.8099 6.33401L22.5204 8.49301L23.4479 6.41334ZM24.5515 7.26108C24.3944 7.10418 24.2322 6.95223 24.065 6.80548C23.8816 6.64371 23.6729 6.51134 23.4467 6.41334L22.5204 8.49301C22.4667 8.47034 22.4585 8.45221 22.5285 8.51228C22.6079 8.58028 22.7117 8.67888 22.9019 8.86361L24.5515 7.26108ZM25.5945 8.27428L24.5515 7.26108L22.9019 8.86361L23.9449 9.87681L25.5945 8.27428ZM26.4672 9.34641C26.3663 9.12664 26.2301 8.92388 26.0635 8.74574C25.9124 8.58375 25.756 8.42651 25.5945 8.27428L23.9449 9.87794C24.135 10.0627 24.2365 10.1635 24.3065 10.2406C24.3684 10.3086 24.3497 10.3007 24.3264 10.2485L26.4672 9.34641ZM26.5489 10.9376C26.7207 10.4151 26.6917 9.84974 26.4672 9.34641L24.3264 10.2485L26.5489 10.9376ZM25.7905 12.0891C25.9354 11.9216 26.0747 11.7496 26.2082 11.5734C26.3319 11.4057 26.4649 11.1971 26.5489 10.9376L24.3264 10.2485C24.3439 10.1953 24.3614 10.1839 24.3077 10.2587C24.247 10.3415 24.156 10.4514 23.9845 10.6543L25.7905 12.0891ZM25.0847 12.9266C25.0695 13.0433 25.0229 13.0569 25.1547 12.8722C25.2795 12.6965 25.4732 12.4653 25.7905 12.0891L23.9845 10.6543C23.6929 11.0011 23.428 11.3127 23.2379 11.5791C23.0547 11.8352 22.833 12.1888 22.7724 12.624L25.0847 12.9266ZM25.0847 12.9266L22.7724 12.624C22.7175 13.0206 22.7718 13.4243 22.9295 13.7939C23.0873 14.1636 23.343 14.4861 23.6707 14.7286L25.0847 12.9266ZM26.193 13.0343C25.8519 13.0066 25.5118 12.9676 25.1734 12.9175C24.9459 12.8779 24.989 12.8552 25.0847 12.9266L23.6707 14.7286C24.03 14.9949 24.443 15.0924 24.7604 15.1479C25.0882 15.2046 25.5012 15.2443 25.9609 15.2896L26.193 13.0343ZM27.5685 13.3267C27.3469 13.219 27.109 13.1463 26.8639 13.1113C26.6412 13.0787 26.4174 13.053 26.193 13.0343L25.9609 15.2896C26.1336 15.3043 26.3059 15.3232 26.4777 15.3463C26.571 15.3621 26.5512 15.3678 26.4987 15.3417L27.5685 13.3267ZM28.6687 14.5087C28.4613 13.9984 28.0704 13.5784 27.5685 13.3267L26.4999 15.344L28.6687 14.5087ZM28.832 15.8665C28.832 15.6353 28.832 15.4052 28.8192 15.2103C28.8074 14.9697 28.7562 14.7325 28.6675 14.5076L26.4999 15.344C26.4789 15.2907 26.4859 15.2726 26.4929 15.3633C26.4999 15.4653 26.4999 15.6069 26.4999 15.8687L28.832 15.8665ZM28.832 17.299V15.8665H26.4987V17.299H28.832ZM28.6687 18.6567C28.7714 18.404 28.8052 18.1615 28.8192 17.9541C28.832 17.7603 28.832 17.5302 28.832 17.299H26.4987C26.4987 17.5608 26.4987 17.7025 26.4917 17.8045C26.4847 17.8951 26.4777 17.877 26.4987 17.8237L28.6687 18.6567ZM27.5685 19.8388C28.0704 19.5871 28.4613 19.1671 28.6687 18.6567L26.4999 17.8249L27.5685 19.8388ZM26.193 20.1312C26.431 20.1085 26.6655 20.0859 26.8639 20.0541C27.0739 20.0201 27.3189 19.9635 27.5685 19.8388L26.4999 17.8249C26.5512 17.7988 26.571 17.8045 26.4789 17.8192C26.3072 17.8431 26.1348 17.8624 25.962 17.877L26.193 20.1312ZM25.0859 20.2389C24.989 20.3103 24.9459 20.2876 25.1734 20.2479C25.3904 20.2105 25.6949 20.1799 26.193 20.1312L25.9609 17.8759C25.5024 17.9212 25.0882 17.9597 24.7604 18.0175C24.4442 18.0731 24.03 18.1705 23.6707 18.4369L25.0859 20.2389ZM25.0859 20.2389L23.6707 18.4369C23.343 18.6794 23.0873 19.0019 22.9295 19.3716C22.7718 19.7412 22.7175 20.1449 22.7724 20.5415L25.0859 20.2389ZM25.7905 21.0753C25.5696 20.8216 25.3575 20.5608 25.1547 20.2933C25.0229 20.1085 25.0707 20.1221 25.0859 20.2389L22.7724 20.5415C22.833 20.9767 23.0547 21.3303 23.239 21.5864C23.4292 21.8527 23.6929 22.1644 23.9845 22.5112L25.7905 21.0753ZM26.5489 22.2267C26.4706 21.999 26.3556 21.7848 26.2082 21.5921C26.0915 21.4323 25.941 21.2555 25.7905 21.0753L23.9845 22.5112C24.1549 22.7141 24.247 22.8229 24.3077 22.9067C24.3625 22.9804 24.345 22.9713 24.3264 22.9181L26.5489 22.2267ZM26.4672 23.8191C26.692 23.3154 26.721 22.7496 26.5489 22.2267L24.3264 22.9181L26.4672 23.8191ZM25.5945 24.8912C25.7637 24.7269 25.9305 24.5659 26.0635 24.4186C26.2035 24.2622 26.3552 24.0684 26.4672 23.8179L24.3264 22.9169C24.3497 22.8648 24.3684 22.858 24.3065 22.926C24.2365 23.0031 24.135 23.1028 23.9449 23.2887L25.5945 24.8912ZM24.5515 25.9033L25.5945 24.8912L23.9449 23.2887L22.9019 24.3007L24.5515 25.9033ZM23.4479 26.7521C23.6742 26.6538 23.8829 26.521 24.0662 26.3589C24.2167 26.2308 24.3835 26.0676 24.5515 25.9033L22.9019 24.3007C22.7808 24.4212 22.6563 24.5384 22.5285 24.6521C22.4585 24.7133 22.4667 24.6951 22.5204 24.6725L23.4479 26.7521ZM21.8099 26.8315C22.3478 26.9984 22.9297 26.9703 23.4479 26.7521L22.5204 24.6725L21.8099 26.8315ZM20.6245 26.0948C20.8089 26.241 20.9909 26.3872 21.1554 26.5005C21.328 26.6195 21.5427 26.7487 21.8099 26.8315L22.5204 24.6725C22.5752 24.6895 22.5857 24.7065 22.5087 24.6543C22.37 24.5534 22.2342 24.4487 22.1015 24.3404L20.6245 26.0948ZM19.7635 25.4103C19.6434 25.3933 19.6282 25.3479 19.8184 25.476C19.9992 25.5984 20.236 25.7854 20.6234 26.0937L22.1015 24.3404C21.7445 24.0559 21.4237 23.7998 21.1495 23.6151C20.8859 23.436 20.5219 23.2218 20.0739 23.1629L19.7635 25.4103ZM19.7635 25.4103L20.0739 23.1629C19.6656 23.1096 19.2501 23.1623 18.8695 23.3156C18.489 23.4688 18.157 23.7173 17.9074 24.0355L19.7635 25.4103ZM19.6515 26.4858C19.7017 26.0019 19.7332 25.7049 19.7717 25.4953C19.8125 25.2743 19.8359 25.3151 19.7624 25.4091L17.9074 24.0344C17.6332 24.3835 17.5329 24.7858 17.4757 25.0929C17.4174 25.4125 17.3777 25.8137 17.331 26.2603L19.6515 26.4858ZM19.3494 27.822C19.4777 27.5795 19.536 27.3415 19.571 27.1375C19.606 26.9448 19.627 26.717 19.6515 26.4858L17.331 26.2603C17.3156 26.4285 17.2954 26.5952 17.2704 26.7623C17.2552 26.853 17.2494 26.8337 17.2762 26.7827L19.3494 27.822ZM18.1349 28.8907C18.6594 28.6889 19.0909 28.3092 19.3494 27.822L17.2774 26.7839L18.1349 28.8907ZM16.7349 29.0494C16.974 29.0494 17.2109 29.0494 17.4115 29.0369C17.6239 29.0233 17.8735 28.9927 18.1349 28.8907L17.2774 26.7839C17.3322 26.7635 17.3509 26.7703 17.2575 26.7771C17.0842 26.784 16.9107 26.7863 16.7372 26.7839L16.7349 29.0494ZM15.2614 29.0494H16.7349L16.736 26.7827H15.2614V29.0494ZM13.8637 28.8907C14.1239 28.9905 14.3735 29.0233 14.587 29.0369C14.7865 29.0494 15.0234 29.0494 15.2614 29.0494V26.7827C14.9919 26.7827 14.846 26.7827 14.741 26.7759C14.6477 26.7691 14.6664 26.7623 14.7212 26.7827L13.8637 28.8907ZM12.6469 27.822C12.9059 28.3096 13.3383 28.6893 13.8637 28.8907L14.7212 26.7827L12.6469 27.822ZM12.3459 26.4858C12.3692 26.717 12.3925 26.9448 12.4252 27.1375C12.4602 27.3415 12.5185 27.5795 12.6469 27.822L14.7235 26.7839C14.7504 26.8337 14.7445 26.853 14.7294 26.7635C14.7047 26.5967 14.6849 26.4293 14.6699 26.2614L12.3459 26.4858ZM12.235 25.4091C12.1615 25.3162 12.1849 25.2731 12.2257 25.4953C12.2642 25.7049 12.2957 26.0019 12.3459 26.4858L14.6675 26.2603C14.6209 25.8137 14.5812 25.4125 14.5217 25.0929C14.4645 24.7869 14.3642 24.3846 14.09 24.0355L12.235 25.4091ZM12.235 25.4091L14.09 24.0355C13.8403 23.7173 13.5084 23.4688 13.1278 23.3156C12.7473 23.1623 12.3318 23.1096 11.9235 23.1629L12.235 25.4091ZM11.3729 26.0948C11.7614 25.7865 11.9982 25.5984 12.179 25.4771C12.3692 25.3491 12.3552 25.3944 12.235 25.4091L11.9235 23.1629C11.4755 23.2218 11.1115 23.4371 10.8479 23.6162C10.5737 23.7998 10.2529 24.0559 9.89586 24.3404L11.3729 26.0948ZM10.1875 26.8315C10.4224 26.7556 10.6433 26.6439 10.842 26.5005C11.0054 26.3872 11.1885 26.241 11.3729 26.0948L9.89703 24.3415C9.76395 24.4499 9.62895 24.5545 9.48986 24.6555C9.41403 24.7087 9.42453 24.6917 9.47936 24.6736L10.1875 26.8315ZM8.54953 26.7521C9.06766 26.9703 9.64963 26.9984 10.1875 26.8315L9.47703 24.6725L8.54953 26.7521ZM7.44469 25.9044C7.61386 26.0687 7.78069 26.2308 7.93236 26.36C8.09219 26.496 8.29169 26.6445 8.55069 26.7533L9.47703 24.6725C9.53069 24.6951 9.53886 24.7133 9.46886 24.6532C9.34108 24.5395 9.21659 24.4223 9.09553 24.3019L7.44469 25.9044ZM6.40286 24.8912L7.44586 25.9044L9.09553 24.3019L8.05253 23.2887L6.40286 24.8912ZM5.53019 23.8191C5.64103 24.0684 5.79386 24.2633 5.93386 24.4197C6.06686 24.5659 6.23369 24.728 6.40286 24.8912L8.05253 23.2887C7.92853 23.1711 7.80793 23.0501 7.69086 22.926C7.62903 22.858 7.64769 22.8659 7.67103 22.9181L5.53019 23.8191ZM5.44853 22.2279C5.27665 22.7504 5.30566 23.3158 5.53019 23.8191L7.67103 22.9181L5.44853 22.2279ZM6.20686 21.0764C6.06198 21.2439 5.92269 21.4159 5.78919 21.5921C5.64164 21.7851 5.52665 21.9997 5.44853 22.2279L7.67103 22.9181C7.65236 22.9713 7.63603 22.9815 7.68969 22.9067C7.75036 22.824 7.84136 22.7141 8.01286 22.5112L6.20686 21.0764ZM6.91153 20.2389C6.92786 20.1221 6.97453 20.1085 6.84269 20.2933C6.71786 20.4689 6.52419 20.7001 6.20686 21.0764L8.01286 22.5112C8.30453 22.1644 8.56936 21.8527 8.75953 21.5864C8.94269 21.3303 9.16436 20.9767 9.22503 20.5415L6.91153 20.2389ZM6.91153 20.2389L9.22503 20.5415C9.27986 20.1449 9.22563 19.7412 9.06785 19.3716C8.91006 19.0019 8.65435 18.6794 8.32669 18.4369L6.91153 20.2389ZM5.80319 20.1312C6.30253 20.1799 6.60819 20.2105 6.82403 20.2479C7.05153 20.2876 7.00836 20.3103 6.91153 20.2389L8.32669 18.4369C7.96736 18.1705 7.55436 18.0731 7.23703 18.0175C6.90919 17.9609 6.49619 17.9212 6.03536 17.8759L5.80319 20.1312ZM4.42886 19.8388C4.67853 19.9635 4.92353 20.0201 5.13353 20.0541C5.33186 20.0859 5.56636 20.1097 5.80436 20.1323L6.03536 17.8759C5.86258 17.8617 5.6914 17.8428 5.51969 17.8192C5.42636 17.8033 5.44619 17.7977 5.49869 17.8237L4.42886 19.8388ZM3.32986 18.6579C3.53721 19.1683 3.92811 19.5883 4.43003 19.8399L5.49986 17.8249L3.32986 18.6579ZM3.16653 17.3001C3.16653 17.5313 3.16653 17.7614 3.17936 17.9563C3.19336 18.1626 3.22603 18.4051 3.33103 18.659L5.49986 17.8237C5.52086 17.877 5.51386 17.8951 5.50803 17.8045C5.50049 17.6365 5.49777 17.4683 5.49986 17.3001H3.16653ZM3.16653 15.8676V17.3001H5.49986V15.8676H3.16653ZM3.32986 14.5087C3.2416 14.7337 3.19079 14.9709 3.17936 15.2114C3.16536 15.4063 3.16653 15.6364 3.16653 15.8687H5.49986C5.49986 15.6058 5.49986 15.4641 5.50803 15.3621C5.51386 15.2715 5.52086 15.2896 5.49986 15.3429L3.32986 14.5087ZM4.43003 13.3289C3.92853 13.5801 3.53769 13.9992 3.32986 14.5087L5.49986 15.3429L4.43003 13.3289ZM5.80553 13.0343C5.56753 13.0581 5.33303 13.0796 5.13469 13.1136C4.92469 13.1476 4.67969 13.2043 4.43003 13.3289L5.49986 15.3429C5.44736 15.3689 5.42869 15.3633 5.52086 15.3485C5.69255 15.3246 5.8649 15.3053 6.03769 15.2907L5.80553 13.0343ZM6.91386 12.9277C7.01069 12.8563 7.05386 12.879 6.82519 12.9187C6.60936 12.9561 6.30369 12.9867 5.80553 13.0354L6.03769 15.2907C6.49619 15.2454 6.91036 15.2069 7.23936 15.1491C7.55553 15.0935 7.96969 14.9961 8.32903 14.7297L6.91386 12.9277ZM6.91386 12.9277L8.32903 14.7297C8.65647 14.4871 8.91196 14.1645 9.06953 13.7949C9.22711 13.4252 9.28116 13.0217 9.22619 12.6251L6.91386 12.9277ZM6.20803 12.0902C6.52536 12.4665 6.71903 12.6977 6.84503 12.8733C6.97686 13.0581 6.93019 13.0445 6.91386 12.9277L9.22619 12.6251C9.16553 12.1899 8.94503 11.8375 8.76069 11.5802C8.57053 11.3139 8.30569 11.0022 8.01403 10.6554L6.20803 12.0902ZM5.44969 10.9376C5.53486 11.1983 5.66669 11.4057 5.79036 11.5745C5.90703 11.7332 6.05753 11.9111 6.20803 12.0902L8.01403 10.6554C7.90253 10.5261 7.79476 10.395 7.69086 10.2599C7.63603 10.1862 7.65469 10.1953 7.67219 10.2485L5.44969 10.9376ZM5.53136 9.34754C5.30712 9.85054 5.27811 10.4154 5.44969 10.9376L7.67219 10.2485L5.53136 9.34754ZM6.40403 8.27428C6.23486 8.43861 6.06803 8.59954 5.93503 8.74688C5.7685 8.92502 5.63224 9.12778 5.53136 9.34754L7.67219 10.2485C7.64886 10.3007 7.63019 10.3086 7.69203 10.2395C7.76203 10.1624 7.86353 10.0627 8.05369 9.87681L6.40403 8.27428ZM7.44703 7.26221L6.40403 8.27428L8.05369 9.87681L9.09786 8.86474L7.44703 7.26221ZM8.55069 6.41334C8.32438 6.51169 8.11566 6.64444 7.93236 6.80661C7.7656 6.95339 7.60374 7.10533 7.44703 7.26221L9.09786 8.86474C9.28803 8.67888 9.39069 8.58028 9.47003 8.51341C9.54003 8.45221 9.53186 8.47034 9.47819 8.49301L8.55069 6.41334ZM10.1887 6.33401C9.6508 6.16704 9.06882 6.19523 8.55069 6.41334L9.47819 8.49301L10.1887 6.33401ZM11.3729 7.07068C11.1885 6.92448 11.0077 6.77941 10.8432 6.66608C10.6446 6.52234 10.4236 6.41025 10.1887 6.33401L9.47819 8.49301C9.42336 8.47601 9.41286 8.45901 9.48986 8.51114C9.57503 8.57121 9.68819 8.65961 9.89703 8.82621L11.3729 7.07068ZM12.2362 7.75634C12.3564 7.77221 12.3704 7.81754 12.1802 7.68948C11.9048 7.49247 11.6363 7.28646 11.3752 7.07181L9.89703 8.82621C10.254 9.10954 10.5737 9.36568 10.8479 9.55154C11.1115 9.72948 11.4755 9.94368 11.9235 10.0026L12.2362 7.75634ZM12.2362 7.75634L11.9247 10.0026C12.333 10.0559 12.7485 10.0032 13.129 9.84992C13.5095 9.69664 13.8415 9.44824 14.0912 9.12994L12.2362 7.75634ZM12.347 6.67968C12.2969 7.16474 12.2654 7.46168 12.2269 7.67134C12.186 7.89234 12.1627 7.85041 12.2362 7.75634L14.0912 9.12994C14.3654 8.78088 14.4657 8.37968 14.5229 8.07254C14.5812 7.75408 14.6232 7.35174 14.6687 6.90521L12.347 6.67968ZM12.648 5.34461C12.5372 5.55991 12.4624 5.79098 12.4264 6.02914C12.3937 6.22181 12.3704 6.44961 12.347 6.68081L14.6687 6.90521C14.6839 6.73741 14.7033 6.57114 14.727 6.40428C14.7434 6.31361 14.7492 6.33401 14.7224 6.38388L12.648 5.34461ZM13.8649 4.27588C13.3395 4.47731 12.9071 4.85704 12.648 5.34461L14.7224 6.38388L13.8649 4.27588ZM15.2625 4.11721C15.0245 4.11721 14.7877 4.11721 14.587 4.12968C14.3395 4.14078 14.0953 4.19014 13.8637 4.27588L14.7235 6.38388C14.6687 6.40428 14.65 6.39748 14.7434 6.39181C14.8484 6.38501 14.9942 6.38388 15.2637 6.38388L15.2625 4.11721ZM16.7372 4.11721H15.2625V6.38388H16.7372V4.11721ZM18.1349 4.27588C17.9033 4.19014 17.6591 4.14078 17.4115 4.12968C17.2132 4.11608 16.9764 4.11721 16.7384 4.11721V6.38388C17.0079 6.38388 17.1537 6.38388 17.2587 6.39181C17.352 6.39748 17.3322 6.40428 17.2774 6.38388L18.1349 4.27588ZM19.3517 5.34461C19.0926 4.85704 18.6603 4.47731 18.1349 4.27588L17.2774 6.38388L19.3517 5.34461ZM19.4999 16.5839C19.4999 17.4856 19.1311 18.3504 18.4747 18.988C17.8184 19.6257 16.9281 19.9839 15.9999 19.9839V22.2505C17.547 22.2505 19.0307 21.6535 20.1246 20.5908C21.2186 19.5281 21.8332 18.0868 21.8332 16.5839H19.4999ZM15.9999 13.1839C16.9281 13.1839 17.8184 13.5421 18.4747 14.1797C19.1311 14.8173 19.4999 15.6821 19.4999 16.5839H21.8332C21.8332 15.081 21.2186 13.6396 20.1246 12.5769C19.0307 11.5142 17.547 10.9172 15.9999 10.9172V13.1839ZM12.4999 16.5839C12.4999 15.6821 12.8686 14.8173 13.525 14.1797C14.1814 13.5421 15.0716 13.1839 15.9999 13.1839V10.9172C14.4528 10.9172 12.969 11.5142 11.8751 12.5769C10.7811 13.6396 10.1665 15.081 10.1665 16.5839H12.4999ZM15.9999 19.9839C15.0716 19.9839 14.1814 19.6257 13.525 18.988C12.8686 18.3504 12.4999 17.4856 12.4999 16.5839H10.1665C10.1665 18.0868 10.7811 19.5281 11.8751 20.5908C12.969 21.6535 14.4528 22.2505 15.9999 22.2505V19.9839Z" fill="black"/>
</g>
<defs>
<clipPath id="clip0_1333_3106">
<rect width="27.6" height="13.8" fill="white" transform="translate(1.99951 16.582)"/>
</clipPath>
</defs>
</svg>
