<svg width="25" height="25" viewBox="0 0 25 25" fill="none" xmlns="http://www.w3.org/2000/svg">
<rect x="4.6875" y="13.2812" width="6.25" height="7.03125" fill="#046A50"/>
<path d="M10.4167 2.08203V4.4362L12.5 5.82161V4.16536H22.9167V19.7904H17.7083V21.8737H25V2.08203H10.4167ZM7.8125 5.20703L0 10.4154V21.8737H15.625V10.4154L7.8125 5.20703ZM14.5833 6.2487V7.21745L16.2604 8.33203H16.6667V6.2487H14.5833ZM18.75 6.2487V8.33203H20.8333V6.2487H18.75ZM7.8125 7.8112L13.5417 11.457V19.7904H10.4167H5.20833H2.08333V11.457L7.8125 7.8112ZM18.75 10.4154V12.4987H20.8333V10.4154H18.75ZM18.75 14.582V16.6654H20.8333V14.582H18.75Z" fill="black"/>
</svg>
