<svg width="15" height="19" viewBox="0 0 15 19" fill="none" xmlns="http://www.w3.org/2000/svg">
<path fill-rule="evenodd" clip-rule="evenodd" d="M5.02242 0.953333C5.73742 0.439083 6.56975 0 7.33333 0C8.09692 0 8.92833 0.439083 9.64425 0.953333C10.4051 1.49967 11.2053 2.25775 11.9359 3.13958C13.3714 4.87575 14.6667 7.25633 14.6667 9.625C14.6667 11.88 13.5511 13.4172 12.0578 14.3477C10.8973 15.0718 9.51867 15.4293 8.25 15.5421V17.4167C8.25 17.6598 8.15342 17.8929 7.98151 18.0648C7.80961 18.2368 7.57645 18.3333 7.33333 18.3333C7.09022 18.3333 6.85706 18.2368 6.68515 18.0648C6.51324 17.8929 6.41667 17.6598 6.41667 17.4167V15.5421C5.148 15.4284 3.76933 15.0709 2.60883 14.3477C1.11558 13.4172 0 11.88 0 9.625C0 7.25633 1.29433 4.87667 2.73167 3.13958C3.46042 2.25775 4.2625 1.49875 5.02242 0.953333ZM7.33333 13.75C7.63959 13.7502 7.94562 13.7334 8.25 13.6996V11.2933L10.3712 8.32425C10.4411 8.22626 10.4911 8.11546 10.5182 7.99816C10.5453 7.88087 10.549 7.75938 10.5292 7.64064C10.5094 7.5219 10.4664 7.40822 10.4026 7.30611C10.3388 7.20399 10.2556 7.11544 10.1576 7.0455C10.0596 6.97556 9.94879 6.92561 9.8315 6.89849C9.7142 6.87137 9.59272 6.86762 9.47397 6.88745C9.35523 6.90729 9.24156 6.95031 9.13944 7.01408C9.03733 7.07784 8.94877 7.16109 8.87883 7.25908L7.216 9.58742L6.14808 8.51858C5.9752 8.35161 5.74365 8.25921 5.5033 8.2613C5.26295 8.26339 5.03304 8.35979 4.86308 8.52975C4.69313 8.69971 4.59672 8.92962 4.59463 9.16997C4.59254 9.41031 4.68494 9.64186 4.85192 9.81475L6.41667 11.3795V13.6996C6.72105 13.7334 7.02708 13.7502 7.33333 13.75Z" fill="white"/>
</svg>
