<svg width="16" height="10" viewBox="0 0 16 10" fill="none" xmlns="http://www.w3.org/2000/svg">
<path d="M14.3941 6.47266H12.9237L14.2391 8.02303L1.77605 8.03303L3.09137 6.48266H1.62102L0.135658 8.22808C0.0656409 8.3081 0.02063 8.40812 0.00562636 8.51315C-0.00937727 8.61818 0.00562636 8.7282 0.0506372 8.82322C0.0956481 8.91825 0.165665 9.00327 0.255687 9.05828C0.345709 9.1183 0.450734 9.1483 0.555759 9.1483L15.4394 9.1383C15.5444 9.1383 15.6494 9.10829 15.7394 9.04828C15.8295 8.98826 15.8995 8.90825 15.9445 8.81322C15.9895 8.7182 16.0045 8.60817 15.9895 8.50315C15.9745 8.39812 15.9295 8.2981 15.8595 8.21808L14.3791 6.47266H14.3941Z" fill="white"/>
<path d="M4.50757 0C4.42755 0 4.34753 0.0200048 4.27252 0.0500121C4.1975 0.0850205 4.13248 0.135033 4.08247 0.195047L0.141517 4.84117C0.0715002 4.92119 0.0264894 5.02121 0.0114857 5.12624C-0.00351789 5.23126 0.0114857 5.34129 0.0564966 5.43631C0.101507 5.53134 0.171524 5.61636 0.261546 5.67137C0.351568 5.73139 0.456593 5.76139 0.561619 5.76139L15.4452 5.75139C15.5502 5.75139 15.6553 5.72138 15.7453 5.66137C15.8353 5.60135 15.9053 5.52133 15.9503 5.42631C15.9953 5.33129 16.0104 5.22126 15.9953 5.11624C15.9803 5.01121 15.9353 4.91119 15.8653 4.83117L11.9444 0.200048C11.8894 0.140034 11.8243 0.0900218 11.7543 0.0550133C11.6793 0.0200048 11.5993 0.00500121 11.5193 0.00500121H4.51257L4.50757 0Z" fill="white"/>
<path d="M4.50757 0C4.42755 0 4.34753 0.0200048 4.27252 0.0500121C4.1975 0.0850205 4.13248 0.135033 4.08247 0.195047L0.141517 4.84117C0.0715002 4.92119 0.0264894 5.02121 0.0114857 5.12624C-0.00351789 5.23126 0.0114857 5.34129 0.0564966 5.43631C0.101507 5.53134 0.171524 5.61636 0.261546 5.67137C0.351568 5.73139 0.456593 5.76139 0.561619 5.76139L15.4452 5.75139C15.5502 5.75139 15.6553 5.72138 15.7453 5.66137C15.8353 5.60135 15.9053 5.52133 15.9503 5.42631C15.9953 5.33129 16.0104 5.22126 15.9953 5.11624C15.9803 5.01121 15.9353 4.91119 15.8653 4.83117L11.9444 0.200048C11.8894 0.140034 11.8243 0.0900218 11.7543 0.0550133C11.6793 0.0200048 11.5993 0.00500121 11.5193 0.00500121H4.51257L4.50757 0Z" fill="white"/>
</svg>
