<svg width="16" height="16" viewBox="0 0 16 16" fill="none" xmlns="http://www.w3.org/2000/svg">
<path d="M0 15.9V13.25H16V15.9H13.895V14.575H9.055V15.9H6.95V14.575H2.105V15.9H0ZM3.065 11.48C2.84 11.48 2.65 11.405 2.495 11.25C2.34 11.095 2.265 10.905 2.265 10.68V0.8C2.265 0.575 2.34 0.385 2.495 0.23C2.65 0.075 2.84 0 3.065 0H12.935C13.16 0 13.35 0.075 13.505 0.23C13.66 0.385 13.735 0.575 13.735 0.8V10.62C13.735 10.865 13.655 11.07 13.49 11.235C13.325 11.4 13.125 11.485 12.885 11.485H3.065V11.48ZM3.59 10.155H12.405V1.325H3.59V10.155Z" fill="white"/>
</svg>
