<svg width="36" height="36" viewBox="0 0 36 36" fill="none" xmlns="http://www.w3.org/2000/svg">
<path d="M16.4175 3.0705L16.425 3.081C16.943 3.027 17.468 3 18 3C26.1585 3 32.796 9.513 32.9955 17.625C31.2465 17.262 28.7235 17.0355 25.1535 17.5095C24.2446 17.6295 23.3576 17.879 22.5195 18.2505L22.488 18.09C22.4394 17.8156 22.3717 17.545 22.2855 17.28L22.257 17.2245L22.161 17.067C22.0527 16.9049 21.9391 16.7463 21.8205 16.5915L21.6555 16.377C21.4155 16.059 21.126 15.6825 20.8815 15.309C20.5875 14.862 20.256 14.277 20.151 13.653C20.084 13.285 20.1124 12.9059 20.2335 12.552C20.373 12.156 20.6295 11.829 20.9625 11.5785C21.6885 11.0355 22.7535 9.8205 23.6985 8.64C24.129 8.1015 24.5145 7.5975 24.8025 7.215C22.6986 5.88327 20.2495 5.1999 17.76 5.25C17.943 5.6175 18.141 6.0495 18.3195 6.525C18.84 7.9095 19.3185 9.948 18.4695 11.7555C17.6865 13.425 16.3335 13.8555 15.3345 14.115L15.207 14.1465C14.223 14.4015 13.845 14.499 13.569 14.9175C13.314 15.303 13.353 15.7905 13.6605 16.7925L13.7295 17.0145C13.851 17.4015 13.9995 17.8695 14.0745 18.309C14.1705 18.855 14.196 19.5495 13.8465 20.2215C13.5502 20.8197 13.0795 21.3139 12.4965 21.639C11.985 21.9165 11.4555 22.023 11.0595 22.092L10.92 22.1175C10.1475 22.2525 9.77852 22.3185 9.42002 22.7025C9.13952 23.0025 8.95952 23.532 8.85302 24.321C8.81102 24.642 8.78552 24.9615 8.75852 25.29L8.74352 25.4655C8.71352 25.8285 8.67752 26.247 8.59502 26.6055V26.6085C10.7836 29.0034 13.8046 30.4715 17.04 30.7125C16.7775 31.467 16.605 32.2125 16.533 32.928C14.5054 32.7289 12.5396 32.1188 10.7555 31.1349C8.97136 30.1511 7.40639 28.8141 6.15602 27.2055H6.15152V27.201C4.10419 24.5713 2.99488 21.3327 3.00002 18C3.00002 10.257 8.86652 3.885 16.398 3.084L16.4175 3.0705ZM18.0075 33.309C18.0975 31.86 18.75 30.096 19.857 28.431C20.2417 27.7821 20.6866 27.1709 21.186 26.6055C22.9658 24.5806 25.3169 23.142 27.93 22.479C28.1217 22.4295 28.2861 22.3062 28.3872 22.1361C28.4884 21.9659 28.5182 21.7626 28.4701 21.5705C28.422 21.3785 28.2999 21.2133 28.1304 21.1109C27.961 21.0085 27.7579 20.9773 27.5655 21.024C24.6571 21.7611 22.0402 23.3619 20.0595 25.6155C19.6652 26.0624 19.3009 26.5349 18.969 27.03C18.822 26.5333 18.7472 26.018 18.747 25.5C18.747 24.126 19.4475 22.6305 20.5575 21.447C21.8237 20.1006 23.5172 19.2345 25.35 18.996C29.55 18.441 32.157 18.906 33.6945 19.3365C33.9018 19.3949 34.088 19.5116 34.2309 19.6727C34.3738 19.8337 34.4675 20.0325 34.5008 20.2452C34.5342 20.458 34.5057 20.6758 34.4189 20.8729C34.3321 21.07 34.1905 21.238 34.011 21.357C33.9255 21.414 33.7875 21.552 33.621 21.867C33.4248 22.2645 33.2641 22.6786 33.141 23.1045C33.0105 23.532 32.886 23.9925 32.751 24.4935L32.664 24.8115C32.4975 25.4265 32.313 26.0865 32.091 26.7405C31.653 28.0335 31.035 29.412 29.9955 30.4725C28.917 31.572 27.453 32.2575 25.497 32.2575C23.5035 32.2575 22.1115 31.449 21.222 30.519C20.616 31.629 20.301 32.6745 20.253 33.4455C20.2466 33.5948 20.2105 33.7413 20.1469 33.8765C20.0832 34.0117 19.9933 34.1328 19.8823 34.2328C19.7713 34.3329 19.6415 34.4098 19.5004 34.4591C19.3594 34.5085 19.2099 34.5292 19.0608 34.5201C18.9117 34.5111 18.7658 34.4724 18.6318 34.4063C18.4977 34.3403 18.3782 34.2482 18.2802 34.1354C18.1821 34.0227 18.1075 33.8916 18.0607 33.7497C18.0139 33.6078 17.9958 33.458 18.0075 33.309Z" fill="black"/>
<path d="M18.0074 33.3093C18.0974 31.8603 18.7499 30.0963 19.8569 28.4313C20.2415 27.7824 20.6865 27.1712 21.1859 26.6058C22.9657 24.5809 25.3168 23.1423 27.9299 22.4793C28.1216 22.4298 28.2859 22.3066 28.3871 22.1364C28.4883 21.9662 28.5181 21.7629 28.4699 21.5709C28.4218 21.3788 28.2997 21.2136 28.1303 21.1112C27.9608 21.0088 27.7578 20.9776 27.5654 21.0243C24.657 21.7614 22.0401 23.3622 20.0594 25.6158C19.665 26.0627 19.3007 26.5353 18.9689 27.0303C18.8219 26.5336 18.7471 26.0183 18.7469 25.5003C18.7469 24.1263 19.4474 22.6308 20.5574 21.4473C21.8235 20.1009 23.5171 19.2348 25.3499 18.9963C29.5499 18.4413 32.1569 18.9063 33.6944 19.3368C33.9017 19.3952 34.0878 19.5119 34.2307 19.673C34.3737 19.8341 34.4674 20.0328 34.5007 20.2455C34.534 20.4583 34.5056 20.6762 34.4188 20.8732C34.3319 21.0703 34.1904 21.2383 34.0109 21.3573C33.9254 21.4143 33.7874 21.5523 33.6209 21.8673C33.4246 22.2648 33.264 22.6789 33.1409 23.1048C33.0104 23.5323 32.8859 23.9928 32.7509 24.4938L32.6639 24.8118C32.4974 25.4268 32.3129 26.0868 32.0909 26.7408C31.6529 28.0338 31.0349 29.4123 29.9954 30.4728C28.9169 31.5723 27.4529 32.2578 25.4969 32.2578C23.5034 32.2578 22.1114 31.4493 21.2219 30.5193C20.6159 31.6293 20.3009 32.6748 20.2529 33.4458C20.2465 33.5951 20.2104 33.7416 20.1467 33.8768C20.0831 34.012 19.9931 34.1331 19.8821 34.2331C19.7711 34.3332 19.6413 34.4101 19.5003 34.4594C19.3592 34.5088 19.2098 34.5295 19.0606 34.5204C18.9115 34.5114 18.7657 34.4727 18.6316 34.4066C18.4976 34.3406 18.3781 34.2485 18.28 34.1358C18.182 34.023 18.1074 33.8919 18.0605 33.75C18.0137 33.6081 17.9957 33.4583 18.0074 33.3093Z" fill="#047B2D"/>
</svg>
