<svg width="33" height="33" viewBox="0 0 33 33" fill="none" xmlns="http://www.w3.org/2000/svg">
<path d="M12.374 17.9324C13.4025 18.081 14.3551 18.5586 15.0896 19.2936M6.87402 22.6954C6.87402 23.9717 7.38105 25.1958 8.28357 26.0983C9.18609 27.0008 10.4102 27.5079 11.6865 27.5079H25.0928C26.0072 27.5076 26.8905 27.176 27.5792 26.5744C28.2679 25.9728 28.7152 25.142 28.8384 24.2359C28.9616 23.3298 28.7522 22.4098 28.2491 21.6462C27.746 20.8826 26.9832 20.3272 26.102 20.0829C25.9792 18.5409 25.3398 17.0853 24.2874 15.9516C23.235 14.8179 21.831 14.0722 20.3024 13.8351C18.7737 13.5981 17.2098 13.8834 15.8634 14.6452C14.5171 15.4069 13.4669 16.6004 12.8828 18.0328C12.1719 17.8514 11.429 17.8349 10.7108 17.9843C9.99256 18.1337 9.31792 18.4451 8.73834 18.8949C8.15875 19.3446 7.68952 19.9208 7.36643 20.5794C7.04334 21.238 6.87492 21.9618 6.87402 22.6954Z" stroke="black" stroke-width="2.475" stroke-linecap="round" stroke-linejoin="round"/>
<path d="M13.7495 4.81641V4.12891M4.81201 13.7539H4.12451M20.069 7.43441L20.5558 6.94766M7.43001 7.43441L6.94326 6.94766M17.3864 9.62891C16.5338 8.87691 15.469 8.4076 14.3387 8.28557C13.2084 8.16353 12.0681 8.39476 11.0746 8.94744C10.0811 9.50012 9.28327 10.3471 8.79091 11.3718C8.29854 12.3965 8.13582 13.5487 8.32514 14.6697" stroke="#046A50" stroke-width="2.475" stroke-linecap="round" stroke-linejoin="round"/>
</svg>
