<svg width="26" height="26" viewBox="0 0 26 26" fill="none" xmlns="http://www.w3.org/2000/svg">
<path d="M18.5001 6C20.1001 5.2 19.1667 2.66667 18.5001 1.5H25.0001V6C23.5001 9 16.5001 7 18.5001 6Z" fill="#046A50"/>
<path d="M0.549073 11.8435C0.527278 11.7256 0.511067 11.6107 0.5 11.5L0.549073 11.8435C0.855499 13.5012 2.26561 15.7469 6 15C11 14 17 16 15.5 18.5C14.3 20.5 13 24 12.5 25.5H9.5L11 19.5L9 19H4.5L2 17.5L1 15L0.549073 11.8435Z" fill="#046A50"/>
<path d="M1.5 6.5C6.7 6.9 6.33333 3 5.5 1H1.5V6.5Z" fill="#046A50"/>
<rect x="1" y="1" width="24" height="24" stroke="black" stroke-width="2"/>
<path d="M1 16.5C1 17.6667 3.2 19.8 8 19C12.8 18.2 11 22.3333 9.5 24.5" stroke="black"/>
<path d="M14.9994 1C16.3327 1.5 17.3994 4.9 14.9994 6.5C11.9994 8.5 18.9995 13 24.9996 9.5" stroke="black"/>
<path d="M9.5 1C13.5 1 12.3 3.8 11.5 5C10.5 6.5 6.50012 12.5 18.9998 14.5C24.4357 15.3698 25.5 13 25.5 13" stroke="black"/>
<path d="M18 25C19.8333 24.3333 23.8 22.2 25 19" stroke="black"/>
<path d="M8 1.5C8.83333 4.33333 7.7 9.7 0.5 8.5" stroke="black"/>
</svg>
