<svg width="30" height="30" viewBox="0 0 30 30" fill="none" xmlns="http://www.w3.org/2000/svg">
<path d="M10.9213 6.4375C10.4373 6.0153 9.84064 5.74335 9.20445 5.65493C8.56827 5.5665 7.9201 5.66544 7.33927 5.93964C6.75844 6.21384 6.27013 6.6514 5.9341 7.19878C5.59806 7.74617 5.42888 8.37964 5.44724 9.02167C5.4656 9.66371 5.67072 10.2865 6.03749 10.8138C6.40426 11.341 6.91678 11.75 7.51233 11.9905C8.10789 12.2311 8.76065 12.2928 9.39074 12.1682C10.0208 12.0435 10.6009 11.7379 11.06 11.2888C11.4845 11.9481 12.0676 12.4904 12.756 12.866C13.4443 13.2416 14.2159 13.4385 15 13.4388C15.784 13.4388 16.5554 13.2423 17.2437 12.8671C17.932 12.4919 18.5153 11.9501 18.94 11.2913C19.3992 11.7404 19.9793 12.046 20.6093 12.1707C21.2394 12.2953 21.8922 12.2336 22.4877 11.993C23.0833 11.7525 23.5958 11.3435 23.9626 10.8163C24.3294 10.289 24.5345 9.66621 24.5528 9.02417C24.5712 8.38214 24.402 7.74867 24.066 7.20128C23.7299 6.6539 23.2416 6.21634 22.6608 5.94214C22.08 5.66794 21.4318 5.569 20.7956 5.65743C20.1594 5.74585 19.5628 6.0178 19.0788 6.44C18.6701 5.71829 18.0771 5.11796 17.3606 4.70027C16.644 4.28259 15.8295 4.06251 15 4.0625C14.1709 4.06226 13.3565 4.28196 12.6399 4.69919C11.9234 5.11642 11.3303 5.71626 10.9213 6.4375ZM12.1875 8.75C12.1875 8.00408 12.4839 7.28871 13.0113 6.76126C13.5387 6.23382 14.2541 5.9375 15 5.9375C15.746 5.9375 16.4613 6.23382 16.9888 6.76126C17.5162 7.28871 17.8125 8.00408 17.8125 8.75C17.8125 9.49592 17.5162 10.2113 16.9888 10.7387C16.4613 11.2662 15.746 11.5625 15 11.5625C14.2541 11.5625 13.5387 11.2662 13.0113 10.7387C12.4839 10.2113 12.1875 9.49592 12.1875 8.75ZM10.4225 7.7375C10.2556 8.49331 10.2779 9.27865 10.4875 10.0237C10.2507 10.4014 9.8973 10.6916 9.48085 10.8506C9.06441 11.0096 8.60752 11.0287 8.17925 10.905C7.75099 10.7813 7.37464 10.5216 7.10709 10.165C6.83954 9.80847 6.69534 9.37452 6.69629 8.92875C6.69653 8.49372 6.83491 8.07 7.09148 7.71868C7.34805 7.36735 7.70955 7.10658 8.12387 6.97394C8.53819 6.8413 8.98392 6.84365 9.39682 6.98066C9.80972 7.11766 10.1684 7.38224 10.4213 7.73625M19.5113 10.0225C19.7216 9.27708 19.7439 8.49116 19.5763 7.735C19.8319 7.3765 20.1959 7.10963 20.6147 6.97373C21.0334 6.83783 21.4848 6.8401 21.9022 6.98022C22.3196 7.12033 22.6809 7.39086 22.9328 7.75191C23.1848 8.11297 23.314 8.54543 23.3015 8.98553C23.289 9.42562 23.1354 9.85005 22.8634 10.1962C22.5913 10.5424 22.2152 10.792 21.7906 10.9081C21.3659 11.0243 20.9151 11.001 20.5048 10.8415C20.0944 10.682 19.7461 10.3949 19.5113 10.0225ZM6.18879 12.8713C6.62254 12.7563 7.03254 12.8987 7.31504 13.1037C7.42754 13.185 7.58254 13.285 7.77129 13.3762C7.91579 13.4511 8.02539 13.5794 8.07677 13.7338C8.12816 13.8883 8.11729 14.0566 8.04647 14.2032C7.97564 14.3497 7.85046 14.4628 7.69753 14.5185C7.5446 14.5741 7.37598 14.568 7.22754 14.5012C7.00117 14.3923 6.7849 14.2634 6.58129 14.1163C6.56101 14.1018 6.53868 14.0904 6.51504 14.0825L6.50629 14.0813C6.33775 14.1262 6.17059 14.1763 6.00504 14.2312L5.14754 14.5112C4.82776 14.6154 4.53873 14.797 4.30623 15.04C4.07372 15.283 3.90498 15.5797 3.81504 15.9037L3.46129 18.465C3.39129 18.9688 3.65754 19.3462 4.03629 19.4362C4.31545 19.5046 4.6542 19.5712 5.05254 19.6362C5.13363 19.6494 5.21134 19.6784 5.28123 19.7215C5.35113 19.7647 5.41183 19.8212 5.45989 19.8878C5.50794 19.9544 5.5424 20.0299 5.5613 20.1098C5.5802 20.1898 5.58317 20.2727 5.57004 20.3538C5.55691 20.4348 5.52793 20.5126 5.48477 20.5824C5.4416 20.6523 5.38509 20.713 5.31847 20.7611C5.25184 20.8092 5.1764 20.8436 5.09646 20.8625C5.01651 20.8814 4.93363 20.8844 4.85254 20.8713C4.4816 20.8122 4.113 20.7392 3.74754 20.6525C2.62879 20.3862 2.08129 19.315 2.22254 18.2938L2.58754 15.6613L2.59504 15.6275C2.73193 15.0923 3.00199 14.6004 3.38009 14.1976C3.75819 13.7948 4.23203 13.4942 4.75754 13.3237L5.61379 13.0425C5.80545 12.98 5.99712 12.9229 6.18879 12.8713ZM23.975 12.8713C23.782 12.824 23.5809 12.8203 23.3863 12.8606C23.1917 12.9008 23.0085 12.9839 22.85 13.1037C22.7375 13.185 22.5825 13.285 22.3938 13.3762C22.2493 13.4511 22.1397 13.5794 22.0883 13.7338C22.0369 13.8883 22.0478 14.0566 22.1186 14.2032C22.1894 14.3497 22.3146 14.4628 22.4676 14.5185C22.6205 14.5741 22.7891 14.568 22.9375 14.5012C23.1639 14.3923 23.3802 14.2634 23.5838 14.1163C23.6041 14.1018 23.6264 14.0904 23.65 14.0825L23.6588 14.0813C23.828 14.1254 23.995 14.1754 24.16 14.2312L25.0175 14.5112C25.675 14.7275 26.1738 15.2537 26.35 15.9037L26.7038 18.465C26.7738 18.9688 26.5088 19.3462 26.1288 19.4362C25.7927 19.5157 25.4537 19.5824 25.1125 19.6362C25.0314 19.6494 24.9537 19.6784 24.8838 19.7215C24.814 19.7647 24.7532 19.8212 24.7052 19.8878C24.6571 19.9544 24.6227 20.0299 24.6038 20.1098C24.5849 20.1898 24.5819 20.2727 24.595 20.3538C24.6082 20.4348 24.6371 20.5126 24.6803 20.5824C24.7235 20.6523 24.78 20.713 24.8466 20.7611C24.9132 20.8092 24.9887 20.8436 25.0686 20.8625C25.1486 20.8814 25.2314 20.8844 25.3125 20.8713C25.7392 20.8004 26.1075 20.7275 26.4175 20.6525C27.5363 20.3862 28.0838 19.315 27.9425 18.2938L27.5775 15.6613L27.57 15.6275C27.4331 15.0923 27.1631 14.6004 26.785 14.1976C26.4069 13.7948 25.933 13.4942 25.4075 13.3237L24.5513 13.0425C24.3612 12.9803 24.1682 12.9232 23.975 12.8713Z" fill="black"/>
<path d="M17.0662 14.6427C17.5612 14.3139 18.2825 14.0552 19.045 14.2714C19.245 14.3272 19.4437 14.3877 19.6412 14.4527L20.84 14.8464C21.5855 15.0887 22.2576 15.5156 22.7939 16.0873C23.3302 16.659 23.7132 17.357 23.9075 18.1164L23.92 18.1664L24.4312 21.8539C24.6325 23.3089 23.8525 24.8452 22.2512 25.2264C20.7887 25.5752 18.435 25.9402 15.0012 25.9402C11.5637 25.9402 9.21248 25.5752 7.74873 25.2277C6.14748 24.8452 5.36748 23.3089 5.56873 21.8552L6.07873 18.1677L6.09123 18.1177C6.2854 17.3579 6.66857 16.6595 7.20511 16.0876C7.74165 15.5156 8.41412 15.0887 9.15998 14.8464L10.36 14.4527C10.5575 14.3885 10.7558 14.3277 10.955 14.2702C11.7175 14.0552 12.44 14.3139 12.9337 14.6427C13.3837 14.9402 14.1112 15.2977 15 15.2977C15.8887 15.2977 16.6175 14.9402 17.0662 14.6427ZM18.535 16.0752C18.475 16.0577 18.3212 16.0602 18.1037 16.2039C17.4762 16.6202 16.3875 17.1727 15 17.1727C13.6125 17.1727 12.5237 16.6202 11.8975 16.2039C11.6787 16.0602 11.525 16.0577 11.465 16.0752C11.29 16.1252 11.1166 16.1781 10.945 16.2339L9.74498 16.6277C9.30751 16.7699 8.91203 17.0181 8.59382 17.3503C8.2756 17.6825 8.04454 18.0882 7.92123 18.5314L7.42623 22.1114C7.33248 22.7914 7.68873 23.2852 8.18373 23.4027C9.49248 23.7152 11.6975 24.0652 15 24.0652C18.3025 24.0652 20.5087 23.7152 21.8162 23.4027C22.3112 23.2852 22.6675 22.7914 22.5737 22.1114L22.0787 18.5314C21.9553 18.0881 21.7241 17.6822 21.4056 17.3501C21.0872 17.0179 20.6914 16.7697 20.2537 16.6277L19.0562 16.2339C18.8837 16.1772 18.7099 16.1243 18.535 16.0752Z" fill="#046A50"/>
<circle cx="15" cy="8.74609" r="3.55114" stroke="#046A50" stroke-width="2.27273"/>
</svg>
