<svg width="47" height="47" viewBox="0 0 47 47" fill="none" xmlns="http://www.w3.org/2000/svg">
<path d="M19.5833 6.85807V5.87891M6.85417 19.5872H5.875M28.5838 10.5867L29.2771 9.89349M10.5828 10.5867L9.88958 9.89349M17.625 25.5327C19.0897 25.7445 20.4466 26.4246 21.4927 27.4715M24.7631 13.7122C23.5488 12.6412 22.0324 11.9728 20.4225 11.799C18.8127 11.6252 17.1886 11.9545 15.7736 12.7417C14.3586 13.5288 13.2223 14.7351 12.5211 16.1946C11.8198 17.654 11.5881 19.2949 11.8577 20.8915M9.79167 32.3164C9.79167 34.1342 10.5138 35.8776 11.7992 37.163C13.0846 38.4484 14.828 39.1706 16.6458 39.1706H35.7396C37.0419 39.1702 38.3 38.6978 39.2809 37.841C40.2617 36.9842 40.8989 35.801 41.0743 34.5105C41.2497 33.22 40.9515 31.9096 40.2349 30.8221C39.5184 29.7346 38.432 28.9436 37.177 28.5956C37.002 26.3994 36.0915 24.3263 34.5926 22.7116C33.0937 21.0969 31.094 20.0349 28.9169 19.6973C26.7397 19.3596 24.5123 19.7661 22.5948 20.8509C20.6772 21.9358 19.1816 23.6356 18.3496 25.6757C17.3371 25.4175 16.2791 25.3938 15.2562 25.6066C14.2332 25.8194 13.2724 26.263 12.4469 26.9035C11.6214 27.5441 10.9531 28.3647 10.493 29.3027C10.0328 30.2408 9.79295 31.2716 9.79167 32.3164Z" stroke="url(#paint0_linear_1103_15326)" stroke-width="3.96667" stroke-linecap="round" stroke-linejoin="round"/>
<defs>
<linearGradient id="paint0_linear_1103_15326" x1="23.4992" y1="5.87891" x2="23.4992" y2="39.1706" gradientUnits="userSpaceOnUse">
<stop stop-color="#028819"/>
<stop offset="1" stop-color="#007F54"/>
</linearGradient>
</defs>
</svg>
