<svg width="47" height="47" viewBox="0 0 47 47" fill="none" xmlns="http://www.w3.org/2000/svg">
<path d="M9.00905 25.6529C9.33543 25.0001 9.80087 24.4779 10.4053 24.0862C11.0098 23.6945 11.6867 23.4987 12.4361 23.4987C13.2195 23.4987 13.9375 23.703 14.5903 24.1117C15.2431 24.5203 15.7163 25.0993 16.0101 25.8487L17.332 29.0799C17.3972 29.2758 17.5441 29.3659 17.7726 29.3502C18.0011 29.3345 18.1479 29.2281 18.2132 29.031L22.4236 14.9799C22.8806 13.4133 23.754 12.1567 25.0439 11.2102C26.3338 10.2636 27.794 9.79036 29.4247 9.79036C31.024 9.79036 32.4522 10.2551 33.7095 11.1847C34.9667 12.1143 35.8395 13.3304 36.3278 14.8331L43.9163 36.5706C44.1448 37.2233 44.0554 37.8193 43.648 38.3585C43.2407 38.8977 42.6937 39.1667 42.007 39.1654C41.6153 39.1654 41.2563 39.0433 40.9299 38.7992C40.6035 38.555 40.3587 38.2365 40.1955 37.8435L32.607 16.057C32.3458 15.3063 31.9379 14.7273 31.383 14.32C30.8281 13.9127 30.1754 13.7083 29.4247 13.707C28.674 13.7057 28.0134 13.9179 27.4428 14.3435C26.8723 14.7691 26.4558 15.3566 26.1934 16.106L21.983 30.157C21.6893 31.0709 21.1592 31.8216 20.3928 32.4091C19.6265 32.9966 18.7531 33.2904 17.7726 33.2904C16.8913 33.2904 16.0754 33.0534 15.3247 32.5795C14.574 32.1056 14.0354 31.445 13.709 30.5977L12.3872 27.3664L7.14863 38.0883C6.98544 38.4147 6.74064 38.6758 6.41425 38.8716C6.08787 39.0674 5.74516 39.1654 5.38613 39.1654C4.63544 39.1654 4.08057 38.8553 3.72155 38.2352C3.36252 37.615 3.3462 36.9786 3.67259 36.3258L9.00905 25.6529ZM11.7507 19.582C10.1188 19.582 8.73162 19.003 7.58925 17.845C6.44689 16.687 5.87571 15.3076 5.87571 13.707C5.87571 12.0751 6.44689 10.6879 7.58925 9.54557C8.73162 8.40321 10.1188 7.83203 11.7507 7.83203C13.3827 7.83203 14.7698 8.40321 15.9122 9.54557C17.0545 10.6879 17.6257 12.0751 17.6257 13.707C17.6257 15.3063 17.0545 16.6857 15.9122 17.845C14.7698 19.0043 13.3827 19.5833 11.7507 19.582ZM11.7507 15.6654C12.3056 15.6654 12.771 15.4774 13.147 15.1014C13.523 14.7254 13.7104 14.2606 13.709 13.707C13.7077 13.1535 13.5197 12.6887 13.145 12.3127C12.7704 11.9367 12.3056 11.7487 11.7507 11.7487C11.1959 11.7487 10.7311 11.9367 10.3564 12.3127C9.98168 12.6887 9.79368 13.1535 9.79238 13.707C9.79107 14.2606 9.97907 14.726 10.3564 15.1033C10.7337 15.4806 11.1985 15.668 11.7507 15.6654Z" fill="url(#paint0_linear_1103_15351)"/>
<defs>
<linearGradient id="paint0_linear_1103_15351" x1="23.7395" y1="7.83203" x2="23.7395" y2="39.1654" gradientUnits="userSpaceOnUse">
<stop stop-color="#009420"/>
<stop offset="1" stop-color="#007F54"/>
</linearGradient>
</defs>
</svg>
