<svg width="47" height="47" viewBox="0 0 47 47" fill="none" xmlns="http://www.w3.org/2000/svg">
<path d="M30.4847 12.9142C30.4847 14.7666 29.7488 16.5432 28.4389 17.853C27.1291 19.1629 25.3526 19.8987 23.5001 19.8987C21.6477 19.8987 19.8712 19.1629 18.5613 17.853C17.2515 16.5432 16.5156 14.7666 16.5156 12.9142C16.5156 11.0618 17.2515 9.28526 18.5613 7.97541C19.8712 6.66555 21.6477 5.92969 23.5001 5.92969C25.3526 5.92969 27.1291 6.66555 28.4389 7.97541C29.7488 9.28526 30.4847 11.0618 30.4847 12.9142Z" stroke="url(#paint0_linear_1103_15328)" stroke-width="4" stroke-linecap="round" stroke-linejoin="round"/>
<path d="M23.4984 19.8987C25.3508 19.8987 27.1273 19.1629 28.4372 17.853C29.747 16.5432 30.4829 14.7666 30.4829 12.9142C30.4829 11.0618 29.747 9.28526 28.4372 7.97541C27.1273 6.66555 25.3508 5.92969 23.4984 5.92969C21.646 5.92969 19.8694 6.66555 18.5596 7.97541C17.2497 9.28526 16.5139 11.0618 16.5139 12.9142C16.5139 14.7666 17.2497 16.5432 18.5596 17.853C19.8694 19.1629 21.646 19.8987 23.4984 19.8987ZM23.4984 19.8987V30.3755M32.229 23.391H37.4674L39.2135 39.1062H7.7832L9.52933 23.391H14.7677" stroke="url(#paint1_linear_1103_15328)" stroke-width="4" stroke-linecap="round" stroke-linejoin="round"/>
<defs>
<linearGradient id="paint0_linear_1103_15328" x1="23.5001" y1="5.92969" x2="23.5001" y2="19.8987" gradientUnits="userSpaceOnUse">
<stop stop-color="#028819"/>
<stop offset="1" stop-color="#007F54"/>
</linearGradient>
<linearGradient id="paint1_linear_1103_15328" x1="23.4984" y1="5.92969" x2="23.4984" y2="39.1062" gradientUnits="userSpaceOnUse">
<stop stop-color="#028819"/>
<stop offset="1" stop-color="#007F54"/>
</linearGradient>
</defs>
</svg>
