<svg width="28" height="28" viewBox="0 0 28 28" fill="none" xmlns="http://www.w3.org/2000/svg">
<path d="M18.9141 7.51047C19.0673 7.51047 19.219 7.48075 19.3605 7.42301C19.5021 7.36527 19.6307 7.28063 19.739 7.17394C19.8474 7.06725 19.9333 6.94058 19.9919 6.80118C20.0506 6.66177 20.0807 6.51236 20.0807 6.36147C20.0807 6.21059 20.0506 6.06117 19.9919 5.92177C19.9333 5.78237 19.8474 5.6557 19.739 5.54901C19.6307 5.44231 19.5021 5.35768 19.3605 5.29994C19.219 5.24219 19.0673 5.21247 18.9141 5.21247C18.6046 5.21247 18.3079 5.33353 18.0891 5.54901C17.8703 5.76449 17.7474 6.05674 17.7474 6.36147C17.7474 6.66621 17.8703 6.95846 18.0891 7.17394C18.3079 7.38942 18.6046 7.51047 18.9141 7.51047ZM11.9141 7.89347C11.9142 6.70246 12.2275 5.53179 12.8237 4.49555C13.4198 3.4593 14.2784 2.59284 15.3157 1.9806C16.353 1.36836 17.5337 1.03123 18.7427 1.00207C19.9516 0.972903 21.1476 1.2527 22.2141 1.81419C23.2806 2.37568 24.1812 3.1997 24.8282 4.20596C25.4751 5.21221 25.8463 6.36637 25.9056 7.55595C25.9649 8.74553 25.7103 9.92995 25.1666 10.9938C24.6228 12.0576 23.8085 12.9645 22.8029 13.6262V16.7668L24.0209 17.9679C24.1957 18.1403 24.2939 18.3739 24.2939 18.6175C24.2939 18.8611 24.1957 19.0947 24.0209 19.267L22.3472 20.9155L24.0085 22.5501C24.1013 22.6416 24.1735 22.7513 24.2203 22.8721C24.2671 22.993 24.2876 23.1222 24.2802 23.2513C24.2729 23.3804 24.238 23.5065 24.1777 23.6215C24.1175 23.7364 24.0333 23.8375 23.9307 23.9182L20.2752 26.7984C20.1096 26.9289 19.9039 27 19.6918 27C19.4798 27 19.274 26.9289 19.1085 26.7984L15.3752 23.8569C15.266 23.7709 15.1779 23.6617 15.1173 23.5376C15.0568 23.4135 15.0253 23.2776 15.0252 23.1399V13.6262C14.0679 12.9963 13.2832 12.1436 12.7405 11.1436C12.1978 10.1437 11.914 9.02731 11.9141 7.89347ZM18.9141 2.53148C17.7151 2.53094 16.5495 2.9202 15.5981 3.63883C14.6468 4.35747 13.9629 5.36528 13.6526 6.50587C13.3424 7.64645 13.423 8.856 13.8822 9.9468C14.3413 11.0376 15.1532 11.9486 16.1918 12.5385C16.3101 12.6057 16.4083 12.7024 16.4765 12.8189C16.5448 12.9353 16.5807 13.0674 16.5807 13.2019V22.8458L19.6918 25.297L22.4156 23.1507L20.8072 21.565C20.6324 21.3927 20.5342 21.1591 20.5342 20.9155C20.5342 20.6719 20.6324 20.4383 20.8072 20.2659L22.481 18.6175L21.5212 17.6722C21.3461 17.5 21.2476 17.2664 21.2474 17.0227V13.2019C21.2474 13.0674 21.2833 12.9353 21.3516 12.8189C21.4199 12.7024 21.518 12.6057 21.6363 12.5385C22.6749 11.9486 23.4868 11.0376 23.9459 9.9468C24.4051 8.856 24.4858 7.64645 24.1755 6.50587C23.8652 5.36528 23.1813 4.35747 22.23 3.63883C21.2786 2.9202 20.113 2.53094 18.9141 2.53148Z" fill="white"/>
<path opacity="0.8" d="M11.1691 1.53979C12.0203 1.18027 12.9474 1.03074 13.8702 1.1041C13.2469 1.5409 12.6891 2.06646 12.2183 2.66247C11.8896 2.74608 11.1187 3.02687 10.6646 3.48111C10.2098 3.85742 9.83911 4.32304 9.57618 4.84839C9.31326 5.37375 9.1638 5.94736 9.13731 6.53282C9.11082 7.11827 9.20786 7.70277 9.42229 8.2492L9.59063 8.67613L3.42797 14.7631V17.9939H6.28105V16.0213C6.28105 15.7971 6.37123 15.582 6.53174 15.4235C6.69226 15.265 6.90997 15.1759 7.13697 15.1759H9.84598V13.1201C9.84618 12.896 9.93648 12.6811 10.097 12.5227L11.5093 11.1264C11.7419 11.5477 12.0137 11.9468 12.321 12.3184L11.2725 13.354V15.7395C11.2725 15.9637 11.1823 16.1787 11.0218 16.3373C10.8613 16.4958 10.6436 16.5849 10.4166 16.5849H7.70616V18.5575C7.70616 18.7817 7.61599 18.9968 7.45547 19.1553C7.29495 19.3139 7.07725 19.4029 6.85024 19.4029H2.85592C2.62892 19.4029 2.41121 19.3139 2.25069 19.1553C2.09018 18.9968 2 18.7817 2 18.5575V14.5277C2.0002 14.3036 2.09051 14.0887 2.25107 13.9303L7.93869 8.31401C7.67717 7.4368 7.63568 6.50991 7.81779 5.61333C7.99991 4.71675 8.40017 3.8774 8.98402 3.16771C9.56788 2.45802 10.3178 1.89931 11.1691 1.53979Z" fill="white"/>
</svg>
