<svg width="24" height="24" viewBox="0 0 24 24" fill="none" xmlns="http://www.w3.org/2000/svg">
<path d="M13 11.9978H22M22 11.9978L18.667 7.99778M22 11.9978L18.667 15.9978M14 6.99778V5.17178C14 4.89515 13.9426 4.62153 13.8314 4.36822C13.7203 4.11491 13.5578 3.88741 13.3542 3.70011C13.1507 3.5128 12.9104 3.36976 12.6488 3.28003C12.3871 3.19029 12.1097 3.15582 11.834 3.17878L3.834 3.84478C3.33405 3.88642 2.86801 4.11443 2.5283 4.48359C2.18859 4.85275 2.00002 5.3361 2 5.83778V18.1578C2.00002 18.6595 2.18859 19.1428 2.5283 19.512C2.86801 19.8811 3.33405 20.1091 3.834 20.1508L11.834 20.8178C12.1098 20.8407 12.3873 20.8062 12.649 20.7164C12.9107 20.6266 13.151 20.4835 13.3546 20.2961C13.5582 20.1087 13.7206 19.8811 13.8317 19.6276C13.9428 19.3742 14.0001 19.1005 14 18.8238V16.9978" stroke="#766C5A" stroke-width="2" stroke-linecap="round" stroke-linejoin="round"/>
</svg>
