<svg width="37" height="37" viewBox="0 0 37 37" fill="none" xmlns="http://www.w3.org/2000/svg">
<path d="M18.5 12.3359L27.75 7.71094L18.5 3.08594V18.5026" stroke="#1A543D" stroke-width="3.08333" stroke-linecap="round" stroke-linejoin="round"/>
<path d="M12.333 18.4844L3.85381 23.3252C3.61655 23.4597 3.41921 23.6547 3.28191 23.8903C3.14461 24.1259 3.07227 24.3937 3.07227 24.6665C3.07227 24.9392 3.14461 25.207 3.28191 25.4426C3.41921 25.6783 3.61655 25.8732 3.85381 26.0077L16.958 33.5002C17.4267 33.7708 17.9584 33.9133 18.4996 33.9133C19.0409 33.9133 19.5726 33.7708 20.0413 33.5002L33.1455 26.0077C33.3827 25.8732 33.5801 25.6783 33.7174 25.4426C33.8547 25.207 33.927 24.9392 33.927 24.6665C33.927 24.3937 33.8547 24.1259 33.7174 23.8903C33.5801 23.6547 33.3827 23.4597 33.1455 23.3252L24.6663 18.4998M10.0051 19.8102L26.9942 29.5227M26.9942 19.8102L10.0205 29.5227" stroke="black" stroke-width="3.08333" stroke-linecap="round" stroke-linejoin="round"/>
</svg>
