<svg width="47" height="47" viewBox="0 0 47 47" fill="none" xmlns="http://www.w3.org/2000/svg">
<g clip-path="url(#clip0_1103_15399)">
<path d="M11.2814 13.4808C12.3549 11.3032 15.1929 10.8052 16.9411 12.3876C17.0724 12.4683 17.1832 12.5804 17.2628 12.7154L22.9822 19.1484L27.5823 15.3993C29.0598 14.1966 31.2166 14.3005 32.5677 15.6516L35.0328 18.1173L41.8483 18.1171L41.9968 18.1291C42.3379 18.183 42.6288 18.42 42.7464 18.7531L46.3542 28.9778C46.4569 29.2689 46.4126 29.5915 46.2346 29.8436C46.0647 30.0838 45.7932 30.2295 45.5009 30.243L45.906 31.4162L46.9683 34.493C47.0686 34.7839 47.0215 35.1062 46.8428 35.3568C46.6642 35.6072 46.3748 35.7564 46.0671 35.7564L0.339198 35.7557C0.0314145 35.7557 -0.258212 35.6072 -0.436836 35.3565C-0.615245 35.1058 -0.660969 34.7836 -0.560447 34.4928L0.505243 31.4152L0.909689 30.2436C0.61543 30.2317 0.341737 30.0858 0.170764 29.8443C-0.00745304 29.5921 -0.051723 29.2687 0.0510473 28.9775L3.65915 18.7529C3.79345 18.3725 4.15358 18.1176 4.55698 18.1174L9.00721 18.117L11.2805 13.4828L11.2814 13.4808ZM40.0242 33.8521L44.7323 33.8516L44.3281 32.6784L39.6611 32.6787L40.0242 33.8521ZM33.9509 33.8513L38.031 33.8514L37.6689 32.679L33.5917 32.6789L33.9509 33.8513ZM27.3952 33.8514L31.9597 33.8515L31.6005 32.6791L27.284 32.679L27.3952 33.8514ZM20.5533 33.8517L25.4821 33.8513L25.3719 32.6789L20.8904 32.6785L20.5533 33.8517ZM14.3511 33.8514L18.5719 33.8519L18.9089 32.6787L14.7751 32.6788L14.3511 33.8514ZM7.9302 33.852L12.3287 33.8518L12.7517 32.6792L8.59635 32.6784L7.9302 33.852ZM1.67624 33.8519L5.74072 33.852L6.40591 32.6784L2.08165 32.6784L1.67624 33.8519ZM2.91069 30.2463C2.90208 30.2925 2.89195 30.3393 2.8761 30.3851L2.74096 30.7753L20.1386 30.7752C20.1534 30.7747 20.1685 30.7749 20.1835 30.7751L26.2275 30.775C26.2392 30.7749 26.251 30.7756 26.2626 30.7759L32.291 30.7759C32.3034 30.7757 32.3158 30.7755 32.3281 30.7758L38.3536 30.7758C38.366 30.7756 38.3783 30.7754 38.3907 30.7757L43.671 30.7758L43.5366 30.3838C43.5208 30.3379 43.5094 30.2916 43.5009 30.2452L2.91069 30.2463ZM31.2206 16.9969C30.563 16.3396 29.5083 16.287 28.7846 16.8759L28.7836 16.8749L24.2477 20.573L25.2023 21.6463L27.5802 19.708C29.0116 18.5427 31.0799 18.6034 32.4362 19.8368L32.5656 19.9603L32.5725 19.9671L37.407 24.9075C37.739 25.2395 38.183 25.423 38.6532 25.423L41.6483 25.4226C42.174 25.4226 42.6003 25.8492 42.6004 26.3748C42.6002 26.9004 42.1738 27.3259 41.6482 27.3259L38.6531 27.3263C37.68 27.3263 36.7522 26.944 36.0618 26.2538L36.054 26.246L31.2185 21.3056C30.5609 20.6483 29.5062 20.5955 28.7825 21.1846L28.7815 21.1836L26.4678 23.0699L27.5411 24.2765L27.5411 24.2775C28.3037 25.1373 29.404 25.6285 30.5524 25.6286L34.4675 25.6294C34.9932 25.6294 35.4196 26.0559 35.4196 26.5816C35.4191 27.1069 34.9928 27.5327 34.4674 27.5327L30.5533 27.5319C29.3225 27.5319 28.1301 27.1474 27.1377 26.4491C26.146 26.4319 25.105 26.4496 24.0401 26.4655C23.0371 26.4805 22.0145 26.4911 21.0254 26.466C20.9799 27.0814 20.8944 27.7177 20.7215 28.3422L44.1113 28.3433L41.9172 22.1236L37.8664 22.1244C36.8933 22.1243 35.9645 21.7412 35.2742 21.0509L31.2206 16.9969ZM16.4712 25.6318C16.2839 26.5418 16.0671 27.4458 15.822 28.3425L18.7186 28.3425C18.9583 27.7482 19.068 27.0859 19.1227 26.3633C18.37 26.2855 17.5851 26.1363 16.8392 25.81L16.8392 25.8091C16.7132 25.7541 16.5908 25.694 16.4712 25.6318ZM13.0215 22.8391C12.9008 23.1062 12.777 23.3724 12.6458 23.6356C11.8515 25.2327 10.6717 26.9372 9.29856 28.3425L13.8445 28.3417C14.2149 27.0504 14.5227 25.7422 14.7671 24.4219C14.6878 24.3524 14.6074 24.2851 14.5309 24.2158C13.97 23.7074 13.5153 23.2518 13.0215 22.8391ZM11.3265 21.9729C11.0509 21.9495 10.7506 21.9707 10.4215 22.0332C9.96259 22.1205 9.48989 22.2777 8.99451 22.4638L7.59007 25.3289L7.59105 25.3298C7.02155 26.5023 5.83292 27.2386 4.53917 27.2387L2.6827 27.2374L2.29362 28.3425L6.4167 28.3424C8.22337 27.0242 9.92545 24.8312 10.9412 22.7889L10.9421 22.788C11.0761 22.5192 11.2039 22.2475 11.3265 21.9729ZM3.3547 25.3333L4.53928 25.3344C5.10974 25.3342 5.62924 25.0101 5.87771 24.4989L5.87965 24.495L7.35479 21.4841C7.38728 21.3573 7.4456 21.2384 7.52623 21.1348L8.07252 20.0212L5.2307 20.022L3.3547 25.3333ZM21.0838 19.8768C21.0753 20.1079 21.0756 20.3607 21.081 20.6376L21.082 20.6444C21.0984 21.9503 21.0976 23.2565 21.0841 24.5624C22.0237 24.5861 23.0081 24.5773 24.0119 24.5623C24.4171 24.5562 24.8259 24.5505 25.2345 24.5456L21.0838 19.8768ZM17.447 18.1786C17.3405 18.6852 17.3092 19.2484 17.2626 19.9147L17.2626 19.9167C17.1728 21.1617 17.0291 22.4023 16.8343 23.6343C17.0096 23.7541 17.186 23.8621 17.3678 23.9553L17.6007 24.0648L17.6016 24.0657C18.0844 24.2769 18.6085 24.3874 19.1804 24.4539C19.1926 23.1942 19.1936 21.9342 19.1778 20.6746L19.1715 20.3279C19.1681 19.9642 19.1791 19.5521 19.2379 19.1264C18.5758 18.8737 17.9751 18.521 17.447 18.1786ZM15.0462 16.8905C14.6731 18.2567 14.2692 19.6427 13.7689 21.004L13.8502 21.0633L13.8512 21.0643C14.2944 21.4021 14.7233 21.794 15.1213 22.1656C15.2239 21.3734 15.3061 20.5783 15.3636 19.7808C15.4164 19.0244 15.4565 18.0545 15.7601 17.1395C15.6756 17.1001 15.5909 17.063 15.5048 17.0302L15.5048 17.0292C15.355 16.9728 15.2023 16.9266 15.0462 16.8905ZM37.0532 20.0212C37.3014 20.1504 37.5788 20.22 37.8665 20.2201L41.2455 20.2201L41.1753 20.0212L37.0532 20.0212ZM13.089 16.83C12.6308 16.8798 12.1507 16.961 11.6475 17.0546L10.1287 20.1516C10.7324 20.0427 11.3863 20.0144 12.0477 20.1643C12.4372 19.082 12.773 17.967 13.089 16.83ZM16.1649 14.3449C16.0169 14.4609 15.8727 14.6234 15.7469 14.83C15.6993 14.9082 15.6565 14.9898 15.6161 15.0747C15.6949 15.0949 15.7742 15.1152 15.8526 15.1391L16.1802 15.2501L16.1822 15.2511C16.3718 15.3233 16.5557 15.4066 16.733 15.4959C16.8116 15.4146 16.8943 15.3367 16.9811 15.2625L16.1649 14.3449ZM14.4597 13.3674C13.865 13.3911 13.2858 13.72 12.989 14.3206L12.6742 14.9615C12.9908 14.9226 13.315 14.8928 13.6436 14.8815C13.7642 14.534 13.9154 14.1754 14.1198 13.8395C14.2166 13.6806 14.3309 13.5217 14.4597 13.3674Z" fill="#6E412A"/>
<path d="M11.2814 13.4808C12.3549 11.3032 15.1929 10.8052 16.9411 12.3876C17.0724 12.4683 17.1832 12.5804 17.2628 12.7154L22.9822 19.1484L27.5823 15.3993C29.0598 14.1966 31.2166 14.3005 32.5677 15.6516L35.0328 18.1173L41.8483 18.1171L41.9968 18.1291C42.3379 18.183 42.6288 18.42 42.7464 18.7531L46.3542 28.9778C46.4569 29.2689 46.4126 29.5915 46.2346 29.8436C46.0647 30.0838 45.7932 30.2295 45.5009 30.243L45.906 31.4162L46.9683 34.493C47.0686 34.7839 47.0215 35.1062 46.8428 35.3568C46.6642 35.6072 46.3748 35.7564 46.0671 35.7564L0.339198 35.7557C0.0314145 35.7557 -0.258212 35.6072 -0.436836 35.3565C-0.615245 35.1058 -0.660969 34.7836 -0.560447 34.4928L0.505243 31.4152L0.909689 30.2436C0.61543 30.2317 0.341737 30.0858 0.170764 29.8443C-0.00745304 29.5921 -0.051723 29.2687 0.0510473 28.9775L3.65915 18.7529C3.79345 18.3725 4.15358 18.1176 4.55698 18.1174L9.00721 18.117L11.2805 13.4828L11.2814 13.4808ZM40.0242 33.8521L44.7323 33.8516L44.3281 32.6784L39.6611 32.6787L40.0242 33.8521ZM33.9509 33.8513L38.031 33.8514L37.6689 32.679L33.5917 32.6789L33.9509 33.8513ZM27.3952 33.8514L31.9597 33.8515L31.6005 32.6791L27.284 32.679L27.3952 33.8514ZM20.5533 33.8517L25.4821 33.8513L25.3719 32.6789L20.8904 32.6785L20.5533 33.8517ZM14.3511 33.8514L18.5719 33.8519L18.9089 32.6787L14.7751 32.6788L14.3511 33.8514ZM7.9302 33.852L12.3287 33.8518L12.7517 32.6792L8.59635 32.6784L7.9302 33.852ZM1.67624 33.8519L5.74072 33.852L6.40591 32.6784L2.08165 32.6784L1.67624 33.8519ZM2.91069 30.2463C2.90208 30.2925 2.89195 30.3393 2.8761 30.3851L2.74096 30.7753L20.1386 30.7752C20.1534 30.7747 20.1685 30.7749 20.1835 30.7751L26.2275 30.775C26.2392 30.7749 26.251 30.7756 26.2626 30.7759L32.291 30.7759C32.3034 30.7757 32.3158 30.7755 32.3281 30.7758L38.3536 30.7758C38.366 30.7756 38.3783 30.7754 38.3907 30.7757L43.671 30.7758L43.5366 30.3838C43.5208 30.3379 43.5094 30.2916 43.5009 30.2452L2.91069 30.2463ZM31.2206 16.9969C30.563 16.3396 29.5083 16.287 28.7846 16.8759L28.7836 16.8749L24.2477 20.573L25.2023 21.6463L27.5802 19.708C29.0116 18.5427 31.0799 18.6034 32.4362 19.8368L32.5656 19.9603L32.5725 19.9671L37.407 24.9075C37.739 25.2395 38.183 25.423 38.6532 25.423L41.6483 25.4226C42.174 25.4226 42.6003 25.8492 42.6004 26.3748C42.6002 26.9004 42.1738 27.3259 41.6482 27.3259L38.6531 27.3263C37.68 27.3263 36.7522 26.944 36.0618 26.2538L36.054 26.246L31.2185 21.3056C30.5609 20.6483 29.5062 20.5955 28.7825 21.1846L28.7815 21.1836L26.4678 23.0699L27.5411 24.2765L27.5411 24.2775C28.3037 25.1373 29.404 25.6285 30.5524 25.6286L34.4675 25.6294C34.9932 25.6294 35.4196 26.0559 35.4196 26.5816C35.4191 27.1069 34.9928 27.5327 34.4674 27.5327L30.5533 27.5319C29.3225 27.5319 28.1301 27.1474 27.1377 26.4491C26.146 26.4319 25.105 26.4496 24.0401 26.4655C23.0371 26.4805 22.0145 26.4911 21.0254 26.466C20.9799 27.0814 20.8944 27.7177 20.7215 28.3422L44.1113 28.3433L41.9172 22.1236L37.8664 22.1244C36.8933 22.1243 35.9645 21.7412 35.2742 21.0509L31.2206 16.9969ZM16.4712 25.6318C16.2839 26.5418 16.0671 27.4458 15.822 28.3425L18.7186 28.3425C18.9583 27.7482 19.068 27.0859 19.1227 26.3633C18.37 26.2855 17.5851 26.1363 16.8392 25.81L16.8392 25.8091C16.7132 25.7541 16.5908 25.694 16.4712 25.6318ZM13.0215 22.8391C12.9008 23.1062 12.777 23.3724 12.6458 23.6356C11.8515 25.2327 10.6717 26.9372 9.29856 28.3425L13.8445 28.3417C14.2149 27.0504 14.5227 25.7422 14.7671 24.4219C14.6878 24.3524 14.6074 24.2851 14.5309 24.2158C13.97 23.7074 13.5153 23.2518 13.0215 22.8391ZM11.3265 21.9729C11.0509 21.9495 10.7506 21.9707 10.4215 22.0332C9.96259 22.1205 9.48989 22.2777 8.99451 22.4638L7.59007 25.3289L7.59105 25.3298C7.02155 26.5023 5.83292 27.2386 4.53917 27.2387L2.6827 27.2374L2.29362 28.3425L6.4167 28.3424C8.22337 27.0242 9.92545 24.8312 10.9412 22.7889L10.9421 22.788C11.0761 22.5192 11.2039 22.2475 11.3265 21.9729ZM3.3547 25.3333L4.53928 25.3344C5.10974 25.3342 5.62924 25.0101 5.87771 24.4989L5.87965 24.495L7.35479 21.4841C7.38728 21.3573 7.4456 21.2384 7.52623 21.1348L8.07252 20.0212L5.2307 20.022L3.3547 25.3333ZM21.0838 19.8768C21.0753 20.1079 21.0756 20.3607 21.081 20.6376L21.082 20.6444C21.0984 21.9503 21.0976 23.2565 21.0841 24.5624C22.0237 24.5861 23.0081 24.5773 24.0119 24.5623C24.4171 24.5562 24.8259 24.5505 25.2345 24.5456L21.0838 19.8768ZM17.447 18.1786C17.3405 18.6852 17.3092 19.2484 17.2626 19.9147L17.2626 19.9167C17.1728 21.1617 17.0291 22.4023 16.8343 23.6343C17.0096 23.7541 17.186 23.8621 17.3678 23.9553L17.6007 24.0648L17.6016 24.0657C18.0844 24.2769 18.6085 24.3874 19.1804 24.4539C19.1926 23.1942 19.1936 21.9342 19.1778 20.6746L19.1715 20.3279C19.1681 19.9642 19.1791 19.5521 19.2379 19.1264C18.5758 18.8737 17.9751 18.521 17.447 18.1786ZM15.0462 16.8905C14.6731 18.2567 14.2692 19.6427 13.7689 21.004L13.8502 21.0633L13.8512 21.0643C14.2944 21.4021 14.7233 21.794 15.1213 22.1656C15.2239 21.3734 15.3061 20.5783 15.3636 19.7808C15.4164 19.0244 15.4565 18.0545 15.7601 17.1395C15.6756 17.1001 15.5909 17.063 15.5048 17.0302L15.5048 17.0292C15.355 16.9728 15.2023 16.9266 15.0462 16.8905ZM37.0532 20.0212C37.3014 20.1504 37.5788 20.22 37.8665 20.2201L41.2455 20.2201L41.1753 20.0212L37.0532 20.0212ZM13.089 16.83C12.6308 16.8798 12.1507 16.961 11.6475 17.0546L10.1287 20.1516C10.7324 20.0427 11.3863 20.0144 12.0477 20.1643C12.4372 19.082 12.773 17.967 13.089 16.83ZM16.1649 14.3449C16.0169 14.4609 15.8727 14.6234 15.7469 14.83C15.6993 14.9082 15.6565 14.9898 15.6161 15.0747C15.6949 15.0949 15.7742 15.1152 15.8526 15.1391L16.1802 15.2501L16.1822 15.2511C16.3718 15.3233 16.5557 15.4066 16.733 15.4959C16.8116 15.4146 16.8943 15.3367 16.9811 15.2625L16.1649 14.3449ZM14.4597 13.3674C13.865 13.3911 13.2858 13.72 12.989 14.3206L12.6742 14.9615C12.9908 14.9226 13.315 14.8928 13.6436 14.8815C13.7642 14.534 13.9154 14.1754 14.1198 13.8395C14.2166 13.6806 14.3309 13.5217 14.4597 13.3674Z" fill="url(#paint0_linear_1103_15399)" fill-opacity="0.5" style="mix-blend-mode:screen"/>
</g>
<defs>
<linearGradient id="paint0_linear_1103_15399" x1="23.2075" y1="35.848" x2="23.1088" y2="11.4271" gradientUnits="userSpaceOnUse">
<stop stop-color="#A55500"/>
<stop offset="1" stop-color="#A55500" stop-opacity="0"/>
</linearGradient>
<clipPath id="clip0_1103_15399">
<rect width="47" height="47" fill="white"/>
</clipPath>
</defs>
</svg>
