<svg width="28" height="28" viewBox="0 0 28 28" fill="none" xmlns="http://www.w3.org/2000/svg">
<path d="M13.9947 18.914C14.2537 18.914 14.4715 18.8253 14.648 18.648C14.8261 18.4707 14.9152 18.2525 14.9152 17.9935C14.9152 17.7353 14.8265 17.5175 14.6492 17.3402C14.4719 17.1628 14.2541 17.0742 13.9959 17.0742C13.7376 17.0742 13.5195 17.1628 13.3414 17.3402C13.1632 17.5175 13.0746 17.7353 13.0754 17.9935C13.0761 18.2517 13.1648 18.4695 13.3414 18.6468C13.5187 18.8249 13.7365 18.914 13.9947 18.914ZM13.3939 15.05H14.5197C14.5352 14.7941 14.5613 14.5721 14.5979 14.3838C14.6344 14.1948 14.7013 14.0086 14.7985 13.825C14.8957 13.6414 15.021 13.4571 15.1742 13.272C15.3274 13.0869 15.518 12.8808 15.7459 12.6537C16.3059 12.0929 16.7119 11.6068 16.9639 11.1953C17.2166 10.7831 17.343 10.3149 17.343 9.79067C17.343 8.88067 17.0304 8.14683 16.405 7.58917C15.7797 7.03228 15.0159 6.75383 14.1137 6.75383C13.2838 6.75383 12.569 6.97511 11.9694 7.41767C11.3705 7.86022 10.933 8.39106 10.6569 9.01017L11.729 9.4535C11.925 8.98917 12.2046 8.60417 12.5679 8.2985C12.9319 7.99206 13.4234 7.83883 14.0425 7.83883C14.7767 7.83883 15.3227 8.03989 15.6805 8.442C16.0375 8.84333 16.216 9.2995 16.216 9.8105C16.216 10.2009 16.1091 10.5587 15.8952 10.8838C15.6813 11.2082 15.3815 11.5492 14.9957 11.907C14.7102 12.1792 14.4652 12.439 14.2607 12.6863C14.0561 12.9337 13.8862 13.181 13.7509 13.4283C13.614 13.6749 13.5206 13.9288 13.4709 14.1902C13.4195 14.4507 13.3939 14.7373 13.3939 15.05ZM13.9994 25.1732L10.9929 22.1667H6.55018C6.01352 22.1667 5.56513 21.987 5.20502 21.6277C4.84491 21.2683 4.66524 20.8196 4.66602 20.2813V5.38533C4.66602 4.84789 4.84607 4.3995 5.20618 4.04017C5.5663 3.68083 6.01469 3.50078 6.55135 3.5H21.4485C21.9852 3.5 22.4336 3.68006 22.7937 4.04017C23.1538 4.40028 23.3335 4.84867 23.3327 5.38533V20.2825C23.3327 20.8192 23.153 21.2676 22.7937 21.6277C22.4344 21.9878 21.9856 22.1674 21.4474 22.1667H17.0059L13.9994 25.1732ZM6.55135 21H11.4782L13.9994 23.5223L16.5217 21H21.4485C21.6577 21 21.8296 20.9327 21.9642 20.7982C22.0987 20.6636 22.166 20.4917 22.166 20.2825V5.38417C22.166 5.17494 22.0987 5.00306 21.9642 4.8685C21.8296 4.73394 21.6577 4.66667 21.4485 4.66667H6.55018C6.34096 4.66667 6.16907 4.73394 6.03452 4.8685C5.89996 5.00306 5.83268 5.17533 5.83268 5.38533V20.2825C5.83268 20.4917 5.89996 20.6636 6.03452 20.7982C6.16907 20.9327 6.34135 21 6.55135 21Z" fill="white"/>
</svg>
