<svg width="42" height="42" viewBox="0 0 42 42" fill="none" xmlns="http://www.w3.org/2000/svg">
<g clip-path="url(#clip0_968_15500)">
<path d="M0 31.596C0.208202 29.7258 1.70263 28.074 3.42839 27.4748C3.33493 26.8318 3.55146 25.8696 3.40155 25.2723C3.2609 24.7115 2.11811 23.2994 1.80071 22.5939C0.656992 20.0508 2.14494 17.0784 4.9515 16.805C6.21459 16.6818 9.55693 16.6444 10.7719 16.8124C12.3959 17.0373 13.0149 19.0578 12.0294 20.3037C11.75 20.6565 11.4095 20.6817 11.1189 20.9719C10.944 22.3979 11.3114 24.2252 11.0819 25.6008C10.9533 26.3689 10.3009 26.9279 9.62355 27.2088C9.72164 27.43 10.1982 27.3199 10.3999 27.3591C11.3317 27.5355 12.2154 27.9144 12.9548 28.5154C14.9174 30.5293 16.5442 32.8559 18.3819 34.9875C20.0077 34.8988 21.8566 35.1592 23.4556 35.0015C23.7683 34.9707 25.854 34.4621 26.0382 34.3398C26.2973 34.0337 26.4583 33.6231 26.636 33.2628C27.2587 32.0057 27.8158 30.2335 28.5135 29.0903C28.6412 28.8812 28.8096 28.7543 29.0483 28.6964L39.2835 28.6526C39.9285 28.6834 40.3995 28.9717 40.2079 29.6857L36.1309 38.546C36.1401 40.014 36.1198 41.552 34.4264 41.9598L20.5194 41.9775C19.7135 41.8366 19.1462 41.3392 18.814 40.5982C17.3687 40.5552 16.0167 40.8436 14.7083 40.0924C13.8042 39.5725 13.2768 38.5646 12.4903 37.8964V42.0027H11.1022V36.3566L8.52147 33.4439C8.44096 33.1415 9.31356 32.562 9.56248 32.3968L15.356 38.7858C15.5448 38.9575 16.2027 39.203 16.423 39.203H21.4661V36.4032H17.7184C17.525 36.1951 17.3057 36.0094 17.1197 35.7938C15.6114 34.0496 14.2392 31.9535 12.6781 30.2876C11.7574 29.3049 10.9514 28.8504 9.57913 28.7468C8.21796 28.6432 4.75348 28.5994 3.55886 29.0287C2.46511 29.4225 1.38616 30.883 1.38616 32.0636V42.0027H0V31.597V31.596ZM9.71608 21.0037L8.69913 21.0503C8.44096 21.5627 7.74511 22.1665 7.67848 22.7274C7.63592 23.0857 7.63592 24.8365 7.76824 25.068C7.85615 25.2229 8.49371 25.7959 8.6723 25.837C9.07945 25.9303 9.71701 25.7315 9.71701 25.2499V21.0037H9.71608ZM6.70872 25.9499H4.90431V27.2564H8.23554C8.11524 27.0707 7.83301 27.039 7.63407 26.8831C7.44622 26.7347 6.80496 25.9779 6.70872 25.9499ZM38.4017 30.1495H29.6572L27.4891 34.9016C28.2599 35.3916 30.2179 36.1746 30.4743 37.0714C30.5455 37.3206 30.5501 37.5474 30.5363 37.8022L34.8437 37.8087L38.4026 30.1495H38.4017ZM22.9485 36.4023V39.202C23.214 39.2403 23.4065 39.1218 23.6258 38.9986C24.2134 38.6682 25.7967 37.147 26.2566 37.0714L29.1483 37.6146L26.2908 35.7994C25.1582 35.9058 24.1005 36.4891 22.9485 36.4023ZM27.02 39.202H25.6782C25.6023 39.202 24.7149 40.0924 24.4966 40.1567L23.6887 40.6019H27.1125L27.02 39.202ZM34.7003 39.202H28.5005C28.4672 39.7732 28.4931 40.4069 29.1418 40.5618C29.8561 40.7316 32.7941 40.6728 33.6399 40.6056C34.6087 40.5291 34.7438 40.1493 34.7003 39.202Z" fill="white"/>
<path d="M36.8294 23.0574H38.2174V24.5506H13.1406V23.0574H14.5286V20.1177C14.5286 20.0075 14.9293 19.6044 15.0376 19.6044H18.6927V17.3179C18.6927 17.2087 19.0924 16.8046 19.2016 16.8046H22.8567V13.7716C22.8567 13.6614 23.2574 13.2583 23.3656 13.2583H27.0207V10.3185C27.0207 10.2084 27.4214 9.80525 27.5297 9.80525H31.1848V7.51878C31.1848 7.32373 31.5845 7.04376 31.7918 7.01109C32.6246 6.87951 35.1554 6.91964 36.0475 7.00083C36.3121 7.02509 36.8294 7.21081 36.8294 7.51878V23.0574ZM35.3488 8.40537H32.6653V23.0574H35.3488V8.40537ZM31.1848 11.2051H28.5013V23.0574H31.1848V11.2051ZM27.0207 14.7515H24.3373V23.0574H27.0207V14.7515ZM22.8567 18.2045H20.1732V23.0574H22.8567V18.2045ZM18.6927 21.0043H16.0092V23.0574H18.6927V21.0043Z" fill="white"/>
<path d="M12.4928 27.348V25.8548H39.7441C39.9561 25.8548 40.341 25.32 40.2577 25.0662L40.2077 1.96076C40.1013 1.53426 39.7858 1.43627 39.3786 1.39894H7.07496C6.82234 1.31495 6.29305 1.70318 6.29305 1.9169V15.4024H4.8125V2.10355C4.8125 2.01115 4.96888 1.41294 5.017 1.28322C5.27517 0.587014 5.99971 0.120389 6.70945 0.003733L39.6562 0C40.7528 0.0793263 41.5467 0.911786 41.6457 2.00649L41.642 25.4357C41.5264 26.1515 41.0637 26.8823 40.3734 27.1427C40.2448 27.1912 39.6516 27.3489 39.56 27.3489H12.4928V27.348Z" fill="white"/>
<path d="M35.44 4.20598V5.60585H31.2297C30.681 6.56617 29.9907 7.13638 28.8229 7.00573C28.4888 6.9684 28.1048 6.67722 27.8577 6.77148L24.9744 8.91516L24.8976 9.09901C25.4972 11.2119 23.3143 12.7564 21.5303 11.5012L17.9871 14.1414C18.571 16.8683 15.0048 17.8828 13.9258 15.4059H11.1035V14.006H13.9258C14.3626 13.0196 15.225 12.4587 16.3243 12.6146C16.6445 12.6603 16.9202 12.9291 17.2117 12.8488C17.4338 12.7872 19.4408 11.239 19.7925 10.9636C19.9405 10.8479 20.7474 10.2376 20.7743 10.1806C20.9343 9.85028 20.74 9.29499 21.0778 8.71358C21.7098 7.62727 22.8813 7.50595 23.9907 7.83166L27.0897 5.4556C26.5595 2.72678 30.0712 1.745 31.2297 4.20691H35.44V4.20598ZM29.0311 4.21998C28.065 4.39916 28.5184 5.99315 29.4595 5.49946C30.1563 5.13363 29.7279 4.09025 29.0311 4.21998ZM22.6434 9.1718C21.9189 9.39112 22.1863 10.735 23.1607 10.4392C23.8853 10.2198 23.6178 8.87596 22.6434 9.1718ZM15.7987 14.0219C14.9566 14.1955 15.1815 15.5832 16.1253 15.3891C16.9674 15.2155 16.7425 13.8278 15.7987 14.0219Z" fill="white"/>
<path d="M38.2169 4.20312H36.7363V5.603H38.2169V4.20312Z" fill="white"/>
<path d="M9.71614 14.0078H8.32812V15.4077H9.71614V14.0078Z" fill="white"/>
<path d="M9.50596 2.07637C10.5905 1.83745 10.7783 3.34559 9.92699 3.53317C8.84249 3.77208 8.65464 2.26395 9.50596 2.07637Z" fill="white"/>
<path d="M7.47106 2.07734C8.48431 1.86923 8.63607 3.46042 7.71813 3.55374C6.80019 3.64707 6.66324 2.24346 7.47106 2.07734Z" fill="white"/>
<path d="M11.6351 2.07734C12.6484 1.86923 12.8001 3.46042 11.8822 3.55374C10.9643 3.64707 10.8273 2.24346 11.6351 2.07734Z" fill="white"/>
</g>
<defs>
<clipPath id="clip0_968_15500">
<rect width="41.6441" height="42" fill="white"/>
</clipPath>
</defs>
</svg>
