<svg width="28" height="28" viewBox="0 0 28 28" fill="none" xmlns="http://www.w3.org/2000/svg">
<path d="M19.5335 6.99989C19.5335 10.0559 17.0561 12.5332 14.0001 12.5332C10.9442 12.5332 8.4668 10.0559 8.4668 6.99989C8.4668 3.94391 10.9442 1.46655 14.0001 1.46655C17.0561 1.46655 19.5335 3.94391 19.5335 6.99989Z" stroke="black" stroke-width="2"/>
<mask id="path-2-inside-1_339_2766" fill="white">
<path d="M0 23.3999C0 18.9816 3.58172 15.3999 8 15.3999H20C24.4183 15.3999 28 18.9816 28 23.3999V27.5332H0V23.3999Z"/>
</mask>
<path d="M-2 23.3999C-2 17.8771 2.47715 13.3999 8 13.3999H20C25.5228 13.3999 30 17.8771 30 23.3999H26C26 20.0862 23.3137 17.3999 20 17.3999H8C4.68629 17.3999 2 20.0862 2 23.3999H-2ZM28 27.5332H0H28ZM-2 27.5332V23.3999C-2 17.8771 2.47715 13.3999 8 13.3999V17.3999C4.68629 17.3999 2 20.0862 2 23.3999V27.5332H-2ZM20 13.3999C25.5228 13.3999 30 17.8771 30 23.3999V27.5332H26V23.3999C26 20.0862 23.3137 17.3999 20 17.3999V13.3999Z" fill="black" mask="url(#path-2-inside-1_339_2766)"/>
</svg>
