<svg width="28" height="28" viewBox="0 0 28 28" fill="none" xmlns="http://www.w3.org/2000/svg">
<path fill-rule="evenodd" clip-rule="evenodd" d="M13.9428 15.3659C12.8046 15.3659 11.894 16.2764 11.894 17.4146C11.894 18.5528 12.2354 18.6667 12.8046 19.122V21.7398C12.8046 22.4228 13.3737 22.878 14.0566 22.878C14.7395 22.878 15.3086 22.3089 15.3086 21.7398V19.122C15.8777 18.7805 16.2192 18.0976 16.2192 17.4146C16.2192 16.2764 15.3086 15.3659 14.1704 15.3659H13.9428ZM21.5688 10.2439H20.9997V7.28455C20.9997 3.18699 18.0403 0 13.8289 0C9.61756 0 6.65821 3.30081 6.65821 7.28455V10.2439H6.08911C4.04033 10.2439 2.33301 11.9512 2.33301 14V24.2439C2.33301 26.2927 4.04033 28 6.08911 28H21.455C23.5037 28 25.2111 26.2927 25.2111 24.2439V14C25.2111 11.9512 23.5037 10.2439 21.455 10.2439H21.5688ZM9.16228 7.28455C9.16228 4.55285 10.9834 2.39024 13.9428 2.39024C16.9021 2.39024 18.7233 4.55285 18.7233 7.28455V10.2439H9.16228V7.28455ZM22.9346 24.2439C22.9346 25.0407 22.3655 25.6098 21.5688 25.6098H6.20293C5.40618 25.6098 4.83707 25.0407 4.83707 24.2439V14C4.83707 13.2033 5.40618 12.6341 6.20293 12.6341H21.5688C22.3655 12.6341 22.9346 13.2033 22.9346 14V24.2439Z" fill="black"/>
</svg>
