<svg width="48" height="48" viewBox="0 0 48 48" fill="none" xmlns="http://www.w3.org/2000/svg">
<path d="M42.5 23.9998H17.79M9.068 23.9998H5.5M9.068 23.9998C9.068 22.8434 9.52736 21.7345 10.345 20.9168C11.1627 20.0991 12.2717 19.6398 13.428 19.6398C14.5843 19.6398 15.6933 20.0991 16.511 20.9168C17.3286 21.7345 17.788 22.8434 17.788 23.9998C17.788 25.1561 17.3286 26.2651 16.511 27.0828C15.6933 27.9004 14.5843 28.3598 13.428 28.3598C12.2717 28.3598 11.1627 27.9004 10.345 27.0828C9.52736 26.2651 9.068 25.1561 9.068 23.9998ZM42.5 37.2138H31.004M31.004 37.2138C31.004 38.3704 30.5435 39.4806 29.7257 40.2985C28.9078 41.1163 27.7986 41.5758 26.642 41.5758C25.4857 41.5758 24.3767 41.1144 23.559 40.2968C22.7414 39.4791 22.282 38.3701 22.282 37.2138M31.004 37.2138C31.004 36.0572 30.5435 34.9489 29.7257 34.1311C28.9078 33.3132 27.7986 32.8538 26.642 32.8538C25.4857 32.8538 24.3767 33.3131 23.559 34.1308C22.7414 34.9485 22.282 36.0574 22.282 37.2138M22.282 37.2138H5.5M42.5 10.7858H36.29M27.568 10.7858H5.5M27.568 10.7858C27.568 9.62944 28.0274 8.52045 28.845 7.7028C29.6627 6.88514 30.7717 6.42578 31.928 6.42578C32.5006 6.42578 33.0675 6.53856 33.5965 6.75767C34.1255 6.97678 34.6061 7.29793 35.011 7.7028C35.4158 8.10766 35.737 8.5883 35.9561 9.11728C36.1752 9.64626 36.288 10.2132 36.288 10.7858C36.288 11.3583 36.1752 11.9253 35.9561 12.4543C35.737 12.9833 35.4158 13.4639 35.011 13.8688C34.6061 14.2736 34.1255 14.5948 33.5965 14.8139C33.0675 15.033 32.5006 15.1458 31.928 15.1458C30.7717 15.1458 29.6627 14.6864 28.845 13.8688C28.0274 13.0511 27.568 11.9421 27.568 10.7858Z" stroke="white" stroke-width="3" stroke-miterlimit="10" stroke-linecap="round"/>
</svg>
