<svg width="18" height="18" viewBox="0 0 18 18" fill="none" xmlns="http://www.w3.org/2000/svg">
<path d="M8.45449 2.76544C8.38683 2.69383 8.33393 2.6096 8.29882 2.51756C8.26371 2.42551 8.24707 2.32745 8.24986 2.22897C8.25264 2.1305 8.2748 2.03353 8.31506 1.94362C8.35532 1.8537 8.41289 1.7726 8.48449 1.70494C8.5561 1.63727 8.64033 1.58438 8.73237 1.54926C8.82442 1.51415 8.92248 1.49751 9.02096 1.5003C9.11943 1.50309 9.2164 1.52524 9.30631 1.5655C9.39623 1.60576 9.47733 1.66333 9.54499 1.73494L15.92 8.48494C16.0516 8.62419 16.125 8.80855 16.125 9.00019C16.125 9.19182 16.0516 9.37618 15.92 9.51544L9.54499 16.2662C9.47778 16.3394 9.39669 16.3984 9.30645 16.44C9.2162 16.4816 9.11859 16.5048 9.0193 16.5083C8.92 16.5119 8.821 16.4956 8.72803 16.4606C8.63506 16.4255 8.54999 16.3723 8.47775 16.3041C8.4055 16.2359 8.34754 16.154 8.30721 16.0632C8.26689 15.9724 8.24501 15.8745 8.24285 15.7751C8.24068 15.6758 8.25828 15.577 8.29461 15.4845C8.33095 15.3921 8.38529 15.3077 8.45449 15.2364L14.3435 9.00019L8.45449 2.76544Z" fill="black"/>
</svg>
