<svg width="47" height="47" viewBox="0 0 47 47" fill="none" xmlns="http://www.w3.org/2000/svg">
<path d="M45.5312 38.1875H42.5938V17.625C42.9833 17.625 43.3569 17.4703 43.6323 17.1948C43.9078 16.9194 44.0625 16.5458 44.0625 16.1562C44.0625 15.7667 43.9078 15.3931 43.6323 15.1177C43.3569 14.8422 42.9833 14.6875 42.5938 14.6875H33.7812V8.8125C34.1708 8.8125 34.5444 8.65776 34.8198 8.38231C35.0953 8.10687 35.25 7.73329 35.25 7.34375C35.25 6.95421 35.0953 6.58063 34.8198 6.30519C34.5444 6.02974 34.1708 5.875 33.7812 5.875H7.34375C6.95421 5.875 6.58063 6.02974 6.30519 6.30519C6.02974 6.58063 5.875 6.95421 5.875 7.34375C5.875 7.73329 6.02974 8.10687 6.30519 8.38231C6.58063 8.65776 6.95421 8.8125 7.34375 8.8125V38.1875H4.40625C4.01671 38.1875 3.64313 38.3422 3.36769 38.6177C3.09224 38.8931 2.9375 39.2667 2.9375 39.6562C2.9375 40.0458 3.09224 40.4194 3.36769 40.6948C3.64313 40.9703 4.01671 41.125 4.40625 41.125H45.5312C45.9208 41.125 46.2944 40.9703 46.5698 40.6948C46.8453 40.4194 47 40.0458 47 39.6562C47 39.2667 46.8453 38.8931 46.5698 38.6177C46.2944 38.3422 45.9208 38.1875 45.5312 38.1875ZM39.6562 17.625V38.1875H33.7812V17.625H39.6562ZM10.2812 8.8125H30.8438V38.1875H26.4375V29.375C26.4375 28.9855 26.2828 28.6119 26.0073 28.3364C25.7319 28.061 25.3583 27.9062 24.9688 27.9062H16.1562C15.7667 27.9062 15.3931 28.061 15.1177 28.3364C14.8422 28.6119 14.6875 28.9855 14.6875 29.375V38.1875H10.2812V8.8125ZM23.5 38.1875H17.625V30.8438H23.5V38.1875ZM13.2188 14.6875C13.2188 14.298 13.3735 13.9244 13.6489 13.6489C13.9244 13.3735 14.298 13.2188 14.6875 13.2188H17.625C18.0145 13.2188 18.3881 13.3735 18.6636 13.6489C18.939 13.9244 19.0938 14.298 19.0938 14.6875C19.0938 15.077 18.939 15.4506 18.6636 15.7261C18.3881 16.0015 18.0145 16.1562 17.625 16.1562H14.6875C14.298 16.1562 13.9244 16.0015 13.6489 15.7261C13.3735 15.4506 13.2188 15.077 13.2188 14.6875ZM22.0312 14.6875C22.0312 14.298 22.186 13.9244 22.4614 13.6489C22.7369 13.3735 23.1105 13.2188 23.5 13.2188H26.4375C26.827 13.2188 27.2006 13.3735 27.4761 13.6489C27.7515 13.9244 27.9062 14.298 27.9062 14.6875C27.9062 15.077 27.7515 15.4506 27.4761 15.7261C27.2006 16.0015 26.827 16.1562 26.4375 16.1562H23.5C23.1105 16.1562 22.7369 16.0015 22.4614 15.7261C22.186 15.4506 22.0312 15.077 22.0312 14.6875ZM13.2188 22.0312C13.2188 21.6417 13.3735 21.2681 13.6489 20.9927C13.9244 20.7172 14.298 20.5625 14.6875 20.5625H17.625C18.0145 20.5625 18.3881 20.7172 18.6636 20.9927C18.939 21.2681 19.0938 21.6417 19.0938 22.0312C19.0938 22.4208 18.939 22.7944 18.6636 23.0698C18.3881 23.3453 18.0145 23.5 17.625 23.5H14.6875C14.298 23.5 13.9244 23.3453 13.6489 23.0698C13.3735 22.7944 13.2188 22.4208 13.2188 22.0312ZM22.0312 22.0312C22.0312 21.6417 22.186 21.2681 22.4614 20.9927C22.7369 20.7172 23.1105 20.5625 23.5 20.5625H26.4375C26.827 20.5625 27.2006 20.7172 27.4761 20.9927C27.7515 21.2681 27.9062 21.6417 27.9062 22.0312C27.9062 22.4208 27.7515 22.7944 27.4761 23.0698C27.2006 23.3453 26.827 23.5 26.4375 23.5H23.5C23.1105 23.5 22.7369 23.3453 22.4614 23.0698C22.186 22.7944 22.0312 22.4208 22.0312 22.0312Z" fill="#6E412A"/>
<path d="M45.5312 38.1875H42.5938V17.625C42.9833 17.625 43.3569 17.4703 43.6323 17.1948C43.9078 16.9194 44.0625 16.5458 44.0625 16.1562C44.0625 15.7667 43.9078 15.3931 43.6323 15.1177C43.3569 14.8422 42.9833 14.6875 42.5938 14.6875H33.7812V8.8125C34.1708 8.8125 34.5444 8.65776 34.8198 8.38231C35.0953 8.10687 35.25 7.73329 35.25 7.34375C35.25 6.95421 35.0953 6.58063 34.8198 6.30519C34.5444 6.02974 34.1708 5.875 33.7812 5.875H7.34375C6.95421 5.875 6.58063 6.02974 6.30519 6.30519C6.02974 6.58063 5.875 6.95421 5.875 7.34375C5.875 7.73329 6.02974 8.10687 6.30519 8.38231C6.58063 8.65776 6.95421 8.8125 7.34375 8.8125V38.1875H4.40625C4.01671 38.1875 3.64313 38.3422 3.36769 38.6177C3.09224 38.8931 2.9375 39.2667 2.9375 39.6562C2.9375 40.0458 3.09224 40.4194 3.36769 40.6948C3.64313 40.9703 4.01671 41.125 4.40625 41.125H45.5312C45.9208 41.125 46.2944 40.9703 46.5698 40.6948C46.8453 40.4194 47 40.0458 47 39.6562C47 39.2667 46.8453 38.8931 46.5698 38.6177C46.2944 38.3422 45.9208 38.1875 45.5312 38.1875ZM39.6562 17.625V38.1875H33.7812V17.625H39.6562ZM10.2812 8.8125H30.8438V38.1875H26.4375V29.375C26.4375 28.9855 26.2828 28.6119 26.0073 28.3364C25.7319 28.061 25.3583 27.9062 24.9688 27.9062H16.1562C15.7667 27.9062 15.3931 28.061 15.1177 28.3364C14.8422 28.6119 14.6875 28.9855 14.6875 29.375V38.1875H10.2812V8.8125ZM23.5 38.1875H17.625V30.8438H23.5V38.1875ZM13.2188 14.6875C13.2188 14.298 13.3735 13.9244 13.6489 13.6489C13.9244 13.3735 14.298 13.2188 14.6875 13.2188H17.625C18.0145 13.2188 18.3881 13.3735 18.6636 13.6489C18.939 13.9244 19.0938 14.298 19.0938 14.6875C19.0938 15.077 18.939 15.4506 18.6636 15.7261C18.3881 16.0015 18.0145 16.1562 17.625 16.1562H14.6875C14.298 16.1562 13.9244 16.0015 13.6489 15.7261C13.3735 15.4506 13.2188 15.077 13.2188 14.6875ZM22.0312 14.6875C22.0312 14.298 22.186 13.9244 22.4614 13.6489C22.7369 13.3735 23.1105 13.2188 23.5 13.2188H26.4375C26.827 13.2188 27.2006 13.3735 27.4761 13.6489C27.7515 13.9244 27.9062 14.298 27.9062 14.6875C27.9062 15.077 27.7515 15.4506 27.4761 15.7261C27.2006 16.0015 26.827 16.1562 26.4375 16.1562H23.5C23.1105 16.1562 22.7369 16.0015 22.4614 15.7261C22.186 15.4506 22.0312 15.077 22.0312 14.6875ZM13.2188 22.0312C13.2188 21.6417 13.3735 21.2681 13.6489 20.9927C13.9244 20.7172 14.298 20.5625 14.6875 20.5625H17.625C18.0145 20.5625 18.3881 20.7172 18.6636 20.9927C18.939 21.2681 19.0938 21.6417 19.0938 22.0312C19.0938 22.4208 18.939 22.7944 18.6636 23.0698C18.3881 23.3453 18.0145 23.5 17.625 23.5H14.6875C14.298 23.5 13.9244 23.3453 13.6489 23.0698C13.3735 22.7944 13.2188 22.4208 13.2188 22.0312ZM22.0312 22.0312C22.0312 21.6417 22.186 21.2681 22.4614 20.9927C22.7369 20.7172 23.1105 20.5625 23.5 20.5625H26.4375C26.827 20.5625 27.2006 20.7172 27.4761 20.9927C27.7515 21.2681 27.9062 21.6417 27.9062 22.0312C27.9062 22.4208 27.7515 22.7944 27.4761 23.0698C27.2006 23.3453 26.827 23.5 26.4375 23.5H23.5C23.1105 23.5 22.7369 23.3453 22.4614 23.0698C22.186 22.7944 22.0312 22.4208 22.0312 22.0312Z" fill="url(#paint0_linear_1103_15411)" fill-opacity="0.5" style="mix-blend-mode:screen"/>
<defs>
<linearGradient id="paint0_linear_1103_15411" x1="24.9688" y1="41.125" x2="24.9688" y2="5.875" gradientUnits="userSpaceOnUse">
<stop stop-color="#A55500"/>
<stop offset="1" stop-color="#A55500" stop-opacity="0"/>
</linearGradient>
</defs>
</svg>
