<svg width="64" height="64" viewBox="0 0 64 64" fill="none" xmlns="http://www.w3.org/2000/svg">
<path d="M32.0005 58.0094C30.3105 58.0094 28.6705 57.8394 27.0705 57.5294L37.6405 48.2394C38.2105 47.7394 38.7405 47.1694 39.1005 46.4994C39.6505 45.4894 39.9305 44.3594 39.9305 43.2394C39.9305 41.7194 39.4305 40.1994 38.4105 38.9494C36.8805 37.0794 34.4805 36.1594 32.0905 36.5294L21.3205 38.1994C20.0505 38.1994 18.8705 37.7494 17.9405 36.9794C17.0205 36.2194 16.3505 35.1394 16.1105 33.8894C15.8405 32.4494 16.1705 30.9594 17.0305 29.7694L19.0705 26.9694C20.0405 25.6294 20.3105 23.9894 19.9105 22.4894C17.9405 23.9394 15.5105 24.7994 12.8805 24.7994C10.1705 24.7994 7.68047 23.8894 5.68047 22.3594C4.58047 25.3594 3.98047 28.5994 3.98047 31.9794C3.98047 35.3894 4.59047 38.6594 5.71047 41.6894C7.70047 40.1794 10.1805 39.2794 12.8805 39.2794C19.4305 39.2794 24.7605 44.6094 24.7605 51.1594C24.7605 53.8494 23.8705 56.3194 22.3605 58.3094C25.3705 59.4094 28.6105 60.0094 32.0005 60.0094C35.3905 60.0094 38.6305 59.4094 41.6405 58.3094C41.2305 57.7694 40.8605 57.1794 40.5405 56.5694C37.8705 57.4994 34.9905 58.0094 32.0005 58.0094Z" fill="#A55500"/>
<path d="M25.0208 11.0809C27.0208 12.3309 28.1908 14.5509 28.1008 16.9109L28.0508 18.4709V18.7209C28.0508 20.9609 29.1908 23.0509 31.0808 24.2609C33.0408 25.5209 35.5208 25.6609 37.6008 24.6209L38.9108 23.9709C41.3408 22.7609 44.2708 23.1609 46.2908 24.9809L47.8908 26.4309C49.8808 28.2309 52.7708 28.6509 55.1908 27.4809L57.4208 26.4209C57.8108 28.2109 58.0208 30.0709 58.0208 31.9809C58.0208 35.0009 57.5008 37.9009 56.5508 40.5909C57.1608 40.9109 57.7508 41.2809 58.2908 41.6909C59.4108 38.6609 60.0208 35.3909 60.0208 31.9809C60.0208 28.6009 59.4208 25.3609 58.3208 22.3609C56.3208 23.8909 53.8308 24.8009 51.1208 24.8009C44.5608 24.8009 39.2308 19.4709 39.2308 12.9209C39.2308 10.2009 40.1508 7.70094 41.7008 5.69094C38.6708 4.57094 35.4108 3.96094 32.0008 3.96094C28.5908 3.96094 25.3308 4.57094 22.3008 5.69094C23.4308 7.16094 24.2308 8.90094 24.5708 10.7909L25.0208 11.0809Z" fill="#A55500"/>
<path d="M43.8357 38.9645L44.9297 39.4725C45.8467 39.8975 46.9357 39.6255 47.5437 38.8185L50.2797 35.1875C51.0847 34.1195 50.7247 32.5825 49.5297 31.9825L43.7907 29.1025C43.2297 28.8215 42.5737 28.7995 41.9957 29.0435L41.7517 29.1465C40.5157 29.6685 40.0577 31.1835 40.7977 32.3025L42.3907 34.7115C42.7307 35.2255 42.8327 35.8615 42.6707 36.4565C42.3957 37.4645 42.8887 38.5245 43.8357 38.9645Z" fill="#A55500"/>
<path d="M51.1164 22.8031C56.5654 22.8031 60.9984 18.3701 60.9984 12.9211C60.9984 7.47206 56.5654 3.03906 51.1164 3.03906C45.6674 3.03906 41.2344 7.47206 41.2344 12.9211C41.2344 18.3701 45.6674 22.8031 51.1164 22.8031ZM51.1164 5.03906C55.4624 5.03906 58.9984 8.57506 58.9984 12.9211C58.9984 15.2051 58.0164 17.2591 56.4584 18.6991C56.0274 17.2351 55.0054 16.0221 53.6604 15.3291C54.6004 14.5791 55.2204 13.4391 55.2204 12.1391C55.2204 9.86906 53.3804 8.03906 51.1204 8.03906C48.8604 8.03906 47.0104 9.86906 47.0104 12.1391C47.0104 13.4391 47.6304 14.5791 48.5704 15.3291C47.2334 16.0221 46.2124 17.2361 45.7754 18.7001C44.2174 17.2591 43.2344 15.2051 43.2344 12.9201C43.2344 8.57406 46.7704 5.03906 51.1164 5.03906Z" fill="#A55500"/>
<path d="M12.882 41.2734C7.433 41.2734 3 45.7064 3 51.1554C3 56.6044 7.433 61.0374 12.882 61.0374C18.331 61.0374 22.764 56.6044 22.764 51.1554C22.764 45.7064 18.331 41.2734 12.882 41.2734ZM18.225 56.9334C17.788 55.4664 16.767 54.2604 15.431 53.5674C16.371 52.8174 16.981 51.6674 16.981 50.3674C16.981 48.1074 15.151 46.2674 12.881 46.2674C10.611 46.2674 8.781 48.1074 8.781 50.3674C8.781 51.6674 9.391 52.8174 10.331 53.5674C8.995 54.2604 7.975 55.4654 7.537 56.9324C5.981 55.4914 5 53.4384 5 51.1564C5 46.8104 8.536 43.2744 12.882 43.2744C17.228 43.2744 20.764 46.8104 20.764 51.1564C20.764 53.4394 19.782 55.4924 18.225 56.9334Z" fill="#A55500"/>
<path d="M51.1164 41.2734C45.6674 41.2734 41.2344 45.7064 41.2344 51.1554C41.2344 56.6044 45.6674 61.0374 51.1164 61.0374C56.5654 61.0374 60.9984 56.6044 60.9984 51.1554C60.9984 45.7064 56.5654 41.2734 51.1164 41.2734ZM56.4624 56.9304C56.0244 55.4654 55.0044 54.2604 53.6694 53.5684C54.6094 52.8084 55.2194 51.6684 55.2194 50.3684C55.2194 48.1084 53.3794 46.2684 51.1194 46.2684C48.8594 46.2684 47.0094 48.1084 47.0094 50.3684C47.0094 51.6684 47.6294 52.8084 48.5694 53.5684C47.2334 54.2614 46.2124 55.4684 45.7754 56.9344C44.2174 55.4934 43.2344 53.4394 43.2344 51.1554C43.2344 46.8094 46.7704 43.2734 51.1164 43.2734C55.4624 43.2734 58.9984 46.8094 58.9984 51.1554C58.9984 53.4374 58.0174 55.4894 56.4624 56.9304Z" fill="#A55500"/>
<path d="M12.882 22.8031C18.331 22.8031 22.764 18.3701 22.764 12.9211C22.764 7.47206 18.331 3.03906 12.882 3.03906C7.433 3.03906 3 7.47206 3 12.9211C3 18.3701 7.433 22.8031 12.882 22.8031ZM12.882 5.03906C17.228 5.03906 20.764 8.57506 20.764 12.9211C20.764 15.2041 19.782 17.2581 18.225 18.6981C17.788 17.2351 16.767 16.0221 15.431 15.3291C16.371 14.5791 16.981 13.4391 16.981 12.1391C16.981 9.86906 15.151 8.03906 12.881 8.03906C10.611 8.03906 8.781 9.86906 8.781 12.1391C8.781 13.4391 9.391 14.5791 10.331 15.3291C8.995 16.0221 7.975 17.2351 7.537 18.6971C5.981 17.2561 5 15.2031 5 12.9211C5 8.57506 8.536 5.03906 12.882 5.03906Z" fill="#A55500"/>
</svg>
