<svg width="18" height="18" viewBox="0 0 18 18" fill="none" xmlns="http://www.w3.org/2000/svg">
<path d="M9.54551 2.76544C9.61317 2.69383 9.66607 2.6096 9.70118 2.51756C9.73629 2.42551 9.75293 2.32745 9.75014 2.22897C9.74736 2.1305 9.7252 2.03353 9.68494 1.94362C9.64468 1.8537 9.58711 1.7726 9.51551 1.70494C9.4439 1.63727 9.35967 1.58438 9.26763 1.54926C9.17558 1.51415 9.07752 1.49751 8.97904 1.5003C8.88057 1.50309 8.7836 1.52524 8.69369 1.5655C8.60377 1.60576 8.52267 1.66333 8.45501 1.73494L2.08001 8.48494C1.94835 8.62419 1.875 8.80855 1.875 9.00019C1.875 9.19182 1.94835 9.37618 2.08001 9.51544L8.45501 16.2662C8.52222 16.3394 8.60331 16.3984 8.69355 16.44C8.7838 16.4816 8.88141 16.5048 8.9807 16.5083C9.08 16.5119 9.179 16.4956 9.27197 16.4606C9.36494 16.4255 9.45001 16.3723 9.52225 16.3041C9.5945 16.2359 9.65246 16.154 9.69279 16.0632C9.73311 15.9724 9.75499 15.8745 9.75715 15.7751C9.75932 15.6758 9.74172 15.577 9.70539 15.4845C9.66905 15.3921 9.61471 15.3077 9.54551 15.2364L3.65651 9.00019L9.54551 2.76544Z" fill="black"/>
</svg>
