<svg width="88" height="88" viewBox="0 0 88 88" fill="none" xmlns="http://www.w3.org/2000/svg">
<path d="M64.1663 44C69.5149 44 74.6443 46.1247 78.4263 49.9067C82.2083 53.6887 84.333 58.8181 84.333 64.1667C84.333 69.5152 82.2083 74.6447 78.4263 78.4267C74.6443 82.2086 69.5149 84.3333 64.1663 84.3333C58.8178 84.3333 53.6883 82.2086 49.9064 78.4267C46.1244 74.6447 43.9997 69.5152 43.9997 64.1667C43.9997 58.8181 46.1244 53.6887 49.9064 49.9067C53.6883 46.1247 58.8178 44 64.1663 44ZM52.2643 36.6667C53.7158 36.667 55.1416 37.0502 56.3976 37.7777C57.6536 38.5051 58.6955 39.5511 59.418 40.81C57.4919 41.1967 55.6219 41.8237 53.852 42.6763C53.3894 42.344 52.8339 42.1657 52.2643 42.1667H35.757C35.0277 42.1667 34.3282 42.4564 33.8125 42.9721C33.2967 43.4879 33.007 44.1873 33.007 44.9167V60.4963C33.007 65.6663 36.5783 70.0077 41.389 71.1847C42.0168 73.2385 42.9236 75.1965 44.084 77.0037L44.0107 77C41.8432 77.0005 39.697 76.5739 37.6944 75.7447C35.6919 74.9155 33.8724 73.6999 32.3397 72.1673C30.8071 70.6347 29.5915 68.8151 28.7623 66.8126C27.9331 64.8101 27.5065 62.6638 27.507 60.4963V44.9167C27.507 42.7286 28.3762 40.6302 29.9234 39.083C31.4706 37.5359 33.569 36.6667 35.757 36.6667H52.2643ZM55.3407 54.8753L55.084 55.088L54.875 55.3447C54.6637 55.6508 54.5506 56.014 54.5506 56.386C54.5506 56.758 54.6637 57.1212 54.875 57.4273L55.0877 57.684L61.5777 64.1703L55.095 70.6457L54.886 70.9023C54.6747 71.2085 54.5616 71.5717 54.5616 71.9437C54.5616 72.3157 54.6747 72.6789 54.886 72.985L55.095 73.2417L55.3517 73.4507C55.6578 73.662 56.021 73.7751 56.393 73.7751C56.765 73.7751 57.1282 73.662 57.4343 73.4507L57.691 73.2417L64.1663 66.7627L70.6563 73.249L70.9093 73.4617C71.2155 73.673 71.5787 73.7861 71.9507 73.7861C72.3227 73.7861 72.6859 73.673 72.992 73.4617L73.2487 73.249L73.4577 72.9923C73.669 72.6862 73.7821 72.323 73.7821 71.951C73.7821 71.579 73.669 71.2158 73.4577 70.9097L73.2487 70.653L66.7587 64.1703L73.256 57.6803L73.4687 57.4273C73.6808 57.1208 73.7944 56.7569 73.7944 56.3842C73.7944 56.0114 73.6808 55.6475 73.4687 55.341L73.256 55.088L73.003 54.8753C72.6965 54.6632 72.3326 54.5496 71.9598 54.5496C71.5871 54.5496 71.2232 54.6632 70.9167 54.8753L70.6637 55.088L64.1663 61.578L57.6763 55.088L57.427 54.8753C57.1653 54.6945 56.861 54.5848 56.5441 54.5572C56.2271 54.5295 55.9084 54.5849 55.6193 54.7177L55.3407 54.8753ZM27.155 36.6667C25.6825 38.1991 24.648 40.0984 24.1593 42.1667H15.583C14.8537 42.1667 14.1542 42.4564 13.6385 42.9721C13.1227 43.4879 12.833 44.1873 12.833 44.9167V54.9963C12.8321 56.3821 13.1454 57.7501 13.7493 58.9974C14.3532 60.2447 15.2321 61.3388 16.3198 62.1975C17.4075 63.0561 18.6758 63.657 20.0292 63.9549C21.3826 64.2528 22.7859 64.24 24.1337 63.9173C24.4453 65.7653 25.0137 67.529 25.7947 69.168C24.5822 69.498 23.3172 69.6642 21.9997 69.6667C20.0733 69.6667 18.1658 69.2872 16.3861 68.5499C14.6065 67.8126 12.9895 66.7319 11.6275 65.3696C10.2655 64.0073 9.18524 62.39 8.44839 60.6102C7.71154 58.8303 7.33253 56.9227 7.33301 54.9963V44.9167C7.33275 42.8262 8.12609 40.8136 9.5527 39.2856C10.9793 37.7576 12.9328 36.8281 15.0183 36.685L15.583 36.6667H27.155ZM72.4163 36.6667C74.6044 36.6667 76.7028 37.5359 78.25 39.083C79.7971 40.6302 80.6663 42.7286 80.6663 44.9167V46.97C76.2329 42.7052 70.3181 40.3261 64.1663 40.3333L63.268 40.3517C62.7069 38.9829 61.892 37.7326 60.8663 36.6667H72.4163ZM67.833 14.6667C70.2642 14.6667 72.5957 15.6324 74.3148 17.3515C76.0339 19.0706 76.9997 21.4022 76.9997 23.8333C76.9997 26.2645 76.0339 28.5961 74.3148 30.3151C72.5957 32.0342 70.2642 33 67.833 33C65.4019 33 63.0703 32.0342 61.3512 30.3151C59.6321 28.5961 58.6663 26.2645 58.6663 23.8333C58.6663 21.4022 59.6321 19.0706 61.3512 17.3515C63.0703 15.6324 65.4019 14.6667 67.833 14.6667ZM43.9997 11C46.9171 11 49.715 12.1589 51.7779 14.2218C53.8408 16.2847 54.9997 19.0826 54.9997 22C54.9997 24.9174 53.8408 27.7153 51.7779 29.7782C49.715 31.8411 46.9171 33 43.9997 33C41.0823 33 38.2844 31.8411 36.2215 29.7782C34.1586 27.7153 32.9997 24.9174 32.9997 22C32.9997 19.0826 34.1586 16.2847 36.2215 14.2218C38.2844 12.1589 41.0823 11 43.9997 11ZM20.1663 14.6667C22.5975 14.6667 24.9291 15.6324 26.6482 17.3515C28.3672 19.0706 29.333 21.4022 29.333 23.8333C29.333 26.2645 28.3672 28.5961 26.6482 30.3151C24.9291 32.0342 22.5975 33 20.1663 33C17.7352 33 15.4036 32.0342 13.6845 30.3151C11.9654 28.5961 10.9997 26.2645 10.9997 23.8333C10.9997 21.4022 11.9654 19.0706 13.6845 17.3515C15.4036 15.6324 17.7352 14.6667 20.1663 14.6667ZM67.833 20.1667C66.8605 20.1667 65.9279 20.553 65.2403 21.2406C64.5526 21.9282 64.1663 22.8609 64.1663 23.8333C64.1663 24.8058 64.5526 25.7384 65.2403 26.4261C65.9279 27.1137 66.8605 27.5 67.833 27.5C68.8055 27.5 69.7381 27.1137 70.4257 26.4261C71.1134 25.7384 71.4997 24.8058 71.4997 23.8333C71.4997 22.8609 71.1134 21.9282 70.4257 21.2406C69.7381 20.553 68.8055 20.1667 67.833 20.1667ZM43.9997 16.5C42.541 16.5 41.142 17.0795 40.1106 18.1109C39.0791 19.1424 38.4997 20.5413 38.4997 22C38.4997 23.4587 39.0791 24.8576 40.1106 25.8891C41.142 26.9205 42.541 27.5 43.9997 27.5C45.4584 27.5 46.8573 26.9205 47.8888 25.8891C48.9202 24.8576 49.4997 23.4587 49.4997 22C49.4997 20.5413 48.9202 19.1424 47.8888 18.1109C46.8573 17.0795 45.4584 16.5 43.9997 16.5ZM20.1663 20.1667C19.1939 20.1667 18.2613 20.553 17.5736 21.2406C16.886 21.9282 16.4997 22.8609 16.4997 23.8333C16.4997 24.8058 16.886 25.7384 17.5736 26.4261C18.2613 27.1137 19.1939 27.5 20.1663 27.5C21.1388 27.5 22.0714 27.1137 22.7591 26.4261C23.4467 25.7384 23.833 24.8058 23.833 23.8333C23.833 22.8609 23.4467 21.9282 22.7591 21.2406C22.0714 20.553 21.1388 20.1667 20.1663 20.1667Z" fill="black"/>
</svg>
