<svg width="47" height="47" viewBox="0 0 47 47" fill="none" xmlns="http://www.w3.org/2000/svg">
<path d="M23.5 23.2184C26.4249 23.2184 28.8093 20.6124 28.8093 17.4416C28.8093 14.3068 26.4375 11.8242 23.5 11.8242C20.5877 11.8242 18.1907 14.3438 18.1907 17.4659C18.2024 20.625 20.5868 23.2184 23.5 23.2184ZM9.34125 23.4878C11.8725 23.4878 13.9498 21.2133 13.9498 18.4235C13.9498 15.6958 11.8977 13.4952 9.34125 13.4952C6.80913 13.4952 4.7193 15.7319 4.73189 18.4479C4.74448 21.2259 6.80913 23.4878 9.34125 23.4878ZM37.6713 23.4878C40.1909 23.4878 42.2681 21.2259 42.2681 18.4479C42.2807 15.7319 40.1909 13.4952 37.6713 13.4952C35.1031 13.4952 33.0502 15.695 33.0502 18.4235C33.0502 21.2133 35.1275 23.4878 37.6713 23.4878ZM23.5 21.3619C21.7056 21.3619 20.1689 19.6413 20.1689 17.4659C20.1689 15.3274 21.6813 13.6807 23.5008 13.6807C25.3313 13.6807 26.8311 15.3031 26.8311 17.4407C26.8311 19.617 25.3187 21.3619 23.5 21.3619ZM9.34125 21.6573C7.84145 21.6573 6.56321 20.2188 6.56321 18.4487C6.56321 16.7164 7.82886 15.3266 9.34125 15.3266C10.8897 15.3266 12.131 16.6912 12.131 18.4244C12.131 20.2188 10.8528 21.6573 9.34125 21.6573ZM37.6713 21.6573C36.1472 21.6573 34.869 20.2188 34.869 18.4244C34.869 16.6912 36.1103 15.3274 37.6713 15.3274C39.1829 15.3274 40.4368 16.7164 40.4368 18.4495C40.4368 20.2188 39.1703 21.6573 37.6713 21.6573ZM2.50695 34.7585H12.1554C11.5654 34.427 11.1105 33.6893 11.1969 32.9398H2.19977C1.95386 32.9398 1.83132 32.8416 1.83132 32.6083C1.83132 29.56 5.30932 26.7081 9.32866 26.7081C10.8771 26.7081 12.2662 27.0774 13.4579 27.7774C13.8532 27.2761 14.3214 26.837 14.847 26.4748C13.2616 25.4299 11.3564 24.8894 9.32866 24.8894C4.1788 24.8894 0 28.6259 0 32.7191C0 34.0829 0.835929 34.7585 2.50695 34.7585ZM44.5048 34.7585C46.1641 34.7585 47 34.0829 47 32.7191C47 28.6259 42.8204 24.8894 37.6713 24.8894C35.6436 24.8894 33.7502 25.4299 32.153 26.4756C32.7061 26.8558 33.1602 27.2864 33.5546 27.7774C34.7338 27.0774 36.1346 26.7081 37.6713 26.7081C41.6907 26.7081 45.1687 29.56 45.1687 32.6083C45.1687 32.8416 45.0579 32.9398 44.812 32.9398H35.8148C35.8887 33.6893 35.4464 34.427 34.8564 34.7585H44.5048ZM15.7811 34.7585H31.2189C33.2584 34.7585 34.2303 34.1442 34.2303 32.7921C34.2303 29.5718 30.1614 24.9137 23.5 24.9137C16.826 24.9137 12.7571 29.5718 12.7571 32.7921C12.7571 34.1442 13.729 34.7585 15.7811 34.7585ZM15.1911 32.9037C14.8721 32.9037 14.737 32.8173 14.737 32.5596C14.737 30.5428 17.8592 26.7702 23.5 26.7702C29.1291 26.7702 32.2512 30.5428 32.2512 32.5588C32.2512 32.8173 32.1279 32.9029 31.8089 32.9029L15.1911 32.9037Z" fill="#6E412A"/>
<path d="M23.5 23.2184C26.4249 23.2184 28.8093 20.6124 28.8093 17.4416C28.8093 14.3068 26.4375 11.8242 23.5 11.8242C20.5877 11.8242 18.1907 14.3438 18.1907 17.4659C18.2024 20.625 20.5868 23.2184 23.5 23.2184ZM9.34125 23.4878C11.8725 23.4878 13.9498 21.2133 13.9498 18.4235C13.9498 15.6958 11.8977 13.4952 9.34125 13.4952C6.80913 13.4952 4.7193 15.7319 4.73189 18.4479C4.74448 21.2259 6.80913 23.4878 9.34125 23.4878ZM37.6713 23.4878C40.1909 23.4878 42.2681 21.2259 42.2681 18.4479C42.2807 15.7319 40.1909 13.4952 37.6713 13.4952C35.1031 13.4952 33.0502 15.695 33.0502 18.4235C33.0502 21.2133 35.1275 23.4878 37.6713 23.4878ZM23.5 21.3619C21.7056 21.3619 20.1689 19.6413 20.1689 17.4659C20.1689 15.3274 21.6813 13.6807 23.5008 13.6807C25.3313 13.6807 26.8311 15.3031 26.8311 17.4407C26.8311 19.617 25.3187 21.3619 23.5 21.3619ZM9.34125 21.6573C7.84145 21.6573 6.56321 20.2188 6.56321 18.4487C6.56321 16.7164 7.82886 15.3266 9.34125 15.3266C10.8897 15.3266 12.131 16.6912 12.131 18.4244C12.131 20.2188 10.8528 21.6573 9.34125 21.6573ZM37.6713 21.6573C36.1472 21.6573 34.869 20.2188 34.869 18.4244C34.869 16.6912 36.1103 15.3274 37.6713 15.3274C39.1829 15.3274 40.4368 16.7164 40.4368 18.4495C40.4368 20.2188 39.1703 21.6573 37.6713 21.6573ZM2.50695 34.7585H12.1554C11.5654 34.427 11.1105 33.6893 11.1969 32.9398H2.19977C1.95386 32.9398 1.83132 32.8416 1.83132 32.6083C1.83132 29.56 5.30932 26.7081 9.32866 26.7081C10.8771 26.7081 12.2662 27.0774 13.4579 27.7774C13.8532 27.2761 14.3214 26.837 14.847 26.4748C13.2616 25.4299 11.3564 24.8894 9.32866 24.8894C4.1788 24.8894 0 28.6259 0 32.7191C0 34.0829 0.835929 34.7585 2.50695 34.7585ZM44.5048 34.7585C46.1641 34.7585 47 34.0829 47 32.7191C47 28.6259 42.8204 24.8894 37.6713 24.8894C35.6436 24.8894 33.7502 25.4299 32.153 26.4756C32.7061 26.8558 33.1602 27.2864 33.5546 27.7774C34.7338 27.0774 36.1346 26.7081 37.6713 26.7081C41.6907 26.7081 45.1687 29.56 45.1687 32.6083C45.1687 32.8416 45.0579 32.9398 44.812 32.9398H35.8148C35.8887 33.6893 35.4464 34.427 34.8564 34.7585H44.5048ZM15.7811 34.7585H31.2189C33.2584 34.7585 34.2303 34.1442 34.2303 32.7921C34.2303 29.5718 30.1614 24.9137 23.5 24.9137C16.826 24.9137 12.7571 29.5718 12.7571 32.7921C12.7571 34.1442 13.729 34.7585 15.7811 34.7585ZM15.1911 32.9037C14.8721 32.9037 14.737 32.8173 14.737 32.5596C14.737 30.5428 17.8592 26.7702 23.5 26.7702C29.1291 26.7702 32.2512 30.5428 32.2512 32.5588C32.2512 32.8173 32.1279 32.9029 31.8089 32.9029L15.1911 32.9037Z" fill="url(#paint0_linear_1103_15397)" fill-opacity="0.5" style="mix-blend-mode:screen"/>
<defs>
<linearGradient id="paint0_linear_1103_15397" x1="23.5" y1="34.7585" x2="23.5" y2="11.8242" gradientUnits="userSpaceOnUse">
<stop stop-color="#A55500"/>
<stop offset="1" stop-color="#A55500" stop-opacity="0"/>
</linearGradient>
</defs>
</svg>
