<svg width="47" height="47" viewBox="0 0 47 47" fill="none" xmlns="http://www.w3.org/2000/svg">
<path d="M17.7178 24.0508C17.7178 25.497 18.3061 26.3934 19.3535 27.416C20.4009 28.4386 21.8215 29.0126 23.3027 29.0127C24.7839 29.0127 26.2045 28.4385 27.252 27.416C28.2994 26.3934 28.8887 25.497 28.8887 24.0508H37.2656C37.2656 24.3547 37.1622 25.1392 36.9707 25.3789C36.7792 25.6185 36.5109 25.7885 36.209 25.8623L33.3145 26.5703C33.119 27.1882 32.8677 27.7794 32.5605 28.3428L34.0967 30.8408C34.2568 31.1014 34.3231 31.4074 34.2852 31.709C34.2471 32.0104 34.1065 32.291 33.8867 32.5059L32.4658 33.8936C32.2457 34.1082 31.9582 34.2451 31.6494 34.2822C31.3405 34.3193 31.0276 34.2539 30.7607 34.0977L28.2012 32.5986C27.6241 32.8985 27.0187 33.1441 26.3857 33.335L25.6611 36.1602C25.5855 36.455 25.4114 36.7173 25.166 36.9043C24.9206 37.0912 24.6179 37.1924 24.3066 37.1924H22.2988C21.9878 37.1923 21.6857 37.091 21.4404 36.9043C21.195 36.7173 21.02 36.455 20.9443 36.1602L20.2197 33.335C19.5924 33.1457 18.9844 32.899 18.4043 32.5986L15.8457 34.0977C15.5789 34.2539 15.2658 34.3192 14.957 34.2822C14.6482 34.2452 14.3608 34.1082 14.1406 33.8936L12.7188 32.5059C12.4989 32.291 12.3593 32.0104 12.3213 31.709C12.2833 31.4074 12.3497 31.1014 12.5098 30.8408L14.0459 28.3428C13.7382 27.7764 13.4849 27.1828 13.291 26.5703L10.3965 25.8623C10.095 25.7885 9.82713 25.6189 9.63574 25.3799C9.44426 25.1406 9.34016 24.3545 9.33984 24.0508H17.7178ZM15.1738 21.2871C14.7396 21.9074 14.0573 22.0625 13.623 22.0625C13.1888 22.0624 12.5064 21.9073 12.0723 21.2871C11.638 21.9074 10.9557 22.0625 10.5215 22.0625C10.0872 22.0625 9.40487 21.9073 8.9707 21.2871C8.53647 21.9074 7.85415 22.0625 7.41992 22.0625C6.98569 22.0625 6.30333 21.9074 5.86914 21.2871C5.43491 21.9074 4.75259 22.0625 4.31836 22.0625C3.88413 22.0625 3.20179 21.9074 2.76758 21.2871V19.7363C3.20179 20.3566 3.88413 20.5117 4.31836 20.5117C4.75259 20.5117 5.43491 20.3567 5.86914 19.7363C6.30333 20.3566 6.98569 20.5117 7.41992 20.5117C7.85415 20.5117 8.53647 20.3567 8.9707 19.7363C9.40487 20.3566 10.0872 20.5117 10.5215 20.5117C10.9557 20.5117 11.638 20.3567 12.0723 19.7363C12.5064 20.3565 13.1888 20.5117 13.623 20.5117C14.0573 20.5117 14.7396 20.3567 15.1738 19.7363V21.2871ZM18.5254 22.0625H18.0283C17.9008 22.0625 17.7818 22.0236 17.6982 21.9551C17.6147 21.8865 17.5757 21.7916 17.5889 21.7002L19.3516 9.94727C19.3735 9.78076 19.5629 9.65625 19.7871 9.65625H20.416L18.5254 22.0625ZM22.8643 12.2686C22.8646 12.4479 23.0621 12.5946 23.3037 12.5947C23.5454 12.5947 23.7429 12.4479 23.7432 12.2686V9.65625H25.3086L27.1992 22.0625H23.7432V20.1035C23.7429 19.9241 23.5454 19.7773 23.3037 19.7773C23.0621 19.7774 22.8645 19.9242 22.8643 20.1035V22.0625H19.4082L21.2988 9.65625H22.8643V12.2686ZM26.8242 9.65625C27.0484 9.6563 27.2334 9.78079 27.2598 9.94727L29.0225 21.7002C29.0356 21.7948 28.9965 21.8865 28.9131 21.9551C28.8296 22.0236 28.7061 22.0625 28.583 22.0625H28.0859L26.1953 9.65625H26.8242ZM32.6943 20.4258C32.6944 20.5659 32.7823 20.6956 32.917 20.7373C33.0518 20.784 33.1972 20.7374 33.2803 20.6182L36.4453 16.1758H38.7236L41.8887 20.6182C41.9665 20.7375 42.1223 20.7788 42.252 20.7373C42.3816 20.6958 42.4755 20.566 42.4756 20.4258V16.1758H43.7832V21.7344C43.7832 21.9162 43.6376 22.0624 43.4561 22.0625H37.9043V19.7705C37.904 19.589 37.7585 19.4435 37.5771 19.4434C37.3957 19.4434 37.2503 19.5889 37.25 19.7705V22.0625H31.6982C31.5166 22.0625 31.3711 21.9162 31.3711 21.7344V16.1758H32.6943V20.4258ZM37.5781 11.5977C39.9183 11.5977 41.8232 13.5045 41.8232 15.8477V19.4062L39.2129 15.7432V13.8887C39.2128 12.9847 38.4809 12.252 37.5781 12.252C36.6755 12.2521 35.9444 12.9901 35.9443 13.8887V15.7432L33.334 19.4062V15.8477C33.334 13.5047 35.2381 11.5978 37.5781 11.5977ZM23.3037 16.5127C23.062 16.5128 22.8643 16.6594 22.8643 16.8389V18.7979C22.8643 18.9774 23.062 19.1239 23.3037 19.124C23.5455 19.124 23.7432 18.9774 23.7432 18.7979V16.8389C23.7431 16.6594 23.5455 16.5127 23.3037 16.5127ZM15.1738 18.1855C14.7396 18.8059 14.0573 18.9609 13.623 18.9609C13.1888 18.9609 12.5064 18.8057 12.0723 18.1855C11.638 18.8059 10.9557 18.9609 10.5215 18.9609C10.0872 18.9609 9.40487 18.8058 8.9707 18.1855C8.53647 18.8059 7.85415 18.9609 7.41992 18.9609C6.98569 18.9609 6.30333 18.8058 5.86914 18.1855C5.43491 18.8059 4.75259 18.9609 4.31836 18.9609C3.88413 18.9609 3.20179 18.8059 2.76758 18.1855V16.6348C3.20179 17.2551 3.88413 17.4101 4.31836 17.4102C4.75259 17.4102 5.43491 17.2551 5.86914 16.6348C6.30333 17.255 6.98569 17.4101 7.41992 17.4102C7.85415 17.4102 8.53647 17.2551 8.9707 16.6348C9.40487 17.255 10.0872 17.4101 10.5215 17.4102C10.9557 17.4102 11.638 17.2551 12.0723 16.6348C12.5064 17.255 13.1888 17.4101 13.623 17.4102C14.0573 17.4102 14.7396 17.2551 15.1738 16.6348V18.1855ZM37.5771 16.8301C37.3957 16.8301 37.2503 16.9756 37.25 17.1572V18.4668C37.25 18.6486 37.3955 18.7939 37.5771 18.7939C37.7587 18.7938 37.9043 18.6486 37.9043 18.4668V17.1572C37.904 16.9757 37.7585 16.8302 37.5771 16.8301ZM15.1738 11.207C13.8093 11.2072 12.6924 12.6029 12.6924 14.3086V16.2471C12.6305 16.2467 12.5687 16.1692 12.5068 16.0918L12.0723 15.5498L11.6387 16.0918C11.5767 16.1693 11.5142 16.1696 11.4521 16.2471V14.3086C11.4521 12.6027 10.3354 11.207 8.9707 11.207C7.60608 11.2071 6.48931 12.6028 6.48926 14.3086V16.2471C6.42732 16.2468 6.36565 16.1692 6.30371 16.0918L5.86914 15.5498L5.43457 16.0918C5.37258 16.1693 5.31101 16.1697 5.24902 16.2471V14.3086C5.24897 12.6027 4.13227 11.207 2.76758 11.207V9.65625H15.1738V11.207ZM23.3037 13.248C23.062 13.2481 22.8643 13.3947 22.8643 13.5742V15.5332C22.8644 15.7126 23.062 15.8593 23.3037 15.8594C23.5455 15.8594 23.743 15.7127 23.7432 15.5332V13.5742C23.7432 13.3947 23.5455 13.248 23.3037 13.248ZM42.8115 12.5391C43.3667 13.4118 43.7037 14.4302 43.7607 15.5264H42.4531C42.4012 14.716 42.1468 13.9576 41.7422 13.2979L42.8115 12.5391ZM37.5781 12.9062C38.1176 12.9062 38.5583 13.3476 38.5586 13.8877V15.5244H36.5977V13.8877C36.5979 13.3477 37.0387 12.9064 37.5781 12.9062ZM33.4033 13.29V13.2949C32.9986 13.9494 32.7443 14.7079 32.6924 15.5234H31.3848C31.4419 14.4274 31.7841 13.4039 32.334 12.5312L33.4033 13.29ZM37.2539 10.9707C35.8582 11.0642 34.6176 11.7393 33.7822 12.7627L32.7188 12.0049C33.7928 10.6489 35.4171 9.75496 37.2539 9.65625V10.9707ZM41.3799 12.7578H41.374L41.377 12.7549C41.3778 12.7559 41.379 12.7568 41.3799 12.7578ZM37.9082 9.65625C39.7398 9.75496 41.3644 10.6483 42.4385 11.999L41.377 12.7549C40.5416 11.7331 39.3026 11.0592 37.9082 10.9658V9.65625Z" fill="#6E412A"/>
<path d="M17.7178 24.0508C17.7178 25.497 18.3061 26.3934 19.3535 27.416C20.4009 28.4386 21.8215 29.0126 23.3027 29.0127C24.7839 29.0127 26.2045 28.4385 27.252 27.416C28.2994 26.3934 28.8887 25.497 28.8887 24.0508H37.2656C37.2656 24.3547 37.1622 25.1392 36.9707 25.3789C36.7792 25.6185 36.5109 25.7885 36.209 25.8623L33.3145 26.5703C33.119 27.1882 32.8677 27.7794 32.5605 28.3428L34.0967 30.8408C34.2568 31.1014 34.3231 31.4074 34.2852 31.709C34.2471 32.0104 34.1065 32.291 33.8867 32.5059L32.4658 33.8936C32.2457 34.1082 31.9582 34.2451 31.6494 34.2822C31.3405 34.3193 31.0276 34.2539 30.7607 34.0977L28.2012 32.5986C27.6241 32.8985 27.0187 33.1441 26.3857 33.335L25.6611 36.1602C25.5855 36.455 25.4114 36.7173 25.166 36.9043C24.9206 37.0912 24.6179 37.1924 24.3066 37.1924H22.2988C21.9878 37.1923 21.6857 37.091 21.4404 36.9043C21.195 36.7173 21.02 36.455 20.9443 36.1602L20.2197 33.335C19.5924 33.1457 18.9844 32.899 18.4043 32.5986L15.8457 34.0977C15.5789 34.2539 15.2658 34.3192 14.957 34.2822C14.6482 34.2452 14.3608 34.1082 14.1406 33.8936L12.7188 32.5059C12.4989 32.291 12.3593 32.0104 12.3213 31.709C12.2833 31.4074 12.3497 31.1014 12.5098 30.8408L14.0459 28.3428C13.7382 27.7764 13.4849 27.1828 13.291 26.5703L10.3965 25.8623C10.095 25.7885 9.82713 25.6189 9.63574 25.3799C9.44426 25.1406 9.34016 24.3545 9.33984 24.0508H17.7178ZM15.1738 21.2871C14.7396 21.9074 14.0573 22.0625 13.623 22.0625C13.1888 22.0624 12.5064 21.9073 12.0723 21.2871C11.638 21.9074 10.9557 22.0625 10.5215 22.0625C10.0872 22.0625 9.40487 21.9073 8.9707 21.2871C8.53647 21.9074 7.85415 22.0625 7.41992 22.0625C6.98569 22.0625 6.30333 21.9074 5.86914 21.2871C5.43491 21.9074 4.75259 22.0625 4.31836 22.0625C3.88413 22.0625 3.20179 21.9074 2.76758 21.2871V19.7363C3.20179 20.3566 3.88413 20.5117 4.31836 20.5117C4.75259 20.5117 5.43491 20.3567 5.86914 19.7363C6.30333 20.3566 6.98569 20.5117 7.41992 20.5117C7.85415 20.5117 8.53647 20.3567 8.9707 19.7363C9.40487 20.3566 10.0872 20.5117 10.5215 20.5117C10.9557 20.5117 11.638 20.3567 12.0723 19.7363C12.5064 20.3565 13.1888 20.5117 13.623 20.5117C14.0573 20.5117 14.7396 20.3567 15.1738 19.7363V21.2871ZM18.5254 22.0625H18.0283C17.9008 22.0625 17.7818 22.0236 17.6982 21.9551C17.6147 21.8865 17.5757 21.7916 17.5889 21.7002L19.3516 9.94727C19.3735 9.78076 19.5629 9.65625 19.7871 9.65625H20.416L18.5254 22.0625ZM22.8643 12.2686C22.8646 12.4479 23.0621 12.5946 23.3037 12.5947C23.5454 12.5947 23.7429 12.4479 23.7432 12.2686V9.65625H25.3086L27.1992 22.0625H23.7432V20.1035C23.7429 19.9241 23.5454 19.7773 23.3037 19.7773C23.0621 19.7774 22.8645 19.9242 22.8643 20.1035V22.0625H19.4082L21.2988 9.65625H22.8643V12.2686ZM26.8242 9.65625C27.0484 9.6563 27.2334 9.78079 27.2598 9.94727L29.0225 21.7002C29.0356 21.7948 28.9965 21.8865 28.9131 21.9551C28.8296 22.0236 28.7061 22.0625 28.583 22.0625H28.0859L26.1953 9.65625H26.8242ZM32.6943 20.4258C32.6944 20.5659 32.7823 20.6956 32.917 20.7373C33.0518 20.784 33.1972 20.7374 33.2803 20.6182L36.4453 16.1758H38.7236L41.8887 20.6182C41.9665 20.7375 42.1223 20.7788 42.252 20.7373C42.3816 20.6958 42.4755 20.566 42.4756 20.4258V16.1758H43.7832V21.7344C43.7832 21.9162 43.6376 22.0624 43.4561 22.0625H37.9043V19.7705C37.904 19.589 37.7585 19.4435 37.5771 19.4434C37.3957 19.4434 37.2503 19.5889 37.25 19.7705V22.0625H31.6982C31.5166 22.0625 31.3711 21.9162 31.3711 21.7344V16.1758H32.6943V20.4258ZM37.5781 11.5977C39.9183 11.5977 41.8232 13.5045 41.8232 15.8477V19.4062L39.2129 15.7432V13.8887C39.2128 12.9847 38.4809 12.252 37.5781 12.252C36.6755 12.2521 35.9444 12.9901 35.9443 13.8887V15.7432L33.334 19.4062V15.8477C33.334 13.5047 35.2381 11.5978 37.5781 11.5977ZM23.3037 16.5127C23.062 16.5128 22.8643 16.6594 22.8643 16.8389V18.7979C22.8643 18.9774 23.062 19.1239 23.3037 19.124C23.5455 19.124 23.7432 18.9774 23.7432 18.7979V16.8389C23.7431 16.6594 23.5455 16.5127 23.3037 16.5127ZM15.1738 18.1855C14.7396 18.8059 14.0573 18.9609 13.623 18.9609C13.1888 18.9609 12.5064 18.8057 12.0723 18.1855C11.638 18.8059 10.9557 18.9609 10.5215 18.9609C10.0872 18.9609 9.40487 18.8058 8.9707 18.1855C8.53647 18.8059 7.85415 18.9609 7.41992 18.9609C6.98569 18.9609 6.30333 18.8058 5.86914 18.1855C5.43491 18.8059 4.75259 18.9609 4.31836 18.9609C3.88413 18.9609 3.20179 18.8059 2.76758 18.1855V16.6348C3.20179 17.2551 3.88413 17.4101 4.31836 17.4102C4.75259 17.4102 5.43491 17.2551 5.86914 16.6348C6.30333 17.255 6.98569 17.4101 7.41992 17.4102C7.85415 17.4102 8.53647 17.2551 8.9707 16.6348C9.40487 17.255 10.0872 17.4101 10.5215 17.4102C10.9557 17.4102 11.638 17.2551 12.0723 16.6348C12.5064 17.255 13.1888 17.4101 13.623 17.4102C14.0573 17.4102 14.7396 17.2551 15.1738 16.6348V18.1855ZM37.5771 16.8301C37.3957 16.8301 37.2503 16.9756 37.25 17.1572V18.4668C37.25 18.6486 37.3955 18.7939 37.5771 18.7939C37.7587 18.7938 37.9043 18.6486 37.9043 18.4668V17.1572C37.904 16.9757 37.7585 16.8302 37.5771 16.8301ZM15.1738 11.207C13.8093 11.2072 12.6924 12.6029 12.6924 14.3086V16.2471C12.6305 16.2467 12.5687 16.1692 12.5068 16.0918L12.0723 15.5498L11.6387 16.0918C11.5767 16.1693 11.5142 16.1696 11.4521 16.2471V14.3086C11.4521 12.6027 10.3354 11.207 8.9707 11.207C7.60608 11.2071 6.48931 12.6028 6.48926 14.3086V16.2471C6.42732 16.2468 6.36565 16.1692 6.30371 16.0918L5.86914 15.5498L5.43457 16.0918C5.37258 16.1693 5.31101 16.1697 5.24902 16.2471V14.3086C5.24897 12.6027 4.13227 11.207 2.76758 11.207V9.65625H15.1738V11.207ZM23.3037 13.248C23.062 13.2481 22.8643 13.3947 22.8643 13.5742V15.5332C22.8644 15.7126 23.062 15.8593 23.3037 15.8594C23.5455 15.8594 23.743 15.7127 23.7432 15.5332V13.5742C23.7432 13.3947 23.5455 13.248 23.3037 13.248ZM42.8115 12.5391C43.3667 13.4118 43.7037 14.4302 43.7607 15.5264H42.4531C42.4012 14.716 42.1468 13.9576 41.7422 13.2979L42.8115 12.5391ZM37.5781 12.9062C38.1176 12.9062 38.5583 13.3476 38.5586 13.8877V15.5244H36.5977V13.8877C36.5979 13.3477 37.0387 12.9064 37.5781 12.9062ZM33.4033 13.29V13.2949C32.9986 13.9494 32.7443 14.7079 32.6924 15.5234H31.3848C31.4419 14.4274 31.7841 13.4039 32.334 12.5312L33.4033 13.29ZM37.2539 10.9707C35.8582 11.0642 34.6176 11.7393 33.7822 12.7627L32.7188 12.0049C33.7928 10.6489 35.4171 9.75496 37.2539 9.65625V10.9707ZM41.3799 12.7578H41.374L41.377 12.7549C41.3778 12.7559 41.379 12.7568 41.3799 12.7578ZM37.9082 9.65625C39.7398 9.75496 41.3644 10.6483 42.4385 11.999L41.377 12.7549C40.5416 11.7331 39.3026 11.0592 37.9082 10.9658V9.65625Z" fill="url(#paint0_linear_1103_15413)" fill-opacity="0.5" style="mix-blend-mode:screen"/>
<defs>
<linearGradient id="paint0_linear_1103_15413" x1="23.2754" y1="37.1924" x2="23.2754" y2="9.65625" gradientUnits="userSpaceOnUse">
<stop stop-color="#A55500"/>
<stop offset="1" stop-color="#A55500" stop-opacity="0"/>
</linearGradient>
</defs>
</svg>
