<svg width="56" height="56" viewBox="0 0 56 56" fill="none" xmlns="http://www.w3.org/2000/svg">
<g clip-path="url(#clip0_1103_15687)">
<path d="M41.5 7.30859V14.3086L41.7764 14.4473L55.5 21.3086V48.6904L42 55.4404L0.5 34.6904V17.8086L14.2236 10.9473L14.5 10.8086V7.30859L28 0.558594L41.5 7.30859ZM41.7764 17.4727L33.5859 21.5674L32.7031 22.0098L33.582 22.46L41.7715 26.6602L42 26.7773L42.2285 26.6602L50.418 22.46L51.2969 22.0098L50.4141 21.5674L42.2236 17.4727L42 17.3613L41.7764 17.4727ZM13.7764 13.9727L5.58594 18.0674L4.70312 18.5098L5.58203 18.96L13.7715 23.1602L14.5 23.5332V13.6113L13.7764 13.9727ZM27.7764 3.47266L19.5859 7.56738L18.7031 8.00977L19.582 8.45996L27.7715 12.6602L28 12.7773L28.2285 12.6602L36.418 8.45996L37.2969 8.00977L36.4141 7.56738L28.2236 3.47266L28 3.36133L27.7764 3.47266ZM42.5 29.8301L42.2285 29.6904L31.7285 24.2998L31 23.9268V47.1387L31.2764 47.2773L41.7764 52.5273L42.5 52.8887V29.8301ZM14.5 26.3291L14.2275 26.1895L3.72754 20.835L3 20.4639V33.1387L3.27637 33.2773L13.7764 38.5273L14.5 38.8887V26.3291ZM28.5 15.8301L28.2285 15.6904L17.7285 10.2998L17 9.92676V40.1387L17.2764 40.2773L27.7764 45.5273L28.5 45.8887V15.8301Z" fill="url(#paint0_linear_1103_15687)" stroke="url(#paint1_linear_1103_15687)"/>
</g>
<defs>
<linearGradient id="paint0_linear_1103_15687" x1="28" y1="0" x2="28" y2="56" gradientUnits="userSpaceOnUse">
<stop stop-color="white"/>
<stop offset="1" stop-color="white" stop-opacity="0.8"/>
</linearGradient>
<linearGradient id="paint1_linear_1103_15687" x1="28" y1="0" x2="28" y2="56" gradientUnits="userSpaceOnUse">
<stop stop-color="white"/>
<stop offset="1" stop-color="white" stop-opacity="0"/>
</linearGradient>
<clipPath id="clip0_1103_15687">
<rect width="56" height="56" fill="white"/>
</clipPath>
</defs>
</svg>
