<svg width="39" height="39" viewBox="0 0 39 39" fill="none" xmlns="http://www.w3.org/2000/svg">
<path d="M14.625 8.125H11.375C10.513 8.125 9.6864 8.46741 9.0769 9.0769C8.46741 9.6864 8.125 10.513 8.125 11.375V30.875C8.125 31.737 8.46741 32.5636 9.0769 33.1731C9.6864 33.7826 10.513 34.125 11.375 34.125H27.625C28.487 34.125 29.3136 33.7826 29.9231 33.1731C30.5326 32.5636 30.875 31.737 30.875 30.875V11.375C30.875 10.513 30.5326 9.6864 29.9231 9.0769C29.3136 8.46741 28.487 8.125 27.625 8.125H24.375" stroke="black" stroke-width="3.25" stroke-linecap="round" stroke-linejoin="round"/>
<path d="M14.625 22.75H14.6413M14.625 27.625H14.6413M19.5 26L21.125 27.625L26 22.75M14.625 8.125C14.625 7.26305 14.9674 6.4364 15.5769 5.8269C16.1864 5.21741 17.013 4.875 17.875 4.875H21.125C21.987 4.875 22.8136 5.21741 23.4231 5.8269C24.0326 6.4364 24.375 7.26305 24.375 8.125C24.375 8.98695 24.0326 9.8136 23.4231 10.4231C22.8136 11.0326 21.987 11.375 21.125 11.375H17.875C17.013 11.375 16.1864 11.0326 15.5769 10.4231C14.9674 9.8136 14.625 8.98695 14.625 8.125Z" stroke="#1A543D" stroke-width="3.25" stroke-linecap="round" stroke-linejoin="round"/>
</svg>
