<svg width="32" height="32" viewBox="0 0 32 32" fill="none" xmlns="http://www.w3.org/2000/svg">
<path d="M20.5999 10C20.5999 12.5405 18.5404 14.6 15.9999 14.6C13.4594 14.6 11.3999 12.5405 11.3999 10C11.3999 7.45951 13.4594 5.40002 15.9999 5.40002C18.5404 5.40002 20.5999 7.45951 20.5999 10Z" stroke="white" stroke-width="2"/>
<mask id="path-2-inside-1_9_25" fill="white">
<path d="M4 25.2C4 20.7817 7.58172 17.2 12 17.2H20C24.4183 17.2 28 20.7817 28 25.2V27.6H4V25.2Z"/>
</mask>
<path d="M2 25.2C2 19.6772 6.47715 15.2 12 15.2H20C25.5228 15.2 30 19.6772 30 25.2H26C26 21.8863 23.3137 19.2 20 19.2H12C8.68629 19.2 6 21.8863 6 25.2H2ZM28 27.6H4H28ZM2 27.6V25.2C2 19.6772 6.47715 15.2 12 15.2V19.2C8.68629 19.2 6 21.8863 6 25.2V27.6H2ZM20 15.2C25.5228 15.2 30 19.6772 30 25.2V27.6H26V25.2C26 21.8863 23.3137 19.2 20 19.2V15.2Z" fill="white" mask="url(#path-2-inside-1_9_25)"/>
</svg>
