<svg width="24" height="26" viewBox="0 0 24 26" fill="none" xmlns="http://www.w3.org/2000/svg">
<circle cx="11.8359" cy="4" r="2.47874" fill="white" stroke="white" stroke-width="1.04251"/>
<mask id="path-2-inside-1_2230_1981" fill="white">
<path d="M5.83594 12.17C5.83594 9.86699 7.70293 8 10.006 8H13.6659C15.9689 8 17.8359 9.86699 17.8359 12.17V13H5.83594V12.17Z"/>
</mask>
<path d="M5.83594 12.17C5.83594 9.86699 7.70293 8 10.006 8H13.6659C15.9689 8 17.8359 9.86699 17.8359 12.17V13H5.83594V12.17Z" fill="white"/>
<path d="M4.79343 12.17C4.79343 9.29123 7.12717 6.95749 10.006 6.95749H13.6659C16.5447 6.95749 18.8784 9.29123 18.8784 12.17H16.7934C16.7934 10.4428 15.3932 9.04251 13.6659 9.04251H10.006C8.27869 9.04251 6.87845 10.4428 6.87845 12.17H4.79343ZM18.8784 14.0436H4.79343L5.83594 12.17C5.83594 12.0988 5.83776 12.0276 5.84141 11.9565L10.006 11.9564H17.8306C17.8341 12.0276 17.8359 12.0988 17.8359 12.17L18.8784 14.0436ZM4.79343 14.0436V12.17C4.79343 9.29123 7.12717 6.95749 10.006 6.95749V9.04251C8.27869 9.04251 6.87845 10.4428 6.87845 12.17V11.9564L4.79343 14.0436ZM13.6659 6.95749C16.5447 6.95749 18.8784 9.29123 18.8784 12.17V14.0436L16.7934 11.9564V12.17C16.7934 10.4428 15.3932 9.04251 13.6659 9.04251V6.95749Z" fill="white" mask="url(#path-2-inside-1_2230_1981)"/>
<path d="M12 12.9531V15.4874M12 15.4874H5C4.44772 15.4874 4 15.9351 4 16.4874L4 17.9531M12 15.4874H19C19.5523 15.4874 20 15.9351 20 16.4874V17.9531" stroke="white" stroke-width="0.7"/>
<circle cx="3.71053" cy="21.6637" r="2.18927" fill="white" stroke="white" stroke-width="1.04251"/>
<circle cx="19.9722" cy="21.6637" r="2.18927" fill="white" stroke="white" stroke-width="1.04251"/>
</svg>
