<svg width="32" height="29" viewBox="0 0 32 29" fill="none" xmlns="http://www.w3.org/2000/svg">
<path d="M21.4049 6.13672C21.5663 6.13653 21.7237 6.18763 21.8543 6.28266C21.9848 6.37768 22.0818 6.51172 22.1313 6.66543L22.9696 9.2709C23.3195 9.44145 23.6569 9.63643 23.9794 9.85439L26.6563 9.27805C26.8141 9.24461 26.9784 9.26211 27.1257 9.32802C27.2729 9.39393 27.3954 9.50485 27.4756 9.64481L29.588 13.3006C29.6688 13.4403 29.7031 13.6021 29.686 13.7626C29.6688 13.9232 29.6012 14.0741 29.4928 14.1937L27.6566 16.2204C27.6833 16.6089 27.6833 16.9989 27.6566 17.3874L29.4904 19.4189C29.5992 19.5382 29.6673 19.689 29.6848 19.8495C29.7024 20.01 29.6685 20.172 29.588 20.312L27.4756 23.9701C27.395 24.1097 27.2724 24.2201 27.1252 24.2856C26.978 24.351 26.8138 24.3682 26.6563 24.3345L23.9794 23.7582C23.6587 23.9741 23.3221 24.1686 22.9696 24.3417L22.1313 26.9471C22.0818 27.1008 21.9848 27.2349 21.8543 27.3299C21.7237 27.4249 21.5663 27.476 21.4049 27.4758H17.1799C17.0184 27.476 16.8611 27.4249 16.7305 27.3299C16.6 27.2349 16.503 27.1008 16.4535 26.9471L15.6176 24.344C15.2661 24.1719 14.9271 23.9753 14.603 23.7558L11.9285 24.3345C11.7707 24.3679 11.6064 24.3505 11.4591 24.2845C11.3119 24.2186 11.1894 24.1077 11.1092 23.9677L8.99674 20.312C8.91599 20.1722 8.88171 20.0104 8.89883 19.8499C8.91595 19.6894 8.98359 19.5385 9.09201 19.4189L10.9282 17.3874C10.9017 17.0004 10.9017 16.6121 10.9282 16.2252L9.09439 14.1937C8.9856 14.0743 8.91752 13.9236 8.89997 13.763C8.88242 13.6025 8.91631 13.4406 8.99674 13.3006L11.1092 9.64243C11.1897 9.5029 11.3124 9.39247 11.4596 9.32701C11.6068 9.26154 11.7709 9.2444 11.9285 9.27805L14.603 9.85678C14.9272 9.63744 15.2662 9.44089 15.6176 9.26852L16.4559 6.66543C16.5051 6.51249 16.6014 6.37901 16.731 6.28406C16.8606 6.1891 17.0169 6.13754 17.1775 6.13672H21.4049ZM20.8476 7.66094H17.7372L16.8727 10.3521L16.2892 10.6379C16.0015 10.7791 15.7237 10.9398 15.458 11.119L14.9198 11.4834L12.1524 10.888L10.5972 13.5792L12.4953 15.6822L12.4477 16.3276C12.4258 16.6463 12.4258 16.9662 12.4477 17.285L12.4953 17.9304L10.5948 20.031L12.1476 22.7269L14.915 22.1315L15.4556 22.4935C15.7207 22.6718 15.9976 22.8318 16.2844 22.9722L16.8679 23.258L17.7372 25.9516H20.85L21.7216 23.2556L22.3027 22.9722C22.5897 22.8329 22.8667 22.6738 23.1315 22.4959L23.6698 22.1315L26.4396 22.7269L27.9924 20.031L26.0942 17.9304L26.1419 17.285C26.1639 16.9654 26.1639 16.6447 26.1419 16.3252L26.0942 15.6798L27.9948 13.5816L26.4372 10.8856L23.6674 11.481L23.1291 11.119C22.8644 10.9404 22.5874 10.7804 22.3004 10.6403L21.7216 10.3521L20.8476 7.66094ZM19.2924 12.2336C20.5051 12.2336 21.6682 12.7154 22.5258 13.5729C23.3833 14.4305 23.8651 15.5935 23.8651 16.8063C23.8651 18.019 23.3833 19.1821 22.5258 20.0396C21.6682 20.8972 20.5051 21.379 19.2924 21.379C18.0796 21.379 16.9166 20.8972 16.059 20.0396C15.2015 19.1821 14.7197 18.019 14.7197 16.8063C14.7197 15.5935 15.2015 14.4305 16.059 13.5729C16.9166 12.7154 18.0796 12.2336 19.2924 12.2336ZM19.2924 13.7578C18.4839 13.7578 17.7085 14.079 17.1368 14.6507C16.5651 15.2224 16.2439 15.9978 16.2439 16.8063C16.2439 17.6148 16.5651 18.3902 17.1368 18.9619C17.7085 19.5336 18.4839 19.8547 19.2924 19.8547C20.1009 19.8547 20.8763 19.5336 21.448 18.9619C22.0197 18.3902 22.3408 17.6148 22.3408 16.8063C22.3408 15.9978 22.0197 15.2224 21.448 14.6507C20.8763 14.079 20.1009 13.7578 19.2924 13.7578Z" fill="white"/>
<path opacity="0.8" fill-rule="evenodd" clip-rule="evenodd" d="M9.38374 2C9.49184 1.99994 9.59711 2.0337 9.68452 2.0957C9.77194 2.15775 9.83694 2.24537 9.87006 2.3457L10.4316 4.04688C10.6659 4.1582 10.8923 4.28547 11.1083 4.42773L12.9023 4.05176C13.0079 4.02995 13.1182 4.04107 13.2167 4.08398C13.3153 4.127 13.3974 4.1997 13.4511 4.29102L14.8671 6.67871C14.9212 6.76995 14.944 6.87572 14.9326 6.98047C14.921 7.08512 14.8762 7.18371 14.8037 7.26172L13.7578 8.38574L12.6123 8.13867L13.7998 6.8623L12.7558 5.10156L10.8994 5.49023L10.539 5.25391C10.3616 5.13722 10.1757 5.03288 9.98335 4.94141L9.59565 4.75293L9.00971 2.99512H6.92573L6.34663 4.75293L5.95502 4.93945C5.76226 5.03161 5.5764 5.13692 5.39838 5.25391L5.03803 5.49219L3.18354 5.10254L2.14057 6.86035L3.41303 8.2334L3.38081 8.65527C3.36613 8.86335 3.36614 9.07219 3.38081 9.28027L3.41303 9.70215L2.1396 11.0742L3.17963 12.834L5.03413 12.4453L5.39643 12.6816C5.57397 12.798 5.75993 12.9024 5.9521 12.9941L6.34272 13.1816L6.92573 14.9404H8.08588C8.11208 14.9732 8.13863 15.0059 8.16694 15.0371L8.16596 15.0381L8.97651 15.9355H6.55268C6.44451 15.9357 6.33839 15.9028 6.25092 15.8408C6.16352 15.7788 6.09855 15.6911 6.06538 15.5908L5.50483 13.8906C5.26938 13.7782 5.0422 13.6492 4.82514 13.5059L3.03315 13.8838C2.92744 13.9056 2.81733 13.8946 2.7187 13.8516C2.62004 13.8085 2.53805 13.7359 2.48432 13.6445L1.06831 11.2568C1.01437 11.1657 0.991421 11.0597 1.00288 10.9551C1.01444 10.8504 1.06022 10.7518 1.13276 10.6738L2.36323 9.34766C2.34546 9.09495 2.34546 8.84059 2.36323 8.58789L1.13374 7.26172C1.06087 7.18381 1.01562 7.08526 1.00385 6.98047C0.992104 6.87574 1.01452 6.77009 1.06831 6.67871L2.48432 4.28906C2.53828 4.19813 2.6202 4.1257 2.7187 4.08301C2.81733 4.04026 2.92758 4.02978 3.03315 4.05176L4.82514 4.42969C5.04231 4.28649 5.26942 4.15746 5.50483 4.04492L6.06733 2.3457C6.10024 2.24602 6.16433 2.15867 6.25092 2.09668C6.33777 2.03467 6.44307 2.00053 6.55073 2H9.38374ZM7.96772 5.98145C8.78041 5.98145 9.56005 6.29642 10.1347 6.85645C10.5176 7.22961 10.7845 7.69247 10.9228 8.19336C10.5467 8.36843 10.233 8.65485 10.0253 9.01465L10.0058 9.0459C10.0069 9.01991 10.0107 8.99388 10.0107 8.96777C10.0107 8.43984 9.7951 7.93387 9.41206 7.56055C9.02895 7.1872 8.50952 6.97754 7.96772 6.97754C7.42596 6.97757 6.90647 7.18722 6.52338 7.56055C6.1404 7.93386 5.92478 8.43989 5.92475 8.96777C5.92475 9.49577 6.14028 10.0026 6.52338 10.376C6.90645 10.7492 7.42607 10.959 7.96772 10.959C8.37095 10.959 8.76119 10.8413 9.09272 10.6279L8.34174 11.9287C8.2182 11.9435 8.09349 11.9541 7.96772 11.9541C7.15506 11.9541 6.37536 11.6391 5.80073 11.0791C5.22629 10.5191 4.90327 9.75961 4.90327 8.96777C4.9033 8.17593 5.22625 7.41643 5.80073 6.85645C6.37536 6.29644 7.15506 5.98147 7.96772 5.98145Z" fill="white"/>
</svg>
