<svg width="28" height="28" viewBox="0 0 28 28" fill="none" xmlns="http://www.w3.org/2000/svg">
<path d="M7.71932 24.5C7.18187 24.5 6.73348 24.3203 6.37415 23.961C6.01482 23.6017 5.83476 23.1533 5.83398 22.6158V10.0508C5.83398 9.51417 6.01404 9.06617 6.37415 8.70683C6.73426 8.3475 7.18265 8.16744 7.71932 8.16667H9.91732V7.58333C9.91732 6.44933 10.3144 5.48528 11.1085 4.69117C11.9026 3.89706 12.8667 3.5 14.0007 3.5C15.1347 3.5 16.0987 3.89706 16.8928 4.69117C17.6869 5.48528 18.084 6.44933 18.084 7.58333V8.16667H20.2832C20.8198 8.16667 21.2678 8.34672 21.6272 8.70683C21.9865 9.06694 22.1665 9.51533 22.1673 10.052V22.6158C22.1673 23.1525 21.9873 23.6009 21.6272 23.961C21.267 24.3211 20.819 24.5008 20.2832 24.5H7.71932ZM7.71932 23.3333H20.2832C20.462 23.3333 20.6265 23.2587 20.7767 23.1093C20.9268 22.96 21.0014 22.7951 21.0007 22.6147V10.052C21.0007 9.87233 20.926 9.70744 20.7767 9.55733C20.6273 9.40722 20.4624 9.33256 20.282 9.33333H18.084V12.25C18.084 12.4164 18.0284 12.5553 17.9172 12.6665C17.8059 12.7777 17.6671 12.8333 17.5007 12.8333C17.3342 12.8333 17.1954 12.7777 17.0842 12.6665C16.9729 12.5553 16.9173 12.4164 16.9173 12.25V9.33333H11.084V12.25C11.084 12.4164 11.0284 12.5553 10.9172 12.6665C10.8059 12.7777 10.6671 12.8333 10.5007 12.8333C10.3342 12.8333 10.1954 12.7777 10.0842 12.6665C9.97293 12.5553 9.91732 12.4164 9.91732 12.25V9.33333H7.71932C7.53965 9.33333 7.37476 9.408 7.22465 9.55733C7.07454 9.70667 6.99987 9.87156 7.00065 10.052V22.6158C7.00065 22.7947 7.07532 22.9592 7.22465 23.1093C7.37398 23.2594 7.53848 23.3341 7.71815 23.3333M11.084 8.16667H16.9173V7.58333C16.9173 6.762 16.6365 6.07056 16.075 5.509C15.5134 4.94744 14.822 4.66667 14.0007 4.66667C13.1793 4.66667 12.4879 4.94744 11.9263 5.509C11.3648 6.07056 11.084 6.762 11.084 7.58333V8.16667Z" fill="white"/>
</svg>
