<svg width="24" height="26" viewBox="0 0 24 26" fill="none" xmlns="http://www.w3.org/2000/svg">
<path d="M12.0205 0.521484C13.3447 0.521484 14.4179 1.59473 14.418 2.91895C14.418 4.2432 13.3448 5.31641 12.0205 5.31641C10.6963 5.31636 9.62305 4.24317 9.62305 2.91895C9.62309 1.59476 10.6963 0.521529 12.0205 0.521484Z" fill="white" stroke="white" stroke-width="1.04251"/>
<mask id="path-2-inside-1_2230_1989" fill="white">
<path d="M7 11C7 8.79086 8.79086 7 11 7H13C15.2091 7 17 8.79086 17 11H7Z"/>
</mask>
<path d="M7 11C7 8.79086 8.79086 7 11 7H13C15.2091 7 17 8.79086 17 11H7Z" fill="white"/>
<path d="M5.95749 11C5.95749 8.2151 8.2151 5.95749 11 5.95749H13C15.7849 5.95749 18.0425 8.2151 18.0425 11H15.9575C15.9575 9.36662 14.6334 8.04251 13 8.04251H11C9.36662 8.04251 8.04251 9.36662 8.04251 11H5.95749ZM18.0425 12.0436H5.95749L7 11C7 10.6477 7.04655 10.2969 7.13845 9.95671L11 9.95645H16.8625C16.9534 10.2969 17 10.6477 17 11L18.0425 12.0436ZM5.95749 12.0436V11C5.95749 8.2151 8.2151 5.95749 11 5.95749V8.04251C9.36662 8.04251 8.04251 9.36662 8.04251 11V9.95645L5.95749 12.0436ZM13 5.95749C15.7849 5.95749 18.0425 8.2151 18.0425 11V12.0436L15.9575 9.95645V11C15.9575 9.36662 14.6334 8.04251 13 8.04251V5.95749Z" fill="white" mask="url(#path-2-inside-1_2230_1989)"/>
<path d="M12.044 11V11.0017M12.044 11.0017H6C5.44772 11.0017 5 11.4494 5 12.0017V12.5855M12.044 11.0017H18C18.5523 11.0017 19 11.4494 19 12.0017V12.5855" stroke="white" stroke-width="0.7"/>
<path d="M5.5 17.1288V18.5859M5.5 18.5859H3C2.44772 18.5859 2 19.0337 2 19.5859V20.086M5.5 18.5859H8C8.55228 18.5859 9 19.0337 9 19.5859V20.086" stroke="white" stroke-width="0.7"/>
<path d="M18.543 17.1288V18.5859M18.543 18.5859H16C15.4477 18.5859 15 19.0337 15 19.5859V20.086M18.543 18.5859H21C21.5523 18.5859 22 19.0337 22 19.5859V20.086" stroke="white" stroke-width="0.7"/>
<circle cx="5.5" cy="15.5859" r="1.5" fill="white" stroke="white"/>
<circle cx="9" cy="23" r="1.5" fill="white" stroke="white"/>
<circle cx="15" cy="23" r="1.5" fill="white" stroke="white"/>
<circle cx="2" cy="23" r="1.5" fill="white" stroke="white"/>
<circle cx="22" cy="23" r="1.5" fill="white" stroke="white"/>
<circle cx="18.5" cy="15.5859" r="1.5" fill="white" stroke="white"/>
</svg>
