<svg width="32" height="32" viewBox="0 0 32 32" fill="none" xmlns="http://www.w3.org/2000/svg">
<path d="M26.667 21.3346V5.33464H10.667V21.3346M29.3337 21.3346C29.3337 22.8013 28.1337 24.0013 26.667 24.0013H10.667C9.20033 24.0013 8.00033 22.8013 8.00033 21.3346V5.33464C8.00033 3.86797 9.20033 2.66797 10.667 2.66797H26.667C28.1337 2.66797 29.3337 3.86797 29.3337 5.33464M21.3337 26.668V29.3346H5.33366C3.86699 29.3346 2.66699 28.1346 2.66699 26.668V9.33464H5.33366V26.668" fill="black"/>
<rect x="13" y="12.8516" width="3" height="6" fill="#249473"/>
<rect x="17" y="8.85156" width="3" height="10" fill="#249473"/>
<rect x="21" y="10.8516" width="3" height="8" fill="#249473"/>
</svg>
