<svg width="56" height="34" viewBox="0 0 56 34" fill="none" xmlns="http://www.w3.org/2000/svg">
<path d="M41.0838 10.9453H49.8389L54.1202 26.2448H1.31836L5.59959 10.9453H11.8859" stroke="white" stroke-width="2" stroke-miterlimit="10"/>
<path d="M2.58398 21.7578H5.58084C6.68683 21.7578 7.70005 20.9658 8.18526 19.7058L14.5928 3.22732C15.5846 0.689402 18.2961 0.221411 19.7874 2.33635L32.0246 19.6968C33.1448 21.2898 34.7574 22.1987 36.4414 22.1987H41.0865" stroke="white" stroke-width="2" stroke-miterlimit="10"/>
<path d="M27.334 13.0279L33.6274 6.55714C34.9332 5.21618 36.8383 5.33317 38.0299 6.83613L42.8392 12.9019C43.4457 13.6669 44.2591 14.0899 45.1154 14.0899H50.5168" stroke="white" stroke-width="2" stroke-miterlimit="10"/>
<path d="M52.2364 26.25L54.1202 32.9998H1.31836L3.20923 26.25" stroke="white" stroke-width="2" stroke-miterlimit="10"/>
<path d="M19.7007 2.15234C18.9372 2.31434 18.3093 3.02532 17.9097 3.85329C17.5101 4.68127 17.3103 5.64424 17.1106 6.58021C16.3399 10.1891 15.5051 13.798 14.185 17.1369C12.865 20.4848 10.6102 24.1297 8.16992 26.2356" stroke="white" stroke-width="2" stroke-miterlimit="10"/>
<path d="M22.0955 5.63281C21.1037 5.9478 20.3759 7.07277 20.0191 8.27873C19.6623 9.4847 19.6195 10.8076 19.5482 12.0946C19.2842 16.7115 18.6277 21.2833 17.5859 25.7202" stroke="white" stroke-width="2" stroke-miterlimit="10"/>
<path d="M24.6638 9.30469C24.0502 10.4567 24.0502 11.9416 24.0716 13.3276C24.093 15.4695 24.093 17.6114 24.0716 19.7534C24.0502 21.9133 23.986 24.1722 23.1797 26.0802" stroke="white" stroke-width="2" stroke-miterlimit="10"/>
<path d="M10.0195 14.9277C11.518 14.1898 13.1876 13.4428 14.6932 14.1538C15.1499 14.3698 15.5637 14.7118 15.949 15.0808C17.5402 16.6107 18.796 18.7346 20.6298 19.7426C21.8857 20.4356 23.2842 20.5256 24.6542 20.5886C27.2586 20.7146 30.1484 20.5076 32.7529 20.5886" stroke="white" stroke-width="2" stroke-miterlimit="10"/>
<path d="M13.5527 6.62144C15.358 6.18946 17.2703 5.77547 18.9899 6.59445C19.7391 6.95443 20.4098 7.53042 21.0734 8.0884C22.2151 9.05137 23.4352 10.0053 24.7981 10.1493" stroke="white" stroke-width="2" stroke-miterlimit="10"/>
<path d="M42.2031 22.1953H44.3794" stroke="white" stroke-width="2" stroke-miterlimit="10"/>
</svg>
