<svg width="68" height="68" viewBox="0 0 68 68" fill="none" xmlns="http://www.w3.org/2000/svg">
<path d="M33.6667 65.3334C37.826 65.3387 41.9454 64.5221 45.7881 62.9304C49.6308 61.3386 53.121 59.0031 56.0582 56.0582C59.0031 53.121 61.3386 49.6308 62.9304 45.7881C64.5221 41.9454 65.3387 37.826 65.3334 33.6667C65.3387 29.5074 64.522 25.388 62.9302 21.5454C61.3385 17.7027 59.0031 14.2124 56.0582 11.2752C53.121 8.33024 49.6308 5.99477 45.7881 4.40303C41.9454 2.81128 37.826 1.99464 33.6667 2.00003C29.5074 1.99472 25.388 2.81141 21.5454 4.40315C17.7027 5.99489 14.2124 8.33031 11.2752 11.2752C8.33031 14.2124 5.99489 17.7027 4.40315 21.5454C2.81141 25.388 1.99472 29.5074 2.00003 33.6667C1.99464 37.826 2.81128 41.9454 4.40303 45.7881C5.99477 49.6308 8.33024 53.121 11.2752 56.0582C14.2124 59.0031 17.7027 61.3385 21.5454 62.9302C25.388 64.522 29.5074 65.3387 33.6667 65.3334Z" stroke="black" stroke-width="4" stroke-linejoin="round"/>
<path d="M21 33.6641L30.5 43.1641L49.5 24.1641" stroke="black" stroke-width="4" stroke-linecap="round" stroke-linejoin="round"/>
</svg>
