<svg width="37" height="37" viewBox="0 0 37 37" fill="none" xmlns="http://www.w3.org/2000/svg">
<g clip-path="url(#clip0_635_10711)">
<path fill-rule="evenodd" clip-rule="evenodd" d="M18.334 21.6693C19.0795 21.6693 19.8106 21.7082 20.5273 21.7859C20.9669 21.8326 21.37 22.0519 21.6478 22.3957C21.9257 22.7396 22.0556 23.1797 22.009 23.6193C21.9624 24.0589 21.743 24.4619 21.3992 24.7398C21.0554 25.0177 20.6152 25.1476 20.1756 25.1009C19.5745 25.0354 18.9607 25.0026 18.334 25.0026C14.9623 25.0026 11.929 25.9859 9.77398 27.3009C8.69565 27.9576 7.88232 28.6709 7.35732 29.3376C6.81732 30.0209 6.66732 30.5376 6.66732 30.8359C6.66732 31.0393 6.72898 31.2543 7.09232 31.5459C7.50732 31.8793 8.22898 32.2243 9.33232 32.5159C11.529 33.0993 14.6857 33.3359 18.334 33.3359L19.4307 33.3276C19.8727 33.3216 20.299 33.4915 20.6158 33.7998C20.9325 34.1082 21.1138 34.5297 21.1198 34.9718C21.1258 35.4138 20.9559 35.8401 20.6476 36.1569C20.3392 36.4737 19.9177 36.655 19.4757 36.6609L18.334 36.6693C14.619 36.6693 11.109 36.4359 8.47898 35.7393C7.17065 35.3926 5.93898 34.8959 5.00565 34.1459C4.01732 33.3526 3.33398 32.2443 3.33398 30.8359C3.33398 29.5243 3.93065 28.2976 4.74065 27.2709C5.56398 26.2293 6.70232 25.2709 8.03732 24.4543C10.709 22.8276 14.3423 21.6693 18.334 21.6693ZM18.334 3.33594C20.5441 3.33594 22.6637 4.21391 24.2265 5.77671C25.7893 7.33952 26.6673 9.45913 26.6673 11.6693C26.6673 13.8794 25.7893 15.999 24.2265 17.5618C22.6637 19.1246 20.5441 20.0026 18.334 20.0026C16.1238 20.0026 14.0042 19.1246 12.4414 17.5618C10.8786 15.999 10.0007 13.8794 10.0007 11.6693C10.0007 9.45913 10.8786 7.33952 12.4414 5.77671C14.0042 4.21391 16.1238 3.33594 18.334 3.33594ZM18.334 6.66927C17.6774 6.66927 17.0272 6.7986 16.4206 7.04987C15.8139 7.30115 15.2627 7.66944 14.7984 8.13374C14.3342 8.59803 13.9659 9.14923 13.7146 9.75585C13.4633 10.3625 13.334 11.0127 13.334 11.6693C13.334 12.3259 13.4633 12.9761 13.7146 13.5827C13.9659 14.1893 14.3342 14.7405 14.7984 15.2048C15.2627 15.6691 15.8139 16.0374 16.4206 16.2887C17.0272 16.5399 17.6774 16.6693 18.334 16.6693C19.6601 16.6693 20.9318 16.1425 21.8695 15.2048C22.8072 14.2671 23.334 12.9954 23.334 11.6693C23.334 10.3432 22.8072 9.07142 21.8695 8.13374C20.9318 7.19606 19.6601 6.66927 18.334 6.66927Z" fill="black"/>
<path d="M26.1631 23.5557C26.5189 23.3216 26.9508 23.2323 27.3701 23.3066C27.7897 23.3811 28.1654 23.6136 28.4189 23.9561L28.5254 24.1191L29.084 25.0859C29.5722 24.996 30.0676 24.9811 30.5508 25.0361L30.9121 25.0879L31.4717 24.1191C31.6848 23.7519 32.0306 23.4797 32.4375 23.3584C32.8443 23.2372 33.2818 23.2764 33.6611 23.4668C34.0405 23.6573 34.3338 23.985 34.4795 24.3838C34.6251 24.7826 34.6127 25.223 34.4453 25.6133L34.3584 25.7861L33.8008 26.7529C34.1336 27.1433 34.4043 27.5829 34.6035 28.0557L34.7139 28.3379H35.832C36.2568 28.3384 36.6657 28.5014 36.9746 28.793C37.2832 29.0845 37.4693 29.4834 37.4941 29.9072C37.5189 30.3311 37.3809 30.7486 37.1084 31.0742C36.8358 31.3998 36.449 31.6089 36.0273 31.6592L35.832 31.6709H34.7139C34.5507 32.1332 34.3202 32.5696 34.0303 32.9648L33.8008 33.2549L34.3584 34.2227C34.5727 34.5909 34.6385 35.0276 34.541 35.4424C34.4435 35.857 34.1907 36.2188 33.835 36.4531C33.4791 36.6874 33.0465 36.7766 32.627 36.7021C32.2075 36.6277 31.8327 36.3951 31.5791 36.0527L31.4717 35.8896L30.9141 34.9229C30.4258 35.0128 29.9305 35.0276 29.4473 34.9727L29.085 34.9199L28.5254 35.8896C28.3123 36.2569 27.9664 36.5291 27.5596 36.6504C27.1528 36.7716 26.7152 36.7325 26.3359 36.542C25.9566 36.3515 25.6643 36.0237 25.5186 35.625C25.373 35.2263 25.3846 34.7866 25.5518 34.3965L25.6387 34.2227L26.1973 33.2549C25.8645 32.8653 25.5931 32.426 25.3936 31.9541L25.2832 31.6709H24.165C23.7406 31.6704 23.3322 31.5081 23.0234 31.2168C22.7147 30.9253 22.5279 30.5264 22.5029 30.1025C22.478 29.6785 22.6161 29.2603 22.8887 28.9346C23.1613 28.6088 23.5489 28.3998 23.9707 28.3496L24.165 28.3379H25.2852C25.4483 27.8757 25.6789 27.4401 25.9688 27.0449L26.1973 26.7549L25.6387 25.7861C25.4244 25.4179 25.3596 24.9812 25.457 24.5664C25.5546 24.1517 25.8073 23.7899 26.1631 23.5557Z" fill="#1A543D"/>
<path d="M28.8221 28.8241C29.1347 28.5115 29.5586 28.3359 30.0007 28.3359C30.4427 28.3359 30.8666 28.5115 31.1792 28.8241C31.4917 29.1367 31.6673 29.5606 31.6673 30.0026C31.6673 30.4446 31.4917 30.8686 31.1792 31.1811C30.8666 31.4937 30.4427 31.6693 30.0007 31.6693C29.5586 31.6693 29.1347 31.4937 28.8221 31.1811C28.5096 30.8686 28.334 30.4446 28.334 30.0026C28.334 29.5606 28.5096 29.1367 28.8221 28.8241Z" fill="#F5F5F5"/>
</g>
<defs>
<clipPath id="clip0_635_10711">
<rect width="40" height="40" fill="white"/>
</clipPath>
</defs>
</svg>
