<svg width="88" height="88" viewBox="0 0 88 88" fill="none" xmlns="http://www.w3.org/2000/svg">
<path d="M78.8327 43.9974C78.8327 50.8868 76.7898 57.6215 72.9622 63.3498C69.1347 69.0781 63.6945 73.5427 57.3295 76.1792C50.9645 78.8157 43.9607 79.5055 37.2037 78.1614C30.4467 76.8174 24.24 73.4998 19.3685 68.6283C14.4969 63.7568 11.1794 57.5501 9.83534 50.793C8.49129 44.036 9.18111 37.0322 11.8176 30.6673C14.454 24.3023 18.9187 18.8621 24.647 15.0345C30.3753 11.207 37.11 9.16406 43.9994 9.16406C50.7791 9.16185 57.4121 11.1381 63.085 14.8506C68.7579 18.5631 73.2241 23.8504 75.936 30.0641M78.8327 20.1641L77.091 31.8057L65.9994 29.3307" stroke="black" stroke-width="3.5" stroke-linecap="round" stroke-linejoin="round"/>
<path d="M36.666 40.3333V34.8333C36.666 32.8884 37.4386 31.0232 38.8139 29.6479C40.1892 28.2726 42.0544 27.5 43.9993 27.5C45.9443 27.5 47.8095 28.2726 49.1848 29.6479C50.5601 31.0232 51.3327 32.8884 51.3327 34.8333V40.3333M41.2493 60.5H46.7493C51.0503 60.5 53.2027 60.5 54.6803 59.3633C55.0618 59.0706 55.4033 58.7292 55.696 58.3477C56.8327 56.8663 56.8327 54.7177 56.8327 50.4167C56.8327 46.1157 56.8327 43.9633 55.696 42.4857C55.4033 42.1042 55.0618 41.7627 54.6803 41.47C53.199 40.3333 51.0503 40.3333 46.7493 40.3333H41.2493C36.9483 40.3333 34.796 40.3333 33.3183 41.47C32.9369 41.7627 32.5954 42.1042 32.3027 42.4857C31.166 43.967 31.166 46.1157 31.166 50.4167C31.166 54.7177 31.166 56.87 32.3027 58.3477C32.5954 58.7292 32.9369 59.0706 33.3183 59.3633C34.7997 60.5 36.9483 60.5 41.2493 60.5Z" stroke="black" stroke-width="3.5" stroke-linejoin="round"/>
</svg>
