<svg width="21" height="15" viewBox="0 0 21 15" fill="none" xmlns="http://www.w3.org/2000/svg">
<path d="M17.9119 3.06285C16.9397 2.08846 15.7842 1.31617 14.5121 0.790495C13.24 0.264822 11.8764 -0.00382614 10.5 4.11666e-05H10.4625C4.69406 0.0197287 0 4.78129 0 10.606V12.75C0 13.1479 0.158035 13.5294 0.43934 13.8107C0.720644 14.092 1.10218 14.25 1.5 14.25H19.5C19.8978 14.25 20.2794 14.092 20.5607 13.8107C20.842 13.5294 21 13.1479 21 12.75V10.5C21.0039 9.11758 20.7328 7.74815 20.2027 6.47138C19.6725 5.19461 18.8938 4.03598 17.9119 3.06285ZM19.5 12.75H9.72281L14.8566 5.69067C14.9737 5.5298 15.0221 5.32899 14.9911 5.13243C14.9602 4.93587 14.8524 4.75965 14.6916 4.64254C14.5307 4.52543 14.3299 4.47702 14.1333 4.50797C13.9368 4.53891 13.7605 4.64667 13.6434 4.80754L7.8675 12.75H1.5V10.606C1.5 10.3172 1.51406 10.0322 1.54031 9.75004H3.75C3.94891 9.75004 4.13968 9.67102 4.28033 9.53037C4.42098 9.38972 4.5 9.19895 4.5 9.00004C4.5 8.80113 4.42098 8.61036 4.28033 8.46971C4.13968 8.32906 3.94891 8.25004 3.75 8.25004H1.80656C2.77406 4.60692 5.93156 1.85254 9.75 1.53192V3.75004C9.75 3.94895 9.82902 4.13972 9.96967 4.28037C10.1103 4.42102 10.3011 4.50004 10.5 4.50004C10.6989 4.50004 10.8897 4.42102 11.0303 4.28037C11.171 4.13972 11.25 3.94895 11.25 3.75004V1.53098C13.1106 1.68756 14.8767 2.41813 16.3042 3.62175C17.7316 4.82537 18.7501 6.44262 19.2188 8.25004H17.25C17.0511 8.25004 16.8603 8.32906 16.7197 8.46971C16.579 8.61036 16.5 8.80113 16.5 9.00004C16.5 9.19895 16.579 9.38972 16.7197 9.53037C16.8603 9.67102 17.0511 9.75004 17.25 9.75004H19.4691C19.4888 9.99848 19.5 10.2479 19.5 10.5V12.75Z" fill="black"/>
</svg>
