<svg width="21" height="21" viewBox="0 0 21 21" fill="none" xmlns="http://www.w3.org/2000/svg">
<path d="M19.5 0H10.5C10.1022 0 9.72064 0.158035 9.43934 0.43934C9.15804 0.720644 9 1.10218 9 1.5V9H1.5C1.10218 9 0.720644 9.15804 0.43934 9.43934C0.158035 9.72064 0 10.1022 0 10.5V21H21V1.5C21 1.10218 20.842 0.720644 20.5607 0.43934C20.2794 0.158035 19.8978 0 19.5 0ZM5.25 19.5V14.25H8.25V19.5H5.25ZM19.5 19.5H9.75V13.5C9.75 13.3011 9.67098 13.1103 9.53033 12.9697C9.38968 12.829 9.19891 12.75 9 12.75H4.5C4.30109 12.75 4.11032 12.829 3.96967 12.9697C3.82902 13.1103 3.75 13.3011 3.75 13.5V19.5H1.5V10.5H10.5V1.5H19.5V19.5Z" fill="black"/>
<path d="M12 4.5H13.5V6H12V4.5ZM16.5 4.5H18V6H16.5V4.5ZM12 9H13.5V10.5H12V9ZM16.5 9H18V10.5H16.5V9ZM12 13.5H13.5V15H12V13.5ZM16.5 13.5H18V15H16.5V13.5Z" fill="black"/>
</svg>
