<svg width="32" height="32" viewBox="0 0 32 32" fill="none" xmlns="http://www.w3.org/2000/svg">
<g clip-path="url(#clip0_1333_2223)">
<circle cx="15.5" cy="16.5" r="4.5" fill="#249473"/>
<path fill-rule="evenodd" clip-rule="evenodd" d="M18.6666 2.66813C19.7275 2.65858 20.7487 3.07085 21.5056 3.81425C22.2625 4.55764 22.6931 5.57126 22.7026 6.63213C22.7122 7.693 22.2999 8.71421 21.5565 9.4711C20.8131 10.228 19.7995 10.6586 18.7386 10.6681L18.448 11.5388C19.1355 11.9557 19.7323 12.5066 20.2027 13.1587C20.6732 13.8108 21.0078 14.5508 21.1866 15.3348H22.9453C23.2516 14.6329 23.7903 14.0579 24.4707 13.7065C25.1511 13.3551 25.9317 13.2487 26.6814 13.4051C27.431 13.5616 28.1039 13.9714 28.587 14.5656C29.07 15.1599 29.3337 15.9023 29.3337 16.6681C29.3337 17.4339 29.07 18.1764 28.587 18.7706C28.1039 19.3649 27.431 19.7747 26.6814 19.9312C25.9317 20.0876 25.1511 19.9812 24.4707 19.6298C23.7903 19.2783 23.2516 18.7033 22.9453 18.0015H21.1853C20.9633 18.974 20.5023 19.8759 19.844 20.6255L20.7826 21.5641C21.4955 21.2844 22.283 21.2586 23.0126 21.4912C23.7423 21.7238 24.3696 22.2006 24.7891 22.8413C25.2086 23.482 25.3946 24.2476 25.316 25.0094C25.2373 25.7712 24.8988 26.4826 24.3573 27.0241C23.8158 27.5656 23.1043 27.9042 22.3425 27.9828C21.5808 28.0615 20.8152 27.8754 20.1744 27.4559C19.5337 27.0364 19.057 26.4091 18.8244 25.6795C18.5918 24.9498 18.6175 24.1624 18.8973 23.4495L17.652 22.2041C16.9175 22.5111 16.1293 22.6688 15.3333 22.6681C14.4171 22.6681 13.5131 22.4583 12.6906 22.0548L11.5293 23.4495C11.9737 24.2817 12.1097 25.2443 11.9131 26.167C11.7165 27.0898 11.2001 27.9134 10.4551 28.4923C9.71008 29.0712 8.78442 29.3681 7.84169 29.3305C6.89896 29.293 5.99985 28.9234 5.30323 28.2871C4.60661 27.6508 4.15732 26.7888 4.03477 25.8533C3.91221 24.9178 4.12427 23.9691 4.63347 23.1748C5.14268 22.3806 5.91625 21.7919 6.81749 21.5127C7.71874 21.2336 8.68964 21.282 9.55863 21.6495L10.6173 20.3775C9.78366 19.321 9.33122 18.0139 9.3333 16.6681C9.3333 15.6881 9.56796 14.7641 9.98396 13.9468L8.82663 12.9815C8.1419 13.3246 7.3599 13.4214 6.61215 13.2557C5.86441 13.09 5.19653 12.6719 4.72086 12.0716C4.24518 11.4714 3.99071 10.7256 4.00026 9.95978C4.00981 9.19395 4.28278 8.45478 4.77328 7.86657C5.26378 7.27835 5.94187 6.87699 6.69351 6.72998C7.44515 6.58297 8.22449 6.69929 8.90046 7.05936C9.57642 7.41943 10.1078 8.00129 10.4051 8.70709C10.7025 9.41289 10.7478 10.1996 10.5333 10.9348L11.6933 11.9001C12.8978 10.9771 14.4085 10.5471 15.9186 10.6975L16.2093 9.82546C15.5513 9.31363 15.0696 8.60899 14.8316 7.81003C14.5936 7.01106 14.6112 6.15771 14.8819 5.36923C15.1526 4.58075 15.6629 3.89656 16.3415 3.41228C17.0201 2.92799 17.833 2.66782 18.6666 2.66813ZM7.99996 24.0015C7.64634 24.0015 7.3072 24.1419 7.05715 24.392C6.8071 24.642 6.66663 24.9812 6.66663 25.3348C6.66663 25.6884 6.8071 26.0276 7.05715 26.2776C7.3072 26.5277 7.64634 26.6681 7.99996 26.6681C8.35358 26.6681 8.69272 26.5277 8.94277 26.2776C9.19282 26.0276 9.3333 25.6884 9.3333 25.3348C9.3333 24.9812 9.19282 24.642 8.94277 24.392C8.69272 24.1419 8.35358 24.0015 7.99996 24.0015ZM22 24.0015C21.8232 24.0015 21.6536 24.0717 21.5286 24.1967C21.4035 24.3218 21.3333 24.4913 21.3333 24.6681C21.3333 24.8449 21.4035 25.0145 21.5286 25.1395C21.6536 25.2646 21.8232 25.3348 22 25.3348C22.1768 25.3348 22.3463 25.2646 22.4714 25.1395C22.5964 25.0145 22.6666 24.8449 22.6666 24.6681C22.6666 24.4913 22.5964 24.3218 22.4714 24.1967C22.3463 24.0717 22.1768 24.0015 22 24.0015ZM15.3333 13.3348C14.4492 13.3348 13.6014 13.686 12.9763 14.3111C12.3512 14.9362 12 15.7841 12 16.6681C12 17.5522 12.3512 18.4 12.9763 19.0252C13.6014 19.6503 14.4492 20.0015 15.3333 20.0015C16.2174 20.0015 17.0652 19.6503 17.6903 19.0252C18.3154 18.4 18.6666 17.5522 18.6666 16.6681C18.6666 15.7841 18.3154 14.9362 17.6903 14.3111C17.0652 13.686 16.2174 13.3348 15.3333 13.3348ZM26 16.0015C25.8232 16.0015 25.6536 16.0717 25.5286 16.1967C25.4035 16.3218 25.3333 16.4913 25.3333 16.6681C25.3333 16.8449 25.4035 17.0145 25.5286 17.1395C25.6536 17.2646 25.8232 17.3348 26 17.3348C26.1768 17.3348 26.3463 17.2646 26.4714 17.1395C26.5964 17.0145 26.6666 16.8449 26.6666 16.6681C26.6666 16.4913 26.5964 16.3218 26.4714 16.1967C26.3463 16.0717 26.1768 16.0015 26 16.0015ZM7.3333 9.3348C7.15648 9.3348 6.98692 9.40504 6.86189 9.53006C6.73687 9.65508 6.66663 9.82465 6.66663 10.0015C6.66663 10.1783 6.73687 10.3478 6.86189 10.4729C6.98692 10.5979 7.15648 10.6681 7.3333 10.6681C7.51011 10.6681 7.67968 10.5979 7.8047 10.4729C7.92972 10.3478 7.99996 10.1783 7.99996 10.0015C7.99996 9.82465 7.92972 9.65508 7.8047 9.53006C7.67968 9.40504 7.51011 9.3348 7.3333 9.3348ZM18.6666 5.3348C18.313 5.3348 17.9739 5.47527 17.7238 5.72532C17.4738 5.97537 17.3333 6.31451 17.3333 6.66813C17.3333 7.02175 17.4738 7.36089 17.7238 7.61094C17.9739 7.86099 18.313 8.00146 18.6666 8.00146C19.0203 8.00146 19.3594 7.86099 19.6094 7.61094C19.8595 7.36089 20 7.02175 20 6.66813C20 6.31451 19.8595 5.97537 19.6094 5.72532C19.3594 5.47527 19.0203 5.3348 18.6666 5.3348Z" fill="black"/>
</g>
<defs>
<clipPath id="clip0_1333_2223">
<rect width="32" height="32" fill="white"/>
</clipPath>
</defs>
</svg>
