<svg width="56" height="56" viewBox="0 0 56 56" fill="none" xmlns="http://www.w3.org/2000/svg">
<g clip-path="url(#clip0_1103_15684)">
<path d="M28.4512 55.4971C28.3012 55.4992 28.1506 55.5029 27.999 55.5029C20.3414 55.5029 13.6062 54.297 9.36133 52.1826L23.6123 49.8525L28.4512 55.4971ZM51.085 45.3613C51.2239 45.764 51.2988 46.1875 51.2988 46.6357C51.2987 48.7985 49.6385 50.715 46.5254 52.2344C43.4853 53.718 39.2002 54.7428 34.2285 55.209L28.7686 48.998L51.085 45.3613ZM20.1787 45.5449L4.94531 48.0361C4.78492 47.5874 4.70085 47.1141 4.69922 46.6357C4.69922 45.2564 5.37032 44.0754 6.66895 43.0615C7.94277 42.067 9.79661 41.2568 12.1172 40.627L20.1787 45.5449ZM39.6904 39.75C42.1406 40.1264 44.2946 40.6461 46.0635 41.3145L38.1729 42.6045L39.6904 39.75Z" fill="url(#paint0_linear_1103_15684)" stroke="url(#paint1_linear_1103_15684)"/>
<path d="M28 0.5C36.7148 0.5 43.8884 7.51928 44.1104 16.1611L44.1152 16.5742C44.114 18.6311 43.7144 20.6686 42.9375 22.5732L42.9326 22.585L42.9287 22.5967C42.8013 22.9608 42.6591 23.3243 42.4863 23.6816L42.3027 24.0361L42.2969 24.0469L42.2939 24.0518L30.4277 44.248L30.4092 44.2734L30.4033 44.2812C29.7542 45.1607 29.1776 45.7935 28.3281 45.9473L28.1543 45.9717C27.6978 46.0173 27.2066 45.8682 26.7949 45.5957H26.7939C26.3722 45.3169 25.9963 44.9277 25.5879 44.3945V44.3936L25.5615 44.3604L14.8076 25.7676L14.7959 25.749L14.7842 25.7314L14.4512 25.2373C12.8308 22.7337 11.8829 19.7558 11.8828 16.5742C11.8828 7.74447 19.147 0.500137 28 0.5ZM28 9.04492C23.7657 9.04505 20.4473 12.3533 20.4473 16.5732C20.4473 20.7943 23.7652 24.1014 28 24.1016C32.2345 24.1016 35.5508 20.7948 35.5508 16.5732C35.5508 12.3528 32.2346 9.04492 28 9.04492Z" fill="url(#paint2_linear_1103_15684)" stroke="url(#paint3_linear_1103_15684)"/>
</g>
<defs>
<linearGradient id="paint0_linear_1103_15684" x1="27.9992" y1="39.2031" x2="27.9992" y2="56.0031" gradientUnits="userSpaceOnUse">
<stop stop-color="white"/>
<stop offset="1" stop-color="white" stop-opacity="0.8"/>
</linearGradient>
<linearGradient id="paint1_linear_1103_15684" x1="27.9992" y1="39.2031" x2="27.9992" y2="56.0031" gradientUnits="userSpaceOnUse">
<stop stop-color="white"/>
<stop offset="1" stop-color="white" stop-opacity="0"/>
</linearGradient>
<linearGradient id="paint2_linear_1103_15684" x1="27.9991" y1="0" x2="27.9991" y2="46.4795" gradientUnits="userSpaceOnUse">
<stop stop-color="white"/>
<stop offset="1" stop-color="white" stop-opacity="0.8"/>
</linearGradient>
<linearGradient id="paint3_linear_1103_15684" x1="27.9991" y1="0" x2="27.9991" y2="46.4795" gradientUnits="userSpaceOnUse">
<stop stop-color="white"/>
<stop offset="1" stop-color="white" stop-opacity="0"/>
</linearGradient>
<clipPath id="clip0_1103_15684">
<rect width="56" height="56" fill="white"/>
</clipPath>
</defs>
</svg>
