<svg width="32" height="32" viewBox="0 0 32 32" fill="none" xmlns="http://www.w3.org/2000/svg">
<path d="M0.8 4C0.587827 4 0.384344 4.08429 0.234315 4.23431C0.0842855 4.38434 0 4.58783 0 4.8L0 27.2C0 27.4122 0.0842855 27.6157 0.234315 27.7657C0.384344 27.9157 0.587827 28 0.8 28H31.2C31.4122 28 31.6157 27.9157 31.7657 27.7657C31.9157 27.6157 32 27.4122 32 27.2V4.8C32 4.58783 31.9157 4.38434 31.7657 4.23431C31.6157 4.08429 31.4122 4 31.2 4H0.8ZM1.6 5.6H16.1024L16.0918 7.42688L10.7542 16.2611L1.6 20.5094V5.6ZM17.063 5.6H30.4V11.7587L22.0858 14.4458L17.0525 7.40896L17.063 5.6ZM16.6051 8.43424L21.3363 15.048L19.4605 18.6019L16.2819 19.0486L11.7549 16.4618L16.6051 8.43424ZM30.4 12.7674V26.4H28.0858L20.3638 18.9482L22.2326 15.4067L30.4 12.7674ZM11.0669 17.1744L15.7306 19.8394L16.3094 26.4H1.6V21.5674L11.0669 17.1744ZM19.6064 19.5507L26.703 26.4H17.2736L16.704 19.9587L19.6064 19.5507Z" fill="black"/>
<path d="M19.6373 20.9928C19.213 20.9928 18.806 21.1614 18.506 21.4615C18.2059 21.7615 18.0373 22.1685 18.0373 22.5928C18.0373 23.0172 18.2059 23.4242 18.506 23.7242C18.806 24.0243 19.213 24.1928 19.6373 24.1928C20.0617 24.1928 20.4687 24.0243 20.7687 23.7242C21.0688 23.4242 21.2373 23.0172 21.2373 22.5928C21.2373 22.1685 21.0688 21.7615 20.7687 21.4615C20.4687 21.1614 20.0617 20.9928 19.6373 20.9928ZM17.0473 13.0117C16.6229 13.0117 16.216 13.1803 15.9159 13.4803C15.6158 13.7804 15.4473 14.1874 15.4473 14.6117C15.4473 15.0361 15.6158 15.443 15.9159 15.7431C16.216 16.0431 16.6229 16.2117 17.0473 16.2117C17.4716 16.2117 17.8786 16.0431 18.1786 15.7431C18.4787 15.443 18.6473 15.0361 18.6473 14.6117C18.6473 14.1874 18.4787 13.7804 18.1786 13.4803C17.8786 13.1803 17.4716 13.0117 17.0473 13.0117Z" fill="#249473"/>
<line x1="1" y1="5.38281" x2="31" y2="5.38282" stroke="black" stroke-width="2"/>
<line x1="1" y1="26.3828" x2="31" y2="26.3828" stroke="black" stroke-width="2"/>
<line x1="2" y1="26.3828" x2="2" y2="6.38281" stroke="black" stroke-width="2"/>
<line x1="30" y1="26.3828" x2="30" y2="6.38281" stroke="black" stroke-width="2"/>
<circle cx="10.5" cy="21.8828" r="2.5" fill="#249473"/>
<circle cx="6.5" cy="10.8828" r="2.5" fill="#249473"/>
<circle cx="7.5" cy="10.8828" r="3.5" fill="#249473"/>
<circle cx="23.5" cy="9.88281" r="2.5" fill="#249473"/>
<circle cx="25.5" cy="18.8828" r="2.5" fill="#249473"/>
</svg>
