<svg width="47" height="47" viewBox="0 0 47 47" fill="none" xmlns="http://www.w3.org/2000/svg">
<path d="M25.248 31.7309C25.248 30.1242 25.248 29.3227 25.6033 28.6261C25.9604 27.9313 26.6236 27.4378 27.9502 26.4525L28.8253 25.8014C30.8905 24.2666 31.923 23.5 33.1236 23.5C34.3242 23.5 35.3568 24.2666 37.422 25.8014L38.297 26.4525C39.6236 27.4378 40.2869 27.9313 40.6422 28.6261C40.9975 29.3209 40.9992 30.1242 40.9992 31.7309V34.3123C40.9992 37.466 40.9992 39.0429 39.9736 40.0212C38.9481 40.9996 37.2994 41.0013 33.9987 41.0013H25.248V31.7309Z" stroke="url(#paint0_linear_1961_20409)" stroke-width="3.57473" stroke-linecap="round" stroke-linejoin="round"/>
<path d="M33.9994 19.301V11.2504C33.9994 6.90657 33.0928 6 28.749 6H21.7484C17.4046 6 16.498 6.90657 16.498 11.2504V41.0026" stroke="url(#paint1_linear_1961_20409)" stroke-width="3.57473" stroke-linecap="round" stroke-linejoin="round"/>
<path d="M8.62324 30.5005C10.0731 30.5005 11.2484 28.9334 11.2484 27.0003C11.2484 25.0671 10.0731 23.5 8.62324 23.5C7.17339 23.5 5.99805 25.0671 5.99805 27.0003C5.99805 28.9334 7.17339 30.5005 8.62324 30.5005Z" stroke="url(#paint2_linear_1961_20409)" stroke-width="3.57473" stroke-linecap="round" stroke-linejoin="round"/>
<path d="M8.62324 34.0016V41.0021M5.99805 41.0021H37.5004M23.4994 13H26.9996M23.4994 18.2504H26.9996" stroke="url(#paint3_linear_1961_20409)" stroke-width="3.57473" stroke-linecap="round" stroke-linejoin="round"/>
<path d="M33.123 37.5003V34" stroke="url(#paint4_linear_1961_20409)" stroke-width="3.57473" stroke-linecap="round" stroke-linejoin="round"/>
<defs>
<linearGradient id="paint0_linear_1961_20409" x1="33.1236" y1="23.5" x2="33.1236" y2="41.0013" gradientUnits="userSpaceOnUse">
<stop stop-color="#975C2B"/>
<stop offset="1" stop-color="#89532A"/>
</linearGradient>
<linearGradient id="paint1_linear_1961_20409" x1="25.2487" y1="6" x2="25.2487" y2="41.0026" gradientUnits="userSpaceOnUse">
<stop stop-color="#975C2B"/>
<stop offset="1" stop-color="#8D552A"/>
</linearGradient>
<linearGradient id="paint2_linear_1961_20409" x1="8.62324" y1="23.5" x2="8.62324" y2="30.5005" gradientUnits="userSpaceOnUse">
<stop stop-color="#975C2B"/>
<stop offset="1" stop-color="#89532A"/>
</linearGradient>
<linearGradient id="paint3_linear_1961_20409" x1="21.7492" y1="13" x2="21.7492" y2="41.0021" gradientUnits="userSpaceOnUse">
<stop stop-color="#975C2B"/>
<stop offset="1" stop-color="#8D552A"/>
</linearGradient>
<linearGradient id="paint4_linear_1961_20409" x1="33.623" y1="34" x2="33.623" y2="37.5003" gradientUnits="userSpaceOnUse">
<stop stop-color="#975C2B"/>
<stop offset="1" stop-color="#89532A"/>
</linearGradient>
</defs>
</svg>
