<svg width="38" height="64" viewBox="0 0 38 64" fill="none" xmlns="http://www.w3.org/2000/svg">
<defs>
<linearGradient id="paint0_linear_984_16755" x1="37.998" y1="31.7742" x2="9.17194" y2="31.7742" gradientUnits="userSpaceOnUse">
<stop stop-color="#E39300"/>
<stop offset="1" stop-color="#E39300" stop-opacity="0"/>
</linearGradient>
<linearGradient id="paint1_linear_984_16755" x1="28.8262" y1="31.7742" x2="6.9183e-05" y2="31.7742" gradientUnits="userSpaceOnUse">
<stop stop-color="#E39300"/>
<stop offset="1" stop-color="#E39300" stop-opacity="0"/>
</linearGradient>
</defs>

<g opacity="0.4">
<!-- 오른쪽 화살표 (고정) -->
<path opacity="0.34" d="M37.3885 31.1023C37.7343 31.4835 37.7343 32.0649 37.3885 32.4461L10.9126 61.6298C10.2981 62.3071 9.17194 61.8724 9.17194 60.9579L9.17195 2.59056C9.17195 1.67602 10.2981 1.24132 10.9126 1.91865L37.3885 31.1023Z" fill="url(#paint0_linear_984_16755)"/>

<!-- 왼쪽 화살표 (애니메이션) -->
<path d="M28.2166 31.1023C28.5624 31.4835 28.5624 32.0649 28.2166 32.4461L1.7407 61.6298C1.12621 62.3071 6.78674e-05 61.8724 6.79073e-05 60.9579L7.04587e-05 2.59056C7.04986e-05 1.67602 1.12621 1.24132 1.7407 1.91865L28.2166 31.1023Z" fill="url(#paint1_linear_984_16755)">
<!--animateTransform
  attributeName="transform"
  type="translate"
  values="0,0; 9.2,0; 0,0"
  dur="1.5s"
  repeatCount="indefinite"/ -->
</path>
</g>
</svg>