<svg width="84" height="210" viewBox="0 0 84 210" fill="none" xmlns="http://www.w3.org/2000/svg">
<path d="M83.2852 0.625C83.3754 0.90333 83.4345 1.35093 83.4658 1.86816C83.4989 2.41449 83.5 2.97363 83.5 3.36328V149.773L84 149.774H83.5C83.5 158.824 82.7479 168.974 78.3027 177.854C73.8716 186.704 65.7429 194.344 50.8701 198.329C35.8688 202.349 28.0276 204.519 23.2305 205.873C18.4269 207.229 16.6896 207.762 13.8711 208.517H13.8701C11.0232 209.279 8.80581 209.484 7.07324 209.086C5.37384 208.695 4.09459 207.713 3.125 205.975C2.14162 204.211 1.47967 201.671 1.06836 198.195C0.657923 194.726 0.501953 190.369 0.501953 185C0.501954 159.724 0.499894 99.3753 0.5 67.7891C0.500257 57.9104 3.78972 49.9081 9.49316 43.709C15.0258 37.6956 22.8538 33.3543 32.2197 30.6689L33.1309 30.4141L33.1445 30.4102C40.2356 28.2655 46.6077 26.5613 52.2529 25.0508C67.9303 20.8557 78.0583 12.075 82.2715 2.47754C82.54 1.8659 82.7692 1.41173 82.9639 1.08594C83.0946 0.867173 83.2025 0.720651 83.2852 0.625Z" fill="black" stroke="url(#paint0_linear_2186_17612)" stroke-linejoin="round"/>
<defs>
<linearGradient id="paint0_linear_2186_17612" x1="42.1818" y1="66.1882" x2="42.1818" y2="245.239" gradientUnits="userSpaceOnUse">
<stop stop-color="#886D35"/>
<stop offset="0.0884568" stop-color="#423625"/>
<stop offset="0.26169" stop-color="#F3DBA8"/>
<stop offset="0.837918" stop-color="#0E0B06"/>
<stop offset="1" stop-color="#574B30"/>
</linearGradient>
</defs>
</svg>
