<?xml version="1.0"?>
<svg width="64" height="64" xmlns="http://www.w3.org/2000/svg" xmlns:svg="http://www.w3.org/2000/svg" data-name="레이어_2">
 <defs>
  <style>.cls-1 {
        fill: #231815;
      }

      .cls-2 {
        fill: #ca2829;
      }

      .cls-3 {
        fill: #263b7c;
      }</style>
 </defs>
 <g class="layer">
  <title>Layer 1</title>
  <g data-name="레이어_1" id="_레이어_1-2">
   <g id="svg_1">
    <path class="cls-2" d="m31.59,31.61c-1.81,0.72 -2.76,0.04 -3.19,-0.47l-4.83,5.85c-4.09,4.9 -8.97,6.79 -12.69,5.16l19.3,-23.16s1.93,-2.63 4.12,-4.35l0,0c0.16,-0.12 0.21,-0.25 0.18,-0.47c-0.14,-0.58 -1.42,-0.97 -2.96,-0.95l0,0l-3.83,0.02s-1.42,-0.07 -2.35,0c-0.19,0.02 -2.67,0.12 -3.48,0.21c-0.86,0.07 -3.04,0.46 -3.66,0.63c-3.91,1.07 -7.67,2.98 -10.57,6.37c-3.83,4.46 -5.82,9.74 -5.6,14.85c0.16,3.77 1.52,7.09 3.83,9.34c2.18,2.11 4.9,3.21 7.86,3.21c0.76,0 1.54,-0.07 2.32,-0.21c3.85,-0.72 7.61,-3.18 10.9,-7.13l6.98,-8.44c-0.23,-0.32 -0.91,-1 -2.28,-0.46l0,0l-0.06,0zm-25.04,3.46c-0.16,-3.69 1.36,-7.62 4.32,-11.03c3.5,-4.04 6.34,-5.23 9.05,-5.41c1.26,-0.09 2.41,0.09 3.68,0.72l-16.17,19.45c-0.53,-1.07 -0.82,-2.35 -0.88,-3.72l0,0l0,-0.02z" id="svg_2"/>
    <path class="cls-3" d="m61.56,25.31c-0.31,-3.84 -1.98,-7.27 -4.59,-9.41c-6.23,-5.13 -13.46,-3.39 -19.87,4.74l-7.3,8.83l0,0l-0.6,0.74c0.14,0.21 0.66,0.75 2.04,0.19c1.69,-0.68 2.86,0.04 3.42,0.72l1.03,-1.25l4.75,-5.74l0.04,-0.05c4.88,-6.2 9.53,-7.57 13.83,-4.02c1.56,1.28 2.55,3.37 2.74,5.72c0.29,3.55 -1.11,7.58 -4.2,11.1c-4.34,4.92 -8.52,6.37 -12.72,4.86l6.27,-7.72l-3.35,-3.49l-9.36,11.53s-1.87,2.55 -4.03,4.27c-0.23,0.16 -0.33,0.28 -0.27,0.54c0.12,0.56 1.34,0.93 2.82,0.95l0.02,0l3.91,0s3.33,0.02 4.03,-0.04c0.14,-0.02 2.49,-0.23 2.96,-0.26c0.41,-0.04 2.43,-0.44 2.9,-0.56c3.97,-1.12 7.18,-2.93 10.18,-6.57c3.91,-4.71 5.84,-10.08 5.43,-15.12l0,0l-0.08,0.04z" id="svg_3"/>
   </g>
  </g>
 </g>
</svg>