<svg width="100" height="25" viewBox="0 0 100 25" fill="none" xmlns="http://www.w3.org/2000/svg">
<circle cx="39.9994" cy="12.308" r="1.53846" fill="white"/>
<path d="M13.8457 11.5394C13.4209 11.5394 13.0765 11.8838 13.0765 12.3086C13.0765 12.7334 13.4209 13.0778 13.8457 13.0778L13.8457 12.3086L13.8457 11.5394ZM39.9993 13.0778C40.4242 13.0778 40.7686 12.7334 40.7686 12.3086C40.7686 11.8838 40.4242 11.5394 39.9993 11.5394L39.9993 12.3086L39.9993 13.0778ZM13.8457 12.3086L13.8457 13.0778L39.9993 13.0778L39.9993 12.3086L39.9993 11.5394L13.8457 11.5394L13.8457 12.3086Z" fill="white"/>
<path d="M60 11.5394C59.5752 11.5394 59.2308 11.8838 59.2308 12.3086C59.2308 12.7334 59.5752 13.0778 60 13.0778V12.3086V11.5394ZM89.2308 13.0778C89.6556 13.0778 90 12.7334 90 12.3086C90 11.8838 89.6556 11.5394 89.2308 11.5394V12.3086V13.0778ZM60 12.3086V13.0778H89.2308V12.3086V11.5394H60V12.3086Z" fill="white"/>
<circle cx="92.3074" cy="12.3074" r="2.30769" stroke="white" stroke-width="1.53846"/>
<circle cx="59.9994" cy="12.308" r="1.53846" fill="white"/>
<path d="M50 5.11035C52.9737 5.11043 55.3846 7.5205 55.3848 10.4941C55.3848 13.468 50.2061 19.3408 50.2061 19.3408C50.2061 19.3408 44.6152 13.468 44.6152 10.4941C44.6154 7.52045 47.0263 5.11035 50 5.11035ZM49.999 7.50293C48.347 7.50293 47.0079 8.84212 47.0078 10.4941C47.0078 12.1463 48.3469 13.4854 49.999 13.4854C51.651 13.4852 52.9902 12.1462 52.9902 10.4941C52.9901 8.8422 51.651 7.50306 49.999 7.50293Z" fill="white"/>
<circle cx="10.7683" cy="12.3074" r="2.30769" stroke="white" stroke-width="1.53846"/>
</svg>
