<svg width="219" height="55" viewBox="0 0 219 55" fill="none" xmlns="http://www.w3.org/2000/svg">
<path d="M28.5082 52.378L13.969 29.9798V52.378H0V1.67188H13.969V23.0453L27.3679 1.67188H43.5636L27.3294 26.2275L45.0815 52.3703H28.5082V52.378Z" fill="#231815"/>
<path d="M94.2592 1.67188V52.3703H82.278L63.0465 24.856V52.3703H49.0312V1.67188H61.7367L80.2901 28.2693V1.67188H94.2592Z" fill="#231815"/>
<path d="M162.232 1.67188H176.386V52.3703H162.232V1.67188Z" fill="#231815"/>
<path d="M218.402 39.5878V52.378H186.203V1.67188H200.357V39.5801H218.402V39.5878Z" fill="#231815"/>
<path d="M139.096 2.35C135.813 1.07869 132.169 0.392951 128.347 0.392951C112.729 0.392951 101.465 11.6267 101.465 27.052C101.465 36.3672 105.649 44.1338 112.367 48.8107L116.659 42.9627L120.396 37.8697C117.468 35.512 115.773 31.7135 115.773 27.052C115.773 18.9541 120.881 13.4605 128.471 13.4605C131.468 13.4605 134.242 14.3851 136.407 15.9877L139.997 11.0643L144.374 5.07755H144.389L148.103 0L139.08 2.33459L139.096 2.35Z" fill="url(#paint0_linear_968_15468)"/>
<path d="M129.604 25.2811L123.148 34.0956H139.983C138.38 38.002 133.804 40.5831 128.472 40.5831C125.243 40.5831 122.508 39.6046 120.397 37.8787L116.66 42.9716V42.9871L112.384 48.812H112.369L108.547 54.0282L117.654 51.6705C120.913 52.9649 124.565 53.6584 128.472 53.6584C144.367 53.6584 155.185 41.8621 155.185 25.2734H129.604V25.2811Z" fill="#00832A"/>
<path d="M116.661 42.9688V42.9842L112.385 48.8091H112.369L116.661 42.9688Z" fill="#231815"/>
<defs>
<linearGradient id="paint0_linear_968_15468" x1="124.04" y1="40.1195" x2="125.104" y2="2.0264" gradientUnits="userSpaceOnUse">
<stop stop-color="#082B1E"/>
<stop offset="0.35" stop-color="#11402E"/>
<stop offset="0.72" stop-color="#18513A"/>
<stop offset="1" stop-color="#1B573F"/>
</linearGradient>
</defs>
</svg>
