<svg width="89" height="22" viewBox="0 0 89 22" fill="none" xmlns="http://www.w3.org/2000/svg">
<path d="M11.6111 21.3247L5.69187 12.2007V21.3247H0V0.674805H5.69187V9.3796L11.1492 0.674805H17.7436L11.1279 10.68L18.3547 21.3247H11.604H11.6111Z" fill="white"/>
<path d="M38.3952 0.674805V21.3247H33.6911L25.4908 10.1186V21.3247H19.9766V0.674805H24.9578L32.8881 11.5114V0.674805H38.4023H38.3952Z" fill="white"/>
<path d="M66.0781 0.674805H71.8411V21.3247H66.0781V0.674805Z" fill="white"/>
<path d="M88.9621 16.1161V21.3247H75.8516V0.674805H81.6145V16.1161H88.9621Z" fill="white"/>
<path d="M56.6557 0.952199C55.3198 0.433464 53.8346 0.156331 52.2784 0.156331C45.9186 0.156331 41.3281 4.73257 41.3281 11.0142C41.3281 14.8088 43.0336 17.971 45.7694 19.8754L47.5174 17.4949L49.0381 15.4199C47.8443 14.4606 47.155 12.9115 47.155 11.0142C47.155 7.71707 49.2371 5.47869 52.3281 5.47869C53.5504 5.47869 54.6802 5.85531 55.5614 6.50906L57.0252 4.50518L58.8088 2.06783H58.8159L60.3295 0L56.6557 0.952199Z" fill="url(#paint0_linear_490_7504)"/>
<path d="M52.7878 10.2891L50.1586 13.8776H57.0159C56.3621 15.4693 54.5004 16.521 52.3259 16.521C51.0113 16.521 49.8957 16.1231 49.0359 15.4196L47.5152 17.4945L45.7742 19.875H45.7671L44.2109 21.9997L47.9202 21.0404C49.2491 21.5662 50.7342 21.8505 52.3259 21.8505C58.7995 21.8505 63.2052 17.0468 63.2052 10.2891H52.7878Z" fill="white"/>
<defs>
<linearGradient id="paint0_linear_490_7504" x1="50.5232" y1="16.3366" x2="49.1763" y2="3.70586" gradientUnits="userSpaceOnUse">
<stop stop-color="white" stop-opacity="0.6"/>
<stop offset="0.458939" stop-color="white" stop-opacity="0.9"/>
</linearGradient>
</defs>
</svg>
