<svg width="236" height="32" viewBox="0 0 236 32" fill="none" xmlns="http://www.w3.org/2000/svg">
<g clip-path="url(#clip0_177_51)">
<path d="M60.8916 15.6378C60.8916 10.5515 62.2897 6.37056 64.6912 2.43652L67.0433 3.42415C64.905 7.14419 63.9345 11.4568 63.9345 15.6213C63.9345 19.7858 64.905 24.1149 67.0433 27.8514L64.6912 28.839C62.2897 24.8885 60.8916 20.7405 60.8916 15.6213V15.6378Z" fill="white"/>
<path d="M90.0708 18.074H81.0736V25.9585H77.7017V18.074H68.8525V15.391H90.0708V18.074ZM69.8559 11.4076C74.6423 10.815 77.1425 8.52698 77.4879 6.27191H70.7276V3.58887H88.1464V6.27191H81.4848C81.8138 8.51052 84.2975 10.815 89.051 11.4076L87.8503 14.0412C83.7382 13.4816 80.8598 11.7203 79.4617 9.31708C78.0636 11.7203 75.1851 13.4816 71.0731 14.0412L69.8559 11.4076Z" fill="white"/>
<path d="M91.8799 27.868C94.0182 24.1479 94.9886 19.8518 94.9886 15.6379C94.9886 11.424 94.0182 7.1608 91.8799 3.44075L94.1991 2.45312C96.617 6.38716 98.0315 10.5681 98.0315 15.6544C98.0315 20.7406 96.6334 24.9216 94.1991 28.8721L91.8799 27.8844V27.868Z" fill="white"/>
<path d="M109.414 4.26349H112.753V20.4605H101.354V4.26349H104.693V9.95878H109.414V4.26349ZM109.414 12.576H104.693V17.7775H109.414V12.576ZM122.441 13.9587H119.02V25.8924H115.648V2.41992H119.02V11.1604H122.441V13.9751V13.9587Z" fill="white"/>
<path d="M144.729 15.4075V18.0905H123.461V15.4075H132.409V13.6133H126.109V7.06208H138.807V5.44896H126.06V2.91406H142.13V9.44884H129.432V11.0784H142.557V13.6298H135.781V15.424H144.729V15.4075ZM129.497 23.3743H142.656V26.0574H126.126V19.2757H129.497V23.3908V23.3743Z" fill="white"/>
<path d="M158.563 4.18104C158.563 10.7817 155.783 15.2095 147.937 17.7773L146.638 15.1272C149.927 14.1067 152.049 12.7734 153.349 11.1932L147.148 11.6705L146.687 9.03686L154.648 8.75703C154.829 8.148 154.977 7.50604 155.026 6.84762H147.855V4.16458H158.563V4.18104ZM166.524 22.8142V25.4972H150.585V18.0736H153.957V22.8142H166.524ZM162.543 9.51421V2.40332H165.915V19.7526H162.543V12.2466H158.415V9.51421H162.543Z" fill="white"/>
<path d="M181.408 14.0573C178.941 13.2672 177.197 11.7034 176.21 9.74465C175.158 11.9339 173.332 13.6787 170.651 14.5182L168.924 11.8845C172.822 10.7158 174.45 7.83525 174.45 4.83946V3.1605H177.839V4.83946C177.839 7.62126 179.451 10.3537 183.119 11.473L181.408 14.0573ZM189.385 23.0117V25.6454H173.266V19.2094H185.405V17.909H173.233V15.3247H188.711V21.6291H176.572V23.0117H189.369H189.385ZM185.356 8.51012H181.079V5.82708H185.356V2.40332H188.728V14.3536H185.356V8.52658V8.51012Z" fill="white"/>
<path d="M204.748 16.0325C201.787 16.5428 199.188 16.6251 194.862 16.6251H193.02V14.2219H192.987V4.18104H203.695V6.86409H196.359V9.03686H202.939V11.6376H196.359V13.9091C199.698 13.8762 201.935 13.7774 204.468 13.3495L204.748 16.0325ZM212.084 22.8142V25.4972H196.063V18.3041H199.435V22.8142H212.084ZM208.186 11.4565H204.304V8.77349H208.186V2.40332H211.557V19.7196H208.186V11.4565Z" fill="white"/>
<path d="M236 20.4604V23.1928H214.732V20.4604H236ZM233.73 17.1683H217.233V4.11523H233.549V6.81474H220.654V9.2838H233.023V11.8845H220.654V14.5182H233.73V17.1683Z" fill="white"/>
<path d="M19.5083 8.04883H16.0048C15.4949 8.04883 15.2482 8.09821 15.0508 8.22989C14.8041 8.41096 14.7054 8.70724 14.6396 9.10229L12.3697 21.9579C12.3039 22.32 12.271 22.715 12.5671 22.9949C12.7809 23.1924 13.0606 23.2253 13.554 23.2253H16.3831C21.2189 23.2253 23.9329 21.711 24.4592 18.7316C24.6401 17.6946 24.4099 16.8058 23.7519 16.098C23.4888 15.8017 23.1433 15.5548 22.7486 15.3243C24.048 14.6824 24.8211 13.6454 25.0842 12.2133C25.2652 11.1434 25.0842 10.2545 24.4921 9.56318C23.6368 8.54264 22.0084 8.04883 19.5247 8.04883M21.4821 18.5835C21.2189 20.032 19.607 20.7727 16.6463 20.7727H15.5936L16.3338 16.5918H17.3207C19.4425 16.5918 20.4294 16.9045 20.8735 17.1843C21.4163 17.4971 21.5808 17.9251 21.4656 18.5999M22.0907 12.0652C21.9755 12.7071 21.6137 13.1845 20.9886 13.5466C20.2978 13.9416 19.2944 14.1392 17.995 14.1392H16.8108L17.4522 10.5014H19.3109C21.0215 10.5014 21.6795 10.8636 21.9262 11.1598C21.992 11.2421 22.1893 11.4726 22.0907 12.0652Z" fill="white"/>
<path d="M38.9826 9.33274C38.5549 8.92123 37.9792 8.59202 37.2719 8.37804C36.5976 8.16405 35.7751 8.04883 34.8376 8.04883H30.413C30.2321 8.04883 30.084 8.04883 29.9689 8.04883C29.7551 8.04883 29.5741 8.11467 29.4261 8.22989C29.2452 8.34512 29.13 8.52618 29.0642 8.75663C29.0313 8.83893 29.0149 8.97061 28.982 9.13521L26.6628 22.2048C26.6134 22.4681 26.6628 22.715 26.8273 22.9126C26.9424 23.0442 27.1727 23.2253 27.5674 23.2253H28.6201C29.1465 23.2253 29.5248 22.9126 29.607 22.4352L30.5281 17.2666H31.9756C32.4526 17.2666 32.8473 17.2337 33.1434 17.2337C33.3408 17.2337 33.5382 17.2008 33.752 17.1843C33.8507 17.3983 33.9658 17.6452 34.0974 17.9251C34.2783 18.3695 34.5415 18.9621 34.8869 19.7028C35.2159 20.4435 35.6271 21.3982 36.1206 22.5834C36.3015 22.9949 36.6798 23.2253 37.1732 23.2253H38.3904C38.6865 23.2253 38.9497 23.0936 39.0977 22.8796C39.2622 22.6657 39.3115 22.3858 39.2293 22.1225L36.5482 16.4272C36.7785 16.3119 37.0088 16.1967 37.239 16.065C37.6831 15.8181 38.0779 15.5218 38.4562 15.2091C38.8345 14.8799 39.147 14.5178 39.3938 14.1392C39.6569 13.7277 39.8379 13.2832 39.9201 12.8223C40.0352 12.131 40.0352 11.4726 39.8872 10.8965C39.7392 10.2874 39.4267 9.74425 38.9826 9.31628M36.9265 12.6084C36.8772 12.9211 36.7456 13.1845 36.5318 13.4314C36.3015 13.6947 36.0054 13.9416 35.6436 14.1392C35.2652 14.3367 34.8211 14.5013 34.3277 14.6165C33.8178 14.7317 33.2586 14.7976 32.6664 14.7976H30.9722L31.7453 10.4685H33.6204C34.4099 10.4685 35.0843 10.5179 35.5778 10.6002C36.0219 10.6825 36.3673 10.8142 36.5976 10.9788C36.7785 11.1269 36.8936 11.2915 36.943 11.522C37.0088 11.8018 36.9923 12.1804 36.9265 12.6248" fill="white"/>
<path d="M26.1363 3.22624C38.5548 3.22624 49.0488 8.90507 49.0488 15.6374C49.0488 22.3697 38.5548 28.0485 26.1363 28.0485C13.7179 28.0485 3.22386 22.3532 3.22386 15.6374C3.22386 8.92153 13.7179 3.22624 26.1363 3.22624ZM26.1363 0C11.6947 0 0 6.99567 0 15.6374C0 24.2791 11.6947 31.2747 26.1363 31.2747C40.5779 31.2747 52.2562 24.2791 52.2562 15.6374C52.2562 6.99567 40.5615 0 26.1363 0Z" fill="white"/>
</g>
<defs>
<clipPath id="clip0_177_51">
<rect width="236" height="31.2583" fill="white"/>
</clipPath>
</defs>
</svg>
