<svg xmlns="http://www.w3.org/2000/svg" width="690" height="221" fill="none" viewBox="0 0 690 221"><path fill="#ffde00" d="M32.545 191.566h4.658v9.968h.301l8.165-9.968h5.61l-8.365 10.018 8.466 12.373h-5.61l-6.212-9.267-2.355 2.855v6.412h-4.658v-22.441z"/><path fill="#fff" d="M55.693 213.248c-1.202-.701-2.104-1.753-2.755-3.055s-.952-2.806-.952-4.559.3-3.256.952-4.558 1.553-2.305 2.755-3.056 2.555-1.102 4.158-1.102 2.955.351 4.108 1.102 2.103 1.753 2.755 3.056c.65 1.302.951 2.855.951 4.558s-.3 3.206-.951 4.559c-.652 1.352-1.553 2.304-2.755 3.055a8 8 0 0 1-4.108 1.102c-1.553 0-2.956-.35-4.158-1.102m6.663-2.454c.65-.551 1.152-1.253 1.502-2.154.351-.902.501-1.904.501-3.006s-.15-2.104-.5-3.005c-.351-.902-.852-1.603-1.504-2.154-.65-.551-1.502-.802-2.504-.802s-1.803.251-2.505.802c-.701.551-1.202 1.252-1.553 2.154-.35.901-.5 1.903-.5 3.005s.15 2.104.5 3.006c.351.901.852 1.603 1.553 2.154.702.551 1.503.801 2.505.801s1.803-.25 2.505-.801M70.019 197.16h3.206v2.705h.2c.3-.952.852-1.653 1.603-2.204a4.7 4.7 0 0 1 2.605-.802c.5 0 1.002 0 1.403.101v3.155s-.401-.1-.752-.15c-.35 0-.701-.05-1.002-.05-.751 0-1.402.15-2.053.501-.602.301-1.103.801-1.453 1.352-.35.602-.501 1.253-.501 1.954v10.269h-3.306V197.16zM83.036 213.248a7.1 7.1 0 0 1-2.805-3.005c-.651-1.303-.952-2.806-.952-4.559s.3-3.256.952-4.558 1.553-2.355 2.755-3.106a7.94 7.94 0 0 1 4.058-1.102q2.028 0 3.757.902c1.152.601 2.053 1.502 2.705 2.755.7 1.252 1.001 2.855 1.001 4.809v1.152H81.134v-2.455h10.169c0-.851-.15-1.603-.501-2.304a3.47 3.47 0 0 0-1.503-1.553 4.5 4.5 0 0 0-2.204-.551c-.902 0-1.703.2-2.355.651-.65.451-1.202 1.002-1.603 1.754a4.84 4.84 0 0 0-.6 2.354v1.903q0 1.653.6 2.856.601 1.201 1.654 1.803c.7.401 1.552.601 2.504.601.601 0 1.152-.1 1.603-.25.501-.151.902-.401 1.252-.652.351-.25.602-.601.802-.951h3.356a5.75 5.75 0 0 1-1.352 2.404c-.652.701-1.453 1.202-2.405 1.603s-2.054.551-3.256.551c-1.603 0-3.055-.35-4.258-1.052M104.482 206.527l-1.653.1c-1.102.101-2.004.351-2.605.752-.6.451-.901 1.052-.901 1.853 0 .551.15.952.4 1.303.25.35.651.651 1.152.801a4.4 4.4 0 0 0 1.653.301 5.4 5.4 0 0 0 2.305-.501c.651-.301 1.152-.802 1.503-1.403.35-.601.551-1.202.551-1.903v-5.31c0-.651-.151-1.202-.401-1.653a2.26 2.26 0 0 0-1.152-1.002 5.2 5.2 0 0 0-1.904-.351c-.952 0-1.703.201-2.304.601a2.74 2.74 0 0 0-1.152 1.553h-3.306c.1-.951.45-1.753 1.052-2.504a6.15 6.15 0 0 1 2.404-1.704q1.503-.6 3.456-.601c1.102 0 2.104.151 3.106.501a5.2 5.2 0 0 1 2.505 1.804c.701.851 1.002 2.053 1.002 3.606v11.171h-3.206v-2.304h-.1c-.251.451-.551.901-1.002 1.302a5.4 5.4 0 0 1-1.653 1.002 6.8 6.8 0 0 1-2.355.401c-1.102 0-2.053-.201-2.905-.601-.852-.401-1.553-1.002-2.004-1.754-.5-.751-.751-1.703-.751-2.755 0-1.753.6-3.005 1.753-3.757 1.152-.751 2.705-1.152 4.508-1.302.251 0 1.253-.1 2.956-.2h1.703v2.354c-.25 0-1.102 0-2.505.15z"/><path fill="#ffde00" d="M138.489 213.996h-4.007l-9.868-14.226h-.151v14.226h-4.658v-22.441h4.107l9.768 14.226h.201v-14.226h4.658v22.441z"/><path fill="#fff" d="m149.054 206.527-1.653.1c-1.102.101-2.003.351-2.605.752-.601.451-.901 1.052-.901 1.853 0 .551.15.952.401 1.303.25.35.651.651 1.152.801a4.4 4.4 0 0 0 1.653.301 5.4 5.4 0 0 0 2.304-.501c.651-.301 1.152-.802 1.503-1.403.35-.601.551-1.202.551-1.903v-5.31c0-.651-.15-1.202-.401-1.653a2.26 2.26 0 0 0-1.152-1.002 5.2 5.2 0 0 0-1.904-.351c-.951 0-1.703.201-2.304.601a2.73 2.73 0 0 0-1.152 1.553h-3.306c.1-.951.451-1.753 1.052-2.504a6.14 6.14 0 0 1 2.404-1.704q1.503-.6 3.457-.601c1.102 0 2.104.151 3.105.501a5.2 5.2 0 0 1 2.505 1.804c.701.851 1.002 2.053 1.002 3.606v11.171h-3.206v-2.304h-.1c-.251.451-.551.901-1.002 1.302a5.4 5.4 0 0 1-1.653 1.002 6.8 6.8 0 0 1-2.354.401c-1.103 0-2.054-.201-2.906-.601-.851-.401-1.553-1.002-2.004-1.754-.5-.751-.751-1.703-.751-2.755 0-1.753.601-3.005 1.753-3.757 1.152-.751 2.705-1.152 4.509-1.302.25 0 1.252-.1 2.955-.2h1.703v2.354c-.25 0-1.102 0-2.504.15zM165.549 199.815h-9.217v-2.655h9.217zm-3.406-6.663v15.93c0 .601.1 1.052.25 1.402.201.301.401.551.702.652s.651.2 1.052.2c.5 0 1.051 0 1.653-.05v2.855c-.602.1-1.253.15-2.054.15-.902 0-1.703-.15-2.455-.5a4.4 4.4 0 0 1-1.803-1.503c-.451-.651-.651-1.503-.651-2.455v-16.58h3.306zM168.445 194.305c-.301-.15-.551-.401-.752-.701a1.8 1.8 0 0 1-.3-1.002c0-.351.1-.701.3-1.002.201-.3.451-.551.752-.701a2.33 2.33 0 0 1 2.103 0c.301.2.551.401.752.701.2.301.25.601.25 1.002s-.1.651-.25 1.002c-.201.3-.451.551-.752.701-.3.15-.651.251-1.052.251-.35 0-.701-.101-1.051-.251m-.602 2.856h3.307v16.831h-3.307zM177.213 213.248c-1.203-.701-2.104-1.753-2.755-3.055-.652-1.303-.952-2.806-.952-4.559s.3-3.256.952-4.558 1.552-2.305 2.755-3.056 2.554-1.102 4.157-1.102 2.956.351 4.108 1.102 2.104 1.753 2.755 3.056c.651 1.302.952 2.855.952 4.558s-.301 3.206-.952 4.559c-.651 1.352-1.553 2.304-2.755 3.055a8 8 0 0 1-4.108 1.102c-1.552 0-2.955-.35-4.157-1.102m6.612-2.454c.651-.551 1.152-1.253 1.503-2.154.35-.902.501-1.904.501-3.006s-.151-2.104-.501-3.005c-.351-.902-.852-1.603-1.503-2.154s-1.503-.802-2.505-.802-1.803.251-2.504.802-1.203 1.252-1.553 2.154c-.351.901-.501 1.903-.501 3.005s.15 2.104.501 3.006c.35.901.851 1.603 1.553 2.154.701.551 1.502.801 2.504.801s1.804-.25 2.505-.801M194.8 213.989h-3.306v-16.832h3.156v2.756h.2c.401-.952 1.052-1.654 1.854-2.205.851-.501 1.853-.751 3.106-.751 1.152 0 2.154.25 3.005.701.852.501 1.503 1.203 2.004 2.154.451.952.701 2.104.701 3.457v10.72h-3.306v-10.32c0-.801-.15-1.502-.401-2.053a3.05 3.05 0 0 0-1.202-1.303c-.551-.3-1.152-.451-1.904-.451-.751 0-1.452.151-2.003.501-.601.301-1.052.802-1.403 1.453-.35.651-.501 1.403-.501 2.254v9.969zM216.283 206.527l-1.653.1c-1.102.101-2.004.351-2.605.752-.601.451-.902 1.052-.902 1.853 0 .551.151.952.401 1.303.251.35.651.651 1.152.801a4.4 4.4 0 0 0 1.653.301c.902 0 1.653-.201 2.305-.501.651-.301 1.152-.802 1.502-1.403s.551-1.202.551-1.903v-5.31c0-.651-.15-1.202-.4-1.653a2.27 2.27 0 0 0-1.153-1.002c-.5-.2-1.152-.351-1.903-.351-.952 0-1.703.201-2.304.601a2.73 2.73 0 0 0-1.152 1.553h-3.307c.101-.951.451-1.753 1.052-2.504a6.15 6.15 0 0 1 2.405-1.704q1.503-.6 3.456-.601c1.102 0 2.104.151 3.106.501a5.2 5.2 0 0 1 2.505 1.804c.701.851 1.001 2.053 1.001 3.606v11.171h-3.205v-2.304h-.101c-.25.451-.551.901-1.002 1.302a5.4 5.4 0 0 1-1.653 1.002 6.8 6.8 0 0 1-2.354.401c-1.102 0-2.054-.201-2.905-.601-.852-.401-1.553-1.002-2.004-1.754-.501-.751-.751-1.703-.751-2.755 0-1.753.601-3.005 1.753-3.757 1.152-.751 2.705-1.152 4.508-1.302.251 0 1.252-.1 2.956-.2h1.703v2.354c-.251 0-1.102 0-2.505.15zM228.207 213.996H224.9v-22.441h3.307z"/><path fill="#ffde00" d="M251.85 196.972a5.4 5.4 0 0 0-1.603-1.202c-.651-.301-1.352-.401-2.204-.401a5.7 5.7 0 0 0-3.056.852 6.04 6.04 0 0 0-2.054 2.505c-.5 1.102-.751 2.454-.751 4.007s.251 2.905.701 4.007c.501 1.102 1.153 1.954 2.054 2.555.902.601 1.904.902 3.106.902 1.052 0 2.004-.201 2.805-.601.802-.401 1.353-.952 1.803-1.653.401-.702.602-1.553.602-2.505l.951.15h-5.81v-3.556h9.367v2.805c0 1.903-.401 3.607-1.252 5.059-.852 1.453-1.954 2.505-3.457 3.306-1.452.752-3.156 1.152-5.009 1.152-2.104 0-3.907-.45-5.51-1.402s-2.856-2.254-3.707-4.008c-.852-1.753-1.303-3.757-1.303-6.111q0-3.531 1.353-6.161c.902-1.754 2.154-3.056 3.757-4.008 1.553-.901 3.356-1.402 5.36-1.402 1.653 0 3.206.3 4.558.951a9.5 9.5 0 0 1 3.407 2.655 8.45 8.45 0 0 1 1.603 3.908h-4.759a5 5 0 0 0-.952-1.854z"/><path fill="#fff" d="M263.37 213.248a7.1 7.1 0 0 1-2.805-3.005c-.651-1.303-.952-2.806-.952-4.559s.301-3.256.952-4.558 1.553-2.355 2.755-3.106a7.94 7.94 0 0 1 4.058-1.102q2.028 0 3.757.902c1.152.601 2.053 1.502 2.705 2.755.701 1.252 1.001 2.855 1.001 4.809v1.152h-13.374v-2.455h10.169c0-.851-.151-1.603-.501-2.304a3.48 3.48 0 0 0-1.503-1.553 4.5 4.5 0 0 0-2.204-.551c-.902 0-1.703.2-2.355.651s-1.202 1.002-1.603 1.754a4.85 4.85 0 0 0-.601 2.354v1.903q0 1.653.601 2.856.601 1.201 1.653 1.803c.702.401 1.553.601 2.505.601.601 0 1.152-.1 1.603-.25.501-.151.902-.401 1.252-.652.351-.25.602-.601.802-.951h3.356a5.75 5.75 0 0 1-1.352 2.404c-.652.701-1.453 1.202-2.405 1.603s-2.054.551-3.256.551c-1.603 0-3.056-.35-4.258-1.052M280.148 213.248c-1.202-.701-2.104-1.753-2.755-3.055s-.952-2.806-.952-4.559.301-3.256.952-4.558 1.553-2.305 2.755-3.056c1.203-.751 2.555-1.102 4.158-1.102s2.955.351 4.108 1.102 2.103 1.753 2.755 3.056c.651 1.302.951 2.855.951 4.558s-.3 3.206-.951 4.559c-.652 1.352-1.553 2.304-2.755 3.055a8 8 0 0 1-4.108 1.102c-1.553 0-2.955-.35-4.158-1.102m6.613-2.454c.651-.551 1.152-1.253 1.502-2.154.351-.902.501-1.904.501-3.006s-.15-2.104-.501-3.005c-.35-.902-.851-1.603-1.502-2.154-.652-.551-1.503-.802-2.505-.802s-1.803.251-2.505.802c-.701.551-1.202 1.252-1.553 2.154-.35.901-.501 1.903-.501 3.005s.151 2.104.501 3.006c.351.901.852 1.603 1.553 2.154.702.551 1.503.801 2.505.801s1.803-.25 2.505-.801M297.786 220.051c-1.052-.401-1.904-.952-2.555-1.703-.601-.751-1.002-1.653-1.052-2.705h3.357c.15.801.601 1.352 1.302 1.753q1.052.601 2.705.601 2.028 0 3.156-.901c.751-.601 1.102-1.553 1.102-2.806v-3.306h-.201c-.3.501-.601.952-.951 1.353-.351.401-.852.751-1.503 1.002q-.977.45-2.404.451c-1.353 0-2.555-.301-3.607-.952s-1.904-1.603-2.505-2.855q-.901-1.88-.901-4.509t.901-4.508c.601-1.252 1.453-2.254 2.505-2.906 1.052-.651 2.304-1.001 3.657-1.001q1.427 0 2.404.45c.651.301 1.152.652 1.453 1.002.3.351.651.852 1.052 1.453h.2v-2.705h3.256v17.182c0 1.402-.3 2.555-.952 3.506-.651.952-1.553 1.653-2.655 2.104-1.152.451-2.454.701-3.957.701-1.403 0-2.605-.2-3.707-.601zm6.061-9.718c.651-.451 1.152-1.052 1.503-1.903.351-.802.501-1.804.501-2.956s-.15-2.154-.501-3.005c-.351-.852-.852-1.553-1.503-2.004s-1.452-.701-2.404-.701q-1.428 0-2.405.751c-.651.501-1.152 1.152-1.502 2.004-.351.851-.501 1.853-.501 2.955s.15 2.054.501 2.906c.35.851.851 1.452 1.502 1.953.652.451 1.453.701 2.405.701s1.703-.2 2.404-.651zM312.161 197.16h3.206v2.705h.201c.3-.952.851-1.653 1.603-2.204a4.7 4.7 0 0 1 2.605-.802c.5 0 1.001 0 1.402.101v3.155s-.401-.1-.751-.15c-.351 0-.702-.05-1.002-.05-.752 0-1.403.15-2.054.501-.601.301-1.102.801-1.453 1.352-.35.602-.501 1.253-.501 1.954v10.269h-3.306V197.16zM330.24 206.527l-1.653.1c-1.102.101-2.004.351-2.605.752-.601.451-.902 1.052-.902 1.853 0 .551.151.952.401 1.303.251.35.651.651 1.152.801a4.4 4.4 0 0 0 1.653.301c.902 0 1.653-.201 2.305-.501.651-.301 1.152-.802 1.502-1.403s.551-1.202.551-1.903v-5.31c0-.651-.15-1.202-.4-1.653a2.27 2.27 0 0 0-1.153-1.002c-.5-.2-1.152-.351-1.903-.351-.952 0-1.703.201-2.304.601a2.73 2.73 0 0 0-1.152 1.553h-3.307c.101-.951.451-1.753 1.052-2.504a6.15 6.15 0 0 1 2.405-1.704q1.503-.6 3.456-.601c1.102 0 2.104.151 3.106.501a5.2 5.2 0 0 1 2.505 1.804c.701.851 1.001 2.053 1.001 3.606v11.171h-3.205v-2.304h-.101c-.25.451-.551.901-1.001 1.302a5.4 5.4 0 0 1-1.654 1.002 6.8 6.8 0 0 1-2.354.401c-1.102 0-2.054-.201-2.905-.601-.852-.401-1.553-1.002-2.004-1.754-.501-.751-.751-1.703-.751-2.755 0-1.753.601-3.005 1.753-3.757 1.152-.751 2.705-1.152 4.508-1.302.251 0 1.253-.1 2.956-.2h1.703v2.354c-.251 0-1.102 0-2.505.15zM338.863 197.157h3.206v2.705h.301c.3-.551.651-1.001.952-1.402.35-.401.801-.752 1.452-1.052q.977-.451 2.405-.451c1.352 0 2.554.351 3.656 1.052s1.904 1.703 2.505 3.006q.902 1.953.902 4.658c0 1.803-.301 3.306-.902 4.609s-1.403 2.304-2.505 3.005a6.46 6.46 0 0 1-3.606 1.052c-.952 0-1.703-.15-2.405-.451-.701-.3-1.152-.651-1.502-1.052-.351-.4-.652-.851-.952-1.352h-.201v8.916h-3.306v-23.243m3.707 11.522q.526 1.352 1.503 2.104.977.751 2.404.751t2.405-.751q.976-.752 1.503-2.104c.35-.902.501-1.904.501-3.056s-.151-2.104-.501-3.005c-.351-.902-.852-1.553-1.503-2.054s-1.453-.752-2.455-.752-1.753.251-2.404.702c-.651.501-1.152 1.152-1.503 2.003s-.501 1.904-.501 3.056.15 2.204.501 3.106zM359.9 213.996h-3.306v-22.441h3.256v8.365h.2a4.7 4.7 0 0 1 1.854-2.204q1.202-.751 3.155-.751c1.203 0 2.204.25 3.056.701s1.553 1.202 2.004 2.154.701 2.104.701 3.456v10.72h-3.306v-10.319q0-1.202-.451-2.104a2.86 2.86 0 0 0-1.252-1.302c-.551-.301-1.202-.451-1.904-.451-.801 0-1.452.15-2.054.501-.601.3-1.051.801-1.402 1.453-.351.651-.501 1.402-.501 2.254v9.968zM374.486 194.305c-.301-.15-.551-.401-.752-.701a1.8 1.8 0 0 1-.3-1.002c0-.351.1-.701.3-1.002.201-.3.451-.551.752-.701a2.33 2.33 0 0 1 2.103 0c.301.2.551.401.752.701.2.301.25.601.25 1.002s-.1.651-.25 1.002c-.201.3-.451.551-.752.701-.3.15-.651.251-1.052.251-.35 0-.701-.101-1.051-.251m-.602 2.856h3.307v16.831h-3.307zM383.193 213.187c-1.202-.751-2.104-1.753-2.755-3.106-.651-1.302-.952-2.805-.952-4.458s.301-3.206.952-4.508 1.553-2.355 2.755-3.056c1.202-.751 2.555-1.102 4.108-1.102a8.7 8.7 0 0 1 3.456.701c1.002.451 1.804 1.152 2.455 2.004.601.852.952 1.853 1.102 2.956h-3.206c-.1-.552-.351-1.002-.651-1.453s-.752-.802-1.253-1.052a3.9 3.9 0 0 0-1.753-.401 4.37 4.37 0 0 0-2.404.701c-.702.451-1.203 1.153-1.603 2.004-.401.902-.551 1.904-.551 3.106s.2 2.254.551 3.156c.4.901.901 1.603 1.603 2.054q1.051.75 2.404.751c.601 0 1.202-.1 1.703-.351.501-.2.952-.551 1.253-1.002.35-.45.601-.951.701-1.552h3.206c-.1 1.102-.501 2.053-1.052 2.905a5.9 5.9 0 0 1-2.405 2.004q-1.502.751-3.456.751c-1.603 0-3.006-.351-4.208-1.102z"/><path fill="#ffde00" d="M407.743 213.996h-4.659v-22.441h4.659z"/><path fill="#fff" d="M414.054 213.989h-3.306v-16.832h3.156v2.756h.2c.401-.952 1.052-1.654 1.854-2.205.851-.501 1.853-.751 3.105-.751 1.153 0 2.154.25 3.006.701.852.501 1.503 1.203 2.004 2.154.451.952.701 2.104.701 3.457v10.72h-3.306v-10.32c0-.801-.15-1.502-.401-2.053a3.05 3.05 0 0 0-1.202-1.303c-.551-.3-1.152-.451-1.904-.451-.751 0-1.452.151-2.003.501-.601.301-1.052.802-1.403 1.453s-.501 1.403-.501 2.254v9.969zM435.889 199.829h-9.518v-2.655h9.518zm-6.312-7.163a3.9 3.9 0 0 1 1.753-1.603c.752-.351 1.653-.551 2.655-.551.401 0 .752 0 1.152.05.401 0 .752.1 1.102.15v2.755c-.551-.1-1.002-.1-1.402-.1-.852 0-1.503.2-1.904.551s-.601.952-.601 1.753v18.284h-3.356V195.17q0-1.503.601-2.554zM440.252 213.248c-1.202-.701-2.104-1.753-2.755-3.055-.652-1.303-.952-2.806-.952-4.559s.3-3.256.952-4.558 1.553-2.305 2.755-3.056 2.555-1.102 4.157-1.102c1.603 0 2.956.351 4.108 1.102s2.104 1.753 2.755 3.056c.651 1.302.952 2.855.952 4.558s-.301 3.206-.952 4.559c-.651 1.352-1.553 2.304-2.755 3.055a8 8 0 0 1-4.108 1.102c-1.552 0-2.955-.35-4.157-1.102m6.612-2.454c.651-.551 1.152-1.253 1.503-2.154.35-.902.501-1.904.501-3.006s-.151-2.104-.501-3.005c-.351-.902-.852-1.603-1.503-2.154s-1.503-.802-2.505-.802c-1.001 0-1.803.251-2.504.802s-1.202 1.252-1.553 2.154-.501 1.903-.501 3.005.15 2.104.501 3.006.851 1.603 1.553 2.154c.701.551 1.503.801 2.504.801s1.804-.25 2.505-.801M454.523 197.16h3.206v2.705h.2c.301-.952.852-1.653 1.603-2.204a4.7 4.7 0 0 1 2.605-.802c.501 0 1.002 0 1.402.101v3.155s-.4-.1-.751-.15c-.351 0-.701-.05-1.002-.05-.751 0-1.402.15-2.054.501-.601.301-1.102.801-1.452 1.352-.351.602-.501 1.253-.501 1.954v10.269h-3.306V197.16zM465.092 197.157h3.156v2.756h.201c.35-.952.951-1.654 1.753-2.205s1.753-.751 2.855-.751c.752 0 1.403.1 2.004.351.601.25 1.102.551 1.503 1.002s.751 1.001 1.001 1.603h.151c.3-.602.651-1.153 1.152-1.603.501-.451 1.052-.802 1.703-1.002a7.5 7.5 0 0 1 2.204-.351c1.052 0 1.954.2 2.705.651s1.403 1.102 1.803 1.954c.451.851.652 1.903.652 3.206v11.271h-3.306v-10.971c0-1.102-.301-1.903-.902-2.454s-1.353-.802-2.254-.802q-1.053 0-1.804.451c-.501.301-.901.701-1.152 1.202s-.401 1.102-.401 1.804v10.72h-3.306v-11.171c0-.601-.15-1.102-.4-1.553a2.5 2.5 0 0 0-1.102-1.052c-.451-.25-1.002-.351-1.603-.351-.602 0-1.203.151-1.704.501a3.3 3.3 0 0 0-1.252 1.353c-.3.601-.451 1.252-.451 2.004v10.369h-3.306v-16.831zM498.703 206.527l-1.653.1c-1.102.101-2.004.351-2.605.752-.601.451-.902 1.052-.902 1.853 0 .551.151.952.401 1.303.25.35.651.651 1.152.801a4.4 4.4 0 0 0 1.653.301c.902 0 1.653-.201 2.304-.501.652-.301 1.153-.802 1.503-1.403.351-.601.551-1.202.551-1.903v-5.31c0-.651-.15-1.202-.401-1.653a2.26 2.26 0 0 0-1.152-1.002 5.2 5.2 0 0 0-1.903-.351c-.952 0-1.703.201-2.304.601a2.74 2.74 0 0 0-1.153 1.553h-3.306c.101-.951.451-1.753 1.052-2.504a6.15 6.15 0 0 1 2.405-1.704q1.503-.6 3.456-.601c1.102 0 2.104.151 3.106.501a5.2 5.2 0 0 1 2.505 1.804c.701.851 1.001 2.053 1.001 3.606v11.171h-3.206v-2.304h-.1c-.25.451-.551.901-1.002 1.302a5.4 5.4 0 0 1-1.653 1.002 6.8 6.8 0 0 1-2.354.401c-1.102 0-2.054-.201-2.905-.601-.852-.401-1.553-1.002-2.004-1.754-.501-.751-.751-1.703-.751-2.755 0-1.753.601-3.005 1.753-3.757 1.152-.751 2.705-1.152 4.508-1.302.251 0 1.252-.1 2.956-.2h1.703v2.354c-.251 0-1.102 0-2.505.15zM515.188 199.815h-9.217v-2.655h9.217zm-3.407-6.663v15.93c0 .601.101 1.052.251 1.402.2.301.401.551.701.652.301.1.651.2 1.052.2.501 0 1.052 0 1.653-.05v2.855c-.601.1-1.252.15-2.054.15-.901 0-1.703-.15-2.454-.5a4.4 4.4 0 0 1-1.803-1.503c-.451-.651-.652-1.503-.652-2.455v-16.58h3.306zM518.099 194.305c-.301-.15-.551-.401-.752-.701a1.8 1.8 0 0 1-.3-1.002c0-.351.1-.701.3-1.002.201-.3.451-.551.752-.701a2.33 2.33 0 0 1 2.104 0c.3.2.551.401.751.701.2.301.251.601.251 1.002s-.101.651-.251 1.002c-.2.3-.451.551-.751.701-.301.15-.651.251-1.052.251-.351 0-.702-.101-1.052-.251m-.601 2.856h3.306v16.831h-3.306zM526.855 213.248c-1.202-.701-2.104-1.753-2.755-3.055s-.952-2.806-.952-4.559.301-3.256.952-4.558 1.553-2.305 2.755-3.056c1.203-.751 2.555-1.102 4.158-1.102s2.955.351 4.108 1.102 2.103 1.753 2.755 3.056c.651 1.302.951 2.855.951 4.558s-.3 3.206-.951 4.559c-.652 1.352-1.553 2.304-2.755 3.055a8 8 0 0 1-4.108 1.102c-1.553 0-2.955-.35-4.158-1.102m6.613-2.454c.651-.551 1.152-1.253 1.502-2.154.351-.902.501-1.904.501-3.006s-.15-2.104-.501-3.005c-.35-.902-.851-1.603-1.502-2.154-.652-.551-1.503-.802-2.505-.802s-1.803.251-2.505.802c-.701.551-1.202 1.252-1.553 2.154-.35.901-.501 1.903-.501 3.005s.151 2.104.501 3.006c.351.901.852 1.603 1.553 2.154.702.551 1.503.801 2.505.801s1.803-.25 2.505-.801M544.439 213.989h-3.306v-16.832h3.156v2.756h.2c.401-.952 1.052-1.654 1.853-2.205.852-.501 1.854-.751 3.106-.751 1.152 0 2.154.25 3.006.701.851.501 1.503 1.203 2.004 2.154.45.952.701 2.104.701 3.457v10.72h-3.306v-10.32c0-.801-.151-1.502-.401-2.053a3.05 3.05 0 0 0-1.202-1.303c-.551-.3-1.152-.451-1.904-.451-.751 0-1.453.151-2.004.501-.601.301-1.051.802-1.402 1.453s-.501 1.403-.501 2.254v9.969z"/><path fill="#ffde00" d="M564.932 191.555h4.658v18.584h9.668v3.857h-14.276v-22.441z"/><path fill="#fff" d="M582.064 194.305c-.301-.15-.551-.401-.752-.701a1.8 1.8 0 0 1-.3-1.002c0-.351.1-.701.3-1.002.201-.3.451-.551.752-.701a2.33 2.33 0 0 1 2.104 0c.3.2.551.401.751.701.2.301.25.601.25 1.002s-.1.651-.25 1.002c-.2.3-.451.551-.751.701-.301.15-.652.251-1.052.251-.351 0-.702-.101-1.052-.251m-.601 2.856h3.306v16.831h-3.306zM588.081 191.555h3.306v8.315h.201c.401-.601.701-1.102 1.002-1.453.3-.35.751-.701 1.402-1.001q.977-.451 2.405-.451c1.352 0 2.554.35 3.657 1.052 1.051.701 1.903 1.703 2.504 3.005q.902 1.954.902 4.659c0 1.803-.301 3.306-.902 4.608-.601 1.303-1.453 2.305-2.504 3.006-1.052.701-2.255 1.052-3.657 1.052-.952 0-1.754-.15-2.355-.451-.601-.3-1.152-.651-1.502-1.052s-.652-.851-1.002-1.402h-.301v2.604h-3.206v-22.441zm3.757 17.131q.526 1.353 1.503 2.104c.651.501 1.453.752 2.354.752q1.428 0 2.405-.752.976-.751 1.503-2.104c.35-.901.501-1.903.501-3.055s-.151-2.104-.501-3.006c-.351-.901-.852-1.553-1.503-2.054s-1.503-.751-2.455-.751c-.951 0-1.703.25-2.354.701-.651.501-1.152 1.152-1.503 2.004-.35.852-.501 1.904-.501 3.056s.151 2.204.501 3.105zM605.802 197.16h3.206v2.705h.2c.301-.952.852-1.653 1.603-2.204a4.7 4.7 0 0 1 2.605-.802c.501 0 1.002 0 1.403.101v3.155s-.401-.1-.752-.15c-.35 0-.701-.05-1.002-.05-.751 0-1.402.15-2.053.501-.601.301-1.102.801-1.453 1.352-.351.602-.501 1.253-.501 1.954v10.269h-3.306V197.16zM623.841 206.527l-1.653.1c-1.102.101-2.003.351-2.604.752-.602.451-.902 1.052-.902 1.853 0 .551.15.952.401 1.303.25.35.651.651 1.152.801a4.4 4.4 0 0 0 1.653.301c.902 0 1.653-.201 2.304-.501.651-.301 1.152-.802 1.503-1.403s.551-1.202.551-1.903v-5.31c0-.651-.15-1.202-.401-1.653a2.26 2.26 0 0 0-1.152-1.002 5.2 5.2 0 0 0-1.903-.351c-.952 0-1.704.201-2.305.601a2.73 2.73 0 0 0-1.152 1.553h-3.306c.1-.951.451-1.753 1.052-2.504a6.15 6.15 0 0 1 2.404-1.704q1.503-.6 3.457-.601c1.102 0 2.104.151 3.106.501a5.2 5.2 0 0 1 2.504 1.804c.702.851 1.002 2.053 1.002 3.606v11.171h-3.206v-2.304h-.1c-.251.451-.551.901-1.002 1.302a5.4 5.4 0 0 1-1.653 1.002 6.8 6.8 0 0 1-2.354.401c-1.102 0-2.054-.201-2.906-.601-.851-.401-1.553-1.002-2.003-1.754-.501-.751-.752-1.703-.752-2.755 0-1.753.601-3.005 1.753-3.757 1.153-.751 2.705-1.152 4.509-1.302.25 0 1.252-.1 2.955-.2h1.703v2.354c-.25 0-1.102 0-2.504.15zM632.505 197.16h3.206v2.705h.2c.301-.952.852-1.653 1.603-2.204a4.7 4.7 0 0 1 2.605-.802c.501 0 1.002 0 1.403.101v3.155s-.401-.1-.752-.15c-.35 0-.701-.05-1.001-.05-.752 0-1.403.15-2.054.501-.601.301-1.102.801-1.453 1.352-.351.602-.501 1.253-.501 1.954v10.269h-3.306V197.16zM643.881 220.269v-2.806h.601s.501.05.902.05c.4 0 .801 0 1.052-.1.3-.1.551-.3.851-.601.301-.3.501-.801.752-1.503l.451-1.052-6.162-17.081h3.557l4.207 13.024h.201l4.258-13.024h3.556l-6.912 19.035c-.501 1.353-1.203 2.354-2.104 3.056-.902.701-2.004 1.052-3.357 1.052-.651 0-1.252 0-1.753-.05z"/><g filter="url(#a)"><path fill="#fff" d="m113.006 169.015-41.727-64.319v64.319H31.154V23.445H71.28V84.81l38.471-61.364h46.486L109.6 93.975l50.944 75.04h-47.588z"/></g><g filter="url(#b)"><path fill="#fff" d="M301.799 23.445v145.57h-33.161l-57.807-78.996v78.996h-38.872V23.445h35.115l55.904 76.392V23.445h38.871z"/></g><g filter="url(#c)"><path fill="#fff" d="M496.969 23.445h40.625v145.57h-40.625z"/></g><g filter="url(#d)"><path fill="#fff" d="M658.269 132.297v36.718h-92.421V23.445h40.625v108.852z"/></g><g filter="url(#e)"><path fill="url(#f)" d="M430.542 25.404c-9.417-3.657-19.887-5.61-30.857-5.61-44.833 0-77.193 32.26-77.193 76.541 0 26.75 12.022 49.041 31.308 62.466l12.323-16.781 10.72-14.627c-8.416-6.763-13.275-17.683-13.275-31.058 0-23.243 14.677-39.022 36.468-39.022 8.616 0 16.58 2.655 22.792 7.263l10.319-14.126 12.573-17.182h.05l10.67-14.577z" shape-rendering="crispEdges"/></g><g filter="url(#g)"><path fill="#fff" d="m403.294 91.234-18.534 25.297h48.339c-4.608 11.221-17.733 18.635-33.061 18.635-9.267 0-17.132-2.805-23.193-7.765l-10.72 14.627-12.273 16.782h-.05l-10.97 14.977 26.148-6.762c9.368 3.707 19.837 5.71 31.058 5.71 45.634 0 76.692-33.862 76.692-81.5z"/></g><defs><filter id="a" width="191.698" height="207.879" x="0" y="4.753" color-interpolation-filters="sRGB" filterUnits="userSpaceOnUse"><feFlood flood-opacity="0" result="BackgroundImageFix"/><feColorMatrix in="SourceAlpha" result="hardAlpha" values="0 0 0 0 0 0 0 0 0 0 0 0 0 0 0 0 0 0 127 0"/><feOffset dy="12.462"/><feGaussianBlur stdDeviation="15.577"/><feComposite in2="hardAlpha" operator="out"/><feColorMatrix values="0 0 0 0 0.0585937 0 0 0 0 0.270833 0 0 0 0 0.164713 0 0 0 0.1 0"/><feBlend in2="BackgroundImageFix" mode="multiply" result="effect1_dropShadow_1466_17647"/><feColorMatrix in="SourceAlpha" result="hardAlpha" values="0 0 0 0 0 0 0 0 0 0 0 0 0 0 0 0 0 0 127 0"/><feOffset dy="6.231"/><feGaussianBlur stdDeviation="6.231"/><feComposite in2="hardAlpha" operator="out"/><feColorMatrix values="0 0 0 0 0.0585937 0 0 0 0 0.270833 0 0 0 0 0.164713 0 0 0 0.1 0"/><feBlend in2="effect1_dropShadow_1466_17647" mode="multiply" result="effect2_dropShadow_1466_17647"/><feColorMatrix in="SourceAlpha" result="hardAlpha" values="0 0 0 0 0 0 0 0 0 0 0 0 0 0 0 0 0 0 127 0"/><feOffset dy="1.558"/><feGaussianBlur stdDeviation="1.558"/><feComposite in2="hardAlpha" operator="out"/><feColorMatrix values="0 0 0 0 0.0585937 0 0 0 0 0.270833 0 0 0 0 0.164713 0 0 0 0.2 0"/><feBlend in2="effect2_dropShadow_1466_17647" mode="multiply" result="effect3_dropShadow_1466_17647"/><feBlend in="SourceGraphic" in2="effect3_dropShadow_1466_17647" result="shape"/></filter><filter id="b" width="192.199" height="207.879" x="140.805" y="4.753" color-interpolation-filters="sRGB" filterUnits="userSpaceOnUse"><feFlood flood-opacity="0" result="BackgroundImageFix"/><feColorMatrix in="SourceAlpha" result="hardAlpha" values="0 0 0 0 0 0 0 0 0 0 0 0 0 0 0 0 0 0 127 0"/><feOffset dy="12.462"/><feGaussianBlur stdDeviation="15.577"/><feComposite in2="hardAlpha" operator="out"/><feColorMatrix values="0 0 0 0 0.0585937 0 0 0 0 0.270833 0 0 0 0 0.164713 0 0 0 0.1 0"/><feBlend in2="BackgroundImageFix" mode="multiply" result="effect1_dropShadow_1466_17647"/><feColorMatrix in="SourceAlpha" result="hardAlpha" values="0 0 0 0 0 0 0 0 0 0 0 0 0 0 0 0 0 0 127 0"/><feOffset dy="6.231"/><feGaussianBlur stdDeviation="6.231"/><feComposite in2="hardAlpha" operator="out"/><feColorMatrix values="0 0 0 0 0.0585937 0 0 0 0 0.270833 0 0 0 0 0.164713 0 0 0 0.1 0"/><feBlend in2="effect1_dropShadow_1466_17647" mode="multiply" result="effect2_dropShadow_1466_17647"/><feColorMatrix in="SourceAlpha" result="hardAlpha" values="0 0 0 0 0 0 0 0 0 0 0 0 0 0 0 0 0 0 127 0"/><feOffset dy="1.558"/><feGaussianBlur stdDeviation="1.558"/><feComposite in2="hardAlpha" operator="out"/><feColorMatrix values="0 0 0 0 0.0585937 0 0 0 0 0.270833 0 0 0 0 0.164713 0 0 0 0.2 0"/><feBlend in2="effect2_dropShadow_1466_17647" mode="multiply" result="effect3_dropShadow_1466_17647"/><feBlend in="SourceGraphic" in2="effect3_dropShadow_1466_17647" result="shape"/></filter><filter id="c" width="102.934" height="207.879" x="465.814" y="4.753" color-interpolation-filters="sRGB" filterUnits="userSpaceOnUse"><feFlood flood-opacity="0" result="BackgroundImageFix"/><feColorMatrix in="SourceAlpha" result="hardAlpha" values="0 0 0 0 0 0 0 0 0 0 0 0 0 0 0 0 0 0 127 0"/><feOffset dy="12.462"/><feGaussianBlur stdDeviation="15.577"/><feComposite in2="hardAlpha" operator="out"/><feColorMatrix values="0 0 0 0 0.0585937 0 0 0 0 0.270833 0 0 0 0 0.164713 0 0 0 0.1 0"/><feBlend in2="BackgroundImageFix" mode="multiply" result="effect1_dropShadow_1466_17647"/><feColorMatrix in="SourceAlpha" result="hardAlpha" values="0 0 0 0 0 0 0 0 0 0 0 0 0 0 0 0 0 0 127 0"/><feOffset dy="6.231"/><feGaussianBlur stdDeviation="6.231"/><feComposite in2="hardAlpha" operator="out"/><feColorMatrix values="0 0 0 0 0.0585937 0 0 0 0 0.270833 0 0 0 0 0.164713 0 0 0 0.1 0"/><feBlend in2="effect1_dropShadow_1466_17647" mode="multiply" result="effect2_dropShadow_1466_17647"/><feColorMatrix in="SourceAlpha" result="hardAlpha" values="0 0 0 0 0 0 0 0 0 0 0 0 0 0 0 0 0 0 127 0"/><feOffset dy="1.558"/><feGaussianBlur stdDeviation="1.558"/><feComposite in2="hardAlpha" operator="out"/><feColorMatrix values="0 0 0 0 0.0585937 0 0 0 0 0.270833 0 0 0 0 0.164713 0 0 0 0.2 0"/><feBlend in2="effect2_dropShadow_1466_17647" mode="multiply" result="effect3_dropShadow_1466_17647"/><feBlend in="SourceGraphic" in2="effect3_dropShadow_1466_17647" result="shape"/></filter><filter id="d" width="154.73" height="207.879" x="534.693" y="4.753" color-interpolation-filters="sRGB" filterUnits="userSpaceOnUse"><feFlood flood-opacity="0" result="BackgroundImageFix"/><feColorMatrix in="SourceAlpha" result="hardAlpha" values="0 0 0 0 0 0 0 0 0 0 0 0 0 0 0 0 0 0 127 0"/><feOffset dy="12.462"/><feGaussianBlur stdDeviation="15.577"/><feComposite in2="hardAlpha" operator="out"/><feColorMatrix values="0 0 0 0 0.0585937 0 0 0 0 0.270833 0 0 0 0 0.164713 0 0 0 0.1 0"/><feBlend in2="BackgroundImageFix" mode="multiply" result="effect1_dropShadow_1466_17647"/><feColorMatrix in="SourceAlpha" result="hardAlpha" values="0 0 0 0 0 0 0 0 0 0 0 0 0 0 0 0 0 0 127 0"/><feOffset dy="6.231"/><feGaussianBlur stdDeviation="6.231"/><feComposite in2="hardAlpha" operator="out"/><feColorMatrix values="0 0 0 0 0.0585937 0 0 0 0 0.270833 0 0 0 0 0.164713 0 0 0 0.1 0"/><feBlend in2="effect1_dropShadow_1466_17647" mode="multiply" result="effect2_dropShadow_1466_17647"/><feColorMatrix in="SourceAlpha" result="hardAlpha" values="0 0 0 0 0 0 0 0 0 0 0 0 0 0 0 0 0 0 127 0"/><feOffset dy="1.558"/><feGaussianBlur stdDeviation="1.558"/><feComposite in2="hardAlpha" operator="out"/><feColorMatrix values="0 0 0 0 0.0585937 0 0 0 0 0.270833 0 0 0 0 0.164713 0 0 0 0.2 0"/><feBlend in2="effect2_dropShadow_1466_17647" mode="multiply" result="effect3_dropShadow_1466_17647"/><feBlend in="SourceGraphic" in2="effect3_dropShadow_1466_17647" result="shape"/></filter><filter id="e" width="196.257" height="202.418" x="291.338" y="-.001" color-interpolation-filters="sRGB" filterUnits="userSpaceOnUse"><feFlood flood-opacity="0" result="BackgroundImageFix"/><feColorMatrix in="SourceAlpha" result="hardAlpha" values="0 0 0 0 0 0 0 0 0 0 0 0 0 0 0 0 0 0 127 0"/><feOffset dy="12.462"/><feGaussianBlur stdDeviation="15.577"/><feComposite in2="hardAlpha" operator="out"/><feColorMatrix values="0 0 0 0 0.0585937 0 0 0 0 0.270833 0 0 0 0 0.164713 0 0 0 0.1 0"/><feBlend in2="BackgroundImageFix" mode="multiply" result="effect1_dropShadow_1466_17647"/><feColorMatrix in="SourceAlpha" result="hardAlpha" values="0 0 0 0 0 0 0 0 0 0 0 0 0 0 0 0 0 0 127 0"/><feOffset dy="6.231"/><feGaussianBlur stdDeviation="6.231"/><feComposite in2="hardAlpha" operator="out"/><feColorMatrix values="0 0 0 0 0.0585937 0 0 0 0 0.270833 0 0 0 0 0.164713 0 0 0 0.1 0"/><feBlend in2="effect1_dropShadow_1466_17647" mode="multiply" result="effect2_dropShadow_1466_17647"/><feColorMatrix in="SourceAlpha" result="hardAlpha" values="0 0 0 0 0 0 0 0 0 0 0 0 0 0 0 0 0 0 127 0"/><feOffset dy="1.558"/><feGaussianBlur stdDeviation="1.558"/><feComposite in2="hardAlpha" operator="out"/><feColorMatrix values="0 0 0 0 0.0585937 0 0 0 0 0.270833 0 0 0 0 0.164713 0 0 0 0.2 0"/><feBlend in2="effect2_dropShadow_1466_17647" mode="multiply" result="effect3_dropShadow_1466_17647"/><feBlend in="SourceGraphic" in2="effect3_dropShadow_1466_17647" result="shape"/></filter><filter id="g" width="196.207" height="144.863" x="311.678" y="72.542" color-interpolation-filters="sRGB" filterUnits="userSpaceOnUse"><feFlood flood-opacity="0" result="BackgroundImageFix"/><feColorMatrix in="SourceAlpha" result="hardAlpha" values="0 0 0 0 0 0 0 0 0 0 0 0 0 0 0 0 0 0 127 0"/><feOffset dy="12.462"/><feGaussianBlur stdDeviation="15.577"/><feComposite in2="hardAlpha" operator="out"/><feColorMatrix values="0 0 0 0 0.0585937 0 0 0 0 0.270833 0 0 0 0 0.164713 0 0 0 0.1 0"/><feBlend in2="BackgroundImageFix" mode="multiply" result="effect1_dropShadow_1466_17647"/><feColorMatrix in="SourceAlpha" result="hardAlpha" values="0 0 0 0 0 0 0 0 0 0 0 0 0 0 0 0 0 0 127 0"/><feOffset dy="6.231"/><feGaussianBlur stdDeviation="6.231"/><feComposite in2="hardAlpha" operator="out"/><feColorMatrix values="0 0 0 0 0.0585937 0 0 0 0 0.270833 0 0 0 0 0.164713 0 0 0 0.1 0"/><feBlend in2="effect1_dropShadow_1466_17647" mode="multiply" result="effect2_dropShadow_1466_17647"/><feColorMatrix in="SourceAlpha" result="hardAlpha" values="0 0 0 0 0 0 0 0 0 0 0 0 0 0 0 0 0 0 127 0"/><feOffset dy="1.558"/><feGaussianBlur stdDeviation="1.558"/><feComposite in2="hardAlpha" operator="out"/><feColorMatrix values="0 0 0 0 0.0585937 0 0 0 0 0.270833 0 0 0 0 0.164713 0 0 0 0.2 0"/><feBlend in2="effect2_dropShadow_1466_17647" mode="multiply" result="effect3_dropShadow_1466_17647"/><feBlend in="SourceGraphic" in2="effect3_dropShadow_1466_17647" result="shape"/></filter><linearGradient id="f" x1="387.312" x2="377.817" y1="133.855" y2="44.816" gradientUnits="userSpaceOnUse"><stop stop-color="#fff" stop-opacity=".6"/><stop offset=".459" stop-color="#fff" stop-opacity=".9"/></linearGradient></defs></svg>