<svg width="299" height="97" viewBox="0 0 299 97" fill="none" xmlns="http://www.w3.org/2000/svg">
<path d="M0.0342384 83.1992H2.25974V87.924H2.39669L6.26563 83.1992H8.93622L4.93033 87.9925L8.97046 93.8813H6.29987L3.35536 89.4647L2.2255 90.8342V93.8813H0V83.1992H0.0342384Z" fill="#585759"/>
<path d="M11.0616 93.5424C10.4796 93.2 10.0687 92.7207 9.76059 92.1044C9.45244 91.4881 9.28125 90.7691 9.28125 89.9474C9.28125 89.1257 9.45244 88.4067 9.76059 87.7562C10.0687 87.1057 10.5138 86.6606 11.0616 86.3182C11.6095 85.9759 12.2942 85.8047 13.0475 85.8047C13.8007 85.8047 14.4513 85.9759 14.9991 86.3182C15.5469 86.6606 15.992 87.14 16.3001 87.7562C16.6083 88.3725 16.7452 89.0915 16.7452 89.9474C16.7452 90.8034 16.6083 91.4881 16.3001 92.1044C15.992 92.7207 15.5469 93.2 14.9991 93.5424C14.417 93.8847 13.7665 94.0559 13.0475 94.0559C12.3285 94.0559 11.6437 93.8847 11.0616 93.5424ZM14.2116 92.3441C14.5197 92.1044 14.7594 91.762 14.9306 91.3169C15.1018 90.8718 15.1703 90.4268 15.1703 89.879C15.1703 89.3312 15.1018 88.8861 14.9306 88.441C14.7594 87.9959 14.5197 87.6878 14.2116 87.4139C13.9034 87.14 13.4926 87.0372 13.0132 87.0372C12.5339 87.0372 12.1573 87.1742 11.8149 87.4139C11.5067 87.6535 11.2328 87.9959 11.0959 88.441C10.9247 88.8518 10.8562 89.3312 10.8562 89.879C10.8562 90.4268 10.9247 90.8718 11.0959 91.3169C11.2671 91.7278 11.5067 92.0702 11.8149 92.3441C12.1573 92.5837 12.5339 92.7207 13.0132 92.7207C13.4926 92.7207 13.8692 92.5837 14.2116 92.3441Z" fill="#585759"/>
<path d="M17.873 85.8722H19.3795V87.1733H19.4823C19.6192 86.7282 19.8931 86.3858 20.2355 86.1461C20.6121 85.9065 21.023 85.7695 21.4681 85.7695C21.7078 85.7695 21.9474 85.7695 22.1528 85.8038V87.3102C22.1528 87.3102 21.9817 87.276 21.8105 87.2417C21.6393 87.2417 21.4681 87.2417 21.3311 87.2417C20.9887 87.2417 20.6464 87.3102 20.3725 87.4814C20.0985 87.6526 19.8589 87.858 19.6877 88.1319C19.5165 88.4058 19.448 88.714 19.448 89.0563V93.9523H17.873V85.9407V85.8722Z" fill="#585759"/>
<path d="M24.0705 93.5415C23.4884 93.1991 23.0433 92.7198 22.7352 92.1035C22.4271 91.4872 22.2559 90.7682 22.2559 89.9465C22.2559 89.1248 22.4271 88.4058 22.7352 87.7553C23.0433 87.1048 23.4884 86.6255 24.0363 86.2831C24.5841 85.9407 25.2346 85.7695 25.9878 85.7695C26.6384 85.7695 27.2204 85.9065 27.7682 86.1804C28.3161 86.4543 28.7269 86.8994 29.0693 87.5156C29.3774 88.1319 29.5486 88.8851 29.5486 89.8096V90.3574H23.1803V89.1933H28.0079C28.0079 88.7824 27.9394 88.4401 27.7682 88.0977C27.5971 87.7553 27.3574 87.5156 27.0492 87.3445C26.7411 87.1733 26.3987 87.0706 25.9878 87.0706C25.577 87.0706 25.1661 87.1733 24.858 87.3787C24.5498 87.5841 24.2759 87.858 24.1047 88.2004C23.9335 88.5428 23.8308 88.9194 23.8308 89.3302V90.2547C23.8308 90.7682 23.9335 91.2475 24.1047 91.6242C24.3102 92.0008 24.5498 92.2747 24.8922 92.4801C25.2346 92.6855 25.6112 92.7882 26.0906 92.7882C26.3645 92.7882 26.6384 92.754 26.878 92.6513C27.1177 92.5828 27.3231 92.4801 27.4601 92.3431C27.5971 92.2062 27.734 92.0692 27.8367 91.8981H29.4459C29.3432 92.3431 29.1035 92.7198 28.7954 93.0279C28.4872 93.336 28.1106 93.6099 27.6313 93.7811C27.152 93.9523 26.6384 94.055 26.0563 94.055C25.2688 94.055 24.6183 93.8838 24.0363 93.5415H24.0705Z" fill="#585759"/>
<path d="M34.3085 90.3222L33.521 90.3907C32.9732 90.4249 32.5624 90.5619 32.2884 90.7673C31.9803 90.9727 31.8433 91.2809 31.8433 91.6575C31.8433 91.8971 31.9118 92.1368 32.0488 92.2737C32.1857 92.4449 32.3569 92.5819 32.5966 92.6504C32.8363 92.7531 33.0759 92.7873 33.3841 92.7873C33.7949 92.7873 34.1716 92.7188 34.4797 92.5476C34.7879 92.3765 35.0275 92.171 35.1987 91.8971C35.3699 91.6232 35.4384 91.3151 35.4384 91.007V88.4734C35.4384 88.1652 35.3699 87.8913 35.2672 87.6859C35.1302 87.4805 34.959 87.3093 34.7194 87.2066C34.4797 87.1039 34.1716 87.0354 33.8292 87.0354C33.3841 87.0354 33.0075 87.1381 32.7335 87.3093C32.4596 87.4805 32.2542 87.7544 32.1857 88.0625H30.6108C30.6792 87.6174 30.8162 87.2066 31.1243 86.8642C31.3982 86.5218 31.7749 86.2479 32.2542 86.0425C32.7335 85.8371 33.2814 85.7344 33.8977 85.7344C34.4112 85.7344 34.8906 85.8028 35.3699 85.974C35.8492 86.1452 36.2259 86.4191 36.5682 86.83C36.9106 87.2408 37.0476 87.8229 37.0476 88.5419V93.8487H35.5069V92.7531H35.4384C35.3357 92.9585 35.1645 93.1639 34.959 93.3693C34.7536 93.5748 34.4797 93.7117 34.1716 93.8487C33.8634 93.9856 33.4868 94.0198 33.0759 94.0198C32.5624 94.0198 32.083 93.9171 31.6722 93.7459C31.2613 93.5405 30.9531 93.2666 30.7135 92.89C30.4738 92.5134 30.3711 92.1026 30.3711 91.589C30.3711 90.7673 30.645 90.151 31.2271 89.8086C31.8091 89.4663 32.4939 89.2608 33.3841 89.1924C33.4868 89.1924 33.9661 89.1581 34.7878 89.0897H35.6096V90.2195C35.4726 90.2195 35.096 90.2195 34.4112 90.288L34.3085 90.3222Z" fill="#585759"/>
<path d="M50.5035 93.8813H48.5862L43.8955 87.1023H43.8271V93.8813H41.6016V83.1992H43.5532L48.2096 89.9783H48.3123V83.1992H50.5035V93.8813Z" fill="#585759"/>
<path d="M55.5351 90.3222L54.7476 90.3907C54.1998 90.4249 53.7889 90.5619 53.515 90.7673C53.2069 90.9727 53.0699 91.2809 53.0699 91.6575C53.0699 91.8971 53.1384 92.1368 53.2753 92.2737C53.4123 92.4449 53.5835 92.5819 53.8232 92.6504C54.0628 92.7531 54.3025 92.7873 54.6106 92.7873C55.0215 92.7873 55.3981 92.7188 55.7063 92.5476C56.0144 92.3765 56.2541 92.171 56.4253 91.8971C56.5965 91.6232 56.6649 91.3151 56.6649 91.007V88.4734C56.6649 88.1652 56.5965 87.8913 56.4937 87.6859C56.3568 87.4805 56.1856 87.3093 55.9459 87.2066C55.7063 87.1039 55.3981 87.0354 55.0557 87.0354C54.6106 87.0354 54.234 87.1381 53.9601 87.3093C53.6862 87.4805 53.4808 87.7544 53.4123 88.0625H51.8373C51.9058 87.6174 52.0428 87.2066 52.3509 86.8642C52.6248 86.5218 53.0014 86.2479 53.4808 86.0425C53.9601 85.8371 54.5079 85.7344 55.1242 85.7344C55.6378 85.7344 56.1171 85.8028 56.5965 85.974C57.0758 86.1452 57.4524 86.4191 57.7948 86.83C58.1372 87.2408 58.2741 87.8229 58.2741 88.5419V93.8487H56.7334V92.7531H56.6649C56.5622 92.9585 56.391 93.1639 56.1856 93.3693C55.9802 93.5748 55.7063 93.7117 55.3981 93.8487C55.09 93.9856 54.7134 94.0198 54.3025 94.0198C53.7889 94.0198 53.3096 93.9171 52.8987 93.7459C52.4879 93.5405 52.1797 93.2666 51.94 92.89C51.7004 92.5134 51.5977 92.1026 51.5977 91.589C51.5977 90.7673 51.8716 90.151 52.4536 89.8086C53.0357 89.4663 53.7204 89.2608 54.6106 89.1924C54.7133 89.1924 55.1927 89.1581 56.0144 89.0897H56.8361V90.2195C56.6992 90.2195 56.3226 90.2195 55.6378 90.288L55.5351 90.3222Z" fill="#585759"/>
<path d="M63.3767 87.1333H58.9941V85.8665H63.3767V87.1333ZM61.7675 83.9492V91.5157C61.7675 91.7896 61.8017 92.0293 61.9044 92.1662C61.9729 92.3032 62.1098 92.4401 62.2468 92.4744C62.3837 92.5428 62.5549 92.5771 62.7261 92.5771C62.9658 92.5771 63.2397 92.5771 63.5136 92.5771V93.9466C63.2397 93.9808 62.8973 94.015 62.5549 94.015C62.1098 94.015 61.7332 93.9466 61.3908 93.7754C61.0484 93.6042 60.7403 93.3645 60.5349 93.0564C60.3294 92.7483 60.2267 92.3374 60.2267 91.8923V83.9835H61.8017L61.7675 83.9492Z" fill="#585759"/>
<path d="M64.7812 84.4991C64.7812 84.4991 64.5072 84.2937 64.4045 84.1567C64.3018 84.0198 64.2676 83.8486 64.2676 83.6774C64.2676 83.5062 64.3018 83.335 64.4045 83.1981C64.5072 83.0611 64.61 82.9584 64.7812 82.8557C64.9181 82.7872 65.0893 82.7188 65.2605 82.7188C65.4317 82.7188 65.6029 82.753 65.7741 82.8557C65.911 82.9242 66.048 83.0611 66.1164 83.1981C66.1849 83.335 66.2534 83.5062 66.2534 83.6774C66.2534 83.8486 66.2192 83.9855 66.1164 84.1567C66.0137 84.2937 65.911 84.4306 65.7741 84.4991C65.6371 84.5676 65.4659 84.636 65.2605 84.636C65.0893 84.636 64.9181 84.6018 64.7812 84.4991ZM64.473 85.8686H66.048V93.8802H64.473V85.8686Z" fill="#585759"/>
<path d="M68.921 93.5424C68.339 93.2 67.9281 92.7207 67.62 92.1044C67.3118 91.4881 67.1406 90.7691 67.1406 89.9474C67.1406 89.1257 67.3118 88.4067 67.62 87.7562C67.9281 87.1057 68.3732 86.6606 68.921 86.3182C69.4688 85.9759 70.1536 85.8047 70.9069 85.8047C71.6601 85.8047 72.3106 85.9759 72.8584 86.3182C73.4063 86.6606 73.8514 87.14 74.1595 87.7562C74.4676 88.3725 74.6046 89.0915 74.6046 89.9474C74.6046 90.8034 74.4676 91.4881 74.1595 92.1044C73.8514 92.7207 73.4063 93.2 72.8584 93.5424C72.2764 93.8847 71.6259 94.0559 70.9069 94.0559C70.1878 94.0559 69.5031 93.8847 68.921 93.5424ZM72.1052 92.3441C72.4133 92.1044 72.653 91.762 72.8242 91.3169C72.9954 90.8718 73.0639 90.4268 73.0639 89.879C73.0639 89.3312 72.9954 88.8861 72.8242 88.441C72.653 87.9959 72.4133 87.6878 72.1052 87.4139C71.797 87.14 71.3862 87.0372 70.9069 87.0372C70.4275 87.0372 70.0509 87.1742 69.7085 87.4139C69.4004 87.6535 69.1264 87.9959 68.9895 88.441C68.8183 88.8518 68.7498 89.3312 68.7498 89.879C68.7498 90.4268 68.8183 90.8718 68.9895 91.3169C69.1607 91.7278 69.4004 92.0702 69.7085 92.3441C70.0509 92.5837 70.4275 92.7207 70.9069 92.7207C71.3862 92.7207 71.7628 92.5837 72.1052 92.3441Z" fill="#585759"/>
<path d="M77.3113 93.8838H75.7363V85.8722H77.2428V87.1733H77.3455C77.551 86.7282 77.8249 86.3858 78.2357 86.1461C78.6466 85.9065 79.1259 85.7695 79.708 85.7695C80.2558 85.7695 80.7351 85.8722 81.146 86.1119C81.5569 86.3516 81.865 86.6939 82.1047 87.139C82.3443 87.5841 82.4471 88.1319 82.4471 88.7824V93.8838H80.8721V88.9879C80.8721 88.6112 80.8036 88.2689 80.6667 87.995C80.5297 87.7211 80.3243 87.5156 80.0846 87.3787C79.8449 87.2417 79.5368 87.1733 79.1602 87.1733C78.7835 87.1733 78.4754 87.2417 78.2015 87.4129C77.9276 87.5841 77.6879 87.7895 77.551 88.0977C77.414 88.4058 77.3113 88.7482 77.3113 89.1933V93.9523V93.8838Z" fill="#585759"/>
<path d="M87.5487 90.3222L86.7613 90.3907C86.2134 90.4249 85.8026 90.5619 85.5287 90.7673C85.2205 90.9727 85.0836 91.2809 85.0836 91.6575C85.0836 91.8971 85.1521 92.1368 85.289 92.2737C85.426 92.4449 85.5972 92.5819 85.8368 92.6504C86.0765 92.7531 86.3162 92.7873 86.6243 92.7873C87.0352 92.7873 87.4118 92.7188 87.7199 92.5476C88.0281 92.3765 88.2678 92.171 88.4389 91.8971C88.6101 91.6232 88.6786 91.3151 88.6786 91.007V88.4734C88.6786 88.1652 88.6101 87.8913 88.5074 87.6859C88.3705 87.4805 88.1993 87.3093 87.9596 87.2066C87.7199 87.1039 87.4118 87.0354 87.0694 87.0354C86.6243 87.0354 86.2477 87.1381 85.9738 87.3093C85.6999 87.4805 85.4944 87.7544 85.426 88.0625H83.851C83.9195 87.6174 84.0564 87.2066 84.3646 86.8642C84.6385 86.5218 85.0151 86.2479 85.4944 86.0425C85.9738 85.8371 86.5216 85.7344 87.1379 85.7344C87.6515 85.7344 88.1308 85.8028 88.6101 85.974C89.0895 86.1452 89.4661 86.4191 89.8085 86.83C90.1509 87.2408 90.2878 87.8229 90.2878 88.5419V93.8487H88.7471V92.7531H88.6786C88.5759 92.9585 88.4047 93.1639 88.1993 93.3693C87.9938 93.5748 87.7199 93.7117 87.4118 93.8487C87.1036 93.9856 86.727 94.0198 86.3162 94.0198C85.8026 94.0198 85.3233 93.9171 84.9124 93.7459C84.5015 93.5405 84.1934 93.2666 83.9537 92.89C83.714 92.5134 83.6113 92.1026 83.6113 91.589C83.6113 90.7673 83.8852 90.151 84.4673 89.8086C85.0493 89.4663 85.7341 89.2608 86.6243 89.1924C86.727 89.1924 87.2064 89.1581 88.0281 89.0897H88.8498V90.2195C88.7129 90.2195 88.3362 90.2195 87.6515 90.288L87.5487 90.3222Z" fill="#585759"/>
<path d="M93.2312 93.8813H91.6562V83.1992H93.2312V93.8813Z" fill="#585759"/>
<path d="M104.497 85.7663C104.292 85.5267 104.018 85.3213 103.744 85.2185C103.436 85.0816 103.093 85.0131 102.682 85.0131C102.135 85.0131 101.655 85.1501 101.244 85.424C100.834 85.6979 100.491 86.1087 100.286 86.6223C100.046 87.1358 99.9433 87.7864 99.9433 88.5053C99.9433 89.2243 100.046 89.8748 100.286 90.4226C100.525 90.9362 100.834 91.3471 101.244 91.621C101.655 91.8949 102.169 92.0318 102.717 92.0318C103.23 92.0318 103.675 91.9291 104.052 91.7579C104.429 91.5867 104.702 91.3128 104.908 90.9704C105.113 90.6281 105.216 90.2172 105.216 89.7721L105.661 89.8406H102.888V88.163H107.339V89.4982C107.339 90.4226 107.133 91.2101 106.757 91.8949C106.346 92.5796 105.832 93.0932 105.113 93.4698C104.429 93.8464 103.607 94.0176 102.717 94.0176C101.724 94.0176 100.834 93.7779 100.08 93.3671C99.327 92.922 98.745 92.2715 98.2999 91.4498C97.8548 90.6281 97.6836 89.6694 97.6836 88.5396C97.6836 87.4097 97.889 86.4511 98.3341 85.5952C98.7792 84.7735 99.3613 84.1229 100.115 83.6779C100.868 83.2328 101.724 83.0273 102.648 83.0273C103.436 83.0273 104.189 83.1643 104.839 83.4724C105.49 83.7806 106.038 84.1914 106.449 84.7392C106.859 85.287 107.133 85.9033 107.202 86.6223H104.942C104.839 86.2799 104.702 86.006 104.497 85.7321V85.7663Z" fill="#585759"/>
<path d="M109.975 93.5415C109.393 93.1991 108.948 92.7198 108.639 92.1035C108.331 91.4872 108.16 90.7682 108.16 89.9465C108.16 89.1248 108.331 88.4058 108.639 87.7553C108.948 87.1048 109.393 86.6255 109.941 86.2831C110.488 85.9407 111.139 85.7695 111.892 85.7695C112.543 85.7695 113.125 85.9065 113.673 86.1804C114.22 86.4543 114.631 86.8994 114.974 87.5156C115.282 88.1319 115.453 88.8851 115.453 89.8096V90.3574H109.085V89.1933H113.912C113.912 88.7824 113.844 88.4401 113.673 88.0977C113.501 87.7553 113.262 87.5156 112.954 87.3445C112.645 87.1733 112.303 87.0706 111.892 87.0706C111.481 87.0706 111.07 87.1733 110.762 87.3787C110.454 87.5841 110.18 87.858 110.009 88.2004C109.838 88.5428 109.735 88.9194 109.735 89.3302V90.2547C109.735 90.7682 109.838 91.2475 110.009 91.6242C110.214 92.0008 110.454 92.2747 110.797 92.4801C111.139 92.6855 111.516 92.7882 111.995 92.7882C112.269 92.7882 112.543 92.754 112.782 92.6513C113.022 92.5828 113.227 92.4801 113.364 92.3431C113.501 92.2062 113.638 92.0692 113.741 91.8981H115.35C115.248 92.3431 115.008 92.7198 114.7 93.0279C114.392 93.336 114.015 93.6099 113.536 93.7811C113.056 93.9523 112.543 94.055 111.961 94.055C111.173 94.055 110.523 93.8838 109.941 93.5415H109.975Z" fill="#585759"/>
<path d="M117.95 93.5424C117.368 93.2 116.957 92.7207 116.649 92.1044C116.341 91.4881 116.17 90.7691 116.17 89.9474C116.17 89.1257 116.341 88.4067 116.649 87.7562C116.957 87.1057 117.403 86.6606 117.95 86.3182C118.498 85.9759 119.183 85.8047 119.936 85.8047C120.689 85.8047 121.34 85.9759 121.888 86.3182C122.436 86.6606 122.881 87.14 123.189 87.7562C123.497 88.3725 123.634 89.0915 123.634 89.9474C123.634 90.8034 123.497 91.4881 123.189 92.1044C122.881 92.7207 122.436 93.2 121.888 93.5424C121.306 93.8847 120.655 94.0559 119.936 94.0559C119.217 94.0559 118.532 93.8847 117.95 93.5424ZM121.134 92.3441C121.443 92.1044 121.682 91.762 121.854 91.3169C122.025 90.8718 122.093 90.4268 122.093 89.879C122.093 89.3312 122.025 88.8861 121.854 88.441C121.682 87.9959 121.443 87.6878 121.134 87.4139C120.826 87.14 120.415 87.0372 119.936 87.0372C119.457 87.0372 119.08 87.1742 118.738 87.4139C118.43 87.6535 118.156 87.9959 118.019 88.441C117.848 88.8518 117.779 89.3312 117.779 89.879C117.779 90.4268 117.848 90.8718 118.019 91.3169C118.19 91.7278 118.43 92.0702 118.738 92.3441C119.08 92.5837 119.457 92.7207 119.936 92.7207C120.415 92.7207 120.792 92.5837 121.134 92.3441Z" fill="#585759"/>
<path d="M126.374 96.7589C125.861 96.5534 125.45 96.2795 125.176 95.9372C124.868 95.5948 124.697 95.1497 124.662 94.6361H126.272C126.34 95.0127 126.546 95.2866 126.888 95.4921C127.23 95.6633 127.641 95.766 128.189 95.766C128.84 95.766 129.353 95.629 129.696 95.3209C130.038 95.047 130.243 94.5677 130.243 93.9856V92.4107H130.141C130.004 92.6504 129.867 92.8558 129.696 93.0612C129.524 93.2324 129.285 93.4036 128.977 93.5405C128.668 93.6775 128.292 93.746 127.812 93.746C127.162 93.746 126.614 93.5748 126.1 93.2666C125.587 92.9585 125.176 92.5134 124.902 91.8971C124.594 91.3151 124.457 90.5961 124.457 89.7402C124.457 88.8842 124.594 88.1995 124.902 87.5832C125.176 86.9669 125.587 86.5218 126.1 86.2137C126.614 85.9056 127.196 85.7344 127.847 85.7344C128.292 85.7344 128.668 85.8028 128.977 85.9398C129.285 86.0767 129.524 86.2479 129.661 86.4191C129.798 86.5903 129.969 86.83 130.141 87.1039H130.243V85.8028H131.784V93.9856C131.784 94.6361 131.613 95.1839 131.305 95.6633C130.997 96.1426 130.586 96.4507 130.038 96.6561C129.49 96.8616 128.874 96.9985 128.155 96.9985C127.504 96.9985 126.888 96.8958 126.374 96.7246V96.7589ZM129.25 92.1368C129.559 91.9314 129.798 91.6232 129.969 91.2466C130.141 90.87 130.209 90.3907 130.209 89.8429C130.209 89.2951 130.141 88.8157 129.969 88.4049C129.798 87.994 129.559 87.6859 129.25 87.4463C128.942 87.2066 128.566 87.1039 128.121 87.1039C127.675 87.1039 127.299 87.2066 126.991 87.4463C126.683 87.6859 126.443 87.994 126.272 88.4049C126.1 88.8157 126.032 89.2951 126.032 89.8086C126.032 90.3222 126.1 90.8015 126.272 91.1781C126.443 91.589 126.683 91.8971 126.991 92.1026C127.299 92.308 127.675 92.4449 128.121 92.4449C128.566 92.4449 128.942 92.3422 129.25 92.1368Z" fill="#585759"/>
<path d="M133.225 85.8722H134.731V87.1733H134.834C134.971 86.7282 135.245 86.3858 135.587 86.1461C135.964 85.9065 136.375 85.7695 136.82 85.7695C137.059 85.7695 137.299 85.7695 137.504 85.8038V87.3102C137.504 87.3102 137.333 87.276 137.162 87.2417C136.991 87.2417 136.82 87.2417 136.683 87.2417C136.34 87.2417 135.998 87.3102 135.724 87.4814C135.45 87.6526 135.21 87.858 135.039 88.1319C134.868 88.4058 134.8 88.714 134.8 89.0563V93.9523H133.225V85.9407V85.8722Z" fill="#585759"/>
<path d="M141.816 90.3222L141.029 90.3907C140.481 90.4249 140.07 90.5619 139.796 90.7673C139.488 90.9727 139.351 91.2809 139.351 91.6575C139.351 91.8971 139.42 92.1368 139.557 92.2737C139.694 92.4449 139.865 92.5819 140.104 92.6504C140.344 92.7531 140.584 92.7873 140.892 92.7873C141.303 92.7873 141.679 92.7188 141.988 92.5476C142.296 92.3765 142.535 92.171 142.707 91.8971C142.878 91.6232 142.946 91.3151 142.946 91.007V88.4734C142.946 88.1652 142.878 87.8913 142.775 87.6859C142.638 87.4805 142.467 87.3093 142.227 87.2066C141.988 87.1039 141.679 87.0354 141.337 87.0354C140.892 87.0354 140.515 87.1381 140.241 87.3093C139.967 87.4805 139.762 87.7544 139.694 88.0625H138.119C138.187 87.6174 138.324 87.2066 138.632 86.8642C138.906 86.5218 139.283 86.2479 139.762 86.0425C140.241 85.8371 140.789 85.7344 141.405 85.7344C141.919 85.7344 142.398 85.8028 142.878 85.974C143.357 86.1452 143.734 86.4191 144.076 86.83C144.418 87.2408 144.555 87.8229 144.555 88.5419V93.8487H143.015V92.7531H142.946C142.843 92.9585 142.672 93.1639 142.467 93.3693C142.261 93.5748 141.988 93.7117 141.679 93.8487C141.371 93.9856 140.995 94.0198 140.584 94.0198C140.07 94.0198 139.591 93.9171 139.18 93.7459C138.769 93.5405 138.461 93.2666 138.221 92.89C137.982 92.5134 137.879 92.1026 137.879 91.589C137.879 90.7673 138.153 90.151 138.735 89.8086C139.317 89.4663 140.002 89.2608 140.892 89.1924C140.995 89.1924 141.474 89.1581 142.296 89.0897H143.117V90.2195C142.98 90.2195 142.604 90.2195 141.919 90.288L141.816 90.3222Z" fill="#585759"/>
<path d="M145.926 85.8722H147.467V87.1733H147.603C147.74 86.8994 147.912 86.6939 148.083 86.4885C148.254 86.3173 148.459 86.1461 148.768 85.975C149.076 85.8038 149.452 85.7695 149.897 85.7695C150.548 85.7695 151.13 85.9407 151.644 86.2489C152.157 86.557 152.534 87.0363 152.842 87.6868C153.116 88.3031 153.253 89.0563 153.253 89.9123C153.253 90.7682 153.116 91.4872 152.842 92.1035C152.568 92.7197 152.157 93.1991 151.644 93.5415C151.13 93.8838 150.548 94.055 149.932 94.055C149.487 94.055 149.11 93.9865 148.802 93.8154C148.494 93.6442 148.254 93.5072 148.083 93.3018C147.912 93.1306 147.775 92.8909 147.603 92.6513H147.501V96.8967H145.926V85.8722ZM147.706 91.3503C147.877 91.7611 148.117 92.1035 148.425 92.3431C148.733 92.5828 149.11 92.6855 149.555 92.6855C150 92.6855 150.377 92.5486 150.719 92.3089C151.062 92.0692 151.267 91.7269 151.438 91.316C151.609 90.9052 151.678 90.3916 151.678 89.8438C151.678 89.296 151.609 88.8167 151.438 88.4058C151.267 87.995 151.027 87.6526 150.719 87.4129C150.411 87.1733 150.034 87.0706 149.555 87.0706C149.076 87.0706 148.733 87.1733 148.425 87.4129C148.117 87.6526 147.877 87.9607 147.706 88.3716C147.535 88.7824 147.467 89.2618 147.467 89.8438C147.467 90.4258 147.535 90.9052 147.706 91.316V91.3503Z" fill="#585759"/>
<path d="M155.956 93.8813H154.381V83.1992H155.922V87.1708H156.024C156.23 86.7257 156.504 86.3833 156.914 86.1436C157.291 85.904 157.805 85.767 158.421 85.767C158.969 85.767 159.482 85.8697 159.893 86.1094C160.304 86.3491 160.612 86.6915 160.852 87.1365C161.092 87.5816 161.194 88.1294 161.194 88.7799V93.8813H159.619V88.9854C159.619 88.6087 159.551 88.2664 159.414 87.9925C159.277 87.7186 159.072 87.5132 158.832 87.3762C158.592 87.2393 158.284 87.1708 157.907 87.1708C157.531 87.1708 157.188 87.2393 156.914 87.4104C156.641 87.5816 156.401 87.787 156.23 88.0952C156.059 88.4033 155.99 88.7457 155.99 89.1908V93.9498L155.956 93.8813Z" fill="#585759"/>
<path d="M162.906 84.4991C162.906 84.4991 162.632 84.2937 162.53 84.1567C162.427 84.0198 162.393 83.8486 162.393 83.6774C162.393 83.5062 162.427 83.335 162.53 83.1981C162.632 83.0611 162.735 82.9584 162.906 82.8557C163.043 82.7872 163.214 82.7188 163.385 82.7188C163.557 82.7188 163.728 82.753 163.899 82.8557C164.036 82.9242 164.173 83.0611 164.241 83.1981C164.31 83.335 164.378 83.5062 164.378 83.6774C164.378 83.8486 164.344 83.9855 164.241 84.1567C164.139 84.2937 164.036 84.4306 163.899 84.4991C163.762 84.5676 163.591 84.636 163.385 84.636C163.214 84.636 163.043 84.6018 162.906 84.4991ZM162.598 85.8686H164.173V93.8802H162.598V85.8686Z" fill="#585759"/>
<path d="M167.051 93.5072C166.469 93.1648 166.058 92.6513 165.75 92.035C165.442 91.4187 165.305 90.6997 165.305 89.9123C165.305 89.1248 165.476 88.3716 165.784 87.7553C166.092 87.139 166.537 86.6255 167.085 86.2831C167.633 85.9407 168.283 85.7695 169.037 85.7695C169.653 85.7695 170.201 85.8722 170.68 86.1119C171.159 86.3516 171.536 86.6597 171.844 87.0706C172.152 87.4814 172.324 87.9607 172.358 88.4743H170.817C170.749 88.2346 170.646 87.995 170.509 87.7895C170.372 87.5841 170.167 87.4129 169.927 87.276C169.687 87.139 169.413 87.1048 169.071 87.1048C168.626 87.1048 168.249 87.2075 167.941 87.4472C167.599 87.6868 167.359 87.995 167.188 88.4058C167.017 88.8167 166.914 89.3302 166.914 89.878C166.914 90.4258 167.017 90.9394 167.188 91.3845C167.359 91.7953 167.633 92.1377 167.941 92.3774C168.283 92.617 168.66 92.7198 169.105 92.7198C169.413 92.7198 169.687 92.6513 169.927 92.5486C170.167 92.4459 170.372 92.2747 170.543 92.0692C170.714 91.8638 170.817 91.6242 170.886 91.316H172.426C172.358 91.8296 172.187 92.3089 171.913 92.7198C171.639 93.1306 171.262 93.4387 170.783 93.6784C170.303 93.9181 169.756 94.0208 169.139 94.0208C168.386 94.0208 167.701 93.8496 167.154 93.473L167.051 93.5072Z" fill="#585759"/>
<path d="M178.761 93.8813H176.535V83.1992H178.761V93.8813Z" fill="#585759"/>
<path d="M181.739 93.8838H180.164V85.8722H181.671V87.1733H181.773C181.979 86.7282 182.253 86.3858 182.663 86.1461C183.074 85.9065 183.554 85.7695 184.136 85.7695C184.684 85.7695 185.163 85.8722 185.574 86.1119C185.985 86.3516 186.293 86.6939 186.532 87.139C186.772 87.5841 186.875 88.1319 186.875 88.7824V93.8838H185.3V88.9879C185.3 88.6112 185.231 88.2689 185.094 87.995C184.957 87.7211 184.752 87.5156 184.512 87.3787C184.273 87.2417 183.965 87.1733 183.588 87.1733C183.211 87.1733 182.903 87.2417 182.629 87.4129C182.355 87.5841 182.116 87.7895 181.979 88.0977C181.842 88.4058 181.739 88.7482 181.739 89.1933V93.9523V93.8838Z" fill="#585759"/>
<path d="M192.146 87.1354H187.627V85.8686H192.146V87.1354ZM189.133 83.7459C189.339 83.4035 189.613 83.1638 189.955 82.9926C190.298 82.8215 190.743 82.7188 191.222 82.7188C191.393 82.7188 191.599 82.7188 191.77 82.7188C191.941 82.7188 192.112 82.753 192.283 82.7872V84.0882C192.009 84.054 191.804 84.0198 191.599 84.0198C191.188 84.0198 190.88 84.1225 190.674 84.2937C190.469 84.4649 190.366 84.7388 190.366 85.1496V93.8802H188.791V84.9442C188.791 84.4649 188.894 84.054 189.099 83.7459H189.133Z" fill="#585759"/>
<path d="M194.202 93.5424C193.62 93.2 193.209 92.7207 192.901 92.1044C192.593 91.4881 192.422 90.7691 192.422 89.9474C192.422 89.1257 192.593 88.4067 192.901 87.7562C193.209 87.1057 193.654 86.6606 194.202 86.3182C194.75 85.9759 195.435 85.8047 196.188 85.8047C196.941 85.8047 197.592 85.9759 198.14 86.3182C198.688 86.6606 199.133 87.14 199.441 87.7562C199.749 88.3725 199.886 89.0915 199.886 89.9474C199.886 90.8034 199.749 91.4881 199.441 92.1044C199.133 92.7207 198.688 93.2 198.14 93.5424C197.558 93.8847 196.907 94.0559 196.188 94.0559C195.469 94.0559 194.784 93.8847 194.202 93.5424ZM197.386 92.3441C197.695 92.1044 197.934 91.762 198.105 91.3169C198.277 90.8718 198.345 90.4268 198.345 89.879C198.345 89.3312 198.277 88.8861 198.105 88.441C197.934 87.9959 197.695 87.6878 197.386 87.4139C197.078 87.14 196.667 87.0372 196.188 87.0372C195.709 87.0372 195.332 87.1742 194.99 87.4139C194.682 87.6535 194.408 87.9959 194.271 88.441C194.1 88.8518 194.031 89.3312 194.031 89.879C194.031 90.4268 194.1 90.8718 194.271 91.3169C194.442 91.7278 194.682 92.0702 194.99 92.3441C195.332 92.5837 195.709 92.7207 196.188 92.7207C196.667 92.7207 197.044 92.5837 197.386 92.3441Z" fill="#585759"/>
<path d="M201.014 85.8722H202.52V87.1733H202.623C202.76 86.7282 203.034 86.3858 203.376 86.1461C203.753 85.9065 204.164 85.7695 204.609 85.7695C204.848 85.7695 205.088 85.7695 205.293 85.8038V87.3102C205.293 87.3102 205.122 87.276 204.951 87.2417C204.78 87.2417 204.609 87.2417 204.472 87.2417C204.129 87.2417 203.787 87.3102 203.513 87.4814C203.239 87.6526 202.999 87.858 202.828 88.1319C202.657 88.4058 202.589 88.714 202.589 89.0563V93.9523H201.014V85.9407V85.8722Z" fill="#585759"/>
<path d="M206.046 85.8722H207.552V87.1733H207.655C207.826 86.7282 208.1 86.3858 208.477 86.1461C208.854 85.9065 209.299 85.7695 209.812 85.7695C210.155 85.7695 210.463 85.838 210.771 85.9407C211.045 86.0434 211.284 86.2146 211.49 86.42C211.695 86.6255 211.866 86.8994 211.969 87.1733H212.038C212.175 86.8651 212.346 86.6255 212.586 86.42C212.825 86.2146 213.099 86.0434 213.407 85.9407C213.715 85.838 214.058 85.7695 214.469 85.7695C214.948 85.7695 215.393 85.8722 215.77 86.0777C216.146 86.2831 216.42 86.5912 216.626 87.0021C216.831 87.4129 216.934 87.9265 216.934 88.5085V93.8838H215.359V88.6797C215.359 88.1662 215.222 87.7895 214.948 87.5156C214.674 87.2417 214.297 87.139 213.887 87.139C213.544 87.139 213.27 87.2075 213.031 87.3445C212.791 87.4814 212.62 87.6868 212.483 87.9265C212.346 88.1662 212.277 88.4743 212.277 88.7824V93.8838H210.702V88.5428C210.702 88.2689 210.634 88.0292 210.531 87.7895C210.394 87.5841 210.223 87.4129 210.018 87.276C209.812 87.1733 209.538 87.1048 209.264 87.1048C208.99 87.1048 208.717 87.1733 208.443 87.3445C208.203 87.4814 207.998 87.7211 207.826 87.995C207.689 88.2689 207.587 88.577 207.587 88.9536V93.8838H206.012V85.8722H206.046Z" fill="#585759"/>
<path d="M222.072 90.3222L221.285 90.3907C220.737 90.4249 220.326 90.5619 220.052 90.7673C219.744 90.9727 219.607 91.2809 219.607 91.6575C219.607 91.8971 219.675 92.1368 219.812 92.2737C219.949 92.4449 220.121 92.5819 220.36 92.6504C220.6 92.7531 220.84 92.7873 221.148 92.7873C221.559 92.7873 221.935 92.7188 222.243 92.5476C222.552 92.3765 222.791 92.171 222.962 91.8971C223.134 91.6232 223.202 91.3151 223.202 91.007V88.4734C223.202 88.1652 223.134 87.8913 223.031 87.6859C222.894 87.4805 222.723 87.3093 222.483 87.2066C222.243 87.1039 221.935 87.0354 221.593 87.0354C221.148 87.0354 220.771 87.1381 220.497 87.3093C220.223 87.4805 220.018 87.7544 219.949 88.0625H218.374C218.443 87.6174 218.58 87.2066 218.888 86.8642C219.162 86.5218 219.539 86.2479 220.018 86.0425C220.497 85.8371 221.045 85.7344 221.661 85.7344C222.175 85.7344 222.654 85.8028 223.134 85.974C223.613 86.1452 223.99 86.4191 224.332 86.83C224.674 87.2408 224.811 87.8229 224.811 88.5419V93.8487H223.271V92.7531H223.202C223.099 92.9585 222.928 93.1639 222.723 93.3693C222.517 93.5748 222.243 93.7117 221.935 93.8487C221.627 93.9856 221.25 94.0198 220.84 94.0198C220.326 94.0198 219.847 93.9171 219.436 93.7459C219.025 93.5405 218.717 93.2666 218.477 92.89C218.237 92.5134 218.135 92.1026 218.135 91.589C218.135 90.7673 218.409 90.151 218.991 89.8086C219.573 89.4663 220.258 89.2608 221.148 89.1924C221.25 89.1924 221.73 89.1581 222.552 89.0897H223.373V90.2195C223.236 90.2195 222.86 90.2195 222.175 90.288L222.072 90.3222Z" fill="#585759"/>
<path d="M229.912 87.1333H225.529V85.8665H229.912V87.1333ZM228.303 83.9492V91.5157C228.303 91.7896 228.337 92.0293 228.44 92.1662C228.508 92.3032 228.645 92.4401 228.782 92.4744C228.919 92.5428 229.09 92.5771 229.261 92.5771C229.501 92.5771 229.775 92.5771 230.049 92.5771V93.9466C229.775 93.9808 229.432 94.015 229.09 94.015C228.645 94.015 228.268 93.9466 227.926 93.7754C227.584 93.6042 227.275 93.3645 227.07 93.0564C226.865 92.7483 226.762 92.3374 226.762 91.8923V83.9835H228.337L228.303 83.9492Z" fill="#585759"/>
<path d="M231.314 84.4991C231.314 84.4991 231.04 84.2937 230.938 84.1567C230.835 84.0198 230.801 83.8486 230.801 83.6774C230.801 83.5062 230.835 83.335 230.938 83.1981C231.04 83.0611 231.143 82.9584 231.314 82.8557C231.451 82.7872 231.623 82.7188 231.794 82.7188C231.965 82.7188 232.136 82.753 232.307 82.8557C232.444 82.9242 232.581 83.0611 232.65 83.1981C232.718 83.335 232.787 83.5062 232.787 83.6774C232.787 83.8486 232.752 83.9855 232.65 84.1567C232.547 84.2937 232.444 84.4306 232.307 84.4991C232.17 84.5676 231.999 84.636 231.794 84.636C231.623 84.636 231.451 84.6018 231.314 84.4991ZM231.006 85.8686H232.581V93.8802H231.006V85.8686Z" fill="#585759"/>
<path d="M235.458 93.5424C234.876 93.2 234.465 92.7207 234.157 92.1044C233.849 91.4881 233.678 90.7691 233.678 89.9474C233.678 89.1257 233.849 88.4067 234.157 87.7562C234.465 87.1057 234.91 86.6606 235.458 86.3182C236.006 85.9759 236.691 85.8047 237.444 85.8047C238.197 85.8047 238.848 85.9759 239.396 86.3182C239.943 86.6606 240.388 87.14 240.697 87.7562C241.005 88.3725 241.142 89.0915 241.142 89.9474C241.142 90.8034 241.005 91.4881 240.697 92.1044C240.388 92.7207 239.943 93.2 239.396 93.5424C238.814 93.8847 238.163 94.0559 237.444 94.0559C236.725 94.0559 236.04 93.8847 235.458 93.5424ZM238.608 92.3441C238.916 92.1044 239.156 91.762 239.327 91.3169C239.498 90.8718 239.567 90.4268 239.567 89.879C239.567 89.3312 239.498 88.8861 239.327 88.441C239.156 87.9959 238.916 87.6878 238.608 87.4139C238.3 87.14 237.889 87.0372 237.41 87.0372C236.93 87.0372 236.554 87.1742 236.211 87.4139C235.903 87.6535 235.629 87.9959 235.492 88.441C235.321 88.8518 235.253 89.3312 235.253 89.879C235.253 90.4268 235.321 90.8718 235.492 91.3169C235.664 91.7278 235.903 92.0702 236.211 92.3441C236.554 92.5837 236.93 92.7207 237.41 92.7207C237.889 92.7207 238.266 92.5837 238.608 92.3441Z" fill="#585759"/>
<path d="M243.848 93.8838H242.273V85.8722H243.78V87.1733H243.883C244.088 86.7282 244.362 86.3858 244.773 86.1461C245.184 85.9065 245.663 85.7695 246.245 85.7695C246.793 85.7695 247.272 85.8722 247.683 86.1119C248.094 86.3516 248.402 86.6939 248.642 87.139C248.881 87.5841 248.984 88.1319 248.984 88.7824V93.8838H247.409V88.9879C247.409 88.6112 247.341 88.2689 247.204 87.995C247.067 87.7211 246.861 87.5156 246.622 87.3787C246.382 87.2417 246.074 87.1733 245.697 87.1733C245.321 87.1733 245.013 87.2417 244.739 87.4129C244.465 87.5841 244.225 87.7895 244.088 88.0977C243.951 88.4058 243.848 88.7482 243.848 89.1933V93.9523V93.8838Z" fill="#585759"/>
<path d="M253.605 83.1992H255.831V92.0667H260.419V93.8813H253.605V83.1992Z" fill="#585759"/>
<path d="M261.756 84.4991C261.756 84.4991 261.482 84.2937 261.379 84.1567C261.276 84.0198 261.242 83.8486 261.242 83.6774C261.242 83.5062 261.276 83.335 261.379 83.1981C261.482 83.0611 261.585 82.9584 261.756 82.8557C261.893 82.7872 262.064 82.7188 262.235 82.7188C262.406 82.7188 262.577 82.753 262.749 82.8557C262.886 82.9242 263.023 83.0611 263.091 83.1981C263.16 83.335 263.228 83.5062 263.228 83.6774C263.228 83.8486 263.194 83.9855 263.091 84.1567C262.988 84.2937 262.886 84.4306 262.749 84.4991C262.612 84.5676 262.441 84.636 262.235 84.636C262.064 84.636 261.893 84.6018 261.756 84.4991ZM261.482 85.8686H263.057V93.8802H261.482V85.8686Z" fill="#585759"/>
<path d="M264.63 83.1992H266.205V87.1708H266.308C266.479 86.8626 266.65 86.6572 266.787 86.486C266.924 86.3148 267.164 86.1437 267.472 86.0067C267.78 85.8698 268.157 85.8013 268.602 85.8013C269.252 85.8013 269.834 85.9725 270.348 86.2806C270.861 86.623 271.272 87.0681 271.546 87.7186C271.82 88.3349 271.991 89.0881 271.991 89.944C271.991 90.8 271.854 91.5189 271.546 92.1352C271.272 92.7515 270.861 93.2308 270.348 93.5732C269.834 93.9156 269.252 94.0868 268.602 94.0868C268.157 94.0868 267.78 94.0183 267.472 93.8471C267.164 93.6759 266.924 93.539 266.753 93.3335C266.582 93.1623 266.445 92.9227 266.273 92.683H266.136V93.9156H264.596V83.2335L264.63 83.1992ZM266.41 91.3478C266.582 91.7586 266.821 92.101 267.129 92.3406C267.438 92.5803 267.814 92.683 268.259 92.683C268.704 92.683 269.081 92.5461 269.423 92.3064C269.766 92.0667 269.971 91.7244 270.142 91.3135C270.314 90.9027 270.382 90.3891 270.382 89.8413C270.382 89.2935 270.314 88.8142 270.142 88.4033C269.971 87.9925 269.731 87.6501 269.423 87.4104C269.115 87.1708 268.704 87.0681 268.259 87.0681C267.814 87.0681 267.438 87.1708 267.129 87.4104C266.821 87.6501 266.582 87.9582 266.41 88.3691C266.239 88.7799 266.171 89.2593 266.171 89.8413C266.171 90.4233 266.239 90.9027 266.41 91.3135V91.3478Z" fill="#585759"/>
<path d="M273.086 85.8722H274.592V87.1733H274.695C274.832 86.7282 275.106 86.3858 275.448 86.1461C275.825 85.9065 276.236 85.7695 276.681 85.7695C276.921 85.7695 277.16 85.7695 277.366 85.8038V87.3102C277.366 87.3102 277.195 87.276 277.023 87.2417C276.852 87.2417 276.681 87.2417 276.544 87.2417C276.202 87.2417 275.859 87.3102 275.585 87.4814C275.311 87.6526 275.072 87.858 274.901 88.1319C274.729 88.4058 274.661 88.714 274.661 89.0563V93.9523H273.086V85.9407V85.8722Z" fill="#585759"/>
<path d="M281.682 90.3222L280.894 90.3907C280.346 90.4249 279.935 90.5619 279.661 90.7673C279.353 90.9727 279.216 91.2809 279.216 91.6575C279.216 91.8971 279.285 92.1368 279.422 92.2737C279.559 92.4449 279.73 92.5819 279.97 92.6504C280.209 92.7531 280.449 92.7873 280.757 92.7873C281.168 92.7873 281.545 92.7188 281.853 92.5476C282.161 92.3765 282.401 92.171 282.572 91.8971C282.743 91.6232 282.811 91.3151 282.811 91.007V88.4734C282.811 88.1652 282.743 87.8913 282.64 87.6859C282.503 87.4805 282.332 87.3093 282.092 87.2066C281.853 87.1039 281.545 87.0354 281.202 87.0354C280.757 87.0354 280.381 87.1381 280.107 87.3093C279.833 87.4805 279.627 87.7544 279.559 88.0625H277.984C278.052 87.6174 278.189 87.2066 278.497 86.8642C278.771 86.5218 279.148 86.2479 279.627 86.0425C280.107 85.8371 280.654 85.7344 281.271 85.7344C281.784 85.7344 282.264 85.8028 282.743 85.974C283.222 86.1452 283.599 86.4191 283.941 86.83C284.284 87.2408 284.421 87.8229 284.421 88.5419V93.8487H282.88V92.7531H282.811C282.709 92.9585 282.538 93.1639 282.332 93.3693C282.127 93.5748 281.853 93.7117 281.545 93.8487C281.236 93.9856 280.86 94.0198 280.449 94.0198C279.935 94.0198 279.456 93.9171 279.045 93.7459C278.634 93.5405 278.326 93.2666 278.087 92.89C277.847 92.5134 277.744 92.1026 277.744 91.589C277.744 90.7673 278.018 90.151 278.6 89.8086C279.182 89.4663 279.867 89.2608 280.757 89.1924C280.86 89.1924 281.339 89.1581 282.161 89.0897H282.983V90.2195C282.846 90.2195 282.469 90.2195 281.784 90.288L281.682 90.3222Z" fill="#585759"/>
<path d="M285.787 85.8722H287.294V87.1733H287.396C287.533 86.7282 287.807 86.3858 288.15 86.1461C288.526 85.9065 288.937 85.7695 289.382 85.7695C289.622 85.7695 289.861 85.7695 290.067 85.8038V87.3102C290.067 87.3102 289.896 87.276 289.725 87.2417C289.553 87.2417 289.382 87.2417 289.245 87.2417C288.903 87.2417 288.56 87.3102 288.287 87.4814C288.013 87.6526 287.773 87.858 287.602 88.1319C287.431 88.4058 287.362 88.714 287.362 89.0563V93.9523H285.787V85.9407V85.8722Z" fill="#585759"/>
<path d="M291.198 96.8634V95.5281H291.472C291.472 95.5281 291.711 95.5281 291.882 95.5281C292.088 95.5281 292.259 95.5281 292.396 95.4597C292.533 95.4254 292.67 95.3227 292.807 95.1515C292.944 94.9803 293.047 94.7749 293.149 94.4325L293.355 93.919L290.41 85.8047H292.122L294.142 92.0017H294.245L296.265 85.8047H297.977L294.656 94.8776C294.416 95.5281 294.074 96.0075 293.663 96.3156C293.252 96.658 292.704 96.7949 292.054 96.7949C291.745 96.7949 291.472 96.7949 291.198 96.7949V96.8634Z" fill="#585759"/>
<path d="M39.0327 71.5927L19.1402 40.9501V71.5927H0.0351562V2.26172H19.1402V31.5006L37.4577 2.26172H59.61L37.4235 35.8487L61.6985 71.5927H39.0327Z" fill="#231815"/>
<path d="M128.943 2.26172V71.5927H112.543L86.2477 33.9657V71.5927H67.0742V2.26172H84.4331L109.804 38.622V2.26172H128.909H128.943Z" fill="#231815"/>
<path d="M221.9 2.26172H241.245V71.5927H221.9V2.26172Z" fill="#231815"/>
<path d="M298.697 54.0973V71.5927H254.666V2.26172H274.011V54.0973H298.697Z" fill="#231815"/>
<path d="M190.265 3.18409C185.78 1.43798 180.781 0.513563 175.577 0.513563C154.212 0.513563 138.805 15.8862 138.805 36.9765C138.805 49.7129 144.523 60.3265 153.733 66.7289L159.587 58.7516L164.689 51.8014C160.683 48.583 158.355 43.3789 158.355 37.0108C158.355 25.952 165.339 18.4198 175.714 18.4198C179.822 18.4198 183.623 19.6866 186.567 21.8778L191.498 15.133L197.489 6.95022L202.557 0L190.231 3.18409H190.265Z" fill="url(#paint0_linear_1963_24390)"/>
<path d="M177.255 34.5489L168.421 46.6006H191.429C189.238 51.9416 182.972 55.4681 175.68 55.4681C171.263 55.4681 167.531 54.1328 164.621 51.7704L159.519 58.7206L153.664 66.698L148.426 73.8194L160.889 70.6011C165.34 72.3814 170.338 73.3058 175.68 73.3058C197.421 73.3058 212.212 57.1799 212.212 34.4805H177.22L177.255 34.5489Z" fill="#2CAC38"/>
<path d="M159.554 58.75L153.733 66.7273H153.699L159.554 58.75Z" fill="#231815"/>
<defs>
<linearGradient id="paint0_linear_1963_24390" x1="169.654" y1="54.8485" x2="171.126" y2="2.739" gradientUnits="userSpaceOnUse">
<stop stop-color="#00462C"/>
<stop offset="0.28" stop-color="#006735"/>
<stop offset="0.56" stop-color="#00823D"/>
<stop offset="0.81" stop-color="#009342"/>
<stop offset="1" stop-color="#009944"/>
</linearGradient>
</defs>
</svg>
