<svg width="690" height="221" viewBox="0 0 690 221" fill="none" xmlns="http://www.w3.org/2000/svg">
<path d="M32.5449 191.566H37.2035V201.534H37.5041L45.6692 191.566H51.2796L42.9141 201.584L51.3798 213.957H45.7694L39.5579 204.69L37.2035 207.545V213.957H32.5449V191.516V191.566Z" fill="#FFDE00"/>
<path d="M55.6932 213.248C54.491 212.547 53.5893 211.495 52.9381 210.193C52.2869 208.89 51.9863 207.387 51.9863 205.634C51.9863 203.881 52.2869 202.378 52.9381 201.076C53.5893 199.773 54.491 198.771 55.6932 198.02C56.8954 197.269 58.2479 196.918 59.8509 196.918C61.4539 196.918 62.8064 197.269 63.9585 198.02C65.1106 198.771 66.0624 199.773 66.7136 201.076C67.3648 202.378 67.6654 203.931 67.6654 205.634C67.6654 207.337 67.3648 208.84 66.7136 210.193C66.0624 211.545 65.1607 212.497 63.9585 213.248C62.7563 213.95 61.4038 214.35 59.8509 214.35C58.298 214.35 56.8954 214 55.6932 213.248ZM62.3555 210.794C63.0067 210.243 63.5077 209.541 63.8583 208.64C64.209 207.738 64.3592 206.736 64.3592 205.634C64.3592 204.532 64.209 203.53 63.8583 202.629C63.5077 201.727 63.0067 201.026 62.3555 200.475C61.7043 199.924 60.8527 199.673 59.8509 199.673C58.849 199.673 58.0475 199.924 57.3463 200.475C56.645 201.026 56.144 201.727 55.7934 202.629C55.4427 203.53 55.2924 204.532 55.2924 205.634C55.2924 206.736 55.4427 207.738 55.7934 208.64C56.144 209.541 56.645 210.243 57.3463 210.794C58.0475 211.345 58.849 211.595 59.8509 211.595C60.8527 211.595 61.6542 211.345 62.3555 210.794Z" fill="white"/>
<path d="M70.0188 197.16H73.2248V199.865H73.4252C73.7257 198.913 74.2767 198.212 75.0281 197.661C75.7795 197.16 76.6812 196.859 77.6329 196.859C78.1339 196.859 78.6348 196.859 79.0355 196.96V200.115C79.0355 200.115 78.6348 200.015 78.2841 199.965C77.9335 199.965 77.5829 199.915 77.2823 199.915C76.5309 199.915 75.8797 200.065 75.2285 200.416C74.6274 200.717 74.1264 201.217 73.7758 201.768C73.4251 202.37 73.2749 203.021 73.2749 203.722V213.991H69.9688V197.16H70.0188Z" fill="white"/>
<path d="M83.0363 213.248C81.834 212.547 80.8823 211.545 80.2311 210.243C79.5799 208.94 79.2793 207.437 79.2793 205.684C79.2793 203.931 79.5799 202.428 80.2311 201.126C80.8823 199.823 81.7839 198.771 82.9862 198.02C84.1884 197.319 85.5409 196.918 87.0437 196.918C88.3962 196.918 89.6485 197.219 90.8006 197.82C91.9528 198.421 92.8544 199.322 93.5056 200.575C94.2069 201.827 94.5075 203.43 94.5075 205.384V206.536H81.1327V204.081H91.3016C91.3016 203.23 91.1513 202.478 90.8006 201.777C90.45 201.076 89.9491 200.575 89.2978 200.224C88.6466 199.873 87.9453 199.673 87.0938 199.673C86.1921 199.673 85.3906 199.873 84.7394 200.324C84.0882 200.775 83.5372 201.326 83.1364 202.078C82.7357 202.829 82.5353 203.58 82.5353 204.432V206.335C82.5353 207.437 82.7357 208.389 83.1364 209.191C83.5372 209.992 84.0882 210.593 84.7895 210.994C85.4908 211.395 86.3424 211.595 87.2941 211.595C87.8953 211.595 88.4463 211.495 88.8971 211.345C89.398 211.194 89.7988 210.944 90.1494 210.693C90.5001 210.443 90.7505 210.092 90.9509 209.742H94.3071C94.0567 210.643 93.6058 211.445 92.9546 212.146C92.3034 212.847 91.5019 213.348 90.5502 213.749C89.5984 214.15 88.4964 214.3 87.2941 214.3C85.6912 214.3 84.2385 213.95 83.0363 213.248Z" fill="white"/>
<path d="M104.482 206.527L102.829 206.627C101.727 206.728 100.825 206.978 100.224 207.379C99.6231 207.83 99.3225 208.431 99.3225 209.232C99.3225 209.783 99.4728 210.184 99.7233 210.535C99.9738 210.885 100.374 211.186 100.875 211.336C101.376 211.537 101.927 211.637 102.528 211.637C103.43 211.637 104.182 211.436 104.833 211.136C105.484 210.835 105.985 210.334 106.336 209.733C106.686 209.132 106.887 208.531 106.887 207.83V202.52C106.887 201.869 106.736 201.318 106.486 200.867C106.235 200.416 105.835 200.065 105.334 199.865C104.833 199.665 104.182 199.514 103.43 199.514C102.478 199.514 101.727 199.715 101.126 200.115C100.525 200.516 100.174 201.017 99.9738 201.668H96.6676C96.7678 200.717 97.1185 199.915 97.7196 199.164C98.3207 198.462 99.1222 197.861 100.124 197.46C101.126 197.06 102.278 196.859 103.58 196.859C104.682 196.859 105.684 197.01 106.686 197.36C107.688 197.711 108.49 198.262 109.191 199.164C109.892 200.015 110.193 201.217 110.193 202.77V213.941H106.987V211.637H106.887C106.636 212.088 106.336 212.538 105.885 212.939C105.434 213.34 104.883 213.691 104.232 213.941C103.53 214.191 102.779 214.342 101.877 214.342C100.775 214.342 99.8235 214.141 98.9719 213.741C98.1203 213.34 97.419 212.739 96.9682 211.987C96.4673 211.236 96.2168 210.284 96.2168 209.232C96.2168 207.479 96.8179 206.227 97.97 205.475C99.1222 204.724 100.675 204.323 102.478 204.173C102.729 204.173 103.731 204.073 105.434 203.973H107.137V206.327C106.887 206.327 106.035 206.327 104.632 206.477L104.482 206.527Z" fill="white"/>
<path d="M138.489 213.996H134.482L124.614 199.77H124.463V213.996H119.805V191.555H123.912L133.68 205.781H133.881V191.555H138.539V213.996H138.489Z" fill="#FFDE00"/>
<path d="M149.054 206.527L147.401 206.627C146.299 206.728 145.398 206.978 144.796 207.379C144.195 207.83 143.895 208.431 143.895 209.232C143.895 209.783 144.045 210.184 144.296 210.535C144.546 210.885 144.947 211.186 145.448 211.336C145.949 211.537 146.5 211.637 147.101 211.637C148.002 211.637 148.754 211.436 149.405 211.136C150.056 210.835 150.557 210.334 150.908 209.733C151.258 209.132 151.459 208.531 151.459 207.83V202.52C151.459 201.869 151.309 201.318 151.058 200.867C150.808 200.416 150.407 200.065 149.906 199.865C149.405 199.665 148.754 199.514 148.002 199.514C147.051 199.514 146.299 199.715 145.698 200.115C145.097 200.516 144.746 201.017 144.546 201.668H141.24C141.34 200.717 141.691 199.915 142.292 199.164C142.893 198.462 143.694 197.861 144.696 197.46C145.698 197.06 146.85 196.859 148.153 196.859C149.255 196.859 150.257 197.01 151.258 197.36C152.26 197.711 153.062 198.262 153.763 199.164C154.464 200.015 154.765 201.217 154.765 202.77V213.941H151.559V211.637H151.459C151.208 212.088 150.908 212.538 150.457 212.939C150.006 213.34 149.455 213.691 148.804 213.941C148.103 214.191 147.351 214.342 146.45 214.342C145.347 214.342 144.396 214.141 143.544 213.741C142.693 213.34 141.991 212.739 141.54 211.987C141.04 211.236 140.789 210.284 140.789 209.232C140.789 207.479 141.39 206.227 142.542 205.475C143.694 204.724 145.247 204.323 147.051 204.173C147.301 204.173 148.303 204.073 150.006 203.973H151.709V206.327C151.459 206.327 150.607 206.327 149.205 206.477L149.054 206.527Z" fill="white"/>
<path d="M165.549 199.815H156.332V197.16H165.549V199.815ZM162.143 193.152V209.082C162.143 209.683 162.243 210.134 162.393 210.484C162.594 210.785 162.794 211.035 163.095 211.136C163.395 211.236 163.746 211.336 164.147 211.336C164.647 211.336 165.198 211.336 165.8 211.286V214.141C165.198 214.241 164.547 214.291 163.746 214.291C162.844 214.291 162.043 214.141 161.291 213.791C160.54 213.44 159.939 212.939 159.488 212.288C159.037 211.637 158.837 210.785 158.837 209.833V193.253H162.143V193.152Z" fill="white"/>
<path d="M168.445 194.305C168.144 194.155 167.894 193.904 167.693 193.604C167.493 193.303 167.393 192.953 167.393 192.602C167.393 192.251 167.493 191.901 167.693 191.6C167.894 191.3 168.144 191.049 168.445 190.899C168.745 190.749 169.096 190.648 169.496 190.648C169.897 190.648 170.248 190.749 170.548 190.899C170.849 191.099 171.099 191.3 171.3 191.6C171.5 191.901 171.55 192.201 171.55 192.602C171.55 193.003 171.45 193.253 171.3 193.604C171.099 193.904 170.849 194.155 170.548 194.305C170.248 194.455 169.897 194.556 169.496 194.556C169.146 194.556 168.795 194.455 168.445 194.305ZM167.843 197.161H171.15V213.992H167.843V197.161Z" fill="white"/>
<path d="M177.213 213.248C176.01 212.547 175.109 211.495 174.458 210.193C173.806 208.89 173.506 207.387 173.506 205.634C173.506 203.881 173.806 202.378 174.458 201.076C175.109 199.773 176.01 198.771 177.213 198.02C178.415 197.269 179.767 196.918 181.37 196.918C182.973 196.918 184.326 197.269 185.478 198.02C186.63 198.771 187.582 199.773 188.233 201.076C188.884 202.378 189.185 203.931 189.185 205.634C189.185 207.337 188.884 208.84 188.233 210.193C187.582 211.545 186.68 212.497 185.478 213.248C184.276 213.95 182.923 214.35 181.37 214.35C179.818 214.35 178.415 214 177.213 213.248ZM183.825 210.794C184.476 210.243 184.977 209.541 185.328 208.64C185.678 207.738 185.829 206.736 185.829 205.634C185.829 204.532 185.678 203.53 185.328 202.629C184.977 201.727 184.476 201.026 183.825 200.475C183.174 199.924 182.322 199.673 181.32 199.673C180.318 199.673 179.517 199.924 178.816 200.475C178.114 201.026 177.613 201.727 177.263 202.629C176.912 203.53 176.762 204.532 176.762 205.634C176.762 206.736 176.912 207.738 177.263 208.64C177.613 209.541 178.114 210.243 178.816 210.794C179.517 211.345 180.318 211.595 181.32 211.595C182.322 211.595 183.124 211.345 183.825 210.794Z" fill="white"/>
<path d="M194.8 213.989H191.494V197.157H194.65V199.913H194.85C195.251 198.961 195.902 198.259 196.704 197.708C197.555 197.207 198.557 196.957 199.81 196.957C200.962 196.957 201.964 197.207 202.815 197.658C203.667 198.159 204.318 198.861 204.819 199.812C205.27 200.764 205.52 201.916 205.52 203.269V213.989H202.214V203.669C202.214 202.868 202.064 202.167 201.813 201.616C201.513 201.015 201.112 200.614 200.611 200.313C200.06 200.013 199.459 199.862 198.707 199.862C197.956 199.862 197.255 200.013 196.704 200.363C196.103 200.664 195.652 201.165 195.301 201.816C194.951 202.467 194.8 203.219 194.8 204.07V214.039V213.989Z" fill="white"/>
<path d="M216.283 206.527L214.63 206.627C213.528 206.728 212.626 206.978 212.025 207.379C211.424 207.83 211.123 208.431 211.123 209.232C211.123 209.783 211.274 210.184 211.524 210.535C211.775 210.885 212.175 211.186 212.676 211.336C213.177 211.537 213.728 211.637 214.329 211.637C215.231 211.637 215.982 211.436 216.634 211.136C217.285 210.835 217.786 210.334 218.136 209.733C218.487 209.132 218.687 208.531 218.687 207.83V202.52C218.687 201.869 218.537 201.318 218.287 200.867C218.036 200.416 217.635 200.065 217.134 199.865C216.634 199.665 215.982 199.514 215.231 199.514C214.279 199.514 213.528 199.715 212.927 200.115C212.326 200.516 211.975 201.017 211.775 201.668H208.468C208.569 200.717 208.919 199.915 209.52 199.164C210.121 198.462 210.923 197.861 211.925 197.46C212.927 197.06 214.079 196.859 215.381 196.859C216.483 196.859 217.485 197.01 218.487 197.36C219.489 197.711 220.29 198.262 220.992 199.164C221.693 200.015 221.993 201.217 221.993 202.77V213.941H218.788V211.637H218.687C218.437 212.088 218.136 212.538 217.685 212.939C217.235 213.34 216.684 213.691 216.032 213.941C215.331 214.191 214.58 214.342 213.678 214.342C212.576 214.342 211.624 214.141 210.773 213.741C209.921 213.34 209.22 212.739 208.769 211.987C208.268 211.236 208.018 210.284 208.018 209.232C208.018 207.479 208.619 206.227 209.771 205.475C210.923 204.724 212.476 204.323 214.279 204.173C214.53 204.173 215.531 204.073 217.235 203.973H218.938V206.327C218.687 206.327 217.836 206.327 216.433 206.477L216.283 206.527Z" fill="white"/>
<path d="M228.207 213.996H224.9V191.555H228.207V213.996Z" fill="white"/>
<path d="M251.85 196.972C251.399 196.471 250.848 196.071 250.247 195.77C249.596 195.469 248.895 195.369 248.043 195.369C246.891 195.369 245.889 195.67 244.987 196.221C244.136 196.822 243.434 197.623 242.933 198.726C242.433 199.828 242.182 201.18 242.182 202.733C242.182 204.286 242.433 205.638 242.883 206.74C243.384 207.842 244.036 208.694 244.937 209.295C245.839 209.896 246.841 210.197 248.043 210.197C249.095 210.197 250.047 209.996 250.848 209.596C251.65 209.195 252.201 208.644 252.651 207.943C253.052 207.241 253.253 206.39 253.253 205.438L254.204 205.588H248.394V202.032H257.761V204.837C257.761 206.74 257.36 208.444 256.509 209.896C255.657 211.349 254.555 212.401 253.052 213.202C251.6 213.954 249.896 214.354 248.043 214.354C245.939 214.354 244.136 213.904 242.533 212.952C240.93 212 239.677 210.698 238.826 208.944C237.974 207.191 237.523 205.187 237.523 202.833C237.523 200.479 237.974 198.425 238.876 196.672C239.778 194.918 241.03 193.616 242.633 192.664C244.186 191.763 245.989 191.262 247.993 191.262C249.646 191.262 251.199 191.562 252.551 192.213C253.954 192.865 255.056 193.766 255.958 194.868C256.809 196.021 257.36 197.323 257.561 198.776H252.802C252.601 198.074 252.301 197.473 251.85 196.922V196.972Z" fill="#FFDE00"/>
<path d="M263.37 213.248C262.168 212.547 261.216 211.545 260.565 210.243C259.914 208.94 259.613 207.437 259.613 205.684C259.613 203.931 259.914 202.428 260.565 201.126C261.216 199.823 262.118 198.771 263.32 198.02C264.522 197.319 265.875 196.918 267.378 196.918C268.73 196.918 269.982 197.219 271.135 197.82C272.287 198.421 273.188 199.322 273.84 200.575C274.541 201.827 274.841 203.43 274.841 205.384V206.536H261.467V204.081H271.636C271.636 203.23 271.485 202.478 271.135 201.777C270.784 201.076 270.283 200.575 269.632 200.224C268.981 199.873 268.279 199.673 267.428 199.673C266.526 199.673 265.725 199.873 265.073 200.324C264.422 200.775 263.871 201.326 263.47 202.078C263.07 202.829 262.869 203.58 262.869 204.432V206.335C262.869 207.437 263.07 208.389 263.47 209.191C263.871 209.992 264.422 210.593 265.123 210.994C265.825 211.395 266.676 211.595 267.628 211.595C268.229 211.595 268.78 211.495 269.231 211.345C269.732 211.194 270.133 210.944 270.483 210.693C270.834 210.443 271.085 210.092 271.285 209.742H274.641C274.391 210.643 273.94 211.445 273.289 212.146C272.637 212.847 271.836 213.348 270.884 213.749C269.932 214.15 268.83 214.3 267.628 214.3C266.025 214.3 264.572 213.95 263.37 213.248Z" fill="white"/>
<path d="M280.148 213.248C278.946 212.547 278.044 211.495 277.393 210.193C276.742 208.89 276.441 207.387 276.441 205.634C276.441 203.881 276.742 202.378 277.393 201.076C278.044 199.773 278.946 198.771 280.148 198.02C281.351 197.269 282.703 196.918 284.306 196.918C285.909 196.918 287.261 197.269 288.414 198.02C289.566 198.771 290.517 199.773 291.169 201.076C291.82 202.378 292.12 203.931 292.12 205.634C292.12 207.337 291.82 208.84 291.169 210.193C290.517 211.545 289.616 212.497 288.414 213.248C287.211 213.95 285.859 214.35 284.306 214.35C282.753 214.35 281.351 214 280.148 213.248ZM286.761 210.794C287.412 210.243 287.913 209.541 288.263 208.64C288.614 207.738 288.764 206.736 288.764 205.634C288.764 204.532 288.614 203.53 288.263 202.629C287.913 201.727 287.412 201.026 286.761 200.475C286.109 199.924 285.258 199.673 284.256 199.673C283.254 199.673 282.453 199.924 281.751 200.475C281.05 201.026 280.549 201.727 280.198 202.629C279.848 203.53 279.697 204.532 279.697 205.634C279.697 206.736 279.848 207.738 280.198 208.64C280.549 209.541 281.05 210.243 281.751 210.794C282.453 211.345 283.254 211.595 284.256 211.595C285.258 211.595 286.059 211.345 286.761 210.794Z" fill="white"/>
<path d="M297.786 220.051C296.734 219.65 295.882 219.099 295.231 218.348C294.63 217.597 294.229 216.695 294.179 215.643H297.536C297.686 216.444 298.137 216.995 298.838 217.396C299.539 217.797 300.441 217.997 301.543 217.997C302.895 217.997 303.947 217.697 304.699 217.096C305.45 216.495 305.801 215.543 305.801 214.29V210.984H305.6C305.3 211.485 304.999 211.936 304.649 212.337C304.298 212.738 303.797 213.088 303.146 213.339C302.495 213.639 301.693 213.79 300.742 213.79C299.389 213.79 298.187 213.489 297.135 212.838C296.083 212.187 295.231 211.235 294.63 209.983C294.029 208.73 293.729 207.227 293.729 205.474C293.729 203.721 294.029 202.218 294.63 200.966C295.231 199.714 296.083 198.712 297.135 198.06C298.187 197.409 299.439 197.059 300.792 197.059C301.743 197.059 302.545 197.209 303.196 197.509C303.847 197.81 304.348 198.161 304.649 198.511C304.949 198.862 305.3 199.363 305.701 199.964H305.901V197.259H309.157V214.441C309.157 215.843 308.857 216.996 308.205 217.947C307.554 218.899 306.652 219.6 305.55 220.051C304.398 220.502 303.096 220.752 301.593 220.752C300.19 220.752 298.988 220.552 297.886 220.151L297.786 220.051ZM303.847 210.333C304.498 209.882 304.999 209.281 305.35 208.43C305.701 207.628 305.851 206.626 305.851 205.474C305.851 204.322 305.701 203.32 305.35 202.469C304.999 201.617 304.498 200.916 303.847 200.465C303.196 200.014 302.395 199.764 301.443 199.764C300.491 199.764 299.69 200.014 299.038 200.515C298.387 201.016 297.886 201.667 297.536 202.519C297.185 203.37 297.035 204.372 297.035 205.474C297.035 206.576 297.185 207.528 297.536 208.38C297.886 209.231 298.387 209.832 299.038 210.333C299.69 210.784 300.491 211.034 301.443 211.034C302.395 211.034 303.146 210.834 303.847 210.383V210.333Z" fill="white"/>
<path d="M312.161 197.16H315.367V199.865H315.568C315.868 198.913 316.419 198.212 317.171 197.661C317.922 197.16 318.824 196.859 319.776 196.859C320.276 196.859 320.777 196.859 321.178 196.96V200.115C321.178 200.115 320.777 200.015 320.427 199.965C320.076 199.965 319.725 199.915 319.425 199.915C318.673 199.915 318.022 200.065 317.371 200.416C316.77 200.717 316.269 201.217 315.918 201.768C315.568 202.37 315.417 203.021 315.417 203.722V213.991H312.111V197.16H312.161Z" fill="white"/>
<path d="M330.24 206.527L328.587 206.627C327.485 206.728 326.583 206.978 325.982 207.379C325.381 207.83 325.08 208.431 325.08 209.232C325.08 209.783 325.231 210.184 325.481 210.535C325.732 210.885 326.132 211.186 326.633 211.336C327.134 211.537 327.685 211.637 328.286 211.637C329.188 211.637 329.939 211.436 330.591 211.136C331.242 210.835 331.743 210.334 332.093 209.733C332.444 209.132 332.644 208.531 332.644 207.83V202.52C332.644 201.869 332.494 201.318 332.244 200.867C331.993 200.416 331.592 200.065 331.091 199.865C330.591 199.665 329.939 199.514 329.188 199.514C328.236 199.514 327.485 199.715 326.884 200.115C326.283 200.516 325.932 201.017 325.732 201.668H322.425C322.526 200.717 322.876 199.915 323.477 199.164C324.079 198.462 324.88 197.861 325.882 197.46C326.884 197.06 328.036 196.859 329.338 196.859C330.44 196.859 331.442 197.01 332.444 197.36C333.446 197.711 334.247 198.262 334.949 199.164C335.65 200.015 335.95 201.217 335.95 202.77V213.941H332.745V211.637H332.644C332.394 212.088 332.093 212.538 331.643 212.939C331.192 213.34 330.641 213.691 329.989 213.941C329.288 214.191 328.537 214.342 327.635 214.342C326.533 214.342 325.581 214.141 324.73 213.741C323.878 213.34 323.177 212.739 322.726 211.987C322.225 211.236 321.975 210.284 321.975 209.232C321.975 207.479 322.576 206.227 323.728 205.475C324.88 204.724 326.433 204.323 328.236 204.173C328.487 204.173 329.489 204.073 331.192 203.973H332.895V206.327C332.644 206.327 331.793 206.327 330.39 206.477L330.24 206.527Z" fill="white"/>
<path d="M338.863 197.157H342.069V199.862H342.37C342.67 199.311 343.021 198.861 343.322 198.46C343.672 198.059 344.123 197.708 344.774 197.408C345.425 197.107 346.227 196.957 347.179 196.957C348.531 196.957 349.733 197.308 350.835 198.009C351.937 198.71 352.739 199.712 353.34 201.015C353.941 202.317 354.242 203.87 354.242 205.673C354.242 207.476 353.941 208.979 353.34 210.282C352.739 211.584 351.937 212.586 350.835 213.287C349.733 213.989 348.581 214.339 347.229 214.339C346.277 214.339 345.526 214.189 344.824 213.888C344.123 213.588 343.672 213.237 343.322 212.836C342.971 212.436 342.67 211.985 342.37 211.484H342.169V220.4H338.863V197.258V197.157ZM342.57 208.679C342.921 209.58 343.422 210.282 344.073 210.783C344.724 211.284 345.526 211.534 346.477 211.534C347.429 211.534 348.231 211.284 348.882 210.783C349.533 210.282 350.034 209.58 350.385 208.679C350.735 207.777 350.886 206.775 350.886 205.623C350.886 204.471 350.735 203.519 350.385 202.618C350.034 201.716 349.533 201.065 348.882 200.564C348.231 200.063 347.429 199.812 346.427 199.812C345.425 199.812 344.674 200.063 344.023 200.514C343.372 201.015 342.871 201.666 342.52 202.517C342.169 203.369 342.019 204.421 342.019 205.573C342.019 206.725 342.169 207.777 342.52 208.679H342.57Z" fill="white"/>
<path d="M359.9 213.996H356.594V191.555H359.85V199.92H360.05C360.451 198.968 361.052 198.267 361.904 197.716C362.705 197.215 363.757 196.965 365.059 196.965C366.262 196.965 367.263 197.215 368.115 197.666C368.967 198.117 369.668 198.868 370.119 199.82C370.57 200.772 370.82 201.924 370.82 203.276V213.996H367.514V203.677C367.514 202.876 367.364 202.174 367.063 201.573C366.763 200.972 366.362 200.571 365.811 200.271C365.26 199.97 364.609 199.82 363.907 199.82C363.106 199.82 362.455 199.97 361.853 200.321C361.252 200.621 360.802 201.122 360.451 201.774C360.1 202.425 359.95 203.176 359.95 204.028V213.996H359.9Z" fill="white"/>
<path d="M374.486 194.305C374.185 194.155 373.935 193.904 373.734 193.604C373.534 193.303 373.434 192.953 373.434 192.602C373.434 192.251 373.534 191.901 373.734 191.6C373.935 191.3 374.185 191.049 374.486 190.899C374.786 190.749 375.137 190.648 375.537 190.648C375.938 190.648 376.289 190.749 376.589 190.899C376.89 191.099 377.14 191.3 377.341 191.6C377.541 191.901 377.591 192.201 377.591 192.602C377.591 193.003 377.491 193.253 377.341 193.604C377.14 193.904 376.89 194.155 376.589 194.305C376.289 194.455 375.938 194.556 375.537 194.556C375.187 194.556 374.836 194.455 374.486 194.305ZM373.884 197.161H377.191V213.992H373.884V197.161Z" fill="white"/>
<path d="M383.193 213.187C381.991 212.436 381.089 211.434 380.438 210.081C379.787 208.779 379.486 207.276 379.486 205.623C379.486 203.97 379.787 202.417 380.438 201.115C381.089 199.812 381.991 198.76 383.193 198.059C384.395 197.308 385.748 196.957 387.301 196.957C388.553 196.957 389.705 197.207 390.757 197.658C391.759 198.109 392.561 198.81 393.212 199.662C393.813 200.514 394.164 201.515 394.314 202.618H391.108C391.008 202.066 390.757 201.616 390.457 201.165C390.156 200.714 389.705 200.363 389.204 200.113C388.703 199.862 388.102 199.712 387.451 199.712C386.549 199.712 385.748 199.963 385.047 200.413C384.345 200.864 383.844 201.566 383.444 202.417C383.043 203.319 382.893 204.321 382.893 205.523C382.893 206.725 383.093 207.777 383.444 208.679C383.844 209.58 384.345 210.282 385.047 210.733C385.748 211.233 386.549 211.484 387.451 211.484C388.052 211.484 388.653 211.384 389.154 211.133C389.655 210.933 390.106 210.582 390.407 210.131C390.757 209.681 391.008 209.18 391.108 208.579H394.314C394.214 209.681 393.813 210.632 393.262 211.484C392.661 212.335 391.859 213.037 390.857 213.488C389.856 213.989 388.703 214.239 387.401 214.239C385.798 214.239 384.395 213.888 383.193 213.137V213.187Z" fill="white"/>
<path d="M407.743 213.996H403.084V191.555H407.743V213.996Z" fill="#FFDE00"/>
<path d="M414.054 213.989H410.748V197.157H413.904V199.913H414.104C414.505 198.961 415.156 198.259 415.958 197.708C416.809 197.207 417.811 196.957 419.063 196.957C420.216 196.957 421.217 197.207 422.069 197.658C422.921 198.159 423.572 198.861 424.073 199.812C424.524 200.764 424.774 201.916 424.774 203.269V213.989H421.468V203.669C421.468 202.868 421.318 202.167 421.067 201.616C420.767 201.015 420.366 200.614 419.865 200.313C419.314 200.013 418.713 199.862 417.961 199.862C417.21 199.862 416.509 200.013 415.958 200.363C415.357 200.664 414.906 201.165 414.555 201.816C414.204 202.467 414.054 203.219 414.054 204.07V214.039V213.989Z" fill="white"/>
<path d="M435.889 199.829H426.371V197.174H435.889V199.829ZM429.577 192.666C429.978 191.964 430.579 191.413 431.33 191.063C432.082 190.712 432.983 190.512 433.985 190.512C434.386 190.512 434.737 190.512 435.137 190.562C435.538 190.562 435.889 190.662 436.239 190.712V193.467C435.688 193.367 435.237 193.367 434.837 193.367C433.985 193.367 433.334 193.567 432.933 193.918C432.532 194.269 432.332 194.87 432.332 195.671V213.955H428.976V195.17C428.976 194.168 429.176 193.317 429.577 192.616V192.666Z" fill="white"/>
<path d="M440.252 213.248C439.05 212.547 438.148 211.495 437.497 210.193C436.845 208.89 436.545 207.387 436.545 205.634C436.545 203.881 436.845 202.378 437.497 201.076C438.148 199.773 439.05 198.771 440.252 198.02C441.454 197.269 442.807 196.918 444.409 196.918C446.012 196.918 447.365 197.269 448.517 198.02C449.669 198.771 450.621 199.773 451.272 201.076C451.923 202.378 452.224 203.931 452.224 205.634C452.224 207.337 451.923 208.84 451.272 210.193C450.621 211.545 449.719 212.497 448.517 213.248C447.315 213.95 445.962 214.35 444.409 214.35C442.857 214.35 441.454 214 440.252 213.248ZM446.864 210.794C447.515 210.243 448.016 209.541 448.367 208.64C448.717 207.738 448.868 206.736 448.868 205.634C448.868 204.532 448.717 203.53 448.367 202.629C448.016 201.727 447.515 201.026 446.864 200.475C446.213 199.924 445.361 199.673 444.359 199.673C443.358 199.673 442.556 199.924 441.855 200.475C441.153 201.026 440.653 201.727 440.302 202.629C439.951 203.53 439.801 204.532 439.801 205.634C439.801 206.736 439.951 207.738 440.302 208.64C440.653 209.541 441.153 210.243 441.855 210.794C442.556 211.345 443.358 211.595 444.359 211.595C445.361 211.595 446.163 211.345 446.864 210.794Z" fill="white"/>
<path d="M454.523 197.16H457.729V199.865H457.929C458.23 198.913 458.781 198.212 459.532 197.661C460.283 197.16 461.185 196.859 462.137 196.859C462.638 196.859 463.139 196.859 463.539 196.96V200.115C463.539 200.115 463.139 200.015 462.788 199.965C462.437 199.965 462.087 199.915 461.786 199.915C461.035 199.915 460.384 200.065 459.732 200.416C459.131 200.717 458.63 201.217 458.28 201.768C457.929 202.37 457.779 203.021 457.779 203.722V213.991H454.473V197.16H454.523Z" fill="white"/>
<path d="M465.092 197.157H468.248V199.913H468.449C468.799 198.961 469.4 198.259 470.202 197.708C471.003 197.157 471.955 196.957 473.057 196.957C473.809 196.957 474.46 197.057 475.061 197.308C475.662 197.558 476.163 197.859 476.564 198.31C476.964 198.76 477.315 199.311 477.565 199.913H477.716C478.016 199.311 478.367 198.76 478.868 198.31C479.369 197.859 479.92 197.508 480.571 197.308C481.222 197.107 481.974 196.957 482.775 196.957C483.827 196.957 484.729 197.157 485.48 197.608C486.231 198.059 486.883 198.71 487.283 199.562C487.734 200.413 487.935 201.465 487.935 202.768V214.039H484.629V203.068C484.629 201.966 484.328 201.165 483.727 200.614C483.126 200.063 482.374 199.812 481.473 199.812C480.771 199.812 480.17 199.963 479.669 200.263C479.168 200.564 478.768 200.964 478.517 201.465C478.267 201.966 478.116 202.567 478.116 203.269V213.989H474.81V202.818C474.81 202.217 474.66 201.716 474.41 201.265C474.159 200.814 473.808 200.464 473.308 200.213C472.857 199.963 472.306 199.862 471.705 199.862C471.103 199.862 470.502 200.013 470.001 200.363C469.501 200.664 469.05 201.115 468.749 201.716C468.449 202.317 468.298 202.968 468.298 203.72V214.089H464.992V197.258L465.092 197.157Z" fill="white"/>
<path d="M498.703 206.527L497.05 206.627C495.948 206.728 495.046 206.978 494.445 207.379C493.844 207.83 493.543 208.431 493.543 209.232C493.543 209.783 493.694 210.184 493.944 210.535C494.194 210.885 494.595 211.186 495.096 211.336C495.597 211.537 496.148 211.637 496.749 211.637C497.651 211.637 498.402 211.436 499.053 211.136C499.705 210.835 500.206 210.334 500.556 209.733C500.907 209.132 501.107 208.531 501.107 207.83V202.52C501.107 201.869 500.957 201.318 500.706 200.867C500.456 200.416 500.055 200.065 499.554 199.865C499.053 199.665 498.402 199.514 497.651 199.514C496.699 199.514 495.948 199.715 495.347 200.115C494.745 200.516 494.395 201.017 494.194 201.668H490.888C490.989 200.717 491.339 199.915 491.94 199.164C492.541 198.462 493.343 197.861 494.345 197.46C495.347 197.06 496.499 196.859 497.801 196.859C498.903 196.859 499.905 197.01 500.907 197.36C501.909 197.711 502.71 198.262 503.412 199.164C504.113 200.015 504.413 201.217 504.413 202.77V213.941H501.207V211.637H501.107C500.857 212.088 500.556 212.538 500.105 212.939C499.655 213.34 499.104 213.691 498.452 213.941C497.751 214.191 497 214.342 496.098 214.342C494.996 214.342 494.044 214.141 493.193 213.741C492.341 213.34 491.64 212.739 491.189 211.987C490.688 211.236 490.438 210.284 490.438 209.232C490.438 207.479 491.039 206.227 492.191 205.475C493.343 204.724 494.896 204.323 496.699 204.173C496.95 204.173 497.951 204.073 499.655 203.973H501.358V206.327C501.107 206.327 500.256 206.327 498.853 206.477L498.703 206.527Z" fill="white"/>
<path d="M515.188 199.815H505.971V197.16H515.188V199.815ZM511.781 193.152V209.082C511.781 209.683 511.882 210.134 512.032 210.484C512.232 210.785 512.433 211.035 512.733 211.136C513.034 211.236 513.384 211.336 513.785 211.336C514.286 211.336 514.837 211.336 515.438 211.286V214.141C514.837 214.241 514.186 214.291 513.384 214.291C512.483 214.291 511.681 214.141 510.93 213.791C510.178 213.44 509.577 212.939 509.127 212.288C508.676 211.637 508.475 210.785 508.475 209.833V193.253H511.781V193.152Z" fill="white"/>
<path d="M518.099 194.305C517.798 194.155 517.548 193.904 517.347 193.604C517.147 193.303 517.047 192.953 517.047 192.602C517.047 192.251 517.147 191.901 517.347 191.6C517.548 191.3 517.798 191.049 518.099 190.899C518.399 190.749 518.75 190.648 519.151 190.648C519.552 190.648 519.902 190.749 520.203 190.899C520.503 191.099 520.754 191.3 520.954 191.6C521.154 191.901 521.205 192.201 521.205 192.602C521.205 193.003 521.104 193.253 520.954 193.604C520.754 193.904 520.503 194.155 520.203 194.305C519.902 194.455 519.552 194.556 519.151 194.556C518.8 194.556 518.449 194.455 518.099 194.305ZM517.498 197.161H520.804V213.992H517.498V197.161Z" fill="white"/>
<path d="M526.855 213.248C525.653 212.547 524.751 211.495 524.1 210.193C523.449 208.89 523.148 207.387 523.148 205.634C523.148 203.881 523.449 202.378 524.1 201.076C524.751 199.773 525.653 198.771 526.855 198.02C528.058 197.269 529.41 196.918 531.013 196.918C532.616 196.918 533.968 197.269 535.121 198.02C536.273 198.771 537.224 199.773 537.876 201.076C538.527 202.378 538.827 203.931 538.827 205.634C538.827 207.337 538.527 208.84 537.876 210.193C537.224 211.545 536.323 212.497 535.121 213.248C533.918 213.95 532.566 214.35 531.013 214.35C529.46 214.35 528.058 214 526.855 213.248ZM533.468 210.794C534.119 210.243 534.62 209.541 534.97 208.64C535.321 207.738 535.471 206.736 535.471 205.634C535.471 204.532 535.321 203.53 534.97 202.629C534.62 201.727 534.119 201.026 533.468 200.475C532.816 199.924 531.965 199.673 530.963 199.673C529.961 199.673 529.16 199.924 528.458 200.475C527.757 201.026 527.256 201.727 526.905 202.629C526.555 203.53 526.404 204.532 526.404 205.634C526.404 206.736 526.555 207.738 526.905 208.64C527.256 209.541 527.757 210.243 528.458 210.794C529.16 211.345 529.961 211.595 530.963 211.595C531.965 211.595 532.766 211.345 533.468 210.794Z" fill="white"/>
<path d="M544.439 213.989H541.133V197.157H544.289V199.913H544.489C544.89 198.961 545.541 198.259 546.342 197.708C547.194 197.207 548.196 196.957 549.448 196.957C550.6 196.957 551.602 197.207 552.454 197.658C553.305 198.159 553.957 198.861 554.458 199.812C554.908 200.764 555.159 201.916 555.159 203.269V213.989H551.853V203.669C551.853 202.868 551.702 202.167 551.452 201.616C551.151 201.015 550.751 200.614 550.25 200.313C549.699 200.013 549.098 199.862 548.346 199.862C547.595 199.862 546.893 200.013 546.342 200.363C545.741 200.664 545.291 201.165 544.94 201.816C544.589 202.467 544.439 203.219 544.439 204.07V214.039V213.989Z" fill="white"/>
<path d="M564.932 191.555H569.59V210.139H579.258V213.996H564.982V191.555H564.932Z" fill="#FFDE00"/>
<path d="M582.064 194.305C581.763 194.155 581.513 193.904 581.312 193.604C581.112 193.303 581.012 192.953 581.012 192.602C581.012 192.251 581.112 191.901 581.312 191.6C581.513 191.3 581.763 191.049 582.064 190.899C582.364 190.749 582.715 190.648 583.116 190.648C583.516 190.648 583.867 190.749 584.168 190.899C584.468 191.099 584.719 191.3 584.919 191.6C585.119 191.901 585.169 192.201 585.169 192.602C585.169 193.003 585.069 193.253 584.919 193.604C584.719 193.904 584.468 194.155 584.168 194.305C583.867 194.455 583.516 194.556 583.116 194.556C582.765 194.556 582.414 194.455 582.064 194.305ZM581.463 197.161H584.769V213.992H581.463V197.161Z" fill="white"/>
<path d="M588.081 191.555H591.387V199.87H591.588C591.989 199.269 592.289 198.768 592.59 198.417C592.89 198.067 593.341 197.716 593.992 197.416C594.644 197.115 595.445 196.965 596.397 196.965C597.749 196.965 598.951 197.315 600.054 198.017C601.105 198.718 601.957 199.72 602.558 201.022C603.159 202.325 603.46 203.878 603.46 205.681C603.46 207.484 603.159 208.987 602.558 210.289C601.957 211.592 601.105 212.594 600.054 213.295C599.002 213.996 597.799 214.347 596.397 214.347C595.445 214.347 594.643 214.197 594.042 213.896C593.441 213.596 592.89 213.245 592.54 212.844C592.189 212.443 591.888 211.993 591.538 211.442H591.237V214.046H588.031V191.605L588.081 191.555ZM591.838 208.686C592.189 209.588 592.69 210.289 593.341 210.79C593.992 211.291 594.794 211.542 595.695 211.542C596.647 211.542 597.449 211.291 598.1 210.79C598.751 210.289 599.252 209.588 599.603 208.686C599.953 207.785 600.104 206.783 600.104 205.631C600.104 204.479 599.953 203.527 599.603 202.625C599.252 201.724 598.751 201.072 598.1 200.571C597.449 200.07 596.597 199.82 595.645 199.82C594.694 199.82 593.942 200.07 593.291 200.521C592.64 201.022 592.139 201.673 591.788 202.525C591.438 203.377 591.287 204.429 591.287 205.581C591.287 206.733 591.438 207.785 591.788 208.686H591.838Z" fill="white"/>
<path d="M605.802 197.16H609.008V199.865H609.208C609.509 198.913 610.06 198.212 610.811 197.661C611.563 197.16 612.464 196.859 613.416 196.859C613.917 196.859 614.418 196.859 614.819 196.96V200.115C614.819 200.115 614.418 200.015 614.067 199.965C613.717 199.965 613.366 199.915 613.065 199.915C612.314 199.915 611.663 200.065 611.012 200.416C610.411 200.717 609.91 201.217 609.559 201.768C609.208 202.37 609.058 203.021 609.058 203.722V213.991H605.752V197.16H605.802Z" fill="white"/>
<path d="M623.841 206.527L622.188 206.627C621.086 206.728 620.185 206.978 619.584 207.379C618.982 207.83 618.682 208.431 618.682 209.232C618.682 209.783 618.832 210.184 619.083 210.535C619.333 210.885 619.734 211.186 620.235 211.336C620.736 211.537 621.287 211.637 621.888 211.637C622.79 211.637 623.541 211.436 624.192 211.136C624.843 210.835 625.344 210.334 625.695 209.733C626.046 209.132 626.246 208.531 626.246 207.83V202.52C626.246 201.869 626.096 201.318 625.845 200.867C625.595 200.416 625.194 200.065 624.693 199.865C624.192 199.665 623.541 199.514 622.79 199.514C621.838 199.514 621.086 199.715 620.485 200.115C619.884 200.516 619.533 201.017 619.333 201.668H616.027C616.127 200.717 616.478 199.915 617.079 199.164C617.68 198.462 618.482 197.861 619.483 197.46C620.485 197.06 621.637 196.859 622.94 196.859C624.042 196.859 625.044 197.01 626.046 197.36C627.047 197.711 627.849 198.262 628.55 199.164C629.252 200.015 629.552 201.217 629.552 202.77V213.941H626.346V211.637H626.246C625.995 212.088 625.695 212.538 625.244 212.939C624.793 213.34 624.242 213.691 623.591 213.941C622.89 214.191 622.138 214.342 621.237 214.342C620.135 214.342 619.183 214.141 618.331 213.741C617.48 213.34 616.778 212.739 616.328 211.987C615.827 211.236 615.576 210.284 615.576 209.232C615.576 207.479 616.177 206.227 617.329 205.475C618.482 204.724 620.034 204.323 621.838 204.173C622.088 204.173 623.09 204.073 624.793 203.973H626.496V206.327C626.246 206.327 625.394 206.327 623.992 206.477L623.841 206.527Z" fill="white"/>
<path d="M632.505 197.16H635.711V199.865H635.911C636.212 198.913 636.763 198.212 637.514 197.661C638.266 197.16 639.168 196.859 640.119 196.859C640.62 196.859 641.121 196.859 641.522 196.96V200.115C641.522 200.115 641.121 200.015 640.77 199.965C640.42 199.965 640.069 199.915 639.769 199.915C639.017 199.915 638.366 200.065 637.715 200.416C637.114 200.717 636.613 201.217 636.262 201.768C635.911 202.37 635.761 203.021 635.761 203.722V213.991H632.455V197.16H632.505Z" fill="white"/>
<path d="M643.881 220.269V217.463H644.482C644.482 217.463 644.983 217.513 645.384 217.513C645.784 217.513 646.185 217.513 646.436 217.413C646.736 217.313 646.987 217.113 647.287 216.812C647.588 216.512 647.788 216.011 648.039 215.309L648.49 214.257L642.328 197.176H645.885L650.092 210.2H650.293L654.551 197.176H658.107L651.195 216.211C650.694 217.564 649.992 218.565 649.091 219.267C648.189 219.968 647.087 220.319 645.734 220.319C645.083 220.319 644.482 220.319 643.981 220.269H643.881Z" fill="white"/>
<g filter="url(#filter0_ddd_968_15661)">
<path d="M113.006 169.015L71.2786 104.696V169.015H31.1543V23.4453H71.2786V84.8089L109.75 23.4453H156.236L109.6 93.9759L160.544 169.015H112.956H113.006Z" fill="white"/>
</g>
<g filter="url(#filter1_ddd_968_15661)">
<path d="M301.799 23.4453V169.015H268.638L210.831 90.0186V169.015H171.959V23.4453H207.074L262.978 99.8368V23.4453H301.849H301.799Z" fill="white"/>
</g>
<g filter="url(#filter2_ddd_968_15661)">
<path d="M496.969 23.4453H537.594V169.015H496.969V23.4453Z" fill="white"/>
</g>
<g filter="url(#filter3_ddd_968_15661)">
<path d="M658.269 132.297V169.015H565.848V23.4453H606.473V132.297H658.269Z" fill="white"/>
</g>
<g filter="url(#filter4_ddd_968_15661)">
<path d="M430.542 25.4038C421.125 21.7471 410.655 19.7934 399.685 19.7934C354.852 19.7934 322.492 52.0532 322.492 96.3352C322.492 123.085 334.514 145.376 353.8 158.801L366.123 142.02L376.843 127.393C368.427 120.63 363.568 109.71 363.568 96.3352C363.568 73.0921 378.245 57.3129 400.036 57.3129C408.652 57.3129 416.616 59.9678 422.828 64.5764L433.147 50.4502L445.72 33.2684H445.77L456.44 18.6914L430.542 25.4038Z" fill="url(#paint0_linear_968_15661)" shape-rendering="crispEdges"/>
</g>
<g filter="url(#filter5_ddd_968_15661)">
<path d="M403.294 91.2344L384.76 116.531H433.099C428.491 127.752 415.366 135.166 400.038 135.166C390.771 135.166 382.906 132.361 376.845 127.401L366.125 142.028L353.852 158.81H353.802L342.832 173.787L368.98 167.025C378.348 170.732 388.817 172.735 400.038 172.735C445.672 172.735 476.73 138.873 476.73 91.2344H403.294Z" fill="white"/>
</g>
<defs>
<filter id="filter0_ddd_968_15661" x="-9.34601e-05" y="4.75268" width="191.697" height="207.879" filterUnits="userSpaceOnUse" color-interpolation-filters="sRGB">
<feFlood flood-opacity="0" result="BackgroundImageFix"/>
<feColorMatrix in="SourceAlpha" type="matrix" values="0 0 0 0 0 0 0 0 0 0 0 0 0 0 0 0 0 0 127 0" result="hardAlpha"/>
<feOffset dy="12.4618"/>
<feGaussianBlur stdDeviation="15.5772"/>
<feComposite in2="hardAlpha" operator="out"/>
<feColorMatrix type="matrix" values="0 0 0 0 0.0585937 0 0 0 0 0.270833 0 0 0 0 0.164713 0 0 0 0.1 0"/>
<feBlend mode="multiply" in2="BackgroundImageFix" result="effect1_dropShadow_968_15661"/>
<feColorMatrix in="SourceAlpha" type="matrix" values="0 0 0 0 0 0 0 0 0 0 0 0 0 0 0 0 0 0 127 0" result="hardAlpha"/>
<feOffset dy="6.23088"/>
<feGaussianBlur stdDeviation="6.23088"/>
<feComposite in2="hardAlpha" operator="out"/>
<feColorMatrix type="matrix" values="0 0 0 0 0.0585937 0 0 0 0 0.270833 0 0 0 0 0.164713 0 0 0 0.1 0"/>
<feBlend mode="multiply" in2="effect1_dropShadow_968_15661" result="effect2_dropShadow_968_15661"/>
<feColorMatrix in="SourceAlpha" type="matrix" values="0 0 0 0 0 0 0 0 0 0 0 0 0 0 0 0 0 0 127 0" result="hardAlpha"/>
<feOffset dy="1.55772"/>
<feGaussianBlur stdDeviation="1.55772"/>
<feComposite in2="hardAlpha" operator="out"/>
<feColorMatrix type="matrix" values="0 0 0 0 0.0585937 0 0 0 0 0.270833 0 0 0 0 0.164713 0 0 0 0.2 0"/>
<feBlend mode="multiply" in2="effect2_dropShadow_968_15661" result="effect3_dropShadow_968_15661"/>
<feBlend mode="normal" in="SourceGraphic" in2="effect3_dropShadow_968_15661" result="shape"/>
</filter>
<filter id="filter1_ddd_968_15661" x="140.805" y="4.75268" width="192.199" height="207.879" filterUnits="userSpaceOnUse" color-interpolation-filters="sRGB">
<feFlood flood-opacity="0" result="BackgroundImageFix"/>
<feColorMatrix in="SourceAlpha" type="matrix" values="0 0 0 0 0 0 0 0 0 0 0 0 0 0 0 0 0 0 127 0" result="hardAlpha"/>
<feOffset dy="12.4618"/>
<feGaussianBlur stdDeviation="15.5772"/>
<feComposite in2="hardAlpha" operator="out"/>
<feColorMatrix type="matrix" values="0 0 0 0 0.0585937 0 0 0 0 0.270833 0 0 0 0 0.164713 0 0 0 0.1 0"/>
<feBlend mode="multiply" in2="BackgroundImageFix" result="effect1_dropShadow_968_15661"/>
<feColorMatrix in="SourceAlpha" type="matrix" values="0 0 0 0 0 0 0 0 0 0 0 0 0 0 0 0 0 0 127 0" result="hardAlpha"/>
<feOffset dy="6.23088"/>
<feGaussianBlur stdDeviation="6.23088"/>
<feComposite in2="hardAlpha" operator="out"/>
<feColorMatrix type="matrix" values="0 0 0 0 0.0585937 0 0 0 0 0.270833 0 0 0 0 0.164713 0 0 0 0.1 0"/>
<feBlend mode="multiply" in2="effect1_dropShadow_968_15661" result="effect2_dropShadow_968_15661"/>
<feColorMatrix in="SourceAlpha" type="matrix" values="0 0 0 0 0 0 0 0 0 0 0 0 0 0 0 0 0 0 127 0" result="hardAlpha"/>
<feOffset dy="1.55772"/>
<feGaussianBlur stdDeviation="1.55772"/>
<feComposite in2="hardAlpha" operator="out"/>
<feColorMatrix type="matrix" values="0 0 0 0 0.0585937 0 0 0 0 0.270833 0 0 0 0 0.164713 0 0 0 0.2 0"/>
<feBlend mode="multiply" in2="effect2_dropShadow_968_15661" result="effect3_dropShadow_968_15661"/>
<feBlend mode="normal" in="SourceGraphic" in2="effect3_dropShadow_968_15661" result="shape"/>
</filter>
<filter id="filter2_ddd_968_15661" x="465.814" y="4.75268" width="102.934" height="207.879" filterUnits="userSpaceOnUse" color-interpolation-filters="sRGB">
<feFlood flood-opacity="0" result="BackgroundImageFix"/>
<feColorMatrix in="SourceAlpha" type="matrix" values="0 0 0 0 0 0 0 0 0 0 0 0 0 0 0 0 0 0 127 0" result="hardAlpha"/>
<feOffset dy="12.4618"/>
<feGaussianBlur stdDeviation="15.5772"/>
<feComposite in2="hardAlpha" operator="out"/>
<feColorMatrix type="matrix" values="0 0 0 0 0.0585937 0 0 0 0 0.270833 0 0 0 0 0.164713 0 0 0 0.1 0"/>
<feBlend mode="multiply" in2="BackgroundImageFix" result="effect1_dropShadow_968_15661"/>
<feColorMatrix in="SourceAlpha" type="matrix" values="0 0 0 0 0 0 0 0 0 0 0 0 0 0 0 0 0 0 127 0" result="hardAlpha"/>
<feOffset dy="6.23088"/>
<feGaussianBlur stdDeviation="6.23088"/>
<feComposite in2="hardAlpha" operator="out"/>
<feColorMatrix type="matrix" values="0 0 0 0 0.0585937 0 0 0 0 0.270833 0 0 0 0 0.164713 0 0 0 0.1 0"/>
<feBlend mode="multiply" in2="effect1_dropShadow_968_15661" result="effect2_dropShadow_968_15661"/>
<feColorMatrix in="SourceAlpha" type="matrix" values="0 0 0 0 0 0 0 0 0 0 0 0 0 0 0 0 0 0 127 0" result="hardAlpha"/>
<feOffset dy="1.55772"/>
<feGaussianBlur stdDeviation="1.55772"/>
<feComposite in2="hardAlpha" operator="out"/>
<feColorMatrix type="matrix" values="0 0 0 0 0.0585937 0 0 0 0 0.270833 0 0 0 0 0.164713 0 0 0 0.2 0"/>
<feBlend mode="multiply" in2="effect2_dropShadow_968_15661" result="effect3_dropShadow_968_15661"/>
<feBlend mode="normal" in="SourceGraphic" in2="effect3_dropShadow_968_15661" result="shape"/>
</filter>
<filter id="filter3_ddd_968_15661" x="534.693" y="4.75268" width="154.731" height="207.879" filterUnits="userSpaceOnUse" color-interpolation-filters="sRGB">
<feFlood flood-opacity="0" result="BackgroundImageFix"/>
<feColorMatrix in="SourceAlpha" type="matrix" values="0 0 0 0 0 0 0 0 0 0 0 0 0 0 0 0 0 0 127 0" result="hardAlpha"/>
<feOffset dy="12.4618"/>
<feGaussianBlur stdDeviation="15.5772"/>
<feComposite in2="hardAlpha" operator="out"/>
<feColorMatrix type="matrix" values="0 0 0 0 0.0585937 0 0 0 0 0.270833 0 0 0 0 0.164713 0 0 0 0.1 0"/>
<feBlend mode="multiply" in2="BackgroundImageFix" result="effect1_dropShadow_968_15661"/>
<feColorMatrix in="SourceAlpha" type="matrix" values="0 0 0 0 0 0 0 0 0 0 0 0 0 0 0 0 0 0 127 0" result="hardAlpha"/>
<feOffset dy="6.23088"/>
<feGaussianBlur stdDeviation="6.23088"/>
<feComposite in2="hardAlpha" operator="out"/>
<feColorMatrix type="matrix" values="0 0 0 0 0.0585937 0 0 0 0 0.270833 0 0 0 0 0.164713 0 0 0 0.1 0"/>
<feBlend mode="multiply" in2="effect1_dropShadow_968_15661" result="effect2_dropShadow_968_15661"/>
<feColorMatrix in="SourceAlpha" type="matrix" values="0 0 0 0 0 0 0 0 0 0 0 0 0 0 0 0 0 0 127 0" result="hardAlpha"/>
<feOffset dy="1.55772"/>
<feGaussianBlur stdDeviation="1.55772"/>
<feComposite in2="hardAlpha" operator="out"/>
<feColorMatrix type="matrix" values="0 0 0 0 0.0585937 0 0 0 0 0.270833 0 0 0 0 0.164713 0 0 0 0.2 0"/>
<feBlend mode="multiply" in2="effect2_dropShadow_968_15661" result="effect3_dropShadow_968_15661"/>
<feBlend mode="normal" in="SourceGraphic" in2="effect3_dropShadow_968_15661" result="shape"/>
</filter>
<filter id="filter4_ddd_968_15661" x="291.338" y="-0.00122833" width="196.256" height="202.418" filterUnits="userSpaceOnUse" color-interpolation-filters="sRGB">
<feFlood flood-opacity="0" result="BackgroundImageFix"/>
<feColorMatrix in="SourceAlpha" type="matrix" values="0 0 0 0 0 0 0 0 0 0 0 0 0 0 0 0 0 0 127 0" result="hardAlpha"/>
<feOffset dy="12.4618"/>
<feGaussianBlur stdDeviation="15.5772"/>
<feComposite in2="hardAlpha" operator="out"/>
<feColorMatrix type="matrix" values="0 0 0 0 0.0585937 0 0 0 0 0.270833 0 0 0 0 0.164713 0 0 0 0.1 0"/>
<feBlend mode="multiply" in2="BackgroundImageFix" result="effect1_dropShadow_968_15661"/>
<feColorMatrix in="SourceAlpha" type="matrix" values="0 0 0 0 0 0 0 0 0 0 0 0 0 0 0 0 0 0 127 0" result="hardAlpha"/>
<feOffset dy="6.23088"/>
<feGaussianBlur stdDeviation="6.23088"/>
<feComposite in2="hardAlpha" operator="out"/>
<feColorMatrix type="matrix" values="0 0 0 0 0.0585937 0 0 0 0 0.270833 0 0 0 0 0.164713 0 0 0 0.1 0"/>
<feBlend mode="multiply" in2="effect1_dropShadow_968_15661" result="effect2_dropShadow_968_15661"/>
<feColorMatrix in="SourceAlpha" type="matrix" values="0 0 0 0 0 0 0 0 0 0 0 0 0 0 0 0 0 0 127 0" result="hardAlpha"/>
<feOffset dy="1.55772"/>
<feGaussianBlur stdDeviation="1.55772"/>
<feComposite in2="hardAlpha" operator="out"/>
<feColorMatrix type="matrix" values="0 0 0 0 0.0585937 0 0 0 0 0.270833 0 0 0 0 0.164713 0 0 0 0.2 0"/>
<feBlend mode="multiply" in2="effect2_dropShadow_968_15661" result="effect3_dropShadow_968_15661"/>
<feBlend mode="normal" in="SourceGraphic" in2="effect3_dropShadow_968_15661" result="shape"/>
</filter>
<filter id="filter5_ddd_968_15661" x="311.678" y="72.5417" width="196.207" height="144.863" filterUnits="userSpaceOnUse" color-interpolation-filters="sRGB">
<feFlood flood-opacity="0" result="BackgroundImageFix"/>
<feColorMatrix in="SourceAlpha" type="matrix" values="0 0 0 0 0 0 0 0 0 0 0 0 0 0 0 0 0 0 127 0" result="hardAlpha"/>
<feOffset dy="12.4618"/>
<feGaussianBlur stdDeviation="15.5772"/>
<feComposite in2="hardAlpha" operator="out"/>
<feColorMatrix type="matrix" values="0 0 0 0 0.0585937 0 0 0 0 0.270833 0 0 0 0 0.164713 0 0 0 0.1 0"/>
<feBlend mode="multiply" in2="BackgroundImageFix" result="effect1_dropShadow_968_15661"/>
<feColorMatrix in="SourceAlpha" type="matrix" values="0 0 0 0 0 0 0 0 0 0 0 0 0 0 0 0 0 0 127 0" result="hardAlpha"/>
<feOffset dy="6.23088"/>
<feGaussianBlur stdDeviation="6.23088"/>
<feComposite in2="hardAlpha" operator="out"/>
<feColorMatrix type="matrix" values="0 0 0 0 0.0585937 0 0 0 0 0.270833 0 0 0 0 0.164713 0 0 0 0.1 0"/>
<feBlend mode="multiply" in2="effect1_dropShadow_968_15661" result="effect2_dropShadow_968_15661"/>
<feColorMatrix in="SourceAlpha" type="matrix" values="0 0 0 0 0 0 0 0 0 0 0 0 0 0 0 0 0 0 127 0" result="hardAlpha"/>
<feOffset dy="1.55772"/>
<feGaussianBlur stdDeviation="1.55772"/>
<feComposite in2="hardAlpha" operator="out"/>
<feColorMatrix type="matrix" values="0 0 0 0 0.0585937 0 0 0 0 0.270833 0 0 0 0 0.164713 0 0 0 0.2 0"/>
<feBlend mode="multiply" in2="effect2_dropShadow_968_15661" result="effect3_dropShadow_968_15661"/>
<feBlend mode="normal" in="SourceGraphic" in2="effect3_dropShadow_968_15661" result="shape"/>
</filter>
<linearGradient id="paint0_linear_968_15661" x1="387.312" y1="133.855" x2="377.817" y2="44.8155" gradientUnits="userSpaceOnUse">
<stop stop-color="white" stop-opacity="0.6"/>
<stop offset="0.458939" stop-color="white" stop-opacity="0.9"/>
</linearGradient>
</defs>
</svg>
