<svg width="20" height="20" viewBox="0 0 20 20" fill="none" xmlns="http://www.w3.org/2000/svg">
<path d="M16.8899 9.6671C16.8896 11.5825 16.1284 13.4193 14.7739 14.7736C13.4194 16.1278 11.5825 16.8886 9.6671 16.8886M16.8899 9.6671C16.8899 8.71859 16.7031 7.77936 16.3401 6.90305C15.9771 6.02674 15.4451 5.23051 14.7744 4.55981C14.1037 3.88911 13.3075 3.35708 12.4311 2.9941C11.5548 2.63112 10.6156 2.4443 9.6671 2.4443M16.8899 9.6671H18.3329M9.6671 16.8886C7.75194 16.8883 5.91533 16.1273 4.56111 14.7731C3.20689 13.4189 2.44594 11.5823 2.4456 9.6671M9.6671 16.8886V18.3329M9.6671 2.4443C7.75172 2.44464 5.91491 3.20577 4.56065 4.56027C3.20639 5.91477 2.4456 7.75172 2.4456 9.6671M9.6671 2.4443V1M2.4456 9.6671H1M11.1114 9.6671C11.1114 9.85677 11.074 10.0446 11.0015 10.2198C10.9289 10.395 10.8225 10.5543 10.6884 10.6884C10.5543 10.8225 10.395 10.9289 10.2198 11.0015C10.0446 11.074 9.85677 11.1114 9.6671 11.1114C9.47743 11.1114 9.28962 11.074 9.11439 11.0015C8.93916 10.9289 8.77994 10.8225 8.64583 10.6884C8.51171 10.5543 8.40532 10.395 8.33274 10.2198C8.26016 10.0446 8.2228 9.85677 8.2228 9.6671C8.2228 9.28405 8.37497 8.91668 8.64583 8.64583C8.91668 8.37497 9.28405 8.2228 9.6671 8.2228C10.0502 8.2228 10.4175 8.37497 10.6884 8.64583C10.9592 8.91668 11.1114 9.28405 11.1114 9.6671Z" stroke="#FF1919" stroke-width="2" stroke-linecap="square"/>
</svg>
