<svg width="1027" height="357" viewBox="0 0 1027 357" fill="none" xmlns="http://www.w3.org/2000/svg">
  <defs>
    <style>
      .marker {
        opacity: 0;
        animation: marker-appear 0.6s ease-in forwards, marker-blink 1.8s ease-in-out infinite;
      }
      .marker-01 {
        transform-origin: 686px 28px;
        animation-delay: 0s, 0.6s;
      }
      .marker-02 {
        transform-origin: 437px 139px;
        animation-delay: 0.3s, 0.9s;
      }
      .marker-03 {
        transform-origin: 262px 186px;
        animation-delay: 0.6s, 1.2s;
      }
      .marker-04 {
        transform-origin: 309px 258px;
        animation-delay: 0.9s, 1.5s;
      }
      .marker-05 {
        transform-origin: 151px 280px;
        animation-delay: 1.2s, 1.8s;
      }
      @keyframes marker-appear {
        0% {
          opacity: 0;
          ransform: scale(1);
        }
        100% {
          opacity: 1;
          transform: scale(1.2);
        }
      }
      @keyframes marker-blink {
        0%, 100% {
          opacity: 1;
          transform: scale(1);
        }
        50% {
          opacity: 0.35;
          transform: scale(1.2);
        }
      }
    </style>
  </defs>
  <g class="marker marker-01">
    <path d="M686.009 15.5C692.913 15.5 698.509 21.0962 698.509 28C698.509 34.9038 692.913 40.5 686.009 40.5C679.105 40.5 673.509 34.9038 673.509 28C673.509 21.0962 679.105 15.5 686.009 15.5Z" stroke="#FF1919"/>
    <path d="M686.008 21.4141C687.769 21.4141 689.46 22.1047 690.717 23.3379C691.895 24.4943 692.605 26.0413 692.717 27.6807L692.731 28.0098C692.743 28.899 692.577 29.7814 692.245 30.6064C691.913 31.4324 691.42 32.1846 690.795 32.8184C690.17 33.4522 689.424 33.9553 688.603 34.2988C687.781 34.6423 686.899 34.8193 686.009 34.8193C685.118 34.8193 684.237 34.6423 683.415 34.2988C682.594 33.9553 681.849 33.4521 681.224 32.8184C680.598 32.1845 680.105 31.4325 679.772 30.6064C679.44 29.7815 679.276 28.8989 679.287 28.0098C679.321 26.2492 680.043 24.5712 681.3 23.3379C682.557 22.1048 684.247 21.4142 686.008 21.4141Z" stroke="#FF1919"/>
    <path d="M699.009 28C699.009 35.1799 693.189 41 686.009 41C678.829 41 673.009 35.1799 673.009 28C673.009 20.8201 678.829 15 686.009 15C693.189 15 699.009 20.8201 699.009 28Z" stroke="#FF1919" stroke-width="2" stroke-linecap="square"/>
    <path d="M693.232 28.003C693.231 29.9184 692.47 31.7552 691.116 33.1095C689.761 34.4637 687.924 35.2245 686.009 35.2245M693.232 28.003C693.232 27.0545 693.045 26.1153 692.682 25.239C692.319 24.3627 691.787 23.5664 691.116 22.8957C690.445 22.225 689.649 21.693 688.773 21.33C687.897 20.9671 686.957 20.7802 686.009 20.7802M693.232 28.003H694.675M686.009 35.2245C684.094 35.2242 682.257 34.4632 680.903 33.109C679.549 31.7548 678.788 29.9182 678.787 28.003M686.009 35.2245V36.6688M686.009 20.7802C684.094 20.7806 682.257 21.5417 680.902 22.8962C679.548 24.2507 678.787 26.0877 678.787 28.003M686.009 20.7802V19.3359M678.787 28.003H677.342M687.453 28.003C687.453 28.1927 687.416 28.3805 687.343 28.5557C687.271 28.731 687.164 28.8902 687.03 29.0243C686.896 29.1584 686.737 29.2648 686.562 29.3374C686.386 29.41 686.199 29.4473 686.009 29.4473C685.819 29.4473 685.631 29.41 685.456 29.3374C685.281 29.2648 685.122 29.1584 684.988 29.0243C684.854 28.8902 684.747 28.731 684.675 28.5557C684.602 28.3805 684.565 28.1927 684.565 28.003C684.565 27.62 684.717 27.2526 684.988 26.9818C685.258 26.7109 685.626 26.5587 686.009 26.5587C686.392 26.5587 686.759 26.7109 687.03 26.9818C687.301 27.2526 687.453 27.62 687.453 28.003Z" stroke="#FF1919" stroke-width="2" stroke-linecap="square"/>
  </g>
  <g class="marker marker-02">
    <path d="M437.009 126.5C443.913 126.5 449.509 132.096 449.509 139C449.509 145.904 443.913 151.5 437.009 151.5C430.105 151.5 424.509 145.904 424.509 139C424.509 132.096 430.105 126.5 437.009 126.5Z" stroke="#FF1919"/>
    <path d="M437.008 132.414C438.769 132.414 440.46 133.105 441.717 134.338C442.895 135.494 443.605 137.041 443.717 138.681L443.731 139.01C443.743 139.899 443.577 140.781 443.245 141.606C442.913 142.432 442.42 143.185 441.795 143.818C441.17 144.452 440.424 144.955 439.603 145.299C438.781 145.642 437.899 145.819 437.009 145.819C436.118 145.819 435.237 145.642 434.415 145.299C433.594 144.955 432.849 144.452 432.224 143.818C431.598 143.185 431.105 142.432 430.772 141.606C430.44 140.781 430.276 139.899 430.287 139.01C430.321 137.249 431.043 135.571 432.3 134.338C433.557 133.105 435.247 132.414 437.008 132.414Z" stroke="#FF1919"/>
    <path d="M450.009 139C450.009 146.18 444.189 152 437.009 152C429.829 152 424.009 146.18 424.009 139C424.009 131.82 429.829 126 437.009 126C444.189 126 450.009 131.82 450.009 139Z" stroke="#FF1919" stroke-width="2" stroke-linecap="square"/>
    <path d="M444.232 139.003C444.231 140.918 443.47 142.755 442.116 144.109C440.761 145.464 438.924 146.225 437.009 146.225M444.232 139.003C444.232 138.055 444.045 137.115 443.682 136.239C443.319 135.363 442.787 134.566 442.116 133.896C441.445 133.225 440.649 132.693 439.773 132.33C438.897 131.967 437.957 131.78 437.009 131.78M444.232 139.003H445.675M437.009 146.225C435.094 146.224 433.257 145.463 431.903 144.109C430.549 142.755 429.788 140.918 429.787 139.003M437.009 146.225V147.669M437.009 131.78C435.094 131.781 433.257 132.542 431.902 133.896C430.548 135.251 429.787 137.088 429.787 139.003M437.009 131.78V130.336M429.787 139.003H428.342M438.453 139.003C438.453 139.193 438.416 139.381 438.343 139.556C438.271 139.731 438.164 139.89 438.03 140.024C437.896 140.158 437.737 140.265 437.562 140.337C437.386 140.41 437.199 140.447 437.009 140.447C436.819 140.447 436.631 140.41 436.456 140.337C436.281 140.265 436.122 140.158 435.988 140.024C435.854 139.89 435.747 139.731 435.675 139.556C435.602 139.381 435.565 139.193 435.565 139.003C435.565 138.62 435.717 138.253 435.988 137.982C436.258 137.711 436.626 137.559 437.009 137.559C437.392 137.559 437.759 137.711 438.03 137.982C438.301 138.253 438.453 138.62 438.453 139.003Z" stroke="#FF1919" stroke-width="2" stroke-linecap="square"/>
  </g>
  <g class="marker marker-03">
    <path d="M262.009 173.5C268.913 173.5 274.509 179.096 274.509 186C274.509 192.904 268.913 198.5 262.009 198.5C255.105 198.5 249.509 192.904 249.509 186C249.509 179.096 255.105 173.5 262.009 173.5Z" stroke="#FF1919"/>
    <path d="M262.008 179.414C263.769 179.414 265.46 180.105 266.717 181.338C267.895 182.494 268.605 184.041 268.717 185.681L268.731 186.01C268.743 186.899 268.577 187.781 268.245 188.606C267.913 189.432 267.42 190.185 266.795 190.818C266.17 191.452 265.424 191.955 264.603 192.299C263.781 192.642 262.899 192.819 262.009 192.819C261.118 192.819 260.237 192.642 259.415 192.299C258.594 191.955 257.849 191.452 257.224 190.818C256.598 190.185 256.105 189.432 255.772 188.606C255.44 187.781 255.276 186.899 255.287 186.01C255.321 184.249 256.043 182.571 257.3 181.338C258.557 180.105 260.247 179.414 262.008 179.414Z" stroke="#FF1919"/>
    <path d="M275.009 186C275.009 193.18 269.189 199 262.009 199C254.829 199 249.009 193.18 249.009 186C249.009 178.82 254.829 173 262.009 173C269.189 173 275.009 178.82 275.009 186Z" stroke="#FF1919" stroke-width="2" stroke-linecap="square"/>
    <path d="M269.232 186.003C269.231 187.918 268.47 189.755 267.116 191.109C265.761 192.464 263.924 193.225 262.009 193.225M269.232 186.003C269.232 185.055 269.045 184.115 268.682 183.239C268.319 182.363 267.787 181.566 267.116 180.896C266.445 180.225 265.649 179.693 264.773 179.33C263.897 178.967 262.957 178.78 262.009 178.78M269.232 186.003H270.675M262.009 193.225C260.094 193.224 258.257 192.463 256.903 191.109C255.549 189.755 254.788 187.918 254.787 186.003M262.009 193.225V194.669M262.009 178.78C260.094 178.781 258.257 179.542 256.902 180.896C255.548 182.251 254.787 184.088 254.787 186.003M262.009 178.78V177.336M254.787 186.003H253.342M263.453 186.003C263.453 186.193 263.416 186.381 263.343 186.556C263.271 186.731 263.164 186.89 263.03 187.024C262.896 187.158 262.737 187.265 262.562 187.337C262.386 187.41 262.199 187.447 262.009 187.447C261.819 187.447 261.631 187.41 261.456 187.337C261.281 187.265 261.122 187.158 260.988 187.024C260.854 186.89 260.747 186.731 260.675 186.556C260.602 186.381 260.565 186.193 260.565 186.003C260.565 185.62 260.717 185.253 260.988 184.982C261.258 184.711 261.626 184.559 262.009 184.559C262.392 184.559 262.759 184.711 263.03 184.982C263.301 185.253 263.453 185.62 263.453 186.003Z" stroke="#FF1919" stroke-width="2" stroke-linecap="square"/>
  </g>
  <g class="marker marker-04">
    <path d="M309.009 245.5C315.913 245.5 321.509 251.096 321.509 258C321.509 264.904 315.913 270.5 309.009 270.5C302.105 270.5 296.509 264.904 296.509 258C296.509 251.096 302.105 245.5 309.009 245.5Z" stroke="#FF1919"/>
    <path d="M309.008 251.414C310.769 251.414 312.46 252.105 313.717 253.338C314.895 254.494 315.605 256.041 315.717 257.681L315.731 258.01C315.743 258.899 315.577 259.781 315.245 260.606C314.913 261.432 314.42 262.185 313.795 262.818C313.17 263.452 312.424 263.955 311.603 264.299C310.781 264.642 309.899 264.819 309.009 264.819C308.118 264.819 307.237 264.642 306.415 264.299C305.594 263.955 304.849 263.452 304.224 262.818C303.598 262.185 303.105 261.432 302.772 260.606C302.44 259.781 302.276 258.899 302.287 258.01C302.321 256.249 303.043 254.571 304.3 253.338C305.557 252.105 307.247 251.414 309.008 251.414Z" stroke="#FF1919"/>
    <path d="M322.009 258C322.009 265.18 316.189 271 309.009 271C301.829 271 296.009 265.18 296.009 258C296.009 250.82 301.829 245 309.009 245C316.189 245 322.009 250.82 322.009 258Z" stroke="#FF1919" stroke-width="2" stroke-linecap="square"/>
    <path d="M316.232 258.003C316.231 259.918 315.47 261.755 314.116 263.109C312.761 264.464 310.924 265.225 309.009 265.225M316.232 258.003C316.232 257.055 316.045 256.115 315.682 255.239C315.319 254.363 314.787 253.566 314.116 252.896C313.445 252.225 312.649 251.693 311.773 251.33C310.897 250.967 309.957 250.78 309.009 250.78M316.232 258.003H317.675M309.009 265.225C307.094 265.224 305.257 264.463 303.903 263.109C302.549 261.755 301.788 259.918 301.787 258.003M309.009 265.225V266.669M309.009 250.78C307.094 250.781 305.257 251.542 303.902 252.896C302.548 254.251 301.787 256.088 301.787 258.003M309.009 250.78V249.336M301.787 258.003H300.342M310.453 258.003C310.453 258.193 310.416 258.381 310.343 258.556C310.271 258.731 310.164 258.89 310.03 259.024C309.896 259.158 309.737 259.265 309.562 259.337C309.386 259.41 309.199 259.447 309.009 259.447C308.819 259.447 308.631 259.41 308.456 259.337C308.281 259.265 308.122 259.158 307.988 259.024C307.854 258.89 307.747 258.731 307.675 258.556C307.602 258.381 307.565 258.193 307.565 258.003C307.565 257.62 307.717 257.253 307.988 256.982C308.258 256.711 308.626 256.559 309.009 256.559C309.392 256.559 309.759 256.711 310.03 256.982C310.301 257.253 310.453 257.62 310.453 258.003Z" stroke="#FF1919" stroke-width="2" stroke-linecap="square"/>
  </g>
  <g class="marker marker-05">
    <path d="M151.009 267.5C157.913 267.5 163.509 273.096 163.509 280C163.509 286.904 157.913 292.5 151.009 292.5C144.105 292.5 138.509 286.904 138.509 280C138.509 273.096 144.105 267.5 151.009 267.5Z" stroke="#FF1919"/>
    <path d="M151.008 273.414C152.769 273.414 154.46 274.105 155.717 275.338C156.895 276.494 157.605 278.041 157.717 279.681L157.731 280.01C157.743 280.899 157.577 281.781 157.245 282.606C156.913 283.432 156.42 284.185 155.795 284.818C155.17 285.452 154.424 285.955 153.603 286.299C152.781 286.642 151.899 286.819 151.009 286.819C150.118 286.819 149.237 286.642 148.415 286.299C147.594 285.955 146.849 285.452 146.224 284.818C145.598 284.185 145.105 283.432 144.772 282.606C144.44 281.781 144.276 280.899 144.287 280.01C144.321 278.249 145.043 276.571 146.3 275.338C147.557 274.105 149.247 273.414 151.008 273.414Z" stroke="#FF1919"/>
    <path d="M164.009 280C164.009 287.18 158.189 293 151.009 293C143.829 293 138.009 287.18 138.009 280C138.009 272.82 143.829 267 151.009 267C158.189 267 164.009 272.82 164.009 280Z" stroke="#FF1919" stroke-width="2" stroke-linecap="square"/>
    <path d="M158.232 280.003C158.231 281.918 157.47 283.755 156.116 285.109C154.761 286.464 152.924 287.225 151.009 287.225M158.232 280.003C158.232 279.055 158.045 278.115 157.682 277.239C157.319 276.363 156.787 275.566 156.116 274.896C155.445 274.225 154.649 273.693 153.773 273.33C152.897 272.967 151.957 272.78 151.009 272.78M158.232 280.003H159.675M151.009 287.225C149.094 287.224 147.257 286.463 145.903 285.109C144.549 283.755 143.788 281.918 143.787 280.003M151.009 287.225V288.669M151.009 272.78C149.094 272.781 147.257 273.542 145.902 274.896C144.548 276.251 143.787 278.088 143.787 280.003M151.009 272.78V271.336M143.787 280.003H142.342M152.453 280.003C152.453 280.193 152.416 280.381 152.343 280.556C152.271 280.731 152.164 280.89 152.03 281.024C151.896 281.158 151.737 281.265 151.562 281.337C151.386 281.41 151.199 281.447 151.009 281.447C150.819 281.447 150.631 281.41 150.456 281.337C150.281 281.265 150.122 281.158 149.988 281.024C149.854 280.89 149.747 280.731 149.675 280.556C149.602 280.381 149.565 280.193 149.565 280.003C149.565 279.62 149.717 279.253 149.988 278.982C150.258 278.711 150.626 278.559 151.009 278.559C151.392 278.559 151.759 278.711 152.03 278.982C152.301 279.253 152.453 279.62 152.453 280.003Z" stroke="#FF1919" stroke-width="2" stroke-linecap="square"/>
  </g>
</svg>
