<svg width="1009" height="265" viewBox="0 0 1009 265" fill="none" xmlns="http://www.w3.org/2000/svg">
<rect x="23.1309" y="123.012" width="46.8791" height="141" fill="#E60013"/>
<rect x="138.319" y="104.227" width="46.8791" height="160" fill="#90B3C3"/>
<rect x="252.168" y="222" width="46.8791" height="42" fill="#CCB991"/>
<rect x="366.018" y="137" width="46.8791" height="127" fill="#B6D785"/>
<rect x="595.055" y="192" width="46.8791" height="72" fill="#B5B6B6"/>
<rect x="710.244" y="250" width="46.8791" height="14" fill="#B49D6E"/>
<rect x="937.942" y="240" width="46.8791" height="24" fill="#F6D17F"/>
<g filter="url(#filter0_d_1613_2286)">
<path d="M89.686 65H3.76236C2.62346 65 1.7002 65.6893 1.7002 66.5396V111.686C1.7002 112.537 2.62346 113.226 3.76236 113.226H89.686C90.8249 113.226 91.7482 112.537 91.7482 111.686V66.5396C91.7482 65.6893 90.8249 65 89.686 65Z" fill="#DC4A2C"/>
</g>
<path d="M86.7332 68.4883H6.74609V88.27H86.7332V68.4883Z" fill="white"/>
<g style="mix-blend-mode:multiply">
<path d="M86.7332 88.332H6.74609V109.7H86.7332V88.332Z" fill="#E60012"/>
</g>
<path d="M37.7755 84.196C37.1128 84.196 36.5202 84.0793 35.9975 83.846C35.4748 83.6127 35.0595 83.286 34.7515 82.866C34.4528 82.446 34.3035 81.9653 34.3035 81.424C34.3035 80.976 34.3828 80.584 34.5415 80.248C34.7095 79.9027 34.9288 79.604 35.1995 79.352C35.4702 79.1 35.7642 78.89 36.0815 78.722V78.652C35.6895 78.372 35.3628 78.0313 35.1015 77.63C34.8402 77.2193 34.7095 76.7433 34.7095 76.202C34.7095 75.642 34.8448 75.1567 35.1155 74.746C35.3862 74.3353 35.7548 74.018 36.2215 73.794C36.6975 73.57 37.2342 73.458 37.8315 73.458C38.4475 73.458 38.9795 73.5747 39.4275 73.808C39.8755 74.032 40.2208 74.3493 40.4635 74.76C40.7155 75.1707 40.8415 75.656 40.8415 76.216C40.8415 76.552 40.7762 76.8693 40.6455 77.168C40.5242 77.4667 40.3608 77.7373 40.1555 77.98C39.9595 78.2133 39.7448 78.414 39.5115 78.582V78.652C39.8382 78.82 40.1322 79.03 40.3935 79.282C40.6548 79.534 40.8648 79.8373 41.0235 80.192C41.1822 80.5373 41.2615 80.948 41.2615 81.424C41.2615 81.9467 41.1122 82.418 40.8135 82.838C40.5242 83.258 40.1182 83.5893 39.5955 83.832C39.0728 84.0747 38.4662 84.196 37.7755 84.196ZM38.4195 78.078C38.6715 77.8073 38.8582 77.5273 38.9795 77.238C39.1008 76.9487 39.1615 76.65 39.1615 76.342C39.1615 76.062 39.1055 75.8147 38.9935 75.6C38.8908 75.376 38.7368 75.2033 38.5315 75.082C38.3262 74.9607 38.0788 74.9 37.7895 74.9C37.4348 74.9 37.1362 75.012 36.8935 75.236C36.6508 75.46 36.5295 75.782 36.5295 76.202C36.5295 76.5193 36.6088 76.7947 36.7675 77.028C36.9355 77.252 37.1642 77.448 37.4535 77.616C37.7428 77.7747 38.0648 77.9287 38.4195 78.078ZM37.8175 82.74C38.1162 82.74 38.3775 82.6887 38.6015 82.586C38.8348 82.474 39.0168 82.3153 39.1475 82.11C39.2782 81.8953 39.3435 81.6433 39.3435 81.354C39.3435 81.0833 39.2828 80.85 39.1615 80.654C39.0495 80.4487 38.8908 80.2713 38.6855 80.122C38.4802 79.9633 38.2375 79.8187 37.9575 79.688C37.6775 79.5573 37.3695 79.4173 37.0335 79.268C36.7535 79.5013 36.5248 79.786 36.3475 80.122C36.1702 80.4487 36.0815 80.808 36.0815 81.2C36.0815 81.508 36.1562 81.7787 36.3055 82.012C36.4642 82.236 36.6742 82.4133 36.9355 82.544C37.1968 82.6747 37.4908 82.74 37.8175 82.74ZM45.3333 84.196C44.6707 84.196 44.078 84.0793 43.5553 83.846C43.0327 83.6127 42.6173 83.286 42.3093 82.866C42.0107 82.446 41.8613 81.9653 41.8613 81.424C41.8613 80.976 41.9407 80.584 42.0993 80.248C42.2673 79.9027 42.4867 79.604 42.7573 79.352C43.028 79.1 43.322 78.89 43.6393 78.722V78.652C43.2473 78.372 42.9207 78.0313 42.6593 77.63C42.398 77.2193 42.2673 76.7433 42.2673 76.202C42.2673 75.642 42.4027 75.1567 42.6733 74.746C42.944 74.3353 43.3127 74.018 43.7793 73.794C44.2553 73.57 44.792 73.458 45.3893 73.458C46.0053 73.458 46.5373 73.5747 46.9853 73.808C47.4333 74.032 47.7787 74.3493 48.0213 74.76C48.2733 75.1707 48.3993 75.656 48.3993 76.216C48.3993 76.552 48.334 76.8693 48.2033 77.168C48.082 77.4667 47.9187 77.7373 47.7133 77.98C47.5173 78.2133 47.3027 78.414 47.0693 78.582V78.652C47.396 78.82 47.69 79.03 47.9513 79.282C48.2127 79.534 48.4227 79.8373 48.5813 80.192C48.74 80.5373 48.8193 80.948 48.8193 81.424C48.8193 81.9467 48.67 82.418 48.3713 82.838C48.082 83.258 47.676 83.5893 47.1533 83.832C46.6307 84.0747 46.024 84.196 45.3333 84.196ZM45.9773 78.078C46.2293 77.8073 46.416 77.5273 46.5373 77.238C46.6587 76.9487 46.7193 76.65 46.7193 76.342C46.7193 76.062 46.6633 75.8147 46.5513 75.6C46.4487 75.376 46.2947 75.2033 46.0893 75.082C45.884 74.9607 45.6367 74.9 45.3473 74.9C44.9927 74.9 44.694 75.012 44.4513 75.236C44.2087 75.46 44.0873 75.782 44.0873 76.202C44.0873 76.5193 44.1667 76.7947 44.3253 77.028C44.4933 77.252 44.722 77.448 45.0113 77.616C45.3007 77.7747 45.6227 77.9287 45.9773 78.078ZM45.3753 82.74C45.674 82.74 45.9353 82.6887 46.1593 82.586C46.3927 82.474 46.5747 82.3153 46.7053 82.11C46.836 81.8953 46.9013 81.6433 46.9013 81.354C46.9013 81.0833 46.8407 80.85 46.7193 80.654C46.6073 80.4487 46.4487 80.2713 46.2433 80.122C46.038 79.9633 45.7953 79.8187 45.5153 79.688C45.2353 79.5573 44.9273 79.4173 44.5913 79.268C44.3113 79.5013 44.0827 79.786 43.9053 80.122C43.728 80.4487 43.6393 80.808 43.6393 81.2C43.6393 81.508 43.714 81.7787 43.8633 82.012C44.022 82.236 44.232 82.4133 44.4933 82.544C44.7547 82.6747 45.0487 82.74 45.3753 82.74ZM52.9751 72.646C53.6471 72.646 54.2398 72.7767 54.7531 73.038C55.2758 73.29 55.6865 73.64 55.9851 74.088C56.2931 74.5267 56.4471 75.0353 56.4471 75.614C56.4471 76.1927 56.2931 76.706 55.9851 77.154C55.6865 77.5927 55.2758 77.938 54.7531 78.19C54.2398 78.442 53.6471 78.568 52.9751 78.568C52.3218 78.568 51.7338 78.442 51.2111 78.19C50.6885 77.938 50.2731 77.5927 49.9651 77.154C49.6665 76.706 49.5171 76.1927 49.5171 75.614C49.5171 75.0353 49.6665 74.522 49.9651 74.074C50.2731 73.626 50.6885 73.276 51.2111 73.024C51.7338 72.772 52.3218 72.646 52.9751 72.646ZM52.9891 74.158C52.6718 74.158 52.3871 74.2187 52.1351 74.34C51.8831 74.452 51.6825 74.6153 51.5331 74.83C51.3931 75.0447 51.3231 75.306 51.3231 75.614C51.3231 75.922 51.3931 76.188 51.5331 76.412C51.6825 76.6267 51.8785 76.79 52.1211 76.902C52.3731 77.014 52.6625 77.07 52.9891 77.07C53.3065 77.07 53.5865 77.014 53.8291 76.902C54.0811 76.79 54.2771 76.6267 54.4171 76.412C54.5665 76.188 54.6411 75.922 54.6411 75.614C54.6411 75.306 54.5665 75.0447 54.4171 74.83C54.2771 74.6153 54.0811 74.452 53.8291 74.34C53.5771 74.2187 53.2971 74.158 52.9891 74.158ZM58.2391 72.282H60.1011V78.764H58.2391V72.282ZM51.4631 79.296H60.1011V82.838H53.3111V84.42H51.4771V81.494H58.2531V80.724H51.4631V79.296ZM51.4771 83.65H60.4231V85.106H51.4771V83.65Z" fill="#C60003"/>
<path d="M29.2615 105V104.062C30.2788 103.157 31.1282 102.331 31.8095 101.584C32.4908 100.828 32.9995 100.128 33.3355 99.484C33.6808 98.84 33.8535 98.238 33.8535 97.678C33.8535 97.3047 33.7882 96.978 33.6575 96.698C33.5362 96.4087 33.3448 96.1893 33.0835 96.04C32.8315 95.8813 32.5095 95.802 32.1175 95.802C31.7162 95.802 31.3475 95.914 31.0115 96.138C30.6755 96.3527 30.3675 96.6187 30.0875 96.936L29.1775 96.04C29.6162 95.5547 30.0782 95.1767 30.5635 94.906C31.0582 94.6353 31.6462 94.5 32.3275 94.5C32.9528 94.5 33.4988 94.6307 33.9655 94.892C34.4322 95.144 34.7915 95.5033 35.0435 95.97C35.3048 96.4273 35.4355 96.9687 35.4355 97.594C35.4355 98.2567 35.2722 98.9287 34.9455 99.61C34.6188 100.282 34.1708 100.963 33.6015 101.654C33.0322 102.335 32.3835 103.026 31.6555 103.726C31.9262 103.698 32.2108 103.675 32.5095 103.656C32.8175 103.628 33.0928 103.614 33.3355 103.614H35.9255V105H29.2615ZM39.9339 105.196C39.2619 105.196 38.6739 104.995 38.1699 104.594C37.6659 104.193 37.2739 103.595 36.9939 102.802C36.7232 101.999 36.5879 101.001 36.5879 99.806C36.5879 98.6113 36.7232 97.622 36.9939 96.838C37.2739 96.054 37.6659 95.4707 38.1699 95.088C38.6739 94.696 39.2619 94.5 39.9339 94.5C40.6059 94.5 41.1892 94.696 41.6839 95.088C42.1785 95.48 42.5612 96.068 42.8319 96.852C43.1119 97.6267 43.2519 98.6113 43.2519 99.806C43.2519 101.001 43.1119 101.999 42.8319 102.802C42.5612 103.595 42.1785 104.193 41.6839 104.594C41.1892 104.995 40.6059 105.196 39.9339 105.196ZM39.9339 103.908C40.2792 103.908 40.5872 103.773 40.8579 103.502C41.1285 103.231 41.3385 102.797 41.4879 102.2C41.6372 101.593 41.7119 100.795 41.7119 99.806C41.7119 98.8167 41.6372 98.028 41.4879 97.44C41.3385 96.852 41.1285 96.4273 40.8579 96.166C40.5872 95.9047 40.2792 95.774 39.9339 95.774C39.5885 95.774 39.2805 95.9047 39.0099 96.166C38.7392 96.4273 38.5245 96.852 38.3659 97.44C38.2165 98.028 38.1419 98.8167 38.1419 99.806C38.1419 100.795 38.2165 101.593 38.3659 102.2C38.5245 102.797 38.7392 103.231 39.0099 103.502C39.2805 103.773 39.5885 103.908 39.9339 103.908ZM45.3003 105.196C45.0016 105.196 44.7449 105.089 44.5303 104.874C44.3249 104.65 44.2223 104.375 44.2223 104.048C44.2223 103.712 44.3249 103.441 44.5303 103.236C44.7449 103.021 45.0016 102.914 45.3003 102.914C45.6083 102.914 45.8649 103.021 46.0703 103.236C46.2849 103.441 46.3923 103.712 46.3923 104.048C46.3923 104.375 46.2849 104.65 46.0703 104.874C45.8649 105.089 45.6083 105.196 45.3003 105.196ZM50.6882 105.196C50.0442 105.196 49.4702 105.079 48.9662 104.846C48.4622 104.603 48.0608 104.277 47.7622 103.866C47.4728 103.446 47.3282 102.97 47.3282 102.438C47.3282 101.981 47.4168 101.575 47.5942 101.22C47.7715 100.865 48.0002 100.562 48.2802 100.31C48.5602 100.049 48.8542 99.834 49.1622 99.666V99.596C48.7888 99.3253 48.4668 98.994 48.1962 98.602C47.9255 98.2007 47.7902 97.7293 47.7902 97.188C47.7902 96.656 47.9162 96.1893 48.1682 95.788C48.4295 95.3867 48.7795 95.0787 49.2182 94.864C49.6662 94.64 50.1748 94.528 50.7442 94.528C51.3415 94.528 51.8548 94.6447 52.2842 94.878C52.7135 95.1113 53.0448 95.4333 53.2782 95.844C53.5208 96.2453 53.6422 96.7167 53.6422 97.258C53.6422 97.6033 53.5722 97.93 53.4322 98.238C53.2922 98.546 53.1195 98.826 52.9142 99.078C52.7182 99.3207 52.5082 99.5213 52.2842 99.68V99.75C52.6015 99.918 52.8908 100.128 53.1522 100.38C53.4135 100.623 53.6235 100.917 53.7822 101.262C53.9408 101.607 54.0202 102.013 54.0202 102.48C54.0202 102.984 53.8802 103.441 53.6002 103.852C53.3295 104.263 52.9422 104.589 52.4382 104.832C51.9435 105.075 51.3602 105.196 50.6882 105.196ZM51.3742 99.274C51.6728 98.9847 51.8968 98.6813 52.0462 98.364C52.2048 98.0373 52.2842 97.6967 52.2842 97.342C52.2842 97.034 52.2235 96.754 52.1022 96.502C51.9808 96.25 51.7988 96.054 51.5562 95.914C51.3228 95.7647 51.0382 95.69 50.7022 95.69C50.2822 95.69 49.9322 95.8253 49.6522 96.096C49.3722 96.3573 49.2322 96.7213 49.2322 97.188C49.2322 97.5613 49.3302 97.874 49.5262 98.126C49.7222 98.378 49.9835 98.5927 50.3102 98.77C50.6368 98.9473 50.9915 99.1153 51.3742 99.274ZM50.7302 104.02C51.0755 104.02 51.3788 103.955 51.6402 103.824C51.9108 103.693 52.1208 103.511 52.2702 103.278C52.4195 103.035 52.4942 102.751 52.4942 102.424C52.4942 102.116 52.4288 101.85 52.2982 101.626C52.1675 101.393 51.9855 101.192 51.7522 101.024C51.5282 100.856 51.2622 100.702 50.9542 100.562C50.6462 100.413 50.3148 100.268 49.9602 100.128C49.6055 100.38 49.3162 100.693 49.0922 101.066C48.8682 101.43 48.7562 101.831 48.7562 102.27C48.7562 102.615 48.8402 102.919 49.0082 103.18C49.1855 103.441 49.4235 103.647 49.7222 103.796C50.0208 103.945 50.3568 104.02 50.7302 104.02ZM56.8806 101.01C56.4046 101.01 55.9846 100.884 55.6206 100.632C55.2566 100.371 54.9719 99.9973 54.7666 99.512C54.5706 99.0173 54.4726 98.4247 54.4726 97.734C54.4726 97.0433 54.5706 96.46 54.7666 95.984C54.9719 95.4987 55.2566 95.13 55.6206 94.878C55.9846 94.626 56.4046 94.5 56.8806 94.5C57.3659 94.5 57.7906 94.626 58.1546 94.878C58.5186 95.13 58.7986 95.4987 58.9946 95.984C59.1999 96.46 59.3026 97.0433 59.3026 97.734C59.3026 98.4247 59.1999 99.0173 58.9946 99.512C58.7986 99.9973 58.5186 100.371 58.1546 100.632C57.7906 100.884 57.3659 101.01 56.8806 101.01ZM56.8806 100.072C57.2446 100.072 57.5386 99.8807 57.7626 99.498C57.9959 99.1153 58.1126 98.5273 58.1126 97.734C58.1126 96.9407 57.9959 96.362 57.7626 95.998C57.5386 95.634 57.2446 95.452 56.8806 95.452C56.5259 95.452 56.2319 95.634 55.9986 95.998C55.7652 96.362 55.6486 96.9407 55.6486 97.734C55.6486 98.5273 55.7652 99.1153 55.9986 99.498C56.2319 99.8807 56.5259 100.072 56.8806 100.072ZM57.2026 105.196L62.8446 94.5H63.8666L58.2246 105.196H57.2026ZM64.2026 105.196C63.7266 105.196 63.3066 105.065 62.9426 104.804C62.5786 104.543 62.2939 104.169 62.0886 103.684C61.8926 103.199 61.7946 102.611 61.7946 101.92C61.7946 101.22 61.8926 100.632 62.0886 100.156C62.2939 99.68 62.5786 99.316 62.9426 99.064C63.3066 98.8027 63.7266 98.672 64.2026 98.672C64.6786 98.672 65.0986 98.8027 65.4626 99.064C65.8266 99.316 66.1066 99.68 66.3026 100.156C66.5079 100.632 66.6106 101.22 66.6106 101.92C66.6106 102.611 66.5079 103.199 66.3026 103.684C66.1066 104.169 65.8266 104.543 65.4626 104.804C65.0986 105.065 64.6786 105.196 64.2026 105.196ZM64.2026 104.23C64.5572 104.23 64.8512 104.043 65.0846 103.67C65.3272 103.297 65.4486 102.713 65.4486 101.92C65.4486 101.117 65.3272 100.534 65.0846 100.17C64.8512 99.806 64.5572 99.624 64.2026 99.624C63.8479 99.624 63.5539 99.806 63.3206 100.17C63.0872 100.534 62.9706 101.117 62.9706 101.92C62.9706 102.713 63.0872 103.297 63.3206 103.67C63.5539 104.043 63.8479 104.23 64.2026 104.23Z" fill="white"/>
<g filter="url(#filter1_d_1613_2286)">
<path d="M318.724 164H232.8C231.662 164 230.738 164.689 230.738 165.54V210.686C230.738 211.537 231.662 212.226 232.8 212.226H318.724C319.863 212.226 320.786 211.537 320.786 210.686V165.54C320.786 164.689 319.863 164 318.724 164Z" fill="#E4CEA1"/>
</g>
<path d="M315.771 167.488H235.784V187.27H315.771V167.488Z" fill="white"/>
<g style="mix-blend-mode:multiply">
<path d="M315.771 187.332H235.784V208.7H315.771V187.332Z" fill="#E4CEA1"/>
</g>
<path d="M263.794 183V181.32H266.034V174.782H264.144V173.494C264.666 173.401 265.114 173.289 265.488 173.158C265.87 173.018 266.225 172.841 266.552 172.626H268.078V181.32H270.024V183H263.794ZM274.921 183V176.63C274.921 176.331 274.931 175.977 274.949 175.566C274.968 175.146 274.987 174.782 275.005 174.474H274.935C274.814 174.754 274.683 175.034 274.543 175.314C274.403 175.594 274.259 175.879 274.109 176.168L272.499 178.744H278.071V180.312H270.497V178.912L274.361 172.626H276.839V183H274.921ZM281.975 171.646C282.647 171.646 283.24 171.777 283.753 172.038C284.276 172.29 284.686 172.64 284.985 173.088C285.293 173.527 285.447 174.035 285.447 174.614C285.447 175.193 285.293 175.706 284.985 176.154C284.686 176.593 284.276 176.938 283.753 177.19C283.24 177.442 282.647 177.568 281.975 177.568C281.322 177.568 280.734 177.442 280.211 177.19C279.688 176.938 279.273 176.593 278.965 176.154C278.666 175.706 278.517 175.193 278.517 174.614C278.517 174.035 278.666 173.522 278.965 173.074C279.273 172.626 279.688 172.276 280.211 172.024C280.734 171.772 281.322 171.646 281.975 171.646ZM281.989 173.158C281.672 173.158 281.387 173.219 281.135 173.34C280.883 173.452 280.682 173.615 280.533 173.83C280.393 174.045 280.323 174.306 280.323 174.614C280.323 174.922 280.393 175.188 280.533 175.412C280.682 175.627 280.878 175.79 281.121 175.902C281.373 176.014 281.662 176.07 281.989 176.07C282.306 176.07 282.586 176.014 282.829 175.902C283.081 175.79 283.277 175.627 283.417 175.412C283.566 175.188 283.641 174.922 283.641 174.614C283.641 174.306 283.566 174.045 283.417 173.83C283.277 173.615 283.081 173.452 282.829 173.34C282.577 173.219 282.297 173.158 281.989 173.158ZM287.239 171.282H289.101V177.764H287.239V171.282ZM280.463 178.296H289.101V181.838H282.311V183.42H280.477V180.494H287.253V179.724H280.463V178.296ZM280.477 182.65H289.423V184.106H280.477V182.65Z" fill="#CCA666"/>
<path d="M264.398 204.196C263.856 204.196 263.376 204.131 262.956 204C262.545 203.869 262.181 203.697 261.864 203.482C261.546 203.258 261.271 203.02 261.038 202.768L261.822 201.732C262.13 202.031 262.48 202.292 262.872 202.516C263.264 202.74 263.726 202.852 264.258 202.852C264.65 202.852 264.99 202.787 265.28 202.656C265.569 202.516 265.793 202.32 265.952 202.068C266.12 201.816 266.204 201.508 266.204 201.144C266.204 200.771 266.11 200.444 265.924 200.164C265.746 199.875 265.434 199.655 264.986 199.506C264.547 199.347 263.94 199.268 263.166 199.268V198.064C263.847 198.064 264.379 197.989 264.762 197.84C265.154 197.681 265.434 197.467 265.602 197.196C265.779 196.925 265.868 196.617 265.868 196.272C265.868 195.824 265.728 195.469 265.448 195.208C265.168 194.937 264.78 194.802 264.286 194.802C263.894 194.802 263.525 194.891 263.18 195.068C262.844 195.236 262.526 195.465 262.228 195.754L261.388 194.746C261.798 194.373 262.246 194.074 262.732 193.85C263.217 193.617 263.754 193.5 264.342 193.5C264.958 193.5 265.504 193.607 265.98 193.822C266.456 194.027 266.829 194.326 267.1 194.718C267.37 195.11 267.506 195.591 267.506 196.16C267.506 196.748 267.342 197.247 267.016 197.658C266.698 198.069 266.269 198.377 265.728 198.582V198.638C266.12 198.741 266.474 198.909 266.792 199.142C267.118 199.366 267.375 199.655 267.562 200.01C267.748 200.365 267.842 200.771 267.842 201.228C267.842 201.844 267.683 202.376 267.366 202.824C267.058 203.263 266.642 203.603 266.12 203.846C265.597 204.079 265.023 204.196 264.398 204.196ZM270.016 204.196C269.717 204.196 269.461 204.089 269.246 203.874C269.041 203.65 268.938 203.375 268.938 203.048C268.938 202.712 269.041 202.441 269.246 202.236C269.461 202.021 269.717 201.914 270.016 201.914C270.324 201.914 270.581 202.021 270.786 202.236C271.001 202.441 271.108 202.712 271.108 203.048C271.108 203.375 271.001 203.65 270.786 203.874C270.581 204.089 270.324 204.196 270.016 204.196ZM275.152 204.196C274.61 204.196 274.13 204.131 273.71 204C273.299 203.869 272.935 203.697 272.618 203.482C272.3 203.258 272.025 203.02 271.792 202.768L272.576 201.732C272.884 202.031 273.234 202.292 273.626 202.516C274.018 202.74 274.48 202.852 275.012 202.852C275.404 202.852 275.744 202.787 276.034 202.656C276.323 202.516 276.547 202.32 276.706 202.068C276.874 201.816 276.958 201.508 276.958 201.144C276.958 200.771 276.864 200.444 276.678 200.164C276.5 199.875 276.188 199.655 275.74 199.506C275.301 199.347 274.694 199.268 273.92 199.268V198.064C274.601 198.064 275.133 197.989 275.516 197.84C275.908 197.681 276.188 197.467 276.356 197.196C276.533 196.925 276.622 196.617 276.622 196.272C276.622 195.824 276.482 195.469 276.202 195.208C275.922 194.937 275.534 194.802 275.04 194.802C274.648 194.802 274.279 194.891 273.934 195.068C273.598 195.236 273.28 195.465 272.982 195.754L272.142 194.746C272.552 194.373 273 194.074 273.486 193.85C273.971 193.617 274.508 193.5 275.096 193.5C275.712 193.5 276.258 193.607 276.734 193.822C277.21 194.027 277.583 194.326 277.854 194.718C278.124 195.11 278.26 195.591 278.26 196.16C278.26 196.748 278.096 197.247 277.77 197.658C277.452 198.069 277.023 198.377 276.482 198.582V198.638C276.874 198.741 277.228 198.909 277.546 199.142C277.872 199.366 278.129 199.655 278.316 200.01C278.502 200.365 278.596 200.771 278.596 201.228C278.596 201.844 278.437 202.376 278.12 202.824C277.812 203.263 277.396 203.603 276.874 203.846C276.351 204.079 275.777 204.196 275.152 204.196ZM281.596 200.01C281.12 200.01 280.7 199.884 280.336 199.632C279.972 199.371 279.688 198.997 279.482 198.512C279.286 198.017 279.188 197.425 279.188 196.734C279.188 196.043 279.286 195.46 279.482 194.984C279.688 194.499 279.972 194.13 280.336 193.878C280.7 193.626 281.12 193.5 281.596 193.5C282.082 193.5 282.506 193.626 282.87 193.878C283.234 194.13 283.514 194.499 283.71 194.984C283.916 195.46 284.018 196.043 284.018 196.734C284.018 197.425 283.916 198.017 283.71 198.512C283.514 198.997 283.234 199.371 282.87 199.632C282.506 199.884 282.082 200.01 281.596 200.01ZM281.596 199.072C281.96 199.072 282.254 198.881 282.478 198.498C282.712 198.115 282.828 197.527 282.828 196.734C282.828 195.941 282.712 195.362 282.478 194.998C282.254 194.634 281.96 194.452 281.596 194.452C281.242 194.452 280.948 194.634 280.714 194.998C280.481 195.362 280.364 195.941 280.364 196.734C280.364 197.527 280.481 198.115 280.714 198.498C280.948 198.881 281.242 199.072 281.596 199.072ZM281.918 204.196L287.56 193.5H288.582L282.94 204.196H281.918ZM288.918 204.196C288.442 204.196 288.022 204.065 287.658 203.804C287.294 203.543 287.01 203.169 286.804 202.684C286.608 202.199 286.51 201.611 286.51 200.92C286.51 200.22 286.608 199.632 286.804 199.156C287.01 198.68 287.294 198.316 287.658 198.064C288.022 197.803 288.442 197.672 288.918 197.672C289.394 197.672 289.814 197.803 290.178 198.064C290.542 198.316 290.822 198.68 291.018 199.156C291.224 199.632 291.326 200.22 291.326 200.92C291.326 201.611 291.224 202.199 291.018 202.684C290.822 203.169 290.542 203.543 290.178 203.804C289.814 204.065 289.394 204.196 288.918 204.196ZM288.918 203.23C289.273 203.23 289.567 203.043 289.8 202.67C290.043 202.297 290.164 201.713 290.164 200.92C290.164 200.117 290.043 199.534 289.8 199.17C289.567 198.806 289.273 198.624 288.918 198.624C288.564 198.624 288.27 198.806 288.036 199.17C287.803 199.534 287.686 200.117 287.686 200.92C287.686 201.713 287.803 202.297 288.036 202.67C288.27 203.043 288.564 203.23 288.918 203.23Z" fill="white"/>
<g filter="url(#filter2_d_1613_2286)">
<path d="M432.573 79H346.649C345.51 79 344.587 79.6893 344.587 80.5396V125.686C344.587 126.537 345.51 127.226 346.649 127.226H432.573C433.712 127.226 434.635 126.537 434.635 125.686V80.5396C434.635 79.6893 433.712 79 432.573 79Z" fill="#B6D785"/>
</g>
<path d="M429.62 82.4883H349.633V102.27H429.62V82.4883Z" fill="white"/>
<g style="mix-blend-mode:multiply">
<path d="M429.62 102.332H349.633V123.7H429.62V102.332Z" fill="#B6D785"/>
</g>
<path d="M377.25 98C377.296 97.104 377.376 96.278 377.488 95.522C377.6 94.7567 377.758 94.038 377.964 93.366C378.169 92.6847 378.435 92.0173 378.762 91.364C379.098 90.7107 379.513 90.0433 380.008 89.362H375.346V87.626H382.234V88.886C381.636 89.614 381.151 90.314 380.778 90.986C380.414 91.658 380.134 92.3393 379.938 93.03C379.751 93.7207 379.611 94.4673 379.518 95.27C379.434 96.0727 379.368 96.9827 379.322 98H377.25ZM383.351 98V96.32H385.591V89.782H383.701V88.494C384.224 88.4007 384.672 88.2887 385.045 88.158C385.428 88.018 385.783 87.8407 386.109 87.626H387.635V96.32H389.581V98H383.351ZM393.975 86.646C394.647 86.646 395.24 86.7767 395.753 87.038C396.276 87.29 396.686 87.64 396.985 88.088C397.293 88.5267 397.447 89.0353 397.447 89.614C397.447 90.1927 397.293 90.706 396.985 91.154C396.686 91.5927 396.276 91.938 395.753 92.19C395.24 92.442 394.647 92.568 393.975 92.568C393.322 92.568 392.734 92.442 392.211 92.19C391.688 91.938 391.273 91.5927 390.965 91.154C390.666 90.706 390.517 90.1927 390.517 89.614C390.517 89.0353 390.666 88.522 390.965 88.074C391.273 87.626 391.688 87.276 392.211 87.024C392.734 86.772 393.322 86.646 393.975 86.646ZM393.989 88.158C393.672 88.158 393.387 88.2187 393.135 88.34C392.883 88.452 392.682 88.6153 392.533 88.83C392.393 89.0447 392.323 89.306 392.323 89.614C392.323 89.922 392.393 90.188 392.533 90.412C392.682 90.6267 392.878 90.79 393.121 90.902C393.373 91.014 393.662 91.07 393.989 91.07C394.306 91.07 394.586 91.014 394.829 90.902C395.081 90.79 395.277 90.6267 395.417 90.412C395.566 90.188 395.641 89.922 395.641 89.614C395.641 89.306 395.566 89.0447 395.417 88.83C395.277 88.6153 395.081 88.452 394.829 88.34C394.577 88.2187 394.297 88.158 393.989 88.158ZM399.239 86.282H401.101V92.764H399.239V86.282ZM392.463 93.296H401.101V96.838H394.311V98.42H392.477V95.494H399.253V94.724H392.463V93.296ZM392.477 97.65H401.423V99.106H392.477V97.65Z" fill="#82B545"/>
<path d="M369.836 119V117.67H372.104V110.502H370.256V109.48C370.741 109.396 371.161 109.289 371.516 109.158C371.88 109.027 372.211 108.869 372.51 108.682H373.728V117.67H375.73V119H369.836ZM380.242 119.196C379.747 119.196 379.285 119.093 378.856 118.888C378.427 118.673 378.049 118.356 377.722 117.936C377.395 117.507 377.139 116.97 376.952 116.326C376.765 115.682 376.672 114.921 376.672 114.044C376.672 113.055 376.779 112.21 376.994 111.51C377.209 110.801 377.498 110.227 377.862 109.788C378.226 109.349 378.641 109.027 379.108 108.822C379.575 108.607 380.06 108.5 380.564 108.5C381.143 108.5 381.642 108.607 382.062 108.822C382.491 109.037 382.851 109.298 383.14 109.606L382.258 110.586C382.071 110.362 381.833 110.18 381.544 110.04C381.255 109.891 380.956 109.816 380.648 109.816C380.2 109.816 379.785 109.951 379.402 110.222C379.029 110.483 378.73 110.922 378.506 111.538C378.282 112.154 378.17 112.989 378.17 114.044C378.17 114.931 378.254 115.663 378.422 116.242C378.59 116.811 378.828 117.241 379.136 117.53C379.444 117.81 379.803 117.95 380.214 117.95C380.522 117.95 380.793 117.861 381.026 117.684C381.269 117.507 381.46 117.259 381.6 116.942C381.74 116.615 381.81 116.233 381.81 115.794C381.81 115.355 381.745 114.982 381.614 114.674C381.483 114.366 381.292 114.133 381.04 113.974C380.797 113.815 380.494 113.736 380.13 113.736C379.822 113.736 379.491 113.834 379.136 114.03C378.791 114.226 378.459 114.562 378.142 115.038L378.086 113.862C378.282 113.582 378.511 113.349 378.772 113.162C379.033 112.966 379.304 112.817 379.584 112.714C379.873 112.611 380.149 112.56 380.41 112.56C380.989 112.56 381.493 112.681 381.922 112.924C382.361 113.157 382.701 113.512 382.944 113.988C383.196 114.464 383.322 115.066 383.322 115.794C383.322 116.475 383.177 117.073 382.888 117.586C382.608 118.09 382.235 118.487 381.768 118.776C381.311 119.056 380.802 119.196 380.242 119.196ZM385.3 119.196C385.002 119.196 384.745 119.089 384.53 118.874C384.325 118.65 384.222 118.375 384.222 118.048C384.222 117.712 384.325 117.441 384.53 117.236C384.745 117.021 385.002 116.914 385.3 116.914C385.608 116.914 385.865 117.021 386.07 117.236C386.285 117.441 386.392 117.712 386.392 118.048C386.392 118.375 386.285 118.65 386.07 118.874C385.865 119.089 385.608 119.196 385.3 119.196ZM390.688 119.196C390.044 119.196 389.47 119.079 388.966 118.846C388.462 118.603 388.061 118.277 387.762 117.866C387.473 117.446 387.328 116.97 387.328 116.438C387.328 115.981 387.417 115.575 387.594 115.22C387.772 114.865 388 114.562 388.28 114.31C388.56 114.049 388.854 113.834 389.162 113.666V113.596C388.789 113.325 388.467 112.994 388.196 112.602C387.926 112.201 387.79 111.729 387.79 111.188C387.79 110.656 387.916 110.189 388.168 109.788C388.43 109.387 388.78 109.079 389.218 108.864C389.666 108.64 390.175 108.528 390.744 108.528C391.342 108.528 391.855 108.645 392.284 108.878C392.714 109.111 393.045 109.433 393.278 109.844C393.521 110.245 393.642 110.717 393.642 111.258C393.642 111.603 393.572 111.93 393.432 112.238C393.292 112.546 393.12 112.826 392.914 113.078C392.718 113.321 392.508 113.521 392.284 113.68V113.75C392.602 113.918 392.891 114.128 393.152 114.38C393.414 114.623 393.624 114.917 393.782 115.262C393.941 115.607 394.02 116.013 394.02 116.48C394.02 116.984 393.88 117.441 393.6 117.852C393.33 118.263 392.942 118.589 392.438 118.832C391.944 119.075 391.36 119.196 390.688 119.196ZM391.374 113.274C391.673 112.985 391.897 112.681 392.046 112.364C392.205 112.037 392.284 111.697 392.284 111.342C392.284 111.034 392.224 110.754 392.102 110.502C391.981 110.25 391.799 110.054 391.556 109.914C391.323 109.765 391.038 109.69 390.702 109.69C390.282 109.69 389.932 109.825 389.652 110.096C389.372 110.357 389.232 110.721 389.232 111.188C389.232 111.561 389.33 111.874 389.526 112.126C389.722 112.378 389.984 112.593 390.31 112.77C390.637 112.947 390.992 113.115 391.374 113.274ZM390.73 118.02C391.076 118.02 391.379 117.955 391.64 117.824C391.911 117.693 392.121 117.511 392.27 117.278C392.42 117.035 392.494 116.751 392.494 116.424C392.494 116.116 392.429 115.85 392.298 115.626C392.168 115.393 391.986 115.192 391.752 115.024C391.528 114.856 391.262 114.702 390.954 114.562C390.646 114.413 390.315 114.268 389.96 114.128C389.606 114.38 389.316 114.693 389.092 115.066C388.868 115.43 388.756 115.831 388.756 116.27C388.756 116.615 388.84 116.919 389.008 117.18C389.186 117.441 389.424 117.647 389.722 117.796C390.021 117.945 390.357 118.02 390.73 118.02ZM396.881 115.01C396.405 115.01 395.985 114.884 395.621 114.632C395.257 114.371 394.972 113.997 394.767 113.512C394.571 113.017 394.473 112.425 394.473 111.734C394.473 111.043 394.571 110.46 394.767 109.984C394.972 109.499 395.257 109.13 395.621 108.878C395.985 108.626 396.405 108.5 396.881 108.5C397.366 108.5 397.791 108.626 398.155 108.878C398.519 109.13 398.799 109.499 398.995 109.984C399.2 110.46 399.303 111.043 399.303 111.734C399.303 112.425 399.2 113.017 398.995 113.512C398.799 113.997 398.519 114.371 398.155 114.632C397.791 114.884 397.366 115.01 396.881 115.01ZM396.881 114.072C397.245 114.072 397.539 113.881 397.763 113.498C397.996 113.115 398.113 112.527 398.113 111.734C398.113 110.941 397.996 110.362 397.763 109.998C397.539 109.634 397.245 109.452 396.881 109.452C396.526 109.452 396.232 109.634 395.999 109.998C395.765 110.362 395.649 110.941 395.649 111.734C395.649 112.527 395.765 113.115 395.999 113.498C396.232 113.881 396.526 114.072 396.881 114.072ZM397.203 119.196L402.845 108.5H403.867L398.225 119.196H397.203ZM404.203 119.196C403.727 119.196 403.307 119.065 402.943 118.804C402.579 118.543 402.294 118.169 402.089 117.684C401.893 117.199 401.795 116.611 401.795 115.92C401.795 115.22 401.893 114.632 402.089 114.156C402.294 113.68 402.579 113.316 402.943 113.064C403.307 112.803 403.727 112.672 404.203 112.672C404.679 112.672 405.099 112.803 405.463 113.064C405.827 113.316 406.107 113.68 406.303 114.156C406.508 114.632 406.611 115.22 406.611 115.92C406.611 116.611 406.508 117.199 406.303 117.684C406.107 118.169 405.827 118.543 405.463 118.804C405.099 119.065 404.679 119.196 404.203 119.196ZM404.203 118.23C404.557 118.23 404.851 118.043 405.085 117.67C405.327 117.297 405.449 116.713 405.449 115.92C405.449 115.117 405.327 114.534 405.085 114.17C404.851 113.806 404.557 113.624 404.203 113.624C403.848 113.624 403.554 113.806 403.321 114.17C403.087 114.534 402.971 115.117 402.971 115.92C402.971 116.713 403.087 117.297 403.321 117.67C403.554 118.043 403.848 118.23 404.203 118.23Z" fill="white"/>
<g filter="url(#filter3_d_1613_2286)">
<path d="M661.611 136H575.687C574.548 136 573.625 136.689 573.625 137.54V182.686C573.625 183.537 574.548 184.226 575.687 184.226H661.611C662.75 184.226 663.673 183.537 663.673 182.686V137.54C663.673 136.689 662.75 136 661.611 136Z" fill="#B5B5B6"/>
</g>
<path d="M658.658 139.488H578.671V159.27H658.658V139.488Z" fill="white"/>
<g style="mix-blend-mode:multiply">
<path d="M658.658 159.332H578.671V180.7H658.658V159.332Z" fill="#B5B5B6"/>
</g>
<path d="M606.248 154V152.81C607.19 151.97 607.993 151.191 608.656 150.472C609.328 149.753 609.841 149.086 610.196 148.47C610.55 147.845 610.728 147.266 610.728 146.734C610.728 146.398 610.667 146.104 610.546 145.852C610.424 145.6 610.247 145.409 610.014 145.278C609.79 145.138 609.51 145.068 609.174 145.068C608.8 145.068 608.455 145.175 608.138 145.39C607.83 145.595 607.545 145.843 607.284 146.132L606.136 145.026C606.621 144.503 607.116 144.111 607.62 143.85C608.133 143.579 608.74 143.444 609.44 143.444C610.093 143.444 610.662 143.579 611.148 143.85C611.642 144.111 612.025 144.48 612.296 144.956C612.566 145.432 612.702 145.992 612.702 146.636C612.702 147.261 612.543 147.901 612.226 148.554C611.918 149.198 611.502 149.842 610.98 150.486C610.457 151.13 609.878 151.765 609.244 152.39C609.514 152.353 609.804 152.325 610.112 152.306C610.429 152.278 610.709 152.264 610.952 152.264H613.192V154H606.248ZM615.807 154C615.854 153.104 615.933 152.278 616.045 151.522C616.157 150.757 616.316 150.038 616.521 149.366C616.727 148.685 616.993 148.017 617.319 147.364C617.655 146.711 618.071 146.043 618.565 145.362H613.903V143.626H620.791V144.886C620.194 145.614 619.709 146.314 619.335 146.986C618.971 147.658 618.691 148.339 618.495 149.03C618.309 149.721 618.169 150.467 618.075 151.27C617.991 152.073 617.926 152.983 617.879 154H615.807ZM624.975 142.646C625.647 142.646 626.24 142.777 626.753 143.038C627.276 143.29 627.686 143.64 627.985 144.088C628.293 144.527 628.447 145.035 628.447 145.614C628.447 146.193 628.293 146.706 627.985 147.154C627.686 147.593 627.276 147.938 626.753 148.19C626.24 148.442 625.647 148.568 624.975 148.568C624.322 148.568 623.734 148.442 623.211 148.19C622.688 147.938 622.273 147.593 621.965 147.154C621.666 146.706 621.517 146.193 621.517 145.614C621.517 145.035 621.666 144.522 621.965 144.074C622.273 143.626 622.688 143.276 623.211 143.024C623.734 142.772 624.322 142.646 624.975 142.646ZM624.989 144.158C624.672 144.158 624.387 144.219 624.135 144.34C623.883 144.452 623.682 144.615 623.533 144.83C623.393 145.045 623.323 145.306 623.323 145.614C623.323 145.922 623.393 146.188 623.533 146.412C623.682 146.627 623.878 146.79 624.121 146.902C624.373 147.014 624.662 147.07 624.989 147.07C625.306 147.07 625.586 147.014 625.829 146.902C626.081 146.79 626.277 146.627 626.417 146.412C626.566 146.188 626.641 145.922 626.641 145.614C626.641 145.306 626.566 145.045 626.417 144.83C626.277 144.615 626.081 144.452 625.829 144.34C625.577 144.219 625.297 144.158 624.989 144.158ZM630.239 142.282H632.101V148.764H630.239V142.282ZM623.463 149.296H632.101V152.838H625.311V154.42H623.477V151.494H630.253V150.724H623.463V149.296ZM623.477 153.65H632.423V155.106H623.477V153.65Z" fill="#808082"/>
<path d="M607.958 175.196C607.463 175.196 607.001 175.093 606.572 174.888C606.142 174.673 605.764 174.356 605.438 173.936C605.111 173.507 604.854 172.97 604.668 172.326C604.481 171.682 604.388 170.921 604.388 170.044C604.388 169.055 604.495 168.21 604.71 167.51C604.924 166.801 605.214 166.227 605.578 165.788C605.942 165.349 606.357 165.027 606.824 164.822C607.29 164.607 607.776 164.5 608.28 164.5C608.858 164.5 609.358 164.607 609.778 164.822C610.207 165.037 610.566 165.298 610.856 165.606L609.974 166.586C609.787 166.362 609.549 166.18 609.26 166.04C608.97 165.891 608.672 165.816 608.364 165.816C607.916 165.816 607.5 165.951 607.118 166.222C606.744 166.483 606.446 166.922 606.222 167.538C605.998 168.154 605.886 168.989 605.886 170.044C605.886 170.931 605.97 171.663 606.138 172.242C606.306 172.811 606.544 173.241 606.852 173.53C607.16 173.81 607.519 173.95 607.93 173.95C608.238 173.95 608.508 173.861 608.742 173.684C608.984 173.507 609.176 173.259 609.316 172.942C609.456 172.615 609.526 172.233 609.526 171.794C609.526 171.355 609.46 170.982 609.33 170.674C609.199 170.366 609.008 170.133 608.756 169.974C608.513 169.815 608.21 169.736 607.846 169.736C607.538 169.736 607.206 169.834 606.852 170.03C606.506 170.226 606.175 170.562 605.858 171.038L605.802 169.862C605.998 169.582 606.226 169.349 606.488 169.162C606.749 168.966 607.02 168.817 607.3 168.714C607.589 168.611 607.864 168.56 608.126 168.56C608.704 168.56 609.208 168.681 609.638 168.924C610.076 169.157 610.417 169.512 610.66 169.988C610.912 170.464 611.038 171.066 611.038 171.794C611.038 172.475 610.893 173.073 610.604 173.586C610.324 174.09 609.95 174.487 609.484 174.776C609.026 175.056 608.518 175.196 607.958 175.196ZM613.016 175.196C612.717 175.196 612.461 175.089 612.246 174.874C612.041 174.65 611.938 174.375 611.938 174.048C611.938 173.712 612.041 173.441 612.246 173.236C612.461 173.021 612.717 172.914 613.016 172.914C613.324 172.914 613.581 173.021 613.786 173.236C614.001 173.441 614.108 173.712 614.108 174.048C614.108 174.375 614.001 174.65 613.786 174.874C613.581 175.089 613.324 175.196 613.016 175.196ZM619.146 175V168.28C619.146 168 619.155 167.669 619.174 167.286C619.192 166.894 619.206 166.558 619.216 166.278H619.16C619.029 166.539 618.894 166.805 618.754 167.076C618.623 167.347 618.483 167.613 618.334 167.874L616.318 170.968H621.96V172.228H614.68V171.15L618.782 164.682H620.658V175H619.146ZM624.596 171.01C624.12 171.01 623.7 170.884 623.336 170.632C622.972 170.371 622.688 169.997 622.482 169.512C622.286 169.017 622.188 168.425 622.188 167.734C622.188 167.043 622.286 166.46 622.482 165.984C622.688 165.499 622.972 165.13 623.336 164.878C623.7 164.626 624.12 164.5 624.596 164.5C625.082 164.5 625.506 164.626 625.87 164.878C626.234 165.13 626.514 165.499 626.71 165.984C626.916 166.46 627.018 167.043 627.018 167.734C627.018 168.425 626.916 169.017 626.71 169.512C626.514 169.997 626.234 170.371 625.87 170.632C625.506 170.884 625.082 171.01 624.596 171.01ZM624.596 170.072C624.96 170.072 625.254 169.881 625.478 169.498C625.712 169.115 625.828 168.527 625.828 167.734C625.828 166.941 625.712 166.362 625.478 165.998C625.254 165.634 624.96 165.452 624.596 165.452C624.242 165.452 623.948 165.634 623.714 165.998C623.481 166.362 623.364 166.941 623.364 167.734C623.364 168.527 623.481 169.115 623.714 169.498C623.948 169.881 624.242 170.072 624.596 170.072ZM624.918 175.196L630.56 164.5H631.582L625.94 175.196H624.918ZM631.918 175.196C631.442 175.196 631.022 175.065 630.658 174.804C630.294 174.543 630.01 174.169 629.804 173.684C629.608 173.199 629.51 172.611 629.51 171.92C629.51 171.22 629.608 170.632 629.804 170.156C630.01 169.68 630.294 169.316 630.658 169.064C631.022 168.803 631.442 168.672 631.918 168.672C632.394 168.672 632.814 168.803 633.178 169.064C633.542 169.316 633.822 169.68 634.018 170.156C634.224 170.632 634.326 171.22 634.326 171.92C634.326 172.611 634.224 173.199 634.018 173.684C633.822 174.169 633.542 174.543 633.178 174.804C632.814 175.065 632.394 175.196 631.918 175.196ZM631.918 174.23C632.273 174.23 632.567 174.043 632.8 173.67C633.043 173.297 633.164 172.713 633.164 171.92C633.164 171.117 633.043 170.534 632.8 170.17C632.567 169.806 632.273 169.624 631.918 169.624C631.564 169.624 631.27 169.806 631.036 170.17C630.803 170.534 630.686 171.117 630.686 171.92C630.686 172.713 630.803 173.297 631.036 173.67C631.27 174.043 631.564 174.23 631.918 174.23Z" fill="white"/>
<g filter="url(#filter4_d_1613_2286)">
<path d="M776.799 192H690.876C689.737 192 688.813 192.689 688.813 193.54V238.686C688.813 239.537 689.737 240.226 690.876 240.226H776.799C777.938 240.226 778.861 239.537 778.861 238.686V193.54C778.861 192.689 777.938 192 776.799 192Z" fill="#C4AC78"/>
</g>
<path d="M773.846 195.488H693.859V215.27H773.846V195.488Z" fill="white"/>
<g style="mix-blend-mode:multiply">
<path d="M773.846 215.332H693.859V236.7H773.846V215.332Z" fill="#C4AC78"/>
</g>
<path d="M727.524 210.196C726.973 210.196 726.483 210.131 726.054 210C725.624 209.869 725.242 209.697 724.906 209.482C724.57 209.267 724.271 209.034 724.01 208.782L724.962 207.466C725.158 207.662 725.368 207.839 725.592 207.998C725.825 208.157 726.077 208.283 726.348 208.376C726.628 208.469 726.926 208.516 727.244 208.516C727.598 208.516 727.911 208.441 728.182 208.292C728.462 208.143 728.681 207.928 728.84 207.648C728.998 207.359 729.078 207.013 729.078 206.612C729.078 206.015 728.914 205.553 728.588 205.226C728.27 204.899 727.85 204.736 727.328 204.736C727.029 204.736 726.772 204.778 726.558 204.862C726.343 204.937 726.082 205.072 725.774 205.268L724.836 204.666L725.116 199.626H730.66V201.362H726.894L726.698 203.56C726.903 203.467 727.104 203.397 727.3 203.35C727.496 203.303 727.71 203.28 727.944 203.28C728.522 203.28 729.054 203.397 729.54 203.63C730.025 203.854 730.412 204.209 730.702 204.694C730.991 205.179 731.136 205.8 731.136 206.556C731.136 207.321 730.963 207.979 730.618 208.53C730.282 209.071 729.838 209.487 729.288 209.776C728.746 210.056 728.158 210.196 727.524 210.196ZM735.417 198.646C736.089 198.646 736.682 198.777 737.195 199.038C737.718 199.29 738.129 199.64 738.427 200.088C738.735 200.527 738.889 201.035 738.889 201.614C738.889 202.193 738.735 202.706 738.427 203.154C738.129 203.593 737.718 203.938 737.195 204.19C736.682 204.442 736.089 204.568 735.417 204.568C734.764 204.568 734.176 204.442 733.653 204.19C733.131 203.938 732.715 203.593 732.407 203.154C732.109 202.706 731.959 202.193 731.959 201.614C731.959 201.035 732.109 200.522 732.407 200.074C732.715 199.626 733.131 199.276 733.653 199.024C734.176 198.772 734.764 198.646 735.417 198.646ZM735.431 200.158C735.114 200.158 734.829 200.219 734.577 200.34C734.325 200.452 734.125 200.615 733.975 200.83C733.835 201.045 733.765 201.306 733.765 201.614C733.765 201.922 733.835 202.188 733.975 202.412C734.125 202.627 734.321 202.79 734.563 202.902C734.815 203.014 735.105 203.07 735.431 203.07C735.749 203.07 736.029 203.014 736.271 202.902C736.523 202.79 736.719 202.627 736.859 202.412C737.009 202.188 737.083 201.922 737.083 201.614C737.083 201.306 737.009 201.045 736.859 200.83C736.719 200.615 736.523 200.452 736.271 200.34C736.019 200.219 735.739 200.158 735.431 200.158ZM740.681 198.282H742.543V204.764H740.681V198.282ZM733.905 205.296H742.543V208.838H735.753V210.42H733.919V207.494H740.695V206.724H733.905V205.296ZM733.919 209.65H742.865V211.106H733.919V209.65Z" fill="#977438"/>
<path d="M718.836 231V229.67H721.104V222.502H719.256V221.48C719.741 221.396 720.161 221.289 720.516 221.158C720.88 221.027 721.211 220.869 721.51 220.682H722.728V229.67H724.73V231H718.836ZM727.016 231.196C726.717 231.196 726.461 231.089 726.246 230.874C726.041 230.65 725.938 230.375 725.938 230.048C725.938 229.712 726.041 229.441 726.246 229.236C726.461 229.021 726.717 228.914 727.016 228.914C727.324 228.914 727.581 229.021 727.786 229.236C728.001 229.441 728.108 229.712 728.108 230.048C728.108 230.375 728.001 230.65 727.786 230.874C727.581 231.089 727.324 231.196 727.016 231.196ZM729.016 231V230.062C730.033 229.157 730.882 228.331 731.564 227.584C732.245 226.828 732.754 226.128 733.09 225.484C733.435 224.84 733.608 224.238 733.608 223.678C733.608 223.305 733.542 222.978 733.412 222.698C733.29 222.409 733.099 222.189 732.838 222.04C732.586 221.881 732.264 221.802 731.872 221.802C731.47 221.802 731.102 221.914 730.766 222.138C730.43 222.353 730.122 222.619 729.842 222.936L728.932 222.04C729.37 221.555 729.832 221.177 730.318 220.906C730.812 220.635 731.4 220.5 732.082 220.5C732.707 220.5 733.253 220.631 733.72 220.892C734.186 221.144 734.546 221.503 734.798 221.97C735.059 222.427 735.19 222.969 735.19 223.594C735.19 224.257 735.026 224.929 734.7 225.61C734.373 226.282 733.925 226.963 733.356 227.654C732.786 228.335 732.138 229.026 731.41 229.726C731.68 229.698 731.965 229.675 732.264 229.656C732.572 229.628 732.847 229.614 733.09 229.614H735.68V231H729.016ZM738.596 227.01C738.12 227.01 737.7 226.884 737.336 226.632C736.972 226.371 736.688 225.997 736.482 225.512C736.286 225.017 736.188 224.425 736.188 223.734C736.188 223.043 736.286 222.46 736.482 221.984C736.688 221.499 736.972 221.13 737.336 220.878C737.7 220.626 738.12 220.5 738.596 220.5C739.082 220.5 739.506 220.626 739.87 220.878C740.234 221.13 740.514 221.499 740.71 221.984C740.916 222.46 741.018 223.043 741.018 223.734C741.018 224.425 740.916 225.017 740.71 225.512C740.514 225.997 740.234 226.371 739.87 226.632C739.506 226.884 739.082 227.01 738.596 227.01ZM738.596 226.072C738.96 226.072 739.254 225.881 739.478 225.498C739.712 225.115 739.828 224.527 739.828 223.734C739.828 222.941 739.712 222.362 739.478 221.998C739.254 221.634 738.96 221.452 738.596 221.452C738.242 221.452 737.948 221.634 737.714 221.998C737.481 222.362 737.364 222.941 737.364 223.734C737.364 224.527 737.481 225.115 737.714 225.498C737.948 225.881 738.242 226.072 738.596 226.072ZM738.918 231.196L744.56 220.5H745.582L739.94 231.196H738.918ZM745.918 231.196C745.442 231.196 745.022 231.065 744.658 230.804C744.294 230.543 744.01 230.169 743.804 229.684C743.608 229.199 743.51 228.611 743.51 227.92C743.51 227.22 743.608 226.632 743.804 226.156C744.01 225.68 744.294 225.316 744.658 225.064C745.022 224.803 745.442 224.672 745.918 224.672C746.394 224.672 746.814 224.803 747.178 225.064C747.542 225.316 747.822 225.68 748.018 226.156C748.224 226.632 748.326 227.22 748.326 227.92C748.326 228.611 748.224 229.199 748.018 229.684C747.822 230.169 747.542 230.543 747.178 230.804C746.814 231.065 746.394 231.196 745.918 231.196ZM745.918 230.23C746.273 230.23 746.567 230.043 746.8 229.67C747.043 229.297 747.164 228.713 747.164 227.92C747.164 227.117 747.043 226.534 746.8 226.17C746.567 225.806 746.273 225.624 745.918 225.624C745.564 225.624 745.27 225.806 745.036 226.17C744.803 226.534 744.686 227.117 744.686 227.92C744.686 228.713 744.803 229.297 745.036 229.67C745.27 230.043 745.564 230.23 745.918 230.23Z" fill="white"/>
<g filter="url(#filter5_d_1613_2286)">
<path d="M1004.5 182H918.574C917.435 182 916.512 182.689 916.512 183.54V228.686C916.512 229.537 917.435 230.226 918.574 230.226H1004.5C1005.64 230.226 1006.56 229.537 1006.56 228.686V183.54C1006.56 182.689 1005.64 182 1004.5 182Z" fill="#F7D17F"/>
</g>
<path d="M1001.54 185.488H921.558V205.27H1001.54V185.488Z" fill="white"/>
<g style="mix-blend-mode:multiply">
<path d="M1001.54 205.332H921.558V226.7H1001.54V205.332Z" fill="#F7D17F"/>
</g>
<path d="M947.794 201V199.32H950.034V192.782H948.144V191.494C948.666 191.401 949.114 191.289 949.488 191.158C949.87 191.018 950.225 190.841 950.552 190.626H952.078V199.32H954.024V201H947.794ZM958.081 201.196C957.531 201.196 957.041 201.131 956.611 201C956.182 200.869 955.799 200.697 955.463 200.482C955.127 200.267 954.829 200.034 954.567 199.782L955.519 198.466C955.715 198.662 955.925 198.839 956.149 198.998C956.383 199.157 956.635 199.283 956.905 199.376C957.185 199.469 957.484 199.516 957.801 199.516C958.156 199.516 958.469 199.441 958.739 199.292C959.019 199.143 959.239 198.928 959.397 198.648C959.556 198.359 959.635 198.013 959.635 197.612C959.635 197.015 959.472 196.553 959.145 196.226C958.828 195.899 958.408 195.736 957.885 195.736C957.587 195.736 957.33 195.778 957.115 195.862C956.901 195.937 956.639 196.072 956.331 196.268L955.393 195.666L955.673 190.626H961.217V192.362H957.451L957.255 194.56C957.461 194.467 957.661 194.397 957.857 194.35C958.053 194.303 958.268 194.28 958.501 194.28C959.08 194.28 959.612 194.397 960.097 194.63C960.583 194.854 960.97 195.209 961.259 195.694C961.549 196.179 961.693 196.8 961.693 197.556C961.693 198.321 961.521 198.979 961.175 199.53C960.839 200.071 960.396 200.487 959.845 200.776C959.304 201.056 958.716 201.196 958.081 201.196ZM965.975 189.646C966.647 189.646 967.24 189.777 967.753 190.038C968.276 190.29 968.686 190.64 968.985 191.088C969.293 191.527 969.447 192.035 969.447 192.614C969.447 193.193 969.293 193.706 968.985 194.154C968.686 194.593 968.276 194.938 967.753 195.19C967.24 195.442 966.647 195.568 965.975 195.568C965.322 195.568 964.734 195.442 964.211 195.19C963.688 194.938 963.273 194.593 962.965 194.154C962.666 193.706 962.517 193.193 962.517 192.614C962.517 192.035 962.666 191.522 962.965 191.074C963.273 190.626 963.688 190.276 964.211 190.024C964.734 189.772 965.322 189.646 965.975 189.646ZM965.989 191.158C965.672 191.158 965.387 191.219 965.135 191.34C964.883 191.452 964.682 191.615 964.533 191.83C964.393 192.045 964.323 192.306 964.323 192.614C964.323 192.922 964.393 193.188 964.533 193.412C964.682 193.627 964.878 193.79 965.121 193.902C965.373 194.014 965.662 194.07 965.989 194.07C966.306 194.07 966.586 194.014 966.829 193.902C967.081 193.79 967.277 193.627 967.417 193.412C967.566 193.188 967.641 192.922 967.641 192.614C967.641 192.306 967.566 192.045 967.417 191.83C967.277 191.615 967.081 191.452 966.829 191.34C966.577 191.219 966.297 191.158 965.989 191.158ZM971.239 189.282H973.101V195.764H971.239V189.282ZM964.463 196.296H973.101V199.838H966.311V201.42H964.477V198.494H971.253V197.724H964.463V196.296ZM964.477 200.65H973.423V202.106H964.477V200.65Z" fill="#EFAB3F"/>
<path d="M948.398 222.196C947.856 222.196 947.376 222.131 946.956 222C946.545 221.869 946.181 221.697 945.864 221.482C945.546 221.258 945.271 221.02 945.038 220.768L945.822 219.732C946.13 220.031 946.48 220.292 946.872 220.516C947.264 220.74 947.726 220.852 948.258 220.852C948.65 220.852 948.99 220.787 949.28 220.656C949.569 220.516 949.793 220.32 949.952 220.068C950.12 219.816 950.204 219.508 950.204 219.144C950.204 218.771 950.11 218.444 949.924 218.164C949.746 217.875 949.434 217.655 948.986 217.506C948.547 217.347 947.94 217.268 947.166 217.268V216.064C947.847 216.064 948.379 215.989 948.762 215.84C949.154 215.681 949.434 215.467 949.602 215.196C949.779 214.925 949.868 214.617 949.868 214.272C949.868 213.824 949.728 213.469 949.448 213.208C949.168 212.937 948.78 212.802 948.286 212.802C947.894 212.802 947.525 212.891 947.18 213.068C946.844 213.236 946.526 213.465 946.228 213.754L945.388 212.746C945.798 212.373 946.246 212.074 946.732 211.85C947.217 211.617 947.754 211.5 948.342 211.5C948.958 211.5 949.504 211.607 949.98 211.822C950.456 212.027 950.829 212.326 951.1 212.718C951.37 213.11 951.506 213.591 951.506 214.16C951.506 214.748 951.342 215.247 951.016 215.658C950.698 216.069 950.269 216.377 949.728 216.582V216.638C950.12 216.741 950.474 216.909 950.792 217.142C951.118 217.366 951.375 217.655 951.562 218.01C951.748 218.365 951.842 218.771 951.842 219.228C951.842 219.844 951.683 220.376 951.366 220.824C951.058 221.263 950.642 221.603 950.12 221.846C949.597 222.079 949.023 222.196 948.398 222.196ZM954.016 222.196C953.717 222.196 953.461 222.089 953.246 221.874C953.041 221.65 952.938 221.375 952.938 221.048C952.938 220.712 953.041 220.441 953.246 220.236C953.461 220.021 953.717 219.914 954.016 219.914C954.324 219.914 954.581 220.021 954.786 220.236C955.001 220.441 955.108 220.712 955.108 221.048C955.108 221.375 955.001 221.65 954.786 221.874C954.581 222.089 954.324 222.196 954.016 222.196ZM959.152 222.196C958.62 222.196 958.144 222.131 957.724 222C957.304 221.869 956.935 221.697 956.618 221.482C956.3 221.267 956.02 221.043 955.778 220.81L956.548 219.76C956.744 219.956 956.958 220.138 957.192 220.306C957.425 220.465 957.686 220.595 957.976 220.698C958.274 220.801 958.606 220.852 958.97 220.852C959.352 220.852 959.698 220.768 960.006 220.6C960.314 220.423 960.556 220.171 960.734 219.844C960.911 219.508 961 219.111 961 218.654C961 217.982 960.818 217.459 960.454 217.086C960.099 216.713 959.628 216.526 959.04 216.526C958.713 216.526 958.433 216.573 958.2 216.666C957.966 216.759 957.7 216.904 957.402 217.1L956.604 216.582L956.912 211.682H962.134V213.054H958.312L958.074 215.686C958.298 215.574 958.522 215.49 958.746 215.434C958.97 215.369 959.217 215.336 959.488 215.336C960.066 215.336 960.594 215.453 961.07 215.686C961.546 215.919 961.924 216.279 962.204 216.764C962.484 217.24 962.624 217.856 962.624 218.612C962.624 219.368 962.46 220.017 962.134 220.558C961.807 221.09 961.378 221.496 960.846 221.776C960.323 222.056 959.758 222.196 959.152 222.196ZM965.596 218.01C965.12 218.01 964.7 217.884 964.336 217.632C963.972 217.371 963.688 216.997 963.482 216.512C963.286 216.017 963.188 215.425 963.188 214.734C963.188 214.043 963.286 213.46 963.482 212.984C963.688 212.499 963.972 212.13 964.336 211.878C964.7 211.626 965.12 211.5 965.596 211.5C966.082 211.5 966.506 211.626 966.87 211.878C967.234 212.13 967.514 212.499 967.71 212.984C967.916 213.46 968.018 214.043 968.018 214.734C968.018 215.425 967.916 216.017 967.71 216.512C967.514 216.997 967.234 217.371 966.87 217.632C966.506 217.884 966.082 218.01 965.596 218.01ZM965.596 217.072C965.96 217.072 966.254 216.881 966.478 216.498C966.712 216.115 966.828 215.527 966.828 214.734C966.828 213.941 966.712 213.362 966.478 212.998C966.254 212.634 965.96 212.452 965.596 212.452C965.242 212.452 964.948 212.634 964.714 212.998C964.481 213.362 964.364 213.941 964.364 214.734C964.364 215.527 964.481 216.115 964.714 216.498C964.948 216.881 965.242 217.072 965.596 217.072ZM965.918 222.196L971.56 211.5H972.582L966.94 222.196H965.918ZM972.918 222.196C972.442 222.196 972.022 222.065 971.658 221.804C971.294 221.543 971.01 221.169 970.804 220.684C970.608 220.199 970.51 219.611 970.51 218.92C970.51 218.22 970.608 217.632 970.804 217.156C971.01 216.68 971.294 216.316 971.658 216.064C972.022 215.803 972.442 215.672 972.918 215.672C973.394 215.672 973.814 215.803 974.178 216.064C974.542 216.316 974.822 216.68 975.018 217.156C975.224 217.632 975.326 218.22 975.326 218.92C975.326 219.611 975.224 220.199 975.018 220.684C974.822 221.169 974.542 221.543 974.178 221.804C973.814 222.065 973.394 222.196 972.918 222.196ZM972.918 221.23C973.273 221.23 973.567 221.043 973.8 220.67C974.043 220.297 974.164 219.713 974.164 218.92C974.164 218.117 974.043 217.534 973.8 217.17C973.567 216.806 973.273 216.624 972.918 216.624C972.564 216.624 972.27 216.806 972.036 217.17C971.803 217.534 971.686 218.117 971.686 218.92C971.686 219.713 971.803 220.297 972.036 220.67C972.27 221.043 972.564 221.23 972.918 221.23Z" fill="white"/>
<g filter="url(#filter6_d_1613_2286)">
<path d="M547.761 2H461.838C460.699 2 459.775 2.68931 459.775 3.53962V48.6862C459.775 49.5365 460.699 50.2258 461.838 50.2258H547.761C548.9 50.2258 549.823 49.5365 549.823 48.6862V3.53962C549.823 2.68931 548.9 2 547.761 2Z" fill="#8ED2EF"/>
</g>
<path d="M544.808 5.48828H464.821V25.27H544.808V5.48828Z" fill="white"/>
<g style="mix-blend-mode:multiply">
<path d="M544.808 25.332H464.821V46.7001H544.808V25.332Z" fill="#8ED2EF"/>
</g>
<path d="M488.794 21V19.32H491.034V12.782H489.144V11.494C489.666 11.4007 490.114 11.2887 490.488 11.158C490.87 11.018 491.225 10.8407 491.552 10.626H493.078V19.32H495.024V21H488.794ZM496.351 21V19.32H498.591V12.782H496.701V11.494C497.224 11.4007 497.672 11.2887 498.045 11.158C498.428 11.018 498.783 10.8407 499.109 10.626H500.635V19.32H502.581V21H496.351ZM506.891 21.196C506.191 21.196 505.575 20.9953 505.043 20.594C504.52 20.1833 504.11 19.5767 503.811 18.774C503.522 17.962 503.377 16.9587 503.377 15.764C503.377 14.5787 503.522 13.594 503.811 12.81C504.11 12.0167 504.52 11.424 505.043 11.032C505.575 10.64 506.191 10.444 506.891 10.444C507.6 10.444 508.216 10.6447 508.739 11.046C509.262 11.438 509.668 12.026 509.957 12.81C510.256 13.594 510.405 14.5787 510.405 15.764C510.405 16.9587 510.256 17.962 509.957 18.774C509.668 19.5767 509.262 20.1833 508.739 20.594C508.216 20.9953 507.6 21.196 506.891 21.196ZM506.891 19.586C507.199 19.586 507.47 19.4693 507.703 19.236C507.936 19.0027 508.118 18.6107 508.249 18.06C508.38 17.5 508.445 16.7347 508.445 15.764C508.445 14.8027 508.38 14.0513 508.249 13.51C508.118 12.9593 507.936 12.5767 507.703 12.362C507.47 12.138 507.199 12.026 506.891 12.026C506.602 12.026 506.336 12.138 506.093 12.362C505.86 12.5767 505.673 12.9593 505.533 13.51C505.393 14.0513 505.323 14.8027 505.323 15.764C505.323 16.7347 505.393 17.5 505.533 18.06C505.673 18.6107 505.86 19.0027 506.093 19.236C506.336 19.4693 506.602 19.586 506.891 19.586ZM514.533 9.646C515.205 9.646 515.798 9.77667 516.311 10.038C516.834 10.29 517.244 10.64 517.543 11.088C517.851 11.5267 518.005 12.0353 518.005 12.614C518.005 13.1927 517.851 13.706 517.543 14.154C517.244 14.5927 516.834 14.938 516.311 15.19C515.798 15.442 515.205 15.568 514.533 15.568C513.88 15.568 513.292 15.442 512.769 15.19C512.246 14.938 511.831 14.5927 511.523 14.154C511.224 13.706 511.075 13.1927 511.075 12.614C511.075 12.0353 511.224 11.522 511.523 11.074C511.831 10.626 512.246 10.276 512.769 10.024C513.292 9.772 513.88 9.646 514.533 9.646ZM514.547 11.158C514.23 11.158 513.945 11.2187 513.693 11.34C513.441 11.452 513.24 11.6153 513.091 11.83C512.951 12.0447 512.881 12.306 512.881 12.614C512.881 12.922 512.951 13.188 513.091 13.412C513.24 13.6267 513.436 13.79 513.679 13.902C513.931 14.014 514.22 14.07 514.547 14.07C514.864 14.07 515.144 14.014 515.387 13.902C515.639 13.79 515.835 13.6267 515.975 13.412C516.124 13.188 516.199 12.922 516.199 12.614C516.199 12.306 516.124 12.0447 515.975 11.83C515.835 11.6153 515.639 11.452 515.387 11.34C515.135 11.2187 514.855 11.158 514.547 11.158ZM519.797 9.282H521.659V15.764H519.797V9.282ZM513.021 16.296H521.659V19.838H514.869V21.42H513.035V18.494H519.811V17.724H513.021V16.296ZM513.035 20.65H521.981V22.106H513.035V20.65Z" fill="#4FADE0"/>
<path d="M492.262 42V41.062C493.279 40.1567 494.128 39.3307 494.81 38.584C495.491 37.828 496 37.128 496.336 36.484C496.681 35.84 496.854 35.238 496.854 34.678C496.854 34.3047 496.788 33.978 496.658 33.698C496.536 33.4087 496.345 33.1893 496.084 33.04C495.832 32.8813 495.51 32.802 495.118 32.802C494.716 32.802 494.348 32.914 494.012 33.138C493.676 33.3527 493.368 33.6187 493.088 33.936L492.178 33.04C492.616 32.5547 493.078 32.1767 493.564 31.906C494.058 31.6353 494.646 31.5 495.328 31.5C495.953 31.5 496.499 31.6307 496.966 31.892C497.432 32.144 497.792 32.5033 498.044 32.97C498.305 33.4273 498.436 33.9687 498.436 34.594C498.436 35.2567 498.272 35.9287 497.946 36.61C497.619 37.282 497.171 37.9633 496.602 38.654C496.032 39.3353 495.384 40.026 494.656 40.726C494.926 40.698 495.211 40.6747 495.51 40.656C495.818 40.628 496.093 40.614 496.336 40.614H498.926V42H492.262ZM503.242 42.196C502.747 42.196 502.285 42.0933 501.856 41.888C501.427 41.6733 501.049 41.356 500.722 40.936C500.395 40.5067 500.139 39.97 499.952 39.326C499.765 38.682 499.672 37.9213 499.672 37.044C499.672 36.0547 499.779 35.21 499.994 34.51C500.209 33.8007 500.498 33.2267 500.862 32.788C501.226 32.3493 501.641 32.0273 502.108 31.822C502.575 31.6073 503.06 31.5 503.564 31.5C504.143 31.5 504.642 31.6073 505.062 31.822C505.491 32.0367 505.851 32.298 506.14 32.606L505.258 33.586C505.071 33.362 504.833 33.18 504.544 33.04C504.255 32.8907 503.956 32.816 503.648 32.816C503.2 32.816 502.785 32.9513 502.402 33.222C502.029 33.4833 501.73 33.922 501.506 34.538C501.282 35.154 501.17 35.9893 501.17 37.044C501.17 37.9307 501.254 38.6633 501.422 39.242C501.59 39.8113 501.828 40.2407 502.136 40.53C502.444 40.81 502.803 40.95 503.214 40.95C503.522 40.95 503.793 40.8613 504.026 40.684C504.269 40.5067 504.46 40.2593 504.6 39.942C504.74 39.6153 504.81 39.2327 504.81 38.794C504.81 38.3553 504.745 37.982 504.614 37.674C504.483 37.366 504.292 37.1327 504.04 36.974C503.797 36.8153 503.494 36.736 503.13 36.736C502.822 36.736 502.491 36.834 502.136 37.03C501.791 37.226 501.459 37.562 501.142 38.038L501.086 36.862C501.282 36.582 501.511 36.3487 501.772 36.162C502.033 35.966 502.304 35.8167 502.584 35.714C502.873 35.6113 503.149 35.56 503.41 35.56C503.989 35.56 504.493 35.6813 504.922 35.924C505.361 36.1573 505.701 36.512 505.944 36.988C506.196 37.464 506.322 38.066 506.322 38.794C506.322 39.4753 506.177 40.0727 505.888 40.586C505.608 41.09 505.235 41.4867 504.768 41.776C504.311 42.056 503.802 42.196 503.242 42.196ZM509.126 38.01C508.65 38.01 508.23 37.884 507.866 37.632C507.502 37.3707 507.218 36.9973 507.012 36.512C506.816 36.0173 506.718 35.4247 506.718 34.734C506.718 34.0433 506.816 33.46 507.012 32.984C507.218 32.4987 507.502 32.13 507.866 31.878C508.23 31.626 508.65 31.5 509.126 31.5C509.612 31.5 510.036 31.626 510.4 31.878C510.764 32.13 511.044 32.4987 511.24 32.984C511.446 33.46 511.548 34.0433 511.548 34.734C511.548 35.4247 511.446 36.0173 511.24 36.512C511.044 36.9973 510.764 37.3707 510.4 37.632C510.036 37.884 509.612 38.01 509.126 38.01ZM509.126 37.072C509.49 37.072 509.784 36.8807 510.008 36.498C510.242 36.1153 510.358 35.5273 510.358 34.734C510.358 33.9407 510.242 33.362 510.008 32.998C509.784 32.634 509.49 32.452 509.126 32.452C508.772 32.452 508.478 32.634 508.244 32.998C508.011 33.362 507.894 33.9407 507.894 34.734C507.894 35.5273 508.011 36.1153 508.244 36.498C508.478 36.8807 508.772 37.072 509.126 37.072ZM509.448 42.196L515.09 31.5H516.112L510.47 42.196H509.448ZM516.448 42.196C515.972 42.196 515.552 42.0653 515.188 41.804C514.824 41.5427 514.54 41.1693 514.334 40.684C514.138 40.1987 514.04 39.6107 514.04 38.92C514.04 38.22 514.138 37.632 514.334 37.156C514.54 36.68 514.824 36.316 515.188 36.064C515.552 35.8027 515.972 35.672 516.448 35.672C516.924 35.672 517.344 35.8027 517.708 36.064C518.072 36.316 518.352 36.68 518.548 37.156C518.754 37.632 518.856 38.22 518.856 38.92C518.856 39.6107 518.754 40.1987 518.548 40.684C518.352 41.1693 518.072 41.5427 517.708 41.804C517.344 42.0653 516.924 42.196 516.448 42.196ZM516.448 41.23C516.803 41.23 517.097 41.0433 517.33 40.67C517.573 40.2967 517.694 39.7133 517.694 38.92C517.694 38.1173 517.573 37.534 517.33 37.17C517.097 36.806 516.803 36.624 516.448 36.624C516.094 36.624 515.8 36.806 515.566 37.17C515.333 37.534 515.216 38.1173 515.216 38.92C515.216 39.7133 515.333 40.2967 515.566 40.67C515.8 41.0433 516.094 41.23 516.448 41.23Z" fill="white"/>
<rect x="481.206" y="60" width="46.8791" height="204" fill="#8ED2EE"/>
<g filter="url(#filter7_d_1613_2286)">
<path d="M204.874 46H118.951C117.812 46 116.889 46.6893 116.889 47.5396V92.6862C116.889 93.5365 117.812 94.2258 118.951 94.2258H204.874C206.013 94.2258 206.937 93.5365 206.937 92.6862V47.5396C206.937 46.6893 206.013 46 204.874 46Z" fill="#90B3C3"/>
</g>
<path d="M201.922 49.4883H121.935V69.27H201.922V49.4883Z" fill="white"/>
<g style="mix-blend-mode:multiply">
<path d="M201.922 69.332H121.935V90.7001H201.922V69.332Z" fill="#90B3C3"/>
</g>
<path d="M152.216 65.196C151.572 65.196 151.012 65.0793 150.536 64.846C150.069 64.6127 149.682 64.3373 149.374 64.02L150.466 62.774C150.652 62.9887 150.895 63.166 151.194 63.306C151.492 63.446 151.796 63.516 152.104 63.516C152.402 63.516 152.687 63.4507 152.958 63.32C153.228 63.18 153.462 62.9607 153.658 62.662C153.863 62.354 154.022 61.948 154.134 61.444C154.255 60.94 154.316 60.3193 154.316 59.582C154.316 58.6953 154.232 57.9907 154.064 57.468C153.905 56.9453 153.69 56.572 153.42 56.348C153.149 56.1147 152.841 55.998 152.496 55.998C152.244 55.998 152.01 56.068 151.796 56.208C151.581 56.348 151.408 56.558 151.278 56.838C151.156 57.118 151.096 57.4727 151.096 57.902C151.096 58.3033 151.156 58.6393 151.278 58.91C151.399 59.1713 151.567 59.3673 151.782 59.498C152.006 59.6287 152.267 59.694 152.566 59.694C152.855 59.694 153.154 59.6053 153.462 59.428C153.77 59.2507 154.05 58.952 154.302 58.532L154.4 59.918C154.222 60.17 154.003 60.3893 153.742 60.576C153.49 60.7627 153.228 60.9073 152.958 61.01C152.687 61.1127 152.426 61.164 152.174 61.164C151.604 61.164 151.096 61.0473 150.648 60.814C150.2 60.5713 149.845 60.212 149.584 59.736C149.332 59.2507 149.206 58.6393 149.206 57.902C149.206 57.1927 149.355 56.5813 149.654 56.068C149.952 55.5453 150.349 55.144 150.844 54.864C151.338 54.584 151.88 54.444 152.468 54.444C152.962 54.444 153.429 54.5467 153.868 54.752C154.316 54.948 154.712 55.256 155.058 55.676C155.412 56.0867 155.688 56.6187 155.884 57.272C156.089 57.916 156.192 58.686 156.192 59.582C156.192 60.562 156.084 61.4067 155.87 62.116C155.655 62.816 155.356 63.3947 154.974 63.852C154.6 64.3093 154.176 64.65 153.7 64.874C153.224 65.0887 152.729 65.196 152.216 65.196ZM160.025 65.196C159.484 65.196 158.999 65.1307 158.569 65C158.14 64.8787 157.757 64.7107 157.421 64.496C157.095 64.272 156.81 64.0247 156.567 63.754L157.533 62.452C157.851 62.7413 158.196 62.9933 158.569 63.208C158.952 63.4133 159.377 63.516 159.843 63.516C160.198 63.516 160.506 63.46 160.767 63.348C161.038 63.236 161.243 63.0727 161.383 62.858C161.533 62.6433 161.607 62.382 161.607 62.074C161.607 61.7287 161.523 61.4347 161.355 61.192C161.197 60.94 160.912 60.7487 160.501 60.618C160.091 60.4873 159.512 60.422 158.765 60.422V58.938C159.4 58.938 159.899 58.8727 160.263 58.742C160.627 58.602 160.884 58.4153 161.033 58.182C161.192 57.9393 161.271 57.664 161.271 57.356C161.271 56.9547 161.15 56.642 160.907 56.418C160.665 56.1847 160.324 56.068 159.885 56.068C159.521 56.068 159.181 56.152 158.863 56.32C158.555 56.4787 158.247 56.698 157.939 56.978L156.875 55.704C157.333 55.3213 157.813 55.018 158.317 54.794C158.821 54.5607 159.377 54.444 159.983 54.444C160.646 54.444 161.229 54.5513 161.733 54.766C162.247 54.9807 162.643 55.2933 162.923 55.704C163.203 56.1147 163.343 56.614 163.343 57.202C163.343 57.762 163.194 58.2427 162.895 58.644C162.597 59.0453 162.172 59.3533 161.621 59.568V59.638C162.004 59.7407 162.349 59.9087 162.657 60.142C162.975 60.366 163.222 60.6507 163.399 60.996C163.586 61.3413 163.679 61.7427 163.679 62.2C163.679 62.8253 163.511 63.362 163.175 63.81C162.849 64.258 162.405 64.6033 161.845 64.846C161.295 65.0793 160.688 65.196 160.025 65.196ZM167.975 53.646C168.647 53.646 169.24 53.7767 169.753 54.038C170.276 54.29 170.686 54.64 170.985 55.088C171.293 55.5267 171.447 56.0353 171.447 56.614C171.447 57.1927 171.293 57.706 170.985 58.154C170.686 58.5927 170.276 58.938 169.753 59.19C169.24 59.442 168.647 59.568 167.975 59.568C167.322 59.568 166.734 59.442 166.211 59.19C165.688 58.938 165.273 58.5927 164.965 58.154C164.666 57.706 164.517 57.1927 164.517 56.614C164.517 56.0353 164.666 55.522 164.965 55.074C165.273 54.626 165.688 54.276 166.211 54.024C166.734 53.772 167.322 53.646 167.975 53.646ZM167.989 55.158C167.672 55.158 167.387 55.2187 167.135 55.34C166.883 55.452 166.682 55.6153 166.533 55.83C166.393 56.0447 166.323 56.306 166.323 56.614C166.323 56.922 166.393 57.188 166.533 57.412C166.682 57.6267 166.878 57.79 167.121 57.902C167.373 58.014 167.662 58.07 167.989 58.07C168.306 58.07 168.586 58.014 168.829 57.902C169.081 57.79 169.277 57.6267 169.417 57.412C169.566 57.188 169.641 56.922 169.641 56.614C169.641 56.306 169.566 56.0447 169.417 55.83C169.277 55.6153 169.081 55.452 168.829 55.34C168.577 55.2187 168.297 55.158 167.989 55.158ZM173.239 53.282H175.101V59.764H173.239V53.282ZM166.463 60.296H175.101V63.838H168.311V65.42H166.477V62.494H173.253V61.724H166.463V60.296ZM166.477 64.65H175.423V66.106H166.477V64.65Z" fill="#517E95"/>
<path d="M149.262 86V85.062C150.279 84.1567 151.128 83.3307 151.81 82.584C152.491 81.828 153 81.128 153.336 80.484C153.681 79.84 153.854 79.238 153.854 78.678C153.854 78.3047 153.788 77.978 153.658 77.698C153.536 77.4087 153.345 77.1893 153.084 77.04C152.832 76.8813 152.51 76.802 152.118 76.802C151.716 76.802 151.348 76.914 151.012 77.138C150.676 77.3527 150.368 77.6187 150.088 77.936L149.178 77.04C149.616 76.5547 150.078 76.1767 150.564 75.906C151.058 75.6353 151.646 75.5 152.328 75.5C152.953 75.5 153.499 75.6307 153.966 75.892C154.432 76.144 154.792 76.5033 155.044 76.97C155.305 77.4273 155.436 77.9687 155.436 78.594C155.436 79.2567 155.272 79.9287 154.946 80.61C154.619 81.282 154.171 81.9633 153.602 82.654C153.032 83.3353 152.384 84.026 151.656 84.726C151.926 84.698 152.211 84.6747 152.51 84.656C152.818 84.628 153.093 84.614 153.336 84.614H155.926V86H149.262ZM156.546 86V85.062C157.563 84.1567 158.413 83.3307 159.094 82.584C159.775 81.828 160.284 81.128 160.62 80.484C160.965 79.84 161.138 79.238 161.138 78.678C161.138 78.3047 161.073 77.978 160.942 77.698C160.821 77.4087 160.629 77.1893 160.368 77.04C160.116 76.8813 159.794 76.802 159.402 76.802C159.001 76.802 158.632 76.914 158.296 77.138C157.96 77.3527 157.652 77.6187 157.372 77.936L156.462 77.04C156.901 76.5547 157.363 76.1767 157.848 75.906C158.343 75.6353 158.931 75.5 159.612 75.5C160.237 75.5 160.783 75.6307 161.25 75.892C161.717 76.144 162.076 76.5033 162.328 76.97C162.589 77.4273 162.72 77.9687 162.72 78.594C162.72 79.2567 162.557 79.9287 162.23 80.61C161.903 81.282 161.455 81.9633 160.886 82.654C160.317 83.3353 159.668 84.026 158.94 84.726C159.211 84.698 159.495 84.6747 159.794 84.656C160.102 84.628 160.377 84.614 160.62 84.614H163.21V86H156.546ZM166.126 82.01C165.65 82.01 165.23 81.884 164.866 81.632C164.502 81.3707 164.218 80.9973 164.012 80.512C163.816 80.0173 163.718 79.4247 163.718 78.734C163.718 78.0433 163.816 77.46 164.012 76.984C164.218 76.4987 164.502 76.13 164.866 75.878C165.23 75.626 165.65 75.5 166.126 75.5C166.612 75.5 167.036 75.626 167.4 75.878C167.764 76.13 168.044 76.4987 168.24 76.984C168.446 77.46 168.548 78.0433 168.548 78.734C168.548 79.4247 168.446 80.0173 168.24 80.512C168.044 80.9973 167.764 81.3707 167.4 81.632C167.036 81.884 166.612 82.01 166.126 82.01ZM166.126 81.072C166.49 81.072 166.784 80.8807 167.008 80.498C167.242 80.1153 167.358 79.5273 167.358 78.734C167.358 77.9407 167.242 77.362 167.008 76.998C166.784 76.634 166.49 76.452 166.126 76.452C165.772 76.452 165.478 76.634 165.244 76.998C165.011 77.362 164.894 77.9407 164.894 78.734C164.894 79.5273 165.011 80.1153 165.244 80.498C165.478 80.8807 165.772 81.072 166.126 81.072ZM166.448 86.196L172.09 75.5H173.112L167.47 86.196H166.448ZM173.448 86.196C172.972 86.196 172.552 86.0653 172.188 85.804C171.824 85.5427 171.54 85.1693 171.334 84.684C171.138 84.1987 171.04 83.6107 171.04 82.92C171.04 82.22 171.138 81.632 171.334 81.156C171.54 80.68 171.824 80.316 172.188 80.064C172.552 79.8027 172.972 79.672 173.448 79.672C173.924 79.672 174.344 79.8027 174.708 80.064C175.072 80.316 175.352 80.68 175.548 81.156C175.754 81.632 175.856 82.22 175.856 82.92C175.856 83.6107 175.754 84.1987 175.548 84.684C175.352 85.1693 175.072 85.5427 174.708 85.804C174.344 86.0653 173.924 86.196 173.448 86.196ZM173.448 85.23C173.803 85.23 174.097 85.0433 174.33 84.67C174.573 84.2967 174.694 83.7133 174.694 82.92C174.694 82.1173 174.573 81.534 174.33 81.17C174.097 80.806 173.803 80.624 173.448 80.624C173.094 80.624 172.8 80.806 172.566 81.17C172.333 81.534 172.216 82.1173 172.216 82.92C172.216 83.7133 172.333 84.2967 172.566 84.67C172.8 85.0433 173.094 85.23 173.448 85.23Z" fill="white"/>
<defs>
<filter id="filter0_d_1613_2286" x="0.000195265" y="63.3" width="93.4479" height="51.6266" filterUnits="userSpaceOnUse" color-interpolation-filters="sRGB">
<feFlood flood-opacity="0" result="BackgroundImageFix"/>
<feColorMatrix in="SourceAlpha" type="matrix" values="0 0 0 0 0 0 0 0 0 0 0 0 0 0 0 0 0 0 127 0" result="hardAlpha"/>
<feOffset/>
<feGaussianBlur stdDeviation="0.85"/>
<feColorMatrix type="matrix" values="0 0 0 0 0.137255 0 0 0 0 0.0941176 0 0 0 0 0.0823529 0 0 0 0.35 0"/>
<feBlend mode="normal" in2="BackgroundImageFix" result="effect1_dropShadow_1613_2286"/>
<feBlend mode="normal" in="SourceGraphic" in2="effect1_dropShadow_1613_2286" result="shape"/>
</filter>
<filter id="filter1_d_1613_2286" x="229.038" y="162.3" width="93.4479" height="51.6266" filterUnits="userSpaceOnUse" color-interpolation-filters="sRGB">
<feFlood flood-opacity="0" result="BackgroundImageFix"/>
<feColorMatrix in="SourceAlpha" type="matrix" values="0 0 0 0 0 0 0 0 0 0 0 0 0 0 0 0 0 0 127 0" result="hardAlpha"/>
<feOffset/>
<feGaussianBlur stdDeviation="0.85"/>
<feColorMatrix type="matrix" values="0 0 0 0 0.137255 0 0 0 0 0.0941176 0 0 0 0 0.0823529 0 0 0 0.35 0"/>
<feBlend mode="normal" in2="BackgroundImageFix" result="effect1_dropShadow_1613_2286"/>
<feBlend mode="normal" in="SourceGraphic" in2="effect1_dropShadow_1613_2286" result="shape"/>
</filter>
<filter id="filter2_d_1613_2286" x="342.887" y="77.3" width="93.4479" height="51.6266" filterUnits="userSpaceOnUse" color-interpolation-filters="sRGB">
<feFlood flood-opacity="0" result="BackgroundImageFix"/>
<feColorMatrix in="SourceAlpha" type="matrix" values="0 0 0 0 0 0 0 0 0 0 0 0 0 0 0 0 0 0 127 0" result="hardAlpha"/>
<feOffset/>
<feGaussianBlur stdDeviation="0.85"/>
<feColorMatrix type="matrix" values="0 0 0 0 0.137255 0 0 0 0 0.0941176 0 0 0 0 0.0823529 0 0 0 0.35 0"/>
<feBlend mode="normal" in2="BackgroundImageFix" result="effect1_dropShadow_1613_2286"/>
<feBlend mode="normal" in="SourceGraphic" in2="effect1_dropShadow_1613_2286" result="shape"/>
</filter>
<filter id="filter3_d_1613_2286" x="571.925" y="134.3" width="93.4479" height="51.6266" filterUnits="userSpaceOnUse" color-interpolation-filters="sRGB">
<feFlood flood-opacity="0" result="BackgroundImageFix"/>
<feColorMatrix in="SourceAlpha" type="matrix" values="0 0 0 0 0 0 0 0 0 0 0 0 0 0 0 0 0 0 127 0" result="hardAlpha"/>
<feOffset/>
<feGaussianBlur stdDeviation="0.85"/>
<feColorMatrix type="matrix" values="0 0 0 0 0.137255 0 0 0 0 0.0941176 0 0 0 0 0.0823529 0 0 0 0.35 0"/>
<feBlend mode="normal" in2="BackgroundImageFix" result="effect1_dropShadow_1613_2286"/>
<feBlend mode="normal" in="SourceGraphic" in2="effect1_dropShadow_1613_2286" result="shape"/>
</filter>
<filter id="filter4_d_1613_2286" x="687.113" y="190.3" width="93.4479" height="51.6266" filterUnits="userSpaceOnUse" color-interpolation-filters="sRGB">
<feFlood flood-opacity="0" result="BackgroundImageFix"/>
<feColorMatrix in="SourceAlpha" type="matrix" values="0 0 0 0 0 0 0 0 0 0 0 0 0 0 0 0 0 0 127 0" result="hardAlpha"/>
<feOffset/>
<feGaussianBlur stdDeviation="0.85"/>
<feColorMatrix type="matrix" values="0 0 0 0 0.137255 0 0 0 0 0.0941176 0 0 0 0 0.0823529 0 0 0 0.35 0"/>
<feBlend mode="normal" in2="BackgroundImageFix" result="effect1_dropShadow_1613_2286"/>
<feBlend mode="normal" in="SourceGraphic" in2="effect1_dropShadow_1613_2286" result="shape"/>
</filter>
<filter id="filter5_d_1613_2286" x="914.812" y="180.3" width="93.4479" height="51.6266" filterUnits="userSpaceOnUse" color-interpolation-filters="sRGB">
<feFlood flood-opacity="0" result="BackgroundImageFix"/>
<feColorMatrix in="SourceAlpha" type="matrix" values="0 0 0 0 0 0 0 0 0 0 0 0 0 0 0 0 0 0 127 0" result="hardAlpha"/>
<feOffset/>
<feGaussianBlur stdDeviation="0.85"/>
<feColorMatrix type="matrix" values="0 0 0 0 0.137255 0 0 0 0 0.0941176 0 0 0 0 0.0823529 0 0 0 0.35 0"/>
<feBlend mode="normal" in2="BackgroundImageFix" result="effect1_dropShadow_1613_2286"/>
<feBlend mode="normal" in="SourceGraphic" in2="effect1_dropShadow_1613_2286" result="shape"/>
</filter>
<filter id="filter6_d_1613_2286" x="458.075" y="0.3" width="93.4479" height="51.6266" filterUnits="userSpaceOnUse" color-interpolation-filters="sRGB">
<feFlood flood-opacity="0" result="BackgroundImageFix"/>
<feColorMatrix in="SourceAlpha" type="matrix" values="0 0 0 0 0 0 0 0 0 0 0 0 0 0 0 0 0 0 127 0" result="hardAlpha"/>
<feOffset/>
<feGaussianBlur stdDeviation="0.85"/>
<feColorMatrix type="matrix" values="0 0 0 0 0.137255 0 0 0 0 0.0941176 0 0 0 0 0.0823529 0 0 0 0.35 0"/>
<feBlend mode="normal" in2="BackgroundImageFix" result="effect1_dropShadow_1613_2286"/>
<feBlend mode="normal" in="SourceGraphic" in2="effect1_dropShadow_1613_2286" result="shape"/>
</filter>
<filter id="filter7_d_1613_2286" x="115.189" y="44.3" width="93.4479" height="51.6266" filterUnits="userSpaceOnUse" color-interpolation-filters="sRGB">
<feFlood flood-opacity="0" result="BackgroundImageFix"/>
<feColorMatrix in="SourceAlpha" type="matrix" values="0 0 0 0 0 0 0 0 0 0 0 0 0 0 0 0 0 0 127 0" result="hardAlpha"/>
<feOffset/>
<feGaussianBlur stdDeviation="0.85"/>
<feColorMatrix type="matrix" values="0 0 0 0 0.137255 0 0 0 0 0.0941176 0 0 0 0 0.0823529 0 0 0 0.35 0"/>
<feBlend mode="normal" in2="BackgroundImageFix" result="effect1_dropShadow_1613_2286"/>
<feBlend mode="normal" in="SourceGraphic" in2="effect1_dropShadow_1613_2286" result="shape"/>
</filter>
</defs>
</svg>
