<svg width="300" height="316" viewBox="0 0 300 316" fill="none" xmlns="http://www.w3.org/2000/svg">
<style>
  /* shapes: 아래에서 위로 순차적으로 올라오는 효과 */
  .chart-01 .shapes {
    transform: translateY(50px);
    opacity: 0;
    animation: slideUp1 0.7s ease-out 0.15s forwards;
  }
  .chart-02 .shapes {
    transform: translateY(50px);
    opacity: 0;
    animation: slideUp2 0.7s ease-out 0.3s forwards;
  }
  .chart-03 .shapes {
    transform: translateY(50px);
    opacity: 0;
    animation: slideUp3 0.7s ease-out 0.45s forwards;
  }
  @keyframes slideUp1 {
    from {
      transform: translateY(50px);
      opacity: 0;
    }
    to {
      transform: translateY(0);
      opacity: 1;
    }
  }
  @keyframes slideUp2 {
    from {
      transform: translateY(50px);
      opacity: 0;
    }
    to {
      transform: translateY(0);
      opacity: 1;
    }
  }
  @keyframes slideUp3 {
    from {
      transform: translateY(50px);
      opacity: 0;
    }
    to {
      transform: translateY(0);
      opacity: 1;
    }
  }
  
  /* label: 페이드인 효과 */
  /* line 종료 시점에 시작: line-01 (0.85s + 0.7s = 1.55s) */
  .chart-01 .label {
    opacity: 0;
    animation: fadeIn1 0.6s ease-out 1.55s forwards;
  }
  /* line 종료 시점에 시작: line-02 (1.0s + 0.7s = 1.7s) */
  .chart-02 .label {
    opacity: 0;
    animation: fadeIn2 0.6s ease-out 1.7s forwards;
  }
  /* line 종료 시점에 시작: line-03 (1.15s + 0.7s = 1.85s) */
  .chart-03 .label {
    opacity: 0;
    animation: fadeIn3 0.6s ease-out 1.85s forwards;
  }
  @keyframes fadeIn1 {
    from {
      opacity: 0;
    }
    to {
      opacity: 1;
    }
  }
  @keyframes fadeIn2 {
    from {
      opacity: 0;
    }
    to {
      opacity: 1;
    }
  }
  @keyframes fadeIn3 {
    from {
      opacity: 0;
    }
    to {
      opacity: 1;
    }
  }
  
  /* line: 왼쪽에서 오른쪽으로 그어지는 효과 */
  /* shapes 종료 시점에 시작: chart-01 shapes (0.15s + 0.7s = 0.85s) */
  .line-01 {
    stroke-dasharray: 192;
    stroke-dashoffset: 192;
    animation: drawLine1 0.7s ease-out 0.85s forwards;
  }
  /* shapes 종료 시점에 시작: chart-02 shapes (0.3s + 0.7s = 1.0s) */
  .line-02 {
    stroke-dasharray: 102;
    stroke-dashoffset: 102;
    animation: drawLine2 0.7s ease-out 1.0s forwards;
  }
  /* shapes 종료 시점에 시작: chart-03 shapes (0.45s + 0.7s = 1.15s) */
  .line-03 {
    stroke-dasharray: 142;
    stroke-dashoffset: 142;
    animation: drawLine3 0.7s ease-out 1.15s forwards;
  }
  @keyframes drawLine1 {
    to {
      stroke-dashoffset: 0;
    }
  }
  @keyframes drawLine2 {
    to {
      stroke-dashoffset: 0;
    }
  }
  @keyframes drawLine3 {
    to {
      stroke-dashoffset: 0;
    }
  }
</style>
<g class="chart-01" >
    <g class="shapes" >
        <path d="M0 279.699V73.6992L85.5697 111.199V315.699C28.1722 312.899 4.6076 290.533 0 279.699Z" fill="#71CAEE"/>
        <path d="M85.5693 64.2558V112.325V316L105.316 281L140.861 244.231V37L85.5693 64.2558Z" fill="#67B6CE"/>
        <path d="M104.127 73.6975L140.861 37C135.131 35.8117 115.959 34.7209 107.05 34.214L106.76 34.1975C45.1495 31.7975 13.0717 51.8642 4.73415 62.1975C-18.4355 94.5975 49.0549 110.031 85.6963 113.697L104.127 73.6975Z" fill="#88D0EE"/>
    </g>
    <g class="label">
        <path d="M254.511 9.874C254.511 11.44 255.249 12.178 256.401 12.178C257.139 12.178 257.985 11.764 258.597 10.738C258.363 8.326 257.445 7.426 256.311 7.426C255.321 7.426 254.511 8.236 254.511 9.874ZM255.951 19.252C254.295 19.252 253.089 18.55 252.297 17.74L253.701 16.138C254.187 16.678 254.997 17.092 255.789 17.092C257.283 17.092 258.507 15.958 258.633 12.628C257.931 13.528 256.797 14.068 255.897 14.068C253.683 14.068 252.081 12.7 252.081 9.874C252.081 7.138 253.989 5.428 256.275 5.428C258.795 5.428 261.063 7.408 261.063 12.034C261.063 17.074 258.597 19.252 255.951 19.252ZM270.809 8.249H271.849V20.014H270.809V8.249ZM268.911 12.981H271.173V13.865H268.911V12.981ZM265.882 9.77H266.909C266.909 10.524 266.835 11.2607 266.688 11.98C266.54 12.6993 266.298 13.3927 265.96 14.06C265.63 14.7187 265.184 15.3383 264.621 15.919C264.057 16.491 263.355 17.0153 262.515 17.492L261.891 16.725C262.879 16.1703 263.663 15.542 264.244 14.84C264.824 14.138 265.24 13.3797 265.492 12.565C265.752 11.7417 265.882 10.875 265.882 9.965V9.77ZM262.346 9.77H266.233V10.654H262.346V9.77ZM268.209 8.561H269.223V19.429H268.209V8.561ZM273.33 17.583H283.99V18.493H273.33V17.583ZM278.075 14.736H279.141V17.882H278.075V14.736ZM278.036 9.029H278.985V9.939C278.985 10.4503 278.894 10.9313 278.712 11.382C278.538 11.824 278.296 12.24 277.984 12.63C277.672 13.0113 277.312 13.3537 276.905 13.657C276.506 13.9603 276.077 14.216 275.618 14.424C275.158 14.632 274.69 14.7837 274.214 14.879L273.746 13.982C274.162 13.9127 274.573 13.7913 274.981 13.618C275.397 13.436 275.787 13.2193 276.151 12.968C276.515 12.708 276.84 12.422 277.126 12.11C277.412 11.7893 277.633 11.447 277.789 11.083C277.953 10.7103 278.036 10.329 278.036 9.939V9.029ZM278.231 9.029H279.167V9.939C279.167 10.3377 279.249 10.719 279.414 11.083C279.578 11.447 279.804 11.7893 280.09 12.11C280.376 12.422 280.701 12.708 281.065 12.968C281.437 13.228 281.827 13.4447 282.235 13.618C282.651 13.7913 283.067 13.9127 283.483 13.982L283.015 14.879C282.538 14.7837 282.07 14.632 281.611 14.424C281.151 14.216 280.718 13.9603 280.311 13.657C279.903 13.3537 279.544 13.0113 279.232 12.63C278.92 12.24 278.673 11.8197 278.491 11.369C278.317 10.9183 278.231 10.4417 278.231 9.939V9.029Z" fill="#097CAA"/>
        <rect x="236" y="22" width="64" height="18" rx="9" fill="#4E99C5"/>
        <path d="M251.122 28.873V27.377H247.107V28.873H251.122ZM252.552 26.244V30.017H245.677V26.244H252.552ZM247.063 32.833V34.615H252.706V35.77H245.611V32.833H247.063ZM244.544 30.82H253.718V31.964H249.989V33.691H248.537V31.964H244.544V30.82ZM260.273 26.926V28.07H254.311V26.926H256.577V25.859H258.029V26.926H260.273ZM256.203 30.369C256.203 30.908 256.643 31.194 257.303 31.194C257.963 31.194 258.403 30.908 258.403 30.369C258.403 29.852 257.963 29.566 257.303 29.566C256.643 29.566 256.203 29.852 256.203 30.369ZM258.029 32.206V33.009C258.81 32.965 259.591 32.91 260.317 32.8L260.427 33.845C258.293 34.263 256.016 34.263 254.3 34.263L254.124 33.086C254.85 33.086 255.686 33.086 256.577 33.064V32.206C255.521 31.986 254.828 31.304 254.828 30.369C254.828 29.236 255.851 28.466 257.303 28.466C258.755 28.466 259.778 29.236 259.778 30.369C259.778 31.304 259.085 31.986 258.029 32.206ZM263.551 29.94V31.139H262.286V35.946H260.834V25.815H262.286V29.94H263.551ZM271.305 25.804H272.68V35.935H271.305V30.875H270.48V35.484H269.127V32.547L268.313 33.636C267.411 33.152 266.817 32.338 266.465 31.326C266.135 32.492 265.541 33.438 264.595 34.01L263.726 32.91C265.233 32.03 265.717 30.237 265.717 28.29V28.015H264.056V26.838H268.643V28.015H267.125V28.29C267.125 30.061 267.631 31.744 269.127 32.525V25.969H270.48V29.687H271.305V25.804ZM277.311 27.982V28.543C277.311 30.083 278.114 31.876 279.775 32.646L278.972 33.79C277.85 33.273 277.058 32.261 276.607 31.062C276.156 32.382 275.342 33.493 274.187 34.043L273.373 32.888C275.034 32.118 275.859 30.215 275.859 28.543V27.982H273.758V26.783H279.324V27.982H277.311ZM282.998 29.676V30.875H281.524V35.946H280.072V25.815H281.524V29.676H282.998ZM287.023 32.096V33.647H288.794V32.096H287.023ZM290.224 33.647H292.446V34.835H283.261V33.647H285.593V32.096H284.328V28.697H289.982V27.619H284.317V26.464H291.412V29.83H285.769V30.941H291.643V32.096H290.224V33.647Z" fill="white"/>
    </g>
</g>

<g class="chart-02" >
    <g class="shapes" >
        <path d="M208 162L186.76 187L186.936 300C200.101 294.4 206.244 284 207.341 279.5L208 162Z" fill="#CBB991"/>
        <path d="M141.519 125L104 163L186.937 187C212.739 173.8 209.755 157.167 204.051 150.5C186.147 133.7 154.903 126.5 141.519 125Z" fill="#E3CEA1"/>
        <path d="M186.937 187L104 163V273.5L186.937 300V187Z" fill="#C4AD7F"/>
        <line opacity="0.1" x1="104.5" y1="74" x2="104.5" y2="282" stroke="white"/>
    </g>
    <g class="label">
    <path d="M256.329 98.252C254.223 98.252 252.819 97.424 251.829 96.434L253.053 94.742C253.809 95.48 254.745 96.092 255.987 96.092C257.373 96.092 258.345 95.21 258.345 93.644C258.345 92.096 257.445 91.232 256.095 91.232C255.303 91.232 254.871 91.43 254.097 91.934L252.891 91.142L253.251 84.662H260.379V86.894H255.537L255.285 89.72C255.825 89.468 256.275 89.342 256.887 89.342C259.119 89.342 260.991 90.674 260.991 93.572C260.991 96.542 258.795 98.252 256.329 98.252ZM270.809 87.249H271.849V99.014H270.809V87.249ZM268.911 91.981H271.173V92.865H268.911V91.981ZM265.882 88.77H266.909C266.909 89.524 266.835 90.2607 266.688 90.98C266.54 91.6993 266.298 92.3927 265.96 93.06C265.63 93.7187 265.184 94.3383 264.621 94.919C264.057 95.491 263.355 96.0153 262.515 96.492L261.891 95.725C262.879 95.1703 263.663 94.542 264.244 93.84C264.824 93.138 265.24 92.3797 265.492 91.565C265.752 90.7417 265.882 89.875 265.882 88.965V88.77ZM262.346 88.77H266.233V89.654H262.346V88.77ZM268.209 87.561H269.223V98.429H268.209V87.561ZM273.33 96.583H283.99V97.493H273.33V96.583ZM278.075 93.736H279.141V96.882H278.075V93.736ZM278.036 88.029H278.985V88.939C278.985 89.4503 278.894 89.9313 278.712 90.382C278.538 90.824 278.296 91.24 277.984 91.63C277.672 92.0113 277.312 92.3537 276.905 92.657C276.506 92.9603 276.077 93.216 275.618 93.424C275.158 93.632 274.69 93.7837 274.214 93.879L273.746 92.982C274.162 92.9127 274.573 92.7913 274.981 92.618C275.397 92.436 275.787 92.2193 276.151 91.968C276.515 91.708 276.84 91.422 277.126 91.11C277.412 90.7893 277.633 90.447 277.789 90.083C277.953 89.7103 278.036 89.329 278.036 88.939V88.029ZM278.231 88.029H279.167V88.939C279.167 89.3377 279.249 89.719 279.414 90.083C279.578 90.447 279.804 90.7893 280.09 91.11C280.376 91.422 280.701 91.708 281.065 91.968C281.437 92.228 281.827 92.4447 282.235 92.618C282.651 92.7913 283.067 92.9127 283.483 92.982L283.015 93.879C282.538 93.7837 282.07 93.632 281.611 93.424C281.151 93.216 280.718 92.9603 280.311 92.657C279.903 92.3537 279.544 92.0113 279.232 91.63C278.92 91.24 278.673 90.8197 278.491 90.369C278.317 89.9183 278.231 89.4417 278.231 88.939V88.029Z" fill="#A68754"/>
<rect x="236" y="101" width="64" height="18" rx="9" fill="#A58652"/>
<path d="M252.822 105.596V107.07C252.822 108.951 253.625 110.799 255.341 111.536L254.516 112.713C253.35 112.185 252.569 111.184 252.118 109.941C251.667 111.294 250.842 112.383 249.632 112.955L248.763 111.756C250.534 110.997 251.37 109.039 251.37 107.07V105.596H252.822ZM255.836 104.804H257.288V114.968H255.836V104.804ZM263.876 112.614H267.748V113.802H258.574V112.614H262.424V110.502H259.641V105.508H266.692V106.674H261.104V109.336H266.769V110.502H263.876V112.614ZM272.169 106.982V107.543C272.169 109.193 272.983 110.942 274.677 111.646L273.885 112.79C272.708 112.284 271.905 111.294 271.454 110.073C271.003 111.393 270.189 112.504 269.001 113.043L268.176 111.888C269.87 111.129 270.695 109.27 270.695 107.543V106.982H268.583V105.783H274.259V106.982H272.169ZM275.194 104.815H276.646V114.946H275.194V104.815ZM283.432 107.257H284.95V104.815H286.402V110.843H284.95V108.434H283.432V107.257ZM284.037 109.435L283.333 110.568C282.233 110.205 281.474 109.49 281.034 108.599C280.594 109.622 279.791 110.447 278.614 110.843L277.877 109.699C279.483 109.138 280.22 107.851 280.264 106.586H278.273V105.42H283.718V106.586H281.749C281.793 107.741 282.497 108.929 284.037 109.435ZM282.981 113.857C284.301 113.857 284.994 113.582 284.994 113.01C284.994 112.438 284.301 112.163 282.981 112.163C281.65 112.163 280.957 112.438 280.957 113.01C280.957 113.582 281.65 113.857 282.981 113.857ZM282.981 111.063C285.126 111.063 286.446 111.778 286.446 113.01C286.446 114.242 285.126 114.957 282.981 114.957C280.825 114.957 279.505 114.242 279.505 113.01C279.505 111.778 280.825 111.063 282.981 111.063Z" fill="white"/>


    </g>
</g>

<g class="chart-03" >
    <g class="shapes" >
        <path d="M186.937 300C157.974 316 107.291 317 85.5693 315.5V247L97.4175 242L156 229L186.937 232.5V300Z" fill="#4A8DB7"/>
        <path d="M85.5693 247.5L104 208L186.937 232.5C153.762 248.9 105.755 249.333 85.5693 247.5Z" fill="#5C9EC0"/>
    </g>
    <g class="label">
    <path d="M256.293 178.252C254.187 178.252 252.765 177.46 251.829 176.398L253.071 174.724C253.863 175.498 254.835 176.092 256.041 176.092C257.391 176.092 258.309 175.426 258.309 174.22C258.309 172.924 257.535 172.096 254.637 172.096V170.206C257.085 170.206 257.877 169.36 257.877 168.172C257.877 167.128 257.229 166.516 256.095 166.516C255.141 166.516 254.367 166.948 253.575 167.686L252.225 166.066C253.377 165.058 254.655 164.428 256.221 164.428C258.795 164.428 260.541 165.706 260.541 167.974C260.541 169.414 259.731 170.458 258.327 171.016V171.106C259.821 171.52 260.973 172.636 260.973 174.382C260.973 176.83 258.831 178.252 256.293 178.252ZM270.809 167.249H271.849V179.014H270.809V167.249ZM268.911 171.981H271.173V172.865H268.911V171.981ZM265.882 168.77H266.909C266.909 169.524 266.835 170.261 266.688 170.98C266.54 171.699 266.298 172.393 265.96 173.06C265.63 173.719 265.184 174.338 264.621 174.919C264.057 175.491 263.355 176.015 262.515 176.492L261.891 175.725C262.879 175.17 263.663 174.542 264.244 173.84C264.824 173.138 265.24 172.38 265.492 171.565C265.752 170.742 265.882 169.875 265.882 168.965V168.77ZM262.346 168.77H266.233V169.654H262.346V168.77ZM268.209 167.561H269.223V178.429H268.209V167.561ZM273.33 176.583H283.99V177.493H273.33V176.583ZM278.075 173.736H279.141V176.882H278.075V173.736ZM278.036 168.029H278.985V168.939C278.985 169.45 278.894 169.931 278.712 170.382C278.538 170.824 278.296 171.24 277.984 171.63C277.672 172.011 277.312 172.354 276.905 172.657C276.506 172.96 276.077 173.216 275.618 173.424C275.158 173.632 274.69 173.784 274.214 173.879L273.746 172.982C274.162 172.913 274.573 172.791 274.981 172.618C275.397 172.436 275.787 172.219 276.151 171.968C276.515 171.708 276.84 171.422 277.126 171.11C277.412 170.789 277.633 170.447 277.789 170.083C277.953 169.71 278.036 169.329 278.036 168.939V168.029ZM278.231 168.029H279.167V168.939C279.167 169.338 279.249 169.719 279.414 170.083C279.578 170.447 279.804 170.789 280.09 171.11C280.376 171.422 280.701 171.708 281.065 171.968C281.437 172.228 281.827 172.445 282.235 172.618C282.651 172.791 283.067 172.913 283.483 172.982L283.015 173.879C282.538 173.784 282.07 173.632 281.611 173.424C281.151 173.216 280.718 172.96 280.311 172.657C279.903 172.354 279.544 172.011 279.232 171.63C278.92 171.24 278.673 170.82 278.491 170.369C278.317 169.918 278.231 169.442 278.231 168.939V168.029Z" fill="#174E91"/>
<rect x="236" y="181" width="64" height="18" rx="9" fill="#174E91"/>
<path d="M258.069 189.897H254.197V191.327H257.013V194.946H255.55V192.471H249.819V191.327H252.745V189.897H248.895V188.742H255.341C255.528 187.818 255.561 187.081 255.561 186.41H250.028V185.244H256.991V186.058C256.991 186.817 256.991 187.664 256.793 188.742H258.069V189.897ZM259.036 185.849H263.81C263.81 188.885 262.655 191.492 259.289 193.197L258.475 192.086C260.829 190.876 262.083 189.27 262.347 187.026H259.036V185.849ZM267.924 188.676V189.875H266.505V194.924H265.053V184.804H266.505V188.676H267.924ZM272.169 186.982V187.543C272.169 189.193 272.983 190.942 274.677 191.646L273.885 192.79C272.708 192.284 271.905 191.294 271.454 190.073C271.003 191.393 270.189 192.504 269.001 193.043L268.176 191.888C269.87 191.129 270.695 189.27 270.695 187.543V186.982H268.583V185.783H274.259V186.982H272.169ZM275.194 184.815H276.646V194.946H275.194V184.815ZM283.432 187.257H284.95V184.815H286.402V190.843H284.95V188.434H283.432V187.257ZM284.037 189.435L283.333 190.568C282.233 190.205 281.474 189.49 281.034 188.599C280.594 189.622 279.791 190.447 278.614 190.843L277.877 189.699C279.483 189.138 280.22 187.851 280.264 186.586H278.273V185.42H283.718V186.586H281.749C281.793 187.741 282.497 188.929 284.037 189.435ZM282.981 193.857C284.301 193.857 284.994 193.582 284.994 193.01C284.994 192.438 284.301 192.163 282.981 192.163C281.65 192.163 280.957 192.438 280.957 193.01C280.957 193.582 281.65 193.857 282.981 193.857ZM282.981 191.063C285.126 191.063 286.446 191.778 286.446 193.01C286.446 194.242 285.126 194.957 282.981 194.957C280.825 194.957 279.505 194.242 279.505 193.01C279.505 191.778 280.825 191.063 282.981 191.063Z" fill="white"/>
    </g>
</g>




<path class="line-03" d="M136 234L146.148 191H244" stroke="#174E91"/>
<path class="line-02" d="M166 147L172.577 109H236" stroke="#A58652"/>
<path class="line-01" d="M65 65L81.0671 30H236" stroke="#4E99C5"/>
</svg>
