<svg width="1030" height="357" viewBox="0 0 1030 357" fill="none" xmlns="http://www.w3.org/2000/svg">
<style>
  .chart-box rect {
    transform-origin: bottom;
  }
  .chart-box.chart-01 rect {
    animation: growUp1 1s ease-out 0.1s forwards;
  }
  .chart-box.chart-02 rect {
    animation: growUp2 1s ease-out 0.2s forwards;
  }
  .chart-box.chart-03 rect {
    animation: growUp3 1s ease-out 0.3s forwards;
  }
  .chart-box.chart-04 rect {
    animation: growUp4 1s ease-out 0.4s forwards;
  }
  .chart-box.chart-05 rect {
    animation: growUp5 1s ease-out 0.5s forwards;
  }
  .chart-box.chart-06 rect {
    animation: growUp6 1s ease-out 0.6s forwards;
  }
  .chart-box.chart-07 rect {
    animation: growUp7 1s ease-out 0.7s forwards;
  }
  .chart-box.chart-08 rect {
    animation: growUp8 1s ease-out 0.8s forwards;
  }
  @keyframes growUp1 {
    from {
      height: 0;
      y: 328.012;
    }
    to {
      height: 141;
      y: 187.012;
    }
  }
  @keyframes growUp2 {
    from {
      height: 0;
      y: 328.227;
    }
    to {
      height: 160;
      y: 168.227;
    }
  }
  @keyframes growUp3 {
    from {
      height: 0;
      y: 328;
    }
    to {
      height: 42;
      y: 286;
    }
  }
  @keyframes growUp4 {
    from {
      height: 0;
      y: 328;
    }
    to {
      height: 127;
      y: 201;
    }
  }
  @keyframes growUp5 {
    from {
      height: 0;
      y: 328;
    }
    to {
      height: 72;
      y: 256;
    }
  }
  @keyframes growUp6 {
    from {
      height: 0;
      y: 328;
    }
    to {
      height: 14;
      y: 314;
    }
  }
  @keyframes growUp7 {
    from {
      height: 0;
      y: 328;
    }
    to {
      height: 24;
      y: 304;
    }
  }

  @keyframes growUp8 {
    from {
      height: 0;
      y: 328;
    }
    to {
      height: 204;
      y: 124;
    }
  }
  .text-box {
    opacity: 0;
    transform: translateY(-10px);
    animation: fadeInDown 0.8s ease-out forwards;
  }
  .chart-box.chart-01 .text-box {
    animation-delay: 0.3s;
  }
  .chart-box.chart-02 .text-box {
    animation-delay: 0.4s;
  }
  .chart-box.chart-03 .text-box {
    animation-delay: 0.5s;
  }
  .chart-box.chart-04 .text-box {
    animation-delay: 0.6s;
  }
  .chart-box.chart-05 .text-box {
    animation-delay: 0.7s;
  }
  .chart-box.chart-06 .text-box {
    animation-delay: 0.8s;
  }
  .chart-box.chart-07 .text-box {
    animation-delay: 0.9s;
  }
  .chart-box.chart-08 .text-box {
    animation-delay: 1s;
  }
  @keyframes fadeInDown {
    from {
      opacity: 0;
      transform: translateY(-10px);
    }
    to {
      opacity: 1;
      transform: translateY(0);
    }
  }
</style>
<g clip-path="url(#clipChart)">
<g class="chart-box chart-01">
    <rect x="33.4854" y="328.012" width="46.8791" height="141" fill="#E60013"/>
    <g class="text-box">
    <g filter="url(#filter0_d_1333_2764)">
<path d="M100.041 129H14.1169C12.978 129 12.0547 129.689 12.0547 130.54V175.686C12.0547 176.537 12.978 177.226 14.1169 177.226H100.041C101.179 177.226 102.103 176.537 102.103 175.686V130.54C102.103 129.689 101.179 129 100.041 129Z" fill="#DC4A2C"/>
</g>
<path d="M97.0877 132.488H17.1006V152.27H97.0877V132.488Z" fill="white"/>
<g style="mix-blend-mode:multiply">
<path d="M97.0877 152.332H17.1006V173.7H97.0877V152.332Z" fill="#E60012"/>
</g>
<path d="M48.13 148.196C47.4673 148.196 46.8747 148.079 46.352 147.846C45.8293 147.613 45.414 147.286 45.106 146.866C44.8073 146.446 44.658 145.965 44.658 145.424C44.658 144.976 44.7373 144.584 44.896 144.248C45.064 143.903 45.2833 143.604 45.554 143.352C45.8247 143.1 46.1187 142.89 46.436 142.722V142.652C46.044 142.372 45.7173 142.031 45.456 141.63C45.1947 141.219 45.064 140.743 45.064 140.202C45.064 139.642 45.1993 139.157 45.47 138.746C45.7407 138.335 46.1093 138.018 46.576 137.794C47.052 137.57 47.5887 137.458 48.186 137.458C48.802 137.458 49.334 137.575 49.782 137.808C50.23 138.032 50.5753 138.349 50.818 138.76C51.07 139.171 51.196 139.656 51.196 140.216C51.196 140.552 51.1307 140.869 51 141.168C50.8787 141.467 50.7153 141.737 50.51 141.98C50.314 142.213 50.0993 142.414 49.866 142.582V142.652C50.1927 142.82 50.4867 143.03 50.748 143.282C51.0093 143.534 51.2193 143.837 51.378 144.192C51.5367 144.537 51.616 144.948 51.616 145.424C51.616 145.947 51.4667 146.418 51.168 146.838C50.8787 147.258 50.4727 147.589 49.95 147.832C49.4273 148.075 48.8207 148.196 48.13 148.196ZM48.774 142.078C49.026 141.807 49.2127 141.527 49.334 141.238C49.4553 140.949 49.516 140.65 49.516 140.342C49.516 140.062 49.46 139.815 49.348 139.6C49.2453 139.376 49.0913 139.203 48.886 139.082C48.6807 138.961 48.4333 138.9 48.144 138.9C47.7893 138.9 47.4907 139.012 47.248 139.236C47.0053 139.46 46.884 139.782 46.884 140.202C46.884 140.519 46.9633 140.795 47.122 141.028C47.29 141.252 47.5187 141.448 47.808 141.616C48.0973 141.775 48.4193 141.929 48.774 142.078ZM48.172 146.74C48.4707 146.74 48.732 146.689 48.956 146.586C49.1893 146.474 49.3713 146.315 49.502 146.11C49.6327 145.895 49.698 145.643 49.698 145.354C49.698 145.083 49.6373 144.85 49.516 144.654C49.404 144.449 49.2453 144.271 49.04 144.122C48.8347 143.963 48.592 143.819 48.312 143.688C48.032 143.557 47.724 143.417 47.388 143.268C47.108 143.501 46.8793 143.786 46.702 144.122C46.5247 144.449 46.436 144.808 46.436 145.2C46.436 145.508 46.5107 145.779 46.66 146.012C46.8187 146.236 47.0287 146.413 47.29 146.544C47.5513 146.675 47.8453 146.74 48.172 146.74ZM55.6878 148.196C55.0251 148.196 54.4325 148.079 53.9098 147.846C53.3871 147.613 52.9718 147.286 52.6638 146.866C52.3651 146.446 52.2158 145.965 52.2158 145.424C52.2158 144.976 52.2951 144.584 52.4538 144.248C52.6218 143.903 52.8411 143.604 53.1118 143.352C53.3825 143.1 53.6765 142.89 53.9938 142.722V142.652C53.6018 142.372 53.2751 142.031 53.0138 141.63C52.7525 141.219 52.6218 140.743 52.6218 140.202C52.6218 139.642 52.7571 139.157 53.0278 138.746C53.2985 138.335 53.6671 138.018 54.1338 137.794C54.6098 137.57 55.1465 137.458 55.7438 137.458C56.3598 137.458 56.8918 137.575 57.3398 137.808C57.7878 138.032 58.1331 138.349 58.3758 138.76C58.6278 139.171 58.7538 139.656 58.7538 140.216C58.7538 140.552 58.6885 140.869 58.5578 141.168C58.4365 141.467 58.2731 141.737 58.0678 141.98C57.8718 142.213 57.6571 142.414 57.4238 142.582V142.652C57.7505 142.82 58.0445 143.03 58.3058 143.282C58.5671 143.534 58.7771 143.837 58.9358 144.192C59.0945 144.537 59.1738 144.948 59.1738 145.424C59.1738 145.947 59.0245 146.418 58.7258 146.838C58.4365 147.258 58.0305 147.589 57.5078 147.832C56.9851 148.075 56.3785 148.196 55.6878 148.196ZM56.3318 142.078C56.5838 141.807 56.7705 141.527 56.8918 141.238C57.0131 140.949 57.0738 140.65 57.0738 140.342C57.0738 140.062 57.0178 139.815 56.9058 139.6C56.8031 139.376 56.6491 139.203 56.4438 139.082C56.2385 138.961 55.9911 138.9 55.7018 138.9C55.3471 138.9 55.0485 139.012 54.8058 139.236C54.5631 139.46 54.4418 139.782 54.4418 140.202C54.4418 140.519 54.5211 140.795 54.6798 141.028C54.8478 141.252 55.0765 141.448 55.3658 141.616C55.6551 141.775 55.9771 141.929 56.3318 142.078ZM55.7298 146.74C56.0285 146.74 56.2898 146.689 56.5138 146.586C56.7471 146.474 56.9291 146.315 57.0598 146.11C57.1905 145.895 57.2558 145.643 57.2558 145.354C57.2558 145.083 57.1951 144.85 57.0738 144.654C56.9618 144.449 56.8031 144.271 56.5978 144.122C56.3925 143.963 56.1498 143.819 55.8698 143.688C55.5898 143.557 55.2818 143.417 54.9458 143.268C54.6658 143.501 54.4371 143.786 54.2598 144.122C54.0825 144.449 53.9938 144.808 53.9938 145.2C53.9938 145.508 54.0685 145.779 54.2178 146.012C54.3765 146.236 54.5865 146.413 54.8478 146.544C55.1091 146.675 55.4031 146.74 55.7298 146.74ZM63.3296 136.646C64.0016 136.646 64.5943 136.777 65.1076 137.038C65.6303 137.29 66.041 137.64 66.3396 138.088C66.6476 138.527 66.8016 139.035 66.8016 139.614C66.8016 140.193 66.6476 140.706 66.3396 141.154C66.041 141.593 65.6303 141.938 65.1076 142.19C64.5943 142.442 64.0016 142.568 63.3296 142.568C62.6763 142.568 62.0883 142.442 61.5656 142.19C61.043 141.938 60.6276 141.593 60.3196 141.154C60.021 140.706 59.8716 140.193 59.8716 139.614C59.8716 139.035 60.021 138.522 60.3196 138.074C60.6276 137.626 61.043 137.276 61.5656 137.024C62.0883 136.772 62.6763 136.646 63.3296 136.646ZM63.3436 138.158C63.0263 138.158 62.7416 138.219 62.4896 138.34C62.2376 138.452 62.037 138.615 61.8876 138.83C61.7476 139.045 61.6776 139.306 61.6776 139.614C61.6776 139.922 61.7476 140.188 61.8876 140.412C62.037 140.627 62.233 140.79 62.4756 140.902C62.7276 141.014 63.017 141.07 63.3436 141.07C63.661 141.07 63.941 141.014 64.1836 140.902C64.4356 140.79 64.6316 140.627 64.7716 140.412C64.921 140.188 64.9956 139.922 64.9956 139.614C64.9956 139.306 64.921 139.045 64.7716 138.83C64.6316 138.615 64.4356 138.452 64.1836 138.34C63.9316 138.219 63.6516 138.158 63.3436 138.158ZM68.5936 136.282H70.4556V142.764H68.5936V136.282ZM61.8176 143.296H70.4556V146.838H63.6656V148.42H61.8316V145.494H68.6076V144.724H61.8176V143.296ZM61.8316 147.65H70.7776V149.106H61.8316V147.65Z" fill="#C60003"/>
<path d="M39.616 169V168.062C40.6333 167.157 41.4827 166.331 42.164 165.584C42.8453 164.828 43.354 164.128 43.69 163.484C44.0353 162.84 44.208 162.238 44.208 161.678C44.208 161.305 44.1427 160.978 44.012 160.698C43.8907 160.409 43.6993 160.189 43.438 160.04C43.186 159.881 42.864 159.802 42.472 159.802C42.0707 159.802 41.702 159.914 41.366 160.138C41.03 160.353 40.722 160.619 40.442 160.936L39.532 160.04C39.9707 159.555 40.4327 159.177 40.918 158.906C41.4127 158.635 42.0007 158.5 42.682 158.5C43.3073 158.5 43.8533 158.631 44.32 158.892C44.7867 159.144 45.146 159.503 45.398 159.97C45.6593 160.427 45.79 160.969 45.79 161.594C45.79 162.257 45.6267 162.929 45.3 163.61C44.9733 164.282 44.5253 164.963 43.956 165.654C43.3867 166.335 42.738 167.026 42.01 167.726C42.2807 167.698 42.5653 167.675 42.864 167.656C43.172 167.628 43.4473 167.614 43.69 167.614H46.28V169H39.616ZM50.2884 169.196C49.6164 169.196 49.0284 168.995 48.5244 168.594C48.0204 168.193 47.6284 167.595 47.3484 166.802C47.0777 165.999 46.9424 165.001 46.9424 163.806C46.9424 162.611 47.0777 161.622 47.3484 160.838C47.6284 160.054 48.0204 159.471 48.5244 159.088C49.0284 158.696 49.6164 158.5 50.2884 158.5C50.9604 158.5 51.5437 158.696 52.0384 159.088C52.533 159.48 52.9157 160.068 53.1864 160.852C53.4664 161.627 53.6064 162.611 53.6064 163.806C53.6064 165.001 53.4664 165.999 53.1864 166.802C52.9157 167.595 52.533 168.193 52.0384 168.594C51.5437 168.995 50.9604 169.196 50.2884 169.196ZM50.2884 167.908C50.6337 167.908 50.9417 167.773 51.2124 167.502C51.483 167.231 51.693 166.797 51.8424 166.2C51.9917 165.593 52.0664 164.795 52.0664 163.806C52.0664 162.817 51.9917 162.028 51.8424 161.44C51.693 160.852 51.483 160.427 51.2124 160.166C50.9417 159.905 50.6337 159.774 50.2884 159.774C49.943 159.774 49.635 159.905 49.3644 160.166C49.0937 160.427 48.879 160.852 48.7204 161.44C48.571 162.028 48.4964 162.817 48.4964 163.806C48.4964 164.795 48.571 165.593 48.7204 166.2C48.879 166.797 49.0937 167.231 49.3644 167.502C49.635 167.773 49.943 167.908 50.2884 167.908ZM55.6548 169.196C55.3561 169.196 55.0994 169.089 54.8848 168.874C54.6794 168.65 54.5768 168.375 54.5768 168.048C54.5768 167.712 54.6794 167.441 54.8848 167.236C55.0994 167.021 55.3561 166.914 55.6548 166.914C55.9628 166.914 56.2194 167.021 56.4248 167.236C56.6394 167.441 56.7468 167.712 56.7468 168.048C56.7468 168.375 56.6394 168.65 56.4248 168.874C56.2194 169.089 55.9628 169.196 55.6548 169.196ZM61.0427 169.196C60.3987 169.196 59.8247 169.079 59.3207 168.846C58.8167 168.603 58.4153 168.277 58.1167 167.866C57.8273 167.446 57.6827 166.97 57.6827 166.438C57.6827 165.981 57.7713 165.575 57.9487 165.22C58.126 164.865 58.3547 164.562 58.6347 164.31C58.9147 164.049 59.2087 163.834 59.5167 163.666V163.596C59.1433 163.325 58.8213 162.994 58.5507 162.602C58.28 162.201 58.1447 161.729 58.1447 161.188C58.1447 160.656 58.2707 160.189 58.5227 159.788C58.784 159.387 59.134 159.079 59.5727 158.864C60.0207 158.64 60.5293 158.528 61.0987 158.528C61.696 158.528 62.2093 158.645 62.6387 158.878C63.068 159.111 63.3993 159.433 63.6327 159.844C63.8753 160.245 63.9967 160.717 63.9967 161.258C63.9967 161.603 63.9267 161.93 63.7867 162.238C63.6467 162.546 63.474 162.826 63.2687 163.078C63.0727 163.321 62.8627 163.521 62.6387 163.68V163.75C62.956 163.918 63.2453 164.128 63.5067 164.38C63.768 164.623 63.978 164.917 64.1367 165.262C64.2953 165.607 64.3747 166.013 64.3747 166.48C64.3747 166.984 64.2347 167.441 63.9547 167.852C63.684 168.263 63.2967 168.589 62.7927 168.832C62.298 169.075 61.7147 169.196 61.0427 169.196ZM61.7287 163.274C62.0273 162.985 62.2513 162.681 62.4007 162.364C62.5593 162.037 62.6387 161.697 62.6387 161.342C62.6387 161.034 62.578 160.754 62.4567 160.502C62.3353 160.25 62.1533 160.054 61.9107 159.914C61.6773 159.765 61.3927 159.69 61.0567 159.69C60.6367 159.69 60.2867 159.825 60.0067 160.096C59.7267 160.357 59.5867 160.721 59.5867 161.188C59.5867 161.561 59.6847 161.874 59.8807 162.126C60.0767 162.378 60.338 162.593 60.6647 162.77C60.9913 162.947 61.346 163.115 61.7287 163.274ZM61.0847 168.02C61.43 168.02 61.7333 167.955 61.9947 167.824C62.2653 167.693 62.4753 167.511 62.6247 167.278C62.774 167.035 62.8487 166.751 62.8487 166.424C62.8487 166.116 62.7833 165.85 62.6527 165.626C62.522 165.393 62.34 165.192 62.1067 165.024C61.8827 164.856 61.6167 164.702 61.3087 164.562C61.0007 164.413 60.6693 164.268 60.3147 164.128C59.96 164.38 59.6707 164.693 59.4467 165.066C59.2227 165.43 59.1107 165.831 59.1107 166.27C59.1107 166.615 59.1947 166.919 59.3627 167.18C59.54 167.441 59.778 167.647 60.0767 167.796C60.3753 167.945 60.7113 168.02 61.0847 168.02ZM67.235 165.01C66.759 165.01 66.339 164.884 65.975 164.632C65.611 164.371 65.3264 163.997 65.121 163.512C64.925 163.017 64.827 162.425 64.827 161.734C64.827 161.043 64.925 160.46 65.121 159.984C65.3264 159.499 65.611 159.13 65.975 158.878C66.339 158.626 66.759 158.5 67.235 158.5C67.7204 158.5 68.145 158.626 68.509 158.878C68.873 159.13 69.153 159.499 69.349 159.984C69.5544 160.46 69.657 161.043 69.657 161.734C69.657 162.425 69.5544 163.017 69.349 163.512C69.153 163.997 68.873 164.371 68.509 164.632C68.145 164.884 67.7204 165.01 67.235 165.01ZM67.235 164.072C67.599 164.072 67.893 163.881 68.117 163.498C68.3504 163.115 68.467 162.527 68.467 161.734C68.467 160.941 68.3504 160.362 68.117 159.998C67.893 159.634 67.599 159.452 67.235 159.452C66.8804 159.452 66.5864 159.634 66.353 159.998C66.1197 160.362 66.003 160.941 66.003 161.734C66.003 162.527 66.1197 163.115 66.353 163.498C66.5864 163.881 66.8804 164.072 67.235 164.072ZM67.557 169.196L73.199 158.5H74.221L68.579 169.196H67.557ZM74.557 169.196C74.081 169.196 73.661 169.065 73.297 168.804C72.933 168.543 72.6484 168.169 72.443 167.684C72.247 167.199 72.149 166.611 72.149 165.92C72.149 165.22 72.247 164.632 72.443 164.156C72.6484 163.68 72.933 163.316 73.297 163.064C73.661 162.803 74.081 162.672 74.557 162.672C75.033 162.672 75.453 162.803 75.817 163.064C76.181 163.316 76.461 163.68 76.657 164.156C76.8624 164.632 76.965 165.22 76.965 165.92C76.965 166.611 76.8624 167.199 76.657 167.684C76.461 168.169 76.181 168.543 75.817 168.804C75.453 169.065 75.033 169.196 74.557 169.196ZM74.557 168.23C74.9117 168.23 75.2057 168.043 75.439 167.67C75.6817 167.297 75.803 166.713 75.803 165.92C75.803 165.117 75.6817 164.534 75.439 164.17C75.2057 163.806 74.9117 163.624 74.557 163.624C74.2024 163.624 73.9084 163.806 73.675 164.17C73.4417 164.534 73.325 165.117 73.325 165.92C73.325 166.713 73.4417 167.297 73.675 167.67C73.9084 168.043 74.2024 168.23 74.557 168.23Z" fill="white"/>
    </g>
</g>
<g class="chart-box chart-03">
    <rect x="262.522" y="328" width="46.8791" height="42" fill="#CCB991"/>
    <g class="text-box">
    <g filter="url(#filter1_d_1333_2764)">
<path d="M329.079 228H243.155C242.016 228 241.093 228.689 241.093 229.54V274.686C241.093 275.537 242.016 276.226 243.155 276.226H329.079C330.217 276.226 331.141 275.537 331.141 274.686V229.54C331.141 228.689 330.217 228 329.079 228Z" fill="#E4CEA1"/>
</g>
<path d="M326.126 231.488H246.139V251.27H326.126V231.488Z" fill="white"/>
<g style="mix-blend-mode:multiply">
<path d="M326.126 251.332H246.139V272.7H326.126V251.332Z" fill="#E4CEA1"/>
</g>
<path d="M274.148 247V245.32H276.388V238.782H274.498V237.494C275.021 237.401 275.469 237.289 275.842 237.158C276.225 237.018 276.579 236.841 276.906 236.626H278.432V245.32H280.378V247H274.148ZM285.276 247V240.63C285.276 240.331 285.285 239.977 285.304 239.566C285.322 239.146 285.341 238.782 285.36 238.474H285.29C285.168 238.754 285.038 239.034 284.898 239.314C284.758 239.594 284.613 239.879 284.464 240.168L282.854 242.744H288.426V244.312H280.852V242.912L284.716 236.626H287.194V247H285.276ZM292.33 235.646C293.002 235.646 293.594 235.777 294.108 236.038C294.63 236.29 295.041 236.64 295.34 237.088C295.648 237.527 295.802 238.035 295.802 238.614C295.802 239.193 295.648 239.706 295.34 240.154C295.041 240.593 294.63 240.938 294.108 241.19C293.594 241.442 293.002 241.568 292.33 241.568C291.676 241.568 291.088 241.442 290.566 241.19C290.043 240.938 289.628 240.593 289.32 240.154C289.021 239.706 288.872 239.193 288.872 238.614C288.872 238.035 289.021 237.522 289.32 237.074C289.628 236.626 290.043 236.276 290.566 236.024C291.088 235.772 291.676 235.646 292.33 235.646ZM292.344 237.158C292.026 237.158 291.742 237.219 291.49 237.34C291.238 237.452 291.037 237.615 290.888 237.83C290.748 238.045 290.678 238.306 290.678 238.614C290.678 238.922 290.748 239.188 290.888 239.412C291.037 239.627 291.233 239.79 291.476 239.902C291.728 240.014 292.017 240.07 292.344 240.07C292.661 240.07 292.941 240.014 293.184 239.902C293.436 239.79 293.632 239.627 293.772 239.412C293.921 239.188 293.996 238.922 293.996 238.614C293.996 238.306 293.921 238.045 293.772 237.83C293.632 237.615 293.436 237.452 293.184 237.34C292.932 237.219 292.652 237.158 292.344 237.158ZM297.594 235.282H299.456V241.764H297.594V235.282ZM290.818 242.296H299.456V245.838H292.666V247.42H290.832V244.494H297.608V243.724H290.818V242.296ZM290.832 246.65H299.778V248.106H290.832V246.65Z" fill="#CCA666"/>
<path d="M274.752 268.196C274.211 268.196 273.73 268.131 273.31 268C272.899 267.869 272.535 267.697 272.218 267.482C271.901 267.258 271.625 267.02 271.392 266.768L272.176 265.732C272.484 266.031 272.834 266.292 273.226 266.516C273.618 266.74 274.08 266.852 274.612 266.852C275.004 266.852 275.345 266.787 275.634 266.656C275.923 266.516 276.147 266.32 276.306 266.068C276.474 265.816 276.558 265.508 276.558 265.144C276.558 264.771 276.465 264.444 276.278 264.164C276.101 263.875 275.788 263.655 275.34 263.506C274.901 263.347 274.295 263.268 273.52 263.268V262.064C274.201 262.064 274.733 261.989 275.116 261.84C275.508 261.681 275.788 261.467 275.956 261.196C276.133 260.925 276.222 260.617 276.222 260.272C276.222 259.824 276.082 259.469 275.802 259.208C275.522 258.937 275.135 258.802 274.64 258.802C274.248 258.802 273.879 258.891 273.534 259.068C273.198 259.236 272.881 259.465 272.582 259.754L271.742 258.746C272.153 258.373 272.601 258.074 273.086 257.85C273.571 257.617 274.108 257.5 274.696 257.5C275.312 257.5 275.858 257.607 276.334 257.822C276.81 258.027 277.183 258.326 277.454 258.718C277.725 259.11 277.86 259.591 277.86 260.16C277.86 260.748 277.697 261.247 277.37 261.658C277.053 262.069 276.623 262.377 276.082 262.582V262.638C276.474 262.741 276.829 262.909 277.146 263.142C277.473 263.366 277.729 263.655 277.916 264.01C278.103 264.365 278.196 264.771 278.196 265.228C278.196 265.844 278.037 266.376 277.72 266.824C277.412 267.263 276.997 267.603 276.474 267.846C275.951 268.079 275.377 268.196 274.752 268.196ZM280.37 268.196C280.072 268.196 279.815 268.089 279.6 267.874C279.395 267.65 279.292 267.375 279.292 267.048C279.292 266.712 279.395 266.441 279.6 266.236C279.815 266.021 280.072 265.914 280.37 265.914C280.678 265.914 280.935 266.021 281.14 266.236C281.355 266.441 281.462 266.712 281.462 267.048C281.462 267.375 281.355 267.65 281.14 267.874C280.935 268.089 280.678 268.196 280.37 268.196ZM285.506 268.196C284.965 268.196 284.484 268.131 284.064 268C283.654 267.869 283.29 267.697 282.972 267.482C282.655 267.258 282.38 267.02 282.146 266.768L282.93 265.732C283.238 266.031 283.588 266.292 283.98 266.516C284.372 266.74 284.834 266.852 285.366 266.852C285.758 266.852 286.099 266.787 286.388 266.656C286.678 266.516 286.902 266.32 287.06 266.068C287.228 265.816 287.312 265.508 287.312 265.144C287.312 264.771 287.219 264.444 287.032 264.164C286.855 263.875 286.542 263.655 286.094 263.506C285.656 263.347 285.049 263.268 284.274 263.268V262.064C284.956 262.064 285.488 261.989 285.87 261.84C286.262 261.681 286.542 261.467 286.71 261.196C286.888 260.925 286.976 260.617 286.976 260.272C286.976 259.824 286.836 259.469 286.556 259.208C286.276 258.937 285.889 258.802 285.394 258.802C285.002 258.802 284.634 258.891 284.288 259.068C283.952 259.236 283.635 259.465 283.336 259.754L282.496 258.746C282.907 258.373 283.355 258.074 283.84 257.85C284.326 257.617 284.862 257.5 285.45 257.5C286.066 257.5 286.612 257.607 287.088 257.822C287.564 258.027 287.938 258.326 288.208 258.718C288.479 259.11 288.614 259.591 288.614 260.16C288.614 260.748 288.451 261.247 288.124 261.658C287.807 262.069 287.378 262.377 286.836 262.582V262.638C287.228 262.741 287.583 262.909 287.9 263.142C288.227 263.366 288.484 263.655 288.67 264.01C288.857 264.365 288.95 264.771 288.95 265.228C288.95 265.844 288.792 266.376 288.474 266.824C288.166 267.263 287.751 267.603 287.228 267.846C286.706 268.079 286.132 268.196 285.506 268.196ZM291.951 264.01C291.475 264.01 291.055 263.884 290.691 263.632C290.327 263.371 290.042 262.997 289.837 262.512C289.641 262.017 289.543 261.425 289.543 260.734C289.543 260.043 289.641 259.46 289.837 258.984C290.042 258.499 290.327 258.13 290.691 257.878C291.055 257.626 291.475 257.5 291.951 257.5C292.436 257.5 292.861 257.626 293.225 257.878C293.589 258.13 293.869 258.499 294.065 258.984C294.27 259.46 294.373 260.043 294.373 260.734C294.373 261.425 294.27 262.017 294.065 262.512C293.869 262.997 293.589 263.371 293.225 263.632C292.861 263.884 292.436 264.01 291.951 264.01ZM291.951 263.072C292.315 263.072 292.609 262.881 292.833 262.498C293.066 262.115 293.183 261.527 293.183 260.734C293.183 259.941 293.066 259.362 292.833 258.998C292.609 258.634 292.315 258.452 291.951 258.452C291.596 258.452 291.302 258.634 291.069 258.998C290.835 259.362 290.719 259.941 290.719 260.734C290.719 261.527 290.835 262.115 291.069 262.498C291.302 262.881 291.596 263.072 291.951 263.072ZM292.273 268.196L297.915 257.5H298.937L293.295 268.196H292.273ZM299.273 268.196C298.797 268.196 298.377 268.065 298.013 267.804C297.649 267.543 297.364 267.169 297.159 266.684C296.963 266.199 296.865 265.611 296.865 264.92C296.865 264.22 296.963 263.632 297.159 263.156C297.364 262.68 297.649 262.316 298.013 262.064C298.377 261.803 298.797 261.672 299.273 261.672C299.749 261.672 300.169 261.803 300.533 262.064C300.897 262.316 301.177 262.68 301.373 263.156C301.578 263.632 301.681 264.22 301.681 264.92C301.681 265.611 301.578 266.199 301.373 266.684C301.177 267.169 300.897 267.543 300.533 267.804C300.169 268.065 299.749 268.196 299.273 268.196ZM299.273 267.23C299.627 267.23 299.921 267.043 300.155 266.67C300.397 266.297 300.519 265.713 300.519 264.92C300.519 264.117 300.397 263.534 300.155 263.17C299.921 262.806 299.627 262.624 299.273 262.624C298.918 262.624 298.624 262.806 298.391 263.17C298.157 263.534 298.041 264.117 298.041 264.92C298.041 265.713 298.157 266.297 298.391 266.67C298.624 267.043 298.918 267.23 299.273 267.23Z" fill="white"/>
    </g>
</g>
<g class="chart-box chart-04">
    <rect x="376.372" y="328" width="46.8791" height="127" fill="#B6D785"/>
    <g class="text-box">
    <g filter="url(#filter2_d_1333_2764)">
<path d="M442.927 143H357.004C355.865 143 354.941 143.689 354.941 144.54V189.686C354.941 190.537 355.865 191.226 357.004 191.226H442.927C444.066 191.226 444.989 190.537 444.989 189.686V144.54C444.989 143.689 444.066 143 442.927 143Z" fill="#B6D785"/>
</g>
<path d="M439.974 146.488H359.987V166.27H439.974V146.488Z" fill="white"/>
<g style="mix-blend-mode:multiply">
<path d="M439.974 166.332H359.987V187.7H439.974V166.332Z" fill="#B6D785"/>
</g>
<path d="M387.604 162C387.651 161.104 387.73 160.278 387.842 159.522C387.954 158.757 388.113 158.038 388.318 157.366C388.523 156.685 388.789 156.017 389.116 155.364C389.452 154.711 389.867 154.043 390.362 153.362H385.7V151.626H392.588V152.886C391.991 153.614 391.505 154.314 391.132 154.986C390.768 155.658 390.488 156.339 390.292 157.03C390.105 157.721 389.965 158.467 389.872 159.27C389.788 160.073 389.723 160.983 389.676 162H387.604ZM393.706 162V160.32H395.946V153.782H394.056V152.494C394.578 152.401 395.026 152.289 395.4 152.158C395.782 152.018 396.137 151.841 396.464 151.626H397.99V160.32H399.936V162H393.706ZM404.33 150.646C405.002 150.646 405.594 150.777 406.108 151.038C406.63 151.29 407.041 151.64 407.34 152.088C407.648 152.527 407.802 153.035 407.802 153.614C407.802 154.193 407.648 154.706 407.34 155.154C407.041 155.593 406.63 155.938 406.108 156.19C405.594 156.442 405.002 156.568 404.33 156.568C403.676 156.568 403.088 156.442 402.566 156.19C402.043 155.938 401.628 155.593 401.32 155.154C401.021 154.706 400.872 154.193 400.872 153.614C400.872 153.035 401.021 152.522 401.32 152.074C401.628 151.626 402.043 151.276 402.566 151.024C403.088 150.772 403.676 150.646 404.33 150.646ZM404.344 152.158C404.026 152.158 403.742 152.219 403.49 152.34C403.238 152.452 403.037 152.615 402.888 152.83C402.748 153.045 402.678 153.306 402.678 153.614C402.678 153.922 402.748 154.188 402.888 154.412C403.037 154.627 403.233 154.79 403.476 154.902C403.728 155.014 404.017 155.07 404.344 155.07C404.661 155.07 404.941 155.014 405.184 154.902C405.436 154.79 405.632 154.627 405.772 154.412C405.921 154.188 405.996 153.922 405.996 153.614C405.996 153.306 405.921 153.045 405.772 152.83C405.632 152.615 405.436 152.452 405.184 152.34C404.932 152.219 404.652 152.158 404.344 152.158ZM409.594 150.282H411.456V156.764H409.594V150.282ZM402.818 157.296H411.456V160.838H404.666V162.42H402.832V159.494H409.608V158.724H402.818V157.296ZM402.832 161.65H411.778V163.106H402.832V161.65Z" fill="#82B545"/>
<path d="M380.19 183V181.67H382.458V174.502H380.61V173.48C381.095 173.396 381.515 173.289 381.87 173.158C382.234 173.027 382.565 172.869 382.864 172.682H384.082V181.67H386.084V183H380.19ZM390.596 183.196C390.102 183.196 389.64 183.093 389.21 182.888C388.781 182.673 388.403 182.356 388.076 181.936C387.75 181.507 387.493 180.97 387.306 180.326C387.12 179.682 387.026 178.921 387.026 178.044C387.026 177.055 387.134 176.21 387.348 175.51C387.563 174.801 387.852 174.227 388.216 173.788C388.58 173.349 388.996 173.027 389.462 172.822C389.929 172.607 390.414 172.5 390.918 172.5C391.497 172.5 391.996 172.607 392.416 172.822C392.846 173.037 393.205 173.298 393.494 173.606L392.612 174.586C392.426 174.362 392.188 174.18 391.898 174.04C391.609 173.891 391.31 173.816 391.002 173.816C390.554 173.816 390.139 173.951 389.756 174.222C389.383 174.483 389.084 174.922 388.86 175.538C388.636 176.154 388.524 176.989 388.524 178.044C388.524 178.931 388.608 179.663 388.776 180.242C388.944 180.811 389.182 181.241 389.49 181.53C389.798 181.81 390.158 181.95 390.568 181.95C390.876 181.95 391.147 181.861 391.38 181.684C391.623 181.507 391.814 181.259 391.954 180.942C392.094 180.615 392.164 180.233 392.164 179.794C392.164 179.355 392.099 178.982 391.968 178.674C391.838 178.366 391.646 178.133 391.394 177.974C391.152 177.815 390.848 177.736 390.484 177.736C390.176 177.736 389.845 177.834 389.49 178.03C389.145 178.226 388.814 178.562 388.496 179.038L388.44 177.862C388.636 177.582 388.865 177.349 389.126 177.162C389.388 176.966 389.658 176.817 389.938 176.714C390.228 176.611 390.503 176.56 390.764 176.56C391.343 176.56 391.847 176.681 392.276 176.924C392.715 177.157 393.056 177.512 393.298 177.988C393.55 178.464 393.676 179.066 393.676 179.794C393.676 180.475 393.532 181.073 393.242 181.586C392.962 182.09 392.589 182.487 392.122 182.776C391.665 183.056 391.156 183.196 390.596 183.196ZM395.655 183.196C395.356 183.196 395.099 183.089 394.885 182.874C394.679 182.65 394.577 182.375 394.577 182.048C394.577 181.712 394.679 181.441 394.885 181.236C395.099 181.021 395.356 180.914 395.655 180.914C395.963 180.914 396.219 181.021 396.425 181.236C396.639 181.441 396.747 181.712 396.747 182.048C396.747 182.375 396.639 182.65 396.425 182.874C396.219 183.089 395.963 183.196 395.655 183.196ZM401.043 183.196C400.399 183.196 399.825 183.079 399.321 182.846C398.817 182.603 398.415 182.277 398.117 181.866C397.827 181.446 397.683 180.97 397.683 180.438C397.683 179.981 397.771 179.575 397.949 179.22C398.126 178.865 398.355 178.562 398.635 178.31C398.915 178.049 399.209 177.834 399.517 177.666V177.596C399.143 177.325 398.821 176.994 398.551 176.602C398.28 176.201 398.145 175.729 398.145 175.188C398.145 174.656 398.271 174.189 398.523 173.788C398.784 173.387 399.134 173.079 399.573 172.864C400.021 172.64 400.529 172.528 401.099 172.528C401.696 172.528 402.209 172.645 402.639 172.878C403.068 173.111 403.399 173.433 403.633 173.844C403.875 174.245 403.997 174.717 403.997 175.258C403.997 175.603 403.927 175.93 403.787 176.238C403.647 176.546 403.474 176.826 403.269 177.078C403.073 177.321 402.863 177.521 402.639 177.68V177.75C402.956 177.918 403.245 178.128 403.507 178.38C403.768 178.623 403.978 178.917 404.137 179.262C404.295 179.607 404.375 180.013 404.375 180.48C404.375 180.984 404.235 181.441 403.955 181.852C403.684 182.263 403.297 182.589 402.793 182.832C402.298 183.075 401.715 183.196 401.043 183.196ZM401.729 177.274C402.027 176.985 402.251 176.681 402.401 176.364C402.559 176.037 402.639 175.697 402.639 175.342C402.639 175.034 402.578 174.754 402.457 174.502C402.335 174.25 402.153 174.054 401.911 173.914C401.677 173.765 401.393 173.69 401.057 173.69C400.637 173.69 400.287 173.825 400.007 174.096C399.727 174.357 399.587 174.721 399.587 175.188C399.587 175.561 399.685 175.874 399.881 176.126C400.077 176.378 400.338 176.593 400.665 176.77C400.991 176.947 401.346 177.115 401.729 177.274ZM401.085 182.02C401.43 182.02 401.733 181.955 401.995 181.824C402.265 181.693 402.475 181.511 402.625 181.278C402.774 181.035 402.849 180.751 402.849 180.424C402.849 180.116 402.783 179.85 402.653 179.626C402.522 179.393 402.34 179.192 402.107 179.024C401.883 178.856 401.617 178.702 401.309 178.562C401.001 178.413 400.669 178.268 400.315 178.128C399.96 178.38 399.671 178.693 399.447 179.066C399.223 179.43 399.111 179.831 399.111 180.27C399.111 180.615 399.195 180.919 399.363 181.18C399.54 181.441 399.778 181.647 400.077 181.796C400.375 181.945 400.711 182.02 401.085 182.02ZM407.235 179.01C406.759 179.01 406.339 178.884 405.975 178.632C405.611 178.371 405.326 177.997 405.121 177.512C404.925 177.017 404.827 176.425 404.827 175.734C404.827 175.043 404.925 174.46 405.121 173.984C405.326 173.499 405.611 173.13 405.975 172.878C406.339 172.626 406.759 172.5 407.235 172.5C407.72 172.5 408.145 172.626 408.509 172.878C408.873 173.13 409.153 173.499 409.349 173.984C409.554 174.46 409.657 175.043 409.657 175.734C409.657 176.425 409.554 177.017 409.349 177.512C409.153 177.997 408.873 178.371 408.509 178.632C408.145 178.884 407.72 179.01 407.235 179.01ZM407.235 178.072C407.599 178.072 407.893 177.881 408.117 177.498C408.35 177.115 408.467 176.527 408.467 175.734C408.467 174.941 408.35 174.362 408.117 173.998C407.893 173.634 407.599 173.452 407.235 173.452C406.88 173.452 406.586 173.634 406.353 173.998C406.12 174.362 406.003 174.941 406.003 175.734C406.003 176.527 406.12 177.115 406.353 177.498C406.586 177.881 406.88 178.072 407.235 178.072ZM407.557 183.196L413.199 172.5H414.221L408.579 183.196H407.557ZM414.557 183.196C414.081 183.196 413.661 183.065 413.297 182.804C412.933 182.543 412.648 182.169 412.443 181.684C412.247 181.199 412.149 180.611 412.149 179.92C412.149 179.22 412.247 178.632 412.443 178.156C412.648 177.68 412.933 177.316 413.297 177.064C413.661 176.803 414.081 176.672 414.557 176.672C415.033 176.672 415.453 176.803 415.817 177.064C416.181 177.316 416.461 177.68 416.657 178.156C416.862 178.632 416.965 179.22 416.965 179.92C416.965 180.611 416.862 181.199 416.657 181.684C416.461 182.169 416.181 182.543 415.817 182.804C415.453 183.065 415.033 183.196 414.557 183.196ZM414.557 182.23C414.912 182.23 415.206 182.043 415.439 181.67C415.682 181.297 415.803 180.713 415.803 179.92C415.803 179.117 415.682 178.534 415.439 178.17C415.206 177.806 414.912 177.624 414.557 177.624C414.202 177.624 413.908 177.806 413.675 178.17C413.442 178.534 413.325 179.117 413.325 179.92C413.325 180.713 413.442 181.297 413.675 181.67C413.908 182.043 414.202 182.23 414.557 182.23Z" fill="white"/>
    </g>
</g>
<g class="chart-box chart-05">
    <rect x="605.409" y="328" width="46.8791" height="72" fill="#B5B6B6"/>
    <g class="text-box">
    <g filter="url(#filter3_d_1333_2764)">
<path d="M671.965 200H586.042C584.903 200 583.979 200.689 583.979 201.54V246.686C583.979 247.537 584.903 248.226 586.042 248.226H671.965C673.104 248.226 674.027 247.537 674.027 246.686V201.54C674.027 200.689 673.104 200 671.965 200Z" fill="#B5B5B6"/>
</g>
<path d="M669.012 203.488H589.025V223.27H669.012V203.488Z" fill="white"/>
<g style="mix-blend-mode:multiply">
<path d="M669.012 223.332H589.025V244.7H669.012V223.332Z" fill="#B5B5B6"/>
</g>
<path d="M616.602 218V216.81C617.545 215.97 618.347 215.191 619.01 214.472C619.682 213.753 620.195 213.086 620.55 212.47C620.905 211.845 621.082 211.266 621.082 210.734C621.082 210.398 621.021 210.104 620.9 209.852C620.779 209.6 620.601 209.409 620.368 209.278C620.144 209.138 619.864 209.068 619.528 209.068C619.155 209.068 618.809 209.175 618.492 209.39C618.184 209.595 617.899 209.843 617.638 210.132L616.49 209.026C616.975 208.503 617.47 208.111 617.974 207.85C618.487 207.579 619.094 207.444 619.794 207.444C620.447 207.444 621.017 207.579 621.502 207.85C621.997 208.111 622.379 208.48 622.65 208.956C622.921 209.432 623.056 209.992 623.056 210.636C623.056 211.261 622.897 211.901 622.58 212.554C622.272 213.198 621.857 213.842 621.334 214.486C620.811 215.13 620.233 215.765 619.598 216.39C619.869 216.353 620.158 216.325 620.466 216.306C620.783 216.278 621.063 216.264 621.306 216.264H623.546V218H616.602ZM626.162 218C626.208 217.104 626.288 216.278 626.4 215.522C626.512 214.757 626.67 214.038 626.876 213.366C627.081 212.685 627.347 212.017 627.674 211.364C628.01 210.711 628.425 210.043 628.92 209.362H624.258V207.626H631.146V208.886C630.548 209.614 630.063 210.314 629.69 210.986C629.326 211.658 629.046 212.339 628.85 213.03C628.663 213.721 628.523 214.467 628.43 215.27C628.346 216.073 628.28 216.983 628.234 218H626.162ZM635.33 206.646C636.002 206.646 636.594 206.777 637.108 207.038C637.63 207.29 638.041 207.64 638.34 208.088C638.648 208.527 638.802 209.035 638.802 209.614C638.802 210.193 638.648 210.706 638.34 211.154C638.041 211.593 637.63 211.938 637.108 212.19C636.594 212.442 636.002 212.568 635.33 212.568C634.676 212.568 634.088 212.442 633.566 212.19C633.043 211.938 632.628 211.593 632.32 211.154C632.021 210.706 631.872 210.193 631.872 209.614C631.872 209.035 632.021 208.522 632.32 208.074C632.628 207.626 633.043 207.276 633.566 207.024C634.088 206.772 634.676 206.646 635.33 206.646ZM635.344 208.158C635.026 208.158 634.742 208.219 634.49 208.34C634.238 208.452 634.037 208.615 633.888 208.83C633.748 209.045 633.678 209.306 633.678 209.614C633.678 209.922 633.748 210.188 633.888 210.412C634.037 210.627 634.233 210.79 634.476 210.902C634.728 211.014 635.017 211.07 635.344 211.07C635.661 211.07 635.941 211.014 636.184 210.902C636.436 210.79 636.632 210.627 636.772 210.412C636.921 210.188 636.996 209.922 636.996 209.614C636.996 209.306 636.921 209.045 636.772 208.83C636.632 208.615 636.436 208.452 636.184 208.34C635.932 208.219 635.652 208.158 635.344 208.158ZM640.594 206.282H642.456V212.764H640.594V206.282ZM633.818 213.296H642.456V216.838H635.666V218.42H633.832V215.494H640.608V214.724H633.818V213.296ZM633.832 217.65H642.778V219.106H633.832V217.65Z" fill="#808082"/>
<path d="M618.312 239.196C617.817 239.196 617.355 239.093 616.926 238.888C616.497 238.673 616.119 238.356 615.792 237.936C615.465 237.507 615.209 236.97 615.022 236.326C614.835 235.682 614.742 234.921 614.742 234.044C614.742 233.055 614.849 232.21 615.064 231.51C615.279 230.801 615.568 230.227 615.932 229.788C616.296 229.349 616.711 229.027 617.178 228.822C617.645 228.607 618.13 228.5 618.634 228.5C619.213 228.5 619.712 228.607 620.132 228.822C620.561 229.037 620.921 229.298 621.21 229.606L620.328 230.586C620.141 230.362 619.903 230.18 619.614 230.04C619.325 229.891 619.026 229.816 618.718 229.816C618.27 229.816 617.855 229.951 617.472 230.222C617.099 230.483 616.8 230.922 616.576 231.538C616.352 232.154 616.24 232.989 616.24 234.044C616.24 234.931 616.324 235.663 616.492 236.242C616.66 236.811 616.898 237.241 617.206 237.53C617.514 237.81 617.873 237.95 618.284 237.95C618.592 237.95 618.863 237.861 619.096 237.684C619.339 237.507 619.53 237.259 619.67 236.942C619.81 236.615 619.88 236.233 619.88 235.794C619.88 235.355 619.815 234.982 619.684 234.674C619.553 234.366 619.362 234.133 619.11 233.974C618.867 233.815 618.564 233.736 618.2 233.736C617.892 233.736 617.561 233.834 617.206 234.03C616.861 234.226 616.529 234.562 616.212 235.038L616.156 233.862C616.352 233.582 616.581 233.349 616.842 233.162C617.103 232.966 617.374 232.817 617.654 232.714C617.943 232.611 618.219 232.56 618.48 232.56C619.059 232.56 619.563 232.681 619.992 232.924C620.431 233.157 620.771 233.512 621.014 233.988C621.266 234.464 621.392 235.066 621.392 235.794C621.392 236.475 621.247 237.073 620.958 237.586C620.678 238.09 620.305 238.487 619.838 238.776C619.381 239.056 618.872 239.196 618.312 239.196ZM623.37 239.196C623.072 239.196 622.815 239.089 622.6 238.874C622.395 238.65 622.292 238.375 622.292 238.048C622.292 237.712 622.395 237.441 622.6 237.236C622.815 237.021 623.072 236.914 623.37 236.914C623.678 236.914 623.935 237.021 624.14 237.236C624.355 237.441 624.462 237.712 624.462 238.048C624.462 238.375 624.355 238.65 624.14 238.874C623.935 239.089 623.678 239.196 623.37 239.196ZM629.5 239V232.28C629.5 232 629.51 231.669 629.528 231.286C629.547 230.894 629.561 230.558 629.57 230.278H629.514C629.384 230.539 629.248 230.805 629.108 231.076C628.978 231.347 628.838 231.613 628.688 231.874L626.672 234.968H632.314V236.228H625.034V235.15L629.136 228.682H631.012V239H629.5ZM634.951 235.01C634.475 235.01 634.055 234.884 633.691 234.632C633.327 234.371 633.042 233.997 632.837 233.512C632.641 233.017 632.543 232.425 632.543 231.734C632.543 231.043 632.641 230.46 632.837 229.984C633.042 229.499 633.327 229.13 633.691 228.878C634.055 228.626 634.475 228.5 634.951 228.5C635.436 228.5 635.861 228.626 636.225 228.878C636.589 229.13 636.869 229.499 637.065 229.984C637.27 230.46 637.373 231.043 637.373 231.734C637.373 232.425 637.27 233.017 637.065 233.512C636.869 233.997 636.589 234.371 636.225 234.632C635.861 234.884 635.436 235.01 634.951 235.01ZM634.951 234.072C635.315 234.072 635.609 233.881 635.833 233.498C636.066 233.115 636.183 232.527 636.183 231.734C636.183 230.941 636.066 230.362 635.833 229.998C635.609 229.634 635.315 229.452 634.951 229.452C634.596 229.452 634.302 229.634 634.069 229.998C633.835 230.362 633.719 230.941 633.719 231.734C633.719 232.527 633.835 233.115 634.069 233.498C634.302 233.881 634.596 234.072 634.951 234.072ZM635.273 239.196L640.915 228.5H641.937L636.295 239.196H635.273ZM642.273 239.196C641.797 239.196 641.377 239.065 641.013 238.804C640.649 238.543 640.364 238.169 640.159 237.684C639.963 237.199 639.865 236.611 639.865 235.92C639.865 235.22 639.963 234.632 640.159 234.156C640.364 233.68 640.649 233.316 641.013 233.064C641.377 232.803 641.797 232.672 642.273 232.672C642.749 232.672 643.169 232.803 643.533 233.064C643.897 233.316 644.177 233.68 644.373 234.156C644.578 234.632 644.681 235.22 644.681 235.92C644.681 236.611 644.578 237.199 644.373 237.684C644.177 238.169 643.897 238.543 643.533 238.804C643.169 239.065 642.749 239.196 642.273 239.196ZM642.273 238.23C642.627 238.23 642.921 238.043 643.155 237.67C643.397 237.297 643.519 236.713 643.519 235.92C643.519 235.117 643.397 234.534 643.155 234.17C642.921 233.806 642.627 233.624 642.273 233.624C641.918 233.624 641.624 233.806 641.391 234.17C641.157 234.534 641.041 235.117 641.041 235.92C641.041 236.713 641.157 237.297 641.391 237.67C641.624 238.043 641.918 238.23 642.273 238.23Z" fill="white"/>
    </g>
</g>
<g class="chart-box chart-06">
    <rect x="720.599" y="328" width="46.8791" height="14" fill="#B49D6E"/>
    <g class="text-box">
    <g filter="url(#filter4_d_1333_2764)">
<path d="M787.154 256H701.23C700.091 256 699.168 256.689 699.168 257.54V302.686C699.168 303.537 700.091 304.226 701.23 304.226H787.154C788.293 304.226 789.216 303.537 789.216 302.686V257.54C789.216 256.689 788.293 256 787.154 256Z" fill="#C4AC78"/>
</g>
<path d="M784.201 259.488H704.214V279.27H784.201V259.488Z" fill="white"/>
<g style="mix-blend-mode:multiply">
<path d="M784.201 279.332H704.214V300.7H784.201V279.332Z" fill="#C4AC78"/>
</g>
<path d="M737.878 274.196C737.327 274.196 736.837 274.131 736.408 274C735.979 273.869 735.596 273.697 735.26 273.482C734.924 273.267 734.625 273.034 734.364 272.782L735.316 271.466C735.512 271.662 735.722 271.839 735.946 271.998C736.179 272.157 736.431 272.283 736.702 272.376C736.982 272.469 737.281 272.516 737.598 272.516C737.953 272.516 738.265 272.441 738.536 272.292C738.816 272.143 739.035 271.928 739.194 271.648C739.353 271.359 739.432 271.013 739.432 270.612C739.432 270.015 739.269 269.553 738.942 269.226C738.625 268.899 738.205 268.736 737.682 268.736C737.383 268.736 737.127 268.778 736.912 268.862C736.697 268.937 736.436 269.072 736.128 269.268L735.19 268.666L735.47 263.626H741.014V265.362H737.248L737.052 267.56C737.257 267.467 737.458 267.397 737.654 267.35C737.85 267.303 738.065 267.28 738.298 267.28C738.877 267.28 739.409 267.397 739.894 267.63C740.379 267.854 740.767 268.209 741.056 268.694C741.345 269.179 741.49 269.8 741.49 270.556C741.49 271.321 741.317 271.979 740.972 272.53C740.636 273.071 740.193 273.487 739.642 273.776C739.101 274.056 738.513 274.196 737.878 274.196ZM745.772 262.646C746.444 262.646 747.036 262.777 747.55 263.038C748.072 263.29 748.483 263.64 748.782 264.088C749.09 264.527 749.244 265.035 749.244 265.614C749.244 266.193 749.09 266.706 748.782 267.154C748.483 267.593 748.072 267.938 747.55 268.19C747.036 268.442 746.444 268.568 745.772 268.568C745.118 268.568 744.53 268.442 744.008 268.19C743.485 267.938 743.07 267.593 742.762 267.154C742.463 266.706 742.314 266.193 742.314 265.614C742.314 265.035 742.463 264.522 742.762 264.074C743.07 263.626 743.485 263.276 744.008 263.024C744.53 262.772 745.118 262.646 745.772 262.646ZM745.786 264.158C745.468 264.158 745.184 264.219 744.932 264.34C744.68 264.452 744.479 264.615 744.33 264.83C744.19 265.045 744.12 265.306 744.12 265.614C744.12 265.922 744.19 266.188 744.33 266.412C744.479 266.627 744.675 266.79 744.918 266.902C745.17 267.014 745.459 267.07 745.786 267.07C746.103 267.07 746.383 267.014 746.626 266.902C746.878 266.79 747.074 266.627 747.214 266.412C747.363 266.188 747.438 265.922 747.438 265.614C747.438 265.306 747.363 265.045 747.214 264.83C747.074 264.615 746.878 264.452 746.626 264.34C746.374 264.219 746.094 264.158 745.786 264.158ZM751.036 262.282H752.898V268.764H751.036V262.282ZM744.26 269.296H752.898V272.838H746.108V274.42H744.274V271.494H751.05V270.724H744.26V269.296ZM744.274 273.65H753.22V275.106H744.274V273.65Z" fill="#977438"/>
<path d="M729.19 295V293.67H731.458V286.502H729.61V285.48C730.095 285.396 730.515 285.289 730.87 285.158C731.234 285.027 731.565 284.869 731.864 284.682H733.082V293.67H735.084V295H729.19ZM737.37 295.196C737.072 295.196 736.815 295.089 736.6 294.874C736.395 294.65 736.292 294.375 736.292 294.048C736.292 293.712 736.395 293.441 736.6 293.236C736.815 293.021 737.072 292.914 737.37 292.914C737.678 292.914 737.935 293.021 738.14 293.236C738.355 293.441 738.462 293.712 738.462 294.048C738.462 294.375 738.355 294.65 738.14 294.874C737.935 295.089 737.678 295.196 737.37 295.196ZM739.37 295V294.062C740.388 293.157 741.237 292.331 741.918 291.584C742.6 290.828 743.108 290.128 743.444 289.484C743.79 288.84 743.962 288.238 743.962 287.678C743.962 287.305 743.897 286.978 743.766 286.698C743.645 286.409 743.454 286.189 743.192 286.04C742.94 285.881 742.618 285.802 742.226 285.802C741.825 285.802 741.456 285.914 741.12 286.138C740.784 286.353 740.476 286.619 740.196 286.936L739.286 286.04C739.725 285.555 740.187 285.177 740.672 284.906C741.167 284.635 741.755 284.5 742.436 284.5C743.062 284.5 743.608 284.631 744.074 284.892C744.541 285.144 744.9 285.503 745.152 285.97C745.414 286.427 745.544 286.969 745.544 287.594C745.544 288.257 745.381 288.929 745.054 289.61C744.728 290.282 744.28 290.963 743.71 291.654C743.141 292.335 742.492 293.026 741.764 293.726C742.035 293.698 742.32 293.675 742.618 293.656C742.926 293.628 743.202 293.614 743.444 293.614H746.034V295H739.37ZM748.951 291.01C748.475 291.01 748.055 290.884 747.691 290.632C747.327 290.371 747.042 289.997 746.837 289.512C746.641 289.017 746.543 288.425 746.543 287.734C746.543 287.043 746.641 286.46 746.837 285.984C747.042 285.499 747.327 285.13 747.691 284.878C748.055 284.626 748.475 284.5 748.951 284.5C749.436 284.5 749.861 284.626 750.225 284.878C750.589 285.13 750.869 285.499 751.065 285.984C751.27 286.46 751.373 287.043 751.373 287.734C751.373 288.425 751.27 289.017 751.065 289.512C750.869 289.997 750.589 290.371 750.225 290.632C749.861 290.884 749.436 291.01 748.951 291.01ZM748.951 290.072C749.315 290.072 749.609 289.881 749.833 289.498C750.066 289.115 750.183 288.527 750.183 287.734C750.183 286.941 750.066 286.362 749.833 285.998C749.609 285.634 749.315 285.452 748.951 285.452C748.596 285.452 748.302 285.634 748.069 285.998C747.835 286.362 747.719 286.941 747.719 287.734C747.719 288.527 747.835 289.115 748.069 289.498C748.302 289.881 748.596 290.072 748.951 290.072ZM749.273 295.196L754.915 284.5H755.937L750.295 295.196H749.273ZM756.273 295.196C755.797 295.196 755.377 295.065 755.013 294.804C754.649 294.543 754.364 294.169 754.159 293.684C753.963 293.199 753.865 292.611 753.865 291.92C753.865 291.22 753.963 290.632 754.159 290.156C754.364 289.68 754.649 289.316 755.013 289.064C755.377 288.803 755.797 288.672 756.273 288.672C756.749 288.672 757.169 288.803 757.533 289.064C757.897 289.316 758.177 289.68 758.373 290.156C758.578 290.632 758.681 291.22 758.681 291.92C758.681 292.611 758.578 293.199 758.373 293.684C758.177 294.169 757.897 294.543 757.533 294.804C757.169 295.065 756.749 295.196 756.273 295.196ZM756.273 294.23C756.627 294.23 756.921 294.043 757.155 293.67C757.397 293.297 757.519 292.713 757.519 291.92C757.519 291.117 757.397 290.534 757.155 290.17C756.921 289.806 756.627 289.624 756.273 289.624C755.918 289.624 755.624 289.806 755.391 290.17C755.157 290.534 755.041 291.117 755.041 291.92C755.041 292.713 755.157 293.297 755.391 293.67C755.624 294.043 755.918 294.23 756.273 294.23Z" fill="white"/>
    </g>
</g>
<g class="chart-box chart-07">
    <rect x="948.297" y="328" width="46.8791" height="24" fill="#F6D17F"/>
    <g class="text-box">
    <g filter="url(#filter5_d_1333_2764)">
<path d="M1014.85 246H928.928C927.79 246 926.866 246.689 926.866 247.54V292.686C926.866 293.537 927.79 294.226 928.928 294.226H1014.85C1015.99 294.226 1016.91 293.537 1016.91 292.686V247.54C1016.91 246.689 1015.99 246 1014.85 246Z" fill="#F7D17F"/>
</g>
<path d="M1011.9 249.488H931.912V269.27H1011.9V249.488Z" fill="white"/>
<g style="mix-blend-mode:multiply">
<path d="M1011.9 269.332H931.912V290.7H1011.9V269.332Z" fill="#F7D17F"/>
</g>
<path d="M958.148 265V263.32H960.388V256.782H958.498V255.494C959.021 255.401 959.469 255.289 959.842 255.158C960.225 255.018 960.579 254.841 960.906 254.626H962.432V263.32H964.378V265H958.148ZM968.436 265.196C967.885 265.196 967.395 265.131 966.966 265C966.536 264.869 966.154 264.697 965.818 264.482C965.482 264.267 965.183 264.034 964.922 263.782L965.874 262.466C966.07 262.662 966.28 262.839 966.504 262.998C966.737 263.157 966.989 263.283 967.26 263.376C967.54 263.469 967.838 263.516 968.156 263.516C968.51 263.516 968.823 263.441 969.094 263.292C969.374 263.143 969.593 262.928 969.752 262.648C969.91 262.359 969.99 262.013 969.99 261.612C969.99 261.015 969.826 260.553 969.5 260.226C969.182 259.899 968.762 259.736 968.24 259.736C967.941 259.736 967.684 259.778 967.47 259.862C967.255 259.937 966.994 260.072 966.686 260.268L965.748 259.666L966.028 254.626H971.572V256.362H967.806L967.61 258.56C967.815 258.467 968.016 258.397 968.212 258.35C968.408 258.303 968.622 258.28 968.856 258.28C969.434 258.28 969.966 258.397 970.452 258.63C970.937 258.854 971.324 259.209 971.614 259.694C971.903 260.179 972.048 260.8 972.048 261.556C972.048 262.321 971.875 262.979 971.53 263.53C971.194 264.071 970.75 264.487 970.2 264.776C969.658 265.056 969.07 265.196 968.436 265.196ZM976.33 253.646C977.002 253.646 977.594 253.777 978.108 254.038C978.63 254.29 979.041 254.64 979.34 255.088C979.648 255.527 979.802 256.035 979.802 256.614C979.802 257.193 979.648 257.706 979.34 258.154C979.041 258.593 978.63 258.938 978.108 259.19C977.594 259.442 977.002 259.568 976.33 259.568C975.676 259.568 975.088 259.442 974.566 259.19C974.043 258.938 973.628 258.593 973.32 258.154C973.021 257.706 972.872 257.193 972.872 256.614C972.872 256.035 973.021 255.522 973.32 255.074C973.628 254.626 974.043 254.276 974.566 254.024C975.088 253.772 975.676 253.646 976.33 253.646ZM976.344 255.158C976.026 255.158 975.742 255.219 975.49 255.34C975.238 255.452 975.037 255.615 974.888 255.83C974.748 256.045 974.678 256.306 974.678 256.614C974.678 256.922 974.748 257.188 974.888 257.412C975.037 257.627 975.233 257.79 975.476 257.902C975.728 258.014 976.017 258.07 976.344 258.07C976.661 258.07 976.941 258.014 977.184 257.902C977.436 257.79 977.632 257.627 977.772 257.412C977.921 257.188 977.996 256.922 977.996 256.614C977.996 256.306 977.921 256.045 977.772 255.83C977.632 255.615 977.436 255.452 977.184 255.34C976.932 255.219 976.652 255.158 976.344 255.158ZM981.594 253.282H983.456V259.764H981.594V253.282ZM974.818 260.296H983.456V263.838H976.666V265.42H974.832V262.494H981.608V261.724H974.818V260.296ZM974.832 264.65H983.778V266.106H974.832V264.65Z" fill="#EFAB3F"/>
<path d="M958.752 286.196C958.211 286.196 957.73 286.131 957.31 286C956.899 285.869 956.535 285.697 956.218 285.482C955.901 285.258 955.625 285.02 955.392 284.768L956.176 283.732C956.484 284.031 956.834 284.292 957.226 284.516C957.618 284.74 958.08 284.852 958.612 284.852C959.004 284.852 959.345 284.787 959.634 284.656C959.923 284.516 960.147 284.32 960.306 284.068C960.474 283.816 960.558 283.508 960.558 283.144C960.558 282.771 960.465 282.444 960.278 282.164C960.101 281.875 959.788 281.655 959.34 281.506C958.901 281.347 958.295 281.268 957.52 281.268V280.064C958.201 280.064 958.733 279.989 959.116 279.84C959.508 279.681 959.788 279.467 959.956 279.196C960.133 278.925 960.222 278.617 960.222 278.272C960.222 277.824 960.082 277.469 959.802 277.208C959.522 276.937 959.135 276.802 958.64 276.802C958.248 276.802 957.879 276.891 957.534 277.068C957.198 277.236 956.881 277.465 956.582 277.754L955.742 276.746C956.153 276.373 956.601 276.074 957.086 275.85C957.571 275.617 958.108 275.5 958.696 275.5C959.312 275.5 959.858 275.607 960.334 275.822C960.81 276.027 961.183 276.326 961.454 276.718C961.725 277.11 961.86 277.591 961.86 278.16C961.86 278.748 961.697 279.247 961.37 279.658C961.053 280.069 960.623 280.377 960.082 280.582V280.638C960.474 280.741 960.829 280.909 961.146 281.142C961.473 281.366 961.729 281.655 961.916 282.01C962.103 282.365 962.196 282.771 962.196 283.228C962.196 283.844 962.037 284.376 961.72 284.824C961.412 285.263 960.997 285.603 960.474 285.846C959.951 286.079 959.377 286.196 958.752 286.196ZM964.37 286.196C964.072 286.196 963.815 286.089 963.6 285.874C963.395 285.65 963.292 285.375 963.292 285.048C963.292 284.712 963.395 284.441 963.6 284.236C963.815 284.021 964.072 283.914 964.37 283.914C964.678 283.914 964.935 284.021 965.14 284.236C965.355 284.441 965.462 284.712 965.462 285.048C965.462 285.375 965.355 285.65 965.14 285.874C964.935 286.089 964.678 286.196 964.37 286.196ZM969.506 286.196C968.974 286.196 968.498 286.131 968.078 286C967.658 285.869 967.29 285.697 966.972 285.482C966.655 285.267 966.375 285.043 966.132 284.81L966.902 283.76C967.098 283.956 967.313 284.138 967.546 284.306C967.78 284.465 968.041 284.595 968.33 284.698C968.629 284.801 968.96 284.852 969.324 284.852C969.707 284.852 970.052 284.768 970.36 284.6C970.668 284.423 970.911 284.171 971.088 283.844C971.266 283.508 971.354 283.111 971.354 282.654C971.354 281.982 971.172 281.459 970.808 281.086C970.454 280.713 969.982 280.526 969.394 280.526C969.068 280.526 968.788 280.573 968.554 280.666C968.321 280.759 968.055 280.904 967.756 281.1L966.958 280.582L967.266 275.682H972.488V277.054H968.666L968.428 279.686C968.652 279.574 968.876 279.49 969.1 279.434C969.324 279.369 969.572 279.336 969.842 279.336C970.421 279.336 970.948 279.453 971.424 279.686C971.9 279.919 972.278 280.279 972.558 280.764C972.838 281.24 972.978 281.856 972.978 282.612C972.978 283.368 972.815 284.017 972.488 284.558C972.162 285.09 971.732 285.496 971.2 285.776C970.678 286.056 970.113 286.196 969.506 286.196ZM975.951 282.01C975.475 282.01 975.055 281.884 974.691 281.632C974.327 281.371 974.042 280.997 973.837 280.512C973.641 280.017 973.543 279.425 973.543 278.734C973.543 278.043 973.641 277.46 973.837 276.984C974.042 276.499 974.327 276.13 974.691 275.878C975.055 275.626 975.475 275.5 975.951 275.5C976.436 275.5 976.861 275.626 977.225 275.878C977.589 276.13 977.869 276.499 978.065 276.984C978.27 277.46 978.373 278.043 978.373 278.734C978.373 279.425 978.27 280.017 978.065 280.512C977.869 280.997 977.589 281.371 977.225 281.632C976.861 281.884 976.436 282.01 975.951 282.01ZM975.951 281.072C976.315 281.072 976.609 280.881 976.833 280.498C977.066 280.115 977.183 279.527 977.183 278.734C977.183 277.941 977.066 277.362 976.833 276.998C976.609 276.634 976.315 276.452 975.951 276.452C975.596 276.452 975.302 276.634 975.069 276.998C974.835 277.362 974.719 277.941 974.719 278.734C974.719 279.527 974.835 280.115 975.069 280.498C975.302 280.881 975.596 281.072 975.951 281.072ZM976.273 286.196L981.915 275.5H982.937L977.295 286.196H976.273ZM983.273 286.196C982.797 286.196 982.377 286.065 982.013 285.804C981.649 285.543 981.364 285.169 981.159 284.684C980.963 284.199 980.865 283.611 980.865 282.92C980.865 282.22 980.963 281.632 981.159 281.156C981.364 280.68 981.649 280.316 982.013 280.064C982.377 279.803 982.797 279.672 983.273 279.672C983.749 279.672 984.169 279.803 984.533 280.064C984.897 280.316 985.177 280.68 985.373 281.156C985.578 281.632 985.681 282.22 985.681 282.92C985.681 283.611 985.578 284.199 985.373 284.684C985.177 285.169 984.897 285.543 984.533 285.804C984.169 286.065 983.749 286.196 983.273 286.196ZM983.273 285.23C983.627 285.23 983.921 285.043 984.155 284.67C984.397 284.297 984.519 283.713 984.519 282.92C984.519 282.117 984.397 281.534 984.155 281.17C983.921 280.806 983.627 280.624 983.273 280.624C982.918 280.624 982.624 280.806 982.391 281.17C982.157 281.534 982.041 282.117 982.041 282.92C982.041 283.713 982.157 284.297 982.391 284.67C982.624 285.043 982.918 285.23 983.273 285.23Z" fill="white"/>
    </g>
</g>
<g class="chart-box chart-08">
    <rect x="491.561" y="328" width="46.8791" height="204" fill="#8ED2EE"/>
    <g class="text-box">
    <g filter="url(#filter6_d_1333_2764)">
<path d="M558.116 66H472.192C471.053 66 470.13 66.6893 470.13 67.5396V112.686C470.13 113.537 471.053 114.226 472.192 114.226H558.116C559.255 114.226 560.178 113.537 560.178 112.686V67.5396C560.178 66.6893 559.255 66 558.116 66Z" fill="#8ED2EF"/>
</g>
<path d="M555.163 69.4883H475.176V89.27H555.163V69.4883Z" fill="white"/>
<g style="mix-blend-mode:multiply">
<path d="M555.163 89.332H475.176V110.7H555.163V89.332Z" fill="#8ED2EF"/>
</g>
<path d="M499.148 85V83.32H501.388V76.782H499.498V75.494C500.021 75.4007 500.469 75.2887 500.842 75.158C501.225 75.018 501.579 74.8407 501.906 74.626H503.432V83.32H505.378V85H499.148ZM506.706 85V83.32H508.946V76.782H507.056V75.494C507.578 75.4007 508.026 75.2887 508.4 75.158C508.782 75.018 509.137 74.8407 509.464 74.626H510.99V83.32H512.936V85H506.706ZM517.246 85.196C516.546 85.196 515.93 84.9953 515.398 84.594C514.875 84.1833 514.464 83.5767 514.166 82.774C513.876 81.962 513.732 80.9587 513.732 79.764C513.732 78.5787 513.876 77.594 514.166 76.81C514.464 76.0167 514.875 75.424 515.398 75.032C515.93 74.64 516.546 74.444 517.246 74.444C517.955 74.444 518.571 74.6447 519.094 75.046C519.616 75.438 520.022 76.026 520.312 76.81C520.61 77.594 520.76 78.5787 520.76 79.764C520.76 80.9587 520.61 81.962 520.312 82.774C520.022 83.5767 519.616 84.1833 519.094 84.594C518.571 84.9953 517.955 85.196 517.246 85.196ZM517.246 83.586C517.554 83.586 517.824 83.4693 518.058 83.236C518.291 83.0027 518.473 82.6107 518.604 82.06C518.734 81.5 518.8 80.7347 518.8 79.764C518.8 78.8027 518.734 78.0513 518.604 77.51C518.473 76.9593 518.291 76.5767 518.058 76.362C517.824 76.138 517.554 76.026 517.246 76.026C516.956 76.026 516.69 76.138 516.448 76.362C516.214 76.5767 516.028 76.9593 515.888 77.51C515.748 78.0513 515.678 78.8027 515.678 79.764C515.678 80.7347 515.748 81.5 515.888 82.06C516.028 82.6107 516.214 83.0027 516.448 83.236C516.69 83.4693 516.956 83.586 517.246 83.586ZM524.887 73.646C525.559 73.646 526.152 73.7767 526.665 74.038C527.188 74.29 527.599 74.64 527.897 75.088C528.205 75.5267 528.359 76.0353 528.359 76.614C528.359 77.1927 528.205 77.706 527.897 78.154C527.599 78.5927 527.188 78.938 526.665 79.19C526.152 79.442 525.559 79.568 524.887 79.568C524.234 79.568 523.646 79.442 523.123 79.19C522.601 78.938 522.185 78.5927 521.877 78.154C521.579 77.706 521.429 77.1927 521.429 76.614C521.429 76.0353 521.579 75.522 521.877 75.074C522.185 74.626 522.601 74.276 523.123 74.024C523.646 73.772 524.234 73.646 524.887 73.646ZM524.901 75.158C524.584 75.158 524.299 75.2187 524.047 75.34C523.795 75.452 523.595 75.6153 523.445 75.83C523.305 76.0447 523.235 76.306 523.235 76.614C523.235 76.922 523.305 77.188 523.445 77.412C523.595 77.6267 523.791 77.79 524.033 77.902C524.285 78.014 524.575 78.07 524.901 78.07C525.219 78.07 525.499 78.014 525.741 77.902C525.993 77.79 526.189 77.6267 526.329 77.412C526.479 77.188 526.553 76.922 526.553 76.614C526.553 76.306 526.479 76.0447 526.329 75.83C526.189 75.6153 525.993 75.452 525.741 75.34C525.489 75.2187 525.209 75.158 524.901 75.158ZM530.151 73.282H532.013V79.764H530.151V73.282ZM523.375 80.296H532.013V83.838H525.223V85.42H523.389V82.494H530.165V81.724H523.375V80.296ZM523.389 84.65H532.335V86.106H523.389V84.65Z" fill="#4FADE0"/>
<path d="M502.616 106V105.062C503.633 104.157 504.483 103.331 505.164 102.584C505.845 101.828 506.354 101.128 506.69 100.484C507.035 99.84 507.208 99.238 507.208 98.678C507.208 98.3047 507.143 97.978 507.012 97.698C506.891 97.4087 506.699 97.1893 506.438 97.04C506.186 96.8813 505.864 96.802 505.472 96.802C505.071 96.802 504.702 96.914 504.366 97.138C504.03 97.3527 503.722 97.6187 503.442 97.936L502.532 97.04C502.971 96.5547 503.433 96.1767 503.918 95.906C504.413 95.6353 505.001 95.5 505.682 95.5C506.307 95.5 506.853 95.6307 507.32 95.892C507.787 96.144 508.146 96.5033 508.398 96.97C508.659 97.4273 508.79 97.9687 508.79 98.594C508.79 99.2567 508.627 99.9287 508.3 100.61C507.973 101.282 507.525 101.963 506.956 102.654C506.387 103.335 505.738 104.026 505.01 104.726C505.281 104.698 505.565 104.675 505.864 104.656C506.172 104.628 506.447 104.614 506.69 104.614H509.28V106H502.616ZM513.596 106.196C513.102 106.196 512.64 106.093 512.21 105.888C511.781 105.673 511.403 105.356 511.076 104.936C510.75 104.507 510.493 103.97 510.306 103.326C510.12 102.682 510.026 101.921 510.026 101.044C510.026 100.055 510.134 99.21 510.348 98.51C510.563 97.8007 510.852 97.2267 511.216 96.788C511.58 96.3493 511.996 96.0273 512.462 95.822C512.929 95.6073 513.414 95.5 513.918 95.5C514.497 95.5 514.996 95.6073 515.416 95.822C515.846 96.0367 516.205 96.298 516.494 96.606L515.612 97.586C515.426 97.362 515.188 97.18 514.898 97.04C514.609 96.8907 514.31 96.816 514.002 96.816C513.554 96.816 513.139 96.9513 512.756 97.222C512.383 97.4833 512.084 97.922 511.86 98.538C511.636 99.154 511.524 99.9893 511.524 101.044C511.524 101.931 511.608 102.663 511.776 103.242C511.944 103.811 512.182 104.241 512.49 104.53C512.798 104.81 513.158 104.95 513.568 104.95C513.876 104.95 514.147 104.861 514.38 104.684C514.623 104.507 514.814 104.259 514.954 103.942C515.094 103.615 515.164 103.233 515.164 102.794C515.164 102.355 515.099 101.982 514.968 101.674C514.838 101.366 514.646 101.133 514.394 100.974C514.152 100.815 513.848 100.736 513.484 100.736C513.176 100.736 512.845 100.834 512.49 101.03C512.145 101.226 511.814 101.562 511.496 102.038L511.44 100.862C511.636 100.582 511.865 100.349 512.126 100.162C512.388 99.966 512.658 99.8167 512.938 99.714C513.228 99.6113 513.503 99.56 513.764 99.56C514.343 99.56 514.847 99.6813 515.276 99.924C515.715 100.157 516.056 100.512 516.298 100.988C516.55 101.464 516.676 102.066 516.676 102.794C516.676 103.475 516.532 104.073 516.242 104.586C515.962 105.09 515.589 105.487 515.122 105.776C514.665 106.056 514.156 106.196 513.596 106.196ZM519.481 102.01C519.005 102.01 518.585 101.884 518.221 101.632C517.857 101.371 517.572 100.997 517.367 100.512C517.171 100.017 517.073 99.4247 517.073 98.734C517.073 98.0433 517.171 97.46 517.367 96.984C517.572 96.4987 517.857 96.13 518.221 95.878C518.585 95.626 519.005 95.5 519.481 95.5C519.966 95.5 520.391 95.626 520.755 95.878C521.119 96.13 521.399 96.4987 521.595 96.984C521.8 97.46 521.903 98.0433 521.903 98.734C521.903 99.4247 521.8 100.017 521.595 100.512C521.399 100.997 521.119 101.371 520.755 101.632C520.391 101.884 519.966 102.01 519.481 102.01ZM519.481 101.072C519.845 101.072 520.139 100.881 520.363 100.498C520.596 100.115 520.713 99.5273 520.713 98.734C520.713 97.9407 520.596 97.362 520.363 96.998C520.139 96.634 519.845 96.452 519.481 96.452C519.126 96.452 518.832 96.634 518.599 96.998C518.365 97.362 518.249 97.9407 518.249 98.734C518.249 99.5273 518.365 100.115 518.599 100.498C518.832 100.881 519.126 101.072 519.481 101.072ZM519.803 106.196L525.445 95.5H526.467L520.825 106.196H519.803ZM526.803 106.196C526.327 106.196 525.907 106.065 525.543 105.804C525.179 105.543 524.894 105.169 524.689 104.684C524.493 104.199 524.395 103.611 524.395 102.92C524.395 102.22 524.493 101.632 524.689 101.156C524.894 100.68 525.179 100.316 525.543 100.064C525.907 99.8027 526.327 99.672 526.803 99.672C527.279 99.672 527.699 99.8027 528.063 100.064C528.427 100.316 528.707 100.68 528.903 101.156C529.108 101.632 529.211 102.22 529.211 102.92C529.211 103.611 529.108 104.199 528.903 104.684C528.707 105.169 528.427 105.543 528.063 105.804C527.699 106.065 527.279 106.196 526.803 106.196ZM526.803 105.23C527.157 105.23 527.451 105.043 527.685 104.67C527.927 104.297 528.049 103.713 528.049 102.92C528.049 102.117 527.927 101.534 527.685 101.17C527.451 100.806 527.157 100.624 526.803 100.624C526.448 100.624 526.154 100.806 525.921 101.17C525.687 101.534 525.571 102.117 525.571 102.92C525.571 103.713 525.687 104.297 525.921 104.67C526.154 105.043 526.448 105.23 526.803 105.23Z" fill="white"/>
    </g>
</g>
<g class="chart-box chart-02">
    <rect x="148.674" y="328.227" width="46.8791" height="160" fill="#90B3C3"/>
    <g class="text-box">
    <g filter="url(#filter7_d_1333_2764)">
<path d="M215.229 110H129.305C128.166 110 127.243 110.689 127.243 111.54V156.686C127.243 157.537 128.166 158.226 129.305 158.226H215.229C216.368 158.226 217.291 157.537 217.291 156.686V111.54C217.291 110.689 216.368 110 215.229 110Z" fill="#90B3C3"/>
</g>
<path d="M212.276 113.488H132.289V133.27H212.276V113.488Z" fill="white"/>
<g style="mix-blend-mode:multiply">
<path d="M212.276 133.332H132.289V154.7H212.276V133.332Z" fill="#90B3C3"/>
</g>
<path d="M162.57 129.196C161.926 129.196 161.366 129.079 160.89 128.846C160.423 128.613 160.036 128.337 159.728 128.02L160.82 126.774C161.007 126.989 161.249 127.166 161.548 127.306C161.847 127.446 162.15 127.516 162.458 127.516C162.757 127.516 163.041 127.451 163.312 127.32C163.583 127.18 163.816 126.961 164.012 126.662C164.217 126.354 164.376 125.948 164.488 125.444C164.609 124.94 164.67 124.319 164.67 123.582C164.67 122.695 164.586 121.991 164.418 121.468C164.259 120.945 164.045 120.572 163.774 120.348C163.503 120.115 163.195 119.998 162.85 119.998C162.598 119.998 162.365 120.068 162.15 120.208C161.935 120.348 161.763 120.558 161.632 120.838C161.511 121.118 161.45 121.473 161.45 121.902C161.45 122.303 161.511 122.639 161.632 122.91C161.753 123.171 161.921 123.367 162.136 123.498C162.36 123.629 162.621 123.694 162.92 123.694C163.209 123.694 163.508 123.605 163.816 123.428C164.124 123.251 164.404 122.952 164.656 122.532L164.754 123.918C164.577 124.17 164.357 124.389 164.096 124.576C163.844 124.763 163.583 124.907 163.312 125.01C163.041 125.113 162.78 125.164 162.528 125.164C161.959 125.164 161.45 125.047 161.002 124.814C160.554 124.571 160.199 124.212 159.938 123.736C159.686 123.251 159.56 122.639 159.56 121.902C159.56 121.193 159.709 120.581 160.008 120.068C160.307 119.545 160.703 119.144 161.198 118.864C161.693 118.584 162.234 118.444 162.822 118.444C163.317 118.444 163.783 118.547 164.222 118.752C164.67 118.948 165.067 119.256 165.412 119.676C165.767 120.087 166.042 120.619 166.238 121.272C166.443 121.916 166.546 122.686 166.546 123.582C166.546 124.562 166.439 125.407 166.224 126.116C166.009 126.816 165.711 127.395 165.328 127.852C164.955 128.309 164.53 128.65 164.054 128.874C163.578 129.089 163.083 129.196 162.57 129.196ZM170.38 129.196C169.838 129.196 169.353 129.131 168.924 129C168.494 128.879 168.112 128.711 167.776 128.496C167.449 128.272 167.164 128.025 166.922 127.754L167.888 126.452C168.205 126.741 168.55 126.993 168.924 127.208C169.306 127.413 169.731 127.516 170.198 127.516C170.552 127.516 170.86 127.46 171.122 127.348C171.392 127.236 171.598 127.073 171.738 126.858C171.887 126.643 171.962 126.382 171.962 126.074C171.962 125.729 171.878 125.435 171.71 125.192C171.551 124.94 171.266 124.749 170.856 124.618C170.445 124.487 169.866 124.422 169.12 124.422V122.938C169.754 122.938 170.254 122.873 170.618 122.742C170.982 122.602 171.238 122.415 171.388 122.182C171.546 121.939 171.626 121.664 171.626 121.356C171.626 120.955 171.504 120.642 171.262 120.418C171.019 120.185 170.678 120.068 170.24 120.068C169.876 120.068 169.535 120.152 169.218 120.32C168.91 120.479 168.602 120.698 168.294 120.978L167.23 119.704C167.687 119.321 168.168 119.018 168.672 118.794C169.176 118.561 169.731 118.444 170.338 118.444C171 118.444 171.584 118.551 172.088 118.766C172.601 118.981 172.998 119.293 173.278 119.704C173.558 120.115 173.698 120.614 173.698 121.202C173.698 121.762 173.548 122.243 173.25 122.644C172.951 123.045 172.526 123.353 171.976 123.568V123.638C172.358 123.741 172.704 123.909 173.012 124.142C173.329 124.366 173.576 124.651 173.754 124.996C173.94 125.341 174.034 125.743 174.034 126.2C174.034 126.825 173.866 127.362 173.53 127.81C173.203 128.258 172.76 128.603 172.2 128.846C171.649 129.079 171.042 129.196 170.38 129.196ZM178.33 117.646C179.002 117.646 179.594 117.777 180.108 118.038C180.63 118.29 181.041 118.64 181.34 119.088C181.648 119.527 181.802 120.035 181.802 120.614C181.802 121.193 181.648 121.706 181.34 122.154C181.041 122.593 180.63 122.938 180.108 123.19C179.594 123.442 179.002 123.568 178.33 123.568C177.676 123.568 177.088 123.442 176.566 123.19C176.043 122.938 175.628 122.593 175.32 122.154C175.021 121.706 174.872 121.193 174.872 120.614C174.872 120.035 175.021 119.522 175.32 119.074C175.628 118.626 176.043 118.276 176.566 118.024C177.088 117.772 177.676 117.646 178.33 117.646ZM178.344 119.158C178.026 119.158 177.742 119.219 177.49 119.34C177.238 119.452 177.037 119.615 176.888 119.83C176.748 120.045 176.678 120.306 176.678 120.614C176.678 120.922 176.748 121.188 176.888 121.412C177.037 121.627 177.233 121.79 177.476 121.902C177.728 122.014 178.017 122.07 178.344 122.07C178.661 122.07 178.941 122.014 179.184 121.902C179.436 121.79 179.632 121.627 179.772 121.412C179.921 121.188 179.996 120.922 179.996 120.614C179.996 120.306 179.921 120.045 179.772 119.83C179.632 119.615 179.436 119.452 179.184 119.34C178.932 119.219 178.652 119.158 178.344 119.158ZM183.594 117.282H185.456V123.764H183.594V117.282ZM176.818 124.296H185.456V127.838H178.666V129.42H176.832V126.494H183.608V125.724H176.818V124.296ZM176.832 128.65H185.778V130.106H176.832V128.65Z" fill="#517E95"/>
<path d="M159.616 150V149.062C160.633 148.157 161.483 147.331 162.164 146.584C162.845 145.828 163.354 145.128 163.69 144.484C164.035 143.84 164.208 143.238 164.208 142.678C164.208 142.305 164.143 141.978 164.012 141.698C163.891 141.409 163.699 141.189 163.438 141.04C163.186 140.881 162.864 140.802 162.472 140.802C162.071 140.802 161.702 140.914 161.366 141.138C161.03 141.353 160.722 141.619 160.442 141.936L159.532 141.04C159.971 140.555 160.433 140.177 160.918 139.906C161.413 139.635 162.001 139.5 162.682 139.5C163.307 139.5 163.853 139.631 164.32 139.892C164.787 140.144 165.146 140.503 165.398 140.97C165.659 141.427 165.79 141.969 165.79 142.594C165.79 143.257 165.627 143.929 165.3 144.61C164.973 145.282 164.525 145.963 163.956 146.654C163.387 147.335 162.738 148.026 162.01 148.726C162.281 148.698 162.565 148.675 162.864 148.656C163.172 148.628 163.447 148.614 163.69 148.614H166.28V150H159.616ZM166.9 150V149.062C167.918 148.157 168.767 147.331 169.448 146.584C170.13 145.828 170.638 145.128 170.974 144.484C171.32 143.84 171.492 143.238 171.492 142.678C171.492 142.305 171.427 141.978 171.296 141.698C171.175 141.409 170.984 141.189 170.722 141.04C170.47 140.881 170.148 140.802 169.756 140.802C169.355 140.802 168.986 140.914 168.65 141.138C168.314 141.353 168.006 141.619 167.726 141.936L166.816 141.04C167.255 140.555 167.717 140.177 168.202 139.906C168.697 139.635 169.285 139.5 169.966 139.5C170.592 139.5 171.138 139.631 171.604 139.892C172.071 140.144 172.43 140.503 172.682 140.97C172.944 141.427 173.074 141.969 173.074 142.594C173.074 143.257 172.911 143.929 172.584 144.61C172.258 145.282 171.81 145.963 171.24 146.654C170.671 147.335 170.022 148.026 169.294 148.726C169.565 148.698 169.85 148.675 170.148 148.656C170.456 148.628 170.732 148.614 170.974 148.614H173.564V150H166.9ZM176.481 146.01C176.005 146.01 175.585 145.884 175.221 145.632C174.857 145.371 174.572 144.997 174.367 144.512C174.171 144.017 174.073 143.425 174.073 142.734C174.073 142.043 174.171 141.46 174.367 140.984C174.572 140.499 174.857 140.13 175.221 139.878C175.585 139.626 176.005 139.5 176.481 139.5C176.966 139.5 177.391 139.626 177.755 139.878C178.119 140.13 178.399 140.499 178.595 140.984C178.8 141.46 178.903 142.043 178.903 142.734C178.903 143.425 178.8 144.017 178.595 144.512C178.399 144.997 178.119 145.371 177.755 145.632C177.391 145.884 176.966 146.01 176.481 146.01ZM176.481 145.072C176.845 145.072 177.139 144.881 177.363 144.498C177.596 144.115 177.713 143.527 177.713 142.734C177.713 141.941 177.596 141.362 177.363 140.998C177.139 140.634 176.845 140.452 176.481 140.452C176.126 140.452 175.832 140.634 175.599 140.998C175.365 141.362 175.249 141.941 175.249 142.734C175.249 143.527 175.365 144.115 175.599 144.498C175.832 144.881 176.126 145.072 176.481 145.072ZM176.803 150.196L182.445 139.5H183.467L177.825 150.196H176.803ZM183.803 150.196C183.327 150.196 182.907 150.065 182.543 149.804C182.179 149.543 181.894 149.169 181.689 148.684C181.493 148.199 181.395 147.611 181.395 146.92C181.395 146.22 181.493 145.632 181.689 145.156C181.894 144.68 182.179 144.316 182.543 144.064C182.907 143.803 183.327 143.672 183.803 143.672C184.279 143.672 184.699 143.803 185.063 144.064C185.427 144.316 185.707 144.68 185.903 145.156C186.108 145.632 186.211 146.22 186.211 146.92C186.211 147.611 186.108 148.199 185.903 148.684C185.707 149.169 185.427 149.543 185.063 149.804C184.699 150.065 184.279 150.196 183.803 150.196ZM183.803 149.23C184.157 149.23 184.451 149.043 184.685 148.67C184.927 148.297 185.049 147.713 185.049 146.92C185.049 146.117 184.927 145.534 184.685 145.17C184.451 144.806 184.157 144.624 183.803 144.624C183.448 144.624 183.154 144.806 182.921 145.17C182.687 145.534 182.571 146.117 182.571 146.92C182.571 147.713 182.687 148.297 182.921 148.67C183.154 149.043 183.448 149.23 183.803 149.23Z" fill="white"/>
    </g>
</g>
</g>
<defs>
<filter id="filter0_d_1333_2764" x="10.3547" y="127.3" width="93.4479" height="51.6266" filterUnits="userSpaceOnUse" color-interpolation-filters="sRGB">
<feFlood flood-opacity="0" result="BackgroundImageFix"/>
<feColorMatrix in="SourceAlpha" type="matrix" values="0 0 0 0 0 0 0 0 0 0 0 0 0 0 0 0 0 0 127 0" result="hardAlpha"/>
<feOffset/>
<feGaussianBlur stdDeviation="0.85"/>
<feColorMatrix type="matrix" values="0 0 0 0 0.137255 0 0 0 0 0.0941176 0 0 0 0 0.0823529 0 0 0 0.35 0"/>
<feBlend mode="normal" in2="BackgroundImageFix" result="effect1_dropShadow_1333_2764"/>
<feBlend mode="normal" in="SourceGraphic" in2="effect1_dropShadow_1333_2764" result="shape"/>
</filter>
<filter id="filter1_d_1333_2764" x="239.393" y="226.3" width="93.4479" height="51.6266" filterUnits="userSpaceOnUse" color-interpolation-filters="sRGB">
<feFlood flood-opacity="0" result="BackgroundImageFix"/>
<feColorMatrix in="SourceAlpha" type="matrix" values="0 0 0 0 0 0 0 0 0 0 0 0 0 0 0 0 0 0 127 0" result="hardAlpha"/>
<feOffset/>
<feGaussianBlur stdDeviation="0.85"/>
<feColorMatrix type="matrix" values="0 0 0 0 0.137255 0 0 0 0 0.0941176 0 0 0 0 0.0823529 0 0 0 0.35 0"/>
<feBlend mode="normal" in2="BackgroundImageFix" result="effect1_dropShadow_1333_2764"/>
<feBlend mode="normal" in="SourceGraphic" in2="effect1_dropShadow_1333_2764" result="shape"/>
</filter>
<filter id="filter2_d_1333_2764" x="353.241" y="141.3" width="93.4479" height="51.6266" filterUnits="userSpaceOnUse" color-interpolation-filters="sRGB">
<feFlood flood-opacity="0" result="BackgroundImageFix"/>
<feColorMatrix in="SourceAlpha" type="matrix" values="0 0 0 0 0 0 0 0 0 0 0 0 0 0 0 0 0 0 127 0" result="hardAlpha"/>
<feOffset/>
<feGaussianBlur stdDeviation="0.85"/>
<feColorMatrix type="matrix" values="0 0 0 0 0.137255 0 0 0 0 0.0941176 0 0 0 0 0.0823529 0 0 0 0.35 0"/>
<feBlend mode="normal" in2="BackgroundImageFix" result="effect1_dropShadow_1333_2764"/>
<feBlend mode="normal" in="SourceGraphic" in2="effect1_dropShadow_1333_2764" result="shape"/>
</filter>
<filter id="filter3_d_1333_2764" x="582.279" y="198.3" width="93.4479" height="51.6266" filterUnits="userSpaceOnUse" color-interpolation-filters="sRGB">
<feFlood flood-opacity="0" result="BackgroundImageFix"/>
<feColorMatrix in="SourceAlpha" type="matrix" values="0 0 0 0 0 0 0 0 0 0 0 0 0 0 0 0 0 0 127 0" result="hardAlpha"/>
<feOffset/>
<feGaussianBlur stdDeviation="0.85"/>
<feColorMatrix type="matrix" values="0 0 0 0 0.137255 0 0 0 0 0.0941176 0 0 0 0 0.0823529 0 0 0 0.35 0"/>
<feBlend mode="normal" in2="BackgroundImageFix" result="effect1_dropShadow_1333_2764"/>
<feBlend mode="normal" in="SourceGraphic" in2="effect1_dropShadow_1333_2764" result="shape"/>
</filter>
<filter id="filter4_d_1333_2764" x="697.468" y="254.3" width="93.4479" height="51.6266" filterUnits="userSpaceOnUse" color-interpolation-filters="sRGB">
<feFlood flood-opacity="0" result="BackgroundImageFix"/>
<feColorMatrix in="SourceAlpha" type="matrix" values="0 0 0 0 0 0 0 0 0 0 0 0 0 0 0 0 0 0 127 0" result="hardAlpha"/>
<feOffset/>
<feGaussianBlur stdDeviation="0.85"/>
<feColorMatrix type="matrix" values="0 0 0 0 0.137255 0 0 0 0 0.0941176 0 0 0 0 0.0823529 0 0 0 0.35 0"/>
<feBlend mode="normal" in2="BackgroundImageFix" result="effect1_dropShadow_1333_2764"/>
<feBlend mode="normal" in="SourceGraphic" in2="effect1_dropShadow_1333_2764" result="shape"/>
</filter>
<filter id="filter5_d_1333_2764" x="925.166" y="244.3" width="93.4479" height="51.6266" filterUnits="userSpaceOnUse" color-interpolation-filters="sRGB">
<feFlood flood-opacity="0" result="BackgroundImageFix"/>
<feColorMatrix in="SourceAlpha" type="matrix" values="0 0 0 0 0 0 0 0 0 0 0 0 0 0 0 0 0 0 127 0" result="hardAlpha"/>
<feOffset/>
<feGaussianBlur stdDeviation="0.85"/>
<feColorMatrix type="matrix" values="0 0 0 0 0.137255 0 0 0 0 0.0941176 0 0 0 0 0.0823529 0 0 0 0.35 0"/>
<feBlend mode="normal" in2="BackgroundImageFix" result="effect1_dropShadow_1333_2764"/>
<feBlend mode="normal" in="SourceGraphic" in2="effect1_dropShadow_1333_2764" result="shape"/>
</filter>
<filter id="filter6_d_1333_2764" x="468.43" y="64.3" width="93.4479" height="51.6266" filterUnits="userSpaceOnUse" color-interpolation-filters="sRGB">
<feFlood flood-opacity="0" result="BackgroundImageFix"/>
<feColorMatrix in="SourceAlpha" type="matrix" values="0 0 0 0 0 0 0 0 0 0 0 0 0 0 0 0 0 0 127 0" result="hardAlpha"/>
<feOffset/>
<feGaussianBlur stdDeviation="0.85"/>
<feColorMatrix type="matrix" values="0 0 0 0 0.137255 0 0 0 0 0.0941176 0 0 0 0 0.0823529 0 0 0 0.35 0"/>
<feBlend mode="normal" in2="BackgroundImageFix" result="effect1_dropShadow_1333_2764"/>
<feBlend mode="normal" in="SourceGraphic" in2="effect1_dropShadow_1333_2764" result="shape"/>
</filter>
<filter id="filter7_d_1333_2764" x="125.543" y="108.3" width="93.4479" height="51.6266" filterUnits="userSpaceOnUse" color-interpolation-filters="sRGB">
<feFlood flood-opacity="0" result="BackgroundImageFix"/>
<feColorMatrix in="SourceAlpha" type="matrix" values="0 0 0 0 0 0 0 0 0 0 0 0 0 0 0 0 0 0 127 0" result="hardAlpha"/>
<feOffset/>
<feGaussianBlur stdDeviation="0.85"/>
<feColorMatrix type="matrix" values="0 0 0 0 0.137255 0 0 0 0 0.0941176 0 0 0 0 0.0823529 0 0 0 0.35 0"/>
<feBlend mode="normal" in2="BackgroundImageFix" result="effect1_dropShadow_1333_2764"/>
<feBlend mode="normal" in="SourceGraphic" in2="effect1_dropShadow_1333_2764" result="shape"/>
</filter>
<clipPath id="clipChart">
  <rect x="0" y="0" width="1030" height="328"/>
</clipPath>
</defs>
</svg>
