<svg width="563" height="280" viewBox="0 0 563 280" fill="none" xmlns="http://www.w3.org/2000/svg">
  <defs>
    <style>
      .marker {
        opacity: 0;
        animation: marker-appear 0.6s ease-in forwards, marker-blink 1.8s ease-in-out infinite;
      }
      .marker-01 {
        animation-delay: 0s, 0.6s;
      }
      .marker-02 {
        animation-delay: 0.3s, 0.9s;
      }
      .marker-03 {
        animation-delay: 0.6s, 1.2s;
      }
      .marker-04 {
        animation-delay: 0.9s, 1.5s;
      }
      .marker-05 {
        animation-delay: 1.2s, 1.8s;
      }
      @keyframes marker-appear {
        0% {
          opacity: 0;
          transform: scale(0.5);
        }
        100% {
          opacity: 1;
          transform: scale(1);
        }
      }
      @keyframes marker-blink {
        0%, 100% {
          opacity: 1;
        }
        50% {
          opacity: 0.35;
        }
      }
    </style>
  </defs>
  <g class="marker marker-01">
    <path d="M549 1.5C555.904 1.5 561.5 7.09624 561.5 14C561.5 20.9038 555.904 26.5 549 26.5C542.096 26.5 536.5 20.9038 536.5 14C536.5 7.09624 542.096 1.5 549 1.5Z" stroke="#FF1919"/>
    <path d="M548.999 7.41406C550.76 7.41406 552.451 8.10469 553.708 9.33789C554.887 10.4943 555.596 12.0413 555.708 13.6807L555.723 14.0098C555.734 14.899 555.568 15.7814 555.236 16.6064C554.904 17.4324 554.411 18.1846 553.786 18.8184C553.161 19.4522 552.415 19.9553 551.594 20.2988C550.772 20.6423 549.89 20.8193 549 20.8193C548.11 20.8193 547.228 20.6423 546.406 20.2988C545.585 19.9553 544.84 19.4521 544.215 18.8184C543.589 18.1845 543.096 17.4325 542.764 16.6064C542.432 15.7815 542.267 14.8989 542.278 14.0098C542.312 12.2492 543.034 10.5712 544.291 9.33789C545.548 8.10481 547.238 7.41419 548.999 7.41406Z" stroke="#FF1919"/>
    <path d="M562 14C562 21.1799 556.18 27 549 27C541.82 27 536 21.1799 536 14C536 6.8201 541.82 1 549 1C556.18 1 562 6.8201 562 14Z" stroke="#FF1919" stroke-width="2" stroke-linecap="square"/>
    <path d="M556.223 14.003C556.223 15.9184 555.461 17.7552 554.107 19.1095C552.752 20.4637 550.915 21.2245 549 21.2245M556.223 14.003C556.223 13.0545 556.036 12.1153 555.673 11.239C555.31 10.3627 554.778 9.56645 554.107 8.89575C553.437 8.22505 552.64 7.69302 551.764 7.33004C550.888 6.96706 549.949 6.78024 549 6.78024M556.223 14.003H557.666M549 21.2245C547.085 21.2242 545.248 20.4632 543.894 19.109C542.54 17.7548 541.779 15.9182 541.779 14.003M549 21.2245V22.6688M549 6.78024C547.085 6.78058 545.248 7.54171 543.894 8.89621C542.539 10.2507 541.779 12.0877 541.779 14.003M549 6.78024V5.33594M541.779 14.003H540.333M550.444 14.003C550.444 14.1927 550.407 14.3805 550.334 14.5557C550.262 14.731 550.155 14.8902 550.021 15.0243C549.887 15.1584 549.728 15.2648 549.553 15.3374C549.378 15.41 549.19 15.4473 549 15.4473C548.81 15.4473 548.623 15.41 548.447 15.3374C548.272 15.2648 548.113 15.1584 547.979 15.0243C547.845 14.8902 547.738 14.731 547.666 14.5557C547.593 14.3805 547.556 14.1927 547.556 14.003C547.556 13.62 547.708 13.2526 547.979 12.9818C548.25 12.7109 548.617 12.5587 549 12.5587C549.383 12.5587 549.751 12.7109 550.021 12.9818C550.292 13.2526 550.444 13.62 550.444 14.003Z" stroke="#FF1919" stroke-width="2" stroke-linecap="square"/>
  </g>
  <g class="marker marker-02">
    <path d="M300 112.5C306.904 112.5 312.5 118.096 312.5 125C312.5 131.904 306.904 137.5 300 137.5C293.096 137.5 287.5 131.904 287.5 125C287.5 118.096 293.096 112.5 300 112.5Z" stroke="#FF1919"/>
    <path d="M299.999 118.414C301.76 118.414 303.451 119.105 304.708 120.338C305.887 121.494 306.596 123.041 306.708 124.681L306.723 125.01C306.734 125.899 306.568 126.781 306.236 127.606C305.904 128.432 305.411 129.185 304.786 129.818C304.161 130.452 303.415 130.955 302.594 131.299C301.772 131.642 300.89 131.819 300 131.819C299.11 131.819 298.228 131.642 297.406 131.299C296.585 130.955 295.84 130.452 295.215 129.818C294.589 129.185 294.096 128.432 293.764 127.606C293.432 126.781 293.267 125.899 293.278 125.01C293.312 123.249 294.034 121.571 295.291 120.338C296.548 119.105 298.238 118.414 299.999 118.414Z" stroke="#FF1919"/>
    <path d="M313 125C313 132.18 307.18 138 300 138C292.82 138 287 132.18 287 125C287 117.82 292.82 112 300 112C307.18 112 313 117.82 313 125Z" stroke="#FF1919" stroke-width="2" stroke-linecap="square"/>
    <path d="M307.223 125.003C307.223 126.918 306.461 128.755 305.107 130.109C303.752 131.464 301.915 132.225 300 132.225M307.223 125.003C307.223 124.055 307.036 123.115 306.673 122.239C306.31 121.363 305.778 120.566 305.107 119.896C304.437 119.225 303.64 118.693 302.764 118.33C301.888 117.967 300.949 117.78 300 117.78M307.223 125.003H308.666M300 132.225C298.085 132.224 296.248 131.463 294.894 130.109C293.54 128.755 292.779 126.918 292.779 125.003M300 132.225V133.669M300 117.78C298.085 117.781 296.248 118.542 294.894 119.896C293.539 121.251 292.779 123.088 292.779 125.003M300 117.78V116.336M292.779 125.003H291.333M301.444 125.003C301.444 125.193 301.407 125.381 301.334 125.556C301.262 125.731 301.155 125.89 301.021 126.024C300.887 126.158 300.728 126.265 300.553 126.337C300.378 126.41 300.19 126.447 300 126.447C299.81 126.447 299.623 126.41 299.447 126.337C299.272 126.265 299.113 126.158 298.979 126.024C298.845 125.89 298.738 125.731 298.666 125.556C298.593 125.381 298.556 125.193 298.556 125.003C298.556 124.62 298.708 124.253 298.979 123.982C299.25 123.711 299.617 123.559 300 123.559C300.383 123.559 300.751 123.711 301.021 123.982C301.292 124.253 301.444 124.62 301.444 125.003Z" stroke="#FF1919" stroke-width="2" stroke-linecap="square"/>
  </g>
  <g class="marker marker-03">
    <path d="M125 159.5C131.904 159.5 137.5 165.096 137.5 172C137.5 178.904 131.904 184.5 125 184.5C118.096 184.5 112.5 178.904 112.5 172C112.5 165.096 118.096 159.5 125 159.5Z" stroke="#FF1919"/>
    <path d="M124.999 165.414C126.76 165.414 128.451 166.105 129.708 167.338C130.887 168.494 131.596 170.041 131.708 171.681L131.723 172.01C131.734 172.899 131.568 173.781 131.236 174.606C130.904 175.432 130.411 176.185 129.786 176.818C129.161 177.452 128.415 177.955 127.594 178.299C126.772 178.642 125.89 178.819 125 178.819C124.11 178.819 123.228 178.642 122.406 178.299C121.585 177.955 120.84 177.452 120.215 176.818C119.589 176.185 119.096 175.432 118.764 174.606C118.432 173.781 118.267 172.899 118.278 172.01C118.312 170.249 119.034 168.571 120.291 167.338C121.548 166.105 123.238 165.414 124.999 165.414Z" stroke="#FF1919"/>
    <path d="M138 172C138 179.18 132.18 185 125 185C117.82 185 112 179.18 112 172C112 164.82 117.82 159 125 159C132.18 159 138 164.82 138 172Z" stroke="#FF1919" stroke-width="2" stroke-linecap="square"/>
    <path d="M132.223 172.003C132.223 173.918 131.461 175.755 130.107 177.109C128.752 178.464 126.915 179.225 125 179.225M132.223 172.003C132.223 171.055 132.036 170.115 131.673 169.239C131.31 168.363 130.778 167.566 130.107 166.896C129.437 166.225 128.64 165.693 127.764 165.33C126.888 164.967 125.949 164.78 125 164.78M132.223 172.003H133.666M125 179.225C123.085 179.224 121.248 178.463 119.894 177.109C118.54 175.755 117.779 173.918 117.779 172.003M125 179.225V180.669M125 164.78C123.085 164.781 121.248 165.542 119.894 166.896C118.539 168.251 117.779 170.088 117.779 172.003M125 164.78V163.336M117.779 172.003H116.333M126.444 172.003C126.444 172.193 126.407 172.381 126.334 172.556C126.262 172.731 126.155 172.89 126.021 173.024C125.887 173.158 125.728 173.265 125.553 173.337C125.378 173.41 125.19 173.447 125 173.447C124.81 173.447 124.623 173.41 124.447 173.337C124.272 173.265 124.113 173.158 123.979 173.024C123.845 172.89 123.738 172.731 123.666 172.556C123.593 172.381 123.556 172.193 123.556 172.003C123.556 171.62 123.708 171.253 123.979 170.982C124.25 170.711 124.617 170.559 125 170.559C125.383 170.559 125.751 170.711 126.021 170.982C126.292 171.253 126.444 171.62 126.444 172.003Z" stroke="#FF1919" stroke-width="2" stroke-linecap="square"/>
  </g>
  <g class="marker marker-04">
    <path d="M172 231.5C178.904 231.5 184.5 237.096 184.5 244C184.5 250.904 178.904 256.5 172 256.5C165.096 256.5 159.5 250.904 159.5 244C159.5 237.096 165.096 231.5 172 231.5Z" stroke="#FF1919"/>
    <path d="M171.999 237.414C173.76 237.414 175.451 238.105 176.708 239.338C177.887 240.494 178.596 242.041 178.708 243.681L178.723 244.01C178.734 244.899 178.568 245.781 178.236 246.606C177.904 247.432 177.411 248.185 176.786 248.818C176.161 249.452 175.415 249.955 174.594 250.299C173.772 250.642 172.89 250.819 172 250.819C171.11 250.819 170.228 250.642 169.406 250.299C168.585 249.955 167.84 249.452 167.215 248.818C166.589 248.185 166.096 247.432 165.764 246.606C165.432 245.781 165.267 244.899 165.278 244.01C165.312 242.249 166.034 240.571 167.291 239.338C168.548 238.105 170.238 237.414 171.999 237.414Z" stroke="#FF1919"/>
    <path d="M185 244C185 251.18 179.18 257 172 257C164.82 257 159 251.18 159 244C159 236.82 164.82 231 172 231C179.18 231 185 236.82 185 244Z" stroke="#FF1919" stroke-width="2" stroke-linecap="square"/>
    <path d="M179.223 244.003C179.223 245.918 178.461 247.755 177.107 249.109C175.752 250.464 173.915 251.225 172 251.225M179.223 244.003C179.223 243.055 179.036 242.115 178.673 241.239C178.31 240.363 177.778 239.566 177.107 238.896C176.437 238.225 175.64 237.693 174.764 237.33C173.888 236.967 172.949 236.78 172 236.78M179.223 244.003H180.666M172 251.225C170.085 251.224 168.248 250.463 166.894 249.109C165.54 247.755 164.779 245.918 164.779 244.003M172 251.225V252.669M172 236.78C170.085 236.781 168.248 237.542 166.894 238.896C165.539 240.251 164.779 242.088 164.779 244.003M172 236.78V235.336M164.779 244.003H163.333M173.444 244.003C173.444 244.193 173.407 244.381 173.334 244.556C173.262 244.731 173.155 244.89 173.021 245.024C172.887 245.158 172.728 245.265 172.553 245.337C172.378 245.41 172.19 245.447 172 245.447C171.81 245.447 171.623 245.41 171.447 245.337C171.272 245.265 171.113 245.158 170.979 245.024C170.845 244.89 170.738 244.731 170.666 244.556C170.593 244.381 170.556 244.193 170.556 244.003C170.556 243.62 170.708 243.253 170.979 242.982C171.25 242.711 171.617 242.559 172 242.559C172.383 242.559 172.751 242.711 173.021 242.982C173.292 243.253 173.444 243.62 173.444 244.003Z" stroke="#FF1919" stroke-width="2" stroke-linecap="square"/>
  </g>
  <g class="marker marker-05">
    <path d="M14 253.5C20.9038 253.5 26.5 259.096 26.5 266C26.5 272.904 20.9038 278.5 14 278.5C7.09624 278.5 1.5 272.904 1.5 266C1.5 259.096 7.09624 253.5 14 253.5Z" stroke="#FF1919"/>
    <path d="M13.999 259.414C15.7599 259.414 17.4511 260.105 18.708 261.338C19.8866 262.494 20.5964 264.041 20.708 265.681L20.7227 266.01C20.7342 266.899 20.5683 267.781 20.2363 268.606C19.9039 269.432 19.4114 270.185 18.7861 270.818C18.1608 271.452 17.4152 271.955 16.5938 272.299C15.7722 272.642 14.8904 272.819 14 272.819C13.1096 272.819 12.2277 272.642 11.4062 272.299C10.5849 271.955 9.84012 271.452 9.21484 270.818C8.58945 270.185 8.09613 269.432 7.76367 268.606C7.43168 267.781 7.26682 266.899 7.27832 266.01C7.31173 264.249 8.03411 262.571 9.29102 261.338C10.5478 260.105 12.2384 259.414 13.999 259.414Z" stroke="#FF1919"/>
    <path d="M27 266C27 273.18 21.1799 279 14 279C6.8201 279 1 273.18 1 266C1 258.82 6.8201 253 14 253C21.1799 253 27 258.82 27 266Z" stroke="#FF1919" stroke-width="2" stroke-linecap="square"/>
    <path d="M21.2229 266.003C21.2226 267.918 20.4614 269.755 19.1069 271.109C17.7524 272.464 15.9155 273.225 14.0001 273.225M21.2229 266.003C21.2229 265.055 21.0361 264.115 20.6731 263.239C20.3101 262.363 19.7781 261.566 19.1074 260.896C18.4367 260.225 17.6405 259.693 16.7642 259.33C15.8878 258.967 14.9486 258.78 14.0001 258.78M21.2229 266.003H22.6659M14.0001 273.225C12.085 273.224 10.2483 272.463 8.89412 271.109C7.5399 269.755 6.77895 267.918 6.77861 266.003M14.0001 273.225V274.669M14.0001 258.78C12.0847 258.781 10.2479 259.542 8.89366 260.896C7.5394 262.251 6.77861 264.088 6.77861 266.003M14.0001 258.78V257.336M6.77861 266.003H5.33301M15.4444 266.003C15.4444 266.193 15.4071 266.381 15.3345 266.556C15.2619 266.731 15.1555 266.89 15.0214 267.024C14.8873 267.158 14.728 267.265 14.5528 267.337C14.3776 267.41 14.1898 267.447 14.0001 267.447C13.8104 267.447 13.6226 267.41 13.4474 267.337C13.2722 267.265 13.1129 267.158 12.9788 267.024C12.8447 266.89 12.7383 266.731 12.6657 266.556C12.5932 266.381 12.5558 266.193 12.5558 266.003C12.5558 265.62 12.708 265.253 12.9788 264.982C13.2497 264.711 13.6171 264.559 14.0001 264.559C14.3832 264.559 14.7505 264.711 15.0214 264.982C15.2922 265.253 15.4444 265.62 15.4444 266.003Z" stroke="#FF1919" stroke-width="2" stroke-linecap="square"/>
  </g>
</svg>
