<svg width="1030" height="357" viewBox="0 0 1030 357" fill="none" xmlns="http://www.w3.org/2000/svg">
<defs>
  <style>
    .line {
      stroke-dasharray: 1;
      stroke-dashoffset: 1;
      animation: spatial01LineDraw 2s ease-in-out 1 forwards;
    }
    .text-label {
      opacity: 0;
      animation: spatial01TextFadeIn 2.5s ease-in-out 1 forwards;
    }
    @keyframes spatial01LineDraw {
      0% { stroke-dashoffset: 1; }
      100% { stroke-dashoffset: 0; }
    }
    @keyframes spatial01TextFadeIn {
      0%, 80% { opacity: 0; }
      100% { opacity: 1; }
    }
  </style>
</defs>
<path class="line" pathLength="1" d="M75.4141 86.1583H78.2393L82.9481 90.6906L98.0163 93.2086L111.201 101.77H120.618L150.755 110.835L154.522 112.345H164.881L179.007 107.813L216.678 121.914L233.629 122.921L248.698 134H272.242L292.96 127.957L304.261 122.921H380.544C382.427 122.417 388.078 121.712 395.612 122.921H480.37C485.707 123.76 499.394 124.935 511.448 122.921H567.954L571.721 121.914L809.044 82.6331L830.704 79.1079L858.015 75.5827L888.151 70.5468L932.414 64" stroke="#8BCDFF" stroke-linecap="round"/>
<path class="line" pathLength="1" d="M73.4141 266.5V265.5L75.2896 263.5L79.0407 262H80.9162H84.6673L91.2317 265.5V266.5L94.045 271.5H98.7338V274.5L103.423 276.5L107.174 278.5L114.676 280.5L117.489 281.5L121.24 286L127.805 283.5H131.556H136.245H139.058H146.56L148.436 282.5L155 285L156.875 286L160.627 282.5L175.631 291.5L185.008 296.5V302.5L198.137 308.5L210.328 312H222.519H239.399H254.403L287.225 307C290.664 306.333 297.916 305 299.416 305C300.917 305 306.918 305 309.732 305L323.798 293.5L329.425 295L342.554 289.5L354.745 283.5H403.508L415.699 295H480.405L500.099 283.5H520.73L543.236 273.5L570.431 275H581.684L598.564 283.5L601.378 280L605.129 273.5L618.257 264C619.508 262.833 622.946 261.2 626.697 264L633.262 273.5H643.577L655.768 276.5L698.905 283.5H714.848L718.599 293.5L729.852 305H744.856L761.736 295H767.363L772.989 290C776.428 288.833 786.868 286.2 801.122 285C815.376 283.8 813.313 283.5 810.5 283.5H836.757C841.759 281.167 851.762 276.2 851.762 275C851.762 273.5 860.202 276.5 864.89 273.5C869.892 274.167 880.833 275.1 884.584 273.5H947.414" stroke="#8BCDFF"/>
<g class="text-label">
<path  d="M261.489 139.906H261.987V141.088H261.489V139.906ZM261.483 137.998H261.885V138.124C261.885 138.44 261.821 138.73 261.693 138.994C261.565 139.254 261.387 139.478 261.159 139.666C260.931 139.85 260.665 139.99 260.361 140.086L260.127 139.702C260.395 139.618 260.631 139.5 260.835 139.348C261.039 139.192 261.197 139.01 261.309 138.802C261.425 138.59 261.483 138.364 261.483 138.124V137.998ZM261.579 137.998H261.987V138.124C261.987 138.356 262.045 138.574 262.161 138.778C262.277 138.978 262.437 139.154 262.641 139.306C262.849 139.454 263.087 139.566 263.355 139.642L263.127 140.032C262.823 139.94 262.555 139.802 262.323 139.618C262.091 139.434 261.909 139.216 261.777 138.964C261.645 138.708 261.579 138.428 261.579 138.124V137.998ZM260.259 137.746H263.235V138.154H260.259V137.746ZM261.489 137.08H261.987V137.926H261.489V137.08ZM263.859 137.038H264.357V142.474H263.859V137.038ZM260.031 141.352L259.965 140.938C260.293 140.938 260.655 140.936 261.051 140.932C261.451 140.924 261.861 140.908 262.281 140.884C262.705 140.856 263.113 140.81 263.505 140.746L263.547 141.118C263.139 141.194 262.725 141.248 262.305 141.28C261.889 141.312 261.487 141.332 261.099 141.34C260.711 141.348 260.355 141.352 260.031 141.352ZM269.42 137.038H269.918V142.474H269.42V137.038ZM268.256 139.012H269.564V139.42H268.256V139.012ZM266.828 137.812H267.23V138.628C267.23 138.92 267.19 139.208 267.11 139.492C267.034 139.772 266.926 140.036 266.786 140.284C266.65 140.532 266.488 140.752 266.3 140.944C266.116 141.136 265.918 141.288 265.706 141.4L265.406 141.004C265.602 140.908 265.786 140.776 265.958 140.608C266.13 140.44 266.28 140.25 266.408 140.038C266.54 139.822 266.642 139.594 266.714 139.354C266.79 139.11 266.828 138.868 266.828 138.628V137.812ZM266.936 137.812H267.332V138.628C267.332 138.852 267.368 139.08 267.44 139.312C267.512 139.54 267.612 139.756 267.74 139.96C267.872 140.164 268.024 140.348 268.196 140.512C268.368 140.672 268.552 140.798 268.748 140.89L268.454 141.286C268.238 141.178 268.038 141.032 267.854 140.848C267.67 140.664 267.508 140.454 267.368 140.218C267.232 139.978 267.126 139.722 267.05 139.45C266.974 139.178 266.936 138.904 266.936 138.628V137.812ZM265.61 137.596H268.556V138.004H265.61V137.596ZM273.866 138.394H275.072V138.808H273.866V138.394ZM274.94 137.038H275.438V140.212H274.94V137.038ZM271.916 140.482H275.438V142.396H271.916V140.482ZM274.952 140.878H272.408V141.988H274.952V140.878ZM272.354 137.554H272.762V137.992C272.762 138.32 272.698 138.63 272.57 138.922C272.446 139.21 272.27 139.462 272.042 139.678C271.814 139.89 271.55 140.052 271.25 140.164L270.992 139.768C271.192 139.696 271.374 139.6 271.538 139.48C271.706 139.36 271.852 139.222 271.976 139.066C272.1 138.906 272.194 138.736 272.258 138.556C272.322 138.372 272.354 138.184 272.354 137.992V137.554ZM272.45 137.554H272.858V137.992C272.858 138.224 272.912 138.45 273.02 138.67C273.128 138.886 273.282 139.08 273.482 139.252C273.682 139.42 273.912 139.552 274.172 139.648L273.92 140.044C273.624 139.936 273.366 139.78 273.146 139.576C272.926 139.368 272.754 139.128 272.63 138.856C272.51 138.58 272.45 138.292 272.45 137.992V137.554ZM271.148 137.386H274.046V137.794H271.148V137.386ZM260.888 149.078C260.66 149.078 260.458 149.05 260.282 148.994C260.11 148.938 259.958 148.864 259.826 148.772C259.694 148.68 259.58 148.58 259.484 148.472L259.766 148.118C259.894 148.25 260.044 148.368 260.216 148.472C260.392 148.572 260.604 148.622 260.852 148.622C261.028 148.622 261.182 148.59 261.314 148.526C261.45 148.462 261.556 148.372 261.632 148.256C261.708 148.136 261.746 147.996 261.746 147.836C261.746 147.664 261.702 147.516 261.614 147.392C261.53 147.264 261.388 147.166 261.188 147.098C260.988 147.026 260.718 146.99 260.378 146.99V146.564C260.682 146.564 260.922 146.53 261.098 146.462C261.274 146.39 261.4 146.294 261.476 146.174C261.556 146.05 261.596 145.914 261.596 145.766C261.596 145.558 261.53 145.394 261.398 145.274C261.266 145.15 261.084 145.088 260.852 145.088C260.676 145.088 260.51 145.13 260.354 145.214C260.202 145.294 260.064 145.398 259.94 145.526L259.646 145.178C259.814 145.026 259.996 144.9 260.192 144.8C260.392 144.696 260.618 144.644 260.87 144.644C261.118 144.644 261.338 144.686 261.53 144.77C261.726 144.854 261.878 144.978 261.986 145.142C262.098 145.302 262.154 145.496 262.154 145.724C262.154 145.984 262.082 146.198 261.938 146.366C261.794 146.534 261.606 146.66 261.374 146.744V146.768C261.546 146.812 261.702 146.882 261.842 146.978C261.982 147.074 262.094 147.196 262.178 147.344C262.262 147.488 262.304 147.66 262.304 147.86C262.304 148.116 262.24 148.334 262.112 148.514C261.984 148.694 261.814 148.834 261.602 148.934C261.39 149.03 261.152 149.078 260.888 149.078ZM264.21 149.078C263.982 149.078 263.78 149.05 263.604 148.994C263.432 148.938 263.28 148.866 263.148 148.778C263.02 148.69 262.904 148.596 262.8 148.496L263.076 148.136C263.16 148.22 263.252 148.3 263.352 148.376C263.456 148.448 263.574 148.508 263.706 148.556C263.838 148.6 263.988 148.622 264.156 148.622C264.328 148.622 264.484 148.582 264.624 148.502C264.768 148.422 264.882 148.31 264.966 148.166C265.05 148.022 265.092 147.85 265.092 147.65C265.092 147.35 265.008 147.118 264.84 146.954C264.676 146.786 264.456 146.702 264.18 146.702C264.036 146.702 263.91 146.726 263.802 146.774C263.694 146.818 263.576 146.882 263.448 146.966L263.154 146.78L263.298 144.722H265.434V145.196H263.778L263.664 146.468C263.76 146.412 263.86 146.37 263.964 146.342C264.072 146.31 264.192 146.294 264.324 146.294C264.568 146.294 264.79 146.342 264.99 146.438C265.19 146.53 265.35 146.676 265.47 146.876C265.59 147.072 265.65 147.324 265.65 147.632C265.65 147.94 265.58 148.202 265.44 148.418C265.304 148.634 265.126 148.798 264.906 148.91C264.686 149.022 264.454 149.078 264.21 149.078ZM266.8 149.078C266.692 149.078 266.598 149.04 266.518 148.964C266.442 148.884 266.404 148.784 266.404 148.664C266.404 148.536 266.442 148.434 266.518 148.358C266.598 148.282 266.692 148.244 266.8 148.244C266.908 148.244 267 148.282 267.076 148.358C267.156 148.434 267.196 148.536 267.196 148.664C267.196 148.784 267.156 148.884 267.076 148.964C267 149.04 266.908 149.078 266.8 149.078ZM269.304 149.078C269.02 149.078 268.776 148.992 268.572 148.82C268.368 148.648 268.21 148.396 268.098 148.064C267.99 147.732 267.936 147.326 267.936 146.846C267.936 146.37 267.99 145.968 268.098 145.64C268.21 145.312 268.368 145.064 268.572 144.896C268.776 144.728 269.02 144.644 269.304 144.644C269.588 144.644 269.832 144.728 270.036 144.896C270.24 145.064 270.396 145.312 270.504 145.64C270.616 145.968 270.672 146.37 270.672 146.846C270.672 147.326 270.616 147.732 270.504 148.064C270.396 148.396 270.24 148.648 270.036 148.82C269.832 148.992 269.588 149.078 269.304 149.078ZM269.304 148.634C269.472 148.634 269.618 148.572 269.742 148.448C269.87 148.324 269.968 148.13 270.036 147.866C270.108 147.602 270.144 147.262 270.144 146.846C270.144 146.43 270.108 146.092 270.036 145.832C269.968 145.572 269.87 145.382 269.742 145.262C269.618 145.142 269.472 145.082 269.304 145.082C269.14 145.082 268.994 145.142 268.866 145.262C268.738 145.382 268.638 145.572 268.566 145.832C268.498 146.092 268.464 146.43 268.464 146.846C268.464 147.262 268.498 147.602 268.566 147.866C268.638 148.13 268.738 148.324 268.866 148.448C268.994 148.572 269.14 148.634 269.304 148.634ZM271.516 149V145.742H271.966L272.02 146.216H272.032C272.176 146.06 272.332 145.928 272.5 145.82C272.672 145.712 272.854 145.658 273.046 145.658C273.298 145.658 273.494 145.714 273.634 145.826C273.774 145.938 273.878 146.09 273.946 146.282C274.118 146.098 274.29 145.948 274.462 145.832C274.638 145.716 274.826 145.658 275.026 145.658C275.358 145.658 275.604 145.768 275.764 145.988C275.928 146.204 276.01 146.52 276.01 146.936V149H275.464V147.008C275.464 146.7 275.414 146.478 275.314 146.342C275.218 146.206 275.066 146.138 274.858 146.138C274.734 146.138 274.604 146.18 274.468 146.264C274.336 146.344 274.192 146.468 274.036 146.636V149H273.49V147.008C273.49 146.7 273.44 146.478 273.34 146.342C273.244 146.206 273.092 146.138 272.884 146.138C272.76 146.138 272.63 146.18 272.494 146.264C272.358 146.344 272.216 146.468 272.068 146.636V149H271.516Z" fill="#BB00D3"/>

<circle cx="253.5" cy="134" r="2" fill="#BB00D3"/>
<circle cx="946.5" cy="62" r="2" fill="#BB00D3"/>
<path d="M928.575 47.906H929.073V49.088H928.575V47.906ZM928.569 45.998H928.971V46.124C928.971 46.44 928.907 46.73 928.779 46.994C928.651 47.254 928.473 47.478 928.245 47.666C928.017 47.85 927.751 47.99 927.447 48.086L927.213 47.702C927.481 47.618 927.717 47.5 927.921 47.348C928.125 47.192 928.283 47.01 928.395 46.802C928.511 46.59 928.569 46.364 928.569 46.124V45.998ZM928.665 45.998H929.073V46.124C929.073 46.356 929.131 46.574 929.247 46.778C929.363 46.978 929.523 47.154 929.727 47.306C929.935 47.454 930.173 47.566 930.441 47.642L930.213 48.032C929.909 47.94 929.641 47.802 929.409 47.618C929.177 47.434 928.995 47.216 928.863 46.964C928.731 46.708 928.665 46.428 928.665 46.124V45.998ZM927.345 45.746H930.321V46.154H927.345V45.746ZM928.575 45.08H929.073V45.926H928.575V45.08ZM930.945 45.038H931.443V50.474H930.945V45.038ZM927.117 49.352L927.051 48.938C927.379 48.938 927.741 48.936 928.137 48.932C928.537 48.924 928.947 48.908 929.367 48.884C929.791 48.856 930.199 48.81 930.591 48.746L930.633 49.118C930.225 49.194 929.811 49.248 929.391 49.28C928.975 49.312 928.573 49.332 928.185 49.34C927.797 49.348 927.441 49.352 927.117 49.352ZM933.062 45.584H936.554V45.992H933.062V45.584ZM932.54 49.292H937.442V49.706H932.54V49.292ZM934.448 47.354H934.94V49.502H934.448V47.354ZM936.362 45.584H936.86V46.118C936.86 46.342 936.856 46.578 936.848 46.826C936.844 47.074 936.828 47.346 936.8 47.642C936.776 47.938 936.73 48.268 936.662 48.632L936.158 48.572C936.262 48.052 936.322 47.596 936.338 47.204C936.354 46.808 936.362 46.446 936.362 46.118V45.584ZM940.952 46.394H942.158V46.808H940.952V46.394ZM942.026 45.038H942.524V48.212H942.026V45.038ZM939.002 48.482H942.524V50.396H939.002V48.482ZM942.038 48.878H939.494V49.988H942.038V48.878ZM939.44 45.554H939.848V45.992C939.848 46.32 939.784 46.63 939.656 46.922C939.532 47.21 939.356 47.462 939.128 47.678C938.9 47.89 938.636 48.052 938.336 48.164L938.078 47.768C938.278 47.696 938.46 47.6 938.624 47.48C938.792 47.36 938.938 47.222 939.062 47.066C939.186 46.906 939.28 46.736 939.344 46.556C939.408 46.372 939.44 46.184 939.44 45.992V45.554ZM939.536 45.554H939.944V45.992C939.944 46.224 939.998 46.45 940.106 46.67C940.214 46.886 940.368 47.08 940.568 47.252C940.768 47.42 940.998 47.552 941.258 47.648L941.006 48.044C940.71 47.936 940.452 47.78 940.232 47.576C940.012 47.368 939.84 47.128 939.716 46.856C939.596 46.58 939.536 46.292 939.536 45.992V45.554ZM938.234 45.386H941.132V45.794H938.234V45.386ZM928.196 57.078C927.984 57.078 927.788 57.036 927.608 56.952C927.428 56.868 927.272 56.74 927.14 56.568C927.008 56.396 926.904 56.182 926.828 55.926C926.756 55.666 926.72 55.364 926.72 55.02C926.72 54.592 926.764 54.228 926.852 53.928C926.94 53.624 927.06 53.378 927.212 53.19C927.364 52.998 927.538 52.86 927.734 52.776C927.93 52.688 928.134 52.644 928.346 52.644C928.578 52.644 928.778 52.688 928.946 52.776C929.114 52.86 929.258 52.966 929.378 53.094L929.072 53.436C928.988 53.332 928.882 53.25 928.754 53.19C928.63 53.13 928.502 53.1 928.37 53.1C928.166 53.1 927.978 53.16 927.806 53.28C927.634 53.4 927.496 53.6 927.392 53.88C927.288 54.16 927.236 54.54 927.236 55.02C927.236 55.372 927.274 55.67 927.35 55.914C927.426 56.154 927.534 56.336 927.674 56.46C927.818 56.584 927.99 56.646 928.19 56.646C928.334 56.646 928.462 56.608 928.574 56.532C928.69 56.452 928.78 56.342 928.844 56.202C928.912 56.062 928.946 55.898 928.946 55.71C928.946 55.522 928.916 55.36 928.856 55.224C928.796 55.088 928.706 54.984 928.586 54.912C928.47 54.836 928.324 54.798 928.148 54.798C928.008 54.798 927.856 54.844 927.692 54.936C927.528 55.028 927.372 55.184 927.224 55.404L927.206 54.972C927.298 54.852 927.4 54.748 927.512 54.66C927.624 54.572 927.742 54.506 927.866 54.462C927.994 54.414 928.116 54.39 928.232 54.39C928.48 54.39 928.696 54.44 928.88 54.54C929.064 54.636 929.206 54.782 929.306 54.978C929.406 55.174 929.456 55.418 929.456 55.71C929.456 55.982 929.398 56.222 929.282 56.43C929.17 56.634 929.018 56.794 928.826 56.91C928.634 57.022 928.424 57.078 928.196 57.078ZM931.404 57.078C931.132 57.078 930.89 57.028 930.678 56.928C930.466 56.828 930.3 56.69 930.18 56.514C930.06 56.338 930 56.136 930 55.908C930 55.72 930.038 55.554 930.114 55.41C930.194 55.262 930.296 55.134 930.42 55.026C930.544 54.914 930.672 54.822 930.804 54.75V54.726C930.644 54.614 930.504 54.478 930.384 54.318C930.268 54.154 930.21 53.96 930.21 53.736C930.21 53.516 930.262 53.324 930.366 53.16C930.474 52.996 930.618 52.87 930.798 52.782C930.982 52.69 931.188 52.644 931.416 52.644C931.668 52.644 931.884 52.692 932.064 52.788C932.244 52.884 932.382 53.018 932.478 53.19C932.574 53.362 932.622 53.558 932.622 53.778C932.622 53.93 932.59 54.072 932.526 54.204C932.466 54.336 932.39 54.454 932.298 54.558C932.21 54.658 932.124 54.742 932.04 54.81V54.834C932.164 54.91 932.282 54.998 932.394 55.098C932.51 55.194 932.602 55.31 932.67 55.446C932.742 55.582 932.778 55.748 932.778 55.944C932.778 56.152 932.72 56.344 932.604 56.52C932.492 56.692 932.332 56.828 932.124 56.928C931.92 57.028 931.68 57.078 931.404 57.078ZM931.704 54.672C931.848 54.54 931.958 54.404 932.034 54.264C932.114 54.12 932.154 53.968 932.154 53.808C932.154 53.668 932.124 53.542 932.064 53.43C932.008 53.314 931.924 53.222 931.812 53.154C931.7 53.086 931.566 53.052 931.41 53.052C931.206 53.052 931.038 53.114 930.906 53.238C930.774 53.362 930.708 53.528 930.708 53.736C930.708 53.908 930.754 54.05 930.846 54.162C930.942 54.274 931.066 54.37 931.218 54.45C931.37 54.526 931.532 54.6 931.704 54.672ZM931.41 56.67C931.582 56.67 931.73 56.638 931.854 56.574C931.982 56.51 932.08 56.422 932.148 56.31C932.22 56.198 932.256 56.07 932.256 55.926C932.256 55.786 932.224 55.666 932.16 55.566C932.096 55.466 932.01 55.38 931.902 55.308C931.798 55.236 931.676 55.17 931.536 55.11C931.396 55.046 931.248 54.984 931.092 54.924C930.916 55.036 930.77 55.17 930.654 55.326C930.542 55.482 930.486 55.66 930.486 55.86C930.486 56.012 930.526 56.15 930.606 56.274C930.686 56.398 930.796 56.496 930.936 56.568C931.08 56.636 931.238 56.67 931.41 56.67ZM933.886 57.078C933.778 57.078 933.684 57.04 933.604 56.964C933.528 56.884 933.49 56.784 933.49 56.664C933.49 56.536 933.528 56.434 933.604 56.358C933.684 56.282 933.778 56.244 933.886 56.244C933.994 56.244 934.086 56.282 934.162 56.358C934.242 56.434 934.282 56.536 934.282 56.664C934.282 56.784 934.242 56.884 934.162 56.964C934.086 57.04 933.994 57.078 933.886 57.078ZM936.096 57.078C935.868 57.078 935.668 57.036 935.496 56.952C935.328 56.864 935.186 56.756 935.07 56.628L935.37 56.286C935.458 56.39 935.564 56.472 935.688 56.532C935.816 56.592 935.946 56.622 936.078 56.622C936.282 56.622 936.47 56.562 936.642 56.442C936.814 56.322 936.952 56.122 937.056 55.842C937.16 55.558 937.212 55.178 937.212 54.702C937.212 54.35 937.174 54.054 937.098 53.814C937.026 53.57 936.918 53.386 936.774 53.262C936.63 53.134 936.456 53.07 936.252 53.07C936.112 53.07 935.986 53.11 935.874 53.19C935.762 53.27 935.672 53.38 935.604 53.52C935.536 53.66 935.502 53.826 935.502 54.018C935.502 54.202 935.53 54.364 935.586 54.504C935.646 54.64 935.736 54.746 935.856 54.822C935.976 54.894 936.124 54.93 936.3 54.93C936.44 54.93 936.59 54.884 936.75 54.792C936.914 54.696 937.07 54.538 937.218 54.318L937.242 54.756C937.154 54.872 937.05 54.974 936.93 55.062C936.814 55.15 936.694 55.218 936.57 55.266C936.45 55.31 936.328 55.332 936.204 55.332C935.96 55.332 935.746 55.284 935.562 55.188C935.378 55.088 935.236 54.94 935.136 54.744C935.036 54.548 934.986 54.306 934.986 54.018C934.986 53.742 935.044 53.502 935.16 53.298C935.276 53.09 935.428 52.93 935.616 52.818C935.808 52.702 936.018 52.644 936.246 52.644C936.458 52.644 936.654 52.688 936.834 52.776C937.014 52.86 937.17 52.988 937.302 53.16C937.434 53.332 937.538 53.546 937.614 53.802C937.69 54.054 937.728 54.354 937.728 54.702C937.728 55.13 937.682 55.496 937.59 55.8C937.502 56.1 937.382 56.346 937.23 56.538C937.078 56.726 936.904 56.864 936.708 56.952C936.512 57.036 936.308 57.078 936.096 57.078ZM938.602 57V53.742H939.052L939.106 54.216H939.118C939.262 54.06 939.418 53.928 939.586 53.82C939.758 53.712 939.94 53.658 940.132 53.658C940.384 53.658 940.58 53.714 940.72 53.826C940.86 53.938 940.964 54.09 941.032 54.282C941.204 54.098 941.376 53.948 941.548 53.832C941.724 53.716 941.912 53.658 942.112 53.658C942.444 53.658 942.69 53.768 942.85 53.988C943.014 54.204 943.096 54.52 943.096 54.936V57H942.55V55.008C942.55 54.7 942.5 54.478 942.4 54.342C942.304 54.206 942.152 54.138 941.944 54.138C941.82 54.138 941.69 54.18 941.554 54.264C941.422 54.344 941.278 54.468 941.122 54.636V57H940.576V55.008C940.576 54.7 940.526 54.478 940.426 54.342C940.33 54.206 940.178 54.138 939.97 54.138C939.846 54.138 939.716 54.18 939.58 54.264C939.444 54.344 939.302 54.468 939.154 54.636V57H938.602Z" fill="#BB00D3"/>

<path d="M235.489 316.906H235.987V318.088H235.489V316.906ZM235.483 314.998H235.885V315.124C235.885 315.44 235.821 315.73 235.693 315.994C235.565 316.254 235.387 316.478 235.159 316.666C234.931 316.85 234.665 316.99 234.361 317.086L234.127 316.702C234.395 316.618 234.631 316.5 234.835 316.348C235.039 316.192 235.197 316.01 235.309 315.802C235.425 315.59 235.483 315.364 235.483 315.124V314.998ZM235.579 314.998H235.987V315.124C235.987 315.356 236.045 315.574 236.161 315.778C236.277 315.978 236.437 316.154 236.641 316.306C236.849 316.454 237.087 316.566 237.355 316.642L237.127 317.032C236.823 316.94 236.555 316.802 236.323 316.618C236.091 316.434 235.909 316.216 235.777 315.964C235.645 315.708 235.579 315.428 235.579 315.124V314.998ZM234.259 314.746H237.235V315.154H234.259V314.746ZM235.489 314.08H235.987V314.926H235.489V314.08ZM237.859 314.038H238.357V319.474H237.859V314.038ZM234.031 318.352L233.965 317.938C234.293 317.938 234.655 317.936 235.051 317.932C235.451 317.924 235.861 317.908 236.281 317.884C236.705 317.856 237.113 317.81 237.505 317.746L237.547 318.118C237.139 318.194 236.725 318.248 236.305 318.28C235.889 318.312 235.487 318.332 235.099 318.34C234.711 318.348 234.355 318.352 234.031 318.352ZM243.42 314.038H243.918V319.474H243.42V314.038ZM242.256 316.012H243.564V316.42H242.256V316.012ZM240.828 314.812H241.23V315.628C241.23 315.92 241.19 316.208 241.11 316.492C241.034 316.772 240.926 317.036 240.786 317.284C240.65 317.532 240.488 317.752 240.3 317.944C240.116 318.136 239.918 318.288 239.706 318.4L239.406 318.004C239.602 317.908 239.786 317.776 239.958 317.608C240.13 317.44 240.28 317.25 240.408 317.038C240.54 316.822 240.642 316.594 240.714 316.354C240.79 316.11 240.828 315.868 240.828 315.628V314.812ZM240.936 314.812H241.332V315.628C241.332 315.852 241.368 316.08 241.44 316.312C241.512 316.54 241.612 316.756 241.74 316.96C241.872 317.164 242.024 317.348 242.196 317.512C242.368 317.672 242.552 317.798 242.748 317.89L242.454 318.286C242.238 318.178 242.038 318.032 241.854 317.848C241.67 317.664 241.508 317.454 241.368 317.218C241.232 316.978 241.126 316.722 241.05 316.45C240.974 316.178 240.936 315.904 240.936 315.628V314.812ZM239.61 314.596H242.556V315.004H239.61V314.596ZM247.866 315.394H249.072V315.808H247.866V315.394ZM248.94 314.038H249.438V317.212H248.94V314.038ZM245.916 317.482H249.438V319.396H245.916V317.482ZM248.952 317.878H246.408V318.988H248.952V317.878ZM246.354 314.554H246.762V314.992C246.762 315.32 246.698 315.63 246.57 315.922C246.446 316.21 246.27 316.462 246.042 316.678C245.814 316.89 245.55 317.052 245.25 317.164L244.992 316.768C245.192 316.696 245.374 316.6 245.538 316.48C245.706 316.36 245.852 316.222 245.976 316.066C246.1 315.906 246.194 315.736 246.258 315.556C246.322 315.372 246.354 315.184 246.354 314.992V314.554ZM246.45 314.554H246.858V314.992C246.858 315.224 246.912 315.45 247.02 315.67C247.128 315.886 247.282 316.08 247.482 316.252C247.682 316.42 247.912 316.552 248.172 316.648L247.92 317.044C247.624 316.936 247.366 316.78 247.146 316.576C246.926 316.368 246.754 316.128 246.63 315.856C246.51 315.58 246.45 315.292 246.45 314.992V314.554ZM245.148 314.386H248.046V314.794H245.148V314.386ZM233.574 326V325.676C234.006 325.248 234.372 324.872 234.672 324.548C234.972 324.22 235.2 323.926 235.356 323.666C235.512 323.402 235.59 323.154 235.59 322.922C235.59 322.758 235.56 322.614 235.5 322.49C235.444 322.362 235.356 322.264 235.236 322.196C235.116 322.124 234.964 322.088 234.78 322.088C234.6 322.088 234.432 322.138 234.276 322.238C234.124 322.338 233.988 322.458 233.868 322.598L233.55 322.292C233.726 322.092 233.916 321.934 234.12 321.818C234.324 321.702 234.566 321.644 234.846 321.644C235.11 321.644 235.336 321.696 235.524 321.8C235.716 321.904 235.864 322.05 235.968 322.238C236.076 322.426 236.13 322.646 236.13 322.898C236.13 323.166 236.054 323.438 235.902 323.714C235.75 323.99 235.542 324.28 235.278 324.584C235.014 324.884 234.714 325.212 234.378 325.568C234.49 325.56 234.61 325.552 234.738 325.544C234.866 325.532 234.986 325.526 235.098 325.526H236.34V326H233.574ZM238.438 326.078C238.226 326.078 238.03 326.036 237.85 325.952C237.67 325.868 237.514 325.74 237.382 325.568C237.25 325.396 237.146 325.182 237.07 324.926C236.998 324.666 236.962 324.364 236.962 324.02C236.962 323.592 237.006 323.228 237.094 322.928C237.182 322.624 237.302 322.378 237.454 322.19C237.606 321.998 237.78 321.86 237.976 321.776C238.172 321.688 238.376 321.644 238.588 321.644C238.82 321.644 239.02 321.688 239.188 321.776C239.356 321.86 239.5 321.966 239.62 322.094L239.314 322.436C239.23 322.332 239.124 322.25 238.996 322.19C238.872 322.13 238.744 322.1 238.612 322.1C238.408 322.1 238.22 322.16 238.048 322.28C237.876 322.4 237.738 322.6 237.634 322.88C237.53 323.16 237.478 323.54 237.478 324.02C237.478 324.372 237.516 324.67 237.592 324.914C237.668 325.154 237.776 325.336 237.916 325.46C238.06 325.584 238.232 325.646 238.432 325.646C238.576 325.646 238.704 325.608 238.816 325.532C238.932 325.452 239.022 325.342 239.086 325.202C239.154 325.062 239.188 324.898 239.188 324.71C239.188 324.522 239.158 324.36 239.098 324.224C239.038 324.088 238.948 323.984 238.828 323.912C238.712 323.836 238.566 323.798 238.39 323.798C238.25 323.798 238.098 323.844 237.934 323.936C237.77 324.028 237.614 324.184 237.466 324.404L237.448 323.972C237.54 323.852 237.642 323.748 237.754 323.66C237.866 323.572 237.984 323.506 238.108 323.462C238.236 323.414 238.358 323.39 238.474 323.39C238.722 323.39 238.938 323.44 239.122 323.54C239.306 323.636 239.448 323.782 239.548 323.978C239.648 324.174 239.698 324.418 239.698 324.71C239.698 324.982 239.64 325.222 239.524 325.43C239.412 325.634 239.26 325.794 239.068 325.91C238.876 326.022 238.666 326.078 238.438 326.078ZM240.8 326.078C240.692 326.078 240.598 326.04 240.518 325.964C240.442 325.884 240.404 325.784 240.404 325.664C240.404 325.536 240.442 325.434 240.518 325.358C240.598 325.282 240.692 325.244 240.8 325.244C240.908 325.244 241 325.282 241.076 325.358C241.156 325.434 241.196 325.536 241.196 325.664C241.196 325.784 241.156 325.884 241.076 325.964C241 326.04 240.908 326.078 240.8 326.078ZM243.676 326V323.126C243.676 323.018 243.68 322.884 243.688 322.724C243.696 322.56 243.702 322.422 243.706 322.31H243.682C243.626 322.41 243.568 322.51 243.508 322.61C243.452 322.706 243.392 322.808 243.328 322.916L242.326 324.38H244.78V324.818H241.756V324.458L243.586 321.722H244.192V326H243.676ZM245.516 326V322.742H245.966L246.02 323.216H246.032C246.176 323.06 246.332 322.928 246.5 322.82C246.672 322.712 246.854 322.658 247.046 322.658C247.298 322.658 247.494 322.714 247.634 322.826C247.774 322.938 247.878 323.09 247.946 323.282C248.118 323.098 248.29 322.948 248.462 322.832C248.638 322.716 248.826 322.658 249.026 322.658C249.358 322.658 249.604 322.768 249.764 322.988C249.928 323.204 250.01 323.52 250.01 323.936V326H249.464V324.008C249.464 323.7 249.414 323.478 249.314 323.342C249.218 323.206 249.066 323.138 248.858 323.138C248.734 323.138 248.604 323.18 248.468 323.264C248.336 323.344 248.192 323.468 248.036 323.636V326H247.49V324.008C247.49 323.7 247.44 323.478 247.34 323.342C247.244 323.206 247.092 323.138 246.884 323.138C246.76 323.138 246.63 323.18 246.494 323.264C246.358 323.344 246.216 323.468 246.068 323.636V326H245.516Z" fill="#BB00D3"/>
<circle cx="228.5" cy="313" r="2" fill="#BB00D3"/>
<circle cx="80.5" cy="262" r="2" fill="#BB00D3"/>
<path d="M84.4888 246.906H84.9868V248.088H84.4888V246.906ZM84.4828 244.998H84.8848V245.124C84.8848 245.44 84.8208 245.73 84.6928 245.994C84.5648 246.254 84.3868 246.478 84.1588 246.666C83.9308 246.85 83.6648 246.99 83.3608 247.086L83.1268 246.702C83.3948 246.618 83.6308 246.5 83.8348 246.348C84.0388 246.192 84.1968 246.01 84.3088 245.802C84.4248 245.59 84.4828 245.364 84.4828 245.124V244.998ZM84.5788 244.998H84.9868V245.124C84.9868 245.356 85.0448 245.574 85.1608 245.778C85.2768 245.978 85.4368 246.154 85.6408 246.306C85.8488 246.454 86.0868 246.566 86.3548 246.642L86.1268 247.032C85.8228 246.94 85.5548 246.802 85.3228 246.618C85.0908 246.434 84.9088 246.216 84.7768 245.964C84.6448 245.708 84.5788 245.428 84.5788 245.124V244.998ZM83.2588 244.746H86.2348V245.154H83.2588V244.746ZM84.4888 244.08H84.9868V244.926H84.4888V244.08ZM86.8588 244.038H87.3568V249.474H86.8588V244.038ZM83.0308 248.352L82.9648 247.938C83.2928 247.938 83.6548 247.936 84.0508 247.932C84.4508 247.924 84.8608 247.908 85.2808 247.884C85.7048 247.856 86.1128 247.81 86.5048 247.746L86.5468 248.118C86.1388 248.194 85.7248 248.248 85.3048 248.28C84.8888 248.312 84.4868 248.332 84.0988 248.34C83.7108 248.348 83.3548 248.352 83.0308 248.352ZM88.9763 244.584H92.4683V244.992H88.9763V244.584ZM88.4543 248.292H93.3563V248.706H88.4543V248.292ZM90.3623 246.354H90.8543V248.502H90.3623V246.354ZM92.2763 244.584H92.7743V245.118C92.7743 245.342 92.7703 245.578 92.7623 245.826C92.7583 246.074 92.7423 246.346 92.7143 246.642C92.6903 246.938 92.6443 247.268 92.5763 247.632L92.0723 247.572C92.1763 247.052 92.2363 246.596 92.2523 246.204C92.2683 245.808 92.2763 245.446 92.2763 245.118V244.584ZM96.8658 245.394H98.0718V245.808H96.8658V245.394ZM97.9398 244.038H98.4378V247.212H97.9398V244.038ZM94.9158 247.482H98.4378V249.396H94.9158V247.482ZM97.9518 247.878H95.4078V248.988H97.9518V247.878ZM95.3538 244.554H95.7618V244.992C95.7618 245.32 95.6978 245.63 95.5698 245.922C95.4458 246.21 95.2698 246.462 95.0418 246.678C94.8138 246.89 94.5498 247.052 94.2498 247.164L93.9918 246.768C94.1918 246.696 94.3738 246.6 94.5378 246.48C94.7058 246.36 94.8518 246.222 94.9758 246.066C95.0998 245.906 95.1938 245.736 95.2578 245.556C95.3218 245.372 95.3538 245.184 95.3538 244.992V244.554ZM95.4498 244.554H95.8578V244.992C95.8578 245.224 95.9118 245.45 96.0198 245.67C96.1278 245.886 96.2818 246.08 96.4818 246.252C96.6818 246.42 96.9118 246.552 97.1718 246.648L96.9198 247.044C96.6238 246.936 96.3658 246.78 96.1458 246.576C95.9258 246.368 95.7538 246.128 95.6298 245.856C95.5098 245.58 95.4498 245.292 95.4498 244.992V244.554ZM94.1478 244.386H97.0458V244.794H94.1478V244.386ZM83.8816 256.078C83.6536 256.078 83.4516 256.05 83.2756 255.994C83.1036 255.938 82.9516 255.866 82.8196 255.778C82.6916 255.69 82.5756 255.596 82.4716 255.496L82.7476 255.136C82.8316 255.22 82.9236 255.3 83.0236 255.376C83.1276 255.448 83.2456 255.508 83.3776 255.556C83.5096 255.6 83.6596 255.622 83.8276 255.622C83.9996 255.622 84.1556 255.582 84.2956 255.502C84.4396 255.422 84.5536 255.31 84.6376 255.166C84.7216 255.022 84.7636 254.85 84.7636 254.65C84.7636 254.35 84.6796 254.118 84.5116 253.954C84.3476 253.786 84.1276 253.702 83.8516 253.702C83.7076 253.702 83.5816 253.726 83.4736 253.774C83.3656 253.818 83.2476 253.882 83.1196 253.966L82.8256 253.78L82.9696 251.722H85.1056V252.196H83.4496L83.3356 253.468C83.4316 253.412 83.5316 253.37 83.6356 253.342C83.7436 253.31 83.8636 253.294 83.9956 253.294C84.2396 253.294 84.4616 253.342 84.6616 253.438C84.8616 253.53 85.0216 253.676 85.1416 253.876C85.2616 254.072 85.3216 254.324 85.3216 254.632C85.3216 254.94 85.2516 255.202 85.1116 255.418C84.9756 255.634 84.7976 255.798 84.5776 255.91C84.3576 256.022 84.1256 256.078 83.8816 256.078ZM87.3057 256.078C87.0217 256.078 86.7777 255.992 86.5737 255.82C86.3697 255.648 86.2117 255.396 86.0997 255.064C85.9917 254.732 85.9377 254.326 85.9377 253.846C85.9377 253.37 85.9917 252.968 86.0997 252.64C86.2117 252.312 86.3697 252.064 86.5737 251.896C86.7777 251.728 87.0217 251.644 87.3057 251.644C87.5897 251.644 87.8337 251.728 88.0377 251.896C88.2417 252.064 88.3977 252.312 88.5057 252.64C88.6177 252.968 88.6737 253.37 88.6737 253.846C88.6737 254.326 88.6177 254.732 88.5057 255.064C88.3977 255.396 88.2417 255.648 88.0377 255.82C87.8337 255.992 87.5897 256.078 87.3057 256.078ZM87.3057 255.634C87.4737 255.634 87.6197 255.572 87.7437 255.448C87.8717 255.324 87.9697 255.13 88.0377 254.866C88.1097 254.602 88.1457 254.262 88.1457 253.846C88.1457 253.43 88.1097 253.092 88.0377 252.832C87.9697 252.572 87.8717 252.382 87.7437 252.262C87.6197 252.142 87.4737 252.082 87.3057 252.082C87.1417 252.082 86.9957 252.142 86.8677 252.262C86.7397 252.382 86.6397 252.572 86.5677 252.832C86.4997 253.092 86.4657 253.43 86.4657 253.846C86.4657 254.262 86.4997 254.602 86.5677 254.866C86.6397 255.13 86.7397 255.324 86.8677 255.448C86.9957 255.572 87.1417 255.634 87.3057 255.634ZM89.7998 256.078C89.6918 256.078 89.5978 256.04 89.5178 255.964C89.4418 255.884 89.4038 255.784 89.4038 255.664C89.4038 255.536 89.4418 255.434 89.5178 255.358C89.5978 255.282 89.6918 255.244 89.7998 255.244C89.9078 255.244 89.9998 255.282 90.0758 255.358C90.1558 255.434 90.1958 255.536 90.1958 255.664C90.1958 255.784 90.1558 255.884 90.0758 255.964C89.9998 256.04 89.9078 256.078 89.7998 256.078ZM91.8237 256C91.8437 255.596 91.8797 255.226 91.9317 254.89C91.9837 254.55 92.0577 254.23 92.1537 253.93C92.2537 253.63 92.3777 253.34 92.5257 253.06C92.6737 252.776 92.8537 252.488 93.0657 252.196H90.9297V251.722H93.6837V252.058C93.4317 252.382 93.2257 252.692 93.0657 252.988C92.9057 253.284 92.7797 253.586 92.6877 253.894C92.5957 254.198 92.5277 254.522 92.4837 254.866C92.4397 255.206 92.4097 255.584 92.3937 256H91.8237ZM94.5159 256V252.742H94.9659L95.0199 253.216H95.0319C95.1759 253.06 95.3319 252.928 95.4999 252.82C95.6719 252.712 95.8539 252.658 96.0459 252.658C96.2979 252.658 96.4939 252.714 96.6339 252.826C96.7739 252.938 96.8779 253.09 96.9459 253.282C97.1179 253.098 97.2899 252.948 97.4619 252.832C97.6379 252.716 97.8259 252.658 98.0259 252.658C98.3579 252.658 98.6039 252.768 98.7639 252.988C98.9279 253.204 99.0099 253.52 99.0099 253.936V256H98.4639V254.008C98.4639 253.7 98.4139 253.478 98.3139 253.342C98.2179 253.206 98.0659 253.138 97.8579 253.138C97.7339 253.138 97.6039 253.18 97.4679 253.264C97.3359 253.344 97.1919 253.468 97.0359 253.636V256H96.4899V254.008C96.4899 253.7 96.4399 253.478 96.3399 253.342C96.2439 253.206 96.0919 253.138 95.8839 253.138C95.7599 253.138 95.6299 253.18 95.4939 253.264C95.3579 253.344 95.2159 253.468 95.0679 253.636V256H94.5159Z" fill="#BB00D3"/>
</g>
</svg>
