<svg width="1030" height="357" viewBox="0 0 1030 357" fill="none" xmlns="http://www.w3.org/2000/svg">
<g clip-path="url(#clip0_1333_2364)">
<path d="M518.169 165L517.289 167.502L514.193 168.234L513.705 168.881L514.483 170.143H516.008L516.612 168.429H519.538L521 169.813L519.294 170.711L518.852 172.527L517.097 173.857H514.618L513.921 174.14V175H510V170.905L511.056 168.762V167.659L514.358 165H518.169ZM510.905 174.143H513.016V173.574L514.432 173H516.779L518.04 172.044L518.503 170.146L519.512 169.615L519.164 169.286H517.264L516.661 171H513.963L512.629 168.834L513.65 167.48L516.587 166.784L516.913 165.857H514.691L511.961 168.055V168.952L510.905 171.095V174.143Z" fill="#FF0202"/>
<path d="M518.169 164.874C518.21 164.874 518.248 164.894 518.271 164.927C518.295 164.96 518.302 165.003 518.288 165.042L517.408 167.544C517.394 167.584 517.359 167.614 517.317 167.624L514.267 168.347L513.857 168.888L514.554 170.017H515.919L516.492 168.387L516.511 168.353C516.534 168.322 516.571 168.303 516.611 168.303H519.538L519.585 168.312C519.6 168.317 519.613 168.326 519.625 168.337L521.087 169.722C521.116 169.75 521.13 169.79 521.125 169.83C521.119 169.87 521.095 169.906 521.059 169.925L519.403 170.795L518.975 172.558C518.968 172.586 518.951 172.61 518.928 172.628L517.173 173.958C517.151 173.975 517.124 173.983 517.097 173.983H514.641L514.048 174.225V175C514.048 175.07 513.991 175.126 513.921 175.126H510C509.93 175.126 509.874 175.07 509.874 175V170.905C509.874 170.886 509.878 170.866 509.887 170.849L510.93 168.731V167.659C510.93 167.621 510.947 167.585 510.977 167.561L514.279 164.901L514.316 164.881C514.33 164.876 514.344 164.874 514.358 164.874H518.169ZM512.087 168.115V168.952C512.087 168.971 512.083 168.991 512.074 169.008L511.031 171.125V174.017H512.891V173.574C512.891 173.523 512.921 173.477 512.969 173.458L514.385 172.883L514.432 172.874H516.736L517.929 171.97L518.38 170.116C518.389 170.081 518.412 170.052 518.444 170.035L519.297 169.586L519.114 169.412H517.353L516.779 171.042C516.761 171.092 516.714 171.126 516.66 171.126H513.963C513.919 171.126 513.878 171.104 513.855 171.066L512.521 168.899C512.495 168.855 512.497 168.799 512.528 168.758L513.549 167.403C513.567 167.38 513.592 167.363 513.621 167.356L516.49 166.677L516.734 165.983H514.734L512.087 168.115Z" stroke="white" stroke-opacity="0.7" stroke-width="0.252456" stroke-linejoin="round"/>
<mask id="path-4-outside-1_1333_2364" maskUnits="userSpaceOnUse" x="596" y="175" width="45" height="13" fill="black">
<rect fill="white" x="596" y="175" width="45" height="13"/>
<path d="M601.041 186.168C599.637 186.168 598.689 185.64 598.065 184.932L598.893 183.816C599.421 184.332 600.069 184.728 600.873 184.728C601.773 184.728 602.385 184.296 602.385 183.552C602.385 182.712 601.869 182.196 599.937 182.196V180.924C601.569 180.924 602.097 180.384 602.097 179.64C602.097 178.968 601.665 178.572 600.909 178.572C600.273 178.572 599.757 178.872 599.229 179.364L598.329 178.284C599.097 177.612 599.949 177.18 600.993 177.18C602.709 177.18 603.873 178.02 603.873 179.508C603.873 180.444 603.321 181.092 602.397 181.464V181.524C603.393 181.788 604.161 182.52 604.161 183.66C604.161 185.244 602.733 186.168 601.041 186.168ZM607.879 186.168C606.055 186.168 604.867 184.572 604.867 181.632C604.867 178.704 606.055 177.18 607.879 177.18C609.703 177.18 610.879 178.716 610.879 181.632C610.879 184.572 609.703 186.168 607.879 186.168ZM607.879 184.788C608.647 184.788 609.211 184.044 609.211 181.632C609.211 179.232 608.647 178.56 607.879 178.56C607.111 178.56 606.535 179.232 606.535 181.632C606.535 184.044 607.111 184.788 607.879 184.788ZM612.87 186.168C612.246 186.168 611.778 185.664 611.778 185.016C611.778 184.356 612.246 183.864 612.87 183.864C613.506 183.864 613.974 184.356 613.974 185.016C613.974 185.664 613.506 186.168 612.87 186.168ZM617.888 186.168C616.064 186.168 614.876 184.572 614.876 181.632C614.876 178.704 616.064 177.18 617.888 177.18C619.712 177.18 620.888 178.716 620.888 181.632C620.888 184.572 619.712 186.168 617.888 186.168ZM617.888 184.788C618.656 184.788 619.22 184.044 619.22 181.632C619.22 179.232 618.656 178.56 617.888 178.56C617.12 178.56 616.544 179.232 616.544 181.632C616.544 184.044 617.12 184.788 617.888 184.788ZM622.026 186V177.108H623.802V180.972H623.838L626.778 177.108H628.734L626.022 180.612L629.214 186H627.27L624.966 182.004L623.802 183.504V186H622.026ZM629.629 186V179.28H631.069L631.201 180.18H631.237C631.801 179.592 632.425 179.112 633.301 179.112C634.261 179.112 634.825 179.544 635.149 180.288C635.761 179.64 636.409 179.112 637.285 179.112C638.713 179.112 639.373 180.12 639.373 181.812V186H637.609V182.028C637.609 180.984 637.309 180.624 636.673 180.624C636.289 180.624 635.857 180.876 635.377 181.38V186H633.625V182.028C633.625 180.984 633.313 180.624 632.677 180.624C632.293 180.624 631.861 180.876 631.393 181.38V186H629.629Z"/>
</mask>
<path d="M601.041 186.168C599.637 186.168 598.689 185.64 598.065 184.932L598.893 183.816C599.421 184.332 600.069 184.728 600.873 184.728C601.773 184.728 602.385 184.296 602.385 183.552C602.385 182.712 601.869 182.196 599.937 182.196V180.924C601.569 180.924 602.097 180.384 602.097 179.64C602.097 178.968 601.665 178.572 600.909 178.572C600.273 178.572 599.757 178.872 599.229 179.364L598.329 178.284C599.097 177.612 599.949 177.18 600.993 177.18C602.709 177.18 603.873 178.02 603.873 179.508C603.873 180.444 603.321 181.092 602.397 181.464V181.524C603.393 181.788 604.161 182.52 604.161 183.66C604.161 185.244 602.733 186.168 601.041 186.168ZM607.879 186.168C606.055 186.168 604.867 184.572 604.867 181.632C604.867 178.704 606.055 177.18 607.879 177.18C609.703 177.18 610.879 178.716 610.879 181.632C610.879 184.572 609.703 186.168 607.879 186.168ZM607.879 184.788C608.647 184.788 609.211 184.044 609.211 181.632C609.211 179.232 608.647 178.56 607.879 178.56C607.111 178.56 606.535 179.232 606.535 181.632C606.535 184.044 607.111 184.788 607.879 184.788ZM612.87 186.168C612.246 186.168 611.778 185.664 611.778 185.016C611.778 184.356 612.246 183.864 612.87 183.864C613.506 183.864 613.974 184.356 613.974 185.016C613.974 185.664 613.506 186.168 612.87 186.168ZM617.888 186.168C616.064 186.168 614.876 184.572 614.876 181.632C614.876 178.704 616.064 177.18 617.888 177.18C619.712 177.18 620.888 178.716 620.888 181.632C620.888 184.572 619.712 186.168 617.888 186.168ZM617.888 184.788C618.656 184.788 619.22 184.044 619.22 181.632C619.22 179.232 618.656 178.56 617.888 178.56C617.12 178.56 616.544 179.232 616.544 181.632C616.544 184.044 617.12 184.788 617.888 184.788ZM622.026 186V177.108H623.802V180.972H623.838L626.778 177.108H628.734L626.022 180.612L629.214 186H627.27L624.966 182.004L623.802 183.504V186H622.026ZM629.629 186V179.28H631.069L631.201 180.18H631.237C631.801 179.592 632.425 179.112 633.301 179.112C634.261 179.112 634.825 179.544 635.149 180.288C635.761 179.64 636.409 179.112 637.285 179.112C638.713 179.112 639.373 180.12 639.373 181.812V186H637.609V182.028C637.609 180.984 637.309 180.624 636.673 180.624C636.289 180.624 635.857 180.876 635.377 181.38V186H633.625V182.028C633.625 180.984 633.313 180.624 632.677 180.624C632.293 180.624 631.861 180.876 631.393 181.38V186H629.629Z" fill="white"/>
<path d="M598.065 184.932L596.848 184.029L596.118 185.014L596.928 185.934L598.065 184.932ZM598.893 183.816L599.951 182.733L598.71 181.52L597.676 182.913L598.893 183.816ZM599.937 182.196H598.422V183.711H599.937V182.196ZM599.937 180.924V179.409H598.422V180.924H599.937ZM599.229 179.364L598.065 180.334L599.09 181.564L600.261 180.472L599.229 179.364ZM598.329 178.284L597.331 177.144L596.218 178.118L597.165 179.254L598.329 178.284ZM602.397 181.464L601.831 180.059L600.882 180.441V181.464H602.397ZM602.397 181.524H600.882V182.69L602.009 182.988L602.397 181.524ZM601.041 186.168V184.653C600.068 184.653 599.535 184.309 599.201 183.93L598.065 184.932L596.928 185.934C597.842 186.971 599.206 187.683 601.041 187.683V186.168ZM598.065 184.932L599.281 185.835L600.109 184.719L598.893 183.816L597.676 182.913L596.848 184.029L598.065 184.932ZM598.893 183.816L597.834 184.899C598.518 185.567 599.525 186.243 600.873 186.243V184.728V183.213C600.613 183.213 600.324 183.097 599.951 182.733L598.893 183.816ZM600.873 184.728V186.243C601.544 186.243 602.276 186.084 602.881 185.627C603.531 185.134 603.899 184.389 603.899 183.552H602.385H600.87C600.87 183.526 600.876 183.461 600.916 183.381C600.956 183.3 601.009 183.244 601.052 183.211C601.091 183.182 601.107 183.183 601.076 183.192C601.045 183.2 600.979 183.213 600.873 183.213V184.728ZM602.385 183.552H603.899C603.899 183.193 603.845 182.766 603.644 182.339C603.434 181.895 603.106 181.539 602.694 181.278C601.944 180.805 600.966 180.681 599.937 180.681V182.196V183.711C600.359 183.711 600.652 183.739 600.848 183.777C601.048 183.816 601.099 183.854 601.076 183.84C601.035 183.813 600.956 183.743 600.904 183.632C600.86 183.539 600.87 183.491 600.87 183.552H602.385ZM599.937 182.196H601.451V180.924H599.937H598.422V182.196H599.937ZM599.937 180.924V182.439C600.869 182.439 601.773 182.294 602.479 181.814C603.299 181.258 603.611 180.426 603.611 179.64H602.097H600.582C600.582 179.647 600.581 179.586 600.625 179.496C600.673 179.397 600.739 179.334 600.778 179.308C600.806 179.289 600.776 179.318 600.633 179.35C600.49 179.382 600.266 179.409 599.937 179.409V180.924ZM602.097 179.64H603.611C603.611 178.967 603.384 178.257 602.802 177.73C602.241 177.223 601.538 177.057 600.909 177.057V178.572V180.087C601.036 180.087 600.927 180.119 600.771 179.978C600.694 179.909 600.64 179.826 600.61 179.749C600.581 179.677 600.582 179.634 600.582 179.64H602.097ZM600.909 178.572V177.057C599.723 177.057 598.852 177.644 598.196 178.256L599.229 179.364L600.261 180.472C600.463 180.284 600.604 180.189 600.703 180.14C600.786 180.098 600.845 180.087 600.909 180.087V178.572ZM599.229 179.364L600.392 178.394L599.492 177.314L598.329 178.284L597.165 179.254L598.065 180.334L599.229 179.364ZM598.329 178.284L599.326 179.424C599.909 178.914 600.421 178.695 600.993 178.695V177.18V175.665C599.477 175.665 598.284 176.31 597.331 177.144L598.329 178.284ZM600.993 177.18V178.695C601.624 178.695 601.98 178.851 602.142 178.978C602.26 179.071 602.358 179.202 602.358 179.508H603.873H605.387C605.387 178.326 604.904 177.293 604.01 176.594C603.162 175.929 602.077 175.665 600.993 175.665V177.18ZM603.873 179.508H602.358C602.358 179.657 602.321 179.721 602.286 179.767C602.237 179.83 602.114 179.945 601.831 180.059L602.397 181.464L602.962 182.869C603.604 182.611 604.218 182.216 604.676 181.628C605.148 181.023 605.387 180.295 605.387 179.508H603.873ZM602.397 181.464H600.882V181.524H602.397H603.911V181.464H602.397ZM602.397 181.524L602.009 182.988C602.272 183.058 602.433 183.171 602.517 183.266C602.586 183.344 602.646 183.454 602.646 183.66H604.161H605.675C605.675 181.669 604.272 180.454 602.785 180.06L602.397 181.524ZM604.161 183.66H602.646C602.646 183.941 602.541 184.134 602.323 184.299C602.069 184.49 601.629 184.653 601.041 184.653V186.168V187.683C602.144 187.683 603.264 187.384 604.148 186.717C605.066 186.024 605.675 184.963 605.675 183.66H604.161ZM607.879 186.168V184.653C607.475 184.653 607.186 184.507 606.939 184.147C606.648 183.722 606.382 182.927 606.382 181.632H604.867H603.352C603.352 183.277 603.68 184.75 604.439 185.858C605.242 187.031 606.459 187.683 607.879 187.683V186.168ZM604.867 181.632H606.382C606.382 180.343 606.648 179.578 606.928 179.179C607.163 178.845 607.448 178.695 607.879 178.695V177.18V175.665C606.486 175.665 605.265 176.277 604.45 177.437C603.68 178.532 603.352 179.993 603.352 181.632H604.867ZM607.879 177.18V178.695C608.305 178.695 608.587 178.844 608.821 179.179C609.101 179.58 609.364 180.347 609.364 181.632H610.879H612.394C612.394 180.001 612.07 178.542 611.306 177.446C610.495 176.284 609.278 175.665 607.879 175.665V177.18ZM610.879 181.632H609.364C609.364 182.93 609.1 183.726 608.811 184.15C608.567 184.509 608.282 184.653 607.879 184.653V186.168V187.683C609.3 187.683 610.515 187.029 611.315 185.855C612.07 184.746 612.394 183.274 612.394 181.632H610.879ZM607.879 184.788V186.303C608.328 186.303 608.809 186.19 609.253 185.894C609.687 185.604 609.989 185.202 610.195 184.777C610.586 183.974 610.726 182.903 610.726 181.632H609.211H607.696C607.696 182.773 607.554 183.28 607.471 183.452C607.441 183.514 607.458 183.449 607.57 183.374C607.692 183.293 607.815 183.273 607.879 183.273V184.788ZM609.211 181.632H610.726C610.726 180.371 610.587 179.307 610.184 178.512C609.969 178.085 609.655 177.694 609.214 177.418C608.769 177.14 608.299 177.045 607.879 177.045V178.56V180.075C607.843 180.075 607.732 180.064 607.609 179.987C607.489 179.912 607.461 179.839 607.482 179.88C607.553 180.021 607.696 180.493 607.696 181.632H609.211ZM607.879 178.56V177.045C607.459 177.045 606.991 177.14 606.547 177.415C606.106 177.689 605.79 178.078 605.571 178.505C605.163 179.302 605.02 180.368 605.02 181.632H606.535H608.05C608.05 180.496 608.196 180.026 608.267 179.887C608.288 179.846 608.261 179.917 608.144 179.99C608.024 180.064 607.915 180.075 607.879 180.075V178.56ZM606.535 181.632H605.02C605.02 182.907 605.164 183.979 605.56 184.784C605.77 185.21 606.074 185.609 606.508 185.896C606.951 186.19 607.431 186.303 607.879 186.303V184.788V183.273C607.943 183.273 608.064 183.293 608.182 183.372C608.292 183.445 608.308 183.507 608.278 183.445C608.194 183.275 608.05 182.769 608.05 181.632H606.535ZM612.87 186.168V184.653C612.983 184.653 613.106 184.705 613.192 184.796C613.274 184.883 613.292 184.972 613.292 185.016H611.778H610.263C610.263 186.414 611.325 187.683 612.87 187.683V186.168ZM611.778 185.016H613.292C613.292 185.049 613.277 185.142 613.188 185.235C613.096 185.332 612.971 185.379 612.87 185.379V183.864V182.349C611.335 182.349 610.263 183.595 610.263 185.016H611.778ZM612.87 183.864V185.379C612.782 185.379 612.66 185.338 612.565 185.239C612.474 185.144 612.459 185.05 612.459 185.016H613.974H615.488C615.488 183.584 614.405 182.349 612.87 182.349V183.864ZM613.974 185.016H612.459C612.459 184.971 612.478 184.88 612.561 184.792C612.65 184.699 612.771 184.653 612.87 184.653V186.168V187.683C614.415 187.683 615.488 186.425 615.488 185.016H613.974ZM617.888 186.168V184.653C617.484 184.653 617.195 184.507 616.948 184.147C616.657 183.722 616.391 182.927 616.391 181.632H614.876H613.361C613.361 183.277 613.689 184.75 614.448 185.858C615.251 187.031 616.468 187.683 617.888 187.683V186.168ZM614.876 181.632H616.391C616.391 180.343 616.657 179.578 616.937 179.179C617.172 178.845 617.457 178.695 617.888 178.695V177.18V175.665C616.495 175.665 615.274 176.277 614.459 177.437C613.689 178.532 613.361 179.993 613.361 181.632H614.876ZM617.888 177.18V178.695C618.313 178.695 618.596 178.844 618.829 179.179C619.109 179.58 619.373 180.347 619.373 181.632H620.888H622.403C622.403 180.001 622.078 178.542 621.314 177.446C620.504 176.284 619.286 175.665 617.888 175.665V177.18ZM620.888 181.632H619.373C619.373 182.93 619.109 183.726 618.82 184.15C618.576 184.509 618.291 184.653 617.888 184.653V186.168V187.683C619.309 187.683 620.524 187.029 621.324 185.855C622.079 184.746 622.403 183.274 622.403 181.632H620.888ZM617.888 184.788V186.303C618.336 186.303 618.818 186.19 619.261 185.894C619.695 185.604 619.997 185.202 620.204 184.777C620.595 183.974 620.735 182.903 620.735 181.632H619.22H617.705C617.705 182.773 617.563 183.28 617.48 183.452C617.45 183.514 617.466 183.449 617.579 183.374C617.7 183.293 617.823 183.273 617.888 183.273V184.788ZM619.22 181.632H620.735C620.735 180.371 620.596 179.307 620.193 178.512C619.977 178.085 619.664 177.694 619.223 177.418C618.778 177.14 618.308 177.045 617.888 177.045V178.56V180.075C617.852 180.075 617.741 180.064 617.617 179.987C617.498 179.912 617.47 179.839 617.491 179.88C617.562 180.021 617.705 180.493 617.705 181.632H619.22ZM617.888 178.56V177.045C617.468 177.045 616.999 177.14 616.555 177.415C616.114 177.689 615.799 178.078 615.58 178.505C615.171 179.302 615.029 180.368 615.029 181.632H616.544H618.059C618.059 180.496 618.205 180.026 618.276 179.887C618.297 179.846 618.269 179.917 618.152 179.99C618.032 180.064 617.924 180.075 617.888 180.075V178.56ZM616.544 181.632H615.029C615.029 182.907 615.173 183.979 615.569 184.784C615.779 185.21 616.083 185.609 616.517 185.896C616.959 186.19 617.44 186.303 617.888 186.303V184.788V183.273C617.952 183.273 618.072 183.293 618.191 183.372C618.301 183.445 618.317 183.507 618.287 183.445C618.203 183.275 618.059 182.769 618.059 181.632H616.544ZM622.026 186H620.512V187.515H622.026V186ZM622.026 177.108V175.593H620.512V177.108H622.026ZM623.802 177.108H625.317V175.593H623.802V177.108ZM623.802 180.972H622.288V182.487H623.802V180.972ZM623.838 180.972V182.487H624.589L625.044 181.889L623.838 180.972ZM626.778 177.108V175.593H626.027L625.573 176.191L626.778 177.108ZM628.734 177.108L629.932 178.035L631.822 175.593H628.734V177.108ZM626.022 180.612L624.824 179.685L624.195 180.499L624.719 181.384L626.022 180.612ZM629.214 186V187.515H631.872L630.518 185.228L629.214 186ZM627.27 186L625.958 186.757L626.395 187.515H627.27V186ZM624.966 182.004L626.279 181.247L625.152 179.294L623.77 181.075L624.966 182.004ZM623.802 183.504L622.606 182.575L622.288 182.985V183.504H623.802ZM623.802 186V187.515H625.317V186H623.802ZM622.026 186H623.541V177.108H622.026H620.512V186H622.026ZM622.026 177.108V178.623H623.802V177.108V175.593H622.026V177.108ZM623.802 177.108H622.288V180.972H623.802H625.317V177.108H623.802ZM623.802 180.972V182.487H623.838V180.972V179.457H623.802V180.972ZM623.838 180.972L625.044 181.889L627.984 178.025L626.778 177.108L625.573 176.191L622.633 180.055L623.838 180.972ZM626.778 177.108V178.623H628.734V177.108V175.593H626.778V177.108ZM628.734 177.108L627.536 176.181L624.824 179.685L626.022 180.612L627.22 181.539L629.932 178.035L628.734 177.108ZM626.022 180.612L624.719 181.384L627.911 186.772L629.214 186L630.518 185.228L627.326 179.84L626.022 180.612ZM629.214 186V184.485H627.27V186V187.515H629.214V186ZM627.27 186L628.583 185.243L626.279 181.247L624.966 182.004L623.654 182.761L625.958 186.757L627.27 186ZM624.966 182.004L623.77 181.075L622.606 182.575L623.802 183.504L624.999 184.433L626.163 182.933L624.966 182.004ZM623.802 183.504H622.288V186H623.802H625.317V183.504H623.802ZM623.802 186V184.485H622.026V186V187.515H623.802V186ZM629.629 186H628.114V187.515H629.629V186ZM629.629 179.28V177.765H628.114V179.28H629.629ZM631.069 179.28L632.568 179.06L632.378 177.765H631.069V179.28ZM631.201 180.18L629.702 180.4L629.892 181.695H631.201V180.18ZM631.237 180.18V181.695H631.883L632.33 181.229L631.237 180.18ZM635.149 180.288L633.76 180.893L634.676 182.995L636.25 181.328L635.149 180.288ZM639.373 186V187.515H640.888V186H639.373ZM637.609 186H636.094V187.515H637.609V186ZM635.377 181.38L634.28 180.335L633.862 180.774V181.38H635.377ZM635.377 186V187.515H636.892V186H635.377ZM633.625 186H632.11V187.515H633.625V186ZM631.393 181.38L630.283 180.349L629.878 180.785V181.38H631.393ZM631.393 186V187.515H632.908V186H631.393ZM629.629 186H631.144V179.28H629.629H628.114V186H629.629ZM629.629 179.28V180.795H631.069V179.28V177.765H629.629V179.28ZM631.069 179.28L629.57 179.5L629.702 180.4L631.201 180.18L632.7 179.96L632.568 179.06L631.069 179.28ZM631.201 180.18V181.695H631.237V180.18V178.665H631.201V180.18ZM631.237 180.18L632.33 181.229C632.815 180.723 633.062 180.627 633.301 180.627V179.112V177.597C631.787 177.597 630.787 178.461 630.144 179.131L631.237 180.18ZM633.301 179.112V180.627C633.549 180.627 633.621 180.68 633.623 180.681C633.628 180.684 633.685 180.72 633.76 180.893L635.149 180.288L636.538 179.683C636.289 179.112 635.902 178.56 635.304 178.161C634.703 177.76 634.013 177.597 633.301 177.597V179.112ZM635.149 180.288L636.25 181.328C636.825 180.719 637.086 180.627 637.285 180.627V179.112V177.597C635.732 177.597 634.696 178.561 634.048 179.248L635.149 180.288ZM637.285 179.112V180.627C637.464 180.627 637.55 180.658 637.58 180.672C637.604 180.683 637.622 180.695 637.647 180.729C637.717 180.824 637.858 181.124 637.858 181.812H639.373H640.888C640.888 180.808 640.698 179.758 640.081 178.926C639.407 178.015 638.397 177.597 637.285 177.597V179.112ZM639.373 181.812H637.858V186H639.373H640.888V181.812H639.373ZM639.373 186V184.485H637.609V186V187.515H639.373V186ZM637.609 186H639.124V182.028H637.609H636.094V186H637.609ZM637.609 182.028H639.124C639.124 181.434 639.053 180.684 638.62 180.065C638.089 179.307 637.296 179.109 636.673 179.109V180.624V182.139C636.696 182.139 636.618 182.143 636.494 182.09C636.35 182.029 636.224 181.925 636.139 181.804C636.066 181.7 636.06 181.636 636.07 181.681C636.079 181.726 636.094 181.832 636.094 182.028H637.609ZM636.673 180.624V179.109C635.643 179.109 634.833 179.755 634.28 180.335L635.377 181.38L636.474 182.425C636.651 182.239 636.769 182.154 636.824 182.121C636.877 182.091 636.818 182.139 636.673 182.139V180.624ZM635.377 181.38H633.862V186H635.377H636.892V181.38H635.377ZM635.377 186V184.485H633.625V186V187.515H635.377V186ZM633.625 186H635.14V182.028H633.625H632.11V186H633.625ZM633.625 182.028H635.14C635.14 181.425 635.064 180.673 634.622 180.054C634.087 179.305 633.299 179.109 632.677 179.109V180.624V182.139C632.7 182.139 632.625 182.143 632.505 182.092C632.366 182.034 632.241 181.933 632.157 181.815C632.084 181.712 632.077 181.648 632.086 181.689C632.095 181.732 632.11 181.835 632.11 182.028H633.625ZM632.677 180.624V179.109C631.644 179.109 630.833 179.756 630.283 180.349L631.393 181.38L632.503 182.411C632.671 182.23 632.783 182.149 632.834 182.119C632.882 182.091 632.822 182.139 632.677 182.139V180.624ZM631.393 181.38H629.878V186H631.393H632.908V181.38H631.393ZM631.393 186V184.485H629.629V186V187.515H631.393V186Z" fill="black" fill-opacity="0.5" mask="url(#path-4-outside-1_1333_2364)"/>
<mask id="path-6-outside-2_1333_2364" maskUnits="userSpaceOnUse" x="476" y="174" width="78" height="17" fill="black">
<rect fill="white" x="476" y="174" width="78" height="17"/>
<path d="M484.111 177.304V179.18C484.111 181.504 485.021 183.842 487.093 184.864L485.973 186.32C484.629 185.634 483.719 184.388 483.187 182.848C482.627 184.486 481.661 185.844 480.205 186.558L479.099 185.06C481.269 184.038 482.249 181.574 482.249 179.18V177.304H484.111ZM491.335 181.266V182.806H489.459V189.204H487.611V176.31H489.459V181.266H491.335ZM500.63 187.58V186.432H495.758V187.58H500.63ZM500.63 185.032V183.8H502.464V189.05H493.924V183.8H495.758V185.032H500.63ZM495.24 181.462C496.192 181.462 496.878 180.888 496.878 179.922C496.878 178.956 496.192 178.382 495.24 178.382C494.302 178.382 493.616 178.956 493.616 179.922C493.616 180.888 494.302 181.462 495.24 181.462ZM500.616 176.31H502.464V183.24H500.616V180.65H498.572C498.222 182.05 496.906 183.002 495.24 183.002C493.308 183.002 491.852 181.714 491.852 179.922C491.852 178.13 493.308 176.842 495.24 176.842C496.878 176.842 498.194 177.78 498.558 179.152H500.616V176.31ZM506.187 179.292V184.78C507.391 184.752 508.483 184.682 509.715 184.458L509.855 185.956C508.287 186.25 506.915 186.306 505.263 186.306H504.367V177.794H509.141V179.292H506.187ZM513.313 176.296H515.063V189.204H513.313V182.75H512.151V188.602H510.429V176.548H512.151V181.266H513.313V176.296ZM523.924 182.022L522.958 183.45C521.6 183.002 520.662 182.134 520.116 181.042C519.556 182.302 518.562 183.296 517.092 183.814L516.126 182.358C518.282 181.644 519.15 179.922 519.15 178.172V177.01H521.026V178.326C521.026 179.88 521.894 181.392 523.924 182.022ZM522.258 187.776C523.896 187.776 524.778 187.44 524.778 186.712C524.778 185.998 523.896 185.662 522.258 185.662C520.606 185.662 519.724 185.998 519.724 186.712C519.724 187.44 520.606 187.776 522.258 187.776ZM522.258 184.234C524.932 184.234 526.612 185.158 526.612 186.712C526.612 188.28 524.932 189.204 522.258 189.204C519.57 189.204 517.89 188.28 517.89 186.712C517.89 185.158 519.57 184.234 522.258 184.234ZM526.472 179.306H528.18V180.832H526.472V183.94H524.624V176.324H526.472V179.306ZM540.303 182.54V184.024H535.347V189.204H533.471V184.024H528.655V182.54H536.775C537.097 180.902 537.125 179.642 537.125 178.536H529.985V177.052H538.931V178.214C538.931 179.418 538.931 180.734 538.609 182.54H540.303ZM542.962 185.984V184.528H551.74V189.218H549.892V185.984H542.962ZM547.848 180.846H549.892V179.516H547.848C547.89 179.726 547.918 179.936 547.918 180.174C547.918 180.398 547.89 180.622 547.848 180.846ZM544.516 181.798C545.468 181.798 546.168 181.196 546.168 180.174C546.168 179.166 545.468 178.564 544.516 178.564C543.578 178.564 542.878 179.166 542.878 180.174C542.878 181.196 543.578 181.798 544.516 181.798ZM549.892 176.31H551.74V183.94H549.892V182.316H547.092C546.476 182.974 545.552 183.38 544.516 183.38C542.612 183.38 541.128 182.036 541.128 180.174C541.128 178.326 542.612 176.982 544.516 176.982C545.566 176.982 546.49 177.388 547.106 178.046H549.892V176.31Z"/>
</mask>
<path d="M484.111 177.304V179.18C484.111 181.504 485.021 183.842 487.093 184.864L485.973 186.32C484.629 185.634 483.719 184.388 483.187 182.848C482.627 184.486 481.661 185.844 480.205 186.558L479.099 185.06C481.269 184.038 482.249 181.574 482.249 179.18V177.304H484.111ZM491.335 181.266V182.806H489.459V189.204H487.611V176.31H489.459V181.266H491.335ZM500.63 187.58V186.432H495.758V187.58H500.63ZM500.63 185.032V183.8H502.464V189.05H493.924V183.8H495.758V185.032H500.63ZM495.24 181.462C496.192 181.462 496.878 180.888 496.878 179.922C496.878 178.956 496.192 178.382 495.24 178.382C494.302 178.382 493.616 178.956 493.616 179.922C493.616 180.888 494.302 181.462 495.24 181.462ZM500.616 176.31H502.464V183.24H500.616V180.65H498.572C498.222 182.05 496.906 183.002 495.24 183.002C493.308 183.002 491.852 181.714 491.852 179.922C491.852 178.13 493.308 176.842 495.24 176.842C496.878 176.842 498.194 177.78 498.558 179.152H500.616V176.31ZM506.187 179.292V184.78C507.391 184.752 508.483 184.682 509.715 184.458L509.855 185.956C508.287 186.25 506.915 186.306 505.263 186.306H504.367V177.794H509.141V179.292H506.187ZM513.313 176.296H515.063V189.204H513.313V182.75H512.151V188.602H510.429V176.548H512.151V181.266H513.313V176.296ZM523.924 182.022L522.958 183.45C521.6 183.002 520.662 182.134 520.116 181.042C519.556 182.302 518.562 183.296 517.092 183.814L516.126 182.358C518.282 181.644 519.15 179.922 519.15 178.172V177.01H521.026V178.326C521.026 179.88 521.894 181.392 523.924 182.022ZM522.258 187.776C523.896 187.776 524.778 187.44 524.778 186.712C524.778 185.998 523.896 185.662 522.258 185.662C520.606 185.662 519.724 185.998 519.724 186.712C519.724 187.44 520.606 187.776 522.258 187.776ZM522.258 184.234C524.932 184.234 526.612 185.158 526.612 186.712C526.612 188.28 524.932 189.204 522.258 189.204C519.57 189.204 517.89 188.28 517.89 186.712C517.89 185.158 519.57 184.234 522.258 184.234ZM526.472 179.306H528.18V180.832H526.472V183.94H524.624V176.324H526.472V179.306ZM540.303 182.54V184.024H535.347V189.204H533.471V184.024H528.655V182.54H536.775C537.097 180.902 537.125 179.642 537.125 178.536H529.985V177.052H538.931V178.214C538.931 179.418 538.931 180.734 538.609 182.54H540.303ZM542.962 185.984V184.528H551.74V189.218H549.892V185.984H542.962ZM547.848 180.846H549.892V179.516H547.848C547.89 179.726 547.918 179.936 547.918 180.174C547.918 180.398 547.89 180.622 547.848 180.846ZM544.516 181.798C545.468 181.798 546.168 181.196 546.168 180.174C546.168 179.166 545.468 178.564 544.516 178.564C543.578 178.564 542.878 179.166 542.878 180.174C542.878 181.196 543.578 181.798 544.516 181.798ZM549.892 176.31H551.74V183.94H549.892V182.316H547.092C546.476 182.974 545.552 183.38 544.516 183.38C542.612 183.38 541.128 182.036 541.128 180.174C541.128 178.326 542.612 176.982 544.516 176.982C545.566 176.982 546.49 177.388 547.106 178.046H549.892V176.31Z" fill="white"/>
<path d="M484.111 177.304H485.626V175.789H484.111V177.304ZM487.093 184.864L488.294 185.788L489.421 184.323L487.763 183.506L487.093 184.864ZM485.973 186.32L485.285 187.669L486.406 188.242L487.174 187.244L485.973 186.32ZM483.187 182.848L484.619 182.353L483.18 178.187L481.754 182.358L483.187 182.848ZM480.205 186.558L478.987 187.458L479.737 188.474L480.872 187.918L480.205 186.558ZM479.099 185.06L478.454 183.69L476.785 184.476L477.881 185.96L479.099 185.06ZM482.249 177.304V175.789H480.735V177.304H482.249ZM491.335 181.266H492.85V179.751H491.335V181.266ZM491.335 182.806V184.321H492.85V182.806H491.335ZM489.459 182.806V181.291H487.945V182.806H489.459ZM489.459 189.204V190.719H490.974V189.204H489.459ZM487.611 189.204H486.097V190.719H487.611V189.204ZM487.611 176.31V174.795H486.097V176.31H487.611ZM489.459 176.31H490.974V174.795H489.459V176.31ZM489.459 181.266H487.945V182.781H489.459V181.266ZM484.111 177.304H482.597V179.18H484.111H485.626V177.304H484.111ZM484.111 179.18H482.597C482.597 181.812 483.63 184.845 486.423 186.222L487.093 184.864L487.763 183.506C486.412 182.839 485.626 181.196 485.626 179.18H484.111ZM487.093 184.864L485.893 183.94L484.773 185.396L485.973 186.32L487.174 187.244L488.294 185.788L487.093 184.864ZM485.973 186.32L486.662 184.971C485.76 184.51 485.062 183.635 484.619 182.353L483.187 182.848L481.756 183.343C482.377 185.141 483.499 186.758 485.285 187.669L485.973 186.32ZM483.187 182.848L481.754 182.358C481.278 183.75 480.524 184.715 479.538 185.198L480.205 186.558L480.872 187.918C482.799 186.973 483.976 185.222 484.621 183.338L483.187 182.848ZM480.205 186.558L481.424 185.658L480.318 184.16L479.099 185.06L477.881 185.96L478.987 187.458L480.205 186.558ZM479.099 185.06L479.745 186.43C482.655 185.06 483.764 181.887 483.764 179.18H482.249H480.735C480.735 181.261 479.884 183.016 478.454 183.69L479.099 185.06ZM482.249 179.18H483.764V177.304H482.249H480.735V179.18H482.249ZM482.249 177.304V178.819H484.111V177.304V175.789H482.249V177.304ZM491.335 181.266H489.821V182.806H491.335H492.85V181.266H491.335ZM491.335 182.806V181.291H489.459V182.806V184.321H491.335V182.806ZM489.459 182.806H487.945V189.204H489.459H490.974V182.806H489.459ZM489.459 189.204V187.689H487.611V189.204V190.719H489.459V189.204ZM487.611 189.204H489.126V176.31H487.611H486.097V189.204H487.611ZM487.611 176.31V177.825H489.459V176.31V174.795H487.611V176.31ZM489.459 176.31H487.945V181.266H489.459H490.974V176.31H489.459ZM489.459 181.266V182.781H491.335V181.266V179.751H489.459V181.266ZM500.63 187.58V189.095H502.145V187.58H500.63ZM500.63 186.432H502.145V184.917H500.63V186.432ZM495.758 186.432V184.917H494.243V186.432H495.758ZM495.758 187.58H494.243V189.095H495.758V187.58ZM500.63 185.032V186.547H502.145V185.032H500.63ZM500.63 183.8V182.285H499.115V183.8H500.63ZM502.464 183.8H503.979V182.285H502.464V183.8ZM502.464 189.05V190.565H503.979V189.05H502.464ZM493.924 189.05H492.409V190.565H493.924V189.05ZM493.924 183.8V182.285H492.409V183.8H493.924ZM495.758 183.8H497.273V182.285H495.758V183.8ZM495.758 185.032H494.243V186.547H495.758V185.032ZM500.616 176.31V174.795H499.101V176.31H500.616ZM502.464 176.31H503.979V174.795H502.464V176.31ZM502.464 183.24V184.755H503.979V183.24H502.464ZM500.616 183.24H499.101V184.755H500.616V183.24ZM500.616 180.65H502.131V179.135H500.616V180.65ZM498.572 180.65V179.135H497.39L497.103 180.283L498.572 180.65ZM498.558 179.152L497.094 179.54L497.393 180.667H498.558V179.152ZM500.616 179.152V180.667H502.131V179.152H500.616ZM500.63 187.58H502.145V186.432H500.63H499.115V187.58H500.63ZM500.63 186.432V184.917H495.758V186.432V187.947H500.63V186.432ZM495.758 186.432H494.243V187.58H495.758H497.273V186.432H495.758ZM495.758 187.58V189.095H500.63V187.58V186.065H495.758V187.58ZM500.63 185.032H502.145V183.8H500.63H499.115V185.032H500.63ZM500.63 183.8V185.315H502.464V183.8V182.285H500.63V183.8ZM502.464 183.8H500.949V189.05H502.464H503.979V183.8H502.464ZM502.464 189.05V187.535H493.924V189.05V190.565H502.464V189.05ZM493.924 189.05H495.439V183.8H493.924H492.409V189.05H493.924ZM493.924 183.8V185.315H495.758V183.8V182.285H493.924V183.8ZM495.758 183.8H494.243V185.032H495.758H497.273V183.8H495.758ZM495.758 185.032V186.547H500.63V185.032V183.517H495.758V185.032ZM495.24 181.462V182.977C496.015 182.977 496.813 182.741 497.435 182.175C498.075 181.593 498.393 180.785 498.393 179.922H496.878H495.363C495.363 179.983 495.353 179.999 495.358 179.987C495.364 179.972 495.378 179.951 495.397 179.934C495.415 179.918 495.421 179.919 495.4 179.926C495.378 179.934 495.327 179.947 495.24 179.947V181.462ZM496.878 179.922H498.393C498.393 179.059 498.075 178.251 497.435 177.669C496.813 177.103 496.015 176.867 495.24 176.867V178.382V179.897C495.327 179.897 495.378 179.91 495.4 179.918C495.421 179.925 495.415 179.926 495.397 179.91C495.378 179.893 495.364 179.872 495.358 179.857C495.353 179.845 495.363 179.861 495.363 179.922H496.878ZM495.24 178.382V176.867C494.467 176.867 493.672 177.106 493.054 177.672C492.419 178.253 492.101 179.06 492.101 179.922H493.616H495.131C495.131 179.861 495.141 179.844 495.136 179.856C495.131 179.869 495.118 179.89 495.099 179.907C495.082 179.923 495.074 179.922 495.093 179.916C495.112 179.909 495.159 179.897 495.24 179.897V178.382ZM493.616 179.922H492.101C492.101 180.784 492.419 181.591 493.054 182.172C493.672 182.738 494.467 182.977 495.24 182.977V181.462V179.947C495.159 179.947 495.112 179.935 495.093 179.928C495.074 179.922 495.082 179.921 495.099 179.937C495.118 179.954 495.131 179.975 495.136 179.988C495.141 180 495.131 179.983 495.131 179.922H493.616ZM500.616 176.31V177.825H502.464V176.31V174.795H500.616V176.31ZM502.464 176.31H500.949V183.24H502.464H503.979V176.31H502.464ZM502.464 183.24V181.725H500.616V183.24V184.755H502.464V183.24ZM500.616 183.24H502.131V180.65H500.616H499.101V183.24H500.616ZM500.616 180.65V179.135H498.572V180.65V182.165H500.616V180.65ZM498.572 180.65L497.103 180.283C496.948 180.9 496.33 181.487 495.24 181.487V183.002V184.517C497.483 184.517 499.496 183.2 500.042 181.017L498.572 180.65ZM495.24 183.002V181.487C493.994 181.487 493.367 180.734 493.367 179.922H491.852H490.337C490.337 182.694 492.623 184.517 495.24 184.517V183.002ZM491.852 179.922H493.367C493.367 179.11 493.994 178.357 495.24 178.357V176.842V175.327C492.623 175.327 490.337 177.15 490.337 179.922H491.852ZM495.24 176.842V178.357C496.308 178.357 496.934 178.939 497.094 179.54L498.558 179.152L500.022 178.764C499.454 176.621 497.449 175.327 495.24 175.327V176.842ZM498.558 179.152V180.667H500.616V179.152V177.637H498.558V179.152ZM500.616 179.152H502.131V176.31H500.616H499.101V179.152H500.616ZM506.187 179.292V177.777H504.672V179.292H506.187ZM506.187 184.78H504.672V186.33L506.222 186.294L506.187 184.78ZM509.715 184.458L511.223 184.317L511.07 182.672L509.444 182.968L509.715 184.458ZM509.855 185.956L510.134 187.445L511.492 187.19L511.363 185.815L509.855 185.956ZM504.367 186.306H502.852V187.821H504.367V186.306ZM504.367 177.794V176.279H502.852V177.794H504.367ZM509.141 177.794H510.656V176.279H509.141V177.794ZM509.141 179.292V180.807H510.656V179.292H509.141ZM513.313 176.296V174.781H511.798V176.296H513.313ZM515.063 176.296H516.578V174.781H515.063V176.296ZM515.063 189.204V190.719H516.578V189.204H515.063ZM513.313 189.204H511.798V190.719H513.313V189.204ZM513.313 182.75H514.828V181.235H513.313V182.75ZM512.151 182.75V181.235H510.636V182.75H512.151ZM512.151 188.602V190.117H513.666V188.602H512.151ZM510.429 188.602H508.914V190.117H510.429V188.602ZM510.429 176.548V175.033H508.914V176.548H510.429ZM512.151 176.548H513.666V175.033H512.151V176.548ZM512.151 181.266H510.636V182.781H512.151V181.266ZM513.313 181.266V182.781H514.828V181.266H513.313ZM506.187 179.292H504.672V184.78H506.187H507.702V179.292H506.187ZM506.187 184.78L506.222 186.294C507.467 186.265 508.646 186.192 509.986 185.948L509.715 184.458L509.444 182.968C508.32 183.172 507.315 183.239 506.152 183.266L506.187 184.78ZM509.715 184.458L508.207 184.599L508.347 186.097L509.855 185.956L511.363 185.815L511.223 184.317L509.715 184.458ZM509.855 185.956L509.576 184.467C508.143 184.736 506.878 184.791 505.263 184.791V186.306V187.821C506.952 187.821 508.431 187.764 510.134 187.445L509.855 185.956ZM505.263 186.306V184.791H504.367V186.306V187.821H505.263V186.306ZM504.367 186.306H505.882V177.794H504.367H502.852V186.306H504.367ZM504.367 177.794V179.309H509.141V177.794V176.279H504.367V177.794ZM509.141 177.794H507.626V179.292H509.141H510.656V177.794H509.141ZM509.141 179.292V177.777H506.187V179.292V180.807H509.141V179.292ZM513.313 176.296V177.811H515.063V176.296V174.781H513.313V176.296ZM515.063 176.296H513.548V189.204H515.063H516.578V176.296H515.063ZM515.063 189.204V187.689H513.313V189.204V190.719H515.063V189.204ZM513.313 189.204H514.828V182.75H513.313H511.798V189.204H513.313ZM513.313 182.75V181.235H512.151V182.75V184.265H513.313V182.75ZM512.151 182.75H510.636V188.602H512.151H513.666V182.75H512.151ZM512.151 188.602V187.087H510.429V188.602V190.117H512.151V188.602ZM510.429 188.602H511.944V176.548H510.429H508.914V188.602H510.429ZM510.429 176.548V178.063H512.151V176.548V175.033H510.429V176.548ZM512.151 176.548H510.636V181.266H512.151H513.666V176.548H512.151ZM512.151 181.266V182.781H513.313V181.266V179.751H512.151V181.266ZM513.313 181.266H514.828V176.296H513.313H511.798V181.266H513.313ZM523.924 182.022L525.179 182.871L526.322 181.18L524.373 180.575L523.924 182.022ZM522.958 183.45L522.483 184.888L523.571 185.247L524.213 184.299L522.958 183.45ZM520.116 181.042L521.471 180.365L520.035 177.494L518.732 180.427L520.116 181.042ZM517.092 183.814L515.83 184.651L516.482 185.635L517.595 185.243L517.092 183.814ZM516.126 182.358L515.65 180.92L513.768 181.543L514.864 183.195L516.126 182.358ZM519.15 177.01V175.495H517.635V177.01H519.15ZM521.026 177.01H522.541V175.495H521.026V177.01ZM526.472 179.306H524.957V180.821H526.472V179.306ZM528.18 179.306H529.695V177.791H528.18V179.306ZM528.18 180.832V182.347H529.695V180.832H528.18ZM526.472 180.832V179.317H524.957V180.832H526.472ZM526.472 183.94V185.455H527.987V183.94H526.472ZM524.624 183.94H523.109V185.455H524.624V183.94ZM524.624 176.324V174.809H523.109V176.324H524.624ZM526.472 176.324H527.987V174.809H526.472V176.324ZM523.924 182.022L522.669 181.173L521.703 182.601L522.958 183.45L524.213 184.299L525.179 182.871L523.924 182.022ZM522.958 183.45L523.433 182.012C522.46 181.691 521.838 181.098 521.471 180.365L520.116 181.042L518.761 181.719C519.486 183.17 520.74 184.313 522.483 184.888L522.958 183.45ZM520.116 181.042L518.732 180.427C518.334 181.321 517.65 182.011 516.589 182.385L517.092 183.814L517.595 185.243C519.474 184.581 520.778 183.283 521.5 181.657L520.116 181.042ZM517.092 183.814L518.354 182.977L517.388 181.521L516.126 182.358L514.864 183.195L515.83 184.651L517.092 183.814ZM516.126 182.358L516.602 183.796C519.477 182.844 520.665 180.465 520.665 178.172H519.15H517.635C517.635 179.379 517.087 180.444 515.65 180.92L516.126 182.358ZM519.15 178.172H520.665V177.01H519.15H517.635V178.172H519.15ZM519.15 177.01V178.525H521.026V177.01V175.495H519.15V177.01ZM521.026 177.01H519.511V178.326H521.026H522.541V177.01H521.026ZM521.026 178.326H519.511C519.511 180.521 520.79 182.635 523.475 183.469L523.924 182.022L524.373 180.575C522.998 180.149 522.541 179.239 522.541 178.326H521.026ZM522.258 187.776V189.291C523.135 189.291 524.005 189.207 524.709 188.918C525.075 188.767 525.477 188.528 525.792 188.138C526.127 187.724 526.293 187.226 526.293 186.712H524.778H523.263C523.263 186.562 523.318 186.379 523.437 186.233C523.536 186.111 523.615 186.092 523.556 186.116C523.499 186.14 523.37 186.18 523.137 186.211C522.91 186.243 522.619 186.261 522.258 186.261V187.776ZM524.778 186.712H526.293C526.293 186.194 526.123 185.696 525.785 185.286C525.469 184.9 525.068 184.665 524.704 184.516C524.003 184.231 523.136 184.147 522.258 184.147V185.662V187.177C522.619 187.177 522.91 187.195 523.138 187.227C523.371 187.258 523.502 187.298 523.561 187.322C523.622 187.347 523.544 187.329 523.444 187.208C523.323 187.061 523.263 186.873 523.263 186.712H524.778ZM522.258 185.662V184.147C521.374 184.147 520.504 184.231 519.802 184.516C519.437 184.664 519.035 184.899 518.718 185.284C518.379 185.696 518.209 186.193 518.209 186.712H519.724H521.239C521.239 186.874 521.179 187.061 521.057 187.209C520.957 187.331 520.879 187.348 520.941 187.323C521.001 187.299 521.133 187.259 521.368 187.227C521.599 187.196 521.893 187.177 522.258 187.177V185.662ZM519.724 186.712H518.209C518.209 187.227 518.375 187.724 518.711 188.139C519.027 188.529 519.43 188.768 519.797 188.919C520.502 189.208 521.375 189.291 522.258 189.291V187.776V186.261C521.893 186.261 521.599 186.242 521.369 186.211C521.135 186.179 521.004 186.139 520.946 186.115C520.886 186.091 520.965 186.109 521.064 186.232C521.184 186.379 521.239 186.561 521.239 186.712H519.724ZM522.258 184.234V185.749C523.453 185.749 524.251 185.96 524.694 186.21C525.078 186.426 525.097 186.593 525.097 186.712H526.612H528.127C528.127 185.277 527.306 184.205 526.182 183.571C525.116 182.97 523.737 182.719 522.258 182.719V184.234ZM526.612 186.712H525.097C525.097 186.843 525.072 187.012 524.692 187.228C524.25 187.478 523.453 187.689 522.258 187.689V189.204V190.719C523.737 190.719 525.117 190.468 526.184 189.864C527.312 189.226 528.127 188.149 528.127 186.712H526.612ZM522.258 189.204V187.689C521.055 187.689 520.254 187.477 519.811 187.227C519.429 187.012 519.405 186.843 519.405 186.712H517.89H516.375C516.375 188.149 517.191 189.226 518.321 189.865C519.39 190.469 520.773 190.719 522.258 190.719V189.204ZM517.89 186.712H519.405C519.405 186.594 519.424 186.427 519.809 186.21C520.253 185.961 521.055 185.749 522.258 185.749V184.234V182.719C520.773 182.719 519.391 182.969 518.323 183.57C517.196 184.204 516.375 185.276 516.375 186.712H517.89ZM526.472 179.306V180.821H528.18V179.306V177.791H526.472V179.306ZM528.18 179.306H526.665V180.832H528.18H529.695V179.306H528.18ZM528.18 180.832V179.317H526.472V180.832V182.347H528.18V180.832ZM526.472 180.832H524.957V183.94H526.472H527.987V180.832H526.472ZM526.472 183.94V182.425H524.624V183.94V185.455H526.472V183.94ZM524.624 183.94H526.139V176.324H524.624H523.109V183.94H524.624ZM524.624 176.324V177.839H526.472V176.324V174.809H524.624V176.324ZM526.472 176.324H524.957V179.306H526.472H527.987V176.324H526.472ZM540.303 182.54H541.818V181.025H540.303V182.54ZM540.303 184.024V185.539H541.818V184.024H540.303ZM535.347 184.024V182.509H533.832V184.024H535.347ZM535.347 189.204V190.719H536.862V189.204H535.347ZM533.471 189.204H531.956V190.719H533.471V189.204ZM533.471 184.024H534.986V182.509H533.471V184.024ZM528.655 184.024H527.14V185.539H528.655V184.024ZM528.655 182.54V181.025H527.14V182.54H528.655ZM536.775 182.54V184.055H538.021L538.261 182.832L536.775 182.54ZM537.125 178.536H538.64V177.021H537.125V178.536ZM529.985 178.536H528.47V180.051H529.985V178.536ZM529.985 177.052V175.537H528.47V177.052H529.985ZM538.931 177.052H540.446V175.537H538.931V177.052ZM538.609 182.54L537.118 182.274L536.8 184.055H538.609V182.54ZM540.303 182.54H538.788V184.024H540.303H541.818V182.54H540.303ZM540.303 184.024V182.509H535.347V184.024V185.539H540.303V184.024ZM535.347 184.024H533.832V189.204H535.347H536.862V184.024H535.347ZM535.347 189.204V187.689H533.471V189.204V190.719H535.347V189.204ZM533.471 189.204H534.986V184.024H533.471H531.956V189.204H533.471ZM533.471 184.024V182.509H528.655V184.024V185.539H533.471V184.024ZM528.655 184.024H530.17V182.54H528.655H527.14V184.024H528.655ZM528.655 182.54V184.055H536.775V182.54V181.025H528.655V182.54ZM536.775 182.54L538.261 182.832C538.611 181.054 538.64 179.682 538.64 178.536H537.125H535.61C535.61 179.602 535.583 180.75 535.289 182.248L536.775 182.54ZM537.125 178.536V177.021H529.985V178.536V180.051H537.125V178.536ZM529.985 178.536H531.5V177.052H529.985H528.47V178.536H529.985ZM529.985 177.052V178.567H538.931V177.052V175.537H529.985V177.052ZM538.931 177.052H537.416V178.214H538.931H540.446V177.052H538.931ZM538.931 178.214H537.416C537.416 179.403 537.415 180.607 537.118 182.274L538.609 182.54L540.1 182.806C540.447 180.861 540.446 179.433 540.446 178.214H538.931ZM538.609 182.54V184.055H540.303V182.54V181.025H538.609V182.54ZM542.962 185.984H541.447V187.499H542.962V185.984ZM542.962 184.528V183.013H541.447V184.528H542.962ZM551.74 184.528H553.255V183.013H551.74V184.528ZM551.74 189.218V190.733H553.255V189.218H551.74ZM549.892 189.218H548.377V190.733H549.892V189.218ZM549.892 185.984H551.407V184.469H549.892V185.984ZM547.848 180.846L546.359 180.567L546.023 182.361H547.848V180.846ZM549.892 180.846V182.361H551.407V180.846H549.892ZM549.892 179.516H551.407V178.001H549.892V179.516ZM547.848 179.516V178.001H546L546.363 179.813L547.848 179.516ZM549.892 176.31V174.795H548.377V176.31H549.892ZM551.74 176.31H553.255V174.795H551.74V176.31ZM551.74 183.94V185.455H553.255V183.94H551.74ZM549.892 183.94H548.377V185.455H549.892V183.94ZM549.892 182.316H551.407V180.801H549.892V182.316ZM547.092 182.316V180.801H546.435L545.986 181.281L547.092 182.316ZM547.106 178.046L546 179.081L546.449 179.561H547.106V178.046ZM549.892 178.046V179.561H551.407V178.046H549.892ZM542.962 185.984H544.477V184.528H542.962H541.447V185.984H542.962ZM542.962 184.528V186.043H551.74V184.528V183.013H542.962V184.528ZM551.74 184.528H550.225V189.218H551.74H553.255V184.528H551.74ZM551.74 189.218V187.703H549.892V189.218V190.733H551.74V189.218ZM549.892 189.218H551.407V185.984H549.892H548.377V189.218H549.892ZM549.892 185.984V184.469H542.962V185.984V187.499H549.892V185.984ZM547.848 180.846V182.361H549.892V180.846V179.331H547.848V180.846ZM549.892 180.846H551.407V179.516H549.892H548.377V180.846H549.892ZM549.892 179.516V178.001H547.848V179.516V181.031H549.892V179.516ZM547.848 179.516L546.363 179.813C546.391 179.954 546.403 180.062 546.403 180.174H547.918H549.433C549.433 179.81 549.389 179.498 549.333 179.219L547.848 179.516ZM547.918 180.174H546.403C546.403 180.274 546.39 180.4 546.359 180.567L547.848 180.846L549.337 181.125C549.389 180.844 549.433 180.522 549.433 180.174H547.918ZM544.516 181.798V183.313C545.31 183.313 546.118 183.058 546.74 182.469C547.374 181.87 547.683 181.047 547.683 180.174H546.168H544.653C544.653 180.256 544.639 180.291 544.638 180.294C544.638 180.295 544.643 180.283 544.658 180.269C544.671 180.257 544.676 180.258 544.659 180.264C544.64 180.271 544.595 180.283 544.516 180.283V181.798ZM546.168 180.174H547.683C547.683 179.302 547.37 178.483 546.737 177.888C546.116 177.304 545.309 177.049 544.516 177.049V178.564V180.079C544.595 180.079 544.641 180.091 544.66 180.098C544.678 180.105 544.674 180.107 544.661 180.094C544.655 180.089 544.65 180.083 544.646 180.076C544.641 180.07 544.64 180.066 544.64 180.067C544.64 180.067 544.653 180.098 544.653 180.174H546.168ZM544.516 178.564V177.049C543.724 177.049 542.921 177.307 542.304 177.891C541.676 178.485 541.363 179.303 541.363 180.174H542.878H544.393C544.393 180.098 544.405 180.067 544.406 180.066C544.406 180.065 544.405 180.068 544.401 180.074C544.397 180.08 544.392 180.086 544.386 180.091C544.373 180.103 544.369 180.102 544.384 180.097C544.401 180.09 544.443 180.079 544.516 180.079V178.564ZM542.878 180.174H541.363C541.363 181.047 541.672 181.867 542.301 182.466C542.919 183.055 543.724 183.313 544.516 183.313V181.798V180.283C544.443 180.283 544.401 180.272 544.385 180.266C544.371 180.26 544.377 180.26 544.39 180.272C544.403 180.285 544.409 180.297 544.408 180.295C544.406 180.291 544.393 180.256 544.393 180.174H542.878ZM549.892 176.31V177.825H551.74V176.31V174.795H549.892V176.31ZM551.74 176.31H550.225V183.94H551.74H553.255V176.31H551.74ZM551.74 183.94V182.425H549.892V183.94V185.455H551.74V183.94ZM549.892 183.94H551.407V182.316H549.892H548.377V183.94H549.892ZM549.892 182.316V180.801H547.092V182.316V183.831H549.892V182.316ZM547.092 182.316L545.986 181.281C545.674 181.615 545.159 181.865 544.516 181.865V183.38V184.895C545.945 184.895 547.278 184.333 548.198 183.351L547.092 182.316ZM544.516 183.38V181.865C543.349 181.865 542.643 181.104 542.643 180.174H541.128H539.613C539.613 182.968 541.874 184.895 544.516 184.895V183.38ZM541.128 180.174H542.643C542.643 179.263 543.345 178.497 544.516 178.497V176.982V175.467C541.879 175.467 539.613 177.389 539.613 180.174H541.128ZM544.516 176.982V178.497C545.176 178.497 545.69 178.75 546 179.081L547.106 178.046L548.212 177.011C547.29 176.026 545.956 175.467 544.516 175.467V176.982ZM547.106 178.046V179.561H549.892V178.046V176.531H547.106V178.046ZM549.892 178.046H551.407V176.31H549.892H548.377V178.046H549.892Z" fill="black" fill-opacity="0.5" mask="url(#path-6-outside-2_1333_2364)"/>
<mask id="path-8-outside-3_1333_2364" maskUnits="userSpaceOnUse" x="692" y="175" width="45" height="13" fill="black">
<rect fill="white" x="692" y="175" width="45" height="13"/>
<path d="M697.437 181.872C696.981 181.872 696.441 182.124 695.997 182.82C696.165 184.284 696.765 184.836 697.497 184.836C698.169 184.836 698.709 184.32 698.709 183.288C698.709 182.316 698.205 181.872 697.437 181.872ZM697.533 186.168C695.853 186.168 694.341 184.872 694.341 181.908C694.341 178.608 695.985 177.18 697.785 177.18C698.865 177.18 699.657 177.636 700.185 178.188L699.249 179.244C698.937 178.896 698.397 178.608 697.881 178.608C696.861 178.608 696.021 179.364 695.949 181.596C696.441 180.984 697.197 180.624 697.773 180.624C699.261 180.624 700.329 181.476 700.329 183.288C700.329 185.064 699.057 186.168 697.533 186.168ZM703.879 186.168C702.055 186.168 700.867 184.572 700.867 181.632C700.867 178.704 702.055 177.18 703.879 177.18C705.703 177.18 706.879 178.716 706.879 181.632C706.879 184.572 705.703 186.168 703.879 186.168ZM703.879 184.788C704.647 184.788 705.211 184.044 705.211 181.632C705.211 179.232 704.647 178.56 703.879 178.56C703.111 178.56 702.535 179.232 702.535 181.632C702.535 184.044 703.111 184.788 703.879 184.788ZM708.87 186.168C708.246 186.168 707.778 185.664 707.778 185.016C707.778 184.356 708.246 183.864 708.87 183.864C709.506 183.864 709.974 184.356 709.974 185.016C709.974 185.664 709.506 186.168 708.87 186.168ZM713.888 186.168C712.064 186.168 710.876 184.572 710.876 181.632C710.876 178.704 712.064 177.18 713.888 177.18C715.712 177.18 716.888 178.716 716.888 181.632C716.888 184.572 715.712 186.168 713.888 186.168ZM713.888 184.788C714.656 184.788 715.22 184.044 715.22 181.632C715.22 179.232 714.656 178.56 713.888 178.56C713.12 178.56 712.544 179.232 712.544 181.632C712.544 184.044 713.12 184.788 713.888 184.788ZM718.026 186V177.108H719.802V180.972H719.838L722.778 177.108H724.734L722.022 180.612L725.214 186H723.27L720.966 182.004L719.802 183.504V186H718.026ZM725.629 186V179.28H727.069L727.201 180.18H727.237C727.801 179.592 728.425 179.112 729.301 179.112C730.261 179.112 730.825 179.544 731.149 180.288C731.761 179.64 732.409 179.112 733.285 179.112C734.713 179.112 735.373 180.12 735.373 181.812V186H733.609V182.028C733.609 180.984 733.309 180.624 732.673 180.624C732.289 180.624 731.857 180.876 731.377 181.38V186H729.625V182.028C729.625 180.984 729.313 180.624 728.677 180.624C728.293 180.624 727.861 180.876 727.393 181.38V186H725.629Z"/>
</mask>
<path d="M697.437 181.872C696.981 181.872 696.441 182.124 695.997 182.82C696.165 184.284 696.765 184.836 697.497 184.836C698.169 184.836 698.709 184.32 698.709 183.288C698.709 182.316 698.205 181.872 697.437 181.872ZM697.533 186.168C695.853 186.168 694.341 184.872 694.341 181.908C694.341 178.608 695.985 177.18 697.785 177.18C698.865 177.18 699.657 177.636 700.185 178.188L699.249 179.244C698.937 178.896 698.397 178.608 697.881 178.608C696.861 178.608 696.021 179.364 695.949 181.596C696.441 180.984 697.197 180.624 697.773 180.624C699.261 180.624 700.329 181.476 700.329 183.288C700.329 185.064 699.057 186.168 697.533 186.168ZM703.879 186.168C702.055 186.168 700.867 184.572 700.867 181.632C700.867 178.704 702.055 177.18 703.879 177.18C705.703 177.18 706.879 178.716 706.879 181.632C706.879 184.572 705.703 186.168 703.879 186.168ZM703.879 184.788C704.647 184.788 705.211 184.044 705.211 181.632C705.211 179.232 704.647 178.56 703.879 178.56C703.111 178.56 702.535 179.232 702.535 181.632C702.535 184.044 703.111 184.788 703.879 184.788ZM708.87 186.168C708.246 186.168 707.778 185.664 707.778 185.016C707.778 184.356 708.246 183.864 708.87 183.864C709.506 183.864 709.974 184.356 709.974 185.016C709.974 185.664 709.506 186.168 708.87 186.168ZM713.888 186.168C712.064 186.168 710.876 184.572 710.876 181.632C710.876 178.704 712.064 177.18 713.888 177.18C715.712 177.18 716.888 178.716 716.888 181.632C716.888 184.572 715.712 186.168 713.888 186.168ZM713.888 184.788C714.656 184.788 715.22 184.044 715.22 181.632C715.22 179.232 714.656 178.56 713.888 178.56C713.12 178.56 712.544 179.232 712.544 181.632C712.544 184.044 713.12 184.788 713.888 184.788ZM718.026 186V177.108H719.802V180.972H719.838L722.778 177.108H724.734L722.022 180.612L725.214 186H723.27L720.966 182.004L719.802 183.504V186H718.026ZM725.629 186V179.28H727.069L727.201 180.18H727.237C727.801 179.592 728.425 179.112 729.301 179.112C730.261 179.112 730.825 179.544 731.149 180.288C731.761 179.64 732.409 179.112 733.285 179.112C734.713 179.112 735.373 180.12 735.373 181.812V186H733.609V182.028C733.609 180.984 733.309 180.624 732.673 180.624C732.289 180.624 731.857 180.876 731.377 181.38V186H729.625V182.028C729.625 180.984 729.313 180.624 728.677 180.624C728.293 180.624 727.861 180.876 727.393 181.38V186H725.629Z" fill="white"/>
<path d="M695.997 182.82L694.72 182.005L694.431 182.459L694.492 182.993L695.997 182.82ZM700.185 178.188L701.318 179.193L702.243 178.149L701.279 177.141L700.185 178.188ZM699.249 179.244L698.121 180.255L699.255 181.52L700.382 180.249L699.249 179.244ZM695.949 181.596L694.435 181.547L694.289 186.079L697.129 182.545L695.949 181.596ZM697.437 181.872V180.357C696.367 180.357 695.386 180.961 694.72 182.005L695.997 182.82L697.274 183.635C697.39 183.452 697.477 183.392 697.497 183.38C697.515 183.37 697.494 183.387 697.437 183.387V181.872ZM695.997 182.82L694.492 182.993C694.593 183.877 694.845 184.703 695.363 185.336C695.928 186.027 696.7 186.351 697.497 186.351V184.836V183.321C697.507 183.321 697.552 183.324 697.612 183.351C697.673 183.38 697.704 183.413 697.708 183.418C697.708 183.418 697.699 183.407 697.684 183.38C697.669 183.352 697.649 183.309 697.627 183.247C697.582 183.119 697.534 182.926 697.502 182.647L695.997 182.82ZM697.497 184.836V186.351C698.243 186.351 698.981 186.052 699.51 185.429C700.021 184.827 700.223 184.058 700.223 183.288H698.709H697.194C697.194 183.55 697.127 183.555 697.2 183.469C697.236 183.426 697.289 183.384 697.354 183.355C697.418 183.327 697.47 183.321 697.497 183.321V184.836ZM698.709 183.288H700.223C700.223 182.553 700.031 181.771 699.456 181.169C698.872 180.558 698.11 180.357 697.437 180.357V181.872V183.387C697.485 183.387 697.48 183.394 697.439 183.379C697.392 183.362 697.326 183.325 697.265 183.262C697.205 183.199 697.184 183.145 697.181 183.134C697.179 183.129 697.194 183.173 697.194 183.288H698.709ZM697.533 186.168V184.653C697.101 184.653 696.74 184.498 696.463 184.171C696.17 183.824 695.855 183.143 695.855 181.908H694.341H692.826C692.826 183.637 693.268 185.086 694.151 186.128C695.05 187.19 696.284 187.683 697.533 187.683V186.168ZM694.341 181.908H695.855C695.855 180.497 696.207 179.693 696.555 179.272C696.886 178.872 697.308 178.695 697.785 178.695V177.18V175.665C696.462 175.665 695.162 176.202 694.22 177.341C693.297 178.459 692.826 180.019 692.826 181.908H694.341ZM697.785 177.18V178.695C698.396 178.695 698.807 178.939 699.09 179.235L700.185 178.188L701.279 177.141C700.507 176.333 699.334 175.665 697.785 175.665V177.18ZM700.185 178.188L699.051 177.183L698.115 178.239L699.249 179.244L700.382 180.249L701.318 179.193L700.185 178.188ZM699.249 179.244L700.377 178.233C699.825 177.617 698.893 177.093 697.881 177.093V178.608V180.123C697.866 180.123 697.904 180.122 697.981 180.159C698.015 180.175 698.047 180.195 698.075 180.215C698.102 180.236 698.117 180.251 698.121 180.255L699.249 179.244ZM697.881 178.608V177.093C696.947 177.093 696.006 177.466 695.342 178.364C694.735 179.183 694.476 180.285 694.435 181.547L695.949 181.596L697.463 181.645C697.494 180.675 697.69 180.283 697.777 180.166C697.81 180.121 697.821 180.123 697.807 180.13C697.798 180.134 697.814 180.123 697.881 180.123V178.608ZM695.949 181.596L697.129 182.545C697.233 182.417 697.374 182.304 697.524 182.226C697.684 182.144 697.779 182.139 697.773 182.139V180.624V179.109C696.673 179.109 695.505 179.731 694.768 180.647L695.949 181.596ZM697.773 180.624V182.139C698.235 182.139 698.455 182.268 698.554 182.364C698.643 182.45 698.814 182.683 698.814 183.288H700.329H701.843C701.843 182.081 701.48 180.982 700.663 180.189C699.856 179.406 698.798 179.109 697.773 179.109V180.624ZM700.329 183.288H698.814C698.814 184.198 698.25 184.653 697.533 184.653V186.168V187.683C699.863 187.683 701.843 185.93 701.843 183.288H700.329ZM703.879 186.168V184.653C703.475 184.653 703.186 184.507 702.939 184.147C702.648 183.722 702.382 182.927 702.382 181.632H700.867H699.352C699.352 183.277 699.68 184.75 700.439 185.858C701.242 187.031 702.459 187.683 703.879 187.683V186.168ZM700.867 181.632H702.382C702.382 180.343 702.648 179.578 702.928 179.179C703.163 178.845 703.448 178.695 703.879 178.695V177.18V175.665C702.486 175.665 701.265 176.277 700.45 177.437C699.68 178.532 699.352 179.993 699.352 181.632H700.867ZM703.879 177.18V178.695C704.305 178.695 704.587 178.844 704.821 179.179C705.101 179.58 705.364 180.347 705.364 181.632H706.879H708.394C708.394 180.001 708.07 178.542 707.306 177.446C706.495 176.284 705.278 175.665 703.879 175.665V177.18ZM706.879 181.632H705.364C705.364 182.93 705.1 183.726 704.811 184.15C704.567 184.509 704.282 184.653 703.879 184.653V186.168V187.683C705.3 187.683 706.515 187.029 707.315 185.855C708.07 184.746 708.394 183.274 708.394 181.632H706.879ZM703.879 184.788V186.303C704.328 186.303 704.809 186.19 705.253 185.894C705.687 185.604 705.989 185.202 706.195 184.777C706.586 183.974 706.726 182.903 706.726 181.632H705.211H703.696C703.696 182.773 703.554 183.28 703.471 183.452C703.441 183.514 703.458 183.449 703.57 183.374C703.692 183.293 703.815 183.273 703.879 183.273V184.788ZM705.211 181.632H706.726C706.726 180.371 706.587 179.307 706.184 178.512C705.969 178.085 705.655 177.694 705.214 177.418C704.769 177.14 704.299 177.045 703.879 177.045V178.56V180.075C703.843 180.075 703.732 180.064 703.609 179.987C703.489 179.912 703.461 179.839 703.482 179.88C703.553 180.021 703.696 180.493 703.696 181.632H705.211ZM703.879 178.56V177.045C703.459 177.045 702.991 177.14 702.547 177.415C702.106 177.689 701.79 178.078 701.571 178.505C701.163 179.302 701.02 180.368 701.02 181.632H702.535H704.05C704.05 180.496 704.196 180.026 704.267 179.887C704.288 179.846 704.261 179.917 704.144 179.99C704.024 180.064 703.915 180.075 703.879 180.075V178.56ZM702.535 181.632H701.02C701.02 182.907 701.164 183.979 701.56 184.784C701.77 185.21 702.074 185.609 702.508 185.896C702.951 186.19 703.431 186.303 703.879 186.303V184.788V183.273C703.943 183.273 704.064 183.293 704.182 183.372C704.292 183.445 704.308 183.507 704.278 183.445C704.194 183.275 704.05 182.769 704.05 181.632H702.535ZM708.87 186.168V184.653C708.983 184.653 709.106 184.705 709.192 184.796C709.274 184.883 709.292 184.972 709.292 185.016H707.778H706.263C706.263 186.414 707.325 187.683 708.87 187.683V186.168ZM707.778 185.016H709.292C709.292 185.049 709.277 185.142 709.188 185.235C709.096 185.332 708.971 185.379 708.87 185.379V183.864V182.349C707.335 182.349 706.263 183.595 706.263 185.016H707.778ZM708.87 183.864V185.379C708.782 185.379 708.66 185.338 708.565 185.239C708.474 185.144 708.459 185.05 708.459 185.016H709.974H711.488C711.488 183.584 710.405 182.349 708.87 182.349V183.864ZM709.974 185.016H708.459C708.459 184.971 708.478 184.88 708.561 184.792C708.65 184.699 708.771 184.653 708.87 184.653V186.168V187.683C710.415 187.683 711.488 186.425 711.488 185.016H709.974ZM713.888 186.168V184.653C713.484 184.653 713.195 184.507 712.948 184.147C712.657 183.722 712.391 182.927 712.391 181.632H710.876H709.361C709.361 183.277 709.689 184.75 710.448 185.858C711.251 187.031 712.468 187.683 713.888 187.683V186.168ZM710.876 181.632H712.391C712.391 180.343 712.657 179.578 712.937 179.179C713.172 178.845 713.457 178.695 713.888 178.695V177.18V175.665C712.495 175.665 711.274 176.277 710.459 177.437C709.689 178.532 709.361 179.993 709.361 181.632H710.876ZM713.888 177.18V178.695C714.313 178.695 714.596 178.844 714.829 179.179C715.109 179.58 715.373 180.347 715.373 181.632H716.888H718.403C718.403 180.001 718.078 178.542 717.314 177.446C716.504 176.284 715.286 175.665 713.888 175.665V177.18ZM716.888 181.632H715.373C715.373 182.93 715.109 183.726 714.82 184.15C714.576 184.509 714.291 184.653 713.888 184.653V186.168V187.683C715.309 187.683 716.524 187.029 717.324 185.855C718.079 184.746 718.403 183.274 718.403 181.632H716.888ZM713.888 184.788V186.303C714.336 186.303 714.818 186.19 715.261 185.894C715.695 185.604 715.997 185.202 716.204 184.777C716.595 183.974 716.735 182.903 716.735 181.632H715.22H713.705C713.705 182.773 713.563 183.28 713.48 183.452C713.45 183.514 713.466 183.449 713.579 183.374C713.7 183.293 713.823 183.273 713.888 183.273V184.788ZM715.22 181.632H716.735C716.735 180.371 716.596 179.307 716.193 178.512C715.977 178.085 715.664 177.694 715.223 177.418C714.778 177.14 714.308 177.045 713.888 177.045V178.56V180.075C713.852 180.075 713.741 180.064 713.617 179.987C713.498 179.912 713.47 179.839 713.491 179.88C713.562 180.021 713.705 180.493 713.705 181.632H715.22ZM713.888 178.56V177.045C713.468 177.045 712.999 177.14 712.555 177.415C712.114 177.689 711.799 178.078 711.58 178.505C711.171 179.302 711.029 180.368 711.029 181.632H712.544H714.059C714.059 180.496 714.205 180.026 714.276 179.887C714.297 179.846 714.269 179.917 714.152 179.99C714.032 180.064 713.924 180.075 713.888 180.075V178.56ZM712.544 181.632H711.029C711.029 182.907 711.173 183.979 711.569 184.784C711.779 185.21 712.083 185.609 712.517 185.896C712.959 186.19 713.44 186.303 713.888 186.303V184.788V183.273C713.952 183.273 714.072 183.293 714.191 183.372C714.301 183.445 714.317 183.507 714.287 183.445C714.203 183.275 714.059 182.769 714.059 181.632H712.544ZM718.026 186H716.512V187.515H718.026V186ZM718.026 177.108V175.593H716.512V177.108H718.026ZM719.802 177.108H721.317V175.593H719.802V177.108ZM719.802 180.972H718.288V182.487H719.802V180.972ZM719.838 180.972V182.487H720.589L721.044 181.889L719.838 180.972ZM722.778 177.108V175.593H722.027L721.573 176.191L722.778 177.108ZM724.734 177.108L725.932 178.035L727.822 175.593H724.734V177.108ZM722.022 180.612L720.824 179.685L720.195 180.499L720.719 181.384L722.022 180.612ZM725.214 186V187.515H727.872L726.518 185.228L725.214 186ZM723.27 186L721.958 186.757L722.395 187.515H723.27V186ZM720.966 182.004L722.279 181.247L721.152 179.294L719.77 181.075L720.966 182.004ZM719.802 183.504L718.606 182.575L718.288 182.985V183.504H719.802ZM719.802 186V187.515H721.317V186H719.802ZM718.026 186H719.541V177.108H718.026H716.512V186H718.026ZM718.026 177.108V178.623H719.802V177.108V175.593H718.026V177.108ZM719.802 177.108H718.288V180.972H719.802H721.317V177.108H719.802ZM719.802 180.972V182.487H719.838V180.972V179.457H719.802V180.972ZM719.838 180.972L721.044 181.889L723.984 178.025L722.778 177.108L721.573 176.191L718.633 180.055L719.838 180.972ZM722.778 177.108V178.623H724.734V177.108V175.593H722.778V177.108ZM724.734 177.108L723.536 176.181L720.824 179.685L722.022 180.612L723.22 181.539L725.932 178.035L724.734 177.108ZM722.022 180.612L720.719 181.384L723.911 186.772L725.214 186L726.518 185.228L723.326 179.84L722.022 180.612ZM725.214 186V184.485H723.27V186V187.515H725.214V186ZM723.27 186L724.583 185.243L722.279 181.247L720.966 182.004L719.654 182.761L721.958 186.757L723.27 186ZM720.966 182.004L719.77 181.075L718.606 182.575L719.802 183.504L720.999 184.433L722.163 182.933L720.966 182.004ZM719.802 183.504H718.288V186H719.802H721.317V183.504H719.802ZM719.802 186V184.485H718.026V186V187.515H719.802V186ZM725.629 186H724.114V187.515H725.629V186ZM725.629 179.28V177.765H724.114V179.28H725.629ZM727.069 179.28L728.568 179.06L728.378 177.765H727.069V179.28ZM727.201 180.18L725.702 180.4L725.892 181.695H727.201V180.18ZM727.237 180.18V181.695H727.883L728.33 181.229L727.237 180.18ZM731.149 180.288L729.76 180.893L730.676 182.995L732.25 181.328L731.149 180.288ZM735.373 186V187.515H736.888V186H735.373ZM733.609 186H732.094V187.515H733.609V186ZM731.377 181.38L730.28 180.335L729.862 180.774V181.38H731.377ZM731.377 186V187.515H732.892V186H731.377ZM729.625 186H728.11V187.515H729.625V186ZM727.393 181.38L726.283 180.349L725.878 180.785V181.38H727.393ZM727.393 186V187.515H728.908V186H727.393ZM725.629 186H727.144V179.28H725.629H724.114V186H725.629ZM725.629 179.28V180.795H727.069V179.28V177.765H725.629V179.28ZM727.069 179.28L725.57 179.5L725.702 180.4L727.201 180.18L728.7 179.96L728.568 179.06L727.069 179.28ZM727.201 180.18V181.695H727.237V180.18V178.665H727.201V180.18ZM727.237 180.18L728.33 181.229C728.815 180.723 729.062 180.627 729.301 180.627V179.112V177.597C727.787 177.597 726.787 178.461 726.144 179.131L727.237 180.18ZM729.301 179.112V180.627C729.549 180.627 729.621 180.68 729.623 180.681C729.628 180.684 729.685 180.72 729.76 180.893L731.149 180.288L732.538 179.683C732.289 179.112 731.902 178.56 731.304 178.161C730.703 177.76 730.013 177.597 729.301 177.597V179.112ZM731.149 180.288L732.25 181.328C732.825 180.719 733.086 180.627 733.285 180.627V179.112V177.597C731.732 177.597 730.696 178.561 730.048 179.248L731.149 180.288ZM733.285 179.112V180.627C733.464 180.627 733.55 180.658 733.58 180.672C733.604 180.683 733.622 180.695 733.647 180.729C733.717 180.824 733.858 181.124 733.858 181.812H735.373H736.888C736.888 180.808 736.698 179.758 736.081 178.926C735.407 178.015 734.397 177.597 733.285 177.597V179.112ZM735.373 181.812H733.858V186H735.373H736.888V181.812H735.373ZM735.373 186V184.485H733.609V186V187.515H735.373V186ZM733.609 186H735.124V182.028H733.609H732.094V186H733.609ZM733.609 182.028H735.124C735.124 181.434 735.053 180.684 734.62 180.065C734.089 179.307 733.296 179.109 732.673 179.109V180.624V182.139C732.696 182.139 732.618 182.143 732.494 182.09C732.35 182.029 732.224 181.925 732.139 181.804C732.066 181.7 732.06 181.636 732.07 181.681C732.079 181.726 732.094 181.832 732.094 182.028H733.609ZM732.673 180.624V179.109C731.643 179.109 730.833 179.755 730.28 180.335L731.377 181.38L732.474 182.425C732.651 182.239 732.769 182.154 732.824 182.121C732.877 182.091 732.818 182.139 732.673 182.139V180.624ZM731.377 181.38H729.862V186H731.377H732.892V181.38H731.377ZM731.377 186V184.485H729.625V186V187.515H731.377V186ZM729.625 186H731.14V182.028H729.625H728.11V186H729.625ZM729.625 182.028H731.14C731.14 181.425 731.064 180.673 730.622 180.054C730.087 179.305 729.299 179.109 728.677 179.109V180.624V182.139C728.7 182.139 728.625 182.143 728.505 182.092C728.366 182.034 728.241 181.933 728.157 181.815C728.084 181.712 728.077 181.648 728.086 181.689C728.095 181.732 728.11 181.835 728.11 182.028H729.625ZM728.677 180.624V179.109C727.644 179.109 726.833 179.756 726.283 180.349L727.393 181.38L728.503 182.411C728.671 182.23 728.783 182.149 728.834 182.119C728.882 182.091 728.822 182.139 728.677 182.139V180.624ZM727.393 181.38H725.878V186H727.393H728.908V181.38H727.393ZM727.393 186V184.485H725.629V186V187.515H727.393V186Z" fill="black" fill-opacity="0.5" mask="url(#path-8-outside-3_1333_2364)"/>
<mask id="path-10-outside-4_1333_2364" maskUnits="userSpaceOnUse" x="793" y="175" width="45" height="13" fill="black">
<rect fill="white" x="793" y="175" width="45" height="13"/>
<path d="M796.853 180.048C796.853 181.02 797.345 181.464 798.125 181.464C798.593 181.464 799.157 181.188 799.565 180.516C799.385 179.064 798.785 178.512 798.053 178.512C797.393 178.512 796.853 179.016 796.853 180.048ZM797.789 186.168C796.697 186.168 795.893 185.7 795.377 185.16L796.313 184.092C796.625 184.452 797.165 184.728 797.681 184.728C798.701 184.728 799.541 183.984 799.613 181.752C799.121 182.364 798.365 182.724 797.789 182.724C796.301 182.724 795.233 181.86 795.233 180.048C795.233 178.284 796.505 177.18 798.029 177.18C799.709 177.18 801.221 178.464 801.221 181.44C801.221 184.74 799.577 186.168 797.789 186.168ZM804.879 186.168C803.055 186.168 801.867 184.572 801.867 181.632C801.867 178.704 803.055 177.18 804.879 177.18C806.703 177.18 807.879 178.716 807.879 181.632C807.879 184.572 806.703 186.168 804.879 186.168ZM804.879 184.788C805.647 184.788 806.211 184.044 806.211 181.632C806.211 179.232 805.647 178.56 804.879 178.56C804.111 178.56 803.535 179.232 803.535 181.632C803.535 184.044 804.111 184.788 804.879 184.788ZM809.87 186.168C809.246 186.168 808.778 185.664 808.778 185.016C808.778 184.356 809.246 183.864 809.87 183.864C810.506 183.864 810.974 184.356 810.974 185.016C810.974 185.664 810.506 186.168 809.87 186.168ZM814.888 186.168C813.064 186.168 811.876 184.572 811.876 181.632C811.876 178.704 813.064 177.18 814.888 177.18C816.712 177.18 817.888 178.716 817.888 181.632C817.888 184.572 816.712 186.168 814.888 186.168ZM814.888 184.788C815.656 184.788 816.22 184.044 816.22 181.632C816.22 179.232 815.656 178.56 814.888 178.56C814.12 178.56 813.544 179.232 813.544 181.632C813.544 184.044 814.12 184.788 814.888 184.788ZM819.026 186V177.108H820.802V180.972H820.838L823.778 177.108H825.734L823.022 180.612L826.214 186H824.27L821.966 182.004L820.802 183.504V186H819.026ZM826.629 186V179.28H828.069L828.201 180.18H828.237C828.801 179.592 829.425 179.112 830.301 179.112C831.261 179.112 831.825 179.544 832.149 180.288C832.761 179.64 833.409 179.112 834.285 179.112C835.713 179.112 836.373 180.12 836.373 181.812V186H834.609V182.028C834.609 180.984 834.309 180.624 833.673 180.624C833.289 180.624 832.857 180.876 832.377 181.38V186H830.625V182.028C830.625 180.984 830.313 180.624 829.677 180.624C829.293 180.624 828.861 180.876 828.393 181.38V186H826.629Z"/>
</mask>
<path d="M796.853 180.048C796.853 181.02 797.345 181.464 798.125 181.464C798.593 181.464 799.157 181.188 799.565 180.516C799.385 179.064 798.785 178.512 798.053 178.512C797.393 178.512 796.853 179.016 796.853 180.048ZM797.789 186.168C796.697 186.168 795.893 185.7 795.377 185.16L796.313 184.092C796.625 184.452 797.165 184.728 797.681 184.728C798.701 184.728 799.541 183.984 799.613 181.752C799.121 182.364 798.365 182.724 797.789 182.724C796.301 182.724 795.233 181.86 795.233 180.048C795.233 178.284 796.505 177.18 798.029 177.18C799.709 177.18 801.221 178.464 801.221 181.44C801.221 184.74 799.577 186.168 797.789 186.168ZM804.879 186.168C803.055 186.168 801.867 184.572 801.867 181.632C801.867 178.704 803.055 177.18 804.879 177.18C806.703 177.18 807.879 178.716 807.879 181.632C807.879 184.572 806.703 186.168 804.879 186.168ZM804.879 184.788C805.647 184.788 806.211 184.044 806.211 181.632C806.211 179.232 805.647 178.56 804.879 178.56C804.111 178.56 803.535 179.232 803.535 181.632C803.535 184.044 804.111 184.788 804.879 184.788ZM809.87 186.168C809.246 186.168 808.778 185.664 808.778 185.016C808.778 184.356 809.246 183.864 809.87 183.864C810.506 183.864 810.974 184.356 810.974 185.016C810.974 185.664 810.506 186.168 809.87 186.168ZM814.888 186.168C813.064 186.168 811.876 184.572 811.876 181.632C811.876 178.704 813.064 177.18 814.888 177.18C816.712 177.18 817.888 178.716 817.888 181.632C817.888 184.572 816.712 186.168 814.888 186.168ZM814.888 184.788C815.656 184.788 816.22 184.044 816.22 181.632C816.22 179.232 815.656 178.56 814.888 178.56C814.12 178.56 813.544 179.232 813.544 181.632C813.544 184.044 814.12 184.788 814.888 184.788ZM819.026 186V177.108H820.802V180.972H820.838L823.778 177.108H825.734L823.022 180.612L826.214 186H824.27L821.966 182.004L820.802 183.504V186H819.026ZM826.629 186V179.28H828.069L828.201 180.18H828.237C828.801 179.592 829.425 179.112 830.301 179.112C831.261 179.112 831.825 179.544 832.149 180.288C832.761 179.64 833.409 179.112 834.285 179.112C835.713 179.112 836.373 180.12 836.373 181.812V186H834.609V182.028C834.609 180.984 834.309 180.624 833.673 180.624C833.289 180.624 832.857 180.876 832.377 181.38V186H830.625V182.028C830.625 180.984 830.313 180.624 829.677 180.624C829.293 180.624 828.861 180.876 828.393 181.38V186H826.629Z" fill="white"/>
<path d="M799.565 180.516L800.86 181.302L801.133 180.852L801.068 180.33L799.565 180.516ZM795.377 185.16L794.238 184.162L793.324 185.204L794.282 186.206L795.377 185.16ZM796.313 184.092L797.457 183.1L796.319 181.787L795.174 183.094L796.313 184.092ZM799.613 181.752L801.127 181.801L801.273 177.269L798.432 180.803L799.613 181.752ZM796.853 180.048H795.338C795.338 180.773 795.523 181.557 796.097 182.163C796.683 182.781 797.451 182.979 798.125 182.979V181.464V179.949C798.071 179.949 798.075 179.941 798.116 179.956C798.163 179.974 798.232 180.012 798.295 180.078C798.357 180.143 798.378 180.199 798.382 180.208C798.383 180.213 798.367 180.167 798.367 180.048H796.853ZM798.125 181.464V182.979C799.202 182.979 800.221 182.353 800.86 181.302L799.565 180.516L798.27 179.73C798.18 179.878 798.104 179.934 798.078 179.949C798.049 179.967 798.062 179.949 798.125 179.949V181.464ZM799.565 180.516L801.068 180.33C800.959 179.452 800.701 178.632 800.183 178.005C799.618 177.321 798.849 176.997 798.053 176.997V178.512V180.027C798.042 180.027 797.998 180.024 797.94 179.997C797.913 179.985 797.89 179.97 797.873 179.957C797.856 179.943 797.848 179.934 797.848 179.934C797.858 179.946 797.99 180.128 798.062 180.702L799.565 180.516ZM798.053 178.512V176.997C797.316 176.997 796.581 177.291 796.053 177.91C795.541 178.51 795.338 179.278 795.338 180.048H796.853H798.367C798.367 179.786 798.435 179.786 798.358 179.876C798.32 179.92 798.265 179.963 798.199 179.992C798.135 180.021 798.082 180.027 798.053 180.027V178.512ZM797.789 186.168V184.653C797.166 184.653 796.743 184.397 796.472 184.114L795.377 185.16L794.282 186.206C795.042 187.003 796.227 187.683 797.789 187.683V186.168ZM795.377 185.16L796.516 186.158L797.452 185.09L796.313 184.092L795.174 183.094L794.238 184.162L795.377 185.16ZM796.313 184.092L795.168 185.084C795.742 185.746 796.687 186.243 797.681 186.243V184.728V183.213C797.685 183.213 797.643 183.212 797.573 183.178C797.542 183.163 797.514 183.146 797.491 183.129C797.48 183.121 797.472 183.114 797.466 183.108C797.46 183.103 797.457 183.1 797.457 183.1L796.313 184.092ZM797.681 184.728V186.243C798.606 186.243 799.549 185.878 800.217 184.982C800.826 184.164 801.086 183.063 801.127 181.801L799.613 181.752L798.099 181.703C798.067 182.673 797.871 183.06 797.788 183.172C797.756 183.214 797.746 183.212 797.76 183.205C797.769 183.201 797.751 183.213 797.681 183.213V184.728ZM799.613 181.752L798.432 180.803C798.329 180.931 798.187 181.044 798.037 181.122C797.878 181.204 797.782 181.209 797.789 181.209V182.724V184.239C798.888 184.239 800.057 183.617 800.793 182.701L799.613 181.752ZM797.789 182.724V181.209C797.331 181.209 797.112 181.08 797.011 180.982C796.919 180.892 796.747 180.654 796.747 180.048H795.233H793.718C793.718 181.254 794.081 182.354 794.894 183.149C795.7 183.936 796.758 184.239 797.789 184.239V182.724ZM795.233 180.048H796.747C796.747 179.154 797.307 178.695 798.029 178.695V177.18V175.665C795.702 175.665 793.718 177.414 793.718 180.048H795.233ZM798.029 177.18V178.695C798.464 178.695 798.825 178.85 799.1 179.174C799.391 179.517 799.706 180.197 799.706 181.44H801.221H802.735C802.735 179.707 802.294 178.257 801.41 177.214C800.509 176.152 799.273 175.665 798.029 175.665V177.18ZM801.221 181.44H799.706C799.706 182.851 799.355 183.656 799.007 184.078C798.676 184.478 798.257 184.653 797.789 184.653V186.168V187.683C799.108 187.683 800.405 187.144 801.344 186.005C802.265 184.888 802.735 183.329 802.735 181.44H801.221ZM804.879 186.168V184.653C804.475 184.653 804.186 184.507 803.939 184.147C803.648 183.722 803.382 182.927 803.382 181.632H801.867H800.352C800.352 183.277 800.68 184.75 801.439 185.858C802.242 187.031 803.459 187.683 804.879 187.683V186.168ZM801.867 181.632H803.382C803.382 180.343 803.648 179.578 803.928 179.179C804.163 178.845 804.448 178.695 804.879 178.695V177.18V175.665C803.486 175.665 802.265 176.277 801.45 177.437C800.68 178.532 800.352 179.993 800.352 181.632H801.867ZM804.879 177.18V178.695C805.305 178.695 805.587 178.844 805.821 179.179C806.101 179.58 806.364 180.347 806.364 181.632H807.879H809.394C809.394 180.001 809.07 178.542 808.306 177.446C807.495 176.284 806.278 175.665 804.879 175.665V177.18ZM807.879 181.632H806.364C806.364 182.93 806.1 183.726 805.811 184.15C805.567 184.509 805.282 184.653 804.879 184.653V186.168V187.683C806.3 187.683 807.515 187.029 808.315 185.855C809.07 184.746 809.394 183.274 809.394 181.632H807.879ZM804.879 184.788V186.303C805.328 186.303 805.809 186.19 806.253 185.894C806.687 185.604 806.989 185.202 807.195 184.777C807.586 183.974 807.726 182.903 807.726 181.632H806.211H804.696C804.696 182.773 804.554 183.28 804.471 183.452C804.441 183.514 804.458 183.449 804.57 183.374C804.692 183.293 804.815 183.273 804.879 183.273V184.788ZM806.211 181.632H807.726C807.726 180.371 807.587 179.307 807.184 178.512C806.969 178.085 806.655 177.694 806.214 177.418C805.769 177.14 805.299 177.045 804.879 177.045V178.56V180.075C804.843 180.075 804.732 180.064 804.609 179.987C804.489 179.912 804.461 179.839 804.482 179.88C804.553 180.021 804.696 180.493 804.696 181.632H806.211ZM804.879 178.56V177.045C804.459 177.045 803.991 177.14 803.547 177.415C803.106 177.689 802.79 178.078 802.571 178.505C802.163 179.302 802.02 180.368 802.02 181.632H803.535H805.05C805.05 180.496 805.196 180.026 805.267 179.887C805.288 179.846 805.261 179.917 805.144 179.99C805.024 180.064 804.915 180.075 804.879 180.075V178.56ZM803.535 181.632H802.02C802.02 182.907 802.164 183.979 802.56 184.784C802.77 185.21 803.074 185.609 803.508 185.896C803.951 186.19 804.431 186.303 804.879 186.303V184.788V183.273C804.943 183.273 805.064 183.293 805.182 183.372C805.292 183.445 805.308 183.507 805.278 183.445C805.194 183.275 805.05 182.769 805.05 181.632H803.535ZM809.87 186.168V184.653C809.983 184.653 810.106 184.705 810.192 184.796C810.274 184.883 810.292 184.972 810.292 185.016H808.778H807.263C807.263 186.414 808.325 187.683 809.87 187.683V186.168ZM808.778 185.016H810.292C810.292 185.049 810.277 185.142 810.188 185.235C810.096 185.332 809.971 185.379 809.87 185.379V183.864V182.349C808.335 182.349 807.263 183.595 807.263 185.016H808.778ZM809.87 183.864V185.379C809.782 185.379 809.66 185.338 809.565 185.239C809.474 185.144 809.459 185.05 809.459 185.016H810.974H812.488C812.488 183.584 811.405 182.349 809.87 182.349V183.864ZM810.974 185.016H809.459C809.459 184.971 809.478 184.88 809.561 184.792C809.65 184.699 809.771 184.653 809.87 184.653V186.168V187.683C811.415 187.683 812.488 186.425 812.488 185.016H810.974ZM814.888 186.168V184.653C814.484 184.653 814.195 184.507 813.948 184.147C813.657 183.722 813.391 182.927 813.391 181.632H811.876H810.361C810.361 183.277 810.689 184.75 811.448 185.858C812.251 187.031 813.468 187.683 814.888 187.683V186.168ZM811.876 181.632H813.391C813.391 180.343 813.657 179.578 813.937 179.179C814.172 178.845 814.457 178.695 814.888 178.695V177.18V175.665C813.495 175.665 812.274 176.277 811.459 177.437C810.689 178.532 810.361 179.993 810.361 181.632H811.876ZM814.888 177.18V178.695C815.313 178.695 815.596 178.844 815.829 179.179C816.109 179.58 816.373 180.347 816.373 181.632H817.888H819.403C819.403 180.001 819.078 178.542 818.314 177.446C817.504 176.284 816.286 175.665 814.888 175.665V177.18ZM817.888 181.632H816.373C816.373 182.93 816.109 183.726 815.82 184.15C815.576 184.509 815.291 184.653 814.888 184.653V186.168V187.683C816.309 187.683 817.524 187.029 818.324 185.855C819.079 184.746 819.403 183.274 819.403 181.632H817.888ZM814.888 184.788V186.303C815.336 186.303 815.818 186.19 816.261 185.894C816.695 185.604 816.997 185.202 817.204 184.777C817.595 183.974 817.735 182.903 817.735 181.632H816.22H814.705C814.705 182.773 814.563 183.28 814.48 183.452C814.45 183.514 814.466 183.449 814.579 183.374C814.7 183.293 814.823 183.273 814.888 183.273V184.788ZM816.22 181.632H817.735C817.735 180.371 817.596 179.307 817.193 178.512C816.977 178.085 816.664 177.694 816.223 177.418C815.778 177.14 815.308 177.045 814.888 177.045V178.56V180.075C814.852 180.075 814.741 180.064 814.617 179.987C814.498 179.912 814.47 179.839 814.491 179.88C814.562 180.021 814.705 180.493 814.705 181.632H816.22ZM814.888 178.56V177.045C814.468 177.045 813.999 177.14 813.555 177.415C813.114 177.689 812.799 178.078 812.58 178.505C812.171 179.302 812.029 180.368 812.029 181.632H813.544H815.059C815.059 180.496 815.205 180.026 815.276 179.887C815.297 179.846 815.269 179.917 815.152 179.99C815.032 180.064 814.924 180.075 814.888 180.075V178.56ZM813.544 181.632H812.029C812.029 182.907 812.173 183.979 812.569 184.784C812.779 185.21 813.083 185.609 813.517 185.896C813.959 186.19 814.44 186.303 814.888 186.303V184.788V183.273C814.952 183.273 815.072 183.293 815.191 183.372C815.301 183.445 815.317 183.507 815.287 183.445C815.203 183.275 815.059 182.769 815.059 181.632H813.544ZM819.026 186H817.512V187.515H819.026V186ZM819.026 177.108V175.593H817.512V177.108H819.026ZM820.802 177.108H822.317V175.593H820.802V177.108ZM820.802 180.972H819.288V182.487H820.802V180.972ZM820.838 180.972V182.487H821.589L822.044 181.889L820.838 180.972ZM823.778 177.108V175.593H823.027L822.573 176.191L823.778 177.108ZM825.734 177.108L826.932 178.035L828.822 175.593H825.734V177.108ZM823.022 180.612L821.824 179.685L821.195 180.499L821.719 181.384L823.022 180.612ZM826.214 186V187.515H828.872L827.518 185.228L826.214 186ZM824.27 186L822.958 186.757L823.395 187.515H824.27V186ZM821.966 182.004L823.279 181.247L822.152 179.294L820.77 181.075L821.966 182.004ZM820.802 183.504L819.606 182.575L819.288 182.985V183.504H820.802ZM820.802 186V187.515H822.317V186H820.802ZM819.026 186H820.541V177.108H819.026H817.512V186H819.026ZM819.026 177.108V178.623H820.802V177.108V175.593H819.026V177.108ZM820.802 177.108H819.288V180.972H820.802H822.317V177.108H820.802ZM820.802 180.972V182.487H820.838V180.972V179.457H820.802V180.972ZM820.838 180.972L822.044 181.889L824.984 178.025L823.778 177.108L822.573 176.191L819.633 180.055L820.838 180.972ZM823.778 177.108V178.623H825.734V177.108V175.593H823.778V177.108ZM825.734 177.108L824.536 176.181L821.824 179.685L823.022 180.612L824.22 181.539L826.932 178.035L825.734 177.108ZM823.022 180.612L821.719 181.384L824.911 186.772L826.214 186L827.518 185.228L824.326 179.84L823.022 180.612ZM826.214 186V184.485H824.27V186V187.515H826.214V186ZM824.27 186L825.583 185.243L823.279 181.247L821.966 182.004L820.654 182.761L822.958 186.757L824.27 186ZM821.966 182.004L820.77 181.075L819.606 182.575L820.802 183.504L821.999 184.433L823.163 182.933L821.966 182.004ZM820.802 183.504H819.288V186H820.802H822.317V183.504H820.802ZM820.802 186V184.485H819.026V186V187.515H820.802V186ZM826.629 186H825.114V187.515H826.629V186ZM826.629 179.28V177.765H825.114V179.28H826.629ZM828.069 179.28L829.568 179.06L829.378 177.765H828.069V179.28ZM828.201 180.18L826.702 180.4L826.892 181.695H828.201V180.18ZM828.237 180.18V181.695H828.883L829.33 181.229L828.237 180.18ZM832.149 180.288L830.76 180.893L831.676 182.995L833.25 181.328L832.149 180.288ZM836.373 186V187.515H837.888V186H836.373ZM834.609 186H833.094V187.515H834.609V186ZM832.377 181.38L831.28 180.335L830.862 180.774V181.38H832.377ZM832.377 186V187.515H833.892V186H832.377ZM830.625 186H829.11V187.515H830.625V186ZM828.393 181.38L827.283 180.349L826.878 180.785V181.38H828.393ZM828.393 186V187.515H829.908V186H828.393ZM826.629 186H828.144V179.28H826.629H825.114V186H826.629ZM826.629 179.28V180.795H828.069V179.28V177.765H826.629V179.28ZM828.069 179.28L826.57 179.5L826.702 180.4L828.201 180.18L829.7 179.96L829.568 179.06L828.069 179.28ZM828.201 180.18V181.695H828.237V180.18V178.665H828.201V180.18ZM828.237 180.18L829.33 181.229C829.815 180.723 830.062 180.627 830.301 180.627V179.112V177.597C828.787 177.597 827.787 178.461 827.144 179.131L828.237 180.18ZM830.301 179.112V180.627C830.549 180.627 830.621 180.68 830.623 180.681C830.628 180.684 830.685 180.72 830.76 180.893L832.149 180.288L833.538 179.683C833.289 179.112 832.902 178.56 832.304 178.161C831.703 177.76 831.013 177.597 830.301 177.597V179.112ZM832.149 180.288L833.25 181.328C833.825 180.719 834.086 180.627 834.285 180.627V179.112V177.597C832.732 177.597 831.696 178.561 831.048 179.248L832.149 180.288ZM834.285 179.112V180.627C834.464 180.627 834.55 180.658 834.58 180.672C834.604 180.683 834.622 180.695 834.647 180.729C834.717 180.824 834.858 181.124 834.858 181.812H836.373H837.888C837.888 180.808 837.698 179.758 837.081 178.926C836.407 178.015 835.397 177.597 834.285 177.597V179.112ZM836.373 181.812H834.858V186H836.373H837.888V181.812H836.373ZM836.373 186V184.485H834.609V186V187.515H836.373V186ZM834.609 186H836.124V182.028H834.609H833.094V186H834.609ZM834.609 182.028H836.124C836.124 181.434 836.053 180.684 835.62 180.065C835.089 179.307 834.296 179.109 833.673 179.109V180.624V182.139C833.696 182.139 833.618 182.143 833.494 182.09C833.35 182.029 833.224 181.925 833.139 181.804C833.066 181.7 833.06 181.636 833.07 181.681C833.079 181.726 833.094 181.832 833.094 182.028H834.609ZM833.673 180.624V179.109C832.643 179.109 831.833 179.755 831.28 180.335L832.377 181.38L833.474 182.425C833.651 182.239 833.769 182.154 833.824 182.121C833.877 182.091 833.818 182.139 833.673 182.139V180.624ZM832.377 181.38H830.862V186H832.377H833.892V181.38H832.377ZM832.377 186V184.485H830.625V186V187.515H832.377V186ZM830.625 186H832.14V182.028H830.625H829.11V186H830.625ZM830.625 182.028H832.14C832.14 181.425 832.064 180.673 831.622 180.054C831.087 179.305 830.299 179.109 829.677 179.109V180.624V182.139C829.7 182.139 829.625 182.143 829.505 182.092C829.366 182.034 829.241 181.933 829.157 181.815C829.084 181.712 829.077 181.648 829.086 181.689C829.095 181.732 829.11 181.835 829.11 182.028H830.625ZM829.677 180.624V179.109C828.644 179.109 827.833 179.756 827.283 180.349L828.393 181.38L829.503 182.411C829.671 182.23 829.783 182.149 829.834 182.119C829.882 182.091 829.822 182.139 829.677 182.139V180.624ZM828.393 181.38H826.878V186H828.393H829.908V181.38H828.393ZM828.393 186V184.485H826.629V186V187.515H828.393V186Z" fill="black" fill-opacity="0.5" mask="url(#path-10-outside-4_1333_2364)"/>
<circle cx="513.5" cy="170.5" r="284.5" stroke="white" stroke-width="1.51473" stroke-dasharray="1 4 1 1 4 1"/>
<circle cx="514" cy="170" r="240" stroke="white" stroke-width="1.51473" stroke-dasharray="1 4 1 1 4 1"/>
<circle cx="514.5" cy="170.5" r="191.5" stroke="white" stroke-width="1.51473" stroke-dasharray="1 4 1 1 4 1"/>
<circle cx="514" cy="170" r="145" stroke="white" stroke-width="1.51473" stroke-dasharray="1 4 1 1 4 1"/>
<circle cx="514" cy="170" r="96" stroke="white" stroke-width="1.51473" stroke-dasharray="1 4 1 1 4 1"/>
<circle cx="514.5" cy="170.5" r="48.5" stroke="white" stroke-width="1.51473" stroke-dasharray="1 4 1 1 4 1"/>
<circle cx="560" cy="167" r="11" fill="#F10601"/>
<circle cx="439" cy="116" r="11" fill="#F10601"/>
<circle cx="316" cy="114" r="11" fill="#F10601"/>
<circle cx="408" cy="232" r="11" fill="#F10601"/>
<circle cx="575" cy="308" r="11" fill="#F10601"/>
<circle cx="637" cy="128" r="11" fill="#F10601"/>
<circle cx="685" cy="102" r="11" fill="#F10601"/>
<circle cx="729" cy="235" r="11" fill="#F10601"/>
<circle cx="785" cy="181" r="11" fill="#F10601"/>
<circle cx="735" cy="63" r="11" fill="#F10601"/>
<circle cx="742" cy="32" r="11" fill="#F10601"/>
<path d="M557.214 172.168C555.402 172.168 554.202 170.584 554.202 167.524C554.202 164.452 555.402 162.952 557.214 162.952C559.026 162.952 560.214 164.464 560.214 167.524C560.214 170.584 559.026 172.168 557.214 172.168ZM557.214 170.788C557.982 170.788 558.546 170.02 558.546 167.524C558.546 165.04 557.982 164.32 557.214 164.32C556.446 164.32 555.87 165.04 555.87 167.524C555.87 170.02 556.446 170.788 557.214 170.788ZM563.548 172.168C562.144 172.168 561.196 171.64 560.572 170.932L561.4 169.816C561.928 170.332 562.576 170.728 563.38 170.728C564.28 170.728 564.892 170.284 564.892 169.48C564.892 168.616 564.376 168.064 562.444 168.064V166.804C564.076 166.804 564.604 166.24 564.604 165.448C564.604 164.752 564.172 164.344 563.416 164.344C562.78 164.344 562.264 164.632 561.736 165.124L560.836 164.044C561.604 163.372 562.456 162.952 563.5 162.952C565.216 162.952 566.38 163.804 566.38 165.316C566.38 166.276 565.84 166.972 564.904 167.344V167.404C565.9 167.68 566.668 168.424 566.668 169.588C566.668 171.22 565.24 172.168 563.548 172.168Z" fill="white"/>
<path d="M630.658 133V131.572H632.566V125.956H630.958V124.864C631.846 124.696 632.458 124.468 633.022 124.108H634.33V131.572H635.998V133H630.658ZM637.244 133V131.572H639.152V125.956H637.544V124.864C638.432 124.696 639.044 124.468 639.608 124.108H640.916V131.572H642.584V133H637.244Z" fill="white"/>
<path d="M682.214 107.168C680.402 107.168 679.202 105.584 679.202 102.524C679.202 99.452 680.402 97.952 682.214 97.952C684.026 97.952 685.214 99.464 685.214 102.524C685.214 105.584 684.026 107.168 682.214 107.168ZM682.214 105.788C682.982 105.788 683.546 105.02 683.546 102.524C683.546 100.04 682.982 99.32 682.214 99.32C681.446 99.32 680.87 100.04 680.87 102.524C680.87 105.02 681.446 105.788 682.214 105.788ZM687.228 103.352H689.304V101.54C689.304 101.024 689.34 100.22 689.364 99.692H689.316C689.1 100.172 688.86 100.664 688.608 101.144L687.228 103.352ZM689.304 107V104.696H685.512V103.496L688.824 98.108H690.948V103.352H691.992V104.696H690.948V107H689.304Z" fill="white"/>
<path d="M732.214 68.168C730.402 68.168 729.202 66.584 729.202 63.524C729.202 60.452 730.402 58.952 732.214 58.952C734.026 58.952 735.214 60.464 735.214 63.524C735.214 66.584 734.026 68.168 732.214 68.168ZM732.214 66.788C732.982 66.788 733.546 66.02 733.546 63.524C733.546 61.04 732.982 60.32 732.214 60.32C731.446 60.32 730.87 61.04 730.87 63.524C730.87 66.02 731.446 66.788 732.214 66.788ZM738.956 63.656C738.476 63.656 737.912 63.92 737.504 64.592C737.672 66.212 738.272 66.836 739.016 66.836C739.676 66.836 740.228 66.284 740.228 65.192C740.228 64.148 739.724 63.656 738.956 63.656ZM739.052 68.168C737.36 68.168 735.86 66.812 735.86 63.68C735.86 60.368 737.504 58.952 739.292 58.952C740.384 58.952 741.164 59.408 741.704 59.96L740.768 61.016C740.456 60.656 739.916 60.368 739.4 60.368C738.38 60.368 737.54 61.136 737.468 63.368C737.948 62.768 738.716 62.408 739.292 62.408C740.78 62.408 741.836 63.296 741.836 65.192C741.836 67.016 740.564 68.168 739.052 68.168Z" fill="white"/>
<path d="M778.658 185V183.572H780.566V177.956H778.958V176.864C779.846 176.696 780.458 176.468 781.022 176.108H782.33V183.572H783.998V185H778.658ZM787.8 185.168C785.988 185.168 784.788 183.584 784.788 180.524C784.788 177.452 785.988 175.952 787.8 175.952C789.612 175.952 790.8 177.464 790.8 180.524C790.8 183.584 789.612 185.168 787.8 185.168ZM787.8 183.788C788.568 183.788 789.132 183.02 789.132 180.524C789.132 178.04 788.568 177.32 787.8 177.32C787.032 177.32 786.456 178.04 786.456 180.524C786.456 183.02 787.032 183.788 787.8 183.788Z" fill="white"/>
<path d="M725.214 240.168C723.402 240.168 722.202 238.584 722.202 235.524C722.202 232.452 723.402 230.952 725.214 230.952C727.026 230.952 728.214 232.464 728.214 235.524C728.214 238.584 727.026 240.168 725.214 240.168ZM725.214 238.788C725.982 238.788 726.546 238.02 726.546 235.524C726.546 233.04 725.982 232.32 725.214 232.32C724.446 232.32 723.87 233.04 723.87 235.524C723.87 238.02 724.446 238.788 725.214 238.788ZM728.776 240V238.98C731.188 236.82 732.616 235.152 732.616 233.784C732.616 232.884 732.136 232.344 731.284 232.344C730.636 232.344 730.108 232.764 729.652 233.256L728.692 232.296C729.508 231.42 730.3 230.952 731.512 230.952C733.192 230.952 734.308 232.032 734.308 233.688C734.308 235.296 732.976 237.024 731.356 238.608C731.8 238.56 732.388 238.512 732.808 238.512H734.728V240H728.776Z" fill="white"/>
<path d="M568.658 313V311.572H570.566V305.956H568.958V304.864C569.846 304.696 570.458 304.468 571.022 304.108H572.33V311.572H573.998V313H568.658ZM576.228 309.352H578.304V307.54C578.304 307.024 578.34 306.22 578.364 305.692H578.316C578.1 306.172 577.86 306.664 577.608 307.144L576.228 309.352ZM578.304 313V310.696H574.512V309.496L577.824 304.108H579.948V309.352H580.992V310.696H579.948V313H578.304Z" fill="white"/>
<path d="M739.214 37.168C737.402 37.168 736.202 35.584 736.202 32.524C736.202 29.452 737.402 27.952 739.214 27.952C741.026 27.952 742.214 29.464 742.214 32.524C742.214 35.584 741.026 37.168 739.214 37.168ZM739.214 35.788C739.982 35.788 740.546 35.02 740.546 32.524C740.546 30.04 739.982 29.32 739.214 29.32C738.446 29.32 737.87 30.04 737.87 32.524C737.87 35.02 738.446 35.788 739.214 35.788ZM744.492 37C744.648 33.916 745.164 31.948 746.856 29.596H742.86V28.108H748.764V29.188C746.7 31.708 746.424 33.52 746.28 37H744.492Z" fill="white"/>
<path d="M404.214 237.168C402.402 237.168 401.202 235.584 401.202 232.524C401.202 229.452 402.402 227.952 404.214 227.952C406.026 227.952 407.214 229.464 407.214 232.524C407.214 235.584 406.026 237.168 404.214 237.168ZM404.214 235.788C404.982 235.788 405.546 235.02 405.546 232.524C405.546 230.04 404.982 229.32 404.214 229.32C403.446 229.32 402.87 230.04 402.87 232.524C402.87 235.02 403.446 235.788 404.214 235.788ZM408.244 237V235.572H410.152V229.956H408.544V228.864C409.432 228.696 410.044 228.468 410.608 228.108H411.916V235.572H413.584V237H408.244Z" fill="white"/>
<path d="M432.658 121V119.572H434.566V113.956H432.958V112.864C433.846 112.696 434.458 112.468 435.022 112.108H436.33V119.572H437.998V121H432.658ZM441.548 121.168C440.144 121.168 439.196 120.64 438.572 119.932L439.4 118.816C439.928 119.332 440.576 119.728 441.38 119.728C442.28 119.728 442.892 119.284 442.892 118.48C442.892 117.616 442.376 117.064 440.444 117.064V115.804C442.076 115.804 442.604 115.24 442.604 114.448C442.604 113.752 442.172 113.344 441.416 113.344C440.78 113.344 440.264 113.632 439.736 114.124L438.836 113.044C439.604 112.372 440.456 111.952 441.5 111.952C443.216 111.952 444.38 112.804 444.38 114.316C444.38 115.276 443.84 115.972 442.904 116.344V116.404C443.9 116.68 444.668 117.424 444.668 118.588C444.668 120.22 443.24 121.168 441.548 121.168Z" fill="white"/>
<path d="M312.214 119.168C310.402 119.168 309.202 117.584 309.202 114.524C309.202 111.452 310.402 109.952 312.214 109.952C314.026 109.952 315.214 111.464 315.214 114.524C315.214 117.584 314.026 119.168 312.214 119.168ZM312.214 117.788C312.982 117.788 313.546 117.02 313.546 114.524C313.546 112.04 312.982 111.32 312.214 111.32C311.446 111.32 310.87 112.04 310.87 114.524C310.87 117.02 311.446 117.788 312.214 117.788ZM318.572 119.168C317.168 119.168 316.232 118.616 315.572 117.956L316.388 116.828C316.892 117.32 317.516 117.728 318.344 117.728C319.268 117.728 319.916 117.14 319.916 116.096C319.916 115.064 319.316 114.488 318.416 114.488C317.888 114.488 317.6 114.62 317.084 114.956L316.28 114.428L316.52 110.108H321.272V111.596H318.044L317.876 113.48C318.236 113.312 318.536 113.228 318.944 113.228C320.432 113.228 321.68 114.116 321.68 116.048C321.68 118.028 320.216 119.168 318.572 119.168Z" fill="white"/>
</g>
<defs>
<clipPath id="clip0_1333_2364">
<rect width="1030" height="357" rx="4" fill="white"/>
</clipPath>
</defs>
</svg>
